%TF.GenerationSoftware,KiCad,Pcbnew,(5.1.9-0-10_14)*%
%TF.CreationDate,2021-04-20T22:51:25+02:00*%
%TF.ProjectId,tribus,74726962-7573-42e6-9b69-6361645f7063,rev?*%
%TF.SameCoordinates,Original*%
%TF.FileFunction,Legend,Top*%
%TF.FilePolarity,Positive*%
%FSLAX46Y46*%
G04 Gerber Fmt 4.6, Leading zero omitted, Abs format (unit mm)*
G04 Created by KiCad (PCBNEW (5.1.9-0-10_14)) date 2021-04-20 22:51:25*
%MOMM*%
%LPD*%
G01*
G04 APERTURE LIST*
%ADD10C,0.200000*%
%ADD11C,0.150000*%
%ADD12C,0.010000*%
%ADD13C,0.120000*%
G04 APERTURE END LIST*
D10*
X1590476Y-102531904D02*
X1590476Y-101731904D01*
X1895238Y-101731904D01*
X1971428Y-101770000D01*
X2009523Y-101808095D01*
X2047619Y-101884285D01*
X2047619Y-101998571D01*
X2009523Y-102074761D01*
X1971428Y-102112857D01*
X1895238Y-102150952D01*
X1590476Y-102150952D01*
X2847619Y-102455714D02*
X2809523Y-102493809D01*
X2695238Y-102531904D01*
X2619047Y-102531904D01*
X2504761Y-102493809D01*
X2428571Y-102417619D01*
X2390476Y-102341428D01*
X2352380Y-102189047D01*
X2352380Y-102074761D01*
X2390476Y-101922380D01*
X2428571Y-101846190D01*
X2504761Y-101770000D01*
X2619047Y-101731904D01*
X2695238Y-101731904D01*
X2809523Y-101770000D01*
X2847619Y-101808095D01*
X3457142Y-102112857D02*
X3571428Y-102150952D01*
X3609523Y-102189047D01*
X3647619Y-102265238D01*
X3647619Y-102379523D01*
X3609523Y-102455714D01*
X3571428Y-102493809D01*
X3495238Y-102531904D01*
X3190476Y-102531904D01*
X3190476Y-101731904D01*
X3457142Y-101731904D01*
X3533333Y-101770000D01*
X3571428Y-101808095D01*
X3609523Y-101884285D01*
X3609523Y-101960476D01*
X3571428Y-102036666D01*
X3533333Y-102074761D01*
X3457142Y-102112857D01*
X3190476Y-102112857D01*
X4600000Y-102531904D02*
X4600000Y-101731904D01*
X4600000Y-102036666D02*
X4676190Y-101998571D01*
X4828571Y-101998571D01*
X4904761Y-102036666D01*
X4942857Y-102074761D01*
X4980952Y-102150952D01*
X4980952Y-102379523D01*
X4942857Y-102455714D01*
X4904761Y-102493809D01*
X4828571Y-102531904D01*
X4676190Y-102531904D01*
X4600000Y-102493809D01*
X5247619Y-101998571D02*
X5438095Y-102531904D01*
X5628571Y-101998571D02*
X5438095Y-102531904D01*
X5361904Y-102722380D01*
X5323809Y-102760476D01*
X5247619Y-102798571D01*
X6542857Y-102531904D02*
X6542857Y-101731904D01*
X6847619Y-101731904D01*
X6923809Y-101770000D01*
X6961904Y-101808095D01*
X7000000Y-101884285D01*
X7000000Y-101998571D01*
X6961904Y-102074761D01*
X6923809Y-102112857D01*
X6847619Y-102150952D01*
X6542857Y-102150952D01*
X7647619Y-102493809D02*
X7571428Y-102531904D01*
X7419047Y-102531904D01*
X7342857Y-102493809D01*
X7304761Y-102417619D01*
X7304761Y-102112857D01*
X7342857Y-102036666D01*
X7419047Y-101998571D01*
X7571428Y-101998571D01*
X7647619Y-102036666D01*
X7685714Y-102112857D01*
X7685714Y-102189047D01*
X7304761Y-102265238D01*
X8371428Y-102531904D02*
X8371428Y-101731904D01*
X8371428Y-102493809D02*
X8295238Y-102531904D01*
X8142857Y-102531904D01*
X8066666Y-102493809D01*
X8028571Y-102455714D01*
X7990476Y-102379523D01*
X7990476Y-102150952D01*
X8028571Y-102074761D01*
X8066666Y-102036666D01*
X8142857Y-101998571D01*
X8295238Y-101998571D01*
X8371428Y-102036666D01*
X8752380Y-102531904D02*
X8752380Y-101998571D01*
X8752380Y-102150952D02*
X8790476Y-102074761D01*
X8828571Y-102036666D01*
X8904761Y-101998571D01*
X8980952Y-101998571D01*
X9361904Y-102531904D02*
X9285714Y-102493809D01*
X9247619Y-102455714D01*
X9209523Y-102379523D01*
X9209523Y-102150952D01*
X9247619Y-102074761D01*
X9285714Y-102036666D01*
X9361904Y-101998571D01*
X9476190Y-101998571D01*
X9552380Y-102036666D01*
X9590476Y-102074761D01*
X9628571Y-102150952D01*
X9628571Y-102379523D01*
X9590476Y-102455714D01*
X9552380Y-102493809D01*
X9476190Y-102531904D01*
X9361904Y-102531904D01*
X10847619Y-102112857D02*
X10580952Y-102112857D01*
X10580952Y-102531904D02*
X10580952Y-101731904D01*
X10961904Y-101731904D01*
X11571428Y-102493809D02*
X11495238Y-102531904D01*
X11342857Y-102531904D01*
X11266666Y-102493809D01*
X11228571Y-102417619D01*
X11228571Y-102112857D01*
X11266666Y-102036666D01*
X11342857Y-101998571D01*
X11495238Y-101998571D01*
X11571428Y-102036666D01*
X11609523Y-102112857D01*
X11609523Y-102189047D01*
X11228571Y-102265238D01*
X11952380Y-102531904D02*
X11952380Y-101998571D01*
X11952380Y-102150952D02*
X11990476Y-102074761D01*
X12028571Y-102036666D01*
X12104761Y-101998571D01*
X12180952Y-101998571D01*
X12447619Y-102531904D02*
X12447619Y-101998571D01*
X12447619Y-102150952D02*
X12485714Y-102074761D01*
X12523809Y-102036666D01*
X12599999Y-101998571D01*
X12676190Y-101998571D01*
X13247619Y-102493809D02*
X13171428Y-102531904D01*
X13019047Y-102531904D01*
X12942857Y-102493809D01*
X12904761Y-102417619D01*
X12904761Y-102112857D01*
X12942857Y-102036666D01*
X13019047Y-101998571D01*
X13171428Y-101998571D01*
X13247619Y-102036666D01*
X13285714Y-102112857D01*
X13285714Y-102189047D01*
X12904761Y-102265238D01*
X13628571Y-102531904D02*
X13628571Y-101998571D01*
X13628571Y-101731904D02*
X13590476Y-101770000D01*
X13628571Y-101808095D01*
X13666666Y-101770000D01*
X13628571Y-101731904D01*
X13628571Y-101808095D01*
X14009523Y-102531904D02*
X14009523Y-101998571D01*
X14009523Y-102150952D02*
X14047619Y-102074761D01*
X14085714Y-102036666D01*
X14161904Y-101998571D01*
X14238095Y-101998571D01*
X14847619Y-102531904D02*
X14847619Y-102112857D01*
X14809523Y-102036666D01*
X14733333Y-101998571D01*
X14580952Y-101998571D01*
X14504761Y-102036666D01*
X14847619Y-102493809D02*
X14771428Y-102531904D01*
X14580952Y-102531904D01*
X14504761Y-102493809D01*
X14466666Y-102417619D01*
X14466666Y-102341428D01*
X14504761Y-102265238D01*
X14580952Y-102227142D01*
X14771428Y-102227142D01*
X14847619Y-102189047D01*
X1971428Y-103931904D02*
X1590476Y-103931904D01*
X1590476Y-103131904D01*
X2238095Y-103931904D02*
X2238095Y-103398571D01*
X2238095Y-103131904D02*
X2200000Y-103170000D01*
X2238095Y-103208095D01*
X2276190Y-103170000D01*
X2238095Y-103131904D01*
X2238095Y-103208095D01*
X2961904Y-103893809D02*
X2885714Y-103931904D01*
X2733333Y-103931904D01*
X2657142Y-103893809D01*
X2619047Y-103855714D01*
X2580952Y-103779523D01*
X2580952Y-103550952D01*
X2619047Y-103474761D01*
X2657142Y-103436666D01*
X2733333Y-103398571D01*
X2885714Y-103398571D01*
X2961904Y-103436666D01*
X3609523Y-103893809D02*
X3533333Y-103931904D01*
X3380952Y-103931904D01*
X3304761Y-103893809D01*
X3266666Y-103817619D01*
X3266666Y-103512857D01*
X3304761Y-103436666D01*
X3380952Y-103398571D01*
X3533333Y-103398571D01*
X3609523Y-103436666D01*
X3647619Y-103512857D01*
X3647619Y-103589047D01*
X3266666Y-103665238D01*
X3990476Y-103398571D02*
X3990476Y-103931904D01*
X3990476Y-103474761D02*
X4028571Y-103436666D01*
X4104761Y-103398571D01*
X4219047Y-103398571D01*
X4295238Y-103436666D01*
X4333333Y-103512857D01*
X4333333Y-103931904D01*
X4676190Y-103893809D02*
X4752380Y-103931904D01*
X4904761Y-103931904D01*
X4980952Y-103893809D01*
X5019047Y-103817619D01*
X5019047Y-103779523D01*
X4980952Y-103703333D01*
X4904761Y-103665238D01*
X4790476Y-103665238D01*
X4714285Y-103627142D01*
X4676190Y-103550952D01*
X4676190Y-103512857D01*
X4714285Y-103436666D01*
X4790476Y-103398571D01*
X4904761Y-103398571D01*
X4980952Y-103436666D01*
X5666666Y-103893809D02*
X5590476Y-103931904D01*
X5438095Y-103931904D01*
X5361904Y-103893809D01*
X5323809Y-103817619D01*
X5323809Y-103512857D01*
X5361904Y-103436666D01*
X5438095Y-103398571D01*
X5590476Y-103398571D01*
X5666666Y-103436666D01*
X5704761Y-103512857D01*
X5704761Y-103589047D01*
X5323809Y-103665238D01*
X6390476Y-103931904D02*
X6390476Y-103131904D01*
X6390476Y-103893809D02*
X6314285Y-103931904D01*
X6161904Y-103931904D01*
X6085714Y-103893809D01*
X6047619Y-103855714D01*
X6009523Y-103779523D01*
X6009523Y-103550952D01*
X6047619Y-103474761D01*
X6085714Y-103436666D01*
X6161904Y-103398571D01*
X6314285Y-103398571D01*
X6390476Y-103436666D01*
X7723809Y-103398571D02*
X7723809Y-103931904D01*
X7380952Y-103398571D02*
X7380952Y-103817619D01*
X7419047Y-103893809D01*
X7495238Y-103931904D01*
X7609523Y-103931904D01*
X7685714Y-103893809D01*
X7723809Y-103855714D01*
X8104761Y-103398571D02*
X8104761Y-103931904D01*
X8104761Y-103474761D02*
X8142857Y-103436666D01*
X8219047Y-103398571D01*
X8333333Y-103398571D01*
X8409523Y-103436666D01*
X8447619Y-103512857D01*
X8447619Y-103931904D01*
X9171428Y-103931904D02*
X9171428Y-103131904D01*
X9171428Y-103893809D02*
X9095238Y-103931904D01*
X8942857Y-103931904D01*
X8866666Y-103893809D01*
X8828571Y-103855714D01*
X8790476Y-103779523D01*
X8790476Y-103550952D01*
X8828571Y-103474761D01*
X8866666Y-103436666D01*
X8942857Y-103398571D01*
X9095238Y-103398571D01*
X9171428Y-103436666D01*
X9857142Y-103893809D02*
X9780952Y-103931904D01*
X9628571Y-103931904D01*
X9552380Y-103893809D01*
X9514285Y-103817619D01*
X9514285Y-103512857D01*
X9552380Y-103436666D01*
X9628571Y-103398571D01*
X9780952Y-103398571D01*
X9857142Y-103436666D01*
X9895238Y-103512857D01*
X9895238Y-103589047D01*
X9514285Y-103665238D01*
X10238095Y-103931904D02*
X10238095Y-103398571D01*
X10238095Y-103550952D02*
X10276190Y-103474761D01*
X10314285Y-103436666D01*
X10390476Y-103398571D01*
X10466666Y-103398571D01*
X11800000Y-103855714D02*
X11761904Y-103893809D01*
X11647619Y-103931904D01*
X11571428Y-103931904D01*
X11457142Y-103893809D01*
X11380952Y-103817619D01*
X11342857Y-103741428D01*
X11304761Y-103589047D01*
X11304761Y-103474761D01*
X11342857Y-103322380D01*
X11380952Y-103246190D01*
X11457142Y-103170000D01*
X11571428Y-103131904D01*
X11647619Y-103131904D01*
X11761904Y-103170000D01*
X11800000Y-103208095D01*
X12142857Y-103512857D02*
X12409523Y-103512857D01*
X12523809Y-103931904D02*
X12142857Y-103931904D01*
X12142857Y-103131904D01*
X12523809Y-103131904D01*
X13323809Y-103931904D02*
X13057142Y-103550952D01*
X12866666Y-103931904D02*
X12866666Y-103131904D01*
X13171428Y-103131904D01*
X13247619Y-103170000D01*
X13285714Y-103208095D01*
X13323809Y-103284285D01*
X13323809Y-103398571D01*
X13285714Y-103474761D01*
X13247619Y-103512857D01*
X13171428Y-103550952D01*
X12866666Y-103550952D01*
X13666666Y-103931904D02*
X13666666Y-103131904D01*
X14123809Y-103931904D01*
X14123809Y-103131904D01*
X14504761Y-103627142D02*
X15114285Y-103627142D01*
X15647619Y-103131904D02*
X15800000Y-103131904D01*
X15876190Y-103170000D01*
X15952380Y-103246190D01*
X15990476Y-103398571D01*
X15990476Y-103665238D01*
X15952380Y-103817619D01*
X15876190Y-103893809D01*
X15800000Y-103931904D01*
X15647619Y-103931904D01*
X15571428Y-103893809D01*
X15495238Y-103817619D01*
X15457142Y-103665238D01*
X15457142Y-103398571D01*
X15495238Y-103246190D01*
X15571428Y-103170000D01*
X15647619Y-103131904D01*
X16333333Y-103931904D02*
X16333333Y-103131904D01*
X16333333Y-103512857D02*
X16790476Y-103512857D01*
X16790476Y-103931904D02*
X16790476Y-103131904D01*
X17552380Y-103931904D02*
X17171428Y-103931904D01*
X17171428Y-103131904D01*
X17819047Y-103627142D02*
X18428571Y-103627142D01*
X18809523Y-103931904D02*
X18809523Y-103131904D01*
X19114285Y-103131904D01*
X19190476Y-103170000D01*
X19228571Y-103208095D01*
X19266666Y-103284285D01*
X19266666Y-103398571D01*
X19228571Y-103474761D01*
X19190476Y-103512857D01*
X19114285Y-103550952D01*
X18809523Y-103550952D01*
X20142857Y-103398571D02*
X20333333Y-103931904D01*
X20523809Y-103398571D01*
X20790476Y-103208095D02*
X20828571Y-103170000D01*
X20904761Y-103131904D01*
X21095238Y-103131904D01*
X21171428Y-103170000D01*
X21209523Y-103208095D01*
X21247619Y-103284285D01*
X21247619Y-103360476D01*
X21209523Y-103474761D01*
X20752380Y-103931904D01*
X21247619Y-103931904D01*
D11*
X27525714Y-81537142D02*
X27611428Y-81565714D01*
X27640000Y-81594285D01*
X27668571Y-81651428D01*
X27668571Y-81737142D01*
X27640000Y-81794285D01*
X27611428Y-81822857D01*
X27554285Y-81851428D01*
X27325714Y-81851428D01*
X27325714Y-81251428D01*
X27525714Y-81251428D01*
X27582857Y-81280000D01*
X27611428Y-81308571D01*
X27640000Y-81365714D01*
X27640000Y-81422857D01*
X27611428Y-81480000D01*
X27582857Y-81508571D01*
X27525714Y-81537142D01*
X27325714Y-81537142D01*
X27782857Y-81908571D02*
X28240000Y-81908571D01*
X28297142Y-81251428D02*
X28640000Y-81251428D01*
X28468571Y-81851428D02*
X28468571Y-81251428D01*
X24914285Y-81537142D02*
X25000000Y-81565714D01*
X25028571Y-81594285D01*
X25057142Y-81651428D01*
X25057142Y-81737142D01*
X25028571Y-81794285D01*
X25000000Y-81822857D01*
X24942857Y-81851428D01*
X24714285Y-81851428D01*
X24714285Y-81251428D01*
X24914285Y-81251428D01*
X24971428Y-81280000D01*
X25000000Y-81308571D01*
X25028571Y-81365714D01*
X25028571Y-81422857D01*
X25000000Y-81480000D01*
X24971428Y-81508571D01*
X24914285Y-81537142D01*
X24714285Y-81537142D01*
X25171428Y-81908571D02*
X25628571Y-81908571D01*
X25771428Y-81851428D02*
X25771428Y-81251428D01*
X25914285Y-81251428D01*
X26000000Y-81280000D01*
X26057142Y-81337142D01*
X26085714Y-81394285D01*
X26114285Y-81508571D01*
X26114285Y-81594285D01*
X26085714Y-81708571D01*
X26057142Y-81765714D01*
X26000000Y-81822857D01*
X25914285Y-81851428D01*
X25771428Y-81851428D01*
X22431428Y-81537142D02*
X22517142Y-81565714D01*
X22545714Y-81594285D01*
X22574285Y-81651428D01*
X22574285Y-81737142D01*
X22545714Y-81794285D01*
X22517142Y-81822857D01*
X22460000Y-81851428D01*
X22231428Y-81851428D01*
X22231428Y-81251428D01*
X22431428Y-81251428D01*
X22488571Y-81280000D01*
X22517142Y-81308571D01*
X22545714Y-81365714D01*
X22545714Y-81422857D01*
X22517142Y-81480000D01*
X22488571Y-81508571D01*
X22431428Y-81537142D01*
X22231428Y-81537142D01*
X22688571Y-81908571D02*
X23145714Y-81908571D01*
X23574285Y-81851428D02*
X23288571Y-81851428D01*
X23288571Y-81251428D01*
X19820000Y-81537142D02*
X19905714Y-81565714D01*
X19934285Y-81594285D01*
X19962857Y-81651428D01*
X19962857Y-81737142D01*
X19934285Y-81794285D01*
X19905714Y-81822857D01*
X19848571Y-81851428D01*
X19620000Y-81851428D01*
X19620000Y-81251428D01*
X19820000Y-81251428D01*
X19877142Y-81280000D01*
X19905714Y-81308571D01*
X19934285Y-81365714D01*
X19934285Y-81422857D01*
X19905714Y-81480000D01*
X19877142Y-81508571D01*
X19820000Y-81537142D01*
X19620000Y-81537142D01*
X20077142Y-81908571D02*
X20534285Y-81908571D01*
X20791428Y-81251428D02*
X20905714Y-81251428D01*
X20962857Y-81280000D01*
X21020000Y-81337142D01*
X21048571Y-81451428D01*
X21048571Y-81651428D01*
X21020000Y-81765714D01*
X20962857Y-81822857D01*
X20905714Y-81851428D01*
X20791428Y-81851428D01*
X20734285Y-81822857D01*
X20677142Y-81765714D01*
X20648571Y-81651428D01*
X20648571Y-81451428D01*
X20677142Y-81337142D01*
X20734285Y-81280000D01*
X20791428Y-81251428D01*
X17151428Y-81822857D02*
X17237142Y-81851428D01*
X17380000Y-81851428D01*
X17437142Y-81822857D01*
X17465714Y-81794285D01*
X17494285Y-81737142D01*
X17494285Y-81680000D01*
X17465714Y-81622857D01*
X17437142Y-81594285D01*
X17380000Y-81565714D01*
X17265714Y-81537142D01*
X17208571Y-81508571D01*
X17180000Y-81480000D01*
X17151428Y-81422857D01*
X17151428Y-81365714D01*
X17180000Y-81308571D01*
X17208571Y-81280000D01*
X17265714Y-81251428D01*
X17408571Y-81251428D01*
X17494285Y-81280000D01*
X17608571Y-81908571D02*
X18065714Y-81908571D01*
X18122857Y-81251428D02*
X18465714Y-81251428D01*
X18294285Y-81851428D02*
X18294285Y-81251428D01*
X14540000Y-81822857D02*
X14625714Y-81851428D01*
X14768571Y-81851428D01*
X14825714Y-81822857D01*
X14854285Y-81794285D01*
X14882857Y-81737142D01*
X14882857Y-81680000D01*
X14854285Y-81622857D01*
X14825714Y-81594285D01*
X14768571Y-81565714D01*
X14654285Y-81537142D01*
X14597142Y-81508571D01*
X14568571Y-81480000D01*
X14540000Y-81422857D01*
X14540000Y-81365714D01*
X14568571Y-81308571D01*
X14597142Y-81280000D01*
X14654285Y-81251428D01*
X14797142Y-81251428D01*
X14882857Y-81280000D01*
X14997142Y-81908571D02*
X15454285Y-81908571D01*
X15597142Y-81851428D02*
X15597142Y-81251428D01*
X15740000Y-81251428D01*
X15825714Y-81280000D01*
X15882857Y-81337142D01*
X15911428Y-81394285D01*
X15940000Y-81508571D01*
X15940000Y-81594285D01*
X15911428Y-81708571D01*
X15882857Y-81765714D01*
X15825714Y-81822857D01*
X15740000Y-81851428D01*
X15597142Y-81851428D01*
X11985714Y-81822857D02*
X12071428Y-81851428D01*
X12214285Y-81851428D01*
X12271428Y-81822857D01*
X12300000Y-81794285D01*
X12328571Y-81737142D01*
X12328571Y-81680000D01*
X12300000Y-81622857D01*
X12271428Y-81594285D01*
X12214285Y-81565714D01*
X12100000Y-81537142D01*
X12042857Y-81508571D01*
X12014285Y-81480000D01*
X11985714Y-81422857D01*
X11985714Y-81365714D01*
X12014285Y-81308571D01*
X12042857Y-81280000D01*
X12100000Y-81251428D01*
X12242857Y-81251428D01*
X12328571Y-81280000D01*
X12442857Y-81908571D02*
X12900000Y-81908571D01*
X13042857Y-81851428D02*
X13042857Y-81251428D01*
X13385714Y-81851428D01*
X13385714Y-81251428D01*
X9460000Y-81822857D02*
X9545714Y-81851428D01*
X9688571Y-81851428D01*
X9745714Y-81822857D01*
X9774285Y-81794285D01*
X9802857Y-81737142D01*
X9802857Y-81680000D01*
X9774285Y-81622857D01*
X9745714Y-81594285D01*
X9688571Y-81565714D01*
X9574285Y-81537142D01*
X9517142Y-81508571D01*
X9488571Y-81480000D01*
X9460000Y-81422857D01*
X9460000Y-81365714D01*
X9488571Y-81308571D01*
X9517142Y-81280000D01*
X9574285Y-81251428D01*
X9717142Y-81251428D01*
X9802857Y-81280000D01*
X9917142Y-81908571D02*
X10374285Y-81908571D01*
X10717142Y-81537142D02*
X10802857Y-81565714D01*
X10831428Y-81594285D01*
X10860000Y-81651428D01*
X10860000Y-81737142D01*
X10831428Y-81794285D01*
X10802857Y-81822857D01*
X10745714Y-81851428D01*
X10517142Y-81851428D01*
X10517142Y-81251428D01*
X10717142Y-81251428D01*
X10774285Y-81280000D01*
X10802857Y-81308571D01*
X10831428Y-81365714D01*
X10831428Y-81422857D01*
X10802857Y-81480000D01*
X10774285Y-81508571D01*
X10717142Y-81537142D01*
X10517142Y-81537142D01*
X23772857Y-27782857D02*
X24230000Y-27782857D01*
X24001428Y-28011428D02*
X24001428Y-27554285D01*
X24830000Y-28011428D02*
X24487142Y-28011428D01*
X24658571Y-28011428D02*
X24658571Y-27411428D01*
X24601428Y-27497142D01*
X24544285Y-27554285D01*
X24487142Y-27582857D01*
X25058571Y-27468571D02*
X25087142Y-27440000D01*
X25144285Y-27411428D01*
X25287142Y-27411428D01*
X25344285Y-27440000D01*
X25372857Y-27468571D01*
X25401428Y-27525714D01*
X25401428Y-27582857D01*
X25372857Y-27668571D01*
X25030000Y-28011428D01*
X25401428Y-28011428D01*
X25572857Y-27411428D02*
X25772857Y-28011428D01*
X25972857Y-27411428D01*
X18692857Y-27782857D02*
X19150000Y-27782857D01*
X19750000Y-28011428D02*
X19407142Y-28011428D01*
X19578571Y-28011428D02*
X19578571Y-27411428D01*
X19521428Y-27497142D01*
X19464285Y-27554285D01*
X19407142Y-27582857D01*
X19978571Y-27468571D02*
X20007142Y-27440000D01*
X20064285Y-27411428D01*
X20207142Y-27411428D01*
X20264285Y-27440000D01*
X20292857Y-27468571D01*
X20321428Y-27525714D01*
X20321428Y-27582857D01*
X20292857Y-27668571D01*
X19950000Y-28011428D01*
X20321428Y-28011428D01*
X20492857Y-27411428D02*
X20692857Y-28011428D01*
X20892857Y-27411428D01*
X16224285Y-28011428D02*
X16224285Y-27411428D01*
X16567142Y-28011428D01*
X16567142Y-27411428D01*
X16795714Y-27411428D02*
X17195714Y-27411428D01*
X16795714Y-28011428D01*
X17195714Y-28011428D01*
X17281428Y-28068571D02*
X17738571Y-28068571D01*
X18224285Y-27954285D02*
X18195714Y-27982857D01*
X18110000Y-28011428D01*
X18052857Y-28011428D01*
X17967142Y-27982857D01*
X17910000Y-27925714D01*
X17881428Y-27868571D01*
X17852857Y-27754285D01*
X17852857Y-27668571D01*
X17881428Y-27554285D01*
X17910000Y-27497142D01*
X17967142Y-27440000D01*
X18052857Y-27411428D01*
X18110000Y-27411428D01*
X18195714Y-27440000D01*
X18224285Y-27468571D01*
X13727142Y-28011428D02*
X13727142Y-27411428D01*
X13727142Y-27697142D02*
X14070000Y-27697142D01*
X14070000Y-28011428D02*
X14070000Y-27411428D01*
X14355714Y-28011428D02*
X14355714Y-27411428D01*
X14355714Y-27697142D02*
X14698571Y-27697142D01*
X14698571Y-28011428D02*
X14698571Y-27411428D01*
X14841428Y-28068571D02*
X15298571Y-28068571D01*
X15355714Y-27411428D02*
X15698571Y-27411428D01*
X15527142Y-28011428D02*
X15527142Y-27411428D01*
X11115714Y-28011428D02*
X11115714Y-27411428D01*
X11115714Y-27697142D02*
X11458571Y-27697142D01*
X11458571Y-28011428D02*
X11458571Y-27411428D01*
X11744285Y-28011428D02*
X11744285Y-27411428D01*
X11744285Y-27697142D02*
X12087142Y-27697142D01*
X12087142Y-28011428D02*
X12087142Y-27411428D01*
X12230000Y-28068571D02*
X12687142Y-28068571D01*
X12830000Y-28011428D02*
X12830000Y-27411428D01*
X12972857Y-27411428D01*
X13058571Y-27440000D01*
X13115714Y-27497142D01*
X13144285Y-27554285D01*
X13172857Y-27668571D01*
X13172857Y-27754285D01*
X13144285Y-27868571D01*
X13115714Y-27925714D01*
X13058571Y-27982857D01*
X12972857Y-28011428D01*
X12830000Y-28011428D01*
X8561428Y-28011428D02*
X8561428Y-27411428D01*
X8561428Y-27697142D02*
X8904285Y-27697142D01*
X8904285Y-28011428D02*
X8904285Y-27411428D01*
X9190000Y-28011428D02*
X9190000Y-27411428D01*
X9190000Y-27697142D02*
X9532857Y-27697142D01*
X9532857Y-28011428D02*
X9532857Y-27411428D01*
X9675714Y-28068571D02*
X10132857Y-28068571D01*
X10390000Y-27411428D02*
X10504285Y-27411428D01*
X10561428Y-27440000D01*
X10618571Y-27497142D01*
X10647142Y-27611428D01*
X10647142Y-27811428D01*
X10618571Y-27925714D01*
X10561428Y-27982857D01*
X10504285Y-28011428D01*
X10390000Y-28011428D01*
X10332857Y-27982857D01*
X10275714Y-27925714D01*
X10247142Y-27811428D01*
X10247142Y-27611428D01*
X10275714Y-27497142D01*
X10332857Y-27440000D01*
X10390000Y-27411428D01*
X6592857Y-31450000D02*
X6535714Y-31421428D01*
X6450000Y-31421428D01*
X6364285Y-31450000D01*
X6307142Y-31507142D01*
X6278571Y-31564285D01*
X6250000Y-31678571D01*
X6250000Y-31764285D01*
X6278571Y-31878571D01*
X6307142Y-31935714D01*
X6364285Y-31992857D01*
X6450000Y-32021428D01*
X6507142Y-32021428D01*
X6592857Y-31992857D01*
X6621428Y-31964285D01*
X6621428Y-31764285D01*
X6507142Y-31764285D01*
X6878571Y-32021428D02*
X6878571Y-31421428D01*
X7221428Y-32021428D01*
X7221428Y-31421428D01*
X7507142Y-32021428D02*
X7507142Y-31421428D01*
X7650000Y-31421428D01*
X7735714Y-31450000D01*
X7792857Y-31507142D01*
X7821428Y-31564285D01*
X7850000Y-31678571D01*
X7850000Y-31764285D01*
X7821428Y-31878571D01*
X7792857Y-31935714D01*
X7735714Y-31992857D01*
X7650000Y-32021428D01*
X7507142Y-32021428D01*
X12454285Y-12108571D02*
X12454285Y-10608571D01*
X12454285Y-11322857D02*
X13311428Y-11322857D01*
X13311428Y-12108571D02*
X13311428Y-10608571D01*
X14025714Y-12108571D02*
X14025714Y-10608571D01*
X14740000Y-12108571D02*
X14740000Y-10608571D01*
X14740000Y-11322857D02*
X15597142Y-11322857D01*
X15597142Y-12108571D02*
X15597142Y-10608571D01*
X16240000Y-11680000D02*
X16954285Y-11680000D01*
X16097142Y-12108571D02*
X16597142Y-10608571D01*
X17097142Y-12108571D01*
X17382857Y-10608571D02*
X18240000Y-10608571D01*
X17811428Y-12108571D02*
X17811428Y-10608571D01*
X14545714Y-64662857D02*
X14760000Y-64734285D01*
X14831428Y-64805714D01*
X14902857Y-64948571D01*
X14902857Y-65162857D01*
X14831428Y-65305714D01*
X14760000Y-65377142D01*
X14617142Y-65448571D01*
X14045714Y-65448571D01*
X14045714Y-63948571D01*
X14545714Y-63948571D01*
X14688571Y-64020000D01*
X14760000Y-64091428D01*
X14831428Y-64234285D01*
X14831428Y-64377142D01*
X14760000Y-64520000D01*
X14688571Y-64591428D01*
X14545714Y-64662857D01*
X14045714Y-64662857D01*
X15474285Y-65020000D02*
X16188571Y-65020000D01*
X15331428Y-65448571D02*
X15831428Y-63948571D01*
X16331428Y-65448571D01*
X16760000Y-65377142D02*
X16974285Y-65448571D01*
X17331428Y-65448571D01*
X17474285Y-65377142D01*
X17545714Y-65305714D01*
X17617142Y-65162857D01*
X17617142Y-65020000D01*
X17545714Y-64877142D01*
X17474285Y-64805714D01*
X17331428Y-64734285D01*
X17045714Y-64662857D01*
X16902857Y-64591428D01*
X16831428Y-64520000D01*
X16760000Y-64377142D01*
X16760000Y-64234285D01*
X16831428Y-64091428D01*
X16902857Y-64020000D01*
X17045714Y-63948571D01*
X17402857Y-63948571D01*
X17617142Y-64020000D01*
X18188571Y-65377142D02*
X18402857Y-65448571D01*
X18760000Y-65448571D01*
X18902857Y-65377142D01*
X18974285Y-65305714D01*
X19045714Y-65162857D01*
X19045714Y-65020000D01*
X18974285Y-64877142D01*
X18902857Y-64805714D01*
X18760000Y-64734285D01*
X18474285Y-64662857D01*
X18331428Y-64591428D01*
X18260000Y-64520000D01*
X18188571Y-64377142D01*
X18188571Y-64234285D01*
X18260000Y-64091428D01*
X18331428Y-64020000D01*
X18474285Y-63948571D01*
X18831428Y-63948571D01*
X19045714Y-64020000D01*
D12*
%TO.C,KICADLOGO*%
G36*
X22889054Y-57556400D02*
G01*
X23002993Y-57545535D01*
X23110616Y-57513918D01*
X23209615Y-57463015D01*
X23297684Y-57394293D01*
X23372516Y-57309219D01*
X23430384Y-57212232D01*
X23470005Y-57105964D01*
X23488573Y-56998950D01*
X23487434Y-56893300D01*
X23467930Y-56791125D01*
X23431406Y-56694534D01*
X23379205Y-56605638D01*
X23312673Y-56526546D01*
X23233152Y-56459369D01*
X23141987Y-56406217D01*
X23040523Y-56369199D01*
X22930102Y-56350427D01*
X22880206Y-56348489D01*
X22792267Y-56348489D01*
X22792267Y-56296560D01*
X22795111Y-56260253D01*
X22806911Y-56233355D01*
X22830649Y-56206249D01*
X22869031Y-56167867D01*
X25060602Y-56167867D01*
X25322739Y-56167876D01*
X25563241Y-56167908D01*
X25783048Y-56167972D01*
X25983101Y-56168076D01*
X26164344Y-56168227D01*
X26327716Y-56168434D01*
X26474160Y-56168706D01*
X26604617Y-56169050D01*
X26720029Y-56169474D01*
X26821338Y-56169987D01*
X26909484Y-56170597D01*
X26985410Y-56171312D01*
X27050057Y-56172140D01*
X27104367Y-56173089D01*
X27149280Y-56174167D01*
X27185740Y-56175383D01*
X27214687Y-56176745D01*
X27237063Y-56178261D01*
X27253809Y-56179938D01*
X27265868Y-56181786D01*
X27274180Y-56183813D01*
X27279687Y-56186025D01*
X27281537Y-56187108D01*
X27288549Y-56191271D01*
X27294996Y-56194805D01*
X27300900Y-56198635D01*
X27306286Y-56203682D01*
X27311178Y-56210871D01*
X27315598Y-56221123D01*
X27319572Y-56235364D01*
X27323121Y-56254514D01*
X27326270Y-56279499D01*
X27329042Y-56311240D01*
X27331461Y-56350662D01*
X27333551Y-56398686D01*
X27335335Y-56456237D01*
X27336837Y-56524237D01*
X27338080Y-56603610D01*
X27339089Y-56695279D01*
X27339885Y-56800166D01*
X27340494Y-56919196D01*
X27340939Y-57053290D01*
X27341243Y-57203373D01*
X27341430Y-57370367D01*
X27341524Y-57555196D01*
X27341548Y-57758783D01*
X27341525Y-57982050D01*
X27341480Y-58225922D01*
X27341437Y-58491321D01*
X27341432Y-58529704D01*
X27341389Y-58796682D01*
X27341318Y-59042002D01*
X27341213Y-59266583D01*
X27341066Y-59471345D01*
X27340869Y-59657206D01*
X27340616Y-59825088D01*
X27340300Y-59975908D01*
X27339913Y-60110587D01*
X27339447Y-60230044D01*
X27338897Y-60335199D01*
X27338253Y-60426971D01*
X27337511Y-60506279D01*
X27336661Y-60574043D01*
X27335697Y-60631182D01*
X27334611Y-60678617D01*
X27333397Y-60717266D01*
X27332047Y-60748049D01*
X27330555Y-60771885D01*
X27328911Y-60789694D01*
X27327111Y-60802395D01*
X27325145Y-60810908D01*
X27323477Y-60815266D01*
X27319906Y-60823728D01*
X27317270Y-60831497D01*
X27314634Y-60838602D01*
X27311062Y-60845073D01*
X27305621Y-60850939D01*
X27297375Y-60856229D01*
X27285390Y-60860974D01*
X27268731Y-60865202D01*
X27246463Y-60868943D01*
X27217652Y-60872227D01*
X27181363Y-60875083D01*
X27136661Y-60877540D01*
X27082611Y-60879629D01*
X27018279Y-60881378D01*
X26942730Y-60882817D01*
X26855030Y-60883976D01*
X26754243Y-60884883D01*
X26639434Y-60885569D01*
X26509670Y-60886063D01*
X26364015Y-60886395D01*
X26201535Y-60886593D01*
X26021295Y-60886687D01*
X25822360Y-60886708D01*
X25603796Y-60886685D01*
X25364668Y-60886646D01*
X25104040Y-60886622D01*
X25061889Y-60886622D01*
X24798992Y-60886636D01*
X24557732Y-60886661D01*
X24337165Y-60886671D01*
X24136352Y-60886642D01*
X23954349Y-60886548D01*
X23790216Y-60886362D01*
X23643011Y-60886059D01*
X23511792Y-60885614D01*
X23401867Y-60885034D01*
X23401867Y-60582197D01*
X23459711Y-60542407D01*
X23475479Y-60531236D01*
X23489441Y-60521166D01*
X23502784Y-60512138D01*
X23516693Y-60504097D01*
X23532356Y-60496986D01*
X23550958Y-60490747D01*
X23573686Y-60485325D01*
X23601727Y-60480662D01*
X23636267Y-60476701D01*
X23678492Y-60473385D01*
X23729589Y-60470659D01*
X23790744Y-60468464D01*
X23863144Y-60466745D01*
X23947975Y-60465444D01*
X24046422Y-60464505D01*
X24159674Y-60463870D01*
X24288916Y-60463484D01*
X24435334Y-60463288D01*
X24600116Y-60463227D01*
X24784447Y-60463243D01*
X24989513Y-60463280D01*
X25112133Y-60463289D01*
X25329082Y-60463265D01*
X25524642Y-60463231D01*
X25699999Y-60463243D01*
X25856341Y-60463358D01*
X25994857Y-60463630D01*
X26116734Y-60464118D01*
X26223160Y-60464876D01*
X26315322Y-60465962D01*
X26394409Y-60467431D01*
X26461608Y-60469340D01*
X26518107Y-60471744D01*
X26565093Y-60474701D01*
X26603755Y-60478266D01*
X26635280Y-60482495D01*
X26660855Y-60487446D01*
X26681670Y-60493173D01*
X26698911Y-60499733D01*
X26713765Y-60507183D01*
X26727422Y-60515579D01*
X26741069Y-60524976D01*
X26755893Y-60535432D01*
X26764783Y-60541523D01*
X26822400Y-60580296D01*
X26822400Y-60048732D01*
X26822365Y-59925483D01*
X26822215Y-59822987D01*
X26821878Y-59739420D01*
X26821286Y-59672956D01*
X26820367Y-59621771D01*
X26819051Y-59584041D01*
X26817269Y-59557940D01*
X26814951Y-59541644D01*
X26812026Y-59533328D01*
X26808424Y-59531168D01*
X26804075Y-59533339D01*
X26802645Y-59534535D01*
X26765573Y-59559685D01*
X26712772Y-59585583D01*
X26650770Y-59609192D01*
X26624357Y-59617461D01*
X26606416Y-59622078D01*
X26585355Y-59625979D01*
X26559089Y-59629248D01*
X26525532Y-59631966D01*
X26482599Y-59634215D01*
X26428204Y-59636077D01*
X26360262Y-59637636D01*
X26276688Y-59638972D01*
X26175395Y-59640169D01*
X26054300Y-59641308D01*
X26009600Y-59641685D01*
X25884449Y-59642702D01*
X25780082Y-59643460D01*
X25694707Y-59643903D01*
X25626533Y-59643970D01*
X25573765Y-59643605D01*
X25534614Y-59642748D01*
X25507285Y-59641341D01*
X25489986Y-59639325D01*
X25480926Y-59636643D01*
X25478312Y-59633236D01*
X25480351Y-59629044D01*
X25484667Y-59624571D01*
X25497602Y-59614216D01*
X25526676Y-59592158D01*
X25569759Y-59559957D01*
X25624718Y-59519174D01*
X25689423Y-59471370D01*
X25761742Y-59418105D01*
X25839544Y-59360940D01*
X25920698Y-59301437D01*
X26003072Y-59241155D01*
X26084536Y-59181655D01*
X26162957Y-59124498D01*
X26236204Y-59071245D01*
X26302147Y-59023457D01*
X26358654Y-58982693D01*
X26403593Y-58950516D01*
X26434834Y-58928485D01*
X26441466Y-58923917D01*
X26478369Y-58900996D01*
X26526359Y-58874188D01*
X26575897Y-58848789D01*
X26582577Y-58845568D01*
X26630772Y-58823890D01*
X26668334Y-58811304D01*
X26704160Y-58805574D01*
X26746200Y-58804456D01*
X26822400Y-58805090D01*
X26822400Y-57650651D01*
X26728669Y-57741815D01*
X26678775Y-57788612D01*
X26622295Y-57838899D01*
X26568026Y-57884944D01*
X26542673Y-57905369D01*
X26503128Y-57935807D01*
X26449916Y-57975862D01*
X26384667Y-58024361D01*
X26309011Y-58080135D01*
X26224577Y-58142011D01*
X26132994Y-58208819D01*
X26035892Y-58279387D01*
X25934901Y-58352545D01*
X25831650Y-58427121D01*
X25727768Y-58501944D01*
X25624885Y-58575843D01*
X25524631Y-58647646D01*
X25428636Y-58716184D01*
X25338527Y-58780284D01*
X25255936Y-58838775D01*
X25182492Y-58890486D01*
X25119824Y-58934247D01*
X25069561Y-58968885D01*
X25033334Y-58993230D01*
X25012771Y-59006111D01*
X25008668Y-59007869D01*
X24997342Y-58999910D01*
X24970162Y-58979115D01*
X24928829Y-58946847D01*
X24875044Y-58904470D01*
X24810506Y-58853347D01*
X24736918Y-58794841D01*
X24655978Y-58730314D01*
X24569388Y-58661131D01*
X24478848Y-58588653D01*
X24386060Y-58514246D01*
X24311702Y-58454517D01*
X24311702Y-57443511D01*
X24324659Y-57437602D01*
X24346908Y-57423272D01*
X24348391Y-57422225D01*
X24378544Y-57403438D01*
X24415375Y-57383791D01*
X24423511Y-57379892D01*
X24431940Y-57376356D01*
X24442059Y-57373230D01*
X24455260Y-57370486D01*
X24472938Y-57368092D01*
X24496484Y-57366019D01*
X24527293Y-57364235D01*
X24566757Y-57362712D01*
X24616269Y-57361419D01*
X24677223Y-57360326D01*
X24751011Y-57359403D01*
X24839028Y-57358619D01*
X24942665Y-57357945D01*
X25063316Y-57357350D01*
X25202374Y-57356805D01*
X25361232Y-57356279D01*
X25540089Y-57355745D01*
X25725207Y-57355206D01*
X25889145Y-57354772D01*
X26033303Y-57354509D01*
X26159079Y-57354484D01*
X26267871Y-57354765D01*
X26361077Y-57355419D01*
X26440097Y-57356514D01*
X26506328Y-57358118D01*
X26561170Y-57360297D01*
X26606021Y-57363119D01*
X26642278Y-57366651D01*
X26671341Y-57370961D01*
X26694609Y-57376117D01*
X26713479Y-57382185D01*
X26729351Y-57389233D01*
X26743622Y-57397329D01*
X26757691Y-57406540D01*
X26770158Y-57415040D01*
X26796452Y-57432176D01*
X26814037Y-57442322D01*
X26817257Y-57443511D01*
X26818334Y-57432604D01*
X26819335Y-57401411D01*
X26820235Y-57352223D01*
X26821010Y-57287333D01*
X26821637Y-57209030D01*
X26822091Y-57119607D01*
X26822349Y-57021356D01*
X26822400Y-56952445D01*
X26822180Y-56847452D01*
X26821548Y-56750610D01*
X26820549Y-56664107D01*
X26819227Y-56590132D01*
X26817626Y-56530874D01*
X26815791Y-56488520D01*
X26813765Y-56465260D01*
X26812493Y-56461378D01*
X26797591Y-56469076D01*
X26789560Y-56477074D01*
X26772434Y-56490246D01*
X26742183Y-56507485D01*
X26717622Y-56519407D01*
X26658711Y-56546045D01*
X25481845Y-56549120D01*
X24304978Y-56552195D01*
X24304978Y-56997853D01*
X24305142Y-57095670D01*
X24305611Y-57186064D01*
X24306347Y-57266630D01*
X24307316Y-57334962D01*
X24308480Y-57388656D01*
X24309803Y-57425305D01*
X24311249Y-57442504D01*
X24311702Y-57443511D01*
X24311702Y-58454517D01*
X24292722Y-58439270D01*
X24200537Y-58365090D01*
X24111204Y-58293069D01*
X24026424Y-58224569D01*
X23947898Y-58160955D01*
X23877326Y-58103588D01*
X23816409Y-58053833D01*
X23766847Y-58013052D01*
X23746178Y-57995888D01*
X23645516Y-57909596D01*
X23562259Y-57832997D01*
X23494438Y-57764183D01*
X23440089Y-57701248D01*
X23432722Y-57691867D01*
X23402117Y-57652356D01*
X23401867Y-58784116D01*
X23449844Y-58778827D01*
X23507188Y-58782130D01*
X23575463Y-58803661D01*
X23655212Y-58843635D01*
X23727495Y-58888943D01*
X23750140Y-58905161D01*
X23787696Y-58933214D01*
X23838021Y-58971430D01*
X23898973Y-59018137D01*
X23968411Y-59071661D01*
X24044194Y-59130331D01*
X24124180Y-59192475D01*
X24206228Y-59256421D01*
X24288196Y-59320495D01*
X24367943Y-59383027D01*
X24443327Y-59442343D01*
X24512207Y-59496771D01*
X24572442Y-59544639D01*
X24621889Y-59584275D01*
X24658408Y-59614006D01*
X24679858Y-59632161D01*
X24683156Y-59635220D01*
X24675149Y-59638079D01*
X24644855Y-59640293D01*
X24592556Y-59641857D01*
X24518531Y-59642767D01*
X24423063Y-59643020D01*
X24306434Y-59642613D01*
X24186445Y-59641704D01*
X24054333Y-59640382D01*
X23942594Y-59638857D01*
X23849025Y-59636881D01*
X23771419Y-59634206D01*
X23707574Y-59630582D01*
X23655283Y-59625761D01*
X23612344Y-59619494D01*
X23576551Y-59611532D01*
X23545700Y-59601627D01*
X23517586Y-59589531D01*
X23490005Y-59574993D01*
X23464966Y-59560311D01*
X23401867Y-59522314D01*
X23401867Y-60582197D01*
X23401867Y-60885034D01*
X23395617Y-60885001D01*
X23293544Y-60884195D01*
X23204633Y-60883170D01*
X23127941Y-60881900D01*
X23062527Y-60880360D01*
X23007449Y-60878524D01*
X22961765Y-60876367D01*
X22924534Y-60873863D01*
X22894813Y-60870987D01*
X22871662Y-60867713D01*
X22854139Y-60864015D01*
X22841301Y-60859869D01*
X22832208Y-60855247D01*
X22825918Y-60850126D01*
X22821488Y-60844478D01*
X22817978Y-60838279D01*
X22814445Y-60831504D01*
X22810876Y-60825508D01*
X22808300Y-60820275D01*
X22805972Y-60812099D01*
X22803878Y-60799886D01*
X22802007Y-60782541D01*
X22800347Y-60758969D01*
X22798884Y-60728077D01*
X22797608Y-60688768D01*
X22796504Y-60639950D01*
X22795561Y-60580527D01*
X22794767Y-60509404D01*
X22794109Y-60425488D01*
X22793575Y-60327683D01*
X22793153Y-60214894D01*
X22792829Y-60086029D01*
X22792592Y-59939991D01*
X22792430Y-59775686D01*
X22792330Y-59592020D01*
X22792280Y-59387897D01*
X22792267Y-59176753D01*
X22792267Y-57556400D01*
X22889054Y-57556400D01*
G37*
X22889054Y-57556400D02*
X23002993Y-57545535D01*
X23110616Y-57513918D01*
X23209615Y-57463015D01*
X23297684Y-57394293D01*
X23372516Y-57309219D01*
X23430384Y-57212232D01*
X23470005Y-57105964D01*
X23488573Y-56998950D01*
X23487434Y-56893300D01*
X23467930Y-56791125D01*
X23431406Y-56694534D01*
X23379205Y-56605638D01*
X23312673Y-56526546D01*
X23233152Y-56459369D01*
X23141987Y-56406217D01*
X23040523Y-56369199D01*
X22930102Y-56350427D01*
X22880206Y-56348489D01*
X22792267Y-56348489D01*
X22792267Y-56296560D01*
X22795111Y-56260253D01*
X22806911Y-56233355D01*
X22830649Y-56206249D01*
X22869031Y-56167867D01*
X25060602Y-56167867D01*
X25322739Y-56167876D01*
X25563241Y-56167908D01*
X25783048Y-56167972D01*
X25983101Y-56168076D01*
X26164344Y-56168227D01*
X26327716Y-56168434D01*
X26474160Y-56168706D01*
X26604617Y-56169050D01*
X26720029Y-56169474D01*
X26821338Y-56169987D01*
X26909484Y-56170597D01*
X26985410Y-56171312D01*
X27050057Y-56172140D01*
X27104367Y-56173089D01*
X27149280Y-56174167D01*
X27185740Y-56175383D01*
X27214687Y-56176745D01*
X27237063Y-56178261D01*
X27253809Y-56179938D01*
X27265868Y-56181786D01*
X27274180Y-56183813D01*
X27279687Y-56186025D01*
X27281537Y-56187108D01*
X27288549Y-56191271D01*
X27294996Y-56194805D01*
X27300900Y-56198635D01*
X27306286Y-56203682D01*
X27311178Y-56210871D01*
X27315598Y-56221123D01*
X27319572Y-56235364D01*
X27323121Y-56254514D01*
X27326270Y-56279499D01*
X27329042Y-56311240D01*
X27331461Y-56350662D01*
X27333551Y-56398686D01*
X27335335Y-56456237D01*
X27336837Y-56524237D01*
X27338080Y-56603610D01*
X27339089Y-56695279D01*
X27339885Y-56800166D01*
X27340494Y-56919196D01*
X27340939Y-57053290D01*
X27341243Y-57203373D01*
X27341430Y-57370367D01*
X27341524Y-57555196D01*
X27341548Y-57758783D01*
X27341525Y-57982050D01*
X27341480Y-58225922D01*
X27341437Y-58491321D01*
X27341432Y-58529704D01*
X27341389Y-58796682D01*
X27341318Y-59042002D01*
X27341213Y-59266583D01*
X27341066Y-59471345D01*
X27340869Y-59657206D01*
X27340616Y-59825088D01*
X27340300Y-59975908D01*
X27339913Y-60110587D01*
X27339447Y-60230044D01*
X27338897Y-60335199D01*
X27338253Y-60426971D01*
X27337511Y-60506279D01*
X27336661Y-60574043D01*
X27335697Y-60631182D01*
X27334611Y-60678617D01*
X27333397Y-60717266D01*
X27332047Y-60748049D01*
X27330555Y-60771885D01*
X27328911Y-60789694D01*
X27327111Y-60802395D01*
X27325145Y-60810908D01*
X27323477Y-60815266D01*
X27319906Y-60823728D01*
X27317270Y-60831497D01*
X27314634Y-60838602D01*
X27311062Y-60845073D01*
X27305621Y-60850939D01*
X27297375Y-60856229D01*
X27285390Y-60860974D01*
X27268731Y-60865202D01*
X27246463Y-60868943D01*
X27217652Y-60872227D01*
X27181363Y-60875083D01*
X27136661Y-60877540D01*
X27082611Y-60879629D01*
X27018279Y-60881378D01*
X26942730Y-60882817D01*
X26855030Y-60883976D01*
X26754243Y-60884883D01*
X26639434Y-60885569D01*
X26509670Y-60886063D01*
X26364015Y-60886395D01*
X26201535Y-60886593D01*
X26021295Y-60886687D01*
X25822360Y-60886708D01*
X25603796Y-60886685D01*
X25364668Y-60886646D01*
X25104040Y-60886622D01*
X25061889Y-60886622D01*
X24798992Y-60886636D01*
X24557732Y-60886661D01*
X24337165Y-60886671D01*
X24136352Y-60886642D01*
X23954349Y-60886548D01*
X23790216Y-60886362D01*
X23643011Y-60886059D01*
X23511792Y-60885614D01*
X23401867Y-60885034D01*
X23401867Y-60582197D01*
X23459711Y-60542407D01*
X23475479Y-60531236D01*
X23489441Y-60521166D01*
X23502784Y-60512138D01*
X23516693Y-60504097D01*
X23532356Y-60496986D01*
X23550958Y-60490747D01*
X23573686Y-60485325D01*
X23601727Y-60480662D01*
X23636267Y-60476701D01*
X23678492Y-60473385D01*
X23729589Y-60470659D01*
X23790744Y-60468464D01*
X23863144Y-60466745D01*
X23947975Y-60465444D01*
X24046422Y-60464505D01*
X24159674Y-60463870D01*
X24288916Y-60463484D01*
X24435334Y-60463288D01*
X24600116Y-60463227D01*
X24784447Y-60463243D01*
X24989513Y-60463280D01*
X25112133Y-60463289D01*
X25329082Y-60463265D01*
X25524642Y-60463231D01*
X25699999Y-60463243D01*
X25856341Y-60463358D01*
X25994857Y-60463630D01*
X26116734Y-60464118D01*
X26223160Y-60464876D01*
X26315322Y-60465962D01*
X26394409Y-60467431D01*
X26461608Y-60469340D01*
X26518107Y-60471744D01*
X26565093Y-60474701D01*
X26603755Y-60478266D01*
X26635280Y-60482495D01*
X26660855Y-60487446D01*
X26681670Y-60493173D01*
X26698911Y-60499733D01*
X26713765Y-60507183D01*
X26727422Y-60515579D01*
X26741069Y-60524976D01*
X26755893Y-60535432D01*
X26764783Y-60541523D01*
X26822400Y-60580296D01*
X26822400Y-60048732D01*
X26822365Y-59925483D01*
X26822215Y-59822987D01*
X26821878Y-59739420D01*
X26821286Y-59672956D01*
X26820367Y-59621771D01*
X26819051Y-59584041D01*
X26817269Y-59557940D01*
X26814951Y-59541644D01*
X26812026Y-59533328D01*
X26808424Y-59531168D01*
X26804075Y-59533339D01*
X26802645Y-59534535D01*
X26765573Y-59559685D01*
X26712772Y-59585583D01*
X26650770Y-59609192D01*
X26624357Y-59617461D01*
X26606416Y-59622078D01*
X26585355Y-59625979D01*
X26559089Y-59629248D01*
X26525532Y-59631966D01*
X26482599Y-59634215D01*
X26428204Y-59636077D01*
X26360262Y-59637636D01*
X26276688Y-59638972D01*
X26175395Y-59640169D01*
X26054300Y-59641308D01*
X26009600Y-59641685D01*
X25884449Y-59642702D01*
X25780082Y-59643460D01*
X25694707Y-59643903D01*
X25626533Y-59643970D01*
X25573765Y-59643605D01*
X25534614Y-59642748D01*
X25507285Y-59641341D01*
X25489986Y-59639325D01*
X25480926Y-59636643D01*
X25478312Y-59633236D01*
X25480351Y-59629044D01*
X25484667Y-59624571D01*
X25497602Y-59614216D01*
X25526676Y-59592158D01*
X25569759Y-59559957D01*
X25624718Y-59519174D01*
X25689423Y-59471370D01*
X25761742Y-59418105D01*
X25839544Y-59360940D01*
X25920698Y-59301437D01*
X26003072Y-59241155D01*
X26084536Y-59181655D01*
X26162957Y-59124498D01*
X26236204Y-59071245D01*
X26302147Y-59023457D01*
X26358654Y-58982693D01*
X26403593Y-58950516D01*
X26434834Y-58928485D01*
X26441466Y-58923917D01*
X26478369Y-58900996D01*
X26526359Y-58874188D01*
X26575897Y-58848789D01*
X26582577Y-58845568D01*
X26630772Y-58823890D01*
X26668334Y-58811304D01*
X26704160Y-58805574D01*
X26746200Y-58804456D01*
X26822400Y-58805090D01*
X26822400Y-57650651D01*
X26728669Y-57741815D01*
X26678775Y-57788612D01*
X26622295Y-57838899D01*
X26568026Y-57884944D01*
X26542673Y-57905369D01*
X26503128Y-57935807D01*
X26449916Y-57975862D01*
X26384667Y-58024361D01*
X26309011Y-58080135D01*
X26224577Y-58142011D01*
X26132994Y-58208819D01*
X26035892Y-58279387D01*
X25934901Y-58352545D01*
X25831650Y-58427121D01*
X25727768Y-58501944D01*
X25624885Y-58575843D01*
X25524631Y-58647646D01*
X25428636Y-58716184D01*
X25338527Y-58780284D01*
X25255936Y-58838775D01*
X25182492Y-58890486D01*
X25119824Y-58934247D01*
X25069561Y-58968885D01*
X25033334Y-58993230D01*
X25012771Y-59006111D01*
X25008668Y-59007869D01*
X24997342Y-58999910D01*
X24970162Y-58979115D01*
X24928829Y-58946847D01*
X24875044Y-58904470D01*
X24810506Y-58853347D01*
X24736918Y-58794841D01*
X24655978Y-58730314D01*
X24569388Y-58661131D01*
X24478848Y-58588653D01*
X24386060Y-58514246D01*
X24311702Y-58454517D01*
X24311702Y-57443511D01*
X24324659Y-57437602D01*
X24346908Y-57423272D01*
X24348391Y-57422225D01*
X24378544Y-57403438D01*
X24415375Y-57383791D01*
X24423511Y-57379892D01*
X24431940Y-57376356D01*
X24442059Y-57373230D01*
X24455260Y-57370486D01*
X24472938Y-57368092D01*
X24496484Y-57366019D01*
X24527293Y-57364235D01*
X24566757Y-57362712D01*
X24616269Y-57361419D01*
X24677223Y-57360326D01*
X24751011Y-57359403D01*
X24839028Y-57358619D01*
X24942665Y-57357945D01*
X25063316Y-57357350D01*
X25202374Y-57356805D01*
X25361232Y-57356279D01*
X25540089Y-57355745D01*
X25725207Y-57355206D01*
X25889145Y-57354772D01*
X26033303Y-57354509D01*
X26159079Y-57354484D01*
X26267871Y-57354765D01*
X26361077Y-57355419D01*
X26440097Y-57356514D01*
X26506328Y-57358118D01*
X26561170Y-57360297D01*
X26606021Y-57363119D01*
X26642278Y-57366651D01*
X26671341Y-57370961D01*
X26694609Y-57376117D01*
X26713479Y-57382185D01*
X26729351Y-57389233D01*
X26743622Y-57397329D01*
X26757691Y-57406540D01*
X26770158Y-57415040D01*
X26796452Y-57432176D01*
X26814037Y-57442322D01*
X26817257Y-57443511D01*
X26818334Y-57432604D01*
X26819335Y-57401411D01*
X26820235Y-57352223D01*
X26821010Y-57287333D01*
X26821637Y-57209030D01*
X26822091Y-57119607D01*
X26822349Y-57021356D01*
X26822400Y-56952445D01*
X26822180Y-56847452D01*
X26821548Y-56750610D01*
X26820549Y-56664107D01*
X26819227Y-56590132D01*
X26817626Y-56530874D01*
X26815791Y-56488520D01*
X26813765Y-56465260D01*
X26812493Y-56461378D01*
X26797591Y-56469076D01*
X26789560Y-56477074D01*
X26772434Y-56490246D01*
X26742183Y-56507485D01*
X26717622Y-56519407D01*
X26658711Y-56546045D01*
X25481845Y-56549120D01*
X24304978Y-56552195D01*
X24304978Y-56997853D01*
X24305142Y-57095670D01*
X24305611Y-57186064D01*
X24306347Y-57266630D01*
X24307316Y-57334962D01*
X24308480Y-57388656D01*
X24309803Y-57425305D01*
X24311249Y-57442504D01*
X24311702Y-57443511D01*
X24311702Y-58454517D01*
X24292722Y-58439270D01*
X24200537Y-58365090D01*
X24111204Y-58293069D01*
X24026424Y-58224569D01*
X23947898Y-58160955D01*
X23877326Y-58103588D01*
X23816409Y-58053833D01*
X23766847Y-58013052D01*
X23746178Y-57995888D01*
X23645516Y-57909596D01*
X23562259Y-57832997D01*
X23494438Y-57764183D01*
X23440089Y-57701248D01*
X23432722Y-57691867D01*
X23402117Y-57652356D01*
X23401867Y-58784116D01*
X23449844Y-58778827D01*
X23507188Y-58782130D01*
X23575463Y-58803661D01*
X23655212Y-58843635D01*
X23727495Y-58888943D01*
X23750140Y-58905161D01*
X23787696Y-58933214D01*
X23838021Y-58971430D01*
X23898973Y-59018137D01*
X23968411Y-59071661D01*
X24044194Y-59130331D01*
X24124180Y-59192475D01*
X24206228Y-59256421D01*
X24288196Y-59320495D01*
X24367943Y-59383027D01*
X24443327Y-59442343D01*
X24512207Y-59496771D01*
X24572442Y-59544639D01*
X24621889Y-59584275D01*
X24658408Y-59614006D01*
X24679858Y-59632161D01*
X24683156Y-59635220D01*
X24675149Y-59638079D01*
X24644855Y-59640293D01*
X24592556Y-59641857D01*
X24518531Y-59642767D01*
X24423063Y-59643020D01*
X24306434Y-59642613D01*
X24186445Y-59641704D01*
X24054333Y-59640382D01*
X23942594Y-59638857D01*
X23849025Y-59636881D01*
X23771419Y-59634206D01*
X23707574Y-59630582D01*
X23655283Y-59625761D01*
X23612344Y-59619494D01*
X23576551Y-59611532D01*
X23545700Y-59601627D01*
X23517586Y-59589531D01*
X23490005Y-59574993D01*
X23464966Y-59560311D01*
X23401867Y-59522314D01*
X23401867Y-60582197D01*
X23401867Y-60885034D01*
X23395617Y-60885001D01*
X23293544Y-60884195D01*
X23204633Y-60883170D01*
X23127941Y-60881900D01*
X23062527Y-60880360D01*
X23007449Y-60878524D01*
X22961765Y-60876367D01*
X22924534Y-60873863D01*
X22894813Y-60870987D01*
X22871662Y-60867713D01*
X22854139Y-60864015D01*
X22841301Y-60859869D01*
X22832208Y-60855247D01*
X22825918Y-60850126D01*
X22821488Y-60844478D01*
X22817978Y-60838279D01*
X22814445Y-60831504D01*
X22810876Y-60825508D01*
X22808300Y-60820275D01*
X22805972Y-60812099D01*
X22803878Y-60799886D01*
X22802007Y-60782541D01*
X22800347Y-60758969D01*
X22798884Y-60728077D01*
X22797608Y-60688768D01*
X22796504Y-60639950D01*
X22795561Y-60580527D01*
X22794767Y-60509404D01*
X22794109Y-60425488D01*
X22793575Y-60327683D01*
X22793153Y-60214894D01*
X22792829Y-60086029D01*
X22792592Y-59939991D01*
X22792430Y-59775686D01*
X22792330Y-59592020D01*
X22792280Y-59387897D01*
X22792267Y-59176753D01*
X22792267Y-57556400D01*
X22889054Y-57556400D01*
G36*
X23349071Y-54281571D02*
G01*
X23370245Y-54121430D01*
X23410385Y-53957490D01*
X23469889Y-53787687D01*
X23549154Y-53609957D01*
X23554699Y-53598690D01*
X23582725Y-53540995D01*
X23606802Y-53489448D01*
X23625249Y-53447809D01*
X23636386Y-53419838D01*
X23638933Y-53410267D01*
X23643941Y-53391050D01*
X23648147Y-53386439D01*
X23658580Y-53391542D01*
X23684868Y-53407582D01*
X23724257Y-53432712D01*
X23773991Y-53465086D01*
X23831315Y-53502857D01*
X23893476Y-53544178D01*
X23957718Y-53587202D01*
X24021285Y-53630083D01*
X24081425Y-53670974D01*
X24135380Y-53708029D01*
X24180397Y-53739400D01*
X24213721Y-53763241D01*
X24232597Y-53777706D01*
X24234787Y-53779691D01*
X24230138Y-53789809D01*
X24212962Y-53812150D01*
X24186440Y-53842720D01*
X24171964Y-53858464D01*
X24096682Y-53954953D01*
X24041241Y-54061664D01*
X24006141Y-54177168D01*
X23991880Y-54300038D01*
X23993051Y-54369439D01*
X24010212Y-54490577D01*
X24046094Y-54599795D01*
X24100959Y-54697418D01*
X24175070Y-54783772D01*
X24268688Y-54859185D01*
X24382076Y-54923982D01*
X24468667Y-54961399D01*
X24604366Y-55005252D01*
X24751850Y-55037572D01*
X24907314Y-55058443D01*
X25066956Y-55067949D01*
X25226973Y-55066173D01*
X25383561Y-55053197D01*
X25532918Y-55029106D01*
X25671240Y-54993982D01*
X25794724Y-54947908D01*
X25828978Y-54931627D01*
X25943064Y-54863380D01*
X26039557Y-54782921D01*
X26117670Y-54691430D01*
X26176617Y-54590089D01*
X26215612Y-54480080D01*
X26233868Y-54362585D01*
X26235211Y-54321117D01*
X26224290Y-54199559D01*
X26191474Y-54079122D01*
X26137439Y-53961334D01*
X26062865Y-53847723D01*
X25984539Y-53756315D01*
X25940008Y-53709785D01*
X26237271Y-53528517D01*
X26311433Y-53483420D01*
X26379646Y-53442181D01*
X26439459Y-53406265D01*
X26488420Y-53377134D01*
X26524079Y-53356250D01*
X26543984Y-53345076D01*
X26547079Y-53343625D01*
X26556718Y-53351854D01*
X26573999Y-53377433D01*
X26597283Y-53417127D01*
X26624934Y-53467703D01*
X26655315Y-53525926D01*
X26686790Y-53588563D01*
X26717722Y-53652379D01*
X26746473Y-53714140D01*
X26771408Y-53770612D01*
X26790889Y-53818562D01*
X26799318Y-53842014D01*
X26837133Y-53975779D01*
X26862136Y-54113673D01*
X26875140Y-54261378D01*
X26877468Y-54388167D01*
X26876373Y-54456122D01*
X26874275Y-54521723D01*
X26871434Y-54579153D01*
X26868106Y-54622597D01*
X26866422Y-54636702D01*
X26837587Y-54775716D01*
X26792468Y-54917243D01*
X26733750Y-55054725D01*
X26664120Y-55181606D01*
X26611441Y-55259111D01*
X26503239Y-55386519D01*
X26376671Y-55504822D01*
X26234866Y-55611828D01*
X26080951Y-55705348D01*
X25918053Y-55783190D01*
X25800756Y-55827044D01*
X25617128Y-55877292D01*
X25422581Y-55910791D01*
X25221325Y-55927551D01*
X25017568Y-55927584D01*
X24815521Y-55910899D01*
X24619392Y-55877507D01*
X24433391Y-55827420D01*
X24421803Y-55823603D01*
X24259750Y-55760719D01*
X24111832Y-55683972D01*
X23973865Y-55590758D01*
X23841661Y-55478473D01*
X23796399Y-55434608D01*
X23672457Y-55298466D01*
X23569915Y-55158509D01*
X23487656Y-55012589D01*
X23424564Y-54858558D01*
X23379523Y-54694268D01*
X23362033Y-54598711D01*
X23346466Y-54439977D01*
X23349071Y-54281571D01*
G37*
X23349071Y-54281571D02*
X23370245Y-54121430D01*
X23410385Y-53957490D01*
X23469889Y-53787687D01*
X23549154Y-53609957D01*
X23554699Y-53598690D01*
X23582725Y-53540995D01*
X23606802Y-53489448D01*
X23625249Y-53447809D01*
X23636386Y-53419838D01*
X23638933Y-53410267D01*
X23643941Y-53391050D01*
X23648147Y-53386439D01*
X23658580Y-53391542D01*
X23684868Y-53407582D01*
X23724257Y-53432712D01*
X23773991Y-53465086D01*
X23831315Y-53502857D01*
X23893476Y-53544178D01*
X23957718Y-53587202D01*
X24021285Y-53630083D01*
X24081425Y-53670974D01*
X24135380Y-53708029D01*
X24180397Y-53739400D01*
X24213721Y-53763241D01*
X24232597Y-53777706D01*
X24234787Y-53779691D01*
X24230138Y-53789809D01*
X24212962Y-53812150D01*
X24186440Y-53842720D01*
X24171964Y-53858464D01*
X24096682Y-53954953D01*
X24041241Y-54061664D01*
X24006141Y-54177168D01*
X23991880Y-54300038D01*
X23993051Y-54369439D01*
X24010212Y-54490577D01*
X24046094Y-54599795D01*
X24100959Y-54697418D01*
X24175070Y-54783772D01*
X24268688Y-54859185D01*
X24382076Y-54923982D01*
X24468667Y-54961399D01*
X24604366Y-55005252D01*
X24751850Y-55037572D01*
X24907314Y-55058443D01*
X25066956Y-55067949D01*
X25226973Y-55066173D01*
X25383561Y-55053197D01*
X25532918Y-55029106D01*
X25671240Y-54993982D01*
X25794724Y-54947908D01*
X25828978Y-54931627D01*
X25943064Y-54863380D01*
X26039557Y-54782921D01*
X26117670Y-54691430D01*
X26176617Y-54590089D01*
X26215612Y-54480080D01*
X26233868Y-54362585D01*
X26235211Y-54321117D01*
X26224290Y-54199559D01*
X26191474Y-54079122D01*
X26137439Y-53961334D01*
X26062865Y-53847723D01*
X25984539Y-53756315D01*
X25940008Y-53709785D01*
X26237271Y-53528517D01*
X26311433Y-53483420D01*
X26379646Y-53442181D01*
X26439459Y-53406265D01*
X26488420Y-53377134D01*
X26524079Y-53356250D01*
X26543984Y-53345076D01*
X26547079Y-53343625D01*
X26556718Y-53351854D01*
X26573999Y-53377433D01*
X26597283Y-53417127D01*
X26624934Y-53467703D01*
X26655315Y-53525926D01*
X26686790Y-53588563D01*
X26717722Y-53652379D01*
X26746473Y-53714140D01*
X26771408Y-53770612D01*
X26790889Y-53818562D01*
X26799318Y-53842014D01*
X26837133Y-53975779D01*
X26862136Y-54113673D01*
X26875140Y-54261378D01*
X26877468Y-54388167D01*
X26876373Y-54456122D01*
X26874275Y-54521723D01*
X26871434Y-54579153D01*
X26868106Y-54622597D01*
X26866422Y-54636702D01*
X26837587Y-54775716D01*
X26792468Y-54917243D01*
X26733750Y-55054725D01*
X26664120Y-55181606D01*
X26611441Y-55259111D01*
X26503239Y-55386519D01*
X26376671Y-55504822D01*
X26234866Y-55611828D01*
X26080951Y-55705348D01*
X25918053Y-55783190D01*
X25800756Y-55827044D01*
X25617128Y-55877292D01*
X25422581Y-55910791D01*
X25221325Y-55927551D01*
X25017568Y-55927584D01*
X24815521Y-55910899D01*
X24619392Y-55877507D01*
X24433391Y-55827420D01*
X24421803Y-55823603D01*
X24259750Y-55760719D01*
X24111832Y-55683972D01*
X23973865Y-55590758D01*
X23841661Y-55478473D01*
X23796399Y-55434608D01*
X23672457Y-55298466D01*
X23569915Y-55158509D01*
X23487656Y-55012589D01*
X23424564Y-54858558D01*
X23379523Y-54694268D01*
X23362033Y-54598711D01*
X23346466Y-54439977D01*
X23349071Y-54281571D01*
G36*
X24266552Y-51936426D02*
G01*
X24286567Y-51784508D01*
X24320202Y-51649244D01*
X24367725Y-51529761D01*
X24429405Y-51425185D01*
X24492965Y-51347576D01*
X24567099Y-51278735D01*
X24646871Y-51224994D01*
X24739091Y-51182090D01*
X24782161Y-51166616D01*
X24821142Y-51153756D01*
X24857289Y-51142554D01*
X24892434Y-51132880D01*
X24928410Y-51124604D01*
X24967050Y-51117597D01*
X25010185Y-51111728D01*
X25059649Y-51106869D01*
X25117273Y-51102890D01*
X25184891Y-51099660D01*
X25264334Y-51097051D01*
X25357436Y-51094933D01*
X25466027Y-51093176D01*
X25591942Y-51091651D01*
X25737012Y-51090228D01*
X25879778Y-51088975D01*
X26035968Y-51087649D01*
X26171239Y-51086444D01*
X26287246Y-51085234D01*
X26385645Y-51083894D01*
X26468093Y-51082300D01*
X26536246Y-51080325D01*
X26591760Y-51077844D01*
X26636292Y-51074731D01*
X26671498Y-51070862D01*
X26699034Y-51066111D01*
X26720556Y-51060352D01*
X26737722Y-51053461D01*
X26752186Y-51045311D01*
X26765606Y-51035777D01*
X26779638Y-51024734D01*
X26785071Y-51020434D01*
X26807910Y-51004614D01*
X26823463Y-50997578D01*
X26823922Y-50997556D01*
X26826121Y-51008433D01*
X26828147Y-51039418D01*
X26829942Y-51088043D01*
X26831451Y-51151837D01*
X26832616Y-51228331D01*
X26833380Y-51315056D01*
X26833686Y-51409543D01*
X26833689Y-51420450D01*
X26833689Y-51843343D01*
X26737622Y-51846605D01*
X26641556Y-51849867D01*
X26692543Y-51911956D01*
X26760057Y-52009286D01*
X26814749Y-52119187D01*
X26844978Y-52205651D01*
X26859666Y-52274722D01*
X26869659Y-52358075D01*
X26874646Y-52447841D01*
X26874313Y-52536155D01*
X26868351Y-52615149D01*
X26862638Y-52651378D01*
X26824776Y-52791397D01*
X26769932Y-52917822D01*
X26698924Y-53029740D01*
X26612568Y-53126238D01*
X26511679Y-53206400D01*
X26397076Y-53269313D01*
X26270984Y-53313688D01*
X26214401Y-53326022D01*
X26152202Y-53333632D01*
X26077363Y-53337261D01*
X26043467Y-53337755D01*
X26040282Y-53337690D01*
X26040282Y-52577752D01*
X26115333Y-52568459D01*
X26179160Y-52540272D01*
X26234798Y-52491803D01*
X26239211Y-52486746D01*
X26274037Y-52438452D01*
X26296620Y-52386743D01*
X26308540Y-52326011D01*
X26311383Y-52250648D01*
X26310978Y-52232541D01*
X26308325Y-52178722D01*
X26302909Y-52138692D01*
X26292745Y-52103676D01*
X26275850Y-52064897D01*
X26270672Y-52054255D01*
X26234844Y-51993604D01*
X26192212Y-51946785D01*
X26176973Y-51934048D01*
X26120462Y-51889378D01*
X25924586Y-51889378D01*
X25845939Y-51889914D01*
X25787988Y-51891604D01*
X25748875Y-51894572D01*
X25726741Y-51898943D01*
X25720274Y-51903028D01*
X25717111Y-51918953D01*
X25714488Y-51952736D01*
X25712655Y-51999660D01*
X25711857Y-52055007D01*
X25711842Y-52063894D01*
X25717096Y-52184670D01*
X25733263Y-52287340D01*
X25760961Y-52373894D01*
X25800808Y-52446319D01*
X25847758Y-52501249D01*
X25905645Y-52545796D01*
X25968693Y-52570520D01*
X26040282Y-52577752D01*
X26040282Y-53337690D01*
X25949712Y-53335822D01*
X25870812Y-53327478D01*
X25799590Y-53311232D01*
X25728864Y-53285595D01*
X25676493Y-53261599D01*
X25581196Y-53202980D01*
X25493170Y-53124883D01*
X25414017Y-53029685D01*
X25345340Y-52919762D01*
X25288741Y-52797490D01*
X25245821Y-52665245D01*
X25230882Y-52600578D01*
X25208777Y-52464396D01*
X25194194Y-52315951D01*
X25187813Y-52164495D01*
X25189445Y-52037936D01*
X25196224Y-51876050D01*
X25137245Y-51883470D01*
X25038092Y-51902762D01*
X24957372Y-51933896D01*
X24894466Y-51977731D01*
X24848756Y-52035129D01*
X24819622Y-52106952D01*
X24806447Y-52194059D01*
X24808611Y-52297314D01*
X24812612Y-52335289D01*
X24837780Y-52476480D01*
X24878814Y-52613293D01*
X24916815Y-52707822D01*
X24936190Y-52752982D01*
X24951760Y-52791415D01*
X24961405Y-52817766D01*
X24963452Y-52825454D01*
X24954374Y-52835198D01*
X24925405Y-52851917D01*
X24876217Y-52875768D01*
X24806484Y-52906907D01*
X24715879Y-52945493D01*
X24700089Y-52952090D01*
X24627772Y-52982147D01*
X24562425Y-53009126D01*
X24506906Y-53031864D01*
X24464072Y-53049194D01*
X24436781Y-53059952D01*
X24427942Y-53063059D01*
X24423187Y-53053060D01*
X24417910Y-53026783D01*
X24414231Y-52998511D01*
X24409474Y-52968354D01*
X24400028Y-52920567D01*
X24386820Y-52859388D01*
X24370776Y-52789054D01*
X24352820Y-52713806D01*
X24345797Y-52685245D01*
X24320209Y-52580184D01*
X24300147Y-52492520D01*
X24284969Y-52417932D01*
X24274035Y-52352097D01*
X24266704Y-52290693D01*
X24262335Y-52229398D01*
X24260287Y-52163890D01*
X24259889Y-52105872D01*
X24266552Y-51936426D01*
G37*
X24266552Y-51936426D02*
X24286567Y-51784508D01*
X24320202Y-51649244D01*
X24367725Y-51529761D01*
X24429405Y-51425185D01*
X24492965Y-51347576D01*
X24567099Y-51278735D01*
X24646871Y-51224994D01*
X24739091Y-51182090D01*
X24782161Y-51166616D01*
X24821142Y-51153756D01*
X24857289Y-51142554D01*
X24892434Y-51132880D01*
X24928410Y-51124604D01*
X24967050Y-51117597D01*
X25010185Y-51111728D01*
X25059649Y-51106869D01*
X25117273Y-51102890D01*
X25184891Y-51099660D01*
X25264334Y-51097051D01*
X25357436Y-51094933D01*
X25466027Y-51093176D01*
X25591942Y-51091651D01*
X25737012Y-51090228D01*
X25879778Y-51088975D01*
X26035968Y-51087649D01*
X26171239Y-51086444D01*
X26287246Y-51085234D01*
X26385645Y-51083894D01*
X26468093Y-51082300D01*
X26536246Y-51080325D01*
X26591760Y-51077844D01*
X26636292Y-51074731D01*
X26671498Y-51070862D01*
X26699034Y-51066111D01*
X26720556Y-51060352D01*
X26737722Y-51053461D01*
X26752186Y-51045311D01*
X26765606Y-51035777D01*
X26779638Y-51024734D01*
X26785071Y-51020434D01*
X26807910Y-51004614D01*
X26823463Y-50997578D01*
X26823922Y-50997556D01*
X26826121Y-51008433D01*
X26828147Y-51039418D01*
X26829942Y-51088043D01*
X26831451Y-51151837D01*
X26832616Y-51228331D01*
X26833380Y-51315056D01*
X26833686Y-51409543D01*
X26833689Y-51420450D01*
X26833689Y-51843343D01*
X26737622Y-51846605D01*
X26641556Y-51849867D01*
X26692543Y-51911956D01*
X26760057Y-52009286D01*
X26814749Y-52119187D01*
X26844978Y-52205651D01*
X26859666Y-52274722D01*
X26869659Y-52358075D01*
X26874646Y-52447841D01*
X26874313Y-52536155D01*
X26868351Y-52615149D01*
X26862638Y-52651378D01*
X26824776Y-52791397D01*
X26769932Y-52917822D01*
X26698924Y-53029740D01*
X26612568Y-53126238D01*
X26511679Y-53206400D01*
X26397076Y-53269313D01*
X26270984Y-53313688D01*
X26214401Y-53326022D01*
X26152202Y-53333632D01*
X26077363Y-53337261D01*
X26043467Y-53337755D01*
X26040282Y-53337690D01*
X26040282Y-52577752D01*
X26115333Y-52568459D01*
X26179160Y-52540272D01*
X26234798Y-52491803D01*
X26239211Y-52486746D01*
X26274037Y-52438452D01*
X26296620Y-52386743D01*
X26308540Y-52326011D01*
X26311383Y-52250648D01*
X26310978Y-52232541D01*
X26308325Y-52178722D01*
X26302909Y-52138692D01*
X26292745Y-52103676D01*
X26275850Y-52064897D01*
X26270672Y-52054255D01*
X26234844Y-51993604D01*
X26192212Y-51946785D01*
X26176973Y-51934048D01*
X26120462Y-51889378D01*
X25924586Y-51889378D01*
X25845939Y-51889914D01*
X25787988Y-51891604D01*
X25748875Y-51894572D01*
X25726741Y-51898943D01*
X25720274Y-51903028D01*
X25717111Y-51918953D01*
X25714488Y-51952736D01*
X25712655Y-51999660D01*
X25711857Y-52055007D01*
X25711842Y-52063894D01*
X25717096Y-52184670D01*
X25733263Y-52287340D01*
X25760961Y-52373894D01*
X25800808Y-52446319D01*
X25847758Y-52501249D01*
X25905645Y-52545796D01*
X25968693Y-52570520D01*
X26040282Y-52577752D01*
X26040282Y-53337690D01*
X25949712Y-53335822D01*
X25870812Y-53327478D01*
X25799590Y-53311232D01*
X25728864Y-53285595D01*
X25676493Y-53261599D01*
X25581196Y-53202980D01*
X25493170Y-53124883D01*
X25414017Y-53029685D01*
X25345340Y-52919762D01*
X25288741Y-52797490D01*
X25245821Y-52665245D01*
X25230882Y-52600578D01*
X25208777Y-52464396D01*
X25194194Y-52315951D01*
X25187813Y-52164495D01*
X25189445Y-52037936D01*
X25196224Y-51876050D01*
X25137245Y-51883470D01*
X25038092Y-51902762D01*
X24957372Y-51933896D01*
X24894466Y-51977731D01*
X24848756Y-52035129D01*
X24819622Y-52106952D01*
X24806447Y-52194059D01*
X24808611Y-52297314D01*
X24812612Y-52335289D01*
X24837780Y-52476480D01*
X24878814Y-52613293D01*
X24916815Y-52707822D01*
X24936190Y-52752982D01*
X24951760Y-52791415D01*
X24961405Y-52817766D01*
X24963452Y-52825454D01*
X24954374Y-52835198D01*
X24925405Y-52851917D01*
X24876217Y-52875768D01*
X24806484Y-52906907D01*
X24715879Y-52945493D01*
X24700089Y-52952090D01*
X24627772Y-52982147D01*
X24562425Y-53009126D01*
X24506906Y-53031864D01*
X24464072Y-53049194D01*
X24436781Y-53059952D01*
X24427942Y-53063059D01*
X24423187Y-53053060D01*
X24417910Y-53026783D01*
X24414231Y-52998511D01*
X24409474Y-52968354D01*
X24400028Y-52920567D01*
X24386820Y-52859388D01*
X24370776Y-52789054D01*
X24352820Y-52713806D01*
X24345797Y-52685245D01*
X24320209Y-52580184D01*
X24300147Y-52492520D01*
X24284969Y-52417932D01*
X24274035Y-52352097D01*
X24266704Y-52290693D01*
X24262335Y-52229398D01*
X24260287Y-52163890D01*
X24259889Y-52105872D01*
X24266552Y-51936426D01*
G36*
X24872245Y-48423493D02*
G01*
X25106662Y-48423474D01*
X25319603Y-48423448D01*
X25512168Y-48423375D01*
X25685459Y-48423218D01*
X25840576Y-48422936D01*
X25978620Y-48422491D01*
X26100692Y-48421844D01*
X26207894Y-48420955D01*
X26301326Y-48419787D01*
X26382090Y-48418299D01*
X26451286Y-48416454D01*
X26510015Y-48414211D01*
X26559379Y-48411531D01*
X26600478Y-48408377D01*
X26634413Y-48404708D01*
X26662286Y-48400487D01*
X26685198Y-48395673D01*
X26704249Y-48390227D01*
X26720540Y-48384112D01*
X26735173Y-48377288D01*
X26749249Y-48369715D01*
X26763868Y-48361355D01*
X26772974Y-48356161D01*
X26833689Y-48321896D01*
X26833689Y-49180045D01*
X26737733Y-49180045D01*
X26694370Y-49180776D01*
X26661205Y-49182728D01*
X26643424Y-49185537D01*
X26641778Y-49186779D01*
X26648662Y-49198201D01*
X26666505Y-49220916D01*
X26685879Y-49243615D01*
X26726614Y-49298200D01*
X26767617Y-49367679D01*
X26805123Y-49444730D01*
X26835364Y-49522035D01*
X26845012Y-49552887D01*
X26859578Y-49621384D01*
X26869539Y-49704236D01*
X26874583Y-49793629D01*
X26874396Y-49881752D01*
X26868666Y-49960793D01*
X26862858Y-49998489D01*
X26824797Y-50136586D01*
X26767073Y-50263887D01*
X26690211Y-50379708D01*
X26594739Y-50483363D01*
X26481179Y-50574167D01*
X26370381Y-50640969D01*
X26253625Y-50695836D01*
X26134276Y-50737837D01*
X26008283Y-50767833D01*
X25871594Y-50786689D01*
X25720158Y-50795268D01*
X25642711Y-50795994D01*
X25585934Y-50793900D01*
X25585934Y-49964783D01*
X25679002Y-49964576D01*
X25766692Y-49961663D01*
X25843772Y-49956000D01*
X25905009Y-49947545D01*
X25917350Y-49944962D01*
X26024633Y-49913160D01*
X26111658Y-49871502D01*
X26178642Y-49819637D01*
X26225805Y-49757219D01*
X26253365Y-49683900D01*
X26261541Y-49599331D01*
X26250551Y-49503165D01*
X26234829Y-49439689D01*
X26216639Y-49390546D01*
X26190791Y-49336417D01*
X26167089Y-49295756D01*
X26120721Y-49225200D01*
X24970530Y-49225200D01*
X24926962Y-49292608D01*
X24886040Y-49371133D01*
X24859389Y-49455319D01*
X24847465Y-49540443D01*
X24850722Y-49621784D01*
X24869615Y-49694620D01*
X24885184Y-49726574D01*
X24928181Y-49784499D01*
X24984953Y-49833456D01*
X25057575Y-49874610D01*
X25148121Y-49909126D01*
X25258666Y-49938167D01*
X25264533Y-49939448D01*
X25326788Y-49949619D01*
X25404594Y-49957261D01*
X25492720Y-49962330D01*
X25585934Y-49964783D01*
X25585934Y-50793900D01*
X25429895Y-50788143D01*
X25234059Y-50766198D01*
X25055332Y-50730214D01*
X24893845Y-50680241D01*
X24749726Y-50616332D01*
X24623106Y-50538538D01*
X24514115Y-50446911D01*
X24422883Y-50341503D01*
X24391932Y-50296338D01*
X24335785Y-50195389D01*
X24296174Y-50092099D01*
X24272014Y-49982011D01*
X24262219Y-49860670D01*
X24263265Y-49768164D01*
X24274231Y-49638510D01*
X24296046Y-49525916D01*
X24329714Y-49427125D01*
X24376236Y-49338879D01*
X24410448Y-49290014D01*
X24432362Y-49260647D01*
X24447333Y-49238957D01*
X24451733Y-49230747D01*
X24440904Y-49229132D01*
X24410251Y-49227841D01*
X24362526Y-49226862D01*
X24300479Y-49226183D01*
X24226862Y-49225790D01*
X24144427Y-49225670D01*
X24055925Y-49225812D01*
X23964107Y-49226203D01*
X23871724Y-49226829D01*
X23781528Y-49227680D01*
X23696271Y-49228740D01*
X23618703Y-49229999D01*
X23551576Y-49231444D01*
X23497641Y-49233062D01*
X23459650Y-49234839D01*
X23452667Y-49235331D01*
X23382251Y-49242908D01*
X23327102Y-49254469D01*
X23279981Y-49272208D01*
X23233647Y-49298318D01*
X23224067Y-49304585D01*
X23187378Y-49329017D01*
X23187378Y-48423689D01*
X24872245Y-48423493D01*
G37*
X24872245Y-48423493D02*
X25106662Y-48423474D01*
X25319603Y-48423448D01*
X25512168Y-48423375D01*
X25685459Y-48423218D01*
X25840576Y-48422936D01*
X25978620Y-48422491D01*
X26100692Y-48421844D01*
X26207894Y-48420955D01*
X26301326Y-48419787D01*
X26382090Y-48418299D01*
X26451286Y-48416454D01*
X26510015Y-48414211D01*
X26559379Y-48411531D01*
X26600478Y-48408377D01*
X26634413Y-48404708D01*
X26662286Y-48400487D01*
X26685198Y-48395673D01*
X26704249Y-48390227D01*
X26720540Y-48384112D01*
X26735173Y-48377288D01*
X26749249Y-48369715D01*
X26763868Y-48361355D01*
X26772974Y-48356161D01*
X26833689Y-48321896D01*
X26833689Y-49180045D01*
X26737733Y-49180045D01*
X26694370Y-49180776D01*
X26661205Y-49182728D01*
X26643424Y-49185537D01*
X26641778Y-49186779D01*
X26648662Y-49198201D01*
X26666505Y-49220916D01*
X26685879Y-49243615D01*
X26726614Y-49298200D01*
X26767617Y-49367679D01*
X26805123Y-49444730D01*
X26835364Y-49522035D01*
X26845012Y-49552887D01*
X26859578Y-49621384D01*
X26869539Y-49704236D01*
X26874583Y-49793629D01*
X26874396Y-49881752D01*
X26868666Y-49960793D01*
X26862858Y-49998489D01*
X26824797Y-50136586D01*
X26767073Y-50263887D01*
X26690211Y-50379708D01*
X26594739Y-50483363D01*
X26481179Y-50574167D01*
X26370381Y-50640969D01*
X26253625Y-50695836D01*
X26134276Y-50737837D01*
X26008283Y-50767833D01*
X25871594Y-50786689D01*
X25720158Y-50795268D01*
X25642711Y-50795994D01*
X25585934Y-50793900D01*
X25585934Y-49964783D01*
X25679002Y-49964576D01*
X25766692Y-49961663D01*
X25843772Y-49956000D01*
X25905009Y-49947545D01*
X25917350Y-49944962D01*
X26024633Y-49913160D01*
X26111658Y-49871502D01*
X26178642Y-49819637D01*
X26225805Y-49757219D01*
X26253365Y-49683900D01*
X26261541Y-49599331D01*
X26250551Y-49503165D01*
X26234829Y-49439689D01*
X26216639Y-49390546D01*
X26190791Y-49336417D01*
X26167089Y-49295756D01*
X26120721Y-49225200D01*
X24970530Y-49225200D01*
X24926962Y-49292608D01*
X24886040Y-49371133D01*
X24859389Y-49455319D01*
X24847465Y-49540443D01*
X24850722Y-49621784D01*
X24869615Y-49694620D01*
X24885184Y-49726574D01*
X24928181Y-49784499D01*
X24984953Y-49833456D01*
X25057575Y-49874610D01*
X25148121Y-49909126D01*
X25258666Y-49938167D01*
X25264533Y-49939448D01*
X25326788Y-49949619D01*
X25404594Y-49957261D01*
X25492720Y-49962330D01*
X25585934Y-49964783D01*
X25585934Y-50793900D01*
X25429895Y-50788143D01*
X25234059Y-50766198D01*
X25055332Y-50730214D01*
X24893845Y-50680241D01*
X24749726Y-50616332D01*
X24623106Y-50538538D01*
X24514115Y-50446911D01*
X24422883Y-50341503D01*
X24391932Y-50296338D01*
X24335785Y-50195389D01*
X24296174Y-50092099D01*
X24272014Y-49982011D01*
X24262219Y-49860670D01*
X24263265Y-49768164D01*
X24274231Y-49638510D01*
X24296046Y-49525916D01*
X24329714Y-49427125D01*
X24376236Y-49338879D01*
X24410448Y-49290014D01*
X24432362Y-49260647D01*
X24447333Y-49238957D01*
X24451733Y-49230747D01*
X24440904Y-49229132D01*
X24410251Y-49227841D01*
X24362526Y-49226862D01*
X24300479Y-49226183D01*
X24226862Y-49225790D01*
X24144427Y-49225670D01*
X24055925Y-49225812D01*
X23964107Y-49226203D01*
X23871724Y-49226829D01*
X23781528Y-49227680D01*
X23696271Y-49228740D01*
X23618703Y-49229999D01*
X23551576Y-49231444D01*
X23497641Y-49233062D01*
X23459650Y-49234839D01*
X23452667Y-49235331D01*
X23382251Y-49242908D01*
X23327102Y-49254469D01*
X23279981Y-49272208D01*
X23233647Y-49298318D01*
X23224067Y-49304585D01*
X23187378Y-49329017D01*
X23187378Y-48423689D01*
X24872245Y-48423493D01*
G36*
X22426571Y-56883043D02*
G01*
X22450809Y-56786768D01*
X22493641Y-56700184D01*
X22553419Y-56625373D01*
X22628494Y-56564418D01*
X22717220Y-56519399D01*
X22813530Y-56493136D01*
X22910795Y-56487286D01*
X23004654Y-56502140D01*
X23092511Y-56535840D01*
X23171770Y-56586528D01*
X23239836Y-56652345D01*
X23294112Y-56731434D01*
X23332002Y-56821934D01*
X23344426Y-56873200D01*
X23351947Y-56917698D01*
X23354919Y-56951999D01*
X23353094Y-56984960D01*
X23346225Y-57025434D01*
X23339250Y-57058531D01*
X23307741Y-57151947D01*
X23256617Y-57235619D01*
X23187429Y-57307665D01*
X23101728Y-57366200D01*
X23074489Y-57380148D01*
X23038122Y-57396586D01*
X23007582Y-57406894D01*
X22975450Y-57412460D01*
X22934307Y-57414669D01*
X22888222Y-57414948D01*
X22803865Y-57410861D01*
X22734586Y-57397446D01*
X22673961Y-57372256D01*
X22615567Y-57332846D01*
X22571302Y-57294298D01*
X22505484Y-57222406D01*
X22460053Y-57147313D01*
X22432850Y-57064562D01*
X22422576Y-56986928D01*
X22426571Y-56883043D01*
G37*
X22426571Y-56883043D02*
X22450809Y-56786768D01*
X22493641Y-56700184D01*
X22553419Y-56625373D01*
X22628494Y-56564418D01*
X22717220Y-56519399D01*
X22813530Y-56493136D01*
X22910795Y-56487286D01*
X23004654Y-56502140D01*
X23092511Y-56535840D01*
X23171770Y-56586528D01*
X23239836Y-56652345D01*
X23294112Y-56731434D01*
X23332002Y-56821934D01*
X23344426Y-56873200D01*
X23351947Y-56917698D01*
X23354919Y-56951999D01*
X23353094Y-56984960D01*
X23346225Y-57025434D01*
X23339250Y-57058531D01*
X23307741Y-57151947D01*
X23256617Y-57235619D01*
X23187429Y-57307665D01*
X23101728Y-57366200D01*
X23074489Y-57380148D01*
X23038122Y-57396586D01*
X23007582Y-57406894D01*
X22975450Y-57412460D01*
X22934307Y-57414669D01*
X22888222Y-57414948D01*
X22803865Y-57410861D01*
X22734586Y-57397446D01*
X22673961Y-57372256D01*
X22615567Y-57332846D01*
X22571302Y-57294298D01*
X22505484Y-57222406D01*
X22460053Y-57147313D01*
X22432850Y-57064562D01*
X22422576Y-56986928D01*
X22426571Y-56883043D01*
G36*
X27669066Y-60731371D02*
G01*
X27669467Y-60691889D01*
X27672259Y-60576200D01*
X27680550Y-60479311D01*
X27695232Y-60397919D01*
X27717193Y-60328723D01*
X27747322Y-60268420D01*
X27786510Y-60213708D01*
X27803532Y-60194167D01*
X27843363Y-60161750D01*
X27897413Y-60132520D01*
X27957323Y-60109991D01*
X28014739Y-60097679D01*
X28035956Y-60096400D01*
X28094769Y-60104417D01*
X28159013Y-60125899D01*
X28219821Y-60156999D01*
X28268330Y-60193866D01*
X28274182Y-60199854D01*
X28315321Y-60250579D01*
X28347435Y-60306125D01*
X28371365Y-60369696D01*
X28387953Y-60444494D01*
X28398041Y-60533722D01*
X28402469Y-60640582D01*
X28402845Y-60689528D01*
X28402545Y-60751762D01*
X28401292Y-60795528D01*
X28398554Y-60824931D01*
X28393801Y-60844079D01*
X28386501Y-60857077D01*
X28380267Y-60864045D01*
X28372694Y-60870626D01*
X28362924Y-60875788D01*
X28348340Y-60879703D01*
X28326326Y-60882543D01*
X28294264Y-60884480D01*
X28249536Y-60885684D01*
X28189526Y-60886328D01*
X28111617Y-60886583D01*
X28035956Y-60886622D01*
X27935041Y-60886870D01*
X27854427Y-60886817D01*
X27815822Y-60885857D01*
X27815822Y-60739867D01*
X28256089Y-60739867D01*
X28256004Y-60646734D01*
X28254396Y-60590693D01*
X28250256Y-60531999D01*
X28244464Y-60483028D01*
X28244226Y-60481538D01*
X28225090Y-60402392D01*
X28195287Y-60341002D01*
X28152878Y-60294305D01*
X28106961Y-60264635D01*
X28056026Y-60246353D01*
X28008200Y-60247771D01*
X27956933Y-60268988D01*
X27903899Y-60310489D01*
X27864600Y-60367998D01*
X27838331Y-60442750D01*
X27829035Y-60492708D01*
X27822507Y-60549416D01*
X27817782Y-60609519D01*
X27815817Y-60660639D01*
X27815808Y-60663667D01*
X27815822Y-60739867D01*
X27815822Y-60885857D01*
X27791851Y-60885260D01*
X27745055Y-60880998D01*
X27711778Y-60872830D01*
X27689759Y-60859556D01*
X27676739Y-60839974D01*
X27670457Y-60812883D01*
X27668653Y-60777082D01*
X27669066Y-60731371D01*
G37*
X27669066Y-60731371D02*
X27669467Y-60691889D01*
X27672259Y-60576200D01*
X27680550Y-60479311D01*
X27695232Y-60397919D01*
X27717193Y-60328723D01*
X27747322Y-60268420D01*
X27786510Y-60213708D01*
X27803532Y-60194167D01*
X27843363Y-60161750D01*
X27897413Y-60132520D01*
X27957323Y-60109991D01*
X28014739Y-60097679D01*
X28035956Y-60096400D01*
X28094769Y-60104417D01*
X28159013Y-60125899D01*
X28219821Y-60156999D01*
X28268330Y-60193866D01*
X28274182Y-60199854D01*
X28315321Y-60250579D01*
X28347435Y-60306125D01*
X28371365Y-60369696D01*
X28387953Y-60444494D01*
X28398041Y-60533722D01*
X28402469Y-60640582D01*
X28402845Y-60689528D01*
X28402545Y-60751762D01*
X28401292Y-60795528D01*
X28398554Y-60824931D01*
X28393801Y-60844079D01*
X28386501Y-60857077D01*
X28380267Y-60864045D01*
X28372694Y-60870626D01*
X28362924Y-60875788D01*
X28348340Y-60879703D01*
X28326326Y-60882543D01*
X28294264Y-60884480D01*
X28249536Y-60885684D01*
X28189526Y-60886328D01*
X28111617Y-60886583D01*
X28035956Y-60886622D01*
X27935041Y-60886870D01*
X27854427Y-60886817D01*
X27815822Y-60885857D01*
X27815822Y-60739867D01*
X28256089Y-60739867D01*
X28256004Y-60646734D01*
X28254396Y-60590693D01*
X28250256Y-60531999D01*
X28244464Y-60483028D01*
X28244226Y-60481538D01*
X28225090Y-60402392D01*
X28195287Y-60341002D01*
X28152878Y-60294305D01*
X28106961Y-60264635D01*
X28056026Y-60246353D01*
X28008200Y-60247771D01*
X27956933Y-60268988D01*
X27903899Y-60310489D01*
X27864600Y-60367998D01*
X27838331Y-60442750D01*
X27829035Y-60492708D01*
X27822507Y-60549416D01*
X27817782Y-60609519D01*
X27815817Y-60660639D01*
X27815808Y-60663667D01*
X27815822Y-60739867D01*
X27815822Y-60885857D01*
X27791851Y-60885260D01*
X27745055Y-60880998D01*
X27711778Y-60872830D01*
X27689759Y-60859556D01*
X27676739Y-60839974D01*
X27670457Y-60812883D01*
X27668653Y-60777082D01*
X27669066Y-60731371D01*
G36*
X27669146Y-59322794D02*
G01*
X27669518Y-59253386D01*
X27670385Y-59200997D01*
X27671946Y-59162847D01*
X27674403Y-59136159D01*
X27677957Y-59118153D01*
X27682810Y-59106049D01*
X27689161Y-59097069D01*
X27692084Y-59093818D01*
X27723142Y-59074043D01*
X27758828Y-59070482D01*
X27790510Y-59083491D01*
X27796913Y-59089506D01*
X27803121Y-59099235D01*
X27807910Y-59114901D01*
X27811514Y-59139408D01*
X27814164Y-59175661D01*
X27816095Y-59226565D01*
X27817539Y-59295026D01*
X27818418Y-59357617D01*
X27821467Y-59605334D01*
X27886378Y-59608719D01*
X27951289Y-59612105D01*
X27951289Y-59443958D01*
X27951919Y-59370959D01*
X27954553Y-59317517D01*
X27960309Y-59280628D01*
X27970304Y-59257288D01*
X27985656Y-59244494D01*
X28007482Y-59239242D01*
X28027738Y-59238445D01*
X28052592Y-59240923D01*
X28070906Y-59250277D01*
X28083637Y-59269383D01*
X28091741Y-59301118D01*
X28096176Y-59348359D01*
X28097899Y-59413983D01*
X28098045Y-59449801D01*
X28098045Y-59610978D01*
X28256089Y-59610978D01*
X28256089Y-59362622D01*
X28256202Y-59281213D01*
X28256712Y-59219342D01*
X28257870Y-59173968D01*
X28259930Y-59142054D01*
X28263146Y-59120559D01*
X28267772Y-59106443D01*
X28274059Y-59096668D01*
X28278667Y-59091689D01*
X28305560Y-59074610D01*
X28329467Y-59069111D01*
X28358667Y-59076963D01*
X28380267Y-59091689D01*
X28387066Y-59099546D01*
X28392346Y-59109688D01*
X28396298Y-59124844D01*
X28399113Y-59147741D01*
X28400982Y-59181109D01*
X28402098Y-59227675D01*
X28402651Y-59290167D01*
X28402833Y-59371314D01*
X28402845Y-59413422D01*
X28402765Y-59503598D01*
X28402398Y-59573924D01*
X28401552Y-59627129D01*
X28400036Y-59665940D01*
X28397659Y-59693087D01*
X28394229Y-59711298D01*
X28389554Y-59723300D01*
X28383444Y-59731822D01*
X28380267Y-59735156D01*
X28372670Y-59741755D01*
X28362870Y-59746927D01*
X28348239Y-59750846D01*
X28326152Y-59753684D01*
X28293982Y-59755615D01*
X28249103Y-59756812D01*
X28188889Y-59757448D01*
X28110713Y-59757697D01*
X28037923Y-59757734D01*
X27944707Y-59757700D01*
X27871431Y-59757465D01*
X27815458Y-59756830D01*
X27774151Y-59755594D01*
X27744872Y-59753556D01*
X27724984Y-59750517D01*
X27711850Y-59746277D01*
X27702832Y-59740635D01*
X27695293Y-59733391D01*
X27693612Y-59731606D01*
X27686172Y-59722945D01*
X27680409Y-59712882D01*
X27676112Y-59698625D01*
X27673064Y-59677383D01*
X27671051Y-59646364D01*
X27669860Y-59602777D01*
X27669275Y-59543831D01*
X27669083Y-59466734D01*
X27669067Y-59412001D01*
X27669146Y-59322794D01*
G37*
X27669146Y-59322794D02*
X27669518Y-59253386D01*
X27670385Y-59200997D01*
X27671946Y-59162847D01*
X27674403Y-59136159D01*
X27677957Y-59118153D01*
X27682810Y-59106049D01*
X27689161Y-59097069D01*
X27692084Y-59093818D01*
X27723142Y-59074043D01*
X27758828Y-59070482D01*
X27790510Y-59083491D01*
X27796913Y-59089506D01*
X27803121Y-59099235D01*
X27807910Y-59114901D01*
X27811514Y-59139408D01*
X27814164Y-59175661D01*
X27816095Y-59226565D01*
X27817539Y-59295026D01*
X27818418Y-59357617D01*
X27821467Y-59605334D01*
X27886378Y-59608719D01*
X27951289Y-59612105D01*
X27951289Y-59443958D01*
X27951919Y-59370959D01*
X27954553Y-59317517D01*
X27960309Y-59280628D01*
X27970304Y-59257288D01*
X27985656Y-59244494D01*
X28007482Y-59239242D01*
X28027738Y-59238445D01*
X28052592Y-59240923D01*
X28070906Y-59250277D01*
X28083637Y-59269383D01*
X28091741Y-59301118D01*
X28096176Y-59348359D01*
X28097899Y-59413983D01*
X28098045Y-59449801D01*
X28098045Y-59610978D01*
X28256089Y-59610978D01*
X28256089Y-59362622D01*
X28256202Y-59281213D01*
X28256712Y-59219342D01*
X28257870Y-59173968D01*
X28259930Y-59142054D01*
X28263146Y-59120559D01*
X28267772Y-59106443D01*
X28274059Y-59096668D01*
X28278667Y-59091689D01*
X28305560Y-59074610D01*
X28329467Y-59069111D01*
X28358667Y-59076963D01*
X28380267Y-59091689D01*
X28387066Y-59099546D01*
X28392346Y-59109688D01*
X28396298Y-59124844D01*
X28399113Y-59147741D01*
X28400982Y-59181109D01*
X28402098Y-59227675D01*
X28402651Y-59290167D01*
X28402833Y-59371314D01*
X28402845Y-59413422D01*
X28402765Y-59503598D01*
X28402398Y-59573924D01*
X28401552Y-59627129D01*
X28400036Y-59665940D01*
X28397659Y-59693087D01*
X28394229Y-59711298D01*
X28389554Y-59723300D01*
X28383444Y-59731822D01*
X28380267Y-59735156D01*
X28372670Y-59741755D01*
X28362870Y-59746927D01*
X28348239Y-59750846D01*
X28326152Y-59753684D01*
X28293982Y-59755615D01*
X28249103Y-59756812D01*
X28188889Y-59757448D01*
X28110713Y-59757697D01*
X28037923Y-59757734D01*
X27944707Y-59757700D01*
X27871431Y-59757465D01*
X27815458Y-59756830D01*
X27774151Y-59755594D01*
X27744872Y-59753556D01*
X27724984Y-59750517D01*
X27711850Y-59746277D01*
X27702832Y-59740635D01*
X27695293Y-59733391D01*
X27693612Y-59731606D01*
X27686172Y-59722945D01*
X27680409Y-59712882D01*
X27676112Y-59698625D01*
X27673064Y-59677383D01*
X27671051Y-59646364D01*
X27669860Y-59602777D01*
X27669275Y-59543831D01*
X27669083Y-59466734D01*
X27669067Y-59412001D01*
X27669146Y-59322794D01*
G36*
X27670351Y-58301703D02*
G01*
X27675581Y-58226888D01*
X27683750Y-58157306D01*
X27694550Y-58097002D01*
X27707673Y-58050020D01*
X27722813Y-58020406D01*
X27727269Y-58015860D01*
X27761850Y-58000054D01*
X27797351Y-58004847D01*
X27827725Y-58029364D01*
X27828596Y-58030534D01*
X27837954Y-58044954D01*
X27842876Y-58060008D01*
X27843473Y-58081005D01*
X27839861Y-58113257D01*
X27832154Y-58162073D01*
X27831505Y-58166000D01*
X27822569Y-58238739D01*
X27818161Y-58317217D01*
X27818119Y-58395927D01*
X27822279Y-58469361D01*
X27830479Y-58532011D01*
X27842557Y-58578370D01*
X27843771Y-58581416D01*
X27862615Y-58615048D01*
X27881685Y-58626864D01*
X27900439Y-58617614D01*
X27918337Y-58588047D01*
X27934837Y-58538911D01*
X27949396Y-58470957D01*
X27956406Y-58425645D01*
X27969889Y-58331456D01*
X27982214Y-58256544D01*
X27994449Y-58197717D01*
X28007661Y-58151785D01*
X28022917Y-58115555D01*
X28041285Y-58085838D01*
X28063831Y-58059442D01*
X28085971Y-58038230D01*
X28116819Y-58013065D01*
X28143345Y-58000681D01*
X28176026Y-57996808D01*
X28187995Y-57996667D01*
X28227712Y-57999576D01*
X28257259Y-58011202D01*
X28283486Y-58031323D01*
X28323576Y-58072216D01*
X28354149Y-58117817D01*
X28376203Y-58171513D01*
X28390735Y-58236692D01*
X28398741Y-58316744D01*
X28401218Y-58415057D01*
X28401177Y-58431289D01*
X28399818Y-58496849D01*
X28396730Y-58561866D01*
X28392356Y-58619252D01*
X28387140Y-58661922D01*
X28386541Y-58665372D01*
X28376491Y-58707796D01*
X28363796Y-58743780D01*
X28352190Y-58764150D01*
X28321572Y-58783107D01*
X28285918Y-58784427D01*
X28254144Y-58768085D01*
X28250551Y-58764429D01*
X28239876Y-58749315D01*
X28235276Y-58730415D01*
X28236059Y-58701162D01*
X28240127Y-58665651D01*
X28243762Y-58625970D01*
X28246828Y-58570345D01*
X28249053Y-58505406D01*
X28250164Y-58437785D01*
X28250237Y-58420000D01*
X28249964Y-58352128D01*
X28248646Y-58302454D01*
X28245827Y-58266610D01*
X28241050Y-58240224D01*
X28233857Y-58218926D01*
X28227867Y-58206126D01*
X28211233Y-58178000D01*
X28196168Y-58160068D01*
X28191897Y-58157447D01*
X28174263Y-58162976D01*
X28157192Y-58189260D01*
X28141458Y-58234478D01*
X28127838Y-58296808D01*
X28124804Y-58315171D01*
X28109738Y-58411090D01*
X28097146Y-58487641D01*
X28086111Y-58547780D01*
X28075720Y-58594460D01*
X28065056Y-58630637D01*
X28053205Y-58659265D01*
X28039251Y-58683298D01*
X28022281Y-58705692D01*
X28001378Y-58729402D01*
X27994049Y-58737380D01*
X27966699Y-58765353D01*
X27945029Y-58780160D01*
X27920232Y-58785952D01*
X27888983Y-58786889D01*
X27827705Y-58776575D01*
X27775640Y-58745752D01*
X27732958Y-58694595D01*
X27699825Y-58623283D01*
X27684964Y-58572400D01*
X27675366Y-58517100D01*
X27669936Y-58450853D01*
X27668367Y-58377706D01*
X27670351Y-58301703D01*
G37*
X27670351Y-58301703D02*
X27675581Y-58226888D01*
X27683750Y-58157306D01*
X27694550Y-58097002D01*
X27707673Y-58050020D01*
X27722813Y-58020406D01*
X27727269Y-58015860D01*
X27761850Y-58000054D01*
X27797351Y-58004847D01*
X27827725Y-58029364D01*
X27828596Y-58030534D01*
X27837954Y-58044954D01*
X27842876Y-58060008D01*
X27843473Y-58081005D01*
X27839861Y-58113257D01*
X27832154Y-58162073D01*
X27831505Y-58166000D01*
X27822569Y-58238739D01*
X27818161Y-58317217D01*
X27818119Y-58395927D01*
X27822279Y-58469361D01*
X27830479Y-58532011D01*
X27842557Y-58578370D01*
X27843771Y-58581416D01*
X27862615Y-58615048D01*
X27881685Y-58626864D01*
X27900439Y-58617614D01*
X27918337Y-58588047D01*
X27934837Y-58538911D01*
X27949396Y-58470957D01*
X27956406Y-58425645D01*
X27969889Y-58331456D01*
X27982214Y-58256544D01*
X27994449Y-58197717D01*
X28007661Y-58151785D01*
X28022917Y-58115555D01*
X28041285Y-58085838D01*
X28063831Y-58059442D01*
X28085971Y-58038230D01*
X28116819Y-58013065D01*
X28143345Y-58000681D01*
X28176026Y-57996808D01*
X28187995Y-57996667D01*
X28227712Y-57999576D01*
X28257259Y-58011202D01*
X28283486Y-58031323D01*
X28323576Y-58072216D01*
X28354149Y-58117817D01*
X28376203Y-58171513D01*
X28390735Y-58236692D01*
X28398741Y-58316744D01*
X28401218Y-58415057D01*
X28401177Y-58431289D01*
X28399818Y-58496849D01*
X28396730Y-58561866D01*
X28392356Y-58619252D01*
X28387140Y-58661922D01*
X28386541Y-58665372D01*
X28376491Y-58707796D01*
X28363796Y-58743780D01*
X28352190Y-58764150D01*
X28321572Y-58783107D01*
X28285918Y-58784427D01*
X28254144Y-58768085D01*
X28250551Y-58764429D01*
X28239876Y-58749315D01*
X28235276Y-58730415D01*
X28236059Y-58701162D01*
X28240127Y-58665651D01*
X28243762Y-58625970D01*
X28246828Y-58570345D01*
X28249053Y-58505406D01*
X28250164Y-58437785D01*
X28250237Y-58420000D01*
X28249964Y-58352128D01*
X28248646Y-58302454D01*
X28245827Y-58266610D01*
X28241050Y-58240224D01*
X28233857Y-58218926D01*
X28227867Y-58206126D01*
X28211233Y-58178000D01*
X28196168Y-58160068D01*
X28191897Y-58157447D01*
X28174263Y-58162976D01*
X28157192Y-58189260D01*
X28141458Y-58234478D01*
X28127838Y-58296808D01*
X28124804Y-58315171D01*
X28109738Y-58411090D01*
X28097146Y-58487641D01*
X28086111Y-58547780D01*
X28075720Y-58594460D01*
X28065056Y-58630637D01*
X28053205Y-58659265D01*
X28039251Y-58683298D01*
X28022281Y-58705692D01*
X28001378Y-58729402D01*
X27994049Y-58737380D01*
X27966699Y-58765353D01*
X27945029Y-58780160D01*
X27920232Y-58785952D01*
X27888983Y-58786889D01*
X27827705Y-58776575D01*
X27775640Y-58745752D01*
X27732958Y-58694595D01*
X27699825Y-58623283D01*
X27684964Y-58572400D01*
X27675366Y-58517100D01*
X27669936Y-58450853D01*
X27668367Y-58377706D01*
X27670351Y-58301703D01*
G36*
X27691645Y-57533822D02*
G01*
X27699218Y-57527242D01*
X27708987Y-57522079D01*
X27723571Y-57518164D01*
X27745585Y-57515324D01*
X27777648Y-57513387D01*
X27822375Y-57512183D01*
X27882385Y-57511539D01*
X27960294Y-57511284D01*
X28035956Y-57511245D01*
X28129802Y-57511314D01*
X28203689Y-57511638D01*
X28260232Y-57512386D01*
X28302049Y-57513732D01*
X28331757Y-57515846D01*
X28351973Y-57518900D01*
X28365314Y-57523066D01*
X28374398Y-57528516D01*
X28380267Y-57533822D01*
X28399947Y-57566826D01*
X28398181Y-57601991D01*
X28376717Y-57633455D01*
X28368337Y-57640684D01*
X28358614Y-57646334D01*
X28344861Y-57650599D01*
X28324389Y-57653673D01*
X28294512Y-57655752D01*
X28252541Y-57657030D01*
X28195789Y-57657701D01*
X28121567Y-57657959D01*
X28037537Y-57658000D01*
X27724485Y-57658000D01*
X27696776Y-57630291D01*
X27673463Y-57596137D01*
X27672623Y-57563006D01*
X27691645Y-57533822D01*
G37*
X27691645Y-57533822D02*
X27699218Y-57527242D01*
X27708987Y-57522079D01*
X27723571Y-57518164D01*
X27745585Y-57515324D01*
X27777648Y-57513387D01*
X27822375Y-57512183D01*
X27882385Y-57511539D01*
X27960294Y-57511284D01*
X28035956Y-57511245D01*
X28129802Y-57511314D01*
X28203689Y-57511638D01*
X28260232Y-57512386D01*
X28302049Y-57513732D01*
X28331757Y-57515846D01*
X28351973Y-57518900D01*
X28365314Y-57523066D01*
X28374398Y-57528516D01*
X28380267Y-57533822D01*
X28399947Y-57566826D01*
X28398181Y-57601991D01*
X28376717Y-57633455D01*
X28368337Y-57640684D01*
X28358614Y-57646334D01*
X28344861Y-57650599D01*
X28324389Y-57653673D01*
X28294512Y-57655752D01*
X28252541Y-57657030D01*
X28195789Y-57657701D01*
X28121567Y-57657959D01*
X28037537Y-57658000D01*
X27724485Y-57658000D01*
X27696776Y-57630291D01*
X27673463Y-57596137D01*
X27672623Y-57563006D01*
X27691645Y-57533822D01*
G36*
X27674599Y-56560081D02*
G01*
X27686095Y-56491565D01*
X27703967Y-56438943D01*
X27727499Y-56404708D01*
X27740924Y-56395379D01*
X27772148Y-56385893D01*
X27800395Y-56392277D01*
X27827182Y-56412430D01*
X27839713Y-56443745D01*
X27838696Y-56489183D01*
X27831906Y-56524326D01*
X27818971Y-56602419D01*
X27817742Y-56682226D01*
X27828241Y-56771555D01*
X27832690Y-56796229D01*
X27856108Y-56879291D01*
X27890945Y-56944273D01*
X27936604Y-56990461D01*
X27992494Y-57017145D01*
X28021388Y-57022663D01*
X28080012Y-57019051D01*
X28131879Y-56995729D01*
X28175978Y-56954824D01*
X28211299Y-56898459D01*
X28236829Y-56828760D01*
X28251559Y-56747852D01*
X28254478Y-56657860D01*
X28244575Y-56560910D01*
X28243641Y-56555436D01*
X28236459Y-56516875D01*
X28229521Y-56495494D01*
X28219227Y-56486227D01*
X28201976Y-56484006D01*
X28192841Y-56483956D01*
X28154489Y-56483956D01*
X28154489Y-56552431D01*
X28150347Y-56612900D01*
X28137147Y-56654165D01*
X28113730Y-56678175D01*
X28078936Y-56686877D01*
X28074394Y-56686983D01*
X28044654Y-56681892D01*
X28023419Y-56664433D01*
X28009366Y-56631939D01*
X28001173Y-56581743D01*
X27998161Y-56533123D01*
X27996433Y-56462456D01*
X27999070Y-56411198D01*
X28008800Y-56376239D01*
X28028353Y-56354470D01*
X28060456Y-56342780D01*
X28107838Y-56338060D01*
X28170071Y-56337200D01*
X28239535Y-56338609D01*
X28286786Y-56342848D01*
X28312012Y-56349936D01*
X28313988Y-56351311D01*
X28345508Y-56390228D01*
X28370470Y-56447286D01*
X28388340Y-56518869D01*
X28398586Y-56601358D01*
X28400673Y-56691139D01*
X28394068Y-56784592D01*
X28385956Y-56839556D01*
X28361554Y-56925766D01*
X28321662Y-57005892D01*
X28269887Y-57072977D01*
X28259539Y-57083173D01*
X28216035Y-57116302D01*
X28162118Y-57146194D01*
X28105592Y-57169357D01*
X28054259Y-57182298D01*
X28034544Y-57183858D01*
X27993419Y-57177218D01*
X27942252Y-57159568D01*
X27888394Y-57134297D01*
X27839195Y-57104789D01*
X27806334Y-57078719D01*
X27757452Y-57017765D01*
X27718545Y-56938969D01*
X27690494Y-56845157D01*
X27674179Y-56739150D01*
X27670192Y-56642000D01*
X27674599Y-56560081D01*
G37*
X27674599Y-56560081D02*
X27686095Y-56491565D01*
X27703967Y-56438943D01*
X27727499Y-56404708D01*
X27740924Y-56395379D01*
X27772148Y-56385893D01*
X27800395Y-56392277D01*
X27827182Y-56412430D01*
X27839713Y-56443745D01*
X27838696Y-56489183D01*
X27831906Y-56524326D01*
X27818971Y-56602419D01*
X27817742Y-56682226D01*
X27828241Y-56771555D01*
X27832690Y-56796229D01*
X27856108Y-56879291D01*
X27890945Y-56944273D01*
X27936604Y-56990461D01*
X27992494Y-57017145D01*
X28021388Y-57022663D01*
X28080012Y-57019051D01*
X28131879Y-56995729D01*
X28175978Y-56954824D01*
X28211299Y-56898459D01*
X28236829Y-56828760D01*
X28251559Y-56747852D01*
X28254478Y-56657860D01*
X28244575Y-56560910D01*
X28243641Y-56555436D01*
X28236459Y-56516875D01*
X28229521Y-56495494D01*
X28219227Y-56486227D01*
X28201976Y-56484006D01*
X28192841Y-56483956D01*
X28154489Y-56483956D01*
X28154489Y-56552431D01*
X28150347Y-56612900D01*
X28137147Y-56654165D01*
X28113730Y-56678175D01*
X28078936Y-56686877D01*
X28074394Y-56686983D01*
X28044654Y-56681892D01*
X28023419Y-56664433D01*
X28009366Y-56631939D01*
X28001173Y-56581743D01*
X27998161Y-56533123D01*
X27996433Y-56462456D01*
X27999070Y-56411198D01*
X28008800Y-56376239D01*
X28028353Y-56354470D01*
X28060456Y-56342780D01*
X28107838Y-56338060D01*
X28170071Y-56337200D01*
X28239535Y-56338609D01*
X28286786Y-56342848D01*
X28312012Y-56349936D01*
X28313988Y-56351311D01*
X28345508Y-56390228D01*
X28370470Y-56447286D01*
X28388340Y-56518869D01*
X28398586Y-56601358D01*
X28400673Y-56691139D01*
X28394068Y-56784592D01*
X28385956Y-56839556D01*
X28361554Y-56925766D01*
X28321662Y-57005892D01*
X28269887Y-57072977D01*
X28259539Y-57083173D01*
X28216035Y-57116302D01*
X28162118Y-57146194D01*
X28105592Y-57169357D01*
X28054259Y-57182298D01*
X28034544Y-57183858D01*
X27993419Y-57177218D01*
X27942252Y-57159568D01*
X27888394Y-57134297D01*
X27839195Y-57104789D01*
X27806334Y-57078719D01*
X27757452Y-57017765D01*
X27718545Y-56938969D01*
X27690494Y-56845157D01*
X27674179Y-56739150D01*
X27670192Y-56642000D01*
X27674599Y-56560081D01*
G36*
X27673448Y-55910114D02*
G01*
X27687273Y-55886548D01*
X27709881Y-55855735D01*
X27742338Y-55816078D01*
X27785708Y-55765980D01*
X27841058Y-55703843D01*
X27909451Y-55628072D01*
X27988084Y-55541334D01*
X28151878Y-55360711D01*
X27932029Y-55355067D01*
X27856351Y-55353029D01*
X27799994Y-55351063D01*
X27759706Y-55348734D01*
X27732235Y-55345606D01*
X27714329Y-55341245D01*
X27702737Y-55335216D01*
X27694208Y-55327084D01*
X27690623Y-55322772D01*
X27671670Y-55288241D01*
X27674441Y-55255383D01*
X27690633Y-55229318D01*
X27712199Y-55202667D01*
X28027151Y-55199352D01*
X28119779Y-55198435D01*
X28192544Y-55197968D01*
X28248161Y-55198113D01*
X28289342Y-55199032D01*
X28318803Y-55200887D01*
X28339255Y-55203839D01*
X28353413Y-55208050D01*
X28363991Y-55213682D01*
X28372474Y-55219927D01*
X28388207Y-55233439D01*
X28398636Y-55246883D01*
X28402639Y-55262124D01*
X28399094Y-55281026D01*
X28386879Y-55305455D01*
X28364871Y-55337273D01*
X28331949Y-55378348D01*
X28286991Y-55430542D01*
X28228875Y-55495722D01*
X28162099Y-55569556D01*
X27921458Y-55834845D01*
X28140589Y-55840489D01*
X28216128Y-55842531D01*
X28272354Y-55844502D01*
X28312524Y-55846839D01*
X28339896Y-55849981D01*
X28357728Y-55854364D01*
X28369279Y-55860424D01*
X28377807Y-55868600D01*
X28381282Y-55872784D01*
X28400372Y-55909765D01*
X28397493Y-55944708D01*
X28373100Y-55975136D01*
X28363286Y-55982097D01*
X28351826Y-55987523D01*
X28335968Y-55991603D01*
X28312963Y-55994529D01*
X28280062Y-55996492D01*
X28234516Y-55997683D01*
X28173573Y-55998292D01*
X28094486Y-55998511D01*
X28035956Y-55998534D01*
X27944407Y-55998460D01*
X27872687Y-55998113D01*
X27818045Y-55997301D01*
X27777732Y-55995833D01*
X27748998Y-55993519D01*
X27729093Y-55990167D01*
X27715268Y-55985588D01*
X27704772Y-55979589D01*
X27698811Y-55975136D01*
X27684691Y-55963850D01*
X27674029Y-55953301D01*
X27667892Y-55941893D01*
X27667343Y-55928030D01*
X27673448Y-55910114D01*
G37*
X27673448Y-55910114D02*
X27687273Y-55886548D01*
X27709881Y-55855735D01*
X27742338Y-55816078D01*
X27785708Y-55765980D01*
X27841058Y-55703843D01*
X27909451Y-55628072D01*
X27988084Y-55541334D01*
X28151878Y-55360711D01*
X27932029Y-55355067D01*
X27856351Y-55353029D01*
X27799994Y-55351063D01*
X27759706Y-55348734D01*
X27732235Y-55345606D01*
X27714329Y-55341245D01*
X27702737Y-55335216D01*
X27694208Y-55327084D01*
X27690623Y-55322772D01*
X27671670Y-55288241D01*
X27674441Y-55255383D01*
X27690633Y-55229318D01*
X27712199Y-55202667D01*
X28027151Y-55199352D01*
X28119779Y-55198435D01*
X28192544Y-55197968D01*
X28248161Y-55198113D01*
X28289342Y-55199032D01*
X28318803Y-55200887D01*
X28339255Y-55203839D01*
X28353413Y-55208050D01*
X28363991Y-55213682D01*
X28372474Y-55219927D01*
X28388207Y-55233439D01*
X28398636Y-55246883D01*
X28402639Y-55262124D01*
X28399094Y-55281026D01*
X28386879Y-55305455D01*
X28364871Y-55337273D01*
X28331949Y-55378348D01*
X28286991Y-55430542D01*
X28228875Y-55495722D01*
X28162099Y-55569556D01*
X27921458Y-55834845D01*
X28140589Y-55840489D01*
X28216128Y-55842531D01*
X28272354Y-55844502D01*
X28312524Y-55846839D01*
X28339896Y-55849981D01*
X28357728Y-55854364D01*
X28369279Y-55860424D01*
X28377807Y-55868600D01*
X28381282Y-55872784D01*
X28400372Y-55909765D01*
X28397493Y-55944708D01*
X28373100Y-55975136D01*
X28363286Y-55982097D01*
X28351826Y-55987523D01*
X28335968Y-55991603D01*
X28312963Y-55994529D01*
X28280062Y-55996492D01*
X28234516Y-55997683D01*
X28173573Y-55998292D01*
X28094486Y-55998511D01*
X28035956Y-55998534D01*
X27944407Y-55998460D01*
X27872687Y-55998113D01*
X27818045Y-55997301D01*
X27777732Y-55995833D01*
X27748998Y-55993519D01*
X27729093Y-55990167D01*
X27715268Y-55985588D01*
X27704772Y-55979589D01*
X27698811Y-55975136D01*
X27684691Y-55963850D01*
X27674029Y-55953301D01*
X27667892Y-55941893D01*
X27667343Y-55928030D01*
X27673448Y-55910114D01*
G36*
X27669260Y-54379657D02*
G01*
X27670174Y-54303299D01*
X27672311Y-54244783D01*
X27676175Y-54201745D01*
X27682267Y-54171817D01*
X27691090Y-54152632D01*
X27703146Y-54141824D01*
X27718939Y-54137027D01*
X27738970Y-54135873D01*
X27741335Y-54135867D01*
X27763992Y-54136869D01*
X27781503Y-54141604D01*
X27794574Y-54152667D01*
X27803913Y-54172652D01*
X27810227Y-54204154D01*
X27814222Y-54249768D01*
X27816606Y-54312087D01*
X27818086Y-54393707D01*
X27818414Y-54418723D01*
X27821467Y-54660800D01*
X27886378Y-54664186D01*
X27951289Y-54667571D01*
X27951289Y-54499424D01*
X27951531Y-54433734D01*
X27952556Y-54386828D01*
X27954811Y-54354917D01*
X27958742Y-54334209D01*
X27964798Y-54320916D01*
X27973424Y-54311245D01*
X27973493Y-54311183D01*
X28007112Y-54293644D01*
X28043448Y-54294278D01*
X28074423Y-54312686D01*
X28077607Y-54316329D01*
X28085812Y-54329259D01*
X28091521Y-54346976D01*
X28095162Y-54373430D01*
X28097167Y-54412568D01*
X28097964Y-54468338D01*
X28098045Y-54504006D01*
X28098045Y-54666445D01*
X28256089Y-54666445D01*
X28256089Y-54419839D01*
X28256231Y-54338420D01*
X28256814Y-54276590D01*
X28258068Y-54231363D01*
X28260227Y-54199752D01*
X28263523Y-54178769D01*
X28268189Y-54165427D01*
X28274457Y-54156739D01*
X28276733Y-54154550D01*
X28308280Y-54138386D01*
X28344168Y-54137203D01*
X28375285Y-54150464D01*
X28385271Y-54160957D01*
X28390769Y-54171871D01*
X28395022Y-54188783D01*
X28398180Y-54214367D01*
X28400392Y-54251299D01*
X28401806Y-54302254D01*
X28402572Y-54369906D01*
X28402838Y-54456931D01*
X28402845Y-54476606D01*
X28402787Y-54565089D01*
X28402467Y-54633773D01*
X28401667Y-54685436D01*
X28400167Y-54722855D01*
X28397749Y-54748810D01*
X28394194Y-54766078D01*
X28389282Y-54777438D01*
X28382795Y-54785668D01*
X28378138Y-54790183D01*
X28369889Y-54796979D01*
X28359669Y-54802288D01*
X28344800Y-54806294D01*
X28322602Y-54809179D01*
X28290393Y-54811126D01*
X28245496Y-54812319D01*
X28185228Y-54812939D01*
X28106911Y-54813171D01*
X28040994Y-54813200D01*
X27948628Y-54813129D01*
X27876117Y-54812792D01*
X27820737Y-54812002D01*
X27779765Y-54810574D01*
X27750478Y-54808321D01*
X27730153Y-54805057D01*
X27716066Y-54800596D01*
X27705495Y-54794752D01*
X27698811Y-54789803D01*
X27669067Y-54766406D01*
X27669067Y-54476226D01*
X27669260Y-54379657D01*
G37*
X27669260Y-54379657D02*
X27670174Y-54303299D01*
X27672311Y-54244783D01*
X27676175Y-54201745D01*
X27682267Y-54171817D01*
X27691090Y-54152632D01*
X27703146Y-54141824D01*
X27718939Y-54137027D01*
X27738970Y-54135873D01*
X27741335Y-54135867D01*
X27763992Y-54136869D01*
X27781503Y-54141604D01*
X27794574Y-54152667D01*
X27803913Y-54172652D01*
X27810227Y-54204154D01*
X27814222Y-54249768D01*
X27816606Y-54312087D01*
X27818086Y-54393707D01*
X27818414Y-54418723D01*
X27821467Y-54660800D01*
X27886378Y-54664186D01*
X27951289Y-54667571D01*
X27951289Y-54499424D01*
X27951531Y-54433734D01*
X27952556Y-54386828D01*
X27954811Y-54354917D01*
X27958742Y-54334209D01*
X27964798Y-54320916D01*
X27973424Y-54311245D01*
X27973493Y-54311183D01*
X28007112Y-54293644D01*
X28043448Y-54294278D01*
X28074423Y-54312686D01*
X28077607Y-54316329D01*
X28085812Y-54329259D01*
X28091521Y-54346976D01*
X28095162Y-54373430D01*
X28097167Y-54412568D01*
X28097964Y-54468338D01*
X28098045Y-54504006D01*
X28098045Y-54666445D01*
X28256089Y-54666445D01*
X28256089Y-54419839D01*
X28256231Y-54338420D01*
X28256814Y-54276590D01*
X28258068Y-54231363D01*
X28260227Y-54199752D01*
X28263523Y-54178769D01*
X28268189Y-54165427D01*
X28274457Y-54156739D01*
X28276733Y-54154550D01*
X28308280Y-54138386D01*
X28344168Y-54137203D01*
X28375285Y-54150464D01*
X28385271Y-54160957D01*
X28390769Y-54171871D01*
X28395022Y-54188783D01*
X28398180Y-54214367D01*
X28400392Y-54251299D01*
X28401806Y-54302254D01*
X28402572Y-54369906D01*
X28402838Y-54456931D01*
X28402845Y-54476606D01*
X28402787Y-54565089D01*
X28402467Y-54633773D01*
X28401667Y-54685436D01*
X28400167Y-54722855D01*
X28397749Y-54748810D01*
X28394194Y-54766078D01*
X28389282Y-54777438D01*
X28382795Y-54785668D01*
X28378138Y-54790183D01*
X28369889Y-54796979D01*
X28359669Y-54802288D01*
X28344800Y-54806294D01*
X28322602Y-54809179D01*
X28290393Y-54811126D01*
X28245496Y-54812319D01*
X28185228Y-54812939D01*
X28106911Y-54813171D01*
X28040994Y-54813200D01*
X27948628Y-54813129D01*
X27876117Y-54812792D01*
X27820737Y-54812002D01*
X27779765Y-54810574D01*
X27750478Y-54808321D01*
X27730153Y-54805057D01*
X27716066Y-54800596D01*
X27705495Y-54794752D01*
X27698811Y-54789803D01*
X27669067Y-54766406D01*
X27669067Y-54476226D01*
X27669260Y-54379657D01*
G36*
X27669275Y-53591691D02*
G01*
X27673636Y-53462712D01*
X27686861Y-53353009D01*
X27709741Y-53260774D01*
X27743070Y-53184198D01*
X27787638Y-53121473D01*
X27844236Y-53070788D01*
X27913658Y-53030337D01*
X27915351Y-53029541D01*
X27977483Y-53005399D01*
X28032509Y-52996797D01*
X28087887Y-53003769D01*
X28151073Y-53026346D01*
X28160689Y-53030628D01*
X28216966Y-53059828D01*
X28260451Y-53092644D01*
X28297417Y-53134998D01*
X28334135Y-53192810D01*
X28336052Y-53196169D01*
X28360227Y-53246496D01*
X28378282Y-53303379D01*
X28390839Y-53370473D01*
X28398522Y-53451435D01*
X28401953Y-53549918D01*
X28402251Y-53584714D01*
X28402845Y-53750406D01*
X28373100Y-53773803D01*
X28363319Y-53780743D01*
X28351897Y-53786158D01*
X28336095Y-53790235D01*
X28313175Y-53793163D01*
X28280396Y-53795133D01*
X28256089Y-53795775D01*
X28256089Y-53639156D01*
X28256089Y-53545274D01*
X28254483Y-53490336D01*
X28250255Y-53433940D01*
X28244292Y-53387655D01*
X28243790Y-53384861D01*
X28221736Y-53302652D01*
X28188600Y-53238886D01*
X28142847Y-53191548D01*
X28082939Y-53158618D01*
X28067061Y-53152892D01*
X28042333Y-53147279D01*
X28017902Y-53149709D01*
X27985400Y-53161533D01*
X27969434Y-53168660D01*
X27927006Y-53192000D01*
X27897240Y-53220120D01*
X27876511Y-53251060D01*
X27849537Y-53313034D01*
X27829998Y-53392349D01*
X27818746Y-53484747D01*
X27816270Y-53551667D01*
X27815822Y-53639156D01*
X28256089Y-53639156D01*
X28256089Y-53795775D01*
X28235021Y-53796332D01*
X28174311Y-53796950D01*
X28095526Y-53797175D01*
X28033920Y-53797200D01*
X27724485Y-53797200D01*
X27696776Y-53769491D01*
X27685544Y-53757194D01*
X27677853Y-53743897D01*
X27673040Y-53725328D01*
X27670446Y-53697214D01*
X27669410Y-53655283D01*
X27669270Y-53595263D01*
X27669275Y-53591691D01*
G37*
X27669275Y-53591691D02*
X27673636Y-53462712D01*
X27686861Y-53353009D01*
X27709741Y-53260774D01*
X27743070Y-53184198D01*
X27787638Y-53121473D01*
X27844236Y-53070788D01*
X27913658Y-53030337D01*
X27915351Y-53029541D01*
X27977483Y-53005399D01*
X28032509Y-52996797D01*
X28087887Y-53003769D01*
X28151073Y-53026346D01*
X28160689Y-53030628D01*
X28216966Y-53059828D01*
X28260451Y-53092644D01*
X28297417Y-53134998D01*
X28334135Y-53192810D01*
X28336052Y-53196169D01*
X28360227Y-53246496D01*
X28378282Y-53303379D01*
X28390839Y-53370473D01*
X28398522Y-53451435D01*
X28401953Y-53549918D01*
X28402251Y-53584714D01*
X28402845Y-53750406D01*
X28373100Y-53773803D01*
X28363319Y-53780743D01*
X28351897Y-53786158D01*
X28336095Y-53790235D01*
X28313175Y-53793163D01*
X28280396Y-53795133D01*
X28256089Y-53795775D01*
X28256089Y-53639156D01*
X28256089Y-53545274D01*
X28254483Y-53490336D01*
X28250255Y-53433940D01*
X28244292Y-53387655D01*
X28243790Y-53384861D01*
X28221736Y-53302652D01*
X28188600Y-53238886D01*
X28142847Y-53191548D01*
X28082939Y-53158618D01*
X28067061Y-53152892D01*
X28042333Y-53147279D01*
X28017902Y-53149709D01*
X27985400Y-53161533D01*
X27969434Y-53168660D01*
X27927006Y-53192000D01*
X27897240Y-53220120D01*
X27876511Y-53251060D01*
X27849537Y-53313034D01*
X27829998Y-53392349D01*
X27818746Y-53484747D01*
X27816270Y-53551667D01*
X27815822Y-53639156D01*
X28256089Y-53639156D01*
X28256089Y-53795775D01*
X28235021Y-53796332D01*
X28174311Y-53796950D01*
X28095526Y-53797175D01*
X28033920Y-53797200D01*
X27724485Y-53797200D01*
X27696776Y-53769491D01*
X27685544Y-53757194D01*
X27677853Y-53743897D01*
X27673040Y-53725328D01*
X27670446Y-53697214D01*
X27669410Y-53655283D01*
X27669270Y-53595263D01*
X27669275Y-53591691D01*
G36*
X27671034Y-50865335D02*
G01*
X27678035Y-50845745D01*
X27678377Y-50844990D01*
X27698678Y-50818387D01*
X27719561Y-50803730D01*
X27729352Y-50800862D01*
X27742361Y-50801004D01*
X27760895Y-50805039D01*
X27787257Y-50813854D01*
X27823752Y-50828331D01*
X27872687Y-50849355D01*
X27936365Y-50877812D01*
X28017093Y-50914585D01*
X28061216Y-50934825D01*
X28139985Y-50971375D01*
X28212423Y-51005685D01*
X28275880Y-51036448D01*
X28327708Y-51062352D01*
X28365259Y-51082090D01*
X28385884Y-51094350D01*
X28388733Y-51096776D01*
X28401302Y-51127817D01*
X28399619Y-51162879D01*
X28384332Y-51191000D01*
X28383089Y-51192146D01*
X28366154Y-51203332D01*
X28333170Y-51222096D01*
X28288380Y-51246125D01*
X28236032Y-51273103D01*
X28216742Y-51282799D01*
X28070150Y-51355986D01*
X28229393Y-51435760D01*
X28284415Y-51464233D01*
X28332132Y-51490650D01*
X28368893Y-51512852D01*
X28391044Y-51528681D01*
X28395741Y-51534046D01*
X28402102Y-51575743D01*
X28388733Y-51610151D01*
X28374446Y-51620272D01*
X28342692Y-51637786D01*
X28296597Y-51661265D01*
X28239285Y-51689280D01*
X28173880Y-51720401D01*
X28103507Y-51753201D01*
X28031291Y-51786250D01*
X27960355Y-51818119D01*
X27893825Y-51847381D01*
X27834826Y-51872605D01*
X27786481Y-51892364D01*
X27751915Y-51905228D01*
X27734253Y-51909769D01*
X27733613Y-51909723D01*
X27711388Y-51898674D01*
X27688753Y-51876590D01*
X27687768Y-51875290D01*
X27672425Y-51848147D01*
X27672574Y-51823042D01*
X27675466Y-51813632D01*
X27681718Y-51802166D01*
X27694014Y-51789990D01*
X27714908Y-51775643D01*
X27746949Y-51757664D01*
X27792688Y-51734593D01*
X27854677Y-51704970D01*
X27911898Y-51678255D01*
X27978226Y-51647520D01*
X28037874Y-51619979D01*
X28087725Y-51597062D01*
X28124664Y-51580202D01*
X28145573Y-51570827D01*
X28148845Y-51569460D01*
X28143497Y-51563311D01*
X28121109Y-51549178D01*
X28084946Y-51528943D01*
X28038277Y-51504485D01*
X28019022Y-51494752D01*
X27954004Y-51461783D01*
X27906654Y-51436357D01*
X27874219Y-51416388D01*
X27853946Y-51399790D01*
X27843082Y-51384476D01*
X27838875Y-51368360D01*
X27838400Y-51357857D01*
X27840042Y-51339330D01*
X27846831Y-51323096D01*
X27861566Y-51306965D01*
X27887044Y-51288749D01*
X27926061Y-51266261D01*
X27981414Y-51237311D01*
X28012903Y-51221338D01*
X28063087Y-51195430D01*
X28104704Y-51172833D01*
X28134242Y-51155542D01*
X28148189Y-51145550D01*
X28148770Y-51144191D01*
X28137793Y-51137739D01*
X28109290Y-51123292D01*
X28066244Y-51102297D01*
X28011638Y-51076203D01*
X27948454Y-51046454D01*
X27917071Y-51031820D01*
X27836078Y-50993750D01*
X27773756Y-50963095D01*
X27728071Y-50938263D01*
X27696989Y-50917663D01*
X27678478Y-50899702D01*
X27670504Y-50882790D01*
X27671034Y-50865335D01*
G37*
X27671034Y-50865335D02*
X27678035Y-50845745D01*
X27678377Y-50844990D01*
X27698678Y-50818387D01*
X27719561Y-50803730D01*
X27729352Y-50800862D01*
X27742361Y-50801004D01*
X27760895Y-50805039D01*
X27787257Y-50813854D01*
X27823752Y-50828331D01*
X27872687Y-50849355D01*
X27936365Y-50877812D01*
X28017093Y-50914585D01*
X28061216Y-50934825D01*
X28139985Y-50971375D01*
X28212423Y-51005685D01*
X28275880Y-51036448D01*
X28327708Y-51062352D01*
X28365259Y-51082090D01*
X28385884Y-51094350D01*
X28388733Y-51096776D01*
X28401302Y-51127817D01*
X28399619Y-51162879D01*
X28384332Y-51191000D01*
X28383089Y-51192146D01*
X28366154Y-51203332D01*
X28333170Y-51222096D01*
X28288380Y-51246125D01*
X28236032Y-51273103D01*
X28216742Y-51282799D01*
X28070150Y-51355986D01*
X28229393Y-51435760D01*
X28284415Y-51464233D01*
X28332132Y-51490650D01*
X28368893Y-51512852D01*
X28391044Y-51528681D01*
X28395741Y-51534046D01*
X28402102Y-51575743D01*
X28388733Y-51610151D01*
X28374446Y-51620272D01*
X28342692Y-51637786D01*
X28296597Y-51661265D01*
X28239285Y-51689280D01*
X28173880Y-51720401D01*
X28103507Y-51753201D01*
X28031291Y-51786250D01*
X27960355Y-51818119D01*
X27893825Y-51847381D01*
X27834826Y-51872605D01*
X27786481Y-51892364D01*
X27751915Y-51905228D01*
X27734253Y-51909769D01*
X27733613Y-51909723D01*
X27711388Y-51898674D01*
X27688753Y-51876590D01*
X27687768Y-51875290D01*
X27672425Y-51848147D01*
X27672574Y-51823042D01*
X27675466Y-51813632D01*
X27681718Y-51802166D01*
X27694014Y-51789990D01*
X27714908Y-51775643D01*
X27746949Y-51757664D01*
X27792688Y-51734593D01*
X27854677Y-51704970D01*
X27911898Y-51678255D01*
X27978226Y-51647520D01*
X28037874Y-51619979D01*
X28087725Y-51597062D01*
X28124664Y-51580202D01*
X28145573Y-51570827D01*
X28148845Y-51569460D01*
X28143497Y-51563311D01*
X28121109Y-51549178D01*
X28084946Y-51528943D01*
X28038277Y-51504485D01*
X28019022Y-51494752D01*
X27954004Y-51461783D01*
X27906654Y-51436357D01*
X27874219Y-51416388D01*
X27853946Y-51399790D01*
X27843082Y-51384476D01*
X27838875Y-51368360D01*
X27838400Y-51357857D01*
X27840042Y-51339330D01*
X27846831Y-51323096D01*
X27861566Y-51306965D01*
X27887044Y-51288749D01*
X27926061Y-51266261D01*
X27981414Y-51237311D01*
X28012903Y-51221338D01*
X28063087Y-51195430D01*
X28104704Y-51172833D01*
X28134242Y-51155542D01*
X28148189Y-51145550D01*
X28148770Y-51144191D01*
X28137793Y-51137739D01*
X28109290Y-51123292D01*
X28066244Y-51102297D01*
X28011638Y-51076203D01*
X27948454Y-51046454D01*
X27917071Y-51031820D01*
X27836078Y-50993750D01*
X27773756Y-50963095D01*
X27728071Y-50938263D01*
X27696989Y-50917663D01*
X27678478Y-50899702D01*
X27670504Y-50882790D01*
X27671034Y-50865335D01*
G36*
X27675877Y-50421386D02*
G01*
X27690647Y-50397673D01*
X27712227Y-50371022D01*
X28033773Y-50371022D01*
X28127830Y-50371107D01*
X28201932Y-50371471D01*
X28258704Y-50372276D01*
X28300768Y-50373687D01*
X28330748Y-50375867D01*
X28351267Y-50378979D01*
X28364949Y-50383186D01*
X28374416Y-50388652D01*
X28379082Y-50392528D01*
X28399575Y-50423966D01*
X28398739Y-50459767D01*
X28381264Y-50491127D01*
X28359684Y-50517778D01*
X27712227Y-50517778D01*
X27690647Y-50491127D01*
X27674949Y-50465406D01*
X27669067Y-50444400D01*
X27675877Y-50421386D01*
G37*
X27675877Y-50421386D02*
X27690647Y-50397673D01*
X27712227Y-50371022D01*
X28033773Y-50371022D01*
X28127830Y-50371107D01*
X28201932Y-50371471D01*
X28258704Y-50372276D01*
X28300768Y-50373687D01*
X28330748Y-50375867D01*
X28351267Y-50378979D01*
X28364949Y-50383186D01*
X28374416Y-50388652D01*
X28379082Y-50392528D01*
X28399575Y-50423966D01*
X28398739Y-50459767D01*
X28381264Y-50491127D01*
X28359684Y-50517778D01*
X27712227Y-50517778D01*
X27690647Y-50491127D01*
X27674949Y-50465406D01*
X27669067Y-50444400D01*
X27675877Y-50421386D01*
G36*
X27669163Y-49646935D02*
G01*
X27669542Y-49568228D01*
X27670333Y-49507137D01*
X27671670Y-49461183D01*
X27673683Y-49427886D01*
X27676506Y-49404764D01*
X27680269Y-49389338D01*
X27685105Y-49379129D01*
X27688822Y-49374187D01*
X27721358Y-49348543D01*
X27755138Y-49345441D01*
X27785826Y-49361289D01*
X27798089Y-49371652D01*
X27806450Y-49382804D01*
X27811657Y-49398965D01*
X27814457Y-49424358D01*
X27815596Y-49463202D01*
X27815821Y-49519720D01*
X27815822Y-49530820D01*
X27815822Y-49676756D01*
X28086756Y-49676756D01*
X28172154Y-49676852D01*
X28237864Y-49677289D01*
X28286774Y-49678288D01*
X28321773Y-49680072D01*
X28345749Y-49682863D01*
X28361593Y-49686883D01*
X28372191Y-49692355D01*
X28380267Y-49699334D01*
X28400112Y-49732266D01*
X28398548Y-49766646D01*
X28375906Y-49797824D01*
X28373100Y-49800114D01*
X28362492Y-49807571D01*
X28350081Y-49813253D01*
X28332850Y-49817399D01*
X28307784Y-49820250D01*
X28271867Y-49822046D01*
X28222083Y-49823028D01*
X28155417Y-49823436D01*
X28079589Y-49823511D01*
X27815822Y-49823511D01*
X27815822Y-49962873D01*
X27815418Y-50022678D01*
X27813840Y-50064082D01*
X27810547Y-50091252D01*
X27804992Y-50108354D01*
X27796631Y-50119557D01*
X27795178Y-50120917D01*
X27761939Y-50137275D01*
X27724362Y-50135828D01*
X27691645Y-50117022D01*
X27685298Y-50109750D01*
X27680266Y-50100373D01*
X27676396Y-50086391D01*
X27673537Y-50065304D01*
X27671535Y-50034611D01*
X27670239Y-49991811D01*
X27669498Y-49934405D01*
X27669158Y-49859890D01*
X27669068Y-49765767D01*
X27669067Y-49745740D01*
X27669163Y-49646935D01*
G37*
X27669163Y-49646935D02*
X27669542Y-49568228D01*
X27670333Y-49507137D01*
X27671670Y-49461183D01*
X27673683Y-49427886D01*
X27676506Y-49404764D01*
X27680269Y-49389338D01*
X27685105Y-49379129D01*
X27688822Y-49374187D01*
X27721358Y-49348543D01*
X27755138Y-49345441D01*
X27785826Y-49361289D01*
X27798089Y-49371652D01*
X27806450Y-49382804D01*
X27811657Y-49398965D01*
X27814457Y-49424358D01*
X27815596Y-49463202D01*
X27815821Y-49519720D01*
X27815822Y-49530820D01*
X27815822Y-49676756D01*
X28086756Y-49676756D01*
X28172154Y-49676852D01*
X28237864Y-49677289D01*
X28286774Y-49678288D01*
X28321773Y-49680072D01*
X28345749Y-49682863D01*
X28361593Y-49686883D01*
X28372191Y-49692355D01*
X28380267Y-49699334D01*
X28400112Y-49732266D01*
X28398548Y-49766646D01*
X28375906Y-49797824D01*
X28373100Y-49800114D01*
X28362492Y-49807571D01*
X28350081Y-49813253D01*
X28332850Y-49817399D01*
X28307784Y-49820250D01*
X28271867Y-49822046D01*
X28222083Y-49823028D01*
X28155417Y-49823436D01*
X28079589Y-49823511D01*
X27815822Y-49823511D01*
X27815822Y-49962873D01*
X27815418Y-50022678D01*
X27813840Y-50064082D01*
X27810547Y-50091252D01*
X27804992Y-50108354D01*
X27796631Y-50119557D01*
X27795178Y-50120917D01*
X27761939Y-50137275D01*
X27724362Y-50135828D01*
X27691645Y-50117022D01*
X27685298Y-50109750D01*
X27680266Y-50100373D01*
X27676396Y-50086391D01*
X27673537Y-50065304D01*
X27671535Y-50034611D01*
X27670239Y-49991811D01*
X27669498Y-49934405D01*
X27669158Y-49859890D01*
X27669068Y-49765767D01*
X27669067Y-49745740D01*
X27669163Y-49646935D01*
G36*
X27674533Y-48381177D02*
G01*
X27696776Y-48349798D01*
X27724485Y-48322089D01*
X28033920Y-48322089D01*
X28125799Y-48322162D01*
X28197840Y-48322505D01*
X28252780Y-48323308D01*
X28293360Y-48324759D01*
X28322317Y-48327048D01*
X28342391Y-48330364D01*
X28356321Y-48334895D01*
X28366845Y-48340831D01*
X28373100Y-48345486D01*
X28397673Y-48376217D01*
X28400341Y-48411504D01*
X28385271Y-48443755D01*
X28376374Y-48454412D01*
X28364557Y-48461536D01*
X28345526Y-48465833D01*
X28314992Y-48468009D01*
X28268662Y-48468772D01*
X28232871Y-48468845D01*
X28098045Y-48468845D01*
X28098045Y-48965556D01*
X28220700Y-48965556D01*
X28276787Y-48966069D01*
X28315333Y-48968124D01*
X28341361Y-48972492D01*
X28359897Y-48979944D01*
X28373100Y-48988953D01*
X28397604Y-49019856D01*
X28400506Y-49054804D01*
X28383089Y-49088262D01*
X28373959Y-49097396D01*
X28361855Y-49103848D01*
X28343001Y-49108103D01*
X28313620Y-49110648D01*
X28269937Y-49111971D01*
X28208175Y-49112557D01*
X28194000Y-49112625D01*
X28077631Y-49113109D01*
X27981727Y-49113359D01*
X27904177Y-49113277D01*
X27842869Y-49112769D01*
X27795690Y-49111738D01*
X27760530Y-49110087D01*
X27735276Y-49107721D01*
X27717817Y-49104543D01*
X27706041Y-49100456D01*
X27697835Y-49095366D01*
X27691645Y-49089734D01*
X27671844Y-49057872D01*
X27674533Y-49024643D01*
X27696776Y-48993265D01*
X27711126Y-48980567D01*
X27726978Y-48972474D01*
X27749554Y-48967958D01*
X27784078Y-48965994D01*
X27835776Y-48965556D01*
X27951289Y-48965556D01*
X27951289Y-48468845D01*
X27832756Y-48468845D01*
X27778148Y-48468338D01*
X27741275Y-48466302D01*
X27717307Y-48461965D01*
X27701415Y-48454553D01*
X27691645Y-48446267D01*
X27671844Y-48414406D01*
X27674533Y-48381177D01*
G37*
X27674533Y-48381177D02*
X27696776Y-48349798D01*
X27724485Y-48322089D01*
X28033920Y-48322089D01*
X28125799Y-48322162D01*
X28197840Y-48322505D01*
X28252780Y-48323308D01*
X28293360Y-48324759D01*
X28322317Y-48327048D01*
X28342391Y-48330364D01*
X28356321Y-48334895D01*
X28366845Y-48340831D01*
X28373100Y-48345486D01*
X28397673Y-48376217D01*
X28400341Y-48411504D01*
X28385271Y-48443755D01*
X28376374Y-48454412D01*
X28364557Y-48461536D01*
X28345526Y-48465833D01*
X28314992Y-48468009D01*
X28268662Y-48468772D01*
X28232871Y-48468845D01*
X28098045Y-48468845D01*
X28098045Y-48965556D01*
X28220700Y-48965556D01*
X28276787Y-48966069D01*
X28315333Y-48968124D01*
X28341361Y-48972492D01*
X28359897Y-48979944D01*
X28373100Y-48988953D01*
X28397604Y-49019856D01*
X28400506Y-49054804D01*
X28383089Y-49088262D01*
X28373959Y-49097396D01*
X28361855Y-49103848D01*
X28343001Y-49108103D01*
X28313620Y-49110648D01*
X28269937Y-49111971D01*
X28208175Y-49112557D01*
X28194000Y-49112625D01*
X28077631Y-49113109D01*
X27981727Y-49113359D01*
X27904177Y-49113277D01*
X27842869Y-49112769D01*
X27795690Y-49111738D01*
X27760530Y-49110087D01*
X27735276Y-49107721D01*
X27717817Y-49104543D01*
X27706041Y-49100456D01*
X27697835Y-49095366D01*
X27691645Y-49089734D01*
X27671844Y-49057872D01*
X27674533Y-49024643D01*
X27696776Y-48993265D01*
X27711126Y-48980567D01*
X27726978Y-48972474D01*
X27749554Y-48967958D01*
X27784078Y-48965994D01*
X27835776Y-48965556D01*
X27951289Y-48965556D01*
X27951289Y-48468845D01*
X27832756Y-48468845D01*
X27778148Y-48468338D01*
X27741275Y-48466302D01*
X27717307Y-48461965D01*
X27701415Y-48454553D01*
X27691645Y-48446267D01*
X27671844Y-48414406D01*
X27674533Y-48381177D01*
D13*
%TO.C,J7*%
X9580000Y-85330000D02*
X9580000Y-84000000D01*
X10910000Y-85330000D02*
X9580000Y-85330000D01*
X12180000Y-85330000D02*
X12180000Y-82670000D01*
X12180000Y-82670000D02*
X30020000Y-82670000D01*
X12180000Y-85330000D02*
X30020000Y-85330000D01*
X30020000Y-85330000D02*
X30020000Y-82670000D01*
%TO.C,J4*%
X27020000Y-31330000D02*
X27020000Y-28670000D01*
X9180000Y-31330000D02*
X27020000Y-31330000D01*
X9180000Y-28670000D02*
X27020000Y-28670000D01*
X9180000Y-31330000D02*
X9180000Y-28670000D01*
X7910000Y-31330000D02*
X6580000Y-31330000D01*
X6580000Y-31330000D02*
X6580000Y-30000000D01*
%TO.C,C13*%
X3275000Y-38361252D02*
X3275000Y-37838748D01*
X1805000Y-38361252D02*
X1805000Y-37838748D01*
%TO.C,C17*%
X6088748Y-33555000D02*
X6611252Y-33555000D01*
X6088748Y-35025000D02*
X6611252Y-35025000D01*
%TO.C,C18*%
X11691252Y-43080000D02*
X11168748Y-43080000D01*
X11691252Y-44550000D02*
X11168748Y-44550000D01*
%TO.C,C19*%
X22325000Y-34318752D02*
X22325000Y-33796248D01*
X20855000Y-34318752D02*
X20855000Y-33796248D01*
%TO.C,C20*%
X20855000Y-42171252D02*
X20855000Y-41648748D01*
X22325000Y-42171252D02*
X22325000Y-41648748D01*
%TO.C,C22*%
X1805000Y-49268748D02*
X1805000Y-49791252D01*
X3275000Y-49268748D02*
X3275000Y-49791252D01*
%TO.C,C23*%
X20058748Y-72925000D02*
X20581252Y-72925000D01*
X20058748Y-74395000D02*
X20581252Y-74395000D01*
%TO.C,C25*%
X10895000Y-89908748D02*
X10895000Y-90431252D01*
X9425000Y-89908748D02*
X9425000Y-90431252D01*
%TO.C,C26*%
X13061252Y-94665000D02*
X12538748Y-94665000D01*
X13061252Y-96135000D02*
X12538748Y-96135000D01*
%TO.C,C28*%
X13501248Y-91265000D02*
X14023752Y-91265000D01*
X13501248Y-92735000D02*
X14023752Y-92735000D01*
%TO.C,C33*%
X4818748Y-78005000D02*
X5341252Y-78005000D01*
X4818748Y-79475000D02*
X5341252Y-79475000D01*
%TO.C,C37*%
X5261252Y-73425000D02*
X4738748Y-73425000D01*
X5261252Y-74895000D02*
X4738748Y-74895000D01*
%TO.C,D4*%
X7350000Y-37120000D02*
X5350000Y-37120000D01*
X5350000Y-37120000D02*
X5350000Y-41020000D01*
X7350000Y-37120000D02*
X7350000Y-41020000D01*
%TO.C,D5*%
X3540000Y-30770000D02*
X3540000Y-34670000D01*
X1540000Y-30770000D02*
X1540000Y-34670000D01*
X3540000Y-30770000D02*
X1540000Y-30770000D01*
%TO.C,D6*%
X10525000Y-37120000D02*
X10525000Y-41020000D01*
X8525000Y-37120000D02*
X8525000Y-41020000D01*
X10525000Y-37120000D02*
X8525000Y-37120000D01*
%TO.C,D9*%
X27650000Y-81010000D02*
X27650000Y-79010000D01*
X27650000Y-79010000D02*
X23750000Y-79010000D01*
X27650000Y-81010000D02*
X23750000Y-81010000D01*
%TO.C,Q3*%
X18725000Y-33530000D02*
X17795000Y-33530000D01*
X15565000Y-33530000D02*
X16495000Y-33530000D01*
X15565000Y-33530000D02*
X15565000Y-35690000D01*
X18725000Y-33530000D02*
X18725000Y-34990000D01*
%TO.C,Q4*%
X11140000Y-77160000D02*
X12600000Y-77160000D01*
X11140000Y-80320000D02*
X13300000Y-80320000D01*
X11140000Y-80320000D02*
X11140000Y-79390000D01*
X11140000Y-77160000D02*
X11140000Y-78090000D01*
%TO.C,U3*%
X6350000Y-26025000D02*
X9800000Y-26025000D01*
X6350000Y-26025000D02*
X4400000Y-26025000D01*
X6350000Y-17155000D02*
X8300000Y-17155000D01*
X6350000Y-17155000D02*
X4400000Y-17155000D01*
%TO.C,R4*%
X13060000Y-22132936D02*
X13060000Y-23587064D01*
X14880000Y-22132936D02*
X14880000Y-23587064D01*
%TO.C,R6*%
X17505000Y-23587064D02*
X17505000Y-22132936D01*
X19325000Y-23587064D02*
X19325000Y-22132936D01*
%TO.C,R10*%
X3267064Y-41000000D02*
X1812936Y-41000000D01*
X3267064Y-42820000D02*
X1812936Y-42820000D01*
%TO.C,R12*%
X8530000Y-45177064D02*
X8530000Y-43722936D01*
X6710000Y-45177064D02*
X6710000Y-43722936D01*
%TO.C,R14*%
X11790000Y-34562936D02*
X11790000Y-36017064D01*
X13610000Y-34562936D02*
X13610000Y-36017064D01*
%TO.C,R18*%
X24672936Y-32745000D02*
X26127064Y-32745000D01*
X24672936Y-34565000D02*
X26127064Y-34565000D01*
%TO.C,R19*%
X19592936Y-39010000D02*
X21047064Y-39010000D01*
X19592936Y-37190000D02*
X21047064Y-37190000D01*
%TO.C,R21*%
X10702936Y-52430000D02*
X12157064Y-52430000D01*
X10702936Y-54250000D02*
X12157064Y-54250000D01*
%TO.C,R22*%
X5622936Y-56240000D02*
X7077064Y-56240000D01*
X5622936Y-58060000D02*
X7077064Y-58060000D01*
%TO.C,R23*%
X5440000Y-48802936D02*
X5440000Y-50257064D01*
X7260000Y-48802936D02*
X7260000Y-50257064D01*
%TO.C,R24*%
X17237064Y-49170000D02*
X15782936Y-49170000D01*
X17237064Y-47350000D02*
X15782936Y-47350000D01*
%TO.C,R25*%
X5807064Y-14880000D02*
X4352936Y-14880000D01*
X5807064Y-13060000D02*
X4352936Y-13060000D01*
%TO.C,R28*%
X11155000Y-15967064D02*
X11155000Y-14512936D01*
X12975000Y-15967064D02*
X12975000Y-14512936D01*
%TO.C,R31*%
X17420000Y-79467064D02*
X17420000Y-78012936D01*
X15600000Y-79467064D02*
X15600000Y-78012936D01*
%TO.C,R33*%
X19777064Y-91800000D02*
X18322936Y-91800000D01*
X19777064Y-93620000D02*
X18322936Y-93620000D01*
%TO.C,R34*%
X8530000Y-93252936D02*
X8530000Y-94707064D01*
X6710000Y-93252936D02*
X6710000Y-94707064D01*
%TO.C,R36*%
X23587064Y-94340000D02*
X22132936Y-94340000D01*
X23587064Y-96160000D02*
X22132936Y-96160000D01*
%TO.C,R40*%
X14697064Y-88540000D02*
X13242936Y-88540000D01*
X14697064Y-86720000D02*
X13242936Y-86720000D01*
%TO.C,R43*%
X24272936Y-87490000D02*
X25727064Y-87490000D01*
X24272936Y-89310000D02*
X25727064Y-89310000D01*
%TO.C,R44*%
X16602064Y-74020000D02*
X15147936Y-74020000D01*
X16602064Y-75840000D02*
X15147936Y-75840000D01*
%TO.C,R48*%
X7260000Y-86027064D02*
X7260000Y-84572936D01*
X5440000Y-86027064D02*
X5440000Y-84572936D01*
%TO.C,R51*%
X2790000Y-84672936D02*
X2790000Y-86127064D01*
X4610000Y-84672936D02*
X4610000Y-86127064D01*
%TO.C,R55*%
X5627064Y-68220000D02*
X4172936Y-68220000D01*
X5627064Y-66400000D02*
X4172936Y-66400000D01*
%TO.C,R58*%
X9800000Y-69037064D02*
X9800000Y-67582936D01*
X7980000Y-69037064D02*
X7980000Y-67582936D01*
%TO.C,J7*%
D11*
X8032380Y-84333333D02*
X8746666Y-84333333D01*
X8889523Y-84380952D01*
X8984761Y-84476190D01*
X9032380Y-84619047D01*
X9032380Y-84714285D01*
X8032380Y-83952380D02*
X8032380Y-83285714D01*
X9032380Y-83714285D01*
%TO.C,J4*%
X5032380Y-30333333D02*
X5746666Y-30333333D01*
X5889523Y-30380952D01*
X5984761Y-30476190D01*
X6032380Y-30619047D01*
X6032380Y-30714285D01*
X5365714Y-29428571D02*
X6032380Y-29428571D01*
X4984761Y-29666666D02*
X5699047Y-29904761D01*
X5699047Y-29285714D01*
%TO.C,C13*%
X4390000Y-38250000D02*
X4423333Y-38283333D01*
X4456666Y-38383333D01*
X4456666Y-38450000D01*
X4423333Y-38550000D01*
X4356666Y-38616666D01*
X4290000Y-38650000D01*
X4156666Y-38683333D01*
X4056666Y-38683333D01*
X3923333Y-38650000D01*
X3856666Y-38616666D01*
X3790000Y-38550000D01*
X3756666Y-38450000D01*
X3756666Y-38383333D01*
X3790000Y-38283333D01*
X3823333Y-38250000D01*
X4456666Y-37583333D02*
X4456666Y-37983333D01*
X4456666Y-37783333D02*
X3756666Y-37783333D01*
X3856666Y-37850000D01*
X3923333Y-37916666D01*
X3956666Y-37983333D01*
X3756666Y-37350000D02*
X3756666Y-36916666D01*
X4023333Y-37150000D01*
X4023333Y-37050000D01*
X4056666Y-36983333D01*
X4090000Y-36950000D01*
X4156666Y-36916666D01*
X4323333Y-36916666D01*
X4390000Y-36950000D01*
X4423333Y-36983333D01*
X4456666Y-37050000D01*
X4456666Y-37250000D01*
X4423333Y-37316666D01*
X4390000Y-37350000D01*
%TO.C,C17*%
X5900000Y-33270000D02*
X5866666Y-33303333D01*
X5766666Y-33336666D01*
X5700000Y-33336666D01*
X5600000Y-33303333D01*
X5533333Y-33236666D01*
X5500000Y-33170000D01*
X5466666Y-33036666D01*
X5466666Y-32936666D01*
X5500000Y-32803333D01*
X5533333Y-32736666D01*
X5600000Y-32670000D01*
X5700000Y-32636666D01*
X5766666Y-32636666D01*
X5866666Y-32670000D01*
X5900000Y-32703333D01*
X6566666Y-33336666D02*
X6166666Y-33336666D01*
X6366666Y-33336666D02*
X6366666Y-32636666D01*
X6300000Y-32736666D01*
X6233333Y-32803333D01*
X6166666Y-32836666D01*
X6800000Y-32636666D02*
X7266666Y-32636666D01*
X6966666Y-33336666D01*
%TO.C,C18*%
X10687142Y-42472142D02*
X10639523Y-42519761D01*
X10496666Y-42567380D01*
X10401428Y-42567380D01*
X10258571Y-42519761D01*
X10163333Y-42424523D01*
X10115714Y-42329285D01*
X10068095Y-42138809D01*
X10068095Y-41995952D01*
X10115714Y-41805476D01*
X10163333Y-41710238D01*
X10258571Y-41615000D01*
X10401428Y-41567380D01*
X10496666Y-41567380D01*
X10639523Y-41615000D01*
X10687142Y-41662619D01*
X11639523Y-42567380D02*
X11068095Y-42567380D01*
X11353809Y-42567380D02*
X11353809Y-41567380D01*
X11258571Y-41710238D01*
X11163333Y-41805476D01*
X11068095Y-41853095D01*
X12210952Y-41995952D02*
X12115714Y-41948333D01*
X12068095Y-41900714D01*
X12020476Y-41805476D01*
X12020476Y-41757857D01*
X12068095Y-41662619D01*
X12115714Y-41615000D01*
X12210952Y-41567380D01*
X12401428Y-41567380D01*
X12496666Y-41615000D01*
X12544285Y-41662619D01*
X12591904Y-41757857D01*
X12591904Y-41805476D01*
X12544285Y-41900714D01*
X12496666Y-41948333D01*
X12401428Y-41995952D01*
X12210952Y-41995952D01*
X12115714Y-42043571D01*
X12068095Y-42091190D01*
X12020476Y-42186428D01*
X12020476Y-42376904D01*
X12068095Y-42472142D01*
X12115714Y-42519761D01*
X12210952Y-42567380D01*
X12401428Y-42567380D01*
X12496666Y-42519761D01*
X12544285Y-42472142D01*
X12591904Y-42376904D01*
X12591904Y-42186428D01*
X12544285Y-42091190D01*
X12496666Y-42043571D01*
X12401428Y-41995952D01*
%TO.C,C19*%
X19235000Y-32635000D02*
X19201666Y-32668333D01*
X19101666Y-32701666D01*
X19035000Y-32701666D01*
X18935000Y-32668333D01*
X18868333Y-32601666D01*
X18835000Y-32535000D01*
X18801666Y-32401666D01*
X18801666Y-32301666D01*
X18835000Y-32168333D01*
X18868333Y-32101666D01*
X18935000Y-32035000D01*
X19035000Y-32001666D01*
X19101666Y-32001666D01*
X19201666Y-32035000D01*
X19235000Y-32068333D01*
X19901666Y-32701666D02*
X19501666Y-32701666D01*
X19701666Y-32701666D02*
X19701666Y-32001666D01*
X19635000Y-32101666D01*
X19568333Y-32168333D01*
X19501666Y-32201666D01*
X20235000Y-32701666D02*
X20368333Y-32701666D01*
X20435000Y-32668333D01*
X20468333Y-32635000D01*
X20535000Y-32535000D01*
X20568333Y-32401666D01*
X20568333Y-32135000D01*
X20535000Y-32068333D01*
X20501666Y-32035000D01*
X20435000Y-32001666D01*
X20301666Y-32001666D01*
X20235000Y-32035000D01*
X20201666Y-32068333D01*
X20168333Y-32135000D01*
X20168333Y-32301666D01*
X20201666Y-32368333D01*
X20235000Y-32401666D01*
X20301666Y-32435000D01*
X20435000Y-32435000D01*
X20501666Y-32401666D01*
X20535000Y-32368333D01*
X20568333Y-32301666D01*
%TO.C,C20*%
X23947142Y-42552857D02*
X23994761Y-42600476D01*
X24042380Y-42743333D01*
X24042380Y-42838571D01*
X23994761Y-42981428D01*
X23899523Y-43076666D01*
X23804285Y-43124285D01*
X23613809Y-43171904D01*
X23470952Y-43171904D01*
X23280476Y-43124285D01*
X23185238Y-43076666D01*
X23090000Y-42981428D01*
X23042380Y-42838571D01*
X23042380Y-42743333D01*
X23090000Y-42600476D01*
X23137619Y-42552857D01*
X23137619Y-42171904D02*
X23090000Y-42124285D01*
X23042380Y-42029047D01*
X23042380Y-41790952D01*
X23090000Y-41695714D01*
X23137619Y-41648095D01*
X23232857Y-41600476D01*
X23328095Y-41600476D01*
X23470952Y-41648095D01*
X24042380Y-42219523D01*
X24042380Y-41600476D01*
X23042380Y-40981428D02*
X23042380Y-40886190D01*
X23090000Y-40790952D01*
X23137619Y-40743333D01*
X23232857Y-40695714D01*
X23423333Y-40648095D01*
X23661428Y-40648095D01*
X23851904Y-40695714D01*
X23947142Y-40743333D01*
X23994761Y-40790952D01*
X24042380Y-40886190D01*
X24042380Y-40981428D01*
X23994761Y-41076666D01*
X23947142Y-41124285D01*
X23851904Y-41171904D01*
X23661428Y-41219523D01*
X23423333Y-41219523D01*
X23232857Y-41171904D01*
X23137619Y-41124285D01*
X23090000Y-41076666D01*
X23042380Y-40981428D01*
%TO.C,C22*%
X4577142Y-50172857D02*
X4624761Y-50220476D01*
X4672380Y-50363333D01*
X4672380Y-50458571D01*
X4624761Y-50601428D01*
X4529523Y-50696666D01*
X4434285Y-50744285D01*
X4243809Y-50791904D01*
X4100952Y-50791904D01*
X3910476Y-50744285D01*
X3815238Y-50696666D01*
X3720000Y-50601428D01*
X3672380Y-50458571D01*
X3672380Y-50363333D01*
X3720000Y-50220476D01*
X3767619Y-50172857D01*
X3767619Y-49791904D02*
X3720000Y-49744285D01*
X3672380Y-49649047D01*
X3672380Y-49410952D01*
X3720000Y-49315714D01*
X3767619Y-49268095D01*
X3862857Y-49220476D01*
X3958095Y-49220476D01*
X4100952Y-49268095D01*
X4672380Y-49839523D01*
X4672380Y-49220476D01*
X3767619Y-48839523D02*
X3720000Y-48791904D01*
X3672380Y-48696666D01*
X3672380Y-48458571D01*
X3720000Y-48363333D01*
X3767619Y-48315714D01*
X3862857Y-48268095D01*
X3958095Y-48268095D01*
X4100952Y-48315714D01*
X4672380Y-48887142D01*
X4672380Y-48268095D01*
%TO.C,C23*%
X19677142Y-72017142D02*
X19629523Y-72064761D01*
X19486666Y-72112380D01*
X19391428Y-72112380D01*
X19248571Y-72064761D01*
X19153333Y-71969523D01*
X19105714Y-71874285D01*
X19058095Y-71683809D01*
X19058095Y-71540952D01*
X19105714Y-71350476D01*
X19153333Y-71255238D01*
X19248571Y-71160000D01*
X19391428Y-71112380D01*
X19486666Y-71112380D01*
X19629523Y-71160000D01*
X19677142Y-71207619D01*
X20058095Y-71207619D02*
X20105714Y-71160000D01*
X20200952Y-71112380D01*
X20439047Y-71112380D01*
X20534285Y-71160000D01*
X20581904Y-71207619D01*
X20629523Y-71302857D01*
X20629523Y-71398095D01*
X20581904Y-71540952D01*
X20010476Y-72112380D01*
X20629523Y-72112380D01*
X20962857Y-71112380D02*
X21581904Y-71112380D01*
X21248571Y-71493333D01*
X21391428Y-71493333D01*
X21486666Y-71540952D01*
X21534285Y-71588571D01*
X21581904Y-71683809D01*
X21581904Y-71921904D01*
X21534285Y-72017142D01*
X21486666Y-72064761D01*
X21391428Y-72112380D01*
X21105714Y-72112380D01*
X21010476Y-72064761D01*
X20962857Y-72017142D01*
%TO.C,C25*%
X8717142Y-90612857D02*
X8764761Y-90660476D01*
X8812380Y-90803333D01*
X8812380Y-90898571D01*
X8764761Y-91041428D01*
X8669523Y-91136666D01*
X8574285Y-91184285D01*
X8383809Y-91231904D01*
X8240952Y-91231904D01*
X8050476Y-91184285D01*
X7955238Y-91136666D01*
X7860000Y-91041428D01*
X7812380Y-90898571D01*
X7812380Y-90803333D01*
X7860000Y-90660476D01*
X7907619Y-90612857D01*
X7907619Y-90231904D02*
X7860000Y-90184285D01*
X7812380Y-90089047D01*
X7812380Y-89850952D01*
X7860000Y-89755714D01*
X7907619Y-89708095D01*
X8002857Y-89660476D01*
X8098095Y-89660476D01*
X8240952Y-89708095D01*
X8812380Y-90279523D01*
X8812380Y-89660476D01*
X7812380Y-88755714D02*
X7812380Y-89231904D01*
X8288571Y-89279523D01*
X8240952Y-89231904D01*
X8193333Y-89136666D01*
X8193333Y-88898571D01*
X8240952Y-88803333D01*
X8288571Y-88755714D01*
X8383809Y-88708095D01*
X8621904Y-88708095D01*
X8717142Y-88755714D01*
X8764761Y-88803333D01*
X8812380Y-88898571D01*
X8812380Y-89136666D01*
X8764761Y-89231904D01*
X8717142Y-89279523D01*
%TO.C,C26*%
X12157142Y-97757142D02*
X12109523Y-97804761D01*
X11966666Y-97852380D01*
X11871428Y-97852380D01*
X11728571Y-97804761D01*
X11633333Y-97709523D01*
X11585714Y-97614285D01*
X11538095Y-97423809D01*
X11538095Y-97280952D01*
X11585714Y-97090476D01*
X11633333Y-96995238D01*
X11728571Y-96900000D01*
X11871428Y-96852380D01*
X11966666Y-96852380D01*
X12109523Y-96900000D01*
X12157142Y-96947619D01*
X12538095Y-96947619D02*
X12585714Y-96900000D01*
X12680952Y-96852380D01*
X12919047Y-96852380D01*
X13014285Y-96900000D01*
X13061904Y-96947619D01*
X13109523Y-97042857D01*
X13109523Y-97138095D01*
X13061904Y-97280952D01*
X12490476Y-97852380D01*
X13109523Y-97852380D01*
X13966666Y-96852380D02*
X13776190Y-96852380D01*
X13680952Y-96900000D01*
X13633333Y-96947619D01*
X13538095Y-97090476D01*
X13490476Y-97280952D01*
X13490476Y-97661904D01*
X13538095Y-97757142D01*
X13585714Y-97804761D01*
X13680952Y-97852380D01*
X13871428Y-97852380D01*
X13966666Y-97804761D01*
X14014285Y-97757142D01*
X14061904Y-97661904D01*
X14061904Y-97423809D01*
X14014285Y-97328571D01*
X13966666Y-97280952D01*
X13871428Y-97233333D01*
X13680952Y-97233333D01*
X13585714Y-97280952D01*
X13538095Y-97328571D01*
X13490476Y-97423809D01*
%TO.C,C28*%
X13119642Y-90677142D02*
X13072023Y-90724761D01*
X12929166Y-90772380D01*
X12833928Y-90772380D01*
X12691071Y-90724761D01*
X12595833Y-90629523D01*
X12548214Y-90534285D01*
X12500595Y-90343809D01*
X12500595Y-90200952D01*
X12548214Y-90010476D01*
X12595833Y-89915238D01*
X12691071Y-89820000D01*
X12833928Y-89772380D01*
X12929166Y-89772380D01*
X13072023Y-89820000D01*
X13119642Y-89867619D01*
X13500595Y-89867619D02*
X13548214Y-89820000D01*
X13643452Y-89772380D01*
X13881547Y-89772380D01*
X13976785Y-89820000D01*
X14024404Y-89867619D01*
X14072023Y-89962857D01*
X14072023Y-90058095D01*
X14024404Y-90200952D01*
X13452976Y-90772380D01*
X14072023Y-90772380D01*
X14643452Y-90200952D02*
X14548214Y-90153333D01*
X14500595Y-90105714D01*
X14452976Y-90010476D01*
X14452976Y-89962857D01*
X14500595Y-89867619D01*
X14548214Y-89820000D01*
X14643452Y-89772380D01*
X14833928Y-89772380D01*
X14929166Y-89820000D01*
X14976785Y-89867619D01*
X15024404Y-89962857D01*
X15024404Y-90010476D01*
X14976785Y-90105714D01*
X14929166Y-90153333D01*
X14833928Y-90200952D01*
X14643452Y-90200952D01*
X14548214Y-90248571D01*
X14500595Y-90296190D01*
X14452976Y-90391428D01*
X14452976Y-90581904D01*
X14500595Y-90677142D01*
X14548214Y-90724761D01*
X14643452Y-90772380D01*
X14833928Y-90772380D01*
X14929166Y-90724761D01*
X14976785Y-90677142D01*
X15024404Y-90581904D01*
X15024404Y-90391428D01*
X14976785Y-90296190D01*
X14929166Y-90248571D01*
X14833928Y-90200952D01*
%TO.C,C33*%
X4437142Y-80897142D02*
X4389523Y-80944761D01*
X4246666Y-80992380D01*
X4151428Y-80992380D01*
X4008571Y-80944761D01*
X3913333Y-80849523D01*
X3865714Y-80754285D01*
X3818095Y-80563809D01*
X3818095Y-80420952D01*
X3865714Y-80230476D01*
X3913333Y-80135238D01*
X4008571Y-80040000D01*
X4151428Y-79992380D01*
X4246666Y-79992380D01*
X4389523Y-80040000D01*
X4437142Y-80087619D01*
X4770476Y-79992380D02*
X5389523Y-79992380D01*
X5056190Y-80373333D01*
X5199047Y-80373333D01*
X5294285Y-80420952D01*
X5341904Y-80468571D01*
X5389523Y-80563809D01*
X5389523Y-80801904D01*
X5341904Y-80897142D01*
X5294285Y-80944761D01*
X5199047Y-80992380D01*
X4913333Y-80992380D01*
X4818095Y-80944761D01*
X4770476Y-80897142D01*
X5722857Y-79992380D02*
X6341904Y-79992380D01*
X6008571Y-80373333D01*
X6151428Y-80373333D01*
X6246666Y-80420952D01*
X6294285Y-80468571D01*
X6341904Y-80563809D01*
X6341904Y-80801904D01*
X6294285Y-80897142D01*
X6246666Y-80944761D01*
X6151428Y-80992380D01*
X5865714Y-80992380D01*
X5770476Y-80944761D01*
X5722857Y-80897142D01*
%TO.C,C37*%
X4257142Y-76417142D02*
X4209523Y-76464761D01*
X4066666Y-76512380D01*
X3971428Y-76512380D01*
X3828571Y-76464761D01*
X3733333Y-76369523D01*
X3685714Y-76274285D01*
X3638095Y-76083809D01*
X3638095Y-75940952D01*
X3685714Y-75750476D01*
X3733333Y-75655238D01*
X3828571Y-75560000D01*
X3971428Y-75512380D01*
X4066666Y-75512380D01*
X4209523Y-75560000D01*
X4257142Y-75607619D01*
X4590476Y-75512380D02*
X5209523Y-75512380D01*
X4876190Y-75893333D01*
X5019047Y-75893333D01*
X5114285Y-75940952D01*
X5161904Y-75988571D01*
X5209523Y-76083809D01*
X5209523Y-76321904D01*
X5161904Y-76417142D01*
X5114285Y-76464761D01*
X5019047Y-76512380D01*
X4733333Y-76512380D01*
X4638095Y-76464761D01*
X4590476Y-76417142D01*
X5542857Y-75512380D02*
X6209523Y-75512380D01*
X5780952Y-76512380D01*
%TO.C,D4*%
X6766666Y-39986666D02*
X6066666Y-39986666D01*
X6066666Y-39820000D01*
X6100000Y-39720000D01*
X6166666Y-39653333D01*
X6233333Y-39620000D01*
X6366666Y-39586666D01*
X6466666Y-39586666D01*
X6600000Y-39620000D01*
X6666666Y-39653333D01*
X6733333Y-39720000D01*
X6766666Y-39820000D01*
X6766666Y-39986666D01*
X6300000Y-38986666D02*
X6766666Y-38986666D01*
X6033333Y-39153333D02*
X6533333Y-39320000D01*
X6533333Y-38886666D01*
%TO.C,D5*%
X2856666Y-33536666D02*
X2156666Y-33536666D01*
X2156666Y-33370000D01*
X2190000Y-33270000D01*
X2256666Y-33203333D01*
X2323333Y-33170000D01*
X2456666Y-33136666D01*
X2556666Y-33136666D01*
X2690000Y-33170000D01*
X2756666Y-33203333D01*
X2823333Y-33270000D01*
X2856666Y-33370000D01*
X2856666Y-33536666D01*
X2156666Y-32503333D02*
X2156666Y-32836666D01*
X2490000Y-32870000D01*
X2456666Y-32836666D01*
X2423333Y-32770000D01*
X2423333Y-32603333D01*
X2456666Y-32536666D01*
X2490000Y-32503333D01*
X2556666Y-32470000D01*
X2723333Y-32470000D01*
X2790000Y-32503333D01*
X2823333Y-32536666D01*
X2856666Y-32603333D01*
X2856666Y-32770000D01*
X2823333Y-32836666D01*
X2790000Y-32870000D01*
%TO.C,D6*%
X9941666Y-39886666D02*
X9241666Y-39886666D01*
X9241666Y-39720000D01*
X9275000Y-39620000D01*
X9341666Y-39553333D01*
X9408333Y-39520000D01*
X9541666Y-39486666D01*
X9641666Y-39486666D01*
X9775000Y-39520000D01*
X9841666Y-39553333D01*
X9908333Y-39620000D01*
X9941666Y-39720000D01*
X9941666Y-39886666D01*
X9241666Y-38886666D02*
X9241666Y-39020000D01*
X9275000Y-39086666D01*
X9308333Y-39120000D01*
X9408333Y-39186666D01*
X9541666Y-39220000D01*
X9808333Y-39220000D01*
X9875000Y-39186666D01*
X9908333Y-39153333D01*
X9941666Y-39086666D01*
X9941666Y-38953333D01*
X9908333Y-38886666D01*
X9875000Y-38853333D01*
X9808333Y-38820000D01*
X9641666Y-38820000D01*
X9575000Y-38853333D01*
X9541666Y-38886666D01*
X9508333Y-38953333D01*
X9508333Y-39086666D01*
X9541666Y-39153333D01*
X9575000Y-39186666D01*
X9641666Y-39220000D01*
%TO.C,D9*%
X24883333Y-80226666D02*
X24883333Y-79526666D01*
X25050000Y-79526666D01*
X25150000Y-79560000D01*
X25216666Y-79626666D01*
X25250000Y-79693333D01*
X25283333Y-79826666D01*
X25283333Y-79926666D01*
X25250000Y-80060000D01*
X25216666Y-80126666D01*
X25150000Y-80193333D01*
X25050000Y-80226666D01*
X24883333Y-80226666D01*
X25616666Y-80226666D02*
X25750000Y-80226666D01*
X25816666Y-80193333D01*
X25850000Y-80160000D01*
X25916666Y-80060000D01*
X25950000Y-79926666D01*
X25950000Y-79660000D01*
X25916666Y-79593333D01*
X25883333Y-79560000D01*
X25816666Y-79526666D01*
X25683333Y-79526666D01*
X25616666Y-79560000D01*
X25583333Y-79593333D01*
X25550000Y-79660000D01*
X25550000Y-79826666D01*
X25583333Y-79893333D01*
X25616666Y-79926666D01*
X25683333Y-79960000D01*
X25816666Y-79960000D01*
X25883333Y-79926666D01*
X25916666Y-79893333D01*
X25950000Y-79826666D01*
%TO.C,Q3*%
X17078333Y-37213333D02*
X17011666Y-37180000D01*
X16945000Y-37113333D01*
X16845000Y-37013333D01*
X16778333Y-36980000D01*
X16711666Y-36980000D01*
X16745000Y-37146666D02*
X16678333Y-37113333D01*
X16611666Y-37046666D01*
X16578333Y-36913333D01*
X16578333Y-36680000D01*
X16611666Y-36546666D01*
X16678333Y-36480000D01*
X16745000Y-36446666D01*
X16878333Y-36446666D01*
X16945000Y-36480000D01*
X17011666Y-36546666D01*
X17045000Y-36680000D01*
X17045000Y-36913333D01*
X17011666Y-37046666D01*
X16945000Y-37113333D01*
X16878333Y-37146666D01*
X16745000Y-37146666D01*
X17278333Y-36446666D02*
X17711666Y-36446666D01*
X17478333Y-36713333D01*
X17578333Y-36713333D01*
X17645000Y-36746666D01*
X17678333Y-36780000D01*
X17711666Y-36846666D01*
X17711666Y-37013333D01*
X17678333Y-37080000D01*
X17645000Y-37113333D01*
X17578333Y-37146666D01*
X17378333Y-37146666D01*
X17311666Y-37113333D01*
X17278333Y-37080000D01*
%TO.C,Q4*%
X8794761Y-79037619D02*
X8699523Y-78990000D01*
X8604285Y-78894761D01*
X8461428Y-78751904D01*
X8366190Y-78704285D01*
X8270952Y-78704285D01*
X8318571Y-78942380D02*
X8223333Y-78894761D01*
X8128095Y-78799523D01*
X8080476Y-78609047D01*
X8080476Y-78275714D01*
X8128095Y-78085238D01*
X8223333Y-77990000D01*
X8318571Y-77942380D01*
X8509047Y-77942380D01*
X8604285Y-77990000D01*
X8699523Y-78085238D01*
X8747142Y-78275714D01*
X8747142Y-78609047D01*
X8699523Y-78799523D01*
X8604285Y-78894761D01*
X8509047Y-78942380D01*
X8318571Y-78942380D01*
X9604285Y-78275714D02*
X9604285Y-78942380D01*
X9366190Y-77894761D02*
X9128095Y-78609047D01*
X9747142Y-78609047D01*
%TO.C,U3*%
X5788095Y-21542380D02*
X5788095Y-22351904D01*
X5835714Y-22447142D01*
X5883333Y-22494761D01*
X5978571Y-22542380D01*
X6169047Y-22542380D01*
X6264285Y-22494761D01*
X6311904Y-22447142D01*
X6359523Y-22351904D01*
X6359523Y-21542380D01*
X6740476Y-21542380D02*
X7359523Y-21542380D01*
X7026190Y-21923333D01*
X7169047Y-21923333D01*
X7264285Y-21970952D01*
X7311904Y-22018571D01*
X7359523Y-22113809D01*
X7359523Y-22351904D01*
X7311904Y-22447142D01*
X7264285Y-22494761D01*
X7169047Y-22542380D01*
X6883333Y-22542380D01*
X6788095Y-22494761D01*
X6740476Y-22447142D01*
%TO.C,R4*%
X16242380Y-23026666D02*
X15766190Y-23360000D01*
X16242380Y-23598095D02*
X15242380Y-23598095D01*
X15242380Y-23217142D01*
X15290000Y-23121904D01*
X15337619Y-23074285D01*
X15432857Y-23026666D01*
X15575714Y-23026666D01*
X15670952Y-23074285D01*
X15718571Y-23121904D01*
X15766190Y-23217142D01*
X15766190Y-23598095D01*
X15575714Y-22169523D02*
X16242380Y-22169523D01*
X15194761Y-22407619D02*
X15909047Y-22645714D01*
X15909047Y-22026666D01*
%TO.C,R6*%
X20772380Y-23026666D02*
X20296190Y-23360000D01*
X20772380Y-23598095D02*
X19772380Y-23598095D01*
X19772380Y-23217142D01*
X19820000Y-23121904D01*
X19867619Y-23074285D01*
X19962857Y-23026666D01*
X20105714Y-23026666D01*
X20200952Y-23074285D01*
X20248571Y-23121904D01*
X20296190Y-23217142D01*
X20296190Y-23598095D01*
X19772380Y-22169523D02*
X19772380Y-22360000D01*
X19820000Y-22455238D01*
X19867619Y-22502857D01*
X20010476Y-22598095D01*
X20200952Y-22645714D01*
X20581904Y-22645714D01*
X20677142Y-22598095D01*
X20724761Y-22550476D01*
X20772380Y-22455238D01*
X20772380Y-22264761D01*
X20724761Y-22169523D01*
X20677142Y-22121904D01*
X20581904Y-22074285D01*
X20343809Y-22074285D01*
X20248571Y-22121904D01*
X20200952Y-22169523D01*
X20153333Y-22264761D01*
X20153333Y-22455238D01*
X20200952Y-22550476D01*
X20248571Y-22598095D01*
X20343809Y-22645714D01*
%TO.C,R10*%
X1897142Y-44182380D02*
X1563809Y-43706190D01*
X1325714Y-44182380D02*
X1325714Y-43182380D01*
X1706666Y-43182380D01*
X1801904Y-43230000D01*
X1849523Y-43277619D01*
X1897142Y-43372857D01*
X1897142Y-43515714D01*
X1849523Y-43610952D01*
X1801904Y-43658571D01*
X1706666Y-43706190D01*
X1325714Y-43706190D01*
X2849523Y-44182380D02*
X2278095Y-44182380D01*
X2563809Y-44182380D02*
X2563809Y-43182380D01*
X2468571Y-43325238D01*
X2373333Y-43420476D01*
X2278095Y-43468095D01*
X3468571Y-43182380D02*
X3563809Y-43182380D01*
X3659047Y-43230000D01*
X3706666Y-43277619D01*
X3754285Y-43372857D01*
X3801904Y-43563333D01*
X3801904Y-43801428D01*
X3754285Y-43991904D01*
X3706666Y-44087142D01*
X3659047Y-44134761D01*
X3563809Y-44182380D01*
X3468571Y-44182380D01*
X3373333Y-44134761D01*
X3325714Y-44087142D01*
X3278095Y-43991904D01*
X3230476Y-43801428D01*
X3230476Y-43563333D01*
X3278095Y-43372857D01*
X3325714Y-43277619D01*
X3373333Y-43230000D01*
X3468571Y-43182380D01*
%TO.C,R12*%
X6252380Y-45092857D02*
X5776190Y-45426190D01*
X6252380Y-45664285D02*
X5252380Y-45664285D01*
X5252380Y-45283333D01*
X5300000Y-45188095D01*
X5347619Y-45140476D01*
X5442857Y-45092857D01*
X5585714Y-45092857D01*
X5680952Y-45140476D01*
X5728571Y-45188095D01*
X5776190Y-45283333D01*
X5776190Y-45664285D01*
X6252380Y-44140476D02*
X6252380Y-44711904D01*
X6252380Y-44426190D02*
X5252380Y-44426190D01*
X5395238Y-44521428D01*
X5490476Y-44616666D01*
X5538095Y-44711904D01*
X5347619Y-43759523D02*
X5300000Y-43711904D01*
X5252380Y-43616666D01*
X5252380Y-43378571D01*
X5300000Y-43283333D01*
X5347619Y-43235714D01*
X5442857Y-43188095D01*
X5538095Y-43188095D01*
X5680952Y-43235714D01*
X6252380Y-43807142D01*
X6252380Y-43188095D01*
%TO.C,R14*%
X14972380Y-35932857D02*
X14496190Y-36266190D01*
X14972380Y-36504285D02*
X13972380Y-36504285D01*
X13972380Y-36123333D01*
X14020000Y-36028095D01*
X14067619Y-35980476D01*
X14162857Y-35932857D01*
X14305714Y-35932857D01*
X14400952Y-35980476D01*
X14448571Y-36028095D01*
X14496190Y-36123333D01*
X14496190Y-36504285D01*
X14972380Y-34980476D02*
X14972380Y-35551904D01*
X14972380Y-35266190D02*
X13972380Y-35266190D01*
X14115238Y-35361428D01*
X14210476Y-35456666D01*
X14258095Y-35551904D01*
X14305714Y-34123333D02*
X14972380Y-34123333D01*
X13924761Y-34361428D02*
X14639047Y-34599523D01*
X14639047Y-33980476D01*
%TO.C,R18*%
X24757142Y-32287380D02*
X24423809Y-31811190D01*
X24185714Y-32287380D02*
X24185714Y-31287380D01*
X24566666Y-31287380D01*
X24661904Y-31335000D01*
X24709523Y-31382619D01*
X24757142Y-31477857D01*
X24757142Y-31620714D01*
X24709523Y-31715952D01*
X24661904Y-31763571D01*
X24566666Y-31811190D01*
X24185714Y-31811190D01*
X25709523Y-32287380D02*
X25138095Y-32287380D01*
X25423809Y-32287380D02*
X25423809Y-31287380D01*
X25328571Y-31430238D01*
X25233333Y-31525476D01*
X25138095Y-31573095D01*
X26280952Y-31715952D02*
X26185714Y-31668333D01*
X26138095Y-31620714D01*
X26090476Y-31525476D01*
X26090476Y-31477857D01*
X26138095Y-31382619D01*
X26185714Y-31335000D01*
X26280952Y-31287380D01*
X26471428Y-31287380D01*
X26566666Y-31335000D01*
X26614285Y-31382619D01*
X26661904Y-31477857D01*
X26661904Y-31525476D01*
X26614285Y-31620714D01*
X26566666Y-31668333D01*
X26471428Y-31715952D01*
X26280952Y-31715952D01*
X26185714Y-31763571D01*
X26138095Y-31811190D01*
X26090476Y-31906428D01*
X26090476Y-32096904D01*
X26138095Y-32192142D01*
X26185714Y-32239761D01*
X26280952Y-32287380D01*
X26471428Y-32287380D01*
X26566666Y-32239761D01*
X26614285Y-32192142D01*
X26661904Y-32096904D01*
X26661904Y-31906428D01*
X26614285Y-31811190D01*
X26566666Y-31763571D01*
X26471428Y-31715952D01*
%TO.C,R19*%
X17772142Y-41092380D02*
X17438809Y-40616190D01*
X17200714Y-41092380D02*
X17200714Y-40092380D01*
X17581666Y-40092380D01*
X17676904Y-40140000D01*
X17724523Y-40187619D01*
X17772142Y-40282857D01*
X17772142Y-40425714D01*
X17724523Y-40520952D01*
X17676904Y-40568571D01*
X17581666Y-40616190D01*
X17200714Y-40616190D01*
X18724523Y-41092380D02*
X18153095Y-41092380D01*
X18438809Y-41092380D02*
X18438809Y-40092380D01*
X18343571Y-40235238D01*
X18248333Y-40330476D01*
X18153095Y-40378095D01*
X19200714Y-41092380D02*
X19391190Y-41092380D01*
X19486428Y-41044761D01*
X19534047Y-40997142D01*
X19629285Y-40854285D01*
X19676904Y-40663809D01*
X19676904Y-40282857D01*
X19629285Y-40187619D01*
X19581666Y-40140000D01*
X19486428Y-40092380D01*
X19295952Y-40092380D01*
X19200714Y-40140000D01*
X19153095Y-40187619D01*
X19105476Y-40282857D01*
X19105476Y-40520952D01*
X19153095Y-40616190D01*
X19200714Y-40663809D01*
X19295952Y-40711428D01*
X19486428Y-40711428D01*
X19581666Y-40663809D01*
X19629285Y-40616190D01*
X19676904Y-40520952D01*
%TO.C,R21*%
X10787142Y-51972380D02*
X10453809Y-51496190D01*
X10215714Y-51972380D02*
X10215714Y-50972380D01*
X10596666Y-50972380D01*
X10691904Y-51020000D01*
X10739523Y-51067619D01*
X10787142Y-51162857D01*
X10787142Y-51305714D01*
X10739523Y-51400952D01*
X10691904Y-51448571D01*
X10596666Y-51496190D01*
X10215714Y-51496190D01*
X11168095Y-51067619D02*
X11215714Y-51020000D01*
X11310952Y-50972380D01*
X11549047Y-50972380D01*
X11644285Y-51020000D01*
X11691904Y-51067619D01*
X11739523Y-51162857D01*
X11739523Y-51258095D01*
X11691904Y-51400952D01*
X11120476Y-51972380D01*
X11739523Y-51972380D01*
X12691904Y-51972380D02*
X12120476Y-51972380D01*
X12406190Y-51972380D02*
X12406190Y-50972380D01*
X12310952Y-51115238D01*
X12215714Y-51210476D01*
X12120476Y-51258095D01*
%TO.C,R22*%
X5707142Y-55782380D02*
X5373809Y-55306190D01*
X5135714Y-55782380D02*
X5135714Y-54782380D01*
X5516666Y-54782380D01*
X5611904Y-54830000D01*
X5659523Y-54877619D01*
X5707142Y-54972857D01*
X5707142Y-55115714D01*
X5659523Y-55210952D01*
X5611904Y-55258571D01*
X5516666Y-55306190D01*
X5135714Y-55306190D01*
X6088095Y-54877619D02*
X6135714Y-54830000D01*
X6230952Y-54782380D01*
X6469047Y-54782380D01*
X6564285Y-54830000D01*
X6611904Y-54877619D01*
X6659523Y-54972857D01*
X6659523Y-55068095D01*
X6611904Y-55210952D01*
X6040476Y-55782380D01*
X6659523Y-55782380D01*
X7040476Y-54877619D02*
X7088095Y-54830000D01*
X7183333Y-54782380D01*
X7421428Y-54782380D01*
X7516666Y-54830000D01*
X7564285Y-54877619D01*
X7611904Y-54972857D01*
X7611904Y-55068095D01*
X7564285Y-55210952D01*
X6992857Y-55782380D01*
X7611904Y-55782380D01*
%TO.C,R23*%
X8622380Y-50172857D02*
X8146190Y-50506190D01*
X8622380Y-50744285D02*
X7622380Y-50744285D01*
X7622380Y-50363333D01*
X7670000Y-50268095D01*
X7717619Y-50220476D01*
X7812857Y-50172857D01*
X7955714Y-50172857D01*
X8050952Y-50220476D01*
X8098571Y-50268095D01*
X8146190Y-50363333D01*
X8146190Y-50744285D01*
X7717619Y-49791904D02*
X7670000Y-49744285D01*
X7622380Y-49649047D01*
X7622380Y-49410952D01*
X7670000Y-49315714D01*
X7717619Y-49268095D01*
X7812857Y-49220476D01*
X7908095Y-49220476D01*
X8050952Y-49268095D01*
X8622380Y-49839523D01*
X8622380Y-49220476D01*
X7622380Y-48887142D02*
X7622380Y-48268095D01*
X8003333Y-48601428D01*
X8003333Y-48458571D01*
X8050952Y-48363333D01*
X8098571Y-48315714D01*
X8193809Y-48268095D01*
X8431904Y-48268095D01*
X8527142Y-48315714D01*
X8574761Y-48363333D01*
X8622380Y-48458571D01*
X8622380Y-48744285D01*
X8574761Y-48839523D01*
X8527142Y-48887142D01*
%TO.C,R24*%
X15867142Y-50532380D02*
X15533809Y-50056190D01*
X15295714Y-50532380D02*
X15295714Y-49532380D01*
X15676666Y-49532380D01*
X15771904Y-49580000D01*
X15819523Y-49627619D01*
X15867142Y-49722857D01*
X15867142Y-49865714D01*
X15819523Y-49960952D01*
X15771904Y-50008571D01*
X15676666Y-50056190D01*
X15295714Y-50056190D01*
X16248095Y-49627619D02*
X16295714Y-49580000D01*
X16390952Y-49532380D01*
X16629047Y-49532380D01*
X16724285Y-49580000D01*
X16771904Y-49627619D01*
X16819523Y-49722857D01*
X16819523Y-49818095D01*
X16771904Y-49960952D01*
X16200476Y-50532380D01*
X16819523Y-50532380D01*
X17676666Y-49865714D02*
X17676666Y-50532380D01*
X17438571Y-49484761D02*
X17200476Y-50199047D01*
X17819523Y-50199047D01*
%TO.C,R25*%
X4437142Y-16242380D02*
X4103809Y-15766190D01*
X3865714Y-16242380D02*
X3865714Y-15242380D01*
X4246666Y-15242380D01*
X4341904Y-15290000D01*
X4389523Y-15337619D01*
X4437142Y-15432857D01*
X4437142Y-15575714D01*
X4389523Y-15670952D01*
X4341904Y-15718571D01*
X4246666Y-15766190D01*
X3865714Y-15766190D01*
X4818095Y-15337619D02*
X4865714Y-15290000D01*
X4960952Y-15242380D01*
X5199047Y-15242380D01*
X5294285Y-15290000D01*
X5341904Y-15337619D01*
X5389523Y-15432857D01*
X5389523Y-15528095D01*
X5341904Y-15670952D01*
X4770476Y-16242380D01*
X5389523Y-16242380D01*
X6294285Y-15242380D02*
X5818095Y-15242380D01*
X5770476Y-15718571D01*
X5818095Y-15670952D01*
X5913333Y-15623333D01*
X6151428Y-15623333D01*
X6246666Y-15670952D01*
X6294285Y-15718571D01*
X6341904Y-15813809D01*
X6341904Y-16051904D01*
X6294285Y-16147142D01*
X6246666Y-16194761D01*
X6151428Y-16242380D01*
X5913333Y-16242380D01*
X5818095Y-16194761D01*
X5770476Y-16147142D01*
%TO.C,R28*%
X10697380Y-15882857D02*
X10221190Y-16216190D01*
X10697380Y-16454285D02*
X9697380Y-16454285D01*
X9697380Y-16073333D01*
X9745000Y-15978095D01*
X9792619Y-15930476D01*
X9887857Y-15882857D01*
X10030714Y-15882857D01*
X10125952Y-15930476D01*
X10173571Y-15978095D01*
X10221190Y-16073333D01*
X10221190Y-16454285D01*
X9792619Y-15501904D02*
X9745000Y-15454285D01*
X9697380Y-15359047D01*
X9697380Y-15120952D01*
X9745000Y-15025714D01*
X9792619Y-14978095D01*
X9887857Y-14930476D01*
X9983095Y-14930476D01*
X10125952Y-14978095D01*
X10697380Y-15549523D01*
X10697380Y-14930476D01*
X10125952Y-14359047D02*
X10078333Y-14454285D01*
X10030714Y-14501904D01*
X9935476Y-14549523D01*
X9887857Y-14549523D01*
X9792619Y-14501904D01*
X9745000Y-14454285D01*
X9697380Y-14359047D01*
X9697380Y-14168571D01*
X9745000Y-14073333D01*
X9792619Y-14025714D01*
X9887857Y-13978095D01*
X9935476Y-13978095D01*
X10030714Y-14025714D01*
X10078333Y-14073333D01*
X10125952Y-14168571D01*
X10125952Y-14359047D01*
X10173571Y-14454285D01*
X10221190Y-14501904D01*
X10316428Y-14549523D01*
X10506904Y-14549523D01*
X10602142Y-14501904D01*
X10649761Y-14454285D01*
X10697380Y-14359047D01*
X10697380Y-14168571D01*
X10649761Y-14073333D01*
X10602142Y-14025714D01*
X10506904Y-13978095D01*
X10316428Y-13978095D01*
X10221190Y-14025714D01*
X10173571Y-14073333D01*
X10125952Y-14168571D01*
%TO.C,R31*%
X15142380Y-79382857D02*
X14666190Y-79716190D01*
X15142380Y-79954285D02*
X14142380Y-79954285D01*
X14142380Y-79573333D01*
X14190000Y-79478095D01*
X14237619Y-79430476D01*
X14332857Y-79382857D01*
X14475714Y-79382857D01*
X14570952Y-79430476D01*
X14618571Y-79478095D01*
X14666190Y-79573333D01*
X14666190Y-79954285D01*
X14142380Y-79049523D02*
X14142380Y-78430476D01*
X14523333Y-78763809D01*
X14523333Y-78620952D01*
X14570952Y-78525714D01*
X14618571Y-78478095D01*
X14713809Y-78430476D01*
X14951904Y-78430476D01*
X15047142Y-78478095D01*
X15094761Y-78525714D01*
X15142380Y-78620952D01*
X15142380Y-78906666D01*
X15094761Y-79001904D01*
X15047142Y-79049523D01*
X15142380Y-77478095D02*
X15142380Y-78049523D01*
X15142380Y-77763809D02*
X14142380Y-77763809D01*
X14285238Y-77859047D01*
X14380476Y-77954285D01*
X14428095Y-78049523D01*
%TO.C,R33*%
X18407142Y-94982380D02*
X18073809Y-94506190D01*
X17835714Y-94982380D02*
X17835714Y-93982380D01*
X18216666Y-93982380D01*
X18311904Y-94030000D01*
X18359523Y-94077619D01*
X18407142Y-94172857D01*
X18407142Y-94315714D01*
X18359523Y-94410952D01*
X18311904Y-94458571D01*
X18216666Y-94506190D01*
X17835714Y-94506190D01*
X18740476Y-93982380D02*
X19359523Y-93982380D01*
X19026190Y-94363333D01*
X19169047Y-94363333D01*
X19264285Y-94410952D01*
X19311904Y-94458571D01*
X19359523Y-94553809D01*
X19359523Y-94791904D01*
X19311904Y-94887142D01*
X19264285Y-94934761D01*
X19169047Y-94982380D01*
X18883333Y-94982380D01*
X18788095Y-94934761D01*
X18740476Y-94887142D01*
X19692857Y-93982380D02*
X20311904Y-93982380D01*
X19978571Y-94363333D01*
X20121428Y-94363333D01*
X20216666Y-94410952D01*
X20264285Y-94458571D01*
X20311904Y-94553809D01*
X20311904Y-94791904D01*
X20264285Y-94887142D01*
X20216666Y-94934761D01*
X20121428Y-94982380D01*
X19835714Y-94982380D01*
X19740476Y-94934761D01*
X19692857Y-94887142D01*
%TO.C,R34*%
X9892380Y-94622857D02*
X9416190Y-94956190D01*
X9892380Y-95194285D02*
X8892380Y-95194285D01*
X8892380Y-94813333D01*
X8940000Y-94718095D01*
X8987619Y-94670476D01*
X9082857Y-94622857D01*
X9225714Y-94622857D01*
X9320952Y-94670476D01*
X9368571Y-94718095D01*
X9416190Y-94813333D01*
X9416190Y-95194285D01*
X8892380Y-94289523D02*
X8892380Y-93670476D01*
X9273333Y-94003809D01*
X9273333Y-93860952D01*
X9320952Y-93765714D01*
X9368571Y-93718095D01*
X9463809Y-93670476D01*
X9701904Y-93670476D01*
X9797142Y-93718095D01*
X9844761Y-93765714D01*
X9892380Y-93860952D01*
X9892380Y-94146666D01*
X9844761Y-94241904D01*
X9797142Y-94289523D01*
X9225714Y-92813333D02*
X9892380Y-92813333D01*
X8844761Y-93051428D02*
X9559047Y-93289523D01*
X9559047Y-92670476D01*
%TO.C,R36*%
X22217142Y-97522380D02*
X21883809Y-97046190D01*
X21645714Y-97522380D02*
X21645714Y-96522380D01*
X22026666Y-96522380D01*
X22121904Y-96570000D01*
X22169523Y-96617619D01*
X22217142Y-96712857D01*
X22217142Y-96855714D01*
X22169523Y-96950952D01*
X22121904Y-96998571D01*
X22026666Y-97046190D01*
X21645714Y-97046190D01*
X22550476Y-96522380D02*
X23169523Y-96522380D01*
X22836190Y-96903333D01*
X22979047Y-96903333D01*
X23074285Y-96950952D01*
X23121904Y-96998571D01*
X23169523Y-97093809D01*
X23169523Y-97331904D01*
X23121904Y-97427142D01*
X23074285Y-97474761D01*
X22979047Y-97522380D01*
X22693333Y-97522380D01*
X22598095Y-97474761D01*
X22550476Y-97427142D01*
X24026666Y-96522380D02*
X23836190Y-96522380D01*
X23740952Y-96570000D01*
X23693333Y-96617619D01*
X23598095Y-96760476D01*
X23550476Y-96950952D01*
X23550476Y-97331904D01*
X23598095Y-97427142D01*
X23645714Y-97474761D01*
X23740952Y-97522380D01*
X23931428Y-97522380D01*
X24026666Y-97474761D01*
X24074285Y-97427142D01*
X24121904Y-97331904D01*
X24121904Y-97093809D01*
X24074285Y-96998571D01*
X24026666Y-96950952D01*
X23931428Y-96903333D01*
X23740952Y-96903333D01*
X23645714Y-96950952D01*
X23598095Y-96998571D01*
X23550476Y-97093809D01*
%TO.C,R40*%
X17137142Y-88082380D02*
X16803809Y-87606190D01*
X16565714Y-88082380D02*
X16565714Y-87082380D01*
X16946666Y-87082380D01*
X17041904Y-87130000D01*
X17089523Y-87177619D01*
X17137142Y-87272857D01*
X17137142Y-87415714D01*
X17089523Y-87510952D01*
X17041904Y-87558571D01*
X16946666Y-87606190D01*
X16565714Y-87606190D01*
X17994285Y-87415714D02*
X17994285Y-88082380D01*
X17756190Y-87034761D02*
X17518095Y-87749047D01*
X18137142Y-87749047D01*
X18708571Y-87082380D02*
X18803809Y-87082380D01*
X18899047Y-87130000D01*
X18946666Y-87177619D01*
X18994285Y-87272857D01*
X19041904Y-87463333D01*
X19041904Y-87701428D01*
X18994285Y-87891904D01*
X18946666Y-87987142D01*
X18899047Y-88034761D01*
X18803809Y-88082380D01*
X18708571Y-88082380D01*
X18613333Y-88034761D01*
X18565714Y-87987142D01*
X18518095Y-87891904D01*
X18470476Y-87701428D01*
X18470476Y-87463333D01*
X18518095Y-87272857D01*
X18565714Y-87177619D01*
X18613333Y-87130000D01*
X18708571Y-87082380D01*
%TO.C,R43*%
X24357142Y-87032380D02*
X24023809Y-86556190D01*
X23785714Y-87032380D02*
X23785714Y-86032380D01*
X24166666Y-86032380D01*
X24261904Y-86080000D01*
X24309523Y-86127619D01*
X24357142Y-86222857D01*
X24357142Y-86365714D01*
X24309523Y-86460952D01*
X24261904Y-86508571D01*
X24166666Y-86556190D01*
X23785714Y-86556190D01*
X25214285Y-86365714D02*
X25214285Y-87032380D01*
X24976190Y-85984761D02*
X24738095Y-86699047D01*
X25357142Y-86699047D01*
X25642857Y-86032380D02*
X26261904Y-86032380D01*
X25928571Y-86413333D01*
X26071428Y-86413333D01*
X26166666Y-86460952D01*
X26214285Y-86508571D01*
X26261904Y-86603809D01*
X26261904Y-86841904D01*
X26214285Y-86937142D01*
X26166666Y-86984761D01*
X26071428Y-87032380D01*
X25785714Y-87032380D01*
X25690476Y-86984761D01*
X25642857Y-86937142D01*
%TO.C,R44*%
X15232142Y-73477380D02*
X14898809Y-73001190D01*
X14660714Y-73477380D02*
X14660714Y-72477380D01*
X15041666Y-72477380D01*
X15136904Y-72525000D01*
X15184523Y-72572619D01*
X15232142Y-72667857D01*
X15232142Y-72810714D01*
X15184523Y-72905952D01*
X15136904Y-72953571D01*
X15041666Y-73001190D01*
X14660714Y-73001190D01*
X16089285Y-72810714D02*
X16089285Y-73477380D01*
X15851190Y-72429761D02*
X15613095Y-73144047D01*
X16232142Y-73144047D01*
X17041666Y-72810714D02*
X17041666Y-73477380D01*
X16803571Y-72429761D02*
X16565476Y-73144047D01*
X17184523Y-73144047D01*
%TO.C,R48*%
X6802380Y-89542857D02*
X6326190Y-89876190D01*
X6802380Y-90114285D02*
X5802380Y-90114285D01*
X5802380Y-89733333D01*
X5850000Y-89638095D01*
X5897619Y-89590476D01*
X5992857Y-89542857D01*
X6135714Y-89542857D01*
X6230952Y-89590476D01*
X6278571Y-89638095D01*
X6326190Y-89733333D01*
X6326190Y-90114285D01*
X6135714Y-88685714D02*
X6802380Y-88685714D01*
X5754761Y-88923809D02*
X6469047Y-89161904D01*
X6469047Y-88542857D01*
X6230952Y-88019047D02*
X6183333Y-88114285D01*
X6135714Y-88161904D01*
X6040476Y-88209523D01*
X5992857Y-88209523D01*
X5897619Y-88161904D01*
X5850000Y-88114285D01*
X5802380Y-88019047D01*
X5802380Y-87828571D01*
X5850000Y-87733333D01*
X5897619Y-87685714D01*
X5992857Y-87638095D01*
X6040476Y-87638095D01*
X6135714Y-87685714D01*
X6183333Y-87733333D01*
X6230952Y-87828571D01*
X6230952Y-88019047D01*
X6278571Y-88114285D01*
X6326190Y-88161904D01*
X6421428Y-88209523D01*
X6611904Y-88209523D01*
X6707142Y-88161904D01*
X6754761Y-88114285D01*
X6802380Y-88019047D01*
X6802380Y-87828571D01*
X6754761Y-87733333D01*
X6707142Y-87685714D01*
X6611904Y-87638095D01*
X6421428Y-87638095D01*
X6326190Y-87685714D01*
X6278571Y-87733333D01*
X6230952Y-87828571D01*
%TO.C,R51*%
X1722380Y-85732857D02*
X1246190Y-86066190D01*
X1722380Y-86304285D02*
X722380Y-86304285D01*
X722380Y-85923333D01*
X770000Y-85828095D01*
X817619Y-85780476D01*
X912857Y-85732857D01*
X1055714Y-85732857D01*
X1150952Y-85780476D01*
X1198571Y-85828095D01*
X1246190Y-85923333D01*
X1246190Y-86304285D01*
X722380Y-84828095D02*
X722380Y-85304285D01*
X1198571Y-85351904D01*
X1150952Y-85304285D01*
X1103333Y-85209047D01*
X1103333Y-84970952D01*
X1150952Y-84875714D01*
X1198571Y-84828095D01*
X1293809Y-84780476D01*
X1531904Y-84780476D01*
X1627142Y-84828095D01*
X1674761Y-84875714D01*
X1722380Y-84970952D01*
X1722380Y-85209047D01*
X1674761Y-85304285D01*
X1627142Y-85351904D01*
X1722380Y-83828095D02*
X1722380Y-84399523D01*
X1722380Y-84113809D02*
X722380Y-84113809D01*
X865238Y-84209047D01*
X960476Y-84304285D01*
X1008095Y-84399523D01*
%TO.C,R55*%
X4257142Y-69582380D02*
X3923809Y-69106190D01*
X3685714Y-69582380D02*
X3685714Y-68582380D01*
X4066666Y-68582380D01*
X4161904Y-68630000D01*
X4209523Y-68677619D01*
X4257142Y-68772857D01*
X4257142Y-68915714D01*
X4209523Y-69010952D01*
X4161904Y-69058571D01*
X4066666Y-69106190D01*
X3685714Y-69106190D01*
X5161904Y-68582380D02*
X4685714Y-68582380D01*
X4638095Y-69058571D01*
X4685714Y-69010952D01*
X4780952Y-68963333D01*
X5019047Y-68963333D01*
X5114285Y-69010952D01*
X5161904Y-69058571D01*
X5209523Y-69153809D01*
X5209523Y-69391904D01*
X5161904Y-69487142D01*
X5114285Y-69534761D01*
X5019047Y-69582380D01*
X4780952Y-69582380D01*
X4685714Y-69534761D01*
X4638095Y-69487142D01*
X6114285Y-68582380D02*
X5638095Y-68582380D01*
X5590476Y-69058571D01*
X5638095Y-69010952D01*
X5733333Y-68963333D01*
X5971428Y-68963333D01*
X6066666Y-69010952D01*
X6114285Y-69058571D01*
X6161904Y-69153809D01*
X6161904Y-69391904D01*
X6114285Y-69487142D01*
X6066666Y-69534761D01*
X5971428Y-69582380D01*
X5733333Y-69582380D01*
X5638095Y-69534761D01*
X5590476Y-69487142D01*
%TO.C,R58*%
X11247380Y-68952857D02*
X10771190Y-69286190D01*
X11247380Y-69524285D02*
X10247380Y-69524285D01*
X10247380Y-69143333D01*
X10295000Y-69048095D01*
X10342619Y-69000476D01*
X10437857Y-68952857D01*
X10580714Y-68952857D01*
X10675952Y-69000476D01*
X10723571Y-69048095D01*
X10771190Y-69143333D01*
X10771190Y-69524285D01*
X10247380Y-68048095D02*
X10247380Y-68524285D01*
X10723571Y-68571904D01*
X10675952Y-68524285D01*
X10628333Y-68429047D01*
X10628333Y-68190952D01*
X10675952Y-68095714D01*
X10723571Y-68048095D01*
X10818809Y-68000476D01*
X11056904Y-68000476D01*
X11152142Y-68048095D01*
X11199761Y-68095714D01*
X11247380Y-68190952D01*
X11247380Y-68429047D01*
X11199761Y-68524285D01*
X11152142Y-68571904D01*
X10675952Y-67429047D02*
X10628333Y-67524285D01*
X10580714Y-67571904D01*
X10485476Y-67619523D01*
X10437857Y-67619523D01*
X10342619Y-67571904D01*
X10295000Y-67524285D01*
X10247380Y-67429047D01*
X10247380Y-67238571D01*
X10295000Y-67143333D01*
X10342619Y-67095714D01*
X10437857Y-67048095D01*
X10485476Y-67048095D01*
X10580714Y-67095714D01*
X10628333Y-67143333D01*
X10675952Y-67238571D01*
X10675952Y-67429047D01*
X10723571Y-67524285D01*
X10771190Y-67571904D01*
X10866428Y-67619523D01*
X11056904Y-67619523D01*
X11152142Y-67571904D01*
X11199761Y-67524285D01*
X11247380Y-67429047D01*
X11247380Y-67238571D01*
X11199761Y-67143333D01*
X11152142Y-67095714D01*
X11056904Y-67048095D01*
X10866428Y-67048095D01*
X10771190Y-67095714D01*
X10723571Y-67143333D01*
X10675952Y-67238571D01*
%TD*%
M02*
