%TF.GenerationSoftware,KiCad,Pcbnew,(5.1.9-0-10_14)*%
%TF.CreationDate,2021-04-20T22:51:25+02:00*%
%TF.ProjectId,tribus,74726962-7573-42e6-9b69-6361645f7063,rev?*%
%TF.SameCoordinates,Original*%
%TF.FileFunction,Copper,L1,Top*%
%TF.FilePolarity,Positive*%
%FSLAX46Y46*%
G04 Gerber Fmt 4.6, Leading zero omitted, Abs format (unit mm)*
G04 Created by KiCad (PCBNEW (5.1.9-0-10_14)) date 2021-04-20 22:51:25*
%MOMM*%
%LPD*%
G01*
G04 APERTURE LIST*
%TA.AperFunction,ComponentPad*%
%ADD10O,1.700000X1.700000*%
%TD*%
%TA.AperFunction,ComponentPad*%
%ADD11R,1.700000X1.700000*%
%TD*%
%TA.AperFunction,SMDPad,CuDef*%
%ADD12R,1.200000X0.900000*%
%TD*%
%TA.AperFunction,SMDPad,CuDef*%
%ADD13R,0.900000X1.200000*%
%TD*%
%TA.AperFunction,SMDPad,CuDef*%
%ADD14R,0.800000X0.900000*%
%TD*%
%TA.AperFunction,SMDPad,CuDef*%
%ADD15R,0.900000X0.800000*%
%TD*%
%TA.AperFunction,ViaPad*%
%ADD16C,0.800000*%
%TD*%
%TA.AperFunction,Conductor*%
%ADD17C,0.250000*%
%TD*%
%TA.AperFunction,NonConductor*%
%ADD18C,0.254000*%
%TD*%
%TA.AperFunction,NonConductor*%
%ADD19C,0.100000*%
%TD*%
G04 APERTURE END LIST*
D10*
%TO.P,J7,8*%
%TO.N,BASS_TRIG_BACK*%
X28690000Y-84000000D03*
%TO.P,J7,7*%
%TO.N,BASS_DECAY_BACK*%
X26150000Y-84000000D03*
%TO.P,J7,6*%
%TO.N,BASS_LED_BACK*%
X23610000Y-84000000D03*
%TO.P,J7,5*%
%TO.N,BASS_OUT_BACK*%
X21070000Y-84000000D03*
%TO.P,J7,4*%
%TO.N,SNARE_TRIGGER_BACK*%
X18530000Y-84000000D03*
%TO.P,J7,3*%
%TO.N,SNARE_DECAY_BACK*%
X15990000Y-84000000D03*
%TO.P,J7,2*%
%TO.N,SNARE_NOISE_BACK*%
X13450000Y-84000000D03*
D11*
%TO.P,J7,1*%
%TO.N,SNARE_BODY_BACK*%
X10910000Y-84000000D03*
%TD*%
D10*
%TO.P,J4,8*%
%TO.N,+12V*%
X25690000Y-30000000D03*
%TO.P,J4,7*%
%TO.N,Net-(J4-Pad7)*%
X23150000Y-30000000D03*
%TO.P,J4,6*%
%TO.N,-12V*%
X20610000Y-30000000D03*
%TO.P,J4,5*%
%TO.N,NOISE_CUTOFF_BACK*%
X18070000Y-30000000D03*
%TO.P,J4,4*%
%TO.N,HH_TRIG_BACK*%
X15530000Y-30000000D03*
%TO.P,J4,3*%
%TO.N,HH_DECAY_BACK*%
X12990000Y-30000000D03*
%TO.P,J4,2*%
%TO.N,HH_OUT_BACK*%
X10450000Y-30000000D03*
D11*
%TO.P,J4,1*%
%TO.N,GND*%
X7910000Y-30000000D03*
%TD*%
%TO.P,C13,1*%
%TO.N,Net-(C13-Pad1)*%
%TA.AperFunction,SMDPad,CuDef*%
G36*
G01*
X3015000Y-39725000D02*
X2065000Y-39725000D01*
G75*
G02*
X1815000Y-39475000I0J250000D01*
G01*
X1815000Y-38800000D01*
G75*
G02*
X2065000Y-38550000I250000J0D01*
G01*
X3015000Y-38550000D01*
G75*
G02*
X3265000Y-38800000I0J-250000D01*
G01*
X3265000Y-39475000D01*
G75*
G02*
X3015000Y-39725000I-250000J0D01*
G01*
G37*
%TD.AperFunction*%
%TO.P,C13,2*%
%TO.N,Net-(C13-Pad2)*%
%TA.AperFunction,SMDPad,CuDef*%
G36*
G01*
X3015000Y-37650000D02*
X2065000Y-37650000D01*
G75*
G02*
X1815000Y-37400000I0J250000D01*
G01*
X1815000Y-36725000D01*
G75*
G02*
X2065000Y-36475000I250000J0D01*
G01*
X3015000Y-36475000D01*
G75*
G02*
X3265000Y-36725000I0J-250000D01*
G01*
X3265000Y-37400000D01*
G75*
G02*
X3015000Y-37650000I-250000J0D01*
G01*
G37*
%TD.AperFunction*%
%TD*%
%TO.P,C17,2*%
%TO.N,HH_DECAY_BACK*%
%TA.AperFunction,SMDPad,CuDef*%
G36*
G01*
X6800000Y-34765000D02*
X6800000Y-33815000D01*
G75*
G02*
X7050000Y-33565000I250000J0D01*
G01*
X7725000Y-33565000D01*
G75*
G02*
X7975000Y-33815000I0J-250000D01*
G01*
X7975000Y-34765000D01*
G75*
G02*
X7725000Y-35015000I-250000J0D01*
G01*
X7050000Y-35015000D01*
G75*
G02*
X6800000Y-34765000I0J250000D01*
G01*
G37*
%TD.AperFunction*%
%TO.P,C17,1*%
%TO.N,GND*%
%TA.AperFunction,SMDPad,CuDef*%
G36*
G01*
X4725000Y-34765000D02*
X4725000Y-33815000D01*
G75*
G02*
X4975000Y-33565000I250000J0D01*
G01*
X5650000Y-33565000D01*
G75*
G02*
X5900000Y-33815000I0J-250000D01*
G01*
X5900000Y-34765000D01*
G75*
G02*
X5650000Y-35015000I-250000J0D01*
G01*
X4975000Y-35015000D01*
G75*
G02*
X4725000Y-34765000I0J250000D01*
G01*
G37*
%TD.AperFunction*%
%TD*%
%TO.P,C18,1*%
%TO.N,Net-(C18-Pad1)*%
%TA.AperFunction,SMDPad,CuDef*%
G36*
G01*
X13055000Y-43340000D02*
X13055000Y-44290000D01*
G75*
G02*
X12805000Y-44540000I-250000J0D01*
G01*
X12130000Y-44540000D01*
G75*
G02*
X11880000Y-44290000I0J250000D01*
G01*
X11880000Y-43340000D01*
G75*
G02*
X12130000Y-43090000I250000J0D01*
G01*
X12805000Y-43090000D01*
G75*
G02*
X13055000Y-43340000I0J-250000D01*
G01*
G37*
%TD.AperFunction*%
%TO.P,C18,2*%
%TO.N,Net-(C18-Pad2)*%
%TA.AperFunction,SMDPad,CuDef*%
G36*
G01*
X10980000Y-43340000D02*
X10980000Y-44290000D01*
G75*
G02*
X10730000Y-44540000I-250000J0D01*
G01*
X10055000Y-44540000D01*
G75*
G02*
X9805000Y-44290000I0J250000D01*
G01*
X9805000Y-43340000D01*
G75*
G02*
X10055000Y-43090000I250000J0D01*
G01*
X10730000Y-43090000D01*
G75*
G02*
X10980000Y-43340000I0J-250000D01*
G01*
G37*
%TD.AperFunction*%
%TD*%
%TO.P,C19,1*%
%TO.N,Net-(C19-Pad1)*%
%TA.AperFunction,SMDPad,CuDef*%
G36*
G01*
X22065000Y-35682500D02*
X21115000Y-35682500D01*
G75*
G02*
X20865000Y-35432500I0J250000D01*
G01*
X20865000Y-34757500D01*
G75*
G02*
X21115000Y-34507500I250000J0D01*
G01*
X22065000Y-34507500D01*
G75*
G02*
X22315000Y-34757500I0J-250000D01*
G01*
X22315000Y-35432500D01*
G75*
G02*
X22065000Y-35682500I-250000J0D01*
G01*
G37*
%TD.AperFunction*%
%TO.P,C19,2*%
%TO.N,Net-(C19-Pad2)*%
%TA.AperFunction,SMDPad,CuDef*%
G36*
G01*
X22065000Y-33607500D02*
X21115000Y-33607500D01*
G75*
G02*
X20865000Y-33357500I0J250000D01*
G01*
X20865000Y-32682500D01*
G75*
G02*
X21115000Y-32432500I250000J0D01*
G01*
X22065000Y-32432500D01*
G75*
G02*
X22315000Y-32682500I0J-250000D01*
G01*
X22315000Y-33357500D01*
G75*
G02*
X22065000Y-33607500I-250000J0D01*
G01*
G37*
%TD.AperFunction*%
%TD*%
%TO.P,C20,2*%
%TO.N,Net-(C19-Pad1)*%
%TA.AperFunction,SMDPad,CuDef*%
G36*
G01*
X22065000Y-41460000D02*
X21115000Y-41460000D01*
G75*
G02*
X20865000Y-41210000I0J250000D01*
G01*
X20865000Y-40535000D01*
G75*
G02*
X21115000Y-40285000I250000J0D01*
G01*
X22065000Y-40285000D01*
G75*
G02*
X22315000Y-40535000I0J-250000D01*
G01*
X22315000Y-41210000D01*
G75*
G02*
X22065000Y-41460000I-250000J0D01*
G01*
G37*
%TD.AperFunction*%
%TO.P,C20,1*%
%TO.N,Net-(C20-Pad1)*%
%TA.AperFunction,SMDPad,CuDef*%
G36*
G01*
X22065000Y-43535000D02*
X21115000Y-43535000D01*
G75*
G02*
X20865000Y-43285000I0J250000D01*
G01*
X20865000Y-42610000D01*
G75*
G02*
X21115000Y-42360000I250000J0D01*
G01*
X22065000Y-42360000D01*
G75*
G02*
X22315000Y-42610000I0J-250000D01*
G01*
X22315000Y-43285000D01*
G75*
G02*
X22065000Y-43535000I-250000J0D01*
G01*
G37*
%TD.AperFunction*%
%TD*%
%TO.P,C22,1*%
%TO.N,Net-(C22-Pad1)*%
%TA.AperFunction,SMDPad,CuDef*%
G36*
G01*
X2065000Y-47905000D02*
X3015000Y-47905000D01*
G75*
G02*
X3265000Y-48155000I0J-250000D01*
G01*
X3265000Y-48830000D01*
G75*
G02*
X3015000Y-49080000I-250000J0D01*
G01*
X2065000Y-49080000D01*
G75*
G02*
X1815000Y-48830000I0J250000D01*
G01*
X1815000Y-48155000D01*
G75*
G02*
X2065000Y-47905000I250000J0D01*
G01*
G37*
%TD.AperFunction*%
%TO.P,C22,2*%
%TO.N,Net-(C22-Pad2)*%
%TA.AperFunction,SMDPad,CuDef*%
G36*
G01*
X2065000Y-49980000D02*
X3015000Y-49980000D01*
G75*
G02*
X3265000Y-50230000I0J-250000D01*
G01*
X3265000Y-50905000D01*
G75*
G02*
X3015000Y-51155000I-250000J0D01*
G01*
X2065000Y-51155000D01*
G75*
G02*
X1815000Y-50905000I0J250000D01*
G01*
X1815000Y-50230000D01*
G75*
G02*
X2065000Y-49980000I250000J0D01*
G01*
G37*
%TD.AperFunction*%
%TD*%
%TO.P,C23,2*%
%TO.N,Net-(C23-Pad2)*%
%TA.AperFunction,SMDPad,CuDef*%
G36*
G01*
X20770000Y-74135000D02*
X20770000Y-73185000D01*
G75*
G02*
X21020000Y-72935000I250000J0D01*
G01*
X21695000Y-72935000D01*
G75*
G02*
X21945000Y-73185000I0J-250000D01*
G01*
X21945000Y-74135000D01*
G75*
G02*
X21695000Y-74385000I-250000J0D01*
G01*
X21020000Y-74385000D01*
G75*
G02*
X20770000Y-74135000I0J250000D01*
G01*
G37*
%TD.AperFunction*%
%TO.P,C23,1*%
%TO.N,Net-(C23-Pad1)*%
%TA.AperFunction,SMDPad,CuDef*%
G36*
G01*
X18695000Y-74135000D02*
X18695000Y-73185000D01*
G75*
G02*
X18945000Y-72935000I250000J0D01*
G01*
X19620000Y-72935000D01*
G75*
G02*
X19870000Y-73185000I0J-250000D01*
G01*
X19870000Y-74135000D01*
G75*
G02*
X19620000Y-74385000I-250000J0D01*
G01*
X18945000Y-74385000D01*
G75*
G02*
X18695000Y-74135000I0J250000D01*
G01*
G37*
%TD.AperFunction*%
%TD*%
%TO.P,C25,2*%
%TO.N,Net-(C25-Pad2)*%
%TA.AperFunction,SMDPad,CuDef*%
G36*
G01*
X9685000Y-90620000D02*
X10635000Y-90620000D01*
G75*
G02*
X10885000Y-90870000I0J-250000D01*
G01*
X10885000Y-91545000D01*
G75*
G02*
X10635000Y-91795000I-250000J0D01*
G01*
X9685000Y-91795000D01*
G75*
G02*
X9435000Y-91545000I0J250000D01*
G01*
X9435000Y-90870000D01*
G75*
G02*
X9685000Y-90620000I250000J0D01*
G01*
G37*
%TD.AperFunction*%
%TO.P,C25,1*%
%TO.N,Net-(C25-Pad1)*%
%TA.AperFunction,SMDPad,CuDef*%
G36*
G01*
X9685000Y-88545000D02*
X10635000Y-88545000D01*
G75*
G02*
X10885000Y-88795000I0J-250000D01*
G01*
X10885000Y-89470000D01*
G75*
G02*
X10635000Y-89720000I-250000J0D01*
G01*
X9685000Y-89720000D01*
G75*
G02*
X9435000Y-89470000I0J250000D01*
G01*
X9435000Y-88795000D01*
G75*
G02*
X9685000Y-88545000I250000J0D01*
G01*
G37*
%TD.AperFunction*%
%TD*%
%TO.P,C26,1*%
%TO.N,Net-(C26-Pad1)*%
%TA.AperFunction,SMDPad,CuDef*%
G36*
G01*
X14425000Y-94925000D02*
X14425000Y-95875000D01*
G75*
G02*
X14175000Y-96125000I-250000J0D01*
G01*
X13500000Y-96125000D01*
G75*
G02*
X13250000Y-95875000I0J250000D01*
G01*
X13250000Y-94925000D01*
G75*
G02*
X13500000Y-94675000I250000J0D01*
G01*
X14175000Y-94675000D01*
G75*
G02*
X14425000Y-94925000I0J-250000D01*
G01*
G37*
%TD.AperFunction*%
%TO.P,C26,2*%
%TO.N,Net-(C25-Pad2)*%
%TA.AperFunction,SMDPad,CuDef*%
G36*
G01*
X12350000Y-94925000D02*
X12350000Y-95875000D01*
G75*
G02*
X12100000Y-96125000I-250000J0D01*
G01*
X11425000Y-96125000D01*
G75*
G02*
X11175000Y-95875000I0J250000D01*
G01*
X11175000Y-94925000D01*
G75*
G02*
X11425000Y-94675000I250000J0D01*
G01*
X12100000Y-94675000D01*
G75*
G02*
X12350000Y-94925000I0J-250000D01*
G01*
G37*
%TD.AperFunction*%
%TD*%
%TO.P,C28,2*%
%TO.N,Net-(C26-Pad1)*%
%TA.AperFunction,SMDPad,CuDef*%
G36*
G01*
X14212500Y-92475000D02*
X14212500Y-91525000D01*
G75*
G02*
X14462500Y-91275000I250000J0D01*
G01*
X15137500Y-91275000D01*
G75*
G02*
X15387500Y-91525000I0J-250000D01*
G01*
X15387500Y-92475000D01*
G75*
G02*
X15137500Y-92725000I-250000J0D01*
G01*
X14462500Y-92725000D01*
G75*
G02*
X14212500Y-92475000I0J250000D01*
G01*
G37*
%TD.AperFunction*%
%TO.P,C28,1*%
%TO.N,Net-(C28-Pad1)*%
%TA.AperFunction,SMDPad,CuDef*%
G36*
G01*
X12137500Y-92475000D02*
X12137500Y-91525000D01*
G75*
G02*
X12387500Y-91275000I250000J0D01*
G01*
X13062500Y-91275000D01*
G75*
G02*
X13312500Y-91525000I0J-250000D01*
G01*
X13312500Y-92475000D01*
G75*
G02*
X13062500Y-92725000I-250000J0D01*
G01*
X12387500Y-92725000D01*
G75*
G02*
X12137500Y-92475000I0J250000D01*
G01*
G37*
%TD.AperFunction*%
%TD*%
%TO.P,C33,2*%
%TO.N,Net-(C25-Pad1)*%
%TA.AperFunction,SMDPad,CuDef*%
G36*
G01*
X5530000Y-79215000D02*
X5530000Y-78265000D01*
G75*
G02*
X5780000Y-78015000I250000J0D01*
G01*
X6455000Y-78015000D01*
G75*
G02*
X6705000Y-78265000I0J-250000D01*
G01*
X6705000Y-79215000D01*
G75*
G02*
X6455000Y-79465000I-250000J0D01*
G01*
X5780000Y-79465000D01*
G75*
G02*
X5530000Y-79215000I0J250000D01*
G01*
G37*
%TD.AperFunction*%
%TO.P,C33,1*%
%TO.N,BASS_LED_BACK*%
%TA.AperFunction,SMDPad,CuDef*%
G36*
G01*
X3455000Y-79215000D02*
X3455000Y-78265000D01*
G75*
G02*
X3705000Y-78015000I250000J0D01*
G01*
X4380000Y-78015000D01*
G75*
G02*
X4630000Y-78265000I0J-250000D01*
G01*
X4630000Y-79215000D01*
G75*
G02*
X4380000Y-79465000I-250000J0D01*
G01*
X3705000Y-79465000D01*
G75*
G02*
X3455000Y-79215000I0J250000D01*
G01*
G37*
%TD.AperFunction*%
%TD*%
%TO.P,C37,1*%
%TO.N,Net-(C37-Pad1)*%
%TA.AperFunction,SMDPad,CuDef*%
G36*
G01*
X6625000Y-73685000D02*
X6625000Y-74635000D01*
G75*
G02*
X6375000Y-74885000I-250000J0D01*
G01*
X5700000Y-74885000D01*
G75*
G02*
X5450000Y-74635000I0J250000D01*
G01*
X5450000Y-73685000D01*
G75*
G02*
X5700000Y-73435000I250000J0D01*
G01*
X6375000Y-73435000D01*
G75*
G02*
X6625000Y-73685000I0J-250000D01*
G01*
G37*
%TD.AperFunction*%
%TO.P,C37,2*%
%TO.N,Net-(C37-Pad2)*%
%TA.AperFunction,SMDPad,CuDef*%
G36*
G01*
X4550000Y-73685000D02*
X4550000Y-74635000D01*
G75*
G02*
X4300000Y-74885000I-250000J0D01*
G01*
X3625000Y-74885000D01*
G75*
G02*
X3375000Y-74635000I0J250000D01*
G01*
X3375000Y-73685000D01*
G75*
G02*
X3625000Y-73435000I250000J0D01*
G01*
X4300000Y-73435000D01*
G75*
G02*
X4550000Y-73685000I0J-250000D01*
G01*
G37*
%TD.AperFunction*%
%TD*%
D12*
%TO.P,D4,2*%
%TO.N,Net-(C13-Pad1)*%
X6350000Y-41020000D03*
%TO.P,D4,1*%
%TO.N,Net-(D4-Pad1)*%
X6350000Y-37720000D03*
%TD*%
%TO.P,D5,1*%
%TO.N,GND*%
X2540000Y-31370000D03*
%TO.P,D5,2*%
%TO.N,Net-(D4-Pad1)*%
X2540000Y-34670000D03*
%TD*%
%TO.P,D6,1*%
%TO.N,HH_DECAY_BACK*%
X9525000Y-37720000D03*
%TO.P,D6,2*%
%TO.N,Net-(C13-Pad1)*%
X9525000Y-41020000D03*
%TD*%
D13*
%TO.P,D9,2*%
%TO.N,Net-(C23-Pad1)*%
X23750000Y-80010000D03*
%TO.P,D9,1*%
%TO.N,Net-(D9-Pad1)*%
X27050000Y-80010000D03*
%TD*%
D11*
%TO.P,J1,1*%
%TO.N,Net-(J1-Pad1)*%
X25000000Y-5280000D03*
D10*
%TO.P,J1,2*%
X25000000Y-2740000D03*
%TO.P,J1,3*%
%TO.N,GND*%
X22460000Y-5280000D03*
%TO.P,J1,4*%
X22460000Y-2740000D03*
%TO.P,J1,5*%
X19920000Y-5280000D03*
%TO.P,J1,6*%
X19920000Y-2740000D03*
%TO.P,J1,7*%
X17380000Y-5280000D03*
%TO.P,J1,8*%
X17380000Y-2740000D03*
%TO.P,J1,9*%
%TO.N,Net-(J1-Pad10)*%
X14840000Y-5280000D03*
%TO.P,J1,10*%
X14840000Y-2740000D03*
%TD*%
D11*
%TO.P,FILTER_Q,1*%
%TO.N,Net-(C14-Pad2)*%
X27940000Y-43180000D03*
D10*
%TO.P,FILTER_Q,2*%
%TO.N,Net-(C15-Pad2)*%
X27940000Y-40640000D03*
%TD*%
D11*
%TO.P,NOISE_TYPE,1*%
%TO.N,NOISE*%
X21590000Y-63500000D03*
D10*
%TO.P,NOISE_TYPE,2*%
%TO.N,Net-(JP2-Pad2)*%
X24130000Y-63500000D03*
%TO.P,NOISE_TYPE,3*%
%TO.N,FILTERED_NOISE*%
X26670000Y-63500000D03*
%TD*%
D14*
%TO.P,Q3,3*%
%TO.N,Net-(C19-Pad2)*%
X17145000Y-33290000D03*
%TO.P,Q3,2*%
%TO.N,GND*%
X18095000Y-35290000D03*
%TO.P,Q3,1*%
%TO.N,Net-(C18-Pad1)*%
X16195000Y-35290000D03*
%TD*%
D15*
%TO.P,Q4,1*%
%TO.N,Net-(C28-Pad1)*%
X12900000Y-79690000D03*
%TO.P,Q4,2*%
%TO.N,Net-(Q4-Pad2)*%
X12900000Y-77790000D03*
%TO.P,Q4,3*%
%TO.N,Net-(C25-Pad1)*%
X10900000Y-78740000D03*
%TD*%
%TO.P,U3,1*%
%TO.N,Net-(C13-Pad2)*%
%TA.AperFunction,SMDPad,CuDef*%
G36*
G01*
X9800000Y-25250000D02*
X9800000Y-25550000D01*
G75*
G02*
X9650000Y-25700000I-150000J0D01*
G01*
X8000000Y-25700000D01*
G75*
G02*
X7850000Y-25550000I0J150000D01*
G01*
X7850000Y-25250000D01*
G75*
G02*
X8000000Y-25100000I150000J0D01*
G01*
X9650000Y-25100000D01*
G75*
G02*
X9800000Y-25250000I0J-150000D01*
G01*
G37*
%TD.AperFunction*%
%TO.P,U3,2*%
%TO.N,Net-(R4-Pad1)*%
%TA.AperFunction,SMDPad,CuDef*%
G36*
G01*
X9800000Y-23980000D02*
X9800000Y-24280000D01*
G75*
G02*
X9650000Y-24430000I-150000J0D01*
G01*
X8000000Y-24430000D01*
G75*
G02*
X7850000Y-24280000I0J150000D01*
G01*
X7850000Y-23980000D01*
G75*
G02*
X8000000Y-23830000I150000J0D01*
G01*
X9650000Y-23830000D01*
G75*
G02*
X9800000Y-23980000I0J-150000D01*
G01*
G37*
%TD.AperFunction*%
%TO.P,U3,3*%
%TO.N,HH_TRIG_BACK*%
%TA.AperFunction,SMDPad,CuDef*%
G36*
G01*
X9800000Y-22710000D02*
X9800000Y-23010000D01*
G75*
G02*
X9650000Y-23160000I-150000J0D01*
G01*
X8000000Y-23160000D01*
G75*
G02*
X7850000Y-23010000I0J150000D01*
G01*
X7850000Y-22710000D01*
G75*
G02*
X8000000Y-22560000I150000J0D01*
G01*
X9650000Y-22560000D01*
G75*
G02*
X9800000Y-22710000I0J-150000D01*
G01*
G37*
%TD.AperFunction*%
%TO.P,U3,4*%
%TO.N,+5V*%
%TA.AperFunction,SMDPad,CuDef*%
G36*
G01*
X9800000Y-21440000D02*
X9800000Y-21740000D01*
G75*
G02*
X9650000Y-21890000I-150000J0D01*
G01*
X8000000Y-21890000D01*
G75*
G02*
X7850000Y-21740000I0J150000D01*
G01*
X7850000Y-21440000D01*
G75*
G02*
X8000000Y-21290000I150000J0D01*
G01*
X9650000Y-21290000D01*
G75*
G02*
X9800000Y-21440000I0J-150000D01*
G01*
G37*
%TD.AperFunction*%
%TO.P,U3,5*%
%TO.N,SNARE_TRIGGER_BACK*%
%TA.AperFunction,SMDPad,CuDef*%
G36*
G01*
X9800000Y-20170000D02*
X9800000Y-20470000D01*
G75*
G02*
X9650000Y-20620000I-150000J0D01*
G01*
X8000000Y-20620000D01*
G75*
G02*
X7850000Y-20470000I0J150000D01*
G01*
X7850000Y-20170000D01*
G75*
G02*
X8000000Y-20020000I150000J0D01*
G01*
X9650000Y-20020000D01*
G75*
G02*
X9800000Y-20170000I0J-150000D01*
G01*
G37*
%TD.AperFunction*%
%TO.P,U3,6*%
%TO.N,Net-(R27-Pad1)*%
%TA.AperFunction,SMDPad,CuDef*%
G36*
G01*
X9800000Y-18900000D02*
X9800000Y-19200000D01*
G75*
G02*
X9650000Y-19350000I-150000J0D01*
G01*
X8000000Y-19350000D01*
G75*
G02*
X7850000Y-19200000I0J150000D01*
G01*
X7850000Y-18900000D01*
G75*
G02*
X8000000Y-18750000I150000J0D01*
G01*
X9650000Y-18750000D01*
G75*
G02*
X9800000Y-18900000I0J-150000D01*
G01*
G37*
%TD.AperFunction*%
%TO.P,U3,7*%
%TO.N,Net-(C24-Pad2)*%
%TA.AperFunction,SMDPad,CuDef*%
G36*
G01*
X9800000Y-17630000D02*
X9800000Y-17930000D01*
G75*
G02*
X9650000Y-18080000I-150000J0D01*
G01*
X8000000Y-18080000D01*
G75*
G02*
X7850000Y-17930000I0J150000D01*
G01*
X7850000Y-17630000D01*
G75*
G02*
X8000000Y-17480000I150000J0D01*
G01*
X9650000Y-17480000D01*
G75*
G02*
X9800000Y-17630000I0J-150000D01*
G01*
G37*
%TD.AperFunction*%
%TO.P,U3,8*%
%TO.N,Net-(C23-Pad2)*%
%TA.AperFunction,SMDPad,CuDef*%
G36*
G01*
X4850000Y-17630000D02*
X4850000Y-17930000D01*
G75*
G02*
X4700000Y-18080000I-150000J0D01*
G01*
X3050000Y-18080000D01*
G75*
G02*
X2900000Y-17930000I0J150000D01*
G01*
X2900000Y-17630000D01*
G75*
G02*
X3050000Y-17480000I150000J0D01*
G01*
X4700000Y-17480000D01*
G75*
G02*
X4850000Y-17630000I0J-150000D01*
G01*
G37*
%TD.AperFunction*%
%TO.P,U3,9*%
%TO.N,Net-(R25-Pad1)*%
%TA.AperFunction,SMDPad,CuDef*%
G36*
G01*
X4850000Y-18900000D02*
X4850000Y-19200000D01*
G75*
G02*
X4700000Y-19350000I-150000J0D01*
G01*
X3050000Y-19350000D01*
G75*
G02*
X2900000Y-19200000I0J150000D01*
G01*
X2900000Y-18900000D01*
G75*
G02*
X3050000Y-18750000I150000J0D01*
G01*
X4700000Y-18750000D01*
G75*
G02*
X4850000Y-18900000I0J-150000D01*
G01*
G37*
%TD.AperFunction*%
%TO.P,U3,10*%
%TO.N,BASS_TRIG_BACK*%
%TA.AperFunction,SMDPad,CuDef*%
G36*
G01*
X4850000Y-20170000D02*
X4850000Y-20470000D01*
G75*
G02*
X4700000Y-20620000I-150000J0D01*
G01*
X3050000Y-20620000D01*
G75*
G02*
X2900000Y-20470000I0J150000D01*
G01*
X2900000Y-20170000D01*
G75*
G02*
X3050000Y-20020000I150000J0D01*
G01*
X4700000Y-20020000D01*
G75*
G02*
X4850000Y-20170000I0J-150000D01*
G01*
G37*
%TD.AperFunction*%
%TO.P,U3,11*%
%TO.N,GND*%
%TA.AperFunction,SMDPad,CuDef*%
G36*
G01*
X4850000Y-21440000D02*
X4850000Y-21740000D01*
G75*
G02*
X4700000Y-21890000I-150000J0D01*
G01*
X3050000Y-21890000D01*
G75*
G02*
X2900000Y-21740000I0J150000D01*
G01*
X2900000Y-21440000D01*
G75*
G02*
X3050000Y-21290000I150000J0D01*
G01*
X4700000Y-21290000D01*
G75*
G02*
X4850000Y-21440000I0J-150000D01*
G01*
G37*
%TD.AperFunction*%
%TO.P,U3,12*%
%TA.AperFunction,SMDPad,CuDef*%
G36*
G01*
X4850000Y-22710000D02*
X4850000Y-23010000D01*
G75*
G02*
X4700000Y-23160000I-150000J0D01*
G01*
X3050000Y-23160000D01*
G75*
G02*
X2900000Y-23010000I0J150000D01*
G01*
X2900000Y-22710000D01*
G75*
G02*
X3050000Y-22560000I150000J0D01*
G01*
X4700000Y-22560000D01*
G75*
G02*
X4850000Y-22710000I0J-150000D01*
G01*
G37*
%TD.AperFunction*%
%TO.P,U3,13*%
%TO.N,Net-(U3-Pad13)*%
%TA.AperFunction,SMDPad,CuDef*%
G36*
G01*
X4850000Y-23980000D02*
X4850000Y-24280000D01*
G75*
G02*
X4700000Y-24430000I-150000J0D01*
G01*
X3050000Y-24430000D01*
G75*
G02*
X2900000Y-24280000I0J150000D01*
G01*
X2900000Y-23980000D01*
G75*
G02*
X3050000Y-23830000I150000J0D01*
G01*
X4700000Y-23830000D01*
G75*
G02*
X4850000Y-23980000I0J-150000D01*
G01*
G37*
%TD.AperFunction*%
%TO.P,U3,14*%
%TA.AperFunction,SMDPad,CuDef*%
G36*
G01*
X4850000Y-25250000D02*
X4850000Y-25550000D01*
G75*
G02*
X4700000Y-25700000I-150000J0D01*
G01*
X3050000Y-25700000D01*
G75*
G02*
X2900000Y-25550000I0J150000D01*
G01*
X2900000Y-25250000D01*
G75*
G02*
X3050000Y-25100000I150000J0D01*
G01*
X4700000Y-25100000D01*
G75*
G02*
X4850000Y-25250000I0J-150000D01*
G01*
G37*
%TD.AperFunction*%
%TD*%
%TO.P,R4,2*%
%TO.N,GND*%
%TA.AperFunction,SMDPad,CuDef*%
G36*
G01*
X13344997Y-23760000D02*
X14595003Y-23760000D01*
G75*
G02*
X14845000Y-24009997I0J-249997D01*
G01*
X14845000Y-24635003D01*
G75*
G02*
X14595003Y-24885000I-249997J0D01*
G01*
X13344997Y-24885000D01*
G75*
G02*
X13095000Y-24635003I0J249997D01*
G01*
X13095000Y-24009997D01*
G75*
G02*
X13344997Y-23760000I249997J0D01*
G01*
G37*
%TD.AperFunction*%
%TO.P,R4,1*%
%TO.N,Net-(R4-Pad1)*%
%TA.AperFunction,SMDPad,CuDef*%
G36*
G01*
X13344997Y-20835000D02*
X14595003Y-20835000D01*
G75*
G02*
X14845000Y-21084997I0J-249997D01*
G01*
X14845000Y-21710003D01*
G75*
G02*
X14595003Y-21960000I-249997J0D01*
G01*
X13344997Y-21960000D01*
G75*
G02*
X13095000Y-21710003I0J249997D01*
G01*
X13095000Y-21084997D01*
G75*
G02*
X13344997Y-20835000I249997J0D01*
G01*
G37*
%TD.AperFunction*%
%TD*%
%TO.P,R6,1*%
%TO.N,+5V*%
%TA.AperFunction,SMDPad,CuDef*%
G36*
G01*
X19040003Y-24885000D02*
X17789997Y-24885000D01*
G75*
G02*
X17540000Y-24635003I0J249997D01*
G01*
X17540000Y-24009997D01*
G75*
G02*
X17789997Y-23760000I249997J0D01*
G01*
X19040003Y-23760000D01*
G75*
G02*
X19290000Y-24009997I0J-249997D01*
G01*
X19290000Y-24635003D01*
G75*
G02*
X19040003Y-24885000I-249997J0D01*
G01*
G37*
%TD.AperFunction*%
%TO.P,R6,2*%
%TO.N,Net-(R4-Pad1)*%
%TA.AperFunction,SMDPad,CuDef*%
G36*
G01*
X19040003Y-21960000D02*
X17789997Y-21960000D01*
G75*
G02*
X17540000Y-21710003I0J249997D01*
G01*
X17540000Y-21084997D01*
G75*
G02*
X17789997Y-20835000I249997J0D01*
G01*
X19040003Y-20835000D01*
G75*
G02*
X19290000Y-21084997I0J-249997D01*
G01*
X19290000Y-21710003D01*
G75*
G02*
X19040003Y-21960000I-249997J0D01*
G01*
G37*
%TD.AperFunction*%
%TD*%
%TO.P,R10,2*%
%TO.N,Net-(C13-Pad1)*%
%TA.AperFunction,SMDPad,CuDef*%
G36*
G01*
X1640000Y-41284997D02*
X1640000Y-42535003D01*
G75*
G02*
X1390003Y-42785000I-249997J0D01*
G01*
X764997Y-42785000D01*
G75*
G02*
X515000Y-42535003I0J249997D01*
G01*
X515000Y-41284997D01*
G75*
G02*
X764997Y-41035000I249997J0D01*
G01*
X1390003Y-41035000D01*
G75*
G02*
X1640000Y-41284997I0J-249997D01*
G01*
G37*
%TD.AperFunction*%
%TO.P,R10,1*%
%TO.N,GND*%
%TA.AperFunction,SMDPad,CuDef*%
G36*
G01*
X4565000Y-41284997D02*
X4565000Y-42535003D01*
G75*
G02*
X4315003Y-42785000I-249997J0D01*
G01*
X3689997Y-42785000D01*
G75*
G02*
X3440000Y-42535003I0J249997D01*
G01*
X3440000Y-41284997D01*
G75*
G02*
X3689997Y-41035000I249997J0D01*
G01*
X4315003Y-41035000D01*
G75*
G02*
X4565000Y-41284997I0J-249997D01*
G01*
G37*
%TD.AperFunction*%
%TD*%
%TO.P,R12,2*%
%TO.N,Net-(C18-Pad2)*%
%TA.AperFunction,SMDPad,CuDef*%
G36*
G01*
X8245003Y-43550000D02*
X6994997Y-43550000D01*
G75*
G02*
X6745000Y-43300003I0J249997D01*
G01*
X6745000Y-42674997D01*
G75*
G02*
X6994997Y-42425000I249997J0D01*
G01*
X8245003Y-42425000D01*
G75*
G02*
X8495000Y-42674997I0J-249997D01*
G01*
X8495000Y-43300003D01*
G75*
G02*
X8245003Y-43550000I-249997J0D01*
G01*
G37*
%TD.AperFunction*%
%TO.P,R12,1*%
%TO.N,FILTERED_NOISE*%
%TA.AperFunction,SMDPad,CuDef*%
G36*
G01*
X8245003Y-46475000D02*
X6994997Y-46475000D01*
G75*
G02*
X6745000Y-46225003I0J249997D01*
G01*
X6745000Y-45599997D01*
G75*
G02*
X6994997Y-45350000I249997J0D01*
G01*
X8245003Y-45350000D01*
G75*
G02*
X8495000Y-45599997I0J-249997D01*
G01*
X8495000Y-46225003D01*
G75*
G02*
X8245003Y-46475000I-249997J0D01*
G01*
G37*
%TD.AperFunction*%
%TD*%
%TO.P,R14,2*%
%TO.N,Net-(C18-Pad1)*%
%TA.AperFunction,SMDPad,CuDef*%
G36*
G01*
X12074997Y-36190000D02*
X13325003Y-36190000D01*
G75*
G02*
X13575000Y-36439997I0J-249997D01*
G01*
X13575000Y-37065003D01*
G75*
G02*
X13325003Y-37315000I-249997J0D01*
G01*
X12074997Y-37315000D01*
G75*
G02*
X11825000Y-37065003I0J249997D01*
G01*
X11825000Y-36439997D01*
G75*
G02*
X12074997Y-36190000I249997J0D01*
G01*
G37*
%TD.AperFunction*%
%TO.P,R14,1*%
%TO.N,HH_DECAY_BACK*%
%TA.AperFunction,SMDPad,CuDef*%
G36*
G01*
X12074997Y-33265000D02*
X13325003Y-33265000D01*
G75*
G02*
X13575000Y-33514997I0J-249997D01*
G01*
X13575000Y-34140003D01*
G75*
G02*
X13325003Y-34390000I-249997J0D01*
G01*
X12074997Y-34390000D01*
G75*
G02*
X11825000Y-34140003I0J249997D01*
G01*
X11825000Y-33514997D01*
G75*
G02*
X12074997Y-33265000I249997J0D01*
G01*
G37*
%TD.AperFunction*%
%TD*%
%TO.P,R18,1*%
%TO.N,Net-(C19-Pad2)*%
%TA.AperFunction,SMDPad,CuDef*%
G36*
G01*
X23375000Y-34280003D02*
X23375000Y-33029997D01*
G75*
G02*
X23624997Y-32780000I249997J0D01*
G01*
X24250003Y-32780000D01*
G75*
G02*
X24500000Y-33029997I0J-249997D01*
G01*
X24500000Y-34280003D01*
G75*
G02*
X24250003Y-34530000I-249997J0D01*
G01*
X23624997Y-34530000D01*
G75*
G02*
X23375000Y-34280003I0J249997D01*
G01*
G37*
%TD.AperFunction*%
%TO.P,R18,2*%
%TO.N,+5V*%
%TA.AperFunction,SMDPad,CuDef*%
G36*
G01*
X26300000Y-34280003D02*
X26300000Y-33029997D01*
G75*
G02*
X26549997Y-32780000I249997J0D01*
G01*
X27175003Y-32780000D01*
G75*
G02*
X27425000Y-33029997I0J-249997D01*
G01*
X27425000Y-34280003D01*
G75*
G02*
X27175003Y-34530000I-249997J0D01*
G01*
X26549997Y-34530000D01*
G75*
G02*
X26300000Y-34280003I0J249997D01*
G01*
G37*
%TD.AperFunction*%
%TD*%
%TO.P,R19,2*%
%TO.N,Net-(C19-Pad1)*%
%TA.AperFunction,SMDPad,CuDef*%
G36*
G01*
X21220000Y-38725003D02*
X21220000Y-37474997D01*
G75*
G02*
X21469997Y-37225000I249997J0D01*
G01*
X22095003Y-37225000D01*
G75*
G02*
X22345000Y-37474997I0J-249997D01*
G01*
X22345000Y-38725003D01*
G75*
G02*
X22095003Y-38975000I-249997J0D01*
G01*
X21469997Y-38975000D01*
G75*
G02*
X21220000Y-38725003I0J249997D01*
G01*
G37*
%TD.AperFunction*%
%TO.P,R19,1*%
%TO.N,GND*%
%TA.AperFunction,SMDPad,CuDef*%
G36*
G01*
X18295000Y-38725003D02*
X18295000Y-37474997D01*
G75*
G02*
X18544997Y-37225000I249997J0D01*
G01*
X19170003Y-37225000D01*
G75*
G02*
X19420000Y-37474997I0J-249997D01*
G01*
X19420000Y-38725003D01*
G75*
G02*
X19170003Y-38975000I-249997J0D01*
G01*
X18544997Y-38975000D01*
G75*
G02*
X18295000Y-38725003I0J249997D01*
G01*
G37*
%TD.AperFunction*%
%TD*%
%TO.P,R21,1*%
%TO.N,GND*%
%TA.AperFunction,SMDPad,CuDef*%
G36*
G01*
X9405000Y-53965003D02*
X9405000Y-52714997D01*
G75*
G02*
X9654997Y-52465000I249997J0D01*
G01*
X10280003Y-52465000D01*
G75*
G02*
X10530000Y-52714997I0J-249997D01*
G01*
X10530000Y-53965003D01*
G75*
G02*
X10280003Y-54215000I-249997J0D01*
G01*
X9654997Y-54215000D01*
G75*
G02*
X9405000Y-53965003I0J249997D01*
G01*
G37*
%TD.AperFunction*%
%TO.P,R21,2*%
%TO.N,Net-(C20-Pad1)*%
%TA.AperFunction,SMDPad,CuDef*%
G36*
G01*
X12330000Y-53965003D02*
X12330000Y-52714997D01*
G75*
G02*
X12579997Y-52465000I249997J0D01*
G01*
X13205003Y-52465000D01*
G75*
G02*
X13455000Y-52714997I0J-249997D01*
G01*
X13455000Y-53965003D01*
G75*
G02*
X13205003Y-54215000I-249997J0D01*
G01*
X12579997Y-54215000D01*
G75*
G02*
X12330000Y-53965003I0J249997D01*
G01*
G37*
%TD.AperFunction*%
%TD*%
%TO.P,R22,1*%
%TO.N,Net-(C22-Pad2)*%
%TA.AperFunction,SMDPad,CuDef*%
G36*
G01*
X4325000Y-57775003D02*
X4325000Y-56524997D01*
G75*
G02*
X4574997Y-56275000I249997J0D01*
G01*
X5200003Y-56275000D01*
G75*
G02*
X5450000Y-56524997I0J-249997D01*
G01*
X5450000Y-57775003D01*
G75*
G02*
X5200003Y-58025000I-249997J0D01*
G01*
X4574997Y-58025000D01*
G75*
G02*
X4325000Y-57775003I0J249997D01*
G01*
G37*
%TD.AperFunction*%
%TO.P,R22,2*%
%TO.N,Net-(C20-Pad1)*%
%TA.AperFunction,SMDPad,CuDef*%
G36*
G01*
X7250000Y-57775003D02*
X7250000Y-56524997D01*
G75*
G02*
X7499997Y-56275000I249997J0D01*
G01*
X8125003Y-56275000D01*
G75*
G02*
X8375000Y-56524997I0J-249997D01*
G01*
X8375000Y-57775003D01*
G75*
G02*
X8125003Y-58025000I-249997J0D01*
G01*
X7499997Y-58025000D01*
G75*
G02*
X7250000Y-57775003I0J249997D01*
G01*
G37*
%TD.AperFunction*%
%TD*%
%TO.P,R23,2*%
%TO.N,Net-(C22-Pad2)*%
%TA.AperFunction,SMDPad,CuDef*%
G36*
G01*
X5724997Y-50430000D02*
X6975003Y-50430000D01*
G75*
G02*
X7225000Y-50679997I0J-249997D01*
G01*
X7225000Y-51305003D01*
G75*
G02*
X6975003Y-51555000I-249997J0D01*
G01*
X5724997Y-51555000D01*
G75*
G02*
X5475000Y-51305003I0J249997D01*
G01*
X5475000Y-50679997D01*
G75*
G02*
X5724997Y-50430000I249997J0D01*
G01*
G37*
%TD.AperFunction*%
%TO.P,R23,1*%
%TO.N,Net-(C22-Pad1)*%
%TA.AperFunction,SMDPad,CuDef*%
G36*
G01*
X5724997Y-47505000D02*
X6975003Y-47505000D01*
G75*
G02*
X7225000Y-47754997I0J-249997D01*
G01*
X7225000Y-48380003D01*
G75*
G02*
X6975003Y-48630000I-249997J0D01*
G01*
X5724997Y-48630000D01*
G75*
G02*
X5475000Y-48380003I0J249997D01*
G01*
X5475000Y-47754997D01*
G75*
G02*
X5724997Y-47505000I249997J0D01*
G01*
G37*
%TD.AperFunction*%
%TD*%
%TO.P,R24,1*%
%TO.N,HH_OUT_BACK*%
%TA.AperFunction,SMDPad,CuDef*%
G36*
G01*
X18535000Y-47634997D02*
X18535000Y-48885003D01*
G75*
G02*
X18285003Y-49135000I-249997J0D01*
G01*
X17659997Y-49135000D01*
G75*
G02*
X17410000Y-48885003I0J249997D01*
G01*
X17410000Y-47634997D01*
G75*
G02*
X17659997Y-47385000I249997J0D01*
G01*
X18285003Y-47385000D01*
G75*
G02*
X18535000Y-47634997I0J-249997D01*
G01*
G37*
%TD.AperFunction*%
%TO.P,R24,2*%
%TO.N,Net-(C22-Pad1)*%
%TA.AperFunction,SMDPad,CuDef*%
G36*
G01*
X15610000Y-47634997D02*
X15610000Y-48885003D01*
G75*
G02*
X15360003Y-49135000I-249997J0D01*
G01*
X14734997Y-49135000D01*
G75*
G02*
X14485000Y-48885003I0J249997D01*
G01*
X14485000Y-47634997D01*
G75*
G02*
X14734997Y-47385000I249997J0D01*
G01*
X15360003Y-47385000D01*
G75*
G02*
X15610000Y-47634997I0J-249997D01*
G01*
G37*
%TD.AperFunction*%
%TD*%
%TO.P,R25,1*%
%TO.N,Net-(R25-Pad1)*%
%TA.AperFunction,SMDPad,CuDef*%
G36*
G01*
X7105000Y-13344997D02*
X7105000Y-14595003D01*
G75*
G02*
X6855003Y-14845000I-249997J0D01*
G01*
X6229997Y-14845000D01*
G75*
G02*
X5980000Y-14595003I0J249997D01*
G01*
X5980000Y-13344997D01*
G75*
G02*
X6229997Y-13095000I249997J0D01*
G01*
X6855003Y-13095000D01*
G75*
G02*
X7105000Y-13344997I0J-249997D01*
G01*
G37*
%TD.AperFunction*%
%TO.P,R25,2*%
%TO.N,GND*%
%TA.AperFunction,SMDPad,CuDef*%
G36*
G01*
X4180000Y-13344997D02*
X4180000Y-14595003D01*
G75*
G02*
X3930003Y-14845000I-249997J0D01*
G01*
X3304997Y-14845000D01*
G75*
G02*
X3055000Y-14595003I0J249997D01*
G01*
X3055000Y-13344997D01*
G75*
G02*
X3304997Y-13095000I249997J0D01*
G01*
X3930003Y-13095000D01*
G75*
G02*
X4180000Y-13344997I0J-249997D01*
G01*
G37*
%TD.AperFunction*%
%TD*%
%TO.P,R28,1*%
%TO.N,+5V*%
%TA.AperFunction,SMDPad,CuDef*%
G36*
G01*
X12690003Y-17265000D02*
X11439997Y-17265000D01*
G75*
G02*
X11190000Y-17015003I0J249997D01*
G01*
X11190000Y-16389997D01*
G75*
G02*
X11439997Y-16140000I249997J0D01*
G01*
X12690003Y-16140000D01*
G75*
G02*
X12940000Y-16389997I0J-249997D01*
G01*
X12940000Y-17015003D01*
G75*
G02*
X12690003Y-17265000I-249997J0D01*
G01*
G37*
%TD.AperFunction*%
%TO.P,R28,2*%
%TO.N,Net-(R25-Pad1)*%
%TA.AperFunction,SMDPad,CuDef*%
G36*
G01*
X12690003Y-14340000D02*
X11439997Y-14340000D01*
G75*
G02*
X11190000Y-14090003I0J249997D01*
G01*
X11190000Y-13464997D01*
G75*
G02*
X11439997Y-13215000I249997J0D01*
G01*
X12690003Y-13215000D01*
G75*
G02*
X12940000Y-13464997I0J-249997D01*
G01*
X12940000Y-14090003D01*
G75*
G02*
X12690003Y-14340000I-249997J0D01*
G01*
G37*
%TD.AperFunction*%
%TD*%
%TO.P,R31,2*%
%TO.N,Net-(C23-Pad1)*%
%TA.AperFunction,SMDPad,CuDef*%
G36*
G01*
X17135003Y-77840000D02*
X15884997Y-77840000D01*
G75*
G02*
X15635000Y-77590003I0J249997D01*
G01*
X15635000Y-76964997D01*
G75*
G02*
X15884997Y-76715000I249997J0D01*
G01*
X17135003Y-76715000D01*
G75*
G02*
X17385000Y-76964997I0J-249997D01*
G01*
X17385000Y-77590003D01*
G75*
G02*
X17135003Y-77840000I-249997J0D01*
G01*
G37*
%TD.AperFunction*%
%TO.P,R31,1*%
%TO.N,GND*%
%TA.AperFunction,SMDPad,CuDef*%
G36*
G01*
X17135003Y-80765000D02*
X15884997Y-80765000D01*
G75*
G02*
X15635000Y-80515003I0J249997D01*
G01*
X15635000Y-79889997D01*
G75*
G02*
X15884997Y-79640000I249997J0D01*
G01*
X17135003Y-79640000D01*
G75*
G02*
X17385000Y-79889997I0J-249997D01*
G01*
X17385000Y-80515003D01*
G75*
G02*
X17135003Y-80765000I-249997J0D01*
G01*
G37*
%TD.AperFunction*%
%TD*%
%TO.P,R33,2*%
%TO.N,Net-(C26-Pad1)*%
%TA.AperFunction,SMDPad,CuDef*%
G36*
G01*
X18150000Y-92084997D02*
X18150000Y-93335003D01*
G75*
G02*
X17900003Y-93585000I-249997J0D01*
G01*
X17274997Y-93585000D01*
G75*
G02*
X17025000Y-93335003I0J249997D01*
G01*
X17025000Y-92084997D01*
G75*
G02*
X17274997Y-91835000I249997J0D01*
G01*
X17900003Y-91835000D01*
G75*
G02*
X18150000Y-92084997I0J-249997D01*
G01*
G37*
%TD.AperFunction*%
%TO.P,R33,1*%
%TO.N,Net-(D9-Pad1)*%
%TA.AperFunction,SMDPad,CuDef*%
G36*
G01*
X21075000Y-92084997D02*
X21075000Y-93335003D01*
G75*
G02*
X20825003Y-93585000I-249997J0D01*
G01*
X20199997Y-93585000D01*
G75*
G02*
X19950000Y-93335003I0J249997D01*
G01*
X19950000Y-92084997D01*
G75*
G02*
X20199997Y-91835000I249997J0D01*
G01*
X20825003Y-91835000D01*
G75*
G02*
X21075000Y-92084997I0J-249997D01*
G01*
G37*
%TD.AperFunction*%
%TD*%
%TO.P,R34,1*%
%TO.N,GND*%
%TA.AperFunction,SMDPad,CuDef*%
G36*
G01*
X6994997Y-91955000D02*
X8245003Y-91955000D01*
G75*
G02*
X8495000Y-92204997I0J-249997D01*
G01*
X8495000Y-92830003D01*
G75*
G02*
X8245003Y-93080000I-249997J0D01*
G01*
X6994997Y-93080000D01*
G75*
G02*
X6745000Y-92830003I0J249997D01*
G01*
X6745000Y-92204997D01*
G75*
G02*
X6994997Y-91955000I249997J0D01*
G01*
G37*
%TD.AperFunction*%
%TO.P,R34,2*%
%TO.N,Net-(C25-Pad2)*%
%TA.AperFunction,SMDPad,CuDef*%
G36*
G01*
X6994997Y-94880000D02*
X8245003Y-94880000D01*
G75*
G02*
X8495000Y-95129997I0J-249997D01*
G01*
X8495000Y-95755003D01*
G75*
G02*
X8245003Y-96005000I-249997J0D01*
G01*
X6994997Y-96005000D01*
G75*
G02*
X6745000Y-95755003I0J249997D01*
G01*
X6745000Y-95129997D01*
G75*
G02*
X6994997Y-94880000I249997J0D01*
G01*
G37*
%TD.AperFunction*%
%TD*%
%TO.P,R36,2*%
%TO.N,Net-(C26-Pad1)*%
%TA.AperFunction,SMDPad,CuDef*%
G36*
G01*
X21960000Y-94624997D02*
X21960000Y-95875003D01*
G75*
G02*
X21710003Y-96125000I-249997J0D01*
G01*
X21084997Y-96125000D01*
G75*
G02*
X20835000Y-95875003I0J249997D01*
G01*
X20835000Y-94624997D01*
G75*
G02*
X21084997Y-94375000I249997J0D01*
G01*
X21710003Y-94375000D01*
G75*
G02*
X21960000Y-94624997I0J-249997D01*
G01*
G37*
%TD.AperFunction*%
%TO.P,R36,1*%
%TO.N,GND*%
%TA.AperFunction,SMDPad,CuDef*%
G36*
G01*
X24885000Y-94624997D02*
X24885000Y-95875003D01*
G75*
G02*
X24635003Y-96125000I-249997J0D01*
G01*
X24009997Y-96125000D01*
G75*
G02*
X23760000Y-95875003I0J249997D01*
G01*
X23760000Y-94624997D01*
G75*
G02*
X24009997Y-94375000I249997J0D01*
G01*
X24635003Y-94375000D01*
G75*
G02*
X24885000Y-94624997I0J-249997D01*
G01*
G37*
%TD.AperFunction*%
%TD*%
%TO.P,R40,1*%
%TO.N,Net-(C28-Pad1)*%
%TA.AperFunction,SMDPad,CuDef*%
G36*
G01*
X15995000Y-87004997D02*
X15995000Y-88255003D01*
G75*
G02*
X15745003Y-88505000I-249997J0D01*
G01*
X15119997Y-88505000D01*
G75*
G02*
X14870000Y-88255003I0J249997D01*
G01*
X14870000Y-87004997D01*
G75*
G02*
X15119997Y-86755000I249997J0D01*
G01*
X15745003Y-86755000D01*
G75*
G02*
X15995000Y-87004997I0J-249997D01*
G01*
G37*
%TD.AperFunction*%
%TO.P,R40,2*%
%TO.N,Net-(C25-Pad1)*%
%TA.AperFunction,SMDPad,CuDef*%
G36*
G01*
X13070000Y-87004997D02*
X13070000Y-88255003D01*
G75*
G02*
X12820003Y-88505000I-249997J0D01*
G01*
X12194997Y-88505000D01*
G75*
G02*
X11945000Y-88255003I0J249997D01*
G01*
X11945000Y-87004997D01*
G75*
G02*
X12194997Y-86755000I249997J0D01*
G01*
X12820003Y-86755000D01*
G75*
G02*
X13070000Y-87004997I0J-249997D01*
G01*
G37*
%TD.AperFunction*%
%TD*%
%TO.P,R43,1*%
%TO.N,Net-(C25-Pad1)*%
%TA.AperFunction,SMDPad,CuDef*%
G36*
G01*
X22975000Y-89025003D02*
X22975000Y-87774997D01*
G75*
G02*
X23224997Y-87525000I249997J0D01*
G01*
X23850003Y-87525000D01*
G75*
G02*
X24100000Y-87774997I0J-249997D01*
G01*
X24100000Y-89025003D01*
G75*
G02*
X23850003Y-89275000I-249997J0D01*
G01*
X23224997Y-89275000D01*
G75*
G02*
X22975000Y-89025003I0J249997D01*
G01*
G37*
%TD.AperFunction*%
%TO.P,R43,2*%
%TO.N,+5V*%
%TA.AperFunction,SMDPad,CuDef*%
G36*
G01*
X25900000Y-89025003D02*
X25900000Y-87774997D01*
G75*
G02*
X26149997Y-87525000I249997J0D01*
G01*
X26775003Y-87525000D01*
G75*
G02*
X27025000Y-87774997I0J-249997D01*
G01*
X27025000Y-89025003D01*
G75*
G02*
X26775003Y-89275000I-249997J0D01*
G01*
X26149997Y-89275000D01*
G75*
G02*
X25900000Y-89025003I0J249997D01*
G01*
G37*
%TD.AperFunction*%
%TD*%
%TO.P,R44,2*%
%TO.N,Net-(Q4-Pad2)*%
%TA.AperFunction,SMDPad,CuDef*%
G36*
G01*
X14975000Y-74304997D02*
X14975000Y-75555003D01*
G75*
G02*
X14725003Y-75805000I-249997J0D01*
G01*
X14099997Y-75805000D01*
G75*
G02*
X13850000Y-75555003I0J249997D01*
G01*
X13850000Y-74304997D01*
G75*
G02*
X14099997Y-74055000I249997J0D01*
G01*
X14725003Y-74055000D01*
G75*
G02*
X14975000Y-74304997I0J-249997D01*
G01*
G37*
%TD.AperFunction*%
%TO.P,R44,1*%
%TO.N,BASS_DECAY_BACK*%
%TA.AperFunction,SMDPad,CuDef*%
G36*
G01*
X17900000Y-74304997D02*
X17900000Y-75555003D01*
G75*
G02*
X17650003Y-75805000I-249997J0D01*
G01*
X17024997Y-75805000D01*
G75*
G02*
X16775000Y-75555003I0J249997D01*
G01*
X16775000Y-74304997D01*
G75*
G02*
X17024997Y-74055000I249997J0D01*
G01*
X17650003Y-74055000D01*
G75*
G02*
X17900000Y-74304997I0J-249997D01*
G01*
G37*
%TD.AperFunction*%
%TD*%
%TO.P,R48,2*%
%TO.N,BASS_LED_BACK*%
%TA.AperFunction,SMDPad,CuDef*%
G36*
G01*
X6975003Y-84400000D02*
X5724997Y-84400000D01*
G75*
G02*
X5475000Y-84150003I0J249997D01*
G01*
X5475000Y-83524997D01*
G75*
G02*
X5724997Y-83275000I249997J0D01*
G01*
X6975003Y-83275000D01*
G75*
G02*
X7225000Y-83524997I0J-249997D01*
G01*
X7225000Y-84150003D01*
G75*
G02*
X6975003Y-84400000I-249997J0D01*
G01*
G37*
%TD.AperFunction*%
%TO.P,R48,1*%
%TO.N,GND*%
%TA.AperFunction,SMDPad,CuDef*%
G36*
G01*
X6975003Y-87325000D02*
X5724997Y-87325000D01*
G75*
G02*
X5475000Y-87075003I0J249997D01*
G01*
X5475000Y-86449997D01*
G75*
G02*
X5724997Y-86200000I249997J0D01*
G01*
X6975003Y-86200000D01*
G75*
G02*
X7225000Y-86449997I0J-249997D01*
G01*
X7225000Y-87075003D01*
G75*
G02*
X6975003Y-87325000I-249997J0D01*
G01*
G37*
%TD.AperFunction*%
%TD*%
%TO.P,R51,2*%
%TO.N,BASS_LED_BACK*%
%TA.AperFunction,SMDPad,CuDef*%
G36*
G01*
X3074997Y-86300000D02*
X4325003Y-86300000D01*
G75*
G02*
X4575000Y-86549997I0J-249997D01*
G01*
X4575000Y-87175003D01*
G75*
G02*
X4325003Y-87425000I-249997J0D01*
G01*
X3074997Y-87425000D01*
G75*
G02*
X2825000Y-87175003I0J249997D01*
G01*
X2825000Y-86549997D01*
G75*
G02*
X3074997Y-86300000I249997J0D01*
G01*
G37*
%TD.AperFunction*%
%TO.P,R51,1*%
%TO.N,Net-(C37-Pad2)*%
%TA.AperFunction,SMDPad,CuDef*%
G36*
G01*
X3074997Y-83375000D02*
X4325003Y-83375000D01*
G75*
G02*
X4575000Y-83624997I0J-249997D01*
G01*
X4575000Y-84250003D01*
G75*
G02*
X4325003Y-84500000I-249997J0D01*
G01*
X3074997Y-84500000D01*
G75*
G02*
X2825000Y-84250003I0J249997D01*
G01*
X2825000Y-83624997D01*
G75*
G02*
X3074997Y-83375000I249997J0D01*
G01*
G37*
%TD.AperFunction*%
%TD*%
%TO.P,R55,1*%
%TO.N,Net-(C37-Pad1)*%
%TA.AperFunction,SMDPad,CuDef*%
G36*
G01*
X6925000Y-66684997D02*
X6925000Y-67935003D01*
G75*
G02*
X6675003Y-68185000I-249997J0D01*
G01*
X6049997Y-68185000D01*
G75*
G02*
X5800000Y-67935003I0J249997D01*
G01*
X5800000Y-66684997D01*
G75*
G02*
X6049997Y-66435000I249997J0D01*
G01*
X6675003Y-66435000D01*
G75*
G02*
X6925000Y-66684997I0J-249997D01*
G01*
G37*
%TD.AperFunction*%
%TO.P,R55,2*%
%TO.N,Net-(C37-Pad2)*%
%TA.AperFunction,SMDPad,CuDef*%
G36*
G01*
X4000000Y-66684997D02*
X4000000Y-67935003D01*
G75*
G02*
X3750003Y-68185000I-249997J0D01*
G01*
X3124997Y-68185000D01*
G75*
G02*
X2875000Y-67935003I0J249997D01*
G01*
X2875000Y-66684997D01*
G75*
G02*
X3124997Y-66435000I249997J0D01*
G01*
X3750003Y-66435000D01*
G75*
G02*
X4000000Y-66684997I0J-249997D01*
G01*
G37*
%TD.AperFunction*%
%TD*%
%TO.P,R58,2*%
%TO.N,Net-(C37-Pad1)*%
%TA.AperFunction,SMDPad,CuDef*%
G36*
G01*
X9515003Y-67410000D02*
X8264997Y-67410000D01*
G75*
G02*
X8015000Y-67160003I0J249997D01*
G01*
X8015000Y-66534997D01*
G75*
G02*
X8264997Y-66285000I249997J0D01*
G01*
X9515003Y-66285000D01*
G75*
G02*
X9765000Y-66534997I0J-249997D01*
G01*
X9765000Y-67160003D01*
G75*
G02*
X9515003Y-67410000I-249997J0D01*
G01*
G37*
%TD.AperFunction*%
%TO.P,R58,1*%
%TO.N,BASS_OUT_BACK*%
%TA.AperFunction,SMDPad,CuDef*%
G36*
G01*
X9515003Y-70335000D02*
X8264997Y-70335000D01*
G75*
G02*
X8015000Y-70085003I0J249997D01*
G01*
X8015000Y-69459997D01*
G75*
G02*
X8264997Y-69210000I249997J0D01*
G01*
X9515003Y-69210000D01*
G75*
G02*
X9765000Y-69459997I0J-249997D01*
G01*
X9765000Y-70085003D01*
G75*
G02*
X9515003Y-70335000I-249997J0D01*
G01*
G37*
%TD.AperFunction*%
%TD*%
D16*
%TO.N,+5V*%
X17637900Y-20005300D03*
X10537100Y-73245200D03*
X25135600Y-69225600D03*
X26496100Y-86907200D03*
%TO.N,NOISE_CUTOFF_BACK*%
X23195800Y-38733900D03*
%TO.N,FILTERED_NOISE*%
X9114500Y-45912500D03*
%TO.N,Net-(C22-Pad2)*%
X7273400Y-49303300D03*
%TO.N,Net-(C22-Pad1)*%
X5582900Y-45685600D03*
%TO.N,Net-(C24-Pad2)*%
X27058500Y-56253600D03*
%TO.N,Net-(C37-Pad1)*%
X5836100Y-55462400D03*
%TO.N,Net-(C37-Pad2)*%
X3700000Y-54387600D03*
%TO.N,SNARE_TRIGGER_BACK*%
X27890900Y-64969300D03*
%TO.N,Net-(R27-Pad1)*%
X28032600Y-36363700D03*
%TD*%
D17*
%TO.N,GND*%
X5312500Y-31545000D02*
X3640300Y-31545000D01*
X3640300Y-31545000D02*
X3465300Y-31370000D01*
X7910000Y-29412300D02*
X5777300Y-31545000D01*
X5777300Y-31545000D02*
X5312500Y-31545000D01*
X5312500Y-31545000D02*
X5312500Y-34290000D01*
X2540000Y-31370000D02*
X3465300Y-31370000D01*
X5312500Y-34290000D02*
X5312500Y-34813300D01*
X5312500Y-34813300D02*
X7275400Y-36776200D01*
X7275400Y-36776200D02*
X7275400Y-38393700D01*
X7275400Y-38393700D02*
X4002500Y-41666600D01*
X4002500Y-41666600D02*
X4002500Y-41910000D01*
X7910000Y-29412300D02*
X7910000Y-28824700D01*
X7910000Y-30000000D02*
X7910000Y-29412300D01*
X10905800Y-25828900D02*
X10905800Y-25829000D01*
X10905800Y-25829000D02*
X12463500Y-25829000D01*
X3875000Y-22860000D02*
X5305200Y-22860000D01*
X5305200Y-22860000D02*
X7210200Y-24765000D01*
X7210200Y-24765000D02*
X9841800Y-24765000D01*
X9841800Y-24765000D02*
X10905800Y-25828900D01*
X10905800Y-25828900D02*
X7910000Y-28824700D01*
X9244000Y-73918700D02*
X9295800Y-73970500D01*
X9295800Y-73970500D02*
X10851600Y-73970500D01*
X10851600Y-73970500D02*
X11132500Y-73689600D01*
X11132500Y-73689600D02*
X14933600Y-73689600D01*
X14933600Y-73689600D02*
X15308500Y-74064500D01*
X15308500Y-74064500D02*
X15308500Y-75793500D01*
X15308500Y-75793500D02*
X14849600Y-76252400D01*
X14849600Y-76252400D02*
X14849600Y-78542100D01*
X14849600Y-78542100D02*
X16510000Y-80202500D01*
X9967500Y-53340000D02*
X9846200Y-53340000D01*
X9846200Y-53340000D02*
X6920700Y-56265500D01*
X6920700Y-56265500D02*
X6920700Y-59874000D01*
X6920700Y-59874000D02*
X10091400Y-63044700D01*
X10091400Y-63044700D02*
X10091400Y-67432900D01*
X10091400Y-67432900D02*
X9179700Y-68344600D01*
X9179700Y-68344600D02*
X7901500Y-68344600D01*
X7901500Y-68344600D02*
X7216300Y-69029800D01*
X7216300Y-69029800D02*
X7216300Y-71891000D01*
X7216300Y-71891000D02*
X9244000Y-73918700D01*
X6350000Y-86762500D02*
X7567900Y-85544600D01*
X7567900Y-85544600D02*
X7567900Y-82556600D01*
X7567900Y-82556600D02*
X5180800Y-80169500D01*
X5180800Y-80169500D02*
X5180800Y-77981900D01*
X5180800Y-77981900D02*
X9244000Y-73918700D01*
X9419700Y-90245000D02*
X10873500Y-90245000D01*
X10873500Y-90245000D02*
X11382000Y-90753500D01*
X11382000Y-90753500D02*
X11382000Y-92283100D01*
X11382000Y-92283100D02*
X12800000Y-93701100D01*
X12800000Y-93701100D02*
X12800000Y-96021700D01*
X12800000Y-96021700D02*
X13256300Y-96478000D01*
X13256300Y-96478000D02*
X23094500Y-96478000D01*
X23094500Y-96478000D02*
X24322500Y-95250000D01*
X7620000Y-92517500D02*
X7620000Y-92044700D01*
X7620000Y-92044700D02*
X9419700Y-90245000D01*
X9419700Y-90245000D02*
X6350000Y-87175300D01*
X6350000Y-87175300D02*
X6350000Y-86762500D01*
X9967500Y-53340000D02*
X12566100Y-50741400D01*
X12566100Y-50741400D02*
X17254100Y-50741400D01*
X17254100Y-50741400D02*
X18897800Y-49097700D01*
X18897800Y-49097700D02*
X18897800Y-38140300D01*
X18897800Y-38140300D02*
X18857500Y-38100000D01*
X18857500Y-38100000D02*
X18095000Y-37337500D01*
X18095000Y-37337500D02*
X18095000Y-35290000D01*
X3617500Y-13970000D02*
X3617500Y-13826700D01*
X3617500Y-13826700D02*
X10988900Y-6455300D01*
X10988900Y-6455300D02*
X15396800Y-6455300D01*
X15396800Y-6455300D02*
X16204700Y-5647400D01*
X16204700Y-5647400D02*
X16204700Y-5280000D01*
X3875000Y-21590000D02*
X3452000Y-21590000D01*
X3452000Y-21590000D02*
X2045100Y-20183100D01*
X2045100Y-20183100D02*
X2045100Y-15542400D01*
X2045100Y-15542400D02*
X3617500Y-13970000D01*
X17380000Y-5280000D02*
X16204700Y-5280000D01*
X12463500Y-25829000D02*
X13970000Y-24322500D01*
X12463500Y-25829000D02*
X14260000Y-27625500D01*
X14260000Y-27625500D02*
X14260000Y-31726200D01*
X14260000Y-31726200D02*
X17369700Y-34835900D01*
X17369700Y-34835900D02*
X17369700Y-35290000D01*
X18095000Y-35290000D02*
X17369700Y-35290000D01*
X3875000Y-22860000D02*
X3875000Y-21590000D01*
X17380000Y-2740000D02*
X17380000Y-5280000D01*
%TO.N,+5V*%
X17637900Y-20005300D02*
X15970300Y-18337700D01*
X15970300Y-18337700D02*
X12515300Y-18337700D01*
X19011100Y-24123800D02*
X19620300Y-23514600D01*
X19620300Y-23514600D02*
X19620300Y-20804100D01*
X19620300Y-20804100D02*
X18821500Y-20005300D01*
X18821500Y-20005300D02*
X17637900Y-20005300D01*
X19011100Y-24123800D02*
X24325400Y-29438100D01*
X24325400Y-29438100D02*
X24325400Y-31117900D01*
X24325400Y-31117900D02*
X26862500Y-33655000D01*
X18415000Y-24322500D02*
X18613700Y-24123800D01*
X18613700Y-24123800D02*
X19011100Y-24123800D01*
X12515300Y-18337700D02*
X12515300Y-17152800D01*
X12515300Y-17152800D02*
X12065000Y-16702500D01*
X8825000Y-21590000D02*
X9263000Y-21590000D01*
X9263000Y-21590000D02*
X12515300Y-18337700D01*
X26862500Y-33655000D02*
X25340300Y-35177200D01*
X25340300Y-35177200D02*
X25340300Y-69020900D01*
X25340300Y-69020900D02*
X25135600Y-69225600D01*
X10537100Y-73245200D02*
X7677700Y-70385800D01*
X7677700Y-70385800D02*
X7677700Y-69205300D01*
X7677700Y-69205300D02*
X8043700Y-68839300D01*
X8043700Y-68839300D02*
X24749300Y-68839300D01*
X24749300Y-68839300D02*
X25135600Y-69225600D01*
X26462500Y-88400000D02*
X26462500Y-86940800D01*
X26462500Y-86940800D02*
X26496100Y-86907200D01*
%TO.N,Net-(C13-Pad1)*%
X9525000Y-41020000D02*
X8599700Y-41020000D01*
X6350000Y-41407600D02*
X8212100Y-41407600D01*
X8212100Y-41407600D02*
X8599700Y-41020000D01*
X6350000Y-41407600D02*
X6350000Y-41795300D01*
X6350000Y-41020000D02*
X6350000Y-41407600D01*
X1639100Y-41348400D02*
X1077500Y-41910000D01*
X2540000Y-39137500D02*
X2540000Y-40447500D01*
X2540000Y-40447500D02*
X1639100Y-41348400D01*
X1639100Y-41348400D02*
X3451500Y-43160900D01*
X3451500Y-43160900D02*
X4984400Y-43160900D01*
X4984400Y-43160900D02*
X6350000Y-41795300D01*
%TO.N,NOISE_CUTOFF_BACK*%
X19245300Y-30000000D02*
X19245300Y-30367400D01*
X19245300Y-30367400D02*
X20503500Y-31625600D01*
X20503500Y-31625600D02*
X23715200Y-31625600D01*
X23715200Y-31625600D02*
X24830400Y-32740800D01*
X24830400Y-32740800D02*
X24830400Y-37099300D01*
X24830400Y-37099300D02*
X23195800Y-38733900D01*
X18070000Y-30000000D02*
X19245300Y-30000000D01*
%TO.N,FILTERED_NOISE*%
X7620000Y-45912500D02*
X9114500Y-45912500D01*
%TO.N,HH_DECAY_BACK*%
X12700000Y-33827500D02*
X12990000Y-33537500D01*
X12990000Y-33537500D02*
X12990000Y-30000000D01*
X9525000Y-37063500D02*
X9525000Y-37002500D01*
X9525000Y-37002500D02*
X12700000Y-33827500D01*
X9525000Y-37720000D02*
X9525000Y-37063500D01*
X7387500Y-34290000D02*
X7387500Y-34926000D01*
X7387500Y-34926000D02*
X9525000Y-37063500D01*
%TO.N,Net-(C18-Pad1)*%
X12700000Y-36752500D02*
X14007200Y-36752500D01*
X14007200Y-36752500D02*
X15469700Y-35290000D01*
X12467500Y-43815000D02*
X12467500Y-36985000D01*
X12467500Y-36985000D02*
X12700000Y-36752500D01*
X16195000Y-35290000D02*
X15469700Y-35290000D01*
%TO.N,Net-(C18-Pad2)*%
X7620000Y-42987500D02*
X9565000Y-42987500D01*
X9565000Y-42987500D02*
X10392500Y-43815000D01*
%TO.N,Net-(C19-Pad1)*%
X21590000Y-40872500D02*
X21782500Y-40680000D01*
X21782500Y-40680000D02*
X21782500Y-38100000D01*
X21782500Y-38100000D02*
X21590000Y-37907500D01*
X21590000Y-37907500D02*
X21590000Y-35095000D01*
%TO.N,Net-(C19-Pad2)*%
X17145000Y-33290000D02*
X17870300Y-33290000D01*
X17870300Y-33290000D02*
X18140300Y-33020000D01*
X18140300Y-33020000D02*
X21590000Y-33020000D01*
X23937500Y-33655000D02*
X22225000Y-33655000D01*
X22225000Y-33655000D02*
X21590000Y-33020000D01*
%TO.N,Net-(C20-Pad1)*%
X7812500Y-57150000D02*
X9082500Y-57150000D01*
X9082500Y-57150000D02*
X12892500Y-53340000D01*
X21590000Y-42947500D02*
X21590000Y-47042400D01*
X21590000Y-47042400D02*
X15292400Y-53340000D01*
X15292400Y-53340000D02*
X12892500Y-53340000D01*
%TO.N,Net-(C22-Pad2)*%
X6350000Y-50992500D02*
X7273400Y-50069100D01*
X7273400Y-50069100D02*
X7273400Y-49303300D01*
X4887500Y-52455000D02*
X6350000Y-50992500D01*
X4887500Y-57150000D02*
X4887500Y-52455000D01*
X4887500Y-52455000D02*
X4427500Y-52455000D01*
X4427500Y-52455000D02*
X2540000Y-50567500D01*
%TO.N,Net-(C22-Pad1)*%
X5582900Y-47300400D02*
X5582900Y-45685600D01*
X5582900Y-47300400D02*
X6350000Y-48067500D01*
X2540000Y-48492500D02*
X4390800Y-48492500D01*
X4390800Y-48492500D02*
X5582900Y-47300400D01*
X15047500Y-48260000D02*
X6542500Y-48260000D01*
X6542500Y-48260000D02*
X6350000Y-48067500D01*
%TO.N,Net-(D4-Pad1)*%
X6350000Y-37720000D02*
X6350000Y-36944700D01*
X2540000Y-34670000D02*
X3465300Y-34670000D01*
X3465300Y-34670000D02*
X5740000Y-36944700D01*
X5740000Y-36944700D02*
X6350000Y-36944700D01*
%TO.N,HH_OUT_BACK*%
X10450000Y-30000000D02*
X9274700Y-30000000D01*
X17972500Y-48260000D02*
X14656500Y-44944000D01*
X14656500Y-44944000D02*
X11924400Y-44944000D01*
X11924400Y-44944000D02*
X11430000Y-44449600D01*
X11430000Y-44449600D02*
X11430000Y-41384400D01*
X11430000Y-41384400D02*
X8322000Y-38276400D01*
X8322000Y-38276400D02*
X8322000Y-37185900D01*
X8322000Y-37185900D02*
X6467200Y-35331100D01*
X6467200Y-35331100D02*
X6467200Y-33580200D01*
X6467200Y-33580200D02*
X8872100Y-31175300D01*
X8872100Y-31175300D02*
X8972900Y-31175300D01*
X8972900Y-31175300D02*
X9274700Y-30873500D01*
X9274700Y-30873500D02*
X9274700Y-30000000D01*
%TO.N,Net-(R4-Pad1)*%
X13970000Y-21397500D02*
X13142600Y-22224900D01*
X13142600Y-22224900D02*
X7783600Y-22224900D01*
X7783600Y-22224900D02*
X7484700Y-22523800D01*
X7484700Y-22523800D02*
X7484700Y-23176200D01*
X7484700Y-23176200D02*
X8438500Y-24130000D01*
X8438500Y-24130000D02*
X8825000Y-24130000D01*
X18415000Y-21397500D02*
X13970000Y-21397500D01*
%TO.N,Net-(C23-Pad2)*%
X21357500Y-73660000D02*
X21727000Y-73660000D01*
X21727000Y-73660000D02*
X29208200Y-66178800D01*
X29208200Y-66178800D02*
X29208200Y-27844400D01*
X29208200Y-27844400D02*
X14072100Y-12708300D01*
X14072100Y-12708300D02*
X6009800Y-12708300D01*
X6009800Y-12708300D02*
X5395500Y-13322600D01*
X5395500Y-13322600D02*
X5395500Y-16259500D01*
X5395500Y-16259500D02*
X3875000Y-17780000D01*
%TO.N,Net-(C23-Pad1)*%
X23750000Y-80010000D02*
X22974700Y-80010000D01*
X19282500Y-73660000D02*
X19282500Y-76317800D01*
X19282500Y-76317800D02*
X22974700Y-80010000D01*
X16510000Y-77277500D02*
X16432400Y-77199900D01*
X16432400Y-77199900D02*
X16432400Y-74070000D01*
X16432400Y-74070000D02*
X16842400Y-73660000D01*
X16842400Y-73660000D02*
X19282500Y-73660000D01*
%TO.N,Net-(C24-Pad2)*%
X27058500Y-56253600D02*
X26764700Y-55959800D01*
X26764700Y-55959800D02*
X26764700Y-39247800D01*
X26764700Y-39247800D02*
X28757900Y-37254600D01*
X28757900Y-37254600D02*
X28757900Y-28031000D01*
X28757900Y-28031000D02*
X15567800Y-14840900D01*
X15567800Y-14840900D02*
X10860500Y-14840900D01*
X10860500Y-14840900D02*
X8825000Y-16876400D01*
X8825000Y-16876400D02*
X8825000Y-17780000D01*
%TO.N,Net-(C25-Pad1)*%
X12124600Y-87247100D02*
X12507500Y-87630000D01*
X12124600Y-79149000D02*
X12124600Y-87247100D01*
X12124600Y-87247100D02*
X12045400Y-87247100D01*
X12045400Y-87247100D02*
X10160000Y-89132500D01*
X23537500Y-88400000D02*
X21267500Y-88400000D01*
X21267500Y-88400000D02*
X17260000Y-84392500D01*
X17260000Y-84392500D02*
X17260000Y-82711500D01*
X17260000Y-82711500D02*
X13512900Y-78964400D01*
X13512900Y-78964400D02*
X12309200Y-78964400D01*
X12309200Y-78964400D02*
X12124600Y-79149000D01*
X12124600Y-79149000D02*
X12084300Y-79149000D01*
X12084300Y-79149000D02*
X11675300Y-78740000D01*
X10900000Y-78740000D02*
X11675300Y-78740000D01*
X10900000Y-78740000D02*
X6117500Y-78740000D01*
%TO.N,Net-(C25-Pad2)*%
X10160000Y-93797500D02*
X10160000Y-91207500D01*
X11762500Y-95400000D02*
X10160000Y-93797500D01*
X7620000Y-95442500D02*
X9265000Y-93797500D01*
X9265000Y-93797500D02*
X10160000Y-93797500D01*
%TO.N,Net-(C26-Pad1)*%
X14800000Y-92710000D02*
X14800000Y-92000000D01*
X13837500Y-95400000D02*
X14800000Y-94437500D01*
X14800000Y-94437500D02*
X14800000Y-92710000D01*
X14800000Y-92710000D02*
X17587500Y-92710000D01*
X21397500Y-95250000D02*
X20127500Y-95250000D01*
X20127500Y-95250000D02*
X17587500Y-92710000D01*
%TO.N,Net-(C28-Pad1)*%
X12900000Y-79690000D02*
X12900000Y-80415300D01*
X12900000Y-80415300D02*
X14720000Y-82235300D01*
X14720000Y-82235300D02*
X14720000Y-86917500D01*
X14720000Y-86917500D02*
X15432500Y-87630000D01*
X15432500Y-87630000D02*
X12725000Y-90337500D01*
X12725000Y-90337500D02*
X12725000Y-92000000D01*
%TO.N,BASS_LED_BACK*%
X3700000Y-86862500D02*
X6350000Y-84212500D01*
X6350000Y-84212500D02*
X6350000Y-83837500D01*
X23610000Y-85175300D02*
X24441100Y-86006400D01*
X24441100Y-86006400D02*
X24441100Y-89287600D01*
X24441100Y-89287600D02*
X22459200Y-91269500D01*
X22459200Y-91269500D02*
X20187800Y-91269500D01*
X20187800Y-91269500D02*
X19614600Y-91842700D01*
X19614600Y-91842700D02*
X19614600Y-93579600D01*
X19614600Y-93579600D02*
X20006800Y-93971800D01*
X20006800Y-93971800D02*
X24862200Y-93971800D01*
X24862200Y-93971800D02*
X25236300Y-94345900D01*
X25236300Y-94345900D02*
X25236300Y-96107400D01*
X25236300Y-96107400D02*
X24388700Y-96955000D01*
X24388700Y-96955000D02*
X7300800Y-96955000D01*
X7300800Y-96955000D02*
X3700000Y-93354200D01*
X3700000Y-93354200D02*
X3700000Y-86862500D01*
X23610000Y-84000000D02*
X23610000Y-85175300D01*
X6350000Y-83837500D02*
X4042500Y-81530000D01*
X4042500Y-81530000D02*
X4042500Y-78740000D01*
%TO.N,Net-(C37-Pad1)*%
X6362500Y-67310000D02*
X6362500Y-73835000D01*
X6362500Y-73835000D02*
X6037500Y-74160000D01*
X6362500Y-67046800D02*
X6362500Y-67310000D01*
X6362500Y-67046800D02*
X8690700Y-67046800D01*
X8690700Y-67046800D02*
X8890000Y-66847500D01*
X5836100Y-55462400D02*
X5836100Y-66520400D01*
X5836100Y-66520400D02*
X6362500Y-67046800D01*
%TO.N,Net-(C37-Pad2)*%
X3700000Y-67310000D02*
X3700000Y-54387600D01*
X3962500Y-74160000D02*
X3962500Y-67572500D01*
X3962500Y-67572500D02*
X3700000Y-67310000D01*
X3437500Y-67310000D02*
X3700000Y-67310000D01*
X3700000Y-83937500D02*
X3124500Y-83362000D01*
X3124500Y-83362000D02*
X3124500Y-74998000D01*
X3124500Y-74998000D02*
X3962500Y-74160000D01*
%TO.N,Net-(D9-Pad1)*%
X27050000Y-80010000D02*
X27050000Y-80935300D01*
X20512500Y-92710000D02*
X21724800Y-92710000D01*
X21724800Y-92710000D02*
X24891500Y-89543300D01*
X24891500Y-89543300D02*
X24891500Y-87485800D01*
X24891500Y-87485800D02*
X27364700Y-85012600D01*
X27364700Y-85012600D02*
X27364700Y-81250000D01*
X27364700Y-81250000D02*
X27050000Y-80935300D01*
%TO.N,SNARE_TRIGGER_BACK*%
X8825000Y-20320000D02*
X9240600Y-20320000D01*
X9240600Y-20320000D02*
X10643500Y-18917100D01*
X10643500Y-18917100D02*
X10643500Y-16331700D01*
X10643500Y-16331700D02*
X11233600Y-15741600D01*
X11233600Y-15741600D02*
X15194700Y-15741600D01*
X15194700Y-15741600D02*
X27754300Y-28301200D01*
X27754300Y-28301200D02*
X27754300Y-34920000D01*
X27754300Y-34920000D02*
X26314300Y-36360000D01*
X26314300Y-36360000D02*
X26314300Y-61224800D01*
X26314300Y-61224800D02*
X27890900Y-62801400D01*
X27890900Y-62801400D02*
X27890900Y-64969300D01*
%TO.N,BASS_OUT_BACK*%
X21070000Y-82824700D02*
X16985300Y-78740000D01*
X16985300Y-78740000D02*
X16207600Y-78740000D01*
X16207600Y-78740000D02*
X15308500Y-77840900D01*
X15308500Y-77840900D02*
X15308500Y-76543200D01*
X15308500Y-76543200D02*
X15758800Y-76092900D01*
X15758800Y-76092900D02*
X15758800Y-73877900D01*
X15758800Y-73877900D02*
X11653400Y-69772500D01*
X11653400Y-69772500D02*
X8890000Y-69772500D01*
X21070000Y-84000000D02*
X21070000Y-82824700D01*
%TO.N,BASS_DECAY_BACK*%
X26150000Y-84000000D02*
X26150000Y-82824700D01*
X17337500Y-74930000D02*
X17337500Y-75187500D01*
X17337500Y-75187500D02*
X24974700Y-82824700D01*
X24974700Y-82824700D02*
X26150000Y-82824700D01*
%TO.N,BASS_TRIG_BACK*%
X28690000Y-82824700D02*
X29658500Y-81856200D01*
X29658500Y-81856200D02*
X29658500Y-27657800D01*
X29658500Y-27657800D02*
X14258600Y-12257900D01*
X14258600Y-12257900D02*
X5823300Y-12257900D01*
X5823300Y-12257900D02*
X4945100Y-13136100D01*
X4945100Y-13136100D02*
X4945100Y-14798000D01*
X4945100Y-14798000D02*
X2536400Y-17206700D01*
X2536400Y-17206700D02*
X2536400Y-19390500D01*
X2536400Y-19390500D02*
X3465900Y-20320000D01*
X3465900Y-20320000D02*
X3875000Y-20320000D01*
X28690000Y-84000000D02*
X28690000Y-82824700D01*
%TO.N,Net-(Q4-Pad2)*%
X12900000Y-77790000D02*
X12900000Y-77064700D01*
X14412500Y-74930000D02*
X14412500Y-75552200D01*
X14412500Y-75552200D02*
X12900000Y-77064700D01*
%TO.N,Net-(R25-Pad1)*%
X12065000Y-13777500D02*
X6735000Y-13777500D01*
X6735000Y-13777500D02*
X6542500Y-13970000D01*
X6542500Y-13970000D02*
X6542500Y-16765400D01*
X6542500Y-16765400D02*
X4257900Y-19050000D01*
X4257900Y-19050000D02*
X3875000Y-19050000D01*
%TO.N,Net-(R27-Pad1)*%
X28032600Y-36363700D02*
X28209600Y-36186700D01*
X28209600Y-36186700D02*
X28209600Y-28119600D01*
X28209600Y-28119600D02*
X15381200Y-15291200D01*
X15381200Y-15291200D02*
X11047100Y-15291200D01*
X11047100Y-15291200D02*
X10193100Y-16145200D01*
X10193100Y-16145200D02*
X10193100Y-18134500D01*
X10193100Y-18134500D02*
X9277600Y-19050000D01*
X9277600Y-19050000D02*
X8825000Y-19050000D01*
%TO.N,Net-(C13-Pad2)*%
X8825000Y-25400000D02*
X6935700Y-25400000D01*
X6935700Y-25400000D02*
X1614600Y-30721100D01*
X1614600Y-30721100D02*
X1614600Y-36137100D01*
X1614600Y-36137100D02*
X2540000Y-37062500D01*
%TO.N,HH_TRIG_BACK*%
X15530000Y-30000000D02*
X15530000Y-28824700D01*
X8825000Y-22860000D02*
X14259100Y-22860000D01*
X14259100Y-22860000D02*
X15530000Y-24130900D01*
X15530000Y-24130900D02*
X15530000Y-28824700D01*
%TO.N,Net-(U3-Pad13)*%
X3875000Y-25400000D02*
X3875000Y-24130000D01*
%TO.N,Net-(J1-Pad10)*%
X14840000Y-2740000D02*
X14840000Y-5280000D01*
%TD*%
D18*
X2887697Y-43671898D02*
X2911499Y-43700901D01*
X2961726Y-43742121D01*
X3027206Y-43795862D01*
X3027216Y-43795867D01*
X3027224Y-43795874D01*
X3104386Y-43837118D01*
X3159233Y-43866437D01*
X3159240Y-43866439D01*
X3159253Y-43866446D01*
X3256879Y-43896060D01*
X3302493Y-43909898D01*
X3302500Y-43909899D01*
X3302514Y-43909903D01*
X3409746Y-43920465D01*
X3451478Y-43924576D01*
X3488811Y-43920900D01*
X4947078Y-43920900D01*
X4984400Y-43924576D01*
X5021722Y-43920900D01*
X5021733Y-43920900D01*
X5133386Y-43909903D01*
X5276647Y-43866446D01*
X5408676Y-43795874D01*
X5524401Y-43700901D01*
X5548204Y-43671897D01*
X6106928Y-43113173D01*
X6106928Y-43300003D01*
X6123992Y-43473257D01*
X6174528Y-43639852D01*
X6256595Y-43793388D01*
X6367037Y-43927963D01*
X6501612Y-44038405D01*
X6655148Y-44120472D01*
X6821743Y-44171008D01*
X6994997Y-44188072D01*
X8245003Y-44188072D01*
X8418257Y-44171008D01*
X8584852Y-44120472D01*
X8738388Y-44038405D01*
X8872963Y-43927963D01*
X8983405Y-43793388D01*
X9007933Y-43747500D01*
X9166928Y-43747500D01*
X9166928Y-44290000D01*
X9183992Y-44463254D01*
X9234528Y-44629850D01*
X9316595Y-44783386D01*
X9427038Y-44917962D01*
X9436188Y-44925472D01*
X9416398Y-44917274D01*
X9216439Y-44877500D01*
X9012561Y-44877500D01*
X8812602Y-44917274D01*
X8808370Y-44919027D01*
X8738388Y-44861595D01*
X8584852Y-44779528D01*
X8418257Y-44728992D01*
X8245003Y-44711928D01*
X6994997Y-44711928D01*
X6821743Y-44728992D01*
X6655148Y-44779528D01*
X6501612Y-44861595D01*
X6367037Y-44972037D01*
X6351716Y-44990705D01*
X6242674Y-44881663D01*
X6073156Y-44768395D01*
X5884798Y-44690374D01*
X5684839Y-44650600D01*
X5480961Y-44650600D01*
X5281002Y-44690374D01*
X5092644Y-44768395D01*
X4923126Y-44881663D01*
X4778963Y-45025826D01*
X4665695Y-45195344D01*
X4587674Y-45383702D01*
X4547900Y-45583661D01*
X4547900Y-45787539D01*
X4587674Y-45987498D01*
X4665695Y-46175856D01*
X4778963Y-46345374D01*
X4822901Y-46389312D01*
X4822900Y-46985598D01*
X4075999Y-47732500D01*
X3791294Y-47732500D01*
X3753405Y-47661614D01*
X3642962Y-47527038D01*
X3508386Y-47416595D01*
X3354850Y-47334528D01*
X3188254Y-47283992D01*
X3015000Y-47266928D01*
X2065000Y-47266928D01*
X1891746Y-47283992D01*
X1725150Y-47334528D01*
X1571614Y-47416595D01*
X1437038Y-47527038D01*
X1326595Y-47661614D01*
X1244528Y-47815150D01*
X1193992Y-47981746D01*
X1176928Y-48155000D01*
X1176928Y-48830000D01*
X1193992Y-49003254D01*
X1244528Y-49169850D01*
X1326595Y-49323386D01*
X1437038Y-49457962D01*
X1524817Y-49530000D01*
X1437038Y-49602038D01*
X1326595Y-49736614D01*
X1244528Y-49890150D01*
X1193992Y-50056746D01*
X1176928Y-50230000D01*
X1176928Y-50905000D01*
X1193992Y-51078254D01*
X1244528Y-51244850D01*
X1326595Y-51398386D01*
X1437038Y-51532962D01*
X1571614Y-51643405D01*
X1725150Y-51725472D01*
X1891746Y-51776008D01*
X2065000Y-51793072D01*
X2690771Y-51793072D01*
X3863701Y-52966003D01*
X3887499Y-52995001D01*
X3916497Y-53018799D01*
X4003223Y-53089974D01*
X4127501Y-53156402D01*
X4127501Y-53444401D01*
X4001898Y-53392374D01*
X3801939Y-53352600D01*
X3598061Y-53352600D01*
X3398102Y-53392374D01*
X3209744Y-53470395D01*
X3040226Y-53583663D01*
X2896063Y-53727826D01*
X2782795Y-53897344D01*
X2704774Y-54085702D01*
X2665000Y-54285661D01*
X2665000Y-54489539D01*
X2704774Y-54689498D01*
X2782795Y-54877856D01*
X2896063Y-55047374D01*
X2940001Y-55091312D01*
X2940000Y-65817554D01*
X2785148Y-65864528D01*
X2631612Y-65946595D01*
X2497037Y-66057037D01*
X2386595Y-66191612D01*
X2304528Y-66345148D01*
X2253992Y-66511743D01*
X2236928Y-66684997D01*
X2236928Y-67935003D01*
X2253992Y-68108257D01*
X2304528Y-68274852D01*
X2386595Y-68428388D01*
X2497037Y-68562963D01*
X2631612Y-68673405D01*
X2785148Y-68755472D01*
X2951743Y-68806008D01*
X3124997Y-68823072D01*
X3202501Y-68823072D01*
X3202500Y-72908705D01*
X3131614Y-72946595D01*
X2997038Y-73057038D01*
X2886595Y-73191614D01*
X2804528Y-73345150D01*
X2753992Y-73511746D01*
X2736928Y-73685000D01*
X2736928Y-74310771D01*
X2613498Y-74434201D01*
X2584500Y-74457999D01*
X2560702Y-74486997D01*
X2560701Y-74486998D01*
X2489526Y-74573724D01*
X2418954Y-74705754D01*
X2375498Y-74849015D01*
X2360824Y-74998000D01*
X2364501Y-75035332D01*
X2364500Y-83097609D01*
X2336595Y-83131612D01*
X2254528Y-83285148D01*
X2203992Y-83451743D01*
X2186928Y-83624997D01*
X2186928Y-84250003D01*
X2203992Y-84423257D01*
X2254528Y-84589852D01*
X2336595Y-84743388D01*
X2447037Y-84877963D01*
X2581612Y-84988405D01*
X2735148Y-85070472D01*
X2901743Y-85121008D01*
X3074997Y-85138072D01*
X4325003Y-85138072D01*
X4352317Y-85135382D01*
X3825771Y-85661928D01*
X3074997Y-85661928D01*
X2901743Y-85678992D01*
X2735148Y-85729528D01*
X2581612Y-85811595D01*
X2447037Y-85922037D01*
X2336595Y-86056612D01*
X2254528Y-86210148D01*
X2203992Y-86376743D01*
X2186928Y-86549997D01*
X2186928Y-87175003D01*
X2203992Y-87348257D01*
X2254528Y-87514852D01*
X2336595Y-87668388D01*
X2447037Y-87802963D01*
X2581612Y-87913405D01*
X2735148Y-87995472D01*
X2901743Y-88046008D01*
X2940001Y-88049776D01*
X2940000Y-93316877D01*
X2936324Y-93354200D01*
X2940000Y-93391522D01*
X2940000Y-93391532D01*
X2950997Y-93503185D01*
X2992606Y-93640354D01*
X2994454Y-93646446D01*
X3065026Y-93778476D01*
X3104871Y-93827026D01*
X3159999Y-93894201D01*
X3189003Y-93918004D01*
X6737001Y-97466003D01*
X6760799Y-97495001D01*
X6876524Y-97589974D01*
X7008553Y-97660546D01*
X7151814Y-97704003D01*
X7263467Y-97715000D01*
X7263476Y-97715000D01*
X7300799Y-97718676D01*
X7338122Y-97715000D01*
X24351378Y-97715000D01*
X24388700Y-97718676D01*
X24426022Y-97715000D01*
X24426033Y-97715000D01*
X24537686Y-97704003D01*
X24680947Y-97660546D01*
X24812976Y-97589974D01*
X24928701Y-97495001D01*
X24952503Y-97465998D01*
X25747308Y-96671195D01*
X25776301Y-96647401D01*
X25800095Y-96618408D01*
X25800099Y-96618404D01*
X25871273Y-96531677D01*
X25871274Y-96531676D01*
X25941846Y-96399647D01*
X25985303Y-96256386D01*
X25996300Y-96144733D01*
X25996300Y-96144724D01*
X25999976Y-96107401D01*
X25996300Y-96070078D01*
X25996300Y-94383222D01*
X25999976Y-94345899D01*
X25996300Y-94308576D01*
X25996300Y-94308567D01*
X25985303Y-94196914D01*
X25941846Y-94053653D01*
X25871274Y-93921624D01*
X25776301Y-93805899D01*
X25747298Y-93782097D01*
X25426004Y-93460803D01*
X25402201Y-93431799D01*
X25286476Y-93336826D01*
X25154447Y-93266254D01*
X25011186Y-93222797D01*
X24899533Y-93211800D01*
X24899522Y-93211800D01*
X24862200Y-93208124D01*
X24824878Y-93211800D01*
X22297801Y-93211800D01*
X25402504Y-90107098D01*
X25431501Y-90083301D01*
X25500692Y-89998992D01*
X25526474Y-89967577D01*
X25597046Y-89835547D01*
X25604841Y-89809850D01*
X25626441Y-89738644D01*
X25656612Y-89763405D01*
X25810148Y-89845472D01*
X25976743Y-89896008D01*
X26149997Y-89913072D01*
X26775003Y-89913072D01*
X26948257Y-89896008D01*
X27114852Y-89845472D01*
X27268388Y-89763405D01*
X27402963Y-89652963D01*
X27513405Y-89518388D01*
X27595472Y-89364852D01*
X27646008Y-89198257D01*
X27663072Y-89025003D01*
X27663072Y-87774997D01*
X27646008Y-87601743D01*
X27595472Y-87435148D01*
X27513405Y-87281612D01*
X27478771Y-87239409D01*
X27491326Y-87209098D01*
X27531100Y-87009139D01*
X27531100Y-86805261D01*
X27491326Y-86605302D01*
X27413305Y-86416944D01*
X27300037Y-86247426D01*
X27252356Y-86199745D01*
X27875704Y-85576398D01*
X27904701Y-85552601D01*
X27960180Y-85485000D01*
X27999674Y-85436877D01*
X28050205Y-85342341D01*
X28256842Y-85427932D01*
X28543740Y-85485000D01*
X28836260Y-85485000D01*
X29083000Y-85435920D01*
X29083000Y-105315000D01*
X685000Y-105315000D01*
X685000Y-43415193D01*
X764997Y-43423072D01*
X1390003Y-43423072D01*
X1563257Y-43406008D01*
X1729852Y-43355472D01*
X1883388Y-43273405D01*
X2017963Y-43162963D01*
X2128405Y-43028388D01*
X2168749Y-42952910D01*
X2887697Y-43671898D01*
%TA.AperFunction,NonConductor*%
D19*
G36*
X2887697Y-43671898D02*
G01*
X2911499Y-43700901D01*
X2961726Y-43742121D01*
X3027206Y-43795862D01*
X3027216Y-43795867D01*
X3027224Y-43795874D01*
X3104386Y-43837118D01*
X3159233Y-43866437D01*
X3159240Y-43866439D01*
X3159253Y-43866446D01*
X3256879Y-43896060D01*
X3302493Y-43909898D01*
X3302500Y-43909899D01*
X3302514Y-43909903D01*
X3409746Y-43920465D01*
X3451478Y-43924576D01*
X3488811Y-43920900D01*
X4947078Y-43920900D01*
X4984400Y-43924576D01*
X5021722Y-43920900D01*
X5021733Y-43920900D01*
X5133386Y-43909903D01*
X5276647Y-43866446D01*
X5408676Y-43795874D01*
X5524401Y-43700901D01*
X5548204Y-43671897D01*
X6106928Y-43113173D01*
X6106928Y-43300003D01*
X6123992Y-43473257D01*
X6174528Y-43639852D01*
X6256595Y-43793388D01*
X6367037Y-43927963D01*
X6501612Y-44038405D01*
X6655148Y-44120472D01*
X6821743Y-44171008D01*
X6994997Y-44188072D01*
X8245003Y-44188072D01*
X8418257Y-44171008D01*
X8584852Y-44120472D01*
X8738388Y-44038405D01*
X8872963Y-43927963D01*
X8983405Y-43793388D01*
X9007933Y-43747500D01*
X9166928Y-43747500D01*
X9166928Y-44290000D01*
X9183992Y-44463254D01*
X9234528Y-44629850D01*
X9316595Y-44783386D01*
X9427038Y-44917962D01*
X9436188Y-44925472D01*
X9416398Y-44917274D01*
X9216439Y-44877500D01*
X9012561Y-44877500D01*
X8812602Y-44917274D01*
X8808370Y-44919027D01*
X8738388Y-44861595D01*
X8584852Y-44779528D01*
X8418257Y-44728992D01*
X8245003Y-44711928D01*
X6994997Y-44711928D01*
X6821743Y-44728992D01*
X6655148Y-44779528D01*
X6501612Y-44861595D01*
X6367037Y-44972037D01*
X6351716Y-44990705D01*
X6242674Y-44881663D01*
X6073156Y-44768395D01*
X5884798Y-44690374D01*
X5684839Y-44650600D01*
X5480961Y-44650600D01*
X5281002Y-44690374D01*
X5092644Y-44768395D01*
X4923126Y-44881663D01*
X4778963Y-45025826D01*
X4665695Y-45195344D01*
X4587674Y-45383702D01*
X4547900Y-45583661D01*
X4547900Y-45787539D01*
X4587674Y-45987498D01*
X4665695Y-46175856D01*
X4778963Y-46345374D01*
X4822901Y-46389312D01*
X4822900Y-46985598D01*
X4075999Y-47732500D01*
X3791294Y-47732500D01*
X3753405Y-47661614D01*
X3642962Y-47527038D01*
X3508386Y-47416595D01*
X3354850Y-47334528D01*
X3188254Y-47283992D01*
X3015000Y-47266928D01*
X2065000Y-47266928D01*
X1891746Y-47283992D01*
X1725150Y-47334528D01*
X1571614Y-47416595D01*
X1437038Y-47527038D01*
X1326595Y-47661614D01*
X1244528Y-47815150D01*
X1193992Y-47981746D01*
X1176928Y-48155000D01*
X1176928Y-48830000D01*
X1193992Y-49003254D01*
X1244528Y-49169850D01*
X1326595Y-49323386D01*
X1437038Y-49457962D01*
X1524817Y-49530000D01*
X1437038Y-49602038D01*
X1326595Y-49736614D01*
X1244528Y-49890150D01*
X1193992Y-50056746D01*
X1176928Y-50230000D01*
X1176928Y-50905000D01*
X1193992Y-51078254D01*
X1244528Y-51244850D01*
X1326595Y-51398386D01*
X1437038Y-51532962D01*
X1571614Y-51643405D01*
X1725150Y-51725472D01*
X1891746Y-51776008D01*
X2065000Y-51793072D01*
X2690771Y-51793072D01*
X3863701Y-52966003D01*
X3887499Y-52995001D01*
X3916497Y-53018799D01*
X4003223Y-53089974D01*
X4127501Y-53156402D01*
X4127501Y-53444401D01*
X4001898Y-53392374D01*
X3801939Y-53352600D01*
X3598061Y-53352600D01*
X3398102Y-53392374D01*
X3209744Y-53470395D01*
X3040226Y-53583663D01*
X2896063Y-53727826D01*
X2782795Y-53897344D01*
X2704774Y-54085702D01*
X2665000Y-54285661D01*
X2665000Y-54489539D01*
X2704774Y-54689498D01*
X2782795Y-54877856D01*
X2896063Y-55047374D01*
X2940001Y-55091312D01*
X2940000Y-65817554D01*
X2785148Y-65864528D01*
X2631612Y-65946595D01*
X2497037Y-66057037D01*
X2386595Y-66191612D01*
X2304528Y-66345148D01*
X2253992Y-66511743D01*
X2236928Y-66684997D01*
X2236928Y-67935003D01*
X2253992Y-68108257D01*
X2304528Y-68274852D01*
X2386595Y-68428388D01*
X2497037Y-68562963D01*
X2631612Y-68673405D01*
X2785148Y-68755472D01*
X2951743Y-68806008D01*
X3124997Y-68823072D01*
X3202501Y-68823072D01*
X3202500Y-72908705D01*
X3131614Y-72946595D01*
X2997038Y-73057038D01*
X2886595Y-73191614D01*
X2804528Y-73345150D01*
X2753992Y-73511746D01*
X2736928Y-73685000D01*
X2736928Y-74310771D01*
X2613498Y-74434201D01*
X2584500Y-74457999D01*
X2560702Y-74486997D01*
X2560701Y-74486998D01*
X2489526Y-74573724D01*
X2418954Y-74705754D01*
X2375498Y-74849015D01*
X2360824Y-74998000D01*
X2364501Y-75035332D01*
X2364500Y-83097609D01*
X2336595Y-83131612D01*
X2254528Y-83285148D01*
X2203992Y-83451743D01*
X2186928Y-83624997D01*
X2186928Y-84250003D01*
X2203992Y-84423257D01*
X2254528Y-84589852D01*
X2336595Y-84743388D01*
X2447037Y-84877963D01*
X2581612Y-84988405D01*
X2735148Y-85070472D01*
X2901743Y-85121008D01*
X3074997Y-85138072D01*
X4325003Y-85138072D01*
X4352317Y-85135382D01*
X3825771Y-85661928D01*
X3074997Y-85661928D01*
X2901743Y-85678992D01*
X2735148Y-85729528D01*
X2581612Y-85811595D01*
X2447037Y-85922037D01*
X2336595Y-86056612D01*
X2254528Y-86210148D01*
X2203992Y-86376743D01*
X2186928Y-86549997D01*
X2186928Y-87175003D01*
X2203992Y-87348257D01*
X2254528Y-87514852D01*
X2336595Y-87668388D01*
X2447037Y-87802963D01*
X2581612Y-87913405D01*
X2735148Y-87995472D01*
X2901743Y-88046008D01*
X2940001Y-88049776D01*
X2940000Y-93316877D01*
X2936324Y-93354200D01*
X2940000Y-93391522D01*
X2940000Y-93391532D01*
X2950997Y-93503185D01*
X2992606Y-93640354D01*
X2994454Y-93646446D01*
X3065026Y-93778476D01*
X3104871Y-93827026D01*
X3159999Y-93894201D01*
X3189003Y-93918004D01*
X6737001Y-97466003D01*
X6760799Y-97495001D01*
X6876524Y-97589974D01*
X7008553Y-97660546D01*
X7151814Y-97704003D01*
X7263467Y-97715000D01*
X7263476Y-97715000D01*
X7300799Y-97718676D01*
X7338122Y-97715000D01*
X24351378Y-97715000D01*
X24388700Y-97718676D01*
X24426022Y-97715000D01*
X24426033Y-97715000D01*
X24537686Y-97704003D01*
X24680947Y-97660546D01*
X24812976Y-97589974D01*
X24928701Y-97495001D01*
X24952503Y-97465998D01*
X25747308Y-96671195D01*
X25776301Y-96647401D01*
X25800095Y-96618408D01*
X25800099Y-96618404D01*
X25871273Y-96531677D01*
X25871274Y-96531676D01*
X25941846Y-96399647D01*
X25985303Y-96256386D01*
X25996300Y-96144733D01*
X25996300Y-96144724D01*
X25999976Y-96107401D01*
X25996300Y-96070078D01*
X25996300Y-94383222D01*
X25999976Y-94345899D01*
X25996300Y-94308576D01*
X25996300Y-94308567D01*
X25985303Y-94196914D01*
X25941846Y-94053653D01*
X25871274Y-93921624D01*
X25776301Y-93805899D01*
X25747298Y-93782097D01*
X25426004Y-93460803D01*
X25402201Y-93431799D01*
X25286476Y-93336826D01*
X25154447Y-93266254D01*
X25011186Y-93222797D01*
X24899533Y-93211800D01*
X24899522Y-93211800D01*
X24862200Y-93208124D01*
X24824878Y-93211800D01*
X22297801Y-93211800D01*
X25402504Y-90107098D01*
X25431501Y-90083301D01*
X25500692Y-89998992D01*
X25526474Y-89967577D01*
X25597046Y-89835547D01*
X25604841Y-89809850D01*
X25626441Y-89738644D01*
X25656612Y-89763405D01*
X25810148Y-89845472D01*
X25976743Y-89896008D01*
X26149997Y-89913072D01*
X26775003Y-89913072D01*
X26948257Y-89896008D01*
X27114852Y-89845472D01*
X27268388Y-89763405D01*
X27402963Y-89652963D01*
X27513405Y-89518388D01*
X27595472Y-89364852D01*
X27646008Y-89198257D01*
X27663072Y-89025003D01*
X27663072Y-87774997D01*
X27646008Y-87601743D01*
X27595472Y-87435148D01*
X27513405Y-87281612D01*
X27478771Y-87239409D01*
X27491326Y-87209098D01*
X27531100Y-87009139D01*
X27531100Y-86805261D01*
X27491326Y-86605302D01*
X27413305Y-86416944D01*
X27300037Y-86247426D01*
X27252356Y-86199745D01*
X27875704Y-85576398D01*
X27904701Y-85552601D01*
X27960180Y-85485000D01*
X27999674Y-85436877D01*
X28050205Y-85342341D01*
X28256842Y-85427932D01*
X28543740Y-85485000D01*
X28836260Y-85485000D01*
X29083000Y-85435920D01*
X29083000Y-105315000D01*
X685000Y-105315000D01*
X685000Y-43415193D01*
X764997Y-43423072D01*
X1390003Y-43423072D01*
X1563257Y-43406008D01*
X1729852Y-43355472D01*
X1883388Y-43273405D01*
X2017963Y-43162963D01*
X2128405Y-43028388D01*
X2168749Y-42952910D01*
X2887697Y-43671898D01*
G37*
%TD.AperFunction*%
D18*
X10536928Y-95249230D02*
X10536928Y-95875000D01*
X10553992Y-96048254D01*
X10598507Y-96195000D01*
X9011942Y-96195000D01*
X9065472Y-96094852D01*
X9116008Y-95928257D01*
X9133072Y-95755003D01*
X9133072Y-95129997D01*
X9121796Y-95015506D01*
X9579802Y-94557500D01*
X9845199Y-94557500D01*
X10536928Y-95249230D01*
%TA.AperFunction,NonConductor*%
D19*
G36*
X10536928Y-95249230D02*
G01*
X10536928Y-95875000D01*
X10553992Y-96048254D01*
X10598507Y-96195000D01*
X9011942Y-96195000D01*
X9065472Y-96094852D01*
X9116008Y-95928257D01*
X9133072Y-95755003D01*
X9133072Y-95129997D01*
X9121796Y-95015506D01*
X9579802Y-94557500D01*
X9845199Y-94557500D01*
X10536928Y-95249230D01*
G37*
%TD.AperFunction*%
D18*
X23121928Y-95375771D02*
X22779699Y-95718000D01*
X22598072Y-95718000D01*
X22598072Y-94731800D01*
X23121928Y-94731800D01*
X23121928Y-95375771D01*
%TA.AperFunction,NonConductor*%
D19*
G36*
X23121928Y-95375771D02*
G01*
X22779699Y-95718000D01*
X22598072Y-95718000D01*
X22598072Y-94731800D01*
X23121928Y-94731800D01*
X23121928Y-95375771D01*
G37*
%TD.AperFunction*%
D18*
X16403992Y-93508257D02*
X16454528Y-93674852D01*
X16536595Y-93828388D01*
X16647037Y-93962963D01*
X16781612Y-94073405D01*
X16935148Y-94155472D01*
X17101743Y-94206008D01*
X17274997Y-94223072D01*
X17900003Y-94223072D01*
X18014494Y-94211796D01*
X19520697Y-95718000D01*
X15063072Y-95718000D01*
X15063072Y-95249230D01*
X15311004Y-95001298D01*
X15340001Y-94977501D01*
X15434974Y-94861776D01*
X15505546Y-94729747D01*
X15549003Y-94586486D01*
X15560000Y-94474833D01*
X15560000Y-94474832D01*
X15563677Y-94437500D01*
X15560000Y-94400167D01*
X15560000Y-93470000D01*
X16400224Y-93470000D01*
X16403992Y-93508257D01*
%TA.AperFunction,NonConductor*%
D19*
G36*
X16403992Y-93508257D02*
G01*
X16454528Y-93674852D01*
X16536595Y-93828388D01*
X16647037Y-93962963D01*
X16781612Y-94073405D01*
X16935148Y-94155472D01*
X17101743Y-94206008D01*
X17274997Y-94223072D01*
X17900003Y-94223072D01*
X18014494Y-94211796D01*
X19520697Y-95718000D01*
X15063072Y-95718000D01*
X15063072Y-95249230D01*
X15311004Y-95001298D01*
X15340001Y-94977501D01*
X15434974Y-94861776D01*
X15505546Y-94729747D01*
X15549003Y-94586486D01*
X15560000Y-94474833D01*
X15560000Y-94474832D01*
X15563677Y-94437500D01*
X15560000Y-94400167D01*
X15560000Y-93470000D01*
X16400224Y-93470000D01*
X16403992Y-93508257D01*
G37*
%TD.AperFunction*%
D18*
X5097037Y-87702963D02*
X5231612Y-87813405D01*
X5385148Y-87895472D01*
X5551743Y-87946008D01*
X5724997Y-87963072D01*
X6062971Y-87963072D01*
X8344898Y-90245000D01*
X7272971Y-91316928D01*
X6994997Y-91316928D01*
X6821743Y-91333992D01*
X6655148Y-91384528D01*
X6501612Y-91466595D01*
X6367037Y-91577037D01*
X6256595Y-91711612D01*
X6174528Y-91865148D01*
X6123992Y-92031743D01*
X6106928Y-92204997D01*
X6106928Y-92830003D01*
X6123992Y-93003257D01*
X6174528Y-93169852D01*
X6256595Y-93323388D01*
X6367037Y-93457963D01*
X6501612Y-93568405D01*
X6655148Y-93650472D01*
X6821743Y-93701008D01*
X6994997Y-93718072D01*
X8245003Y-93718072D01*
X8272316Y-93715382D01*
X7745771Y-94241928D01*
X6994997Y-94241928D01*
X6821743Y-94258992D01*
X6655148Y-94309528D01*
X6501612Y-94391595D01*
X6367037Y-94502037D01*
X6256595Y-94636612D01*
X6187145Y-94766543D01*
X4460000Y-93039399D01*
X4460000Y-88049776D01*
X4498257Y-88046008D01*
X4664852Y-87995472D01*
X4818388Y-87913405D01*
X4952963Y-87802963D01*
X5063405Y-87668388D01*
X5065479Y-87664509D01*
X5097037Y-87702963D01*
%TA.AperFunction,NonConductor*%
D19*
G36*
X5097037Y-87702963D02*
G01*
X5231612Y-87813405D01*
X5385148Y-87895472D01*
X5551743Y-87946008D01*
X5724997Y-87963072D01*
X6062971Y-87963072D01*
X8344898Y-90245000D01*
X7272971Y-91316928D01*
X6994997Y-91316928D01*
X6821743Y-91333992D01*
X6655148Y-91384528D01*
X6501612Y-91466595D01*
X6367037Y-91577037D01*
X6256595Y-91711612D01*
X6174528Y-91865148D01*
X6123992Y-92031743D01*
X6106928Y-92204997D01*
X6106928Y-92830003D01*
X6123992Y-93003257D01*
X6174528Y-93169852D01*
X6256595Y-93323388D01*
X6367037Y-93457963D01*
X6501612Y-93568405D01*
X6655148Y-93650472D01*
X6821743Y-93701008D01*
X6994997Y-93718072D01*
X8245003Y-93718072D01*
X8272316Y-93715382D01*
X7745771Y-94241928D01*
X6994997Y-94241928D01*
X6821743Y-94258992D01*
X6655148Y-94309528D01*
X6501612Y-94391595D01*
X6367037Y-94502037D01*
X6256595Y-94636612D01*
X6187145Y-94766543D01*
X4460000Y-93039399D01*
X4460000Y-88049776D01*
X4498257Y-88046008D01*
X4664852Y-87995472D01*
X4818388Y-87913405D01*
X4952963Y-87802963D01*
X5063405Y-87668388D01*
X5065479Y-87664509D01*
X5097037Y-87702963D01*
G37*
%TD.AperFunction*%
D18*
X12040000Y-94015902D02*
X12040000Y-94036928D01*
X11474229Y-94036928D01*
X10920000Y-93482699D01*
X10920000Y-92895901D01*
X12040000Y-94015902D01*
%TA.AperFunction,NonConductor*%
D19*
G36*
X12040000Y-94015902D02*
G01*
X12040000Y-94036928D01*
X11474229Y-94036928D01*
X10920000Y-93482699D01*
X10920000Y-92895901D01*
X12040000Y-94015902D01*
G37*
%TD.AperFunction*%
D18*
X13834538Y-93102962D02*
X13969114Y-93213405D01*
X14040001Y-93251295D01*
X14040000Y-94036928D01*
X13560000Y-94036928D01*
X13560000Y-93738423D01*
X13563676Y-93701100D01*
X13560000Y-93663777D01*
X13560000Y-93663767D01*
X13549003Y-93552114D01*
X13505546Y-93408853D01*
X13435477Y-93277765D01*
X13555886Y-93213405D01*
X13690462Y-93102962D01*
X13762500Y-93015183D01*
X13834538Y-93102962D01*
%TA.AperFunction,NonConductor*%
D19*
G36*
X13834538Y-93102962D02*
G01*
X13969114Y-93213405D01*
X14040001Y-93251295D01*
X14040000Y-94036928D01*
X13560000Y-94036928D01*
X13560000Y-93738423D01*
X13563676Y-93701100D01*
X13560000Y-93663777D01*
X13560000Y-93663767D01*
X13549003Y-93552114D01*
X13505546Y-93408853D01*
X13435477Y-93277765D01*
X13555886Y-93213405D01*
X13690462Y-93102962D01*
X13762500Y-93015183D01*
X13834538Y-93102962D01*
G37*
%TD.AperFunction*%
D18*
X9191614Y-92283405D02*
X9345150Y-92365472D01*
X9400001Y-92382111D01*
X9400000Y-93037500D01*
X9302322Y-93037500D01*
X9264999Y-93033824D01*
X9227676Y-93037500D01*
X9227667Y-93037500D01*
X9116014Y-93048497D01*
X9100893Y-93053084D01*
X9116008Y-93003257D01*
X9133072Y-92830003D01*
X9133072Y-92235361D01*
X9191614Y-92283405D01*
%TA.AperFunction,NonConductor*%
D19*
G36*
X9191614Y-92283405D02*
G01*
X9345150Y-92365472D01*
X9400001Y-92382111D01*
X9400000Y-93037500D01*
X9302322Y-93037500D01*
X9264999Y-93033824D01*
X9227676Y-93037500D01*
X9227667Y-93037500D01*
X9116014Y-93048497D01*
X9100893Y-93053084D01*
X9116008Y-93003257D01*
X9133072Y-92830003D01*
X9133072Y-92235361D01*
X9191614Y-92283405D01*
G37*
%TD.AperFunction*%
D18*
X20703701Y-88911003D02*
X20727499Y-88940001D01*
X20843224Y-89034974D01*
X20975253Y-89105546D01*
X21118514Y-89149003D01*
X21230167Y-89160000D01*
X21230177Y-89160000D01*
X21267500Y-89163676D01*
X21304823Y-89160000D01*
X22350224Y-89160000D01*
X22353992Y-89198257D01*
X22404528Y-89364852D01*
X22486595Y-89518388D01*
X22597037Y-89652963D01*
X22731612Y-89763405D01*
X22835151Y-89818748D01*
X22144399Y-90509500D01*
X20225122Y-90509500D01*
X20187799Y-90505824D01*
X20150476Y-90509500D01*
X20150467Y-90509500D01*
X20038814Y-90520497D01*
X19895553Y-90563954D01*
X19763524Y-90634526D01*
X19647799Y-90729499D01*
X19624000Y-90758498D01*
X19103602Y-91278897D01*
X19074599Y-91302699D01*
X19038575Y-91346595D01*
X18979626Y-91418424D01*
X18958987Y-91457037D01*
X18909054Y-91550454D01*
X18865597Y-91693715D01*
X18854600Y-91805368D01*
X18854600Y-91805378D01*
X18850924Y-91842700D01*
X18854600Y-91880023D01*
X18854601Y-92902299D01*
X18788072Y-92835770D01*
X18788072Y-92084997D01*
X18771008Y-91911743D01*
X18720472Y-91745148D01*
X18638405Y-91591612D01*
X18527963Y-91457037D01*
X18393388Y-91346595D01*
X18239852Y-91264528D01*
X18073257Y-91213992D01*
X17900003Y-91196928D01*
X17274997Y-91196928D01*
X17101743Y-91213992D01*
X16935148Y-91264528D01*
X16781612Y-91346595D01*
X16647037Y-91457037D01*
X16536595Y-91591612D01*
X16454528Y-91745148D01*
X16403992Y-91911743D01*
X16400224Y-91950000D01*
X16025572Y-91950000D01*
X16025572Y-91525000D01*
X16008508Y-91351746D01*
X15957972Y-91185150D01*
X15875905Y-91031614D01*
X15765462Y-90897038D01*
X15630886Y-90786595D01*
X15477350Y-90704528D01*
X15310754Y-90653992D01*
X15137500Y-90636928D01*
X14462500Y-90636928D01*
X14289246Y-90653992D01*
X14122650Y-90704528D01*
X13969114Y-90786595D01*
X13834538Y-90897038D01*
X13762500Y-90984817D01*
X13690462Y-90897038D01*
X13555886Y-90786595D01*
X13485000Y-90748706D01*
X13485000Y-90652301D01*
X15005506Y-89131796D01*
X15119997Y-89143072D01*
X15745003Y-89143072D01*
X15918257Y-89126008D01*
X16084852Y-89075472D01*
X16238388Y-88993405D01*
X16372963Y-88882963D01*
X16483405Y-88748388D01*
X16565472Y-88594852D01*
X16616008Y-88428257D01*
X16633072Y-88255003D01*
X16633072Y-87004997D01*
X16616008Y-86831743D01*
X16565472Y-86665148D01*
X16483405Y-86511612D01*
X16372963Y-86377037D01*
X16238388Y-86266595D01*
X16084852Y-86184528D01*
X15918257Y-86133992D01*
X15745003Y-86116928D01*
X15480000Y-86116928D01*
X15480000Y-85396103D01*
X15556842Y-85427932D01*
X15843740Y-85485000D01*
X16136260Y-85485000D01*
X16423158Y-85427932D01*
X16693411Y-85315990D01*
X16936632Y-85153475D01*
X16941403Y-85148704D01*
X20703701Y-88911003D01*
%TA.AperFunction,NonConductor*%
D19*
G36*
X20703701Y-88911003D02*
G01*
X20727499Y-88940001D01*
X20843224Y-89034974D01*
X20975253Y-89105546D01*
X21118514Y-89149003D01*
X21230167Y-89160000D01*
X21230177Y-89160000D01*
X21267500Y-89163676D01*
X21304823Y-89160000D01*
X22350224Y-89160000D01*
X22353992Y-89198257D01*
X22404528Y-89364852D01*
X22486595Y-89518388D01*
X22597037Y-89652963D01*
X22731612Y-89763405D01*
X22835151Y-89818748D01*
X22144399Y-90509500D01*
X20225122Y-90509500D01*
X20187799Y-90505824D01*
X20150476Y-90509500D01*
X20150467Y-90509500D01*
X20038814Y-90520497D01*
X19895553Y-90563954D01*
X19763524Y-90634526D01*
X19647799Y-90729499D01*
X19624000Y-90758498D01*
X19103602Y-91278897D01*
X19074599Y-91302699D01*
X19038575Y-91346595D01*
X18979626Y-91418424D01*
X18958987Y-91457037D01*
X18909054Y-91550454D01*
X18865597Y-91693715D01*
X18854600Y-91805368D01*
X18854600Y-91805378D01*
X18850924Y-91842700D01*
X18854600Y-91880023D01*
X18854601Y-92902299D01*
X18788072Y-92835770D01*
X18788072Y-92084997D01*
X18771008Y-91911743D01*
X18720472Y-91745148D01*
X18638405Y-91591612D01*
X18527963Y-91457037D01*
X18393388Y-91346595D01*
X18239852Y-91264528D01*
X18073257Y-91213992D01*
X17900003Y-91196928D01*
X17274997Y-91196928D01*
X17101743Y-91213992D01*
X16935148Y-91264528D01*
X16781612Y-91346595D01*
X16647037Y-91457037D01*
X16536595Y-91591612D01*
X16454528Y-91745148D01*
X16403992Y-91911743D01*
X16400224Y-91950000D01*
X16025572Y-91950000D01*
X16025572Y-91525000D01*
X16008508Y-91351746D01*
X15957972Y-91185150D01*
X15875905Y-91031614D01*
X15765462Y-90897038D01*
X15630886Y-90786595D01*
X15477350Y-90704528D01*
X15310754Y-90653992D01*
X15137500Y-90636928D01*
X14462500Y-90636928D01*
X14289246Y-90653992D01*
X14122650Y-90704528D01*
X13969114Y-90786595D01*
X13834538Y-90897038D01*
X13762500Y-90984817D01*
X13690462Y-90897038D01*
X13555886Y-90786595D01*
X13485000Y-90748706D01*
X13485000Y-90652301D01*
X15005506Y-89131796D01*
X15119997Y-89143072D01*
X15745003Y-89143072D01*
X15918257Y-89126008D01*
X16084852Y-89075472D01*
X16238388Y-88993405D01*
X16372963Y-88882963D01*
X16483405Y-88748388D01*
X16565472Y-88594852D01*
X16616008Y-88428257D01*
X16633072Y-88255003D01*
X16633072Y-87004997D01*
X16616008Y-86831743D01*
X16565472Y-86665148D01*
X16483405Y-86511612D01*
X16372963Y-86377037D01*
X16238388Y-86266595D01*
X16084852Y-86184528D01*
X15918257Y-86133992D01*
X15745003Y-86116928D01*
X15480000Y-86116928D01*
X15480000Y-85396103D01*
X15556842Y-85427932D01*
X15843740Y-85485000D01*
X16136260Y-85485000D01*
X16423158Y-85427932D01*
X16693411Y-85315990D01*
X16936632Y-85153475D01*
X16941403Y-85148704D01*
X20703701Y-88911003D01*
G37*
%TD.AperFunction*%
D18*
X11567037Y-88882963D02*
X11701612Y-88993405D01*
X11855148Y-89075472D01*
X12021743Y-89126008D01*
X12194997Y-89143072D01*
X12820003Y-89143072D01*
X12847317Y-89140382D01*
X12214003Y-89773696D01*
X12184999Y-89797499D01*
X12145629Y-89845472D01*
X12090026Y-89913224D01*
X12068897Y-89952754D01*
X12019454Y-90045254D01*
X11975997Y-90188515D01*
X11968014Y-90269566D01*
X11922001Y-90213499D01*
X11892998Y-90189697D01*
X11468896Y-89765595D01*
X11506008Y-89643254D01*
X11523072Y-89470000D01*
X11523072Y-88844229D01*
X11529760Y-88837541D01*
X11567037Y-88882963D01*
%TA.AperFunction,NonConductor*%
D19*
G36*
X11567037Y-88882963D02*
G01*
X11701612Y-88993405D01*
X11855148Y-89075472D01*
X12021743Y-89126008D01*
X12194997Y-89143072D01*
X12820003Y-89143072D01*
X12847317Y-89140382D01*
X12214003Y-89773696D01*
X12184999Y-89797499D01*
X12145629Y-89845472D01*
X12090026Y-89913224D01*
X12068897Y-89952754D01*
X12019454Y-90045254D01*
X11975997Y-90188515D01*
X11968014Y-90269566D01*
X11922001Y-90213499D01*
X11892998Y-90189697D01*
X11468896Y-89765595D01*
X11506008Y-89643254D01*
X11523072Y-89470000D01*
X11523072Y-88844229D01*
X11529760Y-88837541D01*
X11567037Y-88882963D01*
G37*
%TD.AperFunction*%
D18*
X9998815Y-79591185D02*
X10095506Y-79670537D01*
X10205820Y-79729502D01*
X10325518Y-79765812D01*
X10450000Y-79778072D01*
X11350000Y-79778072D01*
X11364600Y-79776634D01*
X11364600Y-82511928D01*
X10060000Y-82511928D01*
X9935518Y-82524188D01*
X9815820Y-82560498D01*
X9705506Y-82619463D01*
X9608815Y-82698815D01*
X9529463Y-82795506D01*
X9470498Y-82905820D01*
X9434188Y-83025518D01*
X9421928Y-83150000D01*
X9421928Y-84850000D01*
X9434188Y-84974482D01*
X9470498Y-85094180D01*
X9529463Y-85204494D01*
X9608815Y-85301185D01*
X9705506Y-85380537D01*
X9815820Y-85439502D01*
X9935518Y-85475812D01*
X10060000Y-85488072D01*
X11364601Y-85488072D01*
X11364601Y-86697873D01*
X11323992Y-86831743D01*
X11317222Y-86900476D01*
X10310771Y-87906928D01*
X9685000Y-87906928D01*
X9511746Y-87923992D01*
X9345150Y-87974528D01*
X9191614Y-88056595D01*
X9057038Y-88167038D01*
X8946595Y-88301614D01*
X8864528Y-88455150D01*
X8827318Y-88577816D01*
X7749800Y-87500298D01*
X7795472Y-87414852D01*
X7846008Y-87248257D01*
X7863072Y-87075003D01*
X7863072Y-86449997D01*
X7851796Y-86335506D01*
X8078904Y-86108398D01*
X8107901Y-86084601D01*
X8202874Y-85968876D01*
X8273446Y-85836847D01*
X8316903Y-85693586D01*
X8327900Y-85581933D01*
X8327900Y-85581925D01*
X8331576Y-85544600D01*
X8327900Y-85507275D01*
X8327900Y-82593922D01*
X8331576Y-82556599D01*
X8327900Y-82519276D01*
X8327900Y-82519267D01*
X8316903Y-82407614D01*
X8273446Y-82264353D01*
X8202874Y-82132324D01*
X8107901Y-82016599D01*
X8078903Y-81992801D01*
X6189173Y-80103072D01*
X6455000Y-80103072D01*
X6628254Y-80086008D01*
X6794850Y-80035472D01*
X6948386Y-79953405D01*
X7082962Y-79842962D01*
X7193405Y-79708386D01*
X7275472Y-79554850D01*
X7292110Y-79500000D01*
X9923982Y-79500000D01*
X9998815Y-79591185D01*
%TA.AperFunction,NonConductor*%
D19*
G36*
X9998815Y-79591185D02*
G01*
X10095506Y-79670537D01*
X10205820Y-79729502D01*
X10325518Y-79765812D01*
X10450000Y-79778072D01*
X11350000Y-79778072D01*
X11364600Y-79776634D01*
X11364600Y-82511928D01*
X10060000Y-82511928D01*
X9935518Y-82524188D01*
X9815820Y-82560498D01*
X9705506Y-82619463D01*
X9608815Y-82698815D01*
X9529463Y-82795506D01*
X9470498Y-82905820D01*
X9434188Y-83025518D01*
X9421928Y-83150000D01*
X9421928Y-84850000D01*
X9434188Y-84974482D01*
X9470498Y-85094180D01*
X9529463Y-85204494D01*
X9608815Y-85301185D01*
X9705506Y-85380537D01*
X9815820Y-85439502D01*
X9935518Y-85475812D01*
X10060000Y-85488072D01*
X11364601Y-85488072D01*
X11364601Y-86697873D01*
X11323992Y-86831743D01*
X11317222Y-86900476D01*
X10310771Y-87906928D01*
X9685000Y-87906928D01*
X9511746Y-87923992D01*
X9345150Y-87974528D01*
X9191614Y-88056595D01*
X9057038Y-88167038D01*
X8946595Y-88301614D01*
X8864528Y-88455150D01*
X8827318Y-88577816D01*
X7749800Y-87500298D01*
X7795472Y-87414852D01*
X7846008Y-87248257D01*
X7863072Y-87075003D01*
X7863072Y-86449997D01*
X7851796Y-86335506D01*
X8078904Y-86108398D01*
X8107901Y-86084601D01*
X8202874Y-85968876D01*
X8273446Y-85836847D01*
X8316903Y-85693586D01*
X8327900Y-85581933D01*
X8327900Y-85581925D01*
X8331576Y-85544600D01*
X8327900Y-85507275D01*
X8327900Y-82593922D01*
X8331576Y-82556599D01*
X8327900Y-82519276D01*
X8327900Y-82519267D01*
X8316903Y-82407614D01*
X8273446Y-82264353D01*
X8202874Y-82132324D01*
X8107901Y-82016599D01*
X8078903Y-81992801D01*
X6189173Y-80103072D01*
X6455000Y-80103072D01*
X6628254Y-80086008D01*
X6794850Y-80035472D01*
X6948386Y-79953405D01*
X7082962Y-79842962D01*
X7193405Y-79708386D01*
X7275472Y-79554850D01*
X7292110Y-79500000D01*
X9923982Y-79500000D01*
X9998815Y-79591185D01*
G37*
%TD.AperFunction*%
D18*
X13016842Y-85427932D02*
X13303740Y-85485000D01*
X13596260Y-85485000D01*
X13883158Y-85427932D01*
X13960001Y-85396103D01*
X13960001Y-86880168D01*
X13956324Y-86917500D01*
X13960001Y-86954833D01*
X13970998Y-87066486D01*
X13980592Y-87098114D01*
X14014454Y-87209746D01*
X14085026Y-87341776D01*
X14144999Y-87414852D01*
X14180000Y-87457501D01*
X14208998Y-87481299D01*
X14231928Y-87504229D01*
X14231928Y-87755770D01*
X13705382Y-88282317D01*
X13708072Y-88255003D01*
X13708072Y-87004997D01*
X13691008Y-86831743D01*
X13640472Y-86665148D01*
X13558405Y-86511612D01*
X13447963Y-86377037D01*
X13313388Y-86266595D01*
X13159852Y-86184528D01*
X12993257Y-86133992D01*
X12884600Y-86123290D01*
X12884600Y-85373156D01*
X13016842Y-85427932D01*
%TA.AperFunction,NonConductor*%
D19*
G36*
X13016842Y-85427932D02*
G01*
X13303740Y-85485000D01*
X13596260Y-85485000D01*
X13883158Y-85427932D01*
X13960001Y-85396103D01*
X13960001Y-86880168D01*
X13956324Y-86917500D01*
X13960001Y-86954833D01*
X13970998Y-87066486D01*
X13980592Y-87098114D01*
X14014454Y-87209746D01*
X14085026Y-87341776D01*
X14144999Y-87414852D01*
X14180000Y-87457501D01*
X14208998Y-87481299D01*
X14231928Y-87504229D01*
X14231928Y-87755770D01*
X13705382Y-88282317D01*
X13708072Y-88255003D01*
X13708072Y-87004997D01*
X13691008Y-86831743D01*
X13640472Y-86665148D01*
X13558405Y-86511612D01*
X13447963Y-86377037D01*
X13313388Y-86266595D01*
X13159852Y-86184528D01*
X12993257Y-86133992D01*
X12884600Y-86123290D01*
X12884600Y-85373156D01*
X13016842Y-85427932D01*
G37*
%TD.AperFunction*%
D18*
X22456525Y-84946632D02*
X22663368Y-85153475D01*
X22856912Y-85282797D01*
X22860998Y-85324285D01*
X22904454Y-85467546D01*
X22975026Y-85599576D01*
X23026198Y-85661928D01*
X23070000Y-85715301D01*
X23098998Y-85739099D01*
X23681100Y-86321202D01*
X23681100Y-86886928D01*
X23224997Y-86886928D01*
X23051743Y-86903992D01*
X22885148Y-86954528D01*
X22731612Y-87036595D01*
X22597037Y-87147037D01*
X22486595Y-87281612D01*
X22404528Y-87435148D01*
X22353992Y-87601743D01*
X22350224Y-87640000D01*
X21582302Y-87640000D01*
X19248326Y-85306024D01*
X19476632Y-85153475D01*
X19683475Y-84946632D01*
X19800000Y-84772240D01*
X19916525Y-84946632D01*
X20123368Y-85153475D01*
X20366589Y-85315990D01*
X20636842Y-85427932D01*
X20923740Y-85485000D01*
X21216260Y-85485000D01*
X21503158Y-85427932D01*
X21773411Y-85315990D01*
X22016632Y-85153475D01*
X22223475Y-84946632D01*
X22340000Y-84772240D01*
X22456525Y-84946632D01*
%TA.AperFunction,NonConductor*%
D19*
G36*
X22456525Y-84946632D02*
G01*
X22663368Y-85153475D01*
X22856912Y-85282797D01*
X22860998Y-85324285D01*
X22904454Y-85467546D01*
X22975026Y-85599576D01*
X23026198Y-85661928D01*
X23070000Y-85715301D01*
X23098998Y-85739099D01*
X23681100Y-86321202D01*
X23681100Y-86886928D01*
X23224997Y-86886928D01*
X23051743Y-86903992D01*
X22885148Y-86954528D01*
X22731612Y-87036595D01*
X22597037Y-87147037D01*
X22486595Y-87281612D01*
X22404528Y-87435148D01*
X22353992Y-87601743D01*
X22350224Y-87640000D01*
X21582302Y-87640000D01*
X19248326Y-85306024D01*
X19476632Y-85153475D01*
X19683475Y-84946632D01*
X19800000Y-84772240D01*
X19916525Y-84946632D01*
X20123368Y-85153475D01*
X20366589Y-85315990D01*
X20636842Y-85427932D01*
X20923740Y-85485000D01*
X21216260Y-85485000D01*
X21503158Y-85427932D01*
X21773411Y-85315990D01*
X22016632Y-85153475D01*
X22223475Y-84946632D01*
X22340000Y-84772240D01*
X22456525Y-84946632D01*
G37*
%TD.AperFunction*%
D18*
X24996525Y-84946632D02*
X25203368Y-85153475D01*
X25446589Y-85315990D01*
X25716842Y-85427932D01*
X25848398Y-85454100D01*
X25201100Y-86101399D01*
X25201100Y-86043723D01*
X25204776Y-86006400D01*
X25201100Y-85969077D01*
X25201100Y-85969067D01*
X25190103Y-85857414D01*
X25146646Y-85714153D01*
X25118731Y-85661928D01*
X25076074Y-85582123D01*
X25004899Y-85495397D01*
X24981101Y-85466399D01*
X24952104Y-85442602D01*
X24609804Y-85100303D01*
X24763475Y-84946632D01*
X24880000Y-84772240D01*
X24996525Y-84946632D01*
%TA.AperFunction,NonConductor*%
D19*
G36*
X24996525Y-84946632D02*
G01*
X25203368Y-85153475D01*
X25446589Y-85315990D01*
X25716842Y-85427932D01*
X25848398Y-85454100D01*
X25201100Y-86101399D01*
X25201100Y-86043723D01*
X25204776Y-86006400D01*
X25201100Y-85969077D01*
X25201100Y-85969067D01*
X25190103Y-85857414D01*
X25146646Y-85714153D01*
X25118731Y-85661928D01*
X25076074Y-85582123D01*
X25004899Y-85495397D01*
X24981101Y-85466399D01*
X24952104Y-85442602D01*
X24609804Y-85100303D01*
X24763475Y-84946632D01*
X24880000Y-84772240D01*
X24996525Y-84946632D01*
G37*
%TD.AperFunction*%
D18*
X6807900Y-85229798D02*
X6475770Y-85561928D01*
X6075374Y-85561928D01*
X6599230Y-85038072D01*
X6807900Y-85038072D01*
X6807900Y-85229798D01*
%TA.AperFunction,NonConductor*%
D19*
G36*
X6807900Y-85229798D02*
G01*
X6475770Y-85561928D01*
X6075374Y-85561928D01*
X6599230Y-85038072D01*
X6807900Y-85038072D01*
X6807900Y-85229798D01*
G37*
%TD.AperFunction*%
D18*
X20070196Y-82899697D02*
X19916525Y-83053368D01*
X19800000Y-83227760D01*
X19683475Y-83053368D01*
X19476632Y-82846525D01*
X19233411Y-82684010D01*
X18963158Y-82572068D01*
X18676260Y-82515000D01*
X18383740Y-82515000D01*
X18096842Y-82572068D01*
X18013350Y-82606651D01*
X18009003Y-82562514D01*
X17965546Y-82419253D01*
X17894974Y-82287224D01*
X17800001Y-82171499D01*
X17771003Y-82147701D01*
X17026374Y-81403072D01*
X17135003Y-81403072D01*
X17308257Y-81386008D01*
X17474852Y-81335472D01*
X17628388Y-81253405D01*
X17762963Y-81142963D01*
X17873405Y-81008388D01*
X17955472Y-80854852D01*
X17971736Y-80801237D01*
X20070196Y-82899697D01*
%TA.AperFunction,NonConductor*%
D19*
G36*
X20070196Y-82899697D02*
G01*
X19916525Y-83053368D01*
X19800000Y-83227760D01*
X19683475Y-83053368D01*
X19476632Y-82846525D01*
X19233411Y-82684010D01*
X18963158Y-82572068D01*
X18676260Y-82515000D01*
X18383740Y-82515000D01*
X18096842Y-82572068D01*
X18013350Y-82606651D01*
X18009003Y-82562514D01*
X17965546Y-82419253D01*
X17894974Y-82287224D01*
X17800001Y-82171499D01*
X17771003Y-82147701D01*
X17026374Y-81403072D01*
X17135003Y-81403072D01*
X17308257Y-81386008D01*
X17474852Y-81335472D01*
X17628388Y-81253405D01*
X17762963Y-81142963D01*
X17873405Y-81008388D01*
X17955472Y-80854852D01*
X17971736Y-80801237D01*
X20070196Y-82899697D01*
G37*
%TD.AperFunction*%
D18*
X23590198Y-82515000D02*
X23463740Y-82515000D01*
X23176842Y-82572068D01*
X22906589Y-82684010D01*
X22663368Y-82846525D01*
X22456525Y-83053368D01*
X22340000Y-83227760D01*
X22223475Y-83053368D01*
X22016632Y-82846525D01*
X21823089Y-82717204D01*
X21819003Y-82675714D01*
X21775546Y-82532453D01*
X21753482Y-82491174D01*
X21704974Y-82400423D01*
X21633799Y-82313697D01*
X21610001Y-82284699D01*
X21581003Y-82260901D01*
X17639438Y-78319337D01*
X17762963Y-78217963D01*
X17873405Y-78083388D01*
X17955472Y-77929852D01*
X18006008Y-77763257D01*
X18023072Y-77590003D01*
X18023072Y-76964997D01*
X18021201Y-76946002D01*
X23590198Y-82515000D01*
%TA.AperFunction,NonConductor*%
D19*
G36*
X23590198Y-82515000D02*
G01*
X23463740Y-82515000D01*
X23176842Y-82572068D01*
X22906589Y-82684010D01*
X22663368Y-82846525D01*
X22456525Y-83053368D01*
X22340000Y-83227760D01*
X22223475Y-83053368D01*
X22016632Y-82846525D01*
X21823089Y-82717204D01*
X21819003Y-82675714D01*
X21775546Y-82532453D01*
X21753482Y-82491174D01*
X21704974Y-82400423D01*
X21633799Y-82313697D01*
X21610001Y-82284699D01*
X21581003Y-82260901D01*
X17639438Y-78319337D01*
X17762963Y-78217963D01*
X17873405Y-78083388D01*
X17955472Y-77929852D01*
X18006008Y-77763257D01*
X18023072Y-77590003D01*
X18023072Y-76964997D01*
X18021201Y-76946002D01*
X23590198Y-82515000D01*
G37*
%TD.AperFunction*%
D18*
X4174627Y-82736928D02*
X3884500Y-82736928D01*
X3884500Y-82446801D01*
X4174627Y-82736928D01*
%TA.AperFunction,NonConductor*%
D19*
G36*
X4174627Y-82736928D02*
G01*
X3884500Y-82736928D01*
X3884500Y-82446801D01*
X4174627Y-82736928D01*
G37*
%TD.AperFunction*%
D18*
X6573426Y-82636928D02*
X6224230Y-82636928D01*
X4802500Y-81215199D01*
X4802500Y-80866001D01*
X6573426Y-82636928D01*
%TA.AperFunction,NonConductor*%
D19*
G36*
X6573426Y-82636928D02*
G01*
X6224230Y-82636928D01*
X4802500Y-81215199D01*
X4802500Y-80866001D01*
X6573426Y-82636928D01*
G37*
%TD.AperFunction*%
D18*
X13960000Y-82550102D02*
X13960000Y-82603897D01*
X13883158Y-82572068D01*
X13596260Y-82515000D01*
X13303740Y-82515000D01*
X13016842Y-82572068D01*
X12884600Y-82626844D01*
X12884600Y-81474701D01*
X13960000Y-82550102D01*
%TA.AperFunction,NonConductor*%
D19*
G36*
X13960000Y-82550102D02*
G01*
X13960000Y-82603897D01*
X13883158Y-82572068D01*
X13596260Y-82515000D01*
X13303740Y-82515000D01*
X13016842Y-82572068D01*
X12884600Y-82626844D01*
X12884600Y-81474701D01*
X13960000Y-82550102D01*
G37*
%TD.AperFunction*%
D18*
X15988698Y-82515000D02*
X15843740Y-82515000D01*
X15556842Y-82572068D01*
X15480000Y-82603897D01*
X15480000Y-82272625D01*
X15483676Y-82235300D01*
X15480000Y-82197975D01*
X15480000Y-82197967D01*
X15469003Y-82086314D01*
X15429375Y-81955677D01*
X15988698Y-82515000D01*
%TA.AperFunction,NonConductor*%
D19*
G36*
X15988698Y-82515000D02*
G01*
X15843740Y-82515000D01*
X15556842Y-82572068D01*
X15480000Y-82603897D01*
X15480000Y-82272625D01*
X15483676Y-82235300D01*
X15480000Y-82197975D01*
X15480000Y-82197967D01*
X15469003Y-82086314D01*
X15429375Y-81955677D01*
X15988698Y-82515000D01*
G37*
%TD.AperFunction*%
D18*
X28898500Y-81541398D02*
X28178998Y-82260901D01*
X28150000Y-82284699D01*
X28126202Y-82313697D01*
X28126201Y-82313698D01*
X28124700Y-82315527D01*
X28124700Y-81287322D01*
X28128376Y-81249999D01*
X28124700Y-81212677D01*
X28124700Y-81212667D01*
X28113703Y-81101014D01*
X28070246Y-80957753D01*
X28052193Y-80923979D01*
X28089502Y-80854180D01*
X28125812Y-80734482D01*
X28138072Y-80610000D01*
X28138072Y-79410000D01*
X28125812Y-79285518D01*
X28089502Y-79165820D01*
X28030537Y-79055506D01*
X27951185Y-78958815D01*
X27854494Y-78879463D01*
X27744180Y-78820498D01*
X27624482Y-78784188D01*
X27500000Y-78771928D01*
X26600000Y-78771928D01*
X26475518Y-78784188D01*
X26355820Y-78820498D01*
X26245506Y-78879463D01*
X26148815Y-78958815D01*
X26069463Y-79055506D01*
X26010498Y-79165820D01*
X25974188Y-79285518D01*
X25961928Y-79410000D01*
X25961928Y-80610000D01*
X25974188Y-80734482D01*
X26010498Y-80854180D01*
X26069463Y-80964494D01*
X26148815Y-81061185D01*
X26245506Y-81140537D01*
X26332102Y-81186824D01*
X26344454Y-81227546D01*
X26415026Y-81359576D01*
X26450723Y-81403072D01*
X26510000Y-81475301D01*
X26538998Y-81499099D01*
X26604701Y-81564802D01*
X26604701Y-82214695D01*
X26574276Y-82189726D01*
X26442247Y-82119154D01*
X26298986Y-82075697D01*
X26187333Y-82064700D01*
X26150000Y-82061023D01*
X26112667Y-82064700D01*
X25289502Y-82064700D01*
X24428930Y-81204128D01*
X24444180Y-81199502D01*
X24554494Y-81140537D01*
X24651185Y-81061185D01*
X24730537Y-80964494D01*
X24789502Y-80854180D01*
X24825812Y-80734482D01*
X24838072Y-80610000D01*
X24838072Y-79410000D01*
X24825812Y-79285518D01*
X24789502Y-79165820D01*
X24730537Y-79055506D01*
X24651185Y-78958815D01*
X24554494Y-78879463D01*
X24444180Y-78820498D01*
X24324482Y-78784188D01*
X24200000Y-78771928D01*
X23300000Y-78771928D01*
X23175518Y-78784188D01*
X23055820Y-78820498D01*
X22945506Y-78879463D01*
X22930928Y-78891427D01*
X20042500Y-76002999D01*
X20042500Y-74911294D01*
X20113386Y-74873405D01*
X20247962Y-74762962D01*
X20320000Y-74675183D01*
X20392038Y-74762962D01*
X20526614Y-74873405D01*
X20680150Y-74955472D01*
X20846746Y-75006008D01*
X21020000Y-75023072D01*
X21695000Y-75023072D01*
X21868254Y-75006008D01*
X22034850Y-74955472D01*
X22188386Y-74873405D01*
X22322962Y-74762962D01*
X22433405Y-74628386D01*
X22515472Y-74474850D01*
X22566008Y-74308254D01*
X22583072Y-74135000D01*
X22583072Y-73878729D01*
X28898500Y-67563302D01*
X28898500Y-81541398D01*
%TA.AperFunction,NonConductor*%
D19*
G36*
X28898500Y-81541398D02*
G01*
X28178998Y-82260901D01*
X28150000Y-82284699D01*
X28126202Y-82313697D01*
X28126201Y-82313698D01*
X28124700Y-82315527D01*
X28124700Y-81287322D01*
X28128376Y-81249999D01*
X28124700Y-81212677D01*
X28124700Y-81212667D01*
X28113703Y-81101014D01*
X28070246Y-80957753D01*
X28052193Y-80923979D01*
X28089502Y-80854180D01*
X28125812Y-80734482D01*
X28138072Y-80610000D01*
X28138072Y-79410000D01*
X28125812Y-79285518D01*
X28089502Y-79165820D01*
X28030537Y-79055506D01*
X27951185Y-78958815D01*
X27854494Y-78879463D01*
X27744180Y-78820498D01*
X27624482Y-78784188D01*
X27500000Y-78771928D01*
X26600000Y-78771928D01*
X26475518Y-78784188D01*
X26355820Y-78820498D01*
X26245506Y-78879463D01*
X26148815Y-78958815D01*
X26069463Y-79055506D01*
X26010498Y-79165820D01*
X25974188Y-79285518D01*
X25961928Y-79410000D01*
X25961928Y-80610000D01*
X25974188Y-80734482D01*
X26010498Y-80854180D01*
X26069463Y-80964494D01*
X26148815Y-81061185D01*
X26245506Y-81140537D01*
X26332102Y-81186824D01*
X26344454Y-81227546D01*
X26415026Y-81359576D01*
X26450723Y-81403072D01*
X26510000Y-81475301D01*
X26538998Y-81499099D01*
X26604701Y-81564802D01*
X26604701Y-82214695D01*
X26574276Y-82189726D01*
X26442247Y-82119154D01*
X26298986Y-82075697D01*
X26187333Y-82064700D01*
X26150000Y-82061023D01*
X26112667Y-82064700D01*
X25289502Y-82064700D01*
X24428930Y-81204128D01*
X24444180Y-81199502D01*
X24554494Y-81140537D01*
X24651185Y-81061185D01*
X24730537Y-80964494D01*
X24789502Y-80854180D01*
X24825812Y-80734482D01*
X24838072Y-80610000D01*
X24838072Y-79410000D01*
X24825812Y-79285518D01*
X24789502Y-79165820D01*
X24730537Y-79055506D01*
X24651185Y-78958815D01*
X24554494Y-78879463D01*
X24444180Y-78820498D01*
X24324482Y-78784188D01*
X24200000Y-78771928D01*
X23300000Y-78771928D01*
X23175518Y-78784188D01*
X23055820Y-78820498D01*
X22945506Y-78879463D01*
X22930928Y-78891427D01*
X20042500Y-76002999D01*
X20042500Y-74911294D01*
X20113386Y-74873405D01*
X20247962Y-74762962D01*
X20320000Y-74675183D01*
X20392038Y-74762962D01*
X20526614Y-74873405D01*
X20680150Y-74955472D01*
X20846746Y-75006008D01*
X21020000Y-75023072D01*
X21695000Y-75023072D01*
X21868254Y-75006008D01*
X22034850Y-74955472D01*
X22188386Y-74873405D01*
X22322962Y-74762962D01*
X22433405Y-74628386D01*
X22515472Y-74474850D01*
X22566008Y-74308254D01*
X22583072Y-74135000D01*
X22583072Y-73878729D01*
X28898500Y-67563302D01*
X28898500Y-81541398D01*
G37*
%TD.AperFunction*%
D18*
X14089601Y-78466300D02*
X14076704Y-78453403D01*
X14052901Y-78424399D01*
X13964481Y-78351835D01*
X13975812Y-78314482D01*
X13988072Y-78190000D01*
X13988072Y-77390000D01*
X13975812Y-77265518D01*
X13939502Y-77145820D01*
X13923541Y-77115960D01*
X14089600Y-76949901D01*
X14089601Y-78466300D01*
%TA.AperFunction,NonConductor*%
D19*
G36*
X14089601Y-78466300D02*
G01*
X14076704Y-78453403D01*
X14052901Y-78424399D01*
X13964481Y-78351835D01*
X13975812Y-78314482D01*
X13988072Y-78190000D01*
X13988072Y-77390000D01*
X13975812Y-77265518D01*
X13939502Y-77145820D01*
X13923541Y-77115960D01*
X14089600Y-76949901D01*
X14089601Y-78466300D01*
G37*
%TD.AperFunction*%
D18*
X13211928Y-75555003D02*
X13222953Y-75666945D01*
X12388998Y-76500901D01*
X12360000Y-76524699D01*
X12336202Y-76553697D01*
X12336201Y-76553698D01*
X12265026Y-76640424D01*
X12194454Y-76772454D01*
X12182102Y-76813176D01*
X12095506Y-76859463D01*
X11998815Y-76938815D01*
X11919463Y-77035506D01*
X11860498Y-77145820D01*
X11824188Y-77265518D01*
X11811928Y-77390000D01*
X11811928Y-77901905D01*
X11801185Y-77888815D01*
X11704494Y-77809463D01*
X11594180Y-77750498D01*
X11474482Y-77714188D01*
X11350000Y-77701928D01*
X10450000Y-77701928D01*
X10325518Y-77714188D01*
X10205820Y-77750498D01*
X10095506Y-77809463D01*
X9998815Y-77888815D01*
X9923982Y-77980000D01*
X7292110Y-77980000D01*
X7275472Y-77925150D01*
X7193405Y-77771614D01*
X7082962Y-77637038D01*
X6948386Y-77526595D01*
X6794850Y-77444528D01*
X6793410Y-77444091D01*
X9507002Y-74730500D01*
X10814278Y-74730500D01*
X10851600Y-74734176D01*
X10888922Y-74730500D01*
X10888933Y-74730500D01*
X11000586Y-74719503D01*
X11143847Y-74676046D01*
X11275876Y-74605474D01*
X11391601Y-74510501D01*
X11415404Y-74481497D01*
X11447301Y-74449600D01*
X13211928Y-74449600D01*
X13211928Y-75555003D01*
%TA.AperFunction,NonConductor*%
D19*
G36*
X13211928Y-75555003D02*
G01*
X13222953Y-75666945D01*
X12388998Y-76500901D01*
X12360000Y-76524699D01*
X12336202Y-76553697D01*
X12336201Y-76553698D01*
X12265026Y-76640424D01*
X12194454Y-76772454D01*
X12182102Y-76813176D01*
X12095506Y-76859463D01*
X11998815Y-76938815D01*
X11919463Y-77035506D01*
X11860498Y-77145820D01*
X11824188Y-77265518D01*
X11811928Y-77390000D01*
X11811928Y-77901905D01*
X11801185Y-77888815D01*
X11704494Y-77809463D01*
X11594180Y-77750498D01*
X11474482Y-77714188D01*
X11350000Y-77701928D01*
X10450000Y-77701928D01*
X10325518Y-77714188D01*
X10205820Y-77750498D01*
X10095506Y-77809463D01*
X9998815Y-77888815D01*
X9923982Y-77980000D01*
X7292110Y-77980000D01*
X7275472Y-77925150D01*
X7193405Y-77771614D01*
X7082962Y-77637038D01*
X6948386Y-77526595D01*
X6794850Y-77444528D01*
X6793410Y-77444091D01*
X9507002Y-74730500D01*
X10814278Y-74730500D01*
X10851600Y-74734176D01*
X10888922Y-74730500D01*
X10888933Y-74730500D01*
X11000586Y-74719503D01*
X11143847Y-74676046D01*
X11275876Y-74605474D01*
X11391601Y-74510501D01*
X11415404Y-74481497D01*
X11447301Y-74449600D01*
X13211928Y-74449600D01*
X13211928Y-75555003D01*
G37*
%TD.AperFunction*%
D18*
X5072038Y-75262962D02*
X5206614Y-75373405D01*
X5360150Y-75455472D01*
X5526746Y-75506008D01*
X5700000Y-75523072D01*
X6375000Y-75523072D01*
X6548254Y-75506008D01*
X6596537Y-75491362D01*
X4669798Y-77418101D01*
X4659795Y-77426311D01*
X4553254Y-77393992D01*
X4380000Y-77376928D01*
X3884500Y-77376928D01*
X3884500Y-75523072D01*
X4300000Y-75523072D01*
X4473254Y-75506008D01*
X4639850Y-75455472D01*
X4793386Y-75373405D01*
X4927962Y-75262962D01*
X5000000Y-75175183D01*
X5072038Y-75262962D01*
%TA.AperFunction,NonConductor*%
D19*
G36*
X5072038Y-75262962D02*
G01*
X5206614Y-75373405D01*
X5360150Y-75455472D01*
X5526746Y-75506008D01*
X5700000Y-75523072D01*
X6375000Y-75523072D01*
X6548254Y-75506008D01*
X6596537Y-75491362D01*
X4669798Y-77418101D01*
X4659795Y-77426311D01*
X4553254Y-77393992D01*
X4380000Y-77376928D01*
X3884500Y-77376928D01*
X3884500Y-75523072D01*
X4300000Y-75523072D01*
X4473254Y-75506008D01*
X4639850Y-75455472D01*
X4793386Y-75373405D01*
X4927962Y-75262962D01*
X5000000Y-75175183D01*
X5072038Y-75262962D01*
G37*
%TD.AperFunction*%
D18*
X8169198Y-73918700D02*
X7231362Y-74856537D01*
X7246008Y-74808254D01*
X7263072Y-74635000D01*
X7263072Y-73685000D01*
X7246008Y-73511746D01*
X7195472Y-73345150D01*
X7122500Y-73208629D01*
X7122500Y-72872001D01*
X8169198Y-73918700D01*
%TA.AperFunction,NonConductor*%
D19*
G36*
X8169198Y-73918700D02*
G01*
X7231362Y-74856537D01*
X7246008Y-74808254D01*
X7263072Y-74635000D01*
X7263072Y-73685000D01*
X7246008Y-73511746D01*
X7195472Y-73345150D01*
X7122500Y-73208629D01*
X7122500Y-72872001D01*
X8169198Y-73918700D01*
G37*
%TD.AperFunction*%
D18*
X24218395Y-69715856D02*
X24331663Y-69885374D01*
X24379244Y-69932955D01*
X21967961Y-72344238D01*
X21868254Y-72313992D01*
X21695000Y-72296928D01*
X21020000Y-72296928D01*
X20846746Y-72313992D01*
X20680150Y-72364528D01*
X20526614Y-72446595D01*
X20392038Y-72557038D01*
X20320000Y-72644817D01*
X20247962Y-72557038D01*
X20113386Y-72446595D01*
X19959850Y-72364528D01*
X19793254Y-72313992D01*
X19620000Y-72296928D01*
X18945000Y-72296928D01*
X18771746Y-72313992D01*
X18605150Y-72364528D01*
X18451614Y-72446595D01*
X18317038Y-72557038D01*
X18206595Y-72691614D01*
X18124528Y-72845150D01*
X18107890Y-72900000D01*
X16879733Y-72900000D01*
X16842400Y-72896323D01*
X16805067Y-72900000D01*
X16693414Y-72910997D01*
X16550153Y-72954454D01*
X16418124Y-73025026D01*
X16302399Y-73119999D01*
X16278596Y-73149003D01*
X16191650Y-73235949D01*
X12555001Y-69599300D01*
X24170116Y-69599300D01*
X24218395Y-69715856D01*
%TA.AperFunction,NonConductor*%
D19*
G36*
X24218395Y-69715856D02*
G01*
X24331663Y-69885374D01*
X24379244Y-69932955D01*
X21967961Y-72344238D01*
X21868254Y-72313992D01*
X21695000Y-72296928D01*
X21020000Y-72296928D01*
X20846746Y-72313992D01*
X20680150Y-72364528D01*
X20526614Y-72446595D01*
X20392038Y-72557038D01*
X20320000Y-72644817D01*
X20247962Y-72557038D01*
X20113386Y-72446595D01*
X19959850Y-72364528D01*
X19793254Y-72313992D01*
X19620000Y-72296928D01*
X18945000Y-72296928D01*
X18771746Y-72313992D01*
X18605150Y-72364528D01*
X18451614Y-72446595D01*
X18317038Y-72557038D01*
X18206595Y-72691614D01*
X18124528Y-72845150D01*
X18107890Y-72900000D01*
X16879733Y-72900000D01*
X16842400Y-72896323D01*
X16805067Y-72900000D01*
X16693414Y-72910997D01*
X16550153Y-72954454D01*
X16418124Y-73025026D01*
X16302399Y-73119999D01*
X16278596Y-73149003D01*
X16191650Y-73235949D01*
X12555001Y-69599300D01*
X24170116Y-69599300D01*
X24218395Y-69715856D01*
G37*
%TD.AperFunction*%
D18*
X4574997Y-58663072D02*
X5076100Y-58663072D01*
X5076101Y-66483068D01*
X5072424Y-66520400D01*
X5076101Y-66557733D01*
X5087098Y-66669386D01*
X5093291Y-66689803D01*
X5130554Y-66812646D01*
X5161928Y-66871342D01*
X5161928Y-67935003D01*
X5178992Y-68108257D01*
X5229528Y-68274852D01*
X5311595Y-68428388D01*
X5422037Y-68562963D01*
X5556612Y-68673405D01*
X5602500Y-68697933D01*
X5602501Y-72806531D01*
X5526746Y-72813992D01*
X5360150Y-72864528D01*
X5206614Y-72946595D01*
X5072038Y-73057038D01*
X5000000Y-73144817D01*
X4927962Y-73057038D01*
X4793386Y-72946595D01*
X4722500Y-72908706D01*
X4722500Y-67609822D01*
X4726176Y-67572499D01*
X4722500Y-67535176D01*
X4722500Y-67535167D01*
X4711503Y-67423514D01*
X4668046Y-67280253D01*
X4638072Y-67224176D01*
X4638072Y-66684997D01*
X4621008Y-66511743D01*
X4570472Y-66345148D01*
X4488405Y-66191612D01*
X4460000Y-66157000D01*
X4460000Y-58651746D01*
X4574997Y-58663072D01*
%TA.AperFunction,NonConductor*%
D19*
G36*
X4574997Y-58663072D02*
G01*
X5076100Y-58663072D01*
X5076101Y-66483068D01*
X5072424Y-66520400D01*
X5076101Y-66557733D01*
X5087098Y-66669386D01*
X5093291Y-66689803D01*
X5130554Y-66812646D01*
X5161928Y-66871342D01*
X5161928Y-67935003D01*
X5178992Y-68108257D01*
X5229528Y-68274852D01*
X5311595Y-68428388D01*
X5422037Y-68562963D01*
X5556612Y-68673405D01*
X5602500Y-68697933D01*
X5602501Y-72806531D01*
X5526746Y-72813992D01*
X5360150Y-72864528D01*
X5206614Y-72946595D01*
X5072038Y-73057038D01*
X5000000Y-73144817D01*
X4927962Y-73057038D01*
X4793386Y-72946595D01*
X4722500Y-72908706D01*
X4722500Y-67609822D01*
X4726176Y-67572499D01*
X4722500Y-67535176D01*
X4722500Y-67535167D01*
X4711503Y-67423514D01*
X4668046Y-67280253D01*
X4638072Y-67224176D01*
X4638072Y-66684997D01*
X4621008Y-66511743D01*
X4570472Y-66345148D01*
X4488405Y-66191612D01*
X4460000Y-66157000D01*
X4460000Y-58651746D01*
X4574997Y-58663072D01*
G37*
%TD.AperFunction*%
D18*
X13735698Y-72929600D02*
X11526650Y-72929600D01*
X11454305Y-72754944D01*
X11341037Y-72585426D01*
X11196874Y-72441263D01*
X11027356Y-72327995D01*
X10838998Y-72249974D01*
X10639039Y-72210200D01*
X10576902Y-72210200D01*
X9339773Y-70973072D01*
X9515003Y-70973072D01*
X9688257Y-70956008D01*
X9854852Y-70905472D01*
X10008388Y-70823405D01*
X10142963Y-70712963D01*
X10253405Y-70578388D01*
X10277933Y-70532500D01*
X11338599Y-70532500D01*
X13735698Y-72929600D01*
%TA.AperFunction,NonConductor*%
D19*
G36*
X13735698Y-72929600D02*
G01*
X11526650Y-72929600D01*
X11454305Y-72754944D01*
X11341037Y-72585426D01*
X11196874Y-72441263D01*
X11027356Y-72327995D01*
X10838998Y-72249974D01*
X10639039Y-72210200D01*
X10576902Y-72210200D01*
X9339773Y-70973072D01*
X9515003Y-70973072D01*
X9688257Y-70956008D01*
X9854852Y-70905472D01*
X10008388Y-70823405D01*
X10142963Y-70712963D01*
X10253405Y-70578388D01*
X10277933Y-70532500D01*
X11338599Y-70532500D01*
X13735698Y-72929600D01*
G37*
%TD.AperFunction*%
D18*
X26236842Y-64927932D02*
X26523740Y-64985000D01*
X26816260Y-64985000D01*
X26855900Y-64977115D01*
X26855900Y-65071239D01*
X26895674Y-65271198D01*
X26973695Y-65459556D01*
X27086963Y-65629074D01*
X27231126Y-65773237D01*
X27400644Y-65886505D01*
X27589002Y-65964526D01*
X27788961Y-66004300D01*
X27992839Y-66004300D01*
X28192798Y-65964526D01*
X28381156Y-65886505D01*
X28448200Y-65841708D01*
X28448200Y-65863998D01*
X26100300Y-68211898D01*
X26100300Y-64871375D01*
X26236842Y-64927932D01*
%TA.AperFunction,NonConductor*%
D19*
G36*
X26236842Y-64927932D02*
G01*
X26523740Y-64985000D01*
X26816260Y-64985000D01*
X26855900Y-64977115D01*
X26855900Y-65071239D01*
X26895674Y-65271198D01*
X26973695Y-65459556D01*
X27086963Y-65629074D01*
X27231126Y-65773237D01*
X27400644Y-65886505D01*
X27589002Y-65964526D01*
X27788961Y-66004300D01*
X27992839Y-66004300D01*
X28192798Y-65964526D01*
X28381156Y-65886505D01*
X28448200Y-65841708D01*
X28448200Y-65863998D01*
X26100300Y-68211898D01*
X26100300Y-64871375D01*
X26236842Y-64927932D01*
G37*
%TD.AperFunction*%
D18*
X24580301Y-62079169D02*
X24563158Y-62072068D01*
X24276260Y-62015000D01*
X23983740Y-62015000D01*
X23696842Y-62072068D01*
X23426589Y-62184010D01*
X23183368Y-62346525D01*
X23051513Y-62478380D01*
X23029502Y-62405820D01*
X22970537Y-62295506D01*
X22891185Y-62198815D01*
X22794494Y-62119463D01*
X22684180Y-62060498D01*
X22564482Y-62024188D01*
X22440000Y-62011928D01*
X20740000Y-62011928D01*
X20615518Y-62024188D01*
X20495820Y-62060498D01*
X20385506Y-62119463D01*
X20288815Y-62198815D01*
X20209463Y-62295506D01*
X20150498Y-62405820D01*
X20114188Y-62525518D01*
X20101928Y-62650000D01*
X20101928Y-64350000D01*
X20114188Y-64474482D01*
X20150498Y-64594180D01*
X20209463Y-64704494D01*
X20288815Y-64801185D01*
X20385506Y-64880537D01*
X20495820Y-64939502D01*
X20615518Y-64975812D01*
X20740000Y-64988072D01*
X22440000Y-64988072D01*
X22564482Y-64975812D01*
X22684180Y-64939502D01*
X22794494Y-64880537D01*
X22891185Y-64801185D01*
X22970537Y-64704494D01*
X23029502Y-64594180D01*
X23051513Y-64521620D01*
X23183368Y-64653475D01*
X23426589Y-64815990D01*
X23696842Y-64927932D01*
X23983740Y-64985000D01*
X24276260Y-64985000D01*
X24563158Y-64927932D01*
X24580301Y-64920831D01*
X24580301Y-68079300D01*
X10519802Y-68079300D01*
X10602403Y-67996699D01*
X10631401Y-67972901D01*
X10726374Y-67857176D01*
X10796946Y-67725147D01*
X10840403Y-67581886D01*
X10851400Y-67470233D01*
X10855077Y-67432900D01*
X10851400Y-67395567D01*
X10851400Y-63082023D01*
X10855076Y-63044700D01*
X10851400Y-63007377D01*
X10851400Y-63007367D01*
X10840403Y-62895714D01*
X10796946Y-62752453D01*
X10743474Y-62652415D01*
X10726374Y-62620423D01*
X10655199Y-62533697D01*
X10631401Y-62504699D01*
X10602404Y-62480902D01*
X7680700Y-59559199D01*
X7680700Y-58663072D01*
X8125003Y-58663072D01*
X8298257Y-58646008D01*
X8464852Y-58595472D01*
X8618388Y-58513405D01*
X8752963Y-58402963D01*
X8863405Y-58268388D01*
X8945472Y-58114852D01*
X8996008Y-57948257D01*
X8999776Y-57910000D01*
X9045178Y-57910000D01*
X9082500Y-57913676D01*
X9119822Y-57910000D01*
X9119833Y-57910000D01*
X9231486Y-57899003D01*
X9374747Y-57855546D01*
X9506776Y-57784974D01*
X9622501Y-57690001D01*
X9646304Y-57660997D01*
X12465506Y-54841796D01*
X12579997Y-54853072D01*
X13205003Y-54853072D01*
X13378257Y-54836008D01*
X13544852Y-54785472D01*
X13698388Y-54703405D01*
X13832963Y-54592963D01*
X13943405Y-54458388D01*
X14025472Y-54304852D01*
X14076008Y-54138257D01*
X14079776Y-54100000D01*
X15255078Y-54100000D01*
X15292400Y-54103676D01*
X15329722Y-54100000D01*
X15329733Y-54100000D01*
X15441386Y-54089003D01*
X15584647Y-54045546D01*
X15716676Y-53974974D01*
X15832401Y-53880001D01*
X15856204Y-53850997D01*
X22101003Y-47606199D01*
X22130001Y-47582401D01*
X22224974Y-47466676D01*
X22295546Y-47334647D01*
X22339003Y-47191386D01*
X22350000Y-47079733D01*
X22350000Y-47079724D01*
X22353676Y-47042401D01*
X22350000Y-47005078D01*
X22350000Y-44122110D01*
X22404850Y-44105472D01*
X22558386Y-44023405D01*
X22692962Y-43912962D01*
X22803405Y-43778386D01*
X22885472Y-43624850D01*
X22936008Y-43458254D01*
X22953072Y-43285000D01*
X22953072Y-42610000D01*
X22936008Y-42436746D01*
X22885472Y-42270150D01*
X22803405Y-42116614D01*
X22692962Y-41982038D01*
X22605183Y-41910000D01*
X22692962Y-41837962D01*
X22803405Y-41703386D01*
X22885472Y-41549850D01*
X22936008Y-41383254D01*
X22953072Y-41210000D01*
X22953072Y-40535000D01*
X22936008Y-40361746D01*
X22885472Y-40195150D01*
X22803405Y-40041614D01*
X22692962Y-39907038D01*
X22558386Y-39796595D01*
X22542500Y-39788104D01*
X22542500Y-39542163D01*
X22705544Y-39651105D01*
X22893902Y-39729126D01*
X23093861Y-39768900D01*
X23297739Y-39768900D01*
X23497698Y-39729126D01*
X23686056Y-39651105D01*
X23855574Y-39537837D01*
X23999737Y-39393674D01*
X24113005Y-39224156D01*
X24191026Y-39035798D01*
X24230800Y-38835839D01*
X24230800Y-38773702D01*
X24580300Y-38424202D01*
X24580301Y-62079169D01*
%TA.AperFunction,NonConductor*%
D19*
G36*
X24580301Y-62079169D02*
G01*
X24563158Y-62072068D01*
X24276260Y-62015000D01*
X23983740Y-62015000D01*
X23696842Y-62072068D01*
X23426589Y-62184010D01*
X23183368Y-62346525D01*
X23051513Y-62478380D01*
X23029502Y-62405820D01*
X22970537Y-62295506D01*
X22891185Y-62198815D01*
X22794494Y-62119463D01*
X22684180Y-62060498D01*
X22564482Y-62024188D01*
X22440000Y-62011928D01*
X20740000Y-62011928D01*
X20615518Y-62024188D01*
X20495820Y-62060498D01*
X20385506Y-62119463D01*
X20288815Y-62198815D01*
X20209463Y-62295506D01*
X20150498Y-62405820D01*
X20114188Y-62525518D01*
X20101928Y-62650000D01*
X20101928Y-64350000D01*
X20114188Y-64474482D01*
X20150498Y-64594180D01*
X20209463Y-64704494D01*
X20288815Y-64801185D01*
X20385506Y-64880537D01*
X20495820Y-64939502D01*
X20615518Y-64975812D01*
X20740000Y-64988072D01*
X22440000Y-64988072D01*
X22564482Y-64975812D01*
X22684180Y-64939502D01*
X22794494Y-64880537D01*
X22891185Y-64801185D01*
X22970537Y-64704494D01*
X23029502Y-64594180D01*
X23051513Y-64521620D01*
X23183368Y-64653475D01*
X23426589Y-64815990D01*
X23696842Y-64927932D01*
X23983740Y-64985000D01*
X24276260Y-64985000D01*
X24563158Y-64927932D01*
X24580301Y-64920831D01*
X24580301Y-68079300D01*
X10519802Y-68079300D01*
X10602403Y-67996699D01*
X10631401Y-67972901D01*
X10726374Y-67857176D01*
X10796946Y-67725147D01*
X10840403Y-67581886D01*
X10851400Y-67470233D01*
X10855077Y-67432900D01*
X10851400Y-67395567D01*
X10851400Y-63082023D01*
X10855076Y-63044700D01*
X10851400Y-63007377D01*
X10851400Y-63007367D01*
X10840403Y-62895714D01*
X10796946Y-62752453D01*
X10743474Y-62652415D01*
X10726374Y-62620423D01*
X10655199Y-62533697D01*
X10631401Y-62504699D01*
X10602404Y-62480902D01*
X7680700Y-59559199D01*
X7680700Y-58663072D01*
X8125003Y-58663072D01*
X8298257Y-58646008D01*
X8464852Y-58595472D01*
X8618388Y-58513405D01*
X8752963Y-58402963D01*
X8863405Y-58268388D01*
X8945472Y-58114852D01*
X8996008Y-57948257D01*
X8999776Y-57910000D01*
X9045178Y-57910000D01*
X9082500Y-57913676D01*
X9119822Y-57910000D01*
X9119833Y-57910000D01*
X9231486Y-57899003D01*
X9374747Y-57855546D01*
X9506776Y-57784974D01*
X9622501Y-57690001D01*
X9646304Y-57660997D01*
X12465506Y-54841796D01*
X12579997Y-54853072D01*
X13205003Y-54853072D01*
X13378257Y-54836008D01*
X13544852Y-54785472D01*
X13698388Y-54703405D01*
X13832963Y-54592963D01*
X13943405Y-54458388D01*
X14025472Y-54304852D01*
X14076008Y-54138257D01*
X14079776Y-54100000D01*
X15255078Y-54100000D01*
X15292400Y-54103676D01*
X15329722Y-54100000D01*
X15329733Y-54100000D01*
X15441386Y-54089003D01*
X15584647Y-54045546D01*
X15716676Y-53974974D01*
X15832401Y-53880001D01*
X15856204Y-53850997D01*
X22101003Y-47606199D01*
X22130001Y-47582401D01*
X22224974Y-47466676D01*
X22295546Y-47334647D01*
X22339003Y-47191386D01*
X22350000Y-47079733D01*
X22350000Y-47079724D01*
X22353676Y-47042401D01*
X22350000Y-47005078D01*
X22350000Y-44122110D01*
X22404850Y-44105472D01*
X22558386Y-44023405D01*
X22692962Y-43912962D01*
X22803405Y-43778386D01*
X22885472Y-43624850D01*
X22936008Y-43458254D01*
X22953072Y-43285000D01*
X22953072Y-42610000D01*
X22936008Y-42436746D01*
X22885472Y-42270150D01*
X22803405Y-42116614D01*
X22692962Y-41982038D01*
X22605183Y-41910000D01*
X22692962Y-41837962D01*
X22803405Y-41703386D01*
X22885472Y-41549850D01*
X22936008Y-41383254D01*
X22953072Y-41210000D01*
X22953072Y-40535000D01*
X22936008Y-40361746D01*
X22885472Y-40195150D01*
X22803405Y-40041614D01*
X22692962Y-39907038D01*
X22558386Y-39796595D01*
X22542500Y-39788104D01*
X22542500Y-39542163D01*
X22705544Y-39651105D01*
X22893902Y-39729126D01*
X23093861Y-39768900D01*
X23297739Y-39768900D01*
X23497698Y-39729126D01*
X23686056Y-39651105D01*
X23855574Y-39537837D01*
X23999737Y-39393674D01*
X24113005Y-39224156D01*
X24191026Y-39035798D01*
X24230800Y-38835839D01*
X24230800Y-38773702D01*
X24580300Y-38424202D01*
X24580301Y-62079169D01*
G37*
%TD.AperFunction*%
D18*
X9331400Y-63359502D02*
X9331401Y-65646928D01*
X8264997Y-65646928D01*
X8091743Y-65663992D01*
X7925148Y-65714528D01*
X7771612Y-65796595D01*
X7637037Y-65907037D01*
X7526595Y-66041612D01*
X7444528Y-66195148D01*
X7433944Y-66230038D01*
X7413405Y-66191612D01*
X7302963Y-66057037D01*
X7168388Y-65946595D01*
X7014852Y-65864528D01*
X6848257Y-65813992D01*
X6675003Y-65796928D01*
X6596100Y-65796928D01*
X6596100Y-60624201D01*
X9331400Y-63359502D01*
%TA.AperFunction,NonConductor*%
D19*
G36*
X9331400Y-63359502D02*
G01*
X9331401Y-65646928D01*
X8264997Y-65646928D01*
X8091743Y-65663992D01*
X7925148Y-65714528D01*
X7771612Y-65796595D01*
X7637037Y-65907037D01*
X7526595Y-66041612D01*
X7444528Y-66195148D01*
X7433944Y-66230038D01*
X7413405Y-66191612D01*
X7302963Y-66057037D01*
X7168388Y-65946595D01*
X7014852Y-65864528D01*
X6848257Y-65813992D01*
X6675003Y-65796928D01*
X6596100Y-65796928D01*
X6596100Y-60624201D01*
X9331400Y-63359502D01*
G37*
%TD.AperFunction*%
D18*
X28448200Y-62282478D02*
X28430901Y-62261399D01*
X28401904Y-62237602D01*
X27074300Y-60909999D01*
X27074300Y-57288600D01*
X27160439Y-57288600D01*
X27360398Y-57248826D01*
X27548756Y-57170805D01*
X27718274Y-57057537D01*
X27862437Y-56913374D01*
X27975705Y-56743856D01*
X28053726Y-56555498D01*
X28093500Y-56355539D01*
X28093500Y-56151661D01*
X28053726Y-55951702D01*
X27975705Y-55763344D01*
X27862437Y-55593826D01*
X27718274Y-55449663D01*
X27548756Y-55336395D01*
X27524700Y-55326431D01*
X27524700Y-44668072D01*
X28448201Y-44668072D01*
X28448200Y-62282478D01*
%TA.AperFunction,NonConductor*%
D19*
G36*
X28448200Y-62282478D02*
G01*
X28430901Y-62261399D01*
X28401904Y-62237602D01*
X27074300Y-60909999D01*
X27074300Y-57288600D01*
X27160439Y-57288600D01*
X27360398Y-57248826D01*
X27548756Y-57170805D01*
X27718274Y-57057537D01*
X27862437Y-56913374D01*
X27975705Y-56743856D01*
X28053726Y-56555498D01*
X28093500Y-56355539D01*
X28093500Y-56151661D01*
X28053726Y-55951702D01*
X27975705Y-55763344D01*
X27862437Y-55593826D01*
X27718274Y-55449663D01*
X27548756Y-55336395D01*
X27524700Y-55326431D01*
X27524700Y-44668072D01*
X28448201Y-44668072D01*
X28448200Y-62282478D01*
G37*
%TD.AperFunction*%
D18*
X26130723Y-62116024D02*
X26100300Y-62128625D01*
X26100300Y-62085601D01*
X26130723Y-62116024D01*
%TA.AperFunction,NonConductor*%
D19*
G36*
X26130723Y-62116024D02*
G01*
X26100300Y-62128625D01*
X26100300Y-62085601D01*
X26130723Y-62116024D01*
G37*
%TD.AperFunction*%
D18*
X9481743Y-54836008D02*
X9654997Y-54853072D01*
X10280003Y-54853072D01*
X10307317Y-54850382D01*
X8951774Y-56205924D01*
X8945472Y-56185148D01*
X8863405Y-56031612D01*
X8752963Y-55897037D01*
X8618388Y-55786595D01*
X8524559Y-55736442D01*
X9438202Y-54822800D01*
X9481743Y-54836008D01*
%TA.AperFunction,NonConductor*%
D19*
G36*
X9481743Y-54836008D02*
G01*
X9654997Y-54853072D01*
X10280003Y-54853072D01*
X10307317Y-54850382D01*
X8951774Y-56205924D01*
X8945472Y-56185148D01*
X8863405Y-56031612D01*
X8752963Y-55897037D01*
X8618388Y-55786595D01*
X8524559Y-55736442D01*
X9438202Y-54822800D01*
X9481743Y-54836008D01*
G37*
%TD.AperFunction*%
D18*
X16771928Y-48134230D02*
X16771928Y-48885003D01*
X16788992Y-49058257D01*
X16839528Y-49224852D01*
X16921595Y-49378388D01*
X17032037Y-49512963D01*
X17166612Y-49623405D01*
X17251774Y-49668925D01*
X16939299Y-49981400D01*
X12603422Y-49981400D01*
X12566099Y-49977724D01*
X12528776Y-49981400D01*
X12528767Y-49981400D01*
X12417114Y-49992397D01*
X12273853Y-50035854D01*
X12141824Y-50106426D01*
X12026099Y-50201399D01*
X12002301Y-50230397D01*
X10394494Y-51838204D01*
X10280003Y-51826928D01*
X9654997Y-51826928D01*
X9481743Y-51843992D01*
X9315148Y-51894528D01*
X9161612Y-51976595D01*
X9027037Y-52087037D01*
X8916595Y-52221612D01*
X8834528Y-52375148D01*
X8783992Y-52541743D01*
X8766928Y-52714997D01*
X8766928Y-53344470D01*
X6851164Y-55260235D01*
X6831326Y-55160502D01*
X6753305Y-54972144D01*
X6640037Y-54802626D01*
X6495874Y-54658463D01*
X6326356Y-54545195D01*
X6137998Y-54467174D01*
X5938039Y-54427400D01*
X5734161Y-54427400D01*
X5647500Y-54444638D01*
X5647500Y-52769801D01*
X6224230Y-52193072D01*
X6975003Y-52193072D01*
X7148257Y-52176008D01*
X7314852Y-52125472D01*
X7468388Y-52043405D01*
X7602963Y-51932963D01*
X7713405Y-51798388D01*
X7795472Y-51644852D01*
X7846008Y-51478257D01*
X7863072Y-51305003D01*
X7863072Y-50679997D01*
X7851515Y-50562659D01*
X7908374Y-50493376D01*
X7978946Y-50361347D01*
X8022403Y-50218086D01*
X8033400Y-50106433D01*
X8033400Y-50106423D01*
X8037076Y-50069100D01*
X8033400Y-50031777D01*
X8033400Y-50007011D01*
X8077337Y-49963074D01*
X8190605Y-49793556D01*
X8268626Y-49605198D01*
X8308400Y-49405239D01*
X8308400Y-49201361D01*
X8272325Y-49020000D01*
X13860224Y-49020000D01*
X13863992Y-49058257D01*
X13914528Y-49224852D01*
X13996595Y-49378388D01*
X14107037Y-49512963D01*
X14241612Y-49623405D01*
X14395148Y-49705472D01*
X14561743Y-49756008D01*
X14734997Y-49773072D01*
X15360003Y-49773072D01*
X15533257Y-49756008D01*
X15699852Y-49705472D01*
X15853388Y-49623405D01*
X15987963Y-49512963D01*
X16098405Y-49378388D01*
X16180472Y-49224852D01*
X16231008Y-49058257D01*
X16248072Y-48885003D01*
X16248072Y-47634997D01*
X16245382Y-47607683D01*
X16771928Y-48134230D01*
%TA.AperFunction,NonConductor*%
D19*
G36*
X16771928Y-48134230D02*
G01*
X16771928Y-48885003D01*
X16788992Y-49058257D01*
X16839528Y-49224852D01*
X16921595Y-49378388D01*
X17032037Y-49512963D01*
X17166612Y-49623405D01*
X17251774Y-49668925D01*
X16939299Y-49981400D01*
X12603422Y-49981400D01*
X12566099Y-49977724D01*
X12528776Y-49981400D01*
X12528767Y-49981400D01*
X12417114Y-49992397D01*
X12273853Y-50035854D01*
X12141824Y-50106426D01*
X12026099Y-50201399D01*
X12002301Y-50230397D01*
X10394494Y-51838204D01*
X10280003Y-51826928D01*
X9654997Y-51826928D01*
X9481743Y-51843992D01*
X9315148Y-51894528D01*
X9161612Y-51976595D01*
X9027037Y-52087037D01*
X8916595Y-52221612D01*
X8834528Y-52375148D01*
X8783992Y-52541743D01*
X8766928Y-52714997D01*
X8766928Y-53344470D01*
X6851164Y-55260235D01*
X6831326Y-55160502D01*
X6753305Y-54972144D01*
X6640037Y-54802626D01*
X6495874Y-54658463D01*
X6326356Y-54545195D01*
X6137998Y-54467174D01*
X5938039Y-54427400D01*
X5734161Y-54427400D01*
X5647500Y-54444638D01*
X5647500Y-52769801D01*
X6224230Y-52193072D01*
X6975003Y-52193072D01*
X7148257Y-52176008D01*
X7314852Y-52125472D01*
X7468388Y-52043405D01*
X7602963Y-51932963D01*
X7713405Y-51798388D01*
X7795472Y-51644852D01*
X7846008Y-51478257D01*
X7863072Y-51305003D01*
X7863072Y-50679997D01*
X7851515Y-50562659D01*
X7908374Y-50493376D01*
X7978946Y-50361347D01*
X8022403Y-50218086D01*
X8033400Y-50106433D01*
X8033400Y-50106423D01*
X8037076Y-50069100D01*
X8033400Y-50031777D01*
X8033400Y-50007011D01*
X8077337Y-49963074D01*
X8190605Y-49793556D01*
X8268626Y-49605198D01*
X8308400Y-49405239D01*
X8308400Y-49201361D01*
X8272325Y-49020000D01*
X13860224Y-49020000D01*
X13863992Y-49058257D01*
X13914528Y-49224852D01*
X13996595Y-49378388D01*
X14107037Y-49512963D01*
X14241612Y-49623405D01*
X14395148Y-49705472D01*
X14561743Y-49756008D01*
X14734997Y-49773072D01*
X15360003Y-49773072D01*
X15533257Y-49756008D01*
X15699852Y-49705472D01*
X15853388Y-49623405D01*
X15987963Y-49512963D01*
X16098405Y-49378388D01*
X16180472Y-49224852D01*
X16231008Y-49058257D01*
X16248072Y-48885003D01*
X16248072Y-47634997D01*
X16245382Y-47607683D01*
X16771928Y-48134230D01*
G37*
%TD.AperFunction*%
D18*
X11691928Y-52714997D02*
X11691928Y-53465770D01*
X11165382Y-53992316D01*
X11168072Y-53965003D01*
X11168072Y-53214229D01*
X11694618Y-52687683D01*
X11691928Y-52714997D01*
%TA.AperFunction,NonConductor*%
D19*
G36*
X11691928Y-52714997D02*
G01*
X11691928Y-53465770D01*
X11165382Y-53992316D01*
X11168072Y-53965003D01*
X11168072Y-53214229D01*
X11694618Y-52687683D01*
X11691928Y-52714997D01*
G37*
%TD.AperFunction*%
D18*
X14977599Y-52580000D02*
X14079776Y-52580000D01*
X14076008Y-52541743D01*
X14025472Y-52375148D01*
X13943405Y-52221612D01*
X13832963Y-52087037D01*
X13698388Y-51976595D01*
X13544852Y-51894528D01*
X13378257Y-51843992D01*
X13205003Y-51826928D01*
X12579997Y-51826928D01*
X12552684Y-51829618D01*
X12880902Y-51501400D01*
X16056199Y-51501400D01*
X14977599Y-52580000D01*
%TA.AperFunction,NonConductor*%
D19*
G36*
X14977599Y-52580000D02*
G01*
X14079776Y-52580000D01*
X14076008Y-52541743D01*
X14025472Y-52375148D01*
X13943405Y-52221612D01*
X13832963Y-52087037D01*
X13698388Y-51976595D01*
X13544852Y-51894528D01*
X13378257Y-51843992D01*
X13205003Y-51826928D01*
X12579997Y-51826928D01*
X12552684Y-51829618D01*
X12880902Y-51501400D01*
X16056199Y-51501400D01*
X14977599Y-52580000D01*
G37*
%TD.AperFunction*%
D18*
X5097037Y-49007963D02*
X5231612Y-49118405D01*
X5385148Y-49200472D01*
X5551743Y-49251008D01*
X5724997Y-49268072D01*
X6238400Y-49268072D01*
X6238400Y-49405239D01*
X6278174Y-49605198D01*
X6355521Y-49791928D01*
X5724997Y-49791928D01*
X5551743Y-49808992D01*
X5385148Y-49859528D01*
X5231612Y-49941595D01*
X5097037Y-50052037D01*
X4986595Y-50186612D01*
X4904528Y-50340148D01*
X4853992Y-50506743D01*
X4836928Y-50679997D01*
X4836928Y-51305003D01*
X4848204Y-51419494D01*
X4657500Y-51610198D01*
X3903072Y-50855771D01*
X3903072Y-50230000D01*
X3886008Y-50056746D01*
X3835472Y-49890150D01*
X3753405Y-49736614D01*
X3642962Y-49602038D01*
X3555183Y-49530000D01*
X3642962Y-49457962D01*
X3753405Y-49323386D01*
X3791294Y-49252500D01*
X4353478Y-49252500D01*
X4390800Y-49256176D01*
X4428122Y-49252500D01*
X4428133Y-49252500D01*
X4539786Y-49241503D01*
X4683047Y-49198046D01*
X4815076Y-49127474D01*
X4930801Y-49032501D01*
X4954604Y-49003497D01*
X5030822Y-48927279D01*
X5097037Y-49007963D01*
%TA.AperFunction,NonConductor*%
D19*
G36*
X5097037Y-49007963D02*
G01*
X5231612Y-49118405D01*
X5385148Y-49200472D01*
X5551743Y-49251008D01*
X5724997Y-49268072D01*
X6238400Y-49268072D01*
X6238400Y-49405239D01*
X6278174Y-49605198D01*
X6355521Y-49791928D01*
X5724997Y-49791928D01*
X5551743Y-49808992D01*
X5385148Y-49859528D01*
X5231612Y-49941595D01*
X5097037Y-50052037D01*
X4986595Y-50186612D01*
X4904528Y-50340148D01*
X4853992Y-50506743D01*
X4836928Y-50679997D01*
X4836928Y-51305003D01*
X4848204Y-51419494D01*
X4657500Y-51610198D01*
X3903072Y-50855771D01*
X3903072Y-50230000D01*
X3886008Y-50056746D01*
X3835472Y-49890150D01*
X3753405Y-49736614D01*
X3642962Y-49602038D01*
X3555183Y-49530000D01*
X3642962Y-49457962D01*
X3753405Y-49323386D01*
X3791294Y-49252500D01*
X4353478Y-49252500D01*
X4390800Y-49256176D01*
X4428122Y-49252500D01*
X4428133Y-49252500D01*
X4539786Y-49241503D01*
X4683047Y-49198046D01*
X4815076Y-49127474D01*
X4930801Y-49032501D01*
X4954604Y-49003497D01*
X5030822Y-48927279D01*
X5097037Y-49007963D01*
G37*
%TD.AperFunction*%
D18*
X20376595Y-33850886D02*
X20487038Y-33985462D01*
X20574817Y-34057500D01*
X20487038Y-34129538D01*
X20376595Y-34264114D01*
X20294528Y-34417650D01*
X20243992Y-34584246D01*
X20226928Y-34757500D01*
X20226928Y-35432500D01*
X20243992Y-35605754D01*
X20294528Y-35772350D01*
X20376595Y-35925886D01*
X20487038Y-36060462D01*
X20621614Y-36170905D01*
X20775150Y-36252972D01*
X20830001Y-36269611D01*
X20830000Y-36861704D01*
X20731595Y-36981612D01*
X20649528Y-37135148D01*
X20598992Y-37301743D01*
X20581928Y-37474997D01*
X20581928Y-38725003D01*
X20598992Y-38898257D01*
X20649528Y-39064852D01*
X20731595Y-39218388D01*
X20842037Y-39352963D01*
X20976612Y-39463405D01*
X21022500Y-39487933D01*
X21022500Y-39656038D01*
X20941746Y-39663992D01*
X20775150Y-39714528D01*
X20621614Y-39796595D01*
X20487038Y-39907038D01*
X20376595Y-40041614D01*
X20294528Y-40195150D01*
X20243992Y-40361746D01*
X20226928Y-40535000D01*
X20226928Y-41210000D01*
X20243992Y-41383254D01*
X20294528Y-41549850D01*
X20376595Y-41703386D01*
X20487038Y-41837962D01*
X20574817Y-41910000D01*
X20487038Y-41982038D01*
X20376595Y-42116614D01*
X20294528Y-42270150D01*
X20243992Y-42436746D01*
X20226928Y-42610000D01*
X20226928Y-43285000D01*
X20243992Y-43458254D01*
X20294528Y-43624850D01*
X20376595Y-43778386D01*
X20487038Y-43912962D01*
X20621614Y-44023405D01*
X20775150Y-44105472D01*
X20830000Y-44122111D01*
X20830001Y-46727597D01*
X19657800Y-47899798D01*
X19657800Y-39466392D01*
X19663388Y-39463405D01*
X19797963Y-39352963D01*
X19908405Y-39218388D01*
X19990472Y-39064852D01*
X20041008Y-38898257D01*
X20058072Y-38725003D01*
X20058072Y-37474997D01*
X20041008Y-37301743D01*
X19990472Y-37135148D01*
X19908405Y-36981612D01*
X19797963Y-36847037D01*
X19663388Y-36736595D01*
X19509852Y-36654528D01*
X19343257Y-36603992D01*
X19170003Y-36586928D01*
X18855000Y-36586928D01*
X18855000Y-36266018D01*
X18946185Y-36191185D01*
X19025537Y-36094494D01*
X19084502Y-35984180D01*
X19120812Y-35864482D01*
X19133072Y-35740000D01*
X19133072Y-34840000D01*
X19120812Y-34715518D01*
X19084502Y-34595820D01*
X19025537Y-34485506D01*
X18946185Y-34388815D01*
X18849494Y-34309463D01*
X18739180Y-34250498D01*
X18619482Y-34214188D01*
X18495000Y-34201928D01*
X17983095Y-34201928D01*
X17996185Y-34191185D01*
X18075537Y-34094494D01*
X18121824Y-34007899D01*
X18162547Y-33995546D01*
X18294576Y-33924974D01*
X18410301Y-33830001D01*
X18434104Y-33800997D01*
X18455101Y-33780000D01*
X20338706Y-33780000D01*
X20376595Y-33850886D01*
%TA.AperFunction,NonConductor*%
D19*
G36*
X20376595Y-33850886D02*
G01*
X20487038Y-33985462D01*
X20574817Y-34057500D01*
X20487038Y-34129538D01*
X20376595Y-34264114D01*
X20294528Y-34417650D01*
X20243992Y-34584246D01*
X20226928Y-34757500D01*
X20226928Y-35432500D01*
X20243992Y-35605754D01*
X20294528Y-35772350D01*
X20376595Y-35925886D01*
X20487038Y-36060462D01*
X20621614Y-36170905D01*
X20775150Y-36252972D01*
X20830001Y-36269611D01*
X20830000Y-36861704D01*
X20731595Y-36981612D01*
X20649528Y-37135148D01*
X20598992Y-37301743D01*
X20581928Y-37474997D01*
X20581928Y-38725003D01*
X20598992Y-38898257D01*
X20649528Y-39064852D01*
X20731595Y-39218388D01*
X20842037Y-39352963D01*
X20976612Y-39463405D01*
X21022500Y-39487933D01*
X21022500Y-39656038D01*
X20941746Y-39663992D01*
X20775150Y-39714528D01*
X20621614Y-39796595D01*
X20487038Y-39907038D01*
X20376595Y-40041614D01*
X20294528Y-40195150D01*
X20243992Y-40361746D01*
X20226928Y-40535000D01*
X20226928Y-41210000D01*
X20243992Y-41383254D01*
X20294528Y-41549850D01*
X20376595Y-41703386D01*
X20487038Y-41837962D01*
X20574817Y-41910000D01*
X20487038Y-41982038D01*
X20376595Y-42116614D01*
X20294528Y-42270150D01*
X20243992Y-42436746D01*
X20226928Y-42610000D01*
X20226928Y-43285000D01*
X20243992Y-43458254D01*
X20294528Y-43624850D01*
X20376595Y-43778386D01*
X20487038Y-43912962D01*
X20621614Y-44023405D01*
X20775150Y-44105472D01*
X20830000Y-44122111D01*
X20830001Y-46727597D01*
X19657800Y-47899798D01*
X19657800Y-39466392D01*
X19663388Y-39463405D01*
X19797963Y-39352963D01*
X19908405Y-39218388D01*
X19990472Y-39064852D01*
X20041008Y-38898257D01*
X20058072Y-38725003D01*
X20058072Y-37474997D01*
X20041008Y-37301743D01*
X19990472Y-37135148D01*
X19908405Y-36981612D01*
X19797963Y-36847037D01*
X19663388Y-36736595D01*
X19509852Y-36654528D01*
X19343257Y-36603992D01*
X19170003Y-36586928D01*
X18855000Y-36586928D01*
X18855000Y-36266018D01*
X18946185Y-36191185D01*
X19025537Y-36094494D01*
X19084502Y-35984180D01*
X19120812Y-35864482D01*
X19133072Y-35740000D01*
X19133072Y-34840000D01*
X19120812Y-34715518D01*
X19084502Y-34595820D01*
X19025537Y-34485506D01*
X18946185Y-34388815D01*
X18849494Y-34309463D01*
X18739180Y-34250498D01*
X18619482Y-34214188D01*
X18495000Y-34201928D01*
X17983095Y-34201928D01*
X17996185Y-34191185D01*
X18075537Y-34094494D01*
X18121824Y-34007899D01*
X18162547Y-33995546D01*
X18294576Y-33924974D01*
X18410301Y-33830001D01*
X18434104Y-33800997D01*
X18455101Y-33780000D01*
X20338706Y-33780000D01*
X20376595Y-33850886D01*
G37*
%TD.AperFunction*%
D18*
X11360596Y-45454997D02*
X11384399Y-45484001D01*
X11500124Y-45578974D01*
X11632153Y-45649546D01*
X11775414Y-45693003D01*
X11887067Y-45704000D01*
X11887076Y-45704000D01*
X11924399Y-45707676D01*
X11961722Y-45704000D01*
X14341699Y-45704000D01*
X15387317Y-46749618D01*
X15360003Y-46746928D01*
X14734997Y-46746928D01*
X14561743Y-46763992D01*
X14395148Y-46814528D01*
X14241612Y-46896595D01*
X14107037Y-47007037D01*
X13996595Y-47141612D01*
X13914528Y-47295148D01*
X13863992Y-47461743D01*
X13860224Y-47500000D01*
X7821212Y-47500000D01*
X7795472Y-47415148D01*
X7713405Y-47261612D01*
X7602963Y-47127037D01*
X7585946Y-47113072D01*
X8245003Y-47113072D01*
X8418257Y-47096008D01*
X8584852Y-47045472D01*
X8738388Y-46963405D01*
X8808370Y-46905973D01*
X8812602Y-46907726D01*
X9012561Y-46947500D01*
X9216439Y-46947500D01*
X9416398Y-46907726D01*
X9604756Y-46829705D01*
X9774274Y-46716437D01*
X9918437Y-46572274D01*
X10031705Y-46402756D01*
X10109726Y-46214398D01*
X10149500Y-46014439D01*
X10149500Y-45810561D01*
X10109726Y-45610602D01*
X10031705Y-45422244D01*
X9918437Y-45252726D01*
X9802759Y-45137048D01*
X9881746Y-45161008D01*
X10055000Y-45178072D01*
X10730000Y-45178072D01*
X10903254Y-45161008D01*
X11028588Y-45122989D01*
X11360596Y-45454997D01*
%TA.AperFunction,NonConductor*%
D19*
G36*
X11360596Y-45454997D02*
G01*
X11384399Y-45484001D01*
X11500124Y-45578974D01*
X11632153Y-45649546D01*
X11775414Y-45693003D01*
X11887067Y-45704000D01*
X11887076Y-45704000D01*
X11924399Y-45707676D01*
X11961722Y-45704000D01*
X14341699Y-45704000D01*
X15387317Y-46749618D01*
X15360003Y-46746928D01*
X14734997Y-46746928D01*
X14561743Y-46763992D01*
X14395148Y-46814528D01*
X14241612Y-46896595D01*
X14107037Y-47007037D01*
X13996595Y-47141612D01*
X13914528Y-47295148D01*
X13863992Y-47461743D01*
X13860224Y-47500000D01*
X7821212Y-47500000D01*
X7795472Y-47415148D01*
X7713405Y-47261612D01*
X7602963Y-47127037D01*
X7585946Y-47113072D01*
X8245003Y-47113072D01*
X8418257Y-47096008D01*
X8584852Y-47045472D01*
X8738388Y-46963405D01*
X8808370Y-46905973D01*
X8812602Y-46907726D01*
X9012561Y-46947500D01*
X9216439Y-46947500D01*
X9416398Y-46907726D01*
X9604756Y-46829705D01*
X9774274Y-46716437D01*
X9918437Y-46572274D01*
X10031705Y-46402756D01*
X10109726Y-46214398D01*
X10149500Y-46014439D01*
X10149500Y-45810561D01*
X10109726Y-45610602D01*
X10031705Y-45422244D01*
X9918437Y-45252726D01*
X9802759Y-45137048D01*
X9881746Y-45161008D01*
X10055000Y-45178072D01*
X10730000Y-45178072D01*
X10903254Y-45161008D01*
X11028588Y-45122989D01*
X11360596Y-45454997D01*
G37*
%TD.AperFunction*%
D18*
X6367037Y-46852963D02*
X6384054Y-46866928D01*
X6342900Y-46866928D01*
X6342900Y-46823552D01*
X6367037Y-46852963D01*
%TA.AperFunction,NonConductor*%
D19*
G36*
X6367037Y-46852963D02*
G01*
X6384054Y-46866928D01*
X6342900Y-46866928D01*
X6342900Y-46823552D01*
X6367037Y-46852963D01*
G37*
%TD.AperFunction*%
D18*
X17164463Y-36094494D02*
X17243815Y-36191185D01*
X17335001Y-36266019D01*
X17335000Y-37300177D01*
X17331324Y-37337500D01*
X17335000Y-37374822D01*
X17335000Y-37374832D01*
X17345997Y-37486485D01*
X17385058Y-37615254D01*
X17389454Y-37629746D01*
X17460026Y-37761776D01*
X17495373Y-37804846D01*
X17554999Y-37877501D01*
X17584002Y-37901303D01*
X17656928Y-37974229D01*
X17656928Y-38725003D01*
X17673992Y-38898257D01*
X17724528Y-39064852D01*
X17806595Y-39218388D01*
X17917037Y-39352963D01*
X18051612Y-39463405D01*
X18137801Y-39509474D01*
X18137800Y-46746928D01*
X17659997Y-46746928D01*
X17545506Y-46758204D01*
X15220304Y-44433003D01*
X15196501Y-44403999D01*
X15080776Y-44309026D01*
X14948747Y-44238454D01*
X14805486Y-44194997D01*
X14693833Y-44184000D01*
X14693822Y-44184000D01*
X14656500Y-44180324D01*
X14619178Y-44184000D01*
X13693072Y-44184000D01*
X13693072Y-43340000D01*
X13676008Y-43166746D01*
X13625472Y-43000150D01*
X13543405Y-42846614D01*
X13432962Y-42712038D01*
X13298386Y-42601595D01*
X13227500Y-42563706D01*
X13227500Y-37953072D01*
X13325003Y-37953072D01*
X13498257Y-37936008D01*
X13664852Y-37885472D01*
X13818388Y-37803405D01*
X13952963Y-37692963D01*
X14063405Y-37558388D01*
X14090345Y-37507988D01*
X14156186Y-37501503D01*
X14299447Y-37458046D01*
X14431476Y-37387474D01*
X14547201Y-37292501D01*
X14571004Y-37263497D01*
X15520960Y-36313541D01*
X15550820Y-36329502D01*
X15670518Y-36365812D01*
X15795000Y-36378072D01*
X16595000Y-36378072D01*
X16719482Y-36365812D01*
X16839180Y-36329502D01*
X16949494Y-36270537D01*
X17046185Y-36191185D01*
X17125537Y-36094494D01*
X17145000Y-36058082D01*
X17164463Y-36094494D01*
%TA.AperFunction,NonConductor*%
D19*
G36*
X17164463Y-36094494D02*
G01*
X17243815Y-36191185D01*
X17335001Y-36266019D01*
X17335000Y-37300177D01*
X17331324Y-37337500D01*
X17335000Y-37374822D01*
X17335000Y-37374832D01*
X17345997Y-37486485D01*
X17385058Y-37615254D01*
X17389454Y-37629746D01*
X17460026Y-37761776D01*
X17495373Y-37804846D01*
X17554999Y-37877501D01*
X17584002Y-37901303D01*
X17656928Y-37974229D01*
X17656928Y-38725003D01*
X17673992Y-38898257D01*
X17724528Y-39064852D01*
X17806595Y-39218388D01*
X17917037Y-39352963D01*
X18051612Y-39463405D01*
X18137801Y-39509474D01*
X18137800Y-46746928D01*
X17659997Y-46746928D01*
X17545506Y-46758204D01*
X15220304Y-44433003D01*
X15196501Y-44403999D01*
X15080776Y-44309026D01*
X14948747Y-44238454D01*
X14805486Y-44194997D01*
X14693833Y-44184000D01*
X14693822Y-44184000D01*
X14656500Y-44180324D01*
X14619178Y-44184000D01*
X13693072Y-44184000D01*
X13693072Y-43340000D01*
X13676008Y-43166746D01*
X13625472Y-43000150D01*
X13543405Y-42846614D01*
X13432962Y-42712038D01*
X13298386Y-42601595D01*
X13227500Y-42563706D01*
X13227500Y-37953072D01*
X13325003Y-37953072D01*
X13498257Y-37936008D01*
X13664852Y-37885472D01*
X13818388Y-37803405D01*
X13952963Y-37692963D01*
X14063405Y-37558388D01*
X14090345Y-37507988D01*
X14156186Y-37501503D01*
X14299447Y-37458046D01*
X14431476Y-37387474D01*
X14547201Y-37292501D01*
X14571004Y-37263497D01*
X15520960Y-36313541D01*
X15550820Y-36329502D01*
X15670518Y-36365812D01*
X15795000Y-36378072D01*
X16595000Y-36378072D01*
X16719482Y-36365812D01*
X16839180Y-36329502D01*
X16949494Y-36270537D01*
X17046185Y-36191185D01*
X17125537Y-36094494D01*
X17145000Y-36058082D01*
X17164463Y-36094494D01*
G37*
%TD.AperFunction*%
D18*
X10670001Y-42451928D02*
X10108636Y-42451928D01*
X10105001Y-42447499D01*
X9989276Y-42352526D01*
X9857247Y-42281954D01*
X9713986Y-42238497D01*
X9602333Y-42227500D01*
X9602322Y-42227500D01*
X9565000Y-42223824D01*
X9527678Y-42227500D01*
X9007933Y-42227500D01*
X8983405Y-42181612D01*
X8922882Y-42107863D01*
X8925000Y-42108072D01*
X10125000Y-42108072D01*
X10249482Y-42095812D01*
X10369180Y-42059502D01*
X10479494Y-42000537D01*
X10576185Y-41921185D01*
X10655537Y-41824494D01*
X10670001Y-41797434D01*
X10670001Y-42451928D01*
%TA.AperFunction,NonConductor*%
D19*
G36*
X10670001Y-42451928D02*
G01*
X10108636Y-42451928D01*
X10105001Y-42447499D01*
X9989276Y-42352526D01*
X9857247Y-42281954D01*
X9713986Y-42238497D01*
X9602333Y-42227500D01*
X9602322Y-42227500D01*
X9565000Y-42223824D01*
X9527678Y-42227500D01*
X9007933Y-42227500D01*
X8983405Y-42181612D01*
X8922882Y-42107863D01*
X8925000Y-42108072D01*
X10125000Y-42108072D01*
X10249482Y-42095812D01*
X10369180Y-42059502D01*
X10479494Y-42000537D01*
X10576185Y-41921185D01*
X10655537Y-41824494D01*
X10670001Y-41797434D01*
X10670001Y-42451928D01*
G37*
%TD.AperFunction*%
D18*
X5219463Y-41824494D02*
X5231427Y-41839072D01*
X5203072Y-41867426D01*
X5203072Y-41793829D01*
X5219463Y-41824494D01*
%TA.AperFunction,NonConductor*%
D19*
G36*
X5219463Y-41824494D02*
G01*
X5231427Y-41839072D01*
X5203072Y-41867426D01*
X5203072Y-41793829D01*
X5219463Y-41824494D01*
G37*
%TD.AperFunction*%
D18*
X2801928Y-41284997D02*
X2801928Y-41436461D01*
X2713887Y-41348415D01*
X2804618Y-41257684D01*
X2801928Y-41284997D01*
%TA.AperFunction,NonConductor*%
D19*
G36*
X2801928Y-41284997D02*
G01*
X2801928Y-41436461D01*
X2713887Y-41348415D01*
X2804618Y-41257684D01*
X2801928Y-41284997D01*
G37*
%TD.AperFunction*%
D18*
X8904724Y-39933925D02*
X8800518Y-39944188D01*
X8680820Y-39980498D01*
X8570506Y-40039463D01*
X8473815Y-40118815D01*
X8394463Y-40215506D01*
X8348176Y-40302101D01*
X8307453Y-40314454D01*
X8175424Y-40385026D01*
X8059699Y-40479999D01*
X8035896Y-40509003D01*
X7897299Y-40647600D01*
X7588072Y-40647600D01*
X7588072Y-40570000D01*
X7575812Y-40445518D01*
X7539502Y-40325820D01*
X7480537Y-40215506D01*
X7401185Y-40118815D01*
X7304494Y-40039463D01*
X7194180Y-39980498D01*
X7074482Y-39944188D01*
X6950000Y-39931928D01*
X6811974Y-39931928D01*
X7786403Y-38957499D01*
X7815401Y-38933701D01*
X7855563Y-38884764D01*
X8904724Y-39933925D01*
%TA.AperFunction,NonConductor*%
D19*
G36*
X8904724Y-39933925D02*
G01*
X8800518Y-39944188D01*
X8680820Y-39980498D01*
X8570506Y-40039463D01*
X8473815Y-40118815D01*
X8394463Y-40215506D01*
X8348176Y-40302101D01*
X8307453Y-40314454D01*
X8175424Y-40385026D01*
X8059699Y-40479999D01*
X8035896Y-40509003D01*
X7897299Y-40647600D01*
X7588072Y-40647600D01*
X7588072Y-40570000D01*
X7575812Y-40445518D01*
X7539502Y-40325820D01*
X7480537Y-40215506D01*
X7401185Y-40118815D01*
X7304494Y-40039463D01*
X7194180Y-39980498D01*
X7074482Y-39944188D01*
X6950000Y-39931928D01*
X6811974Y-39931928D01*
X7786403Y-38957499D01*
X7815401Y-38933701D01*
X7855563Y-38884764D01*
X8904724Y-39933925D01*
G37*
%TD.AperFunction*%
D18*
X11186928Y-36439997D02*
X11186928Y-37065003D01*
X11203992Y-37238257D01*
X11254528Y-37404852D01*
X11336595Y-37558388D01*
X11447037Y-37692963D01*
X11581612Y-37803405D01*
X11707501Y-37870694D01*
X11707500Y-40587099D01*
X9928473Y-38808072D01*
X10125000Y-38808072D01*
X10249482Y-38795812D01*
X10369180Y-38759502D01*
X10479494Y-38700537D01*
X10576185Y-38621185D01*
X10655537Y-38524494D01*
X10714502Y-38414180D01*
X10750812Y-38294482D01*
X10763072Y-38170000D01*
X10763072Y-37270000D01*
X10750812Y-37145518D01*
X10714502Y-37025820D01*
X10666425Y-36935876D01*
X11189618Y-36412683D01*
X11186928Y-36439997D01*
%TA.AperFunction,NonConductor*%
D19*
G36*
X11186928Y-36439997D02*
G01*
X11186928Y-37065003D01*
X11203992Y-37238257D01*
X11254528Y-37404852D01*
X11336595Y-37558388D01*
X11447037Y-37692963D01*
X11581612Y-37803405D01*
X11707501Y-37870694D01*
X11707500Y-40587099D01*
X9928473Y-38808072D01*
X10125000Y-38808072D01*
X10249482Y-38795812D01*
X10369180Y-38759502D01*
X10479494Y-38700537D01*
X10576185Y-38621185D01*
X10655537Y-38524494D01*
X10714502Y-38414180D01*
X10750812Y-38294482D01*
X10763072Y-38170000D01*
X10763072Y-37270000D01*
X10750812Y-37145518D01*
X10714502Y-37025820D01*
X10666425Y-36935876D01*
X11189618Y-36412683D01*
X11186928Y-36439997D01*
G37*
%TD.AperFunction*%
D18*
X5111928Y-37391430D02*
X5111928Y-38170000D01*
X5124188Y-38294482D01*
X5160498Y-38414180D01*
X5219463Y-38524494D01*
X5298815Y-38621185D01*
X5395506Y-38700537D01*
X5505820Y-38759502D01*
X5625518Y-38795812D01*
X5750000Y-38808072D01*
X5786226Y-38808072D01*
X4197371Y-40396928D01*
X3689997Y-40396928D01*
X3516743Y-40413992D01*
X3350148Y-40464528D01*
X3299324Y-40491694D01*
X3300000Y-40484833D01*
X3300000Y-40484823D01*
X3303676Y-40447500D01*
X3300000Y-40410178D01*
X3300000Y-40312110D01*
X3354850Y-40295472D01*
X3508386Y-40213405D01*
X3642962Y-40102962D01*
X3753405Y-39968386D01*
X3835472Y-39814850D01*
X3886008Y-39648254D01*
X3903072Y-39475000D01*
X3903072Y-38800000D01*
X3886008Y-38626746D01*
X3835472Y-38460150D01*
X3753405Y-38306614D01*
X3642962Y-38172038D01*
X3555183Y-38100000D01*
X3642962Y-38027962D01*
X3753405Y-37893386D01*
X3835472Y-37739850D01*
X3886008Y-37573254D01*
X3903072Y-37400000D01*
X3903072Y-36725000D01*
X3886008Y-36551746D01*
X3835472Y-36385150D01*
X3753405Y-36231614D01*
X3642962Y-36097038D01*
X3508386Y-35986595D01*
X3354850Y-35904528D01*
X3188254Y-35853992D01*
X3015000Y-35836928D01*
X2389229Y-35836928D01*
X2374600Y-35822299D01*
X2374600Y-35758072D01*
X3140000Y-35758072D01*
X3264482Y-35745812D01*
X3384180Y-35709502D01*
X3414040Y-35693541D01*
X5111928Y-37391430D01*
%TA.AperFunction,NonConductor*%
D19*
G36*
X5111928Y-37391430D02*
G01*
X5111928Y-38170000D01*
X5124188Y-38294482D01*
X5160498Y-38414180D01*
X5219463Y-38524494D01*
X5298815Y-38621185D01*
X5395506Y-38700537D01*
X5505820Y-38759502D01*
X5625518Y-38795812D01*
X5750000Y-38808072D01*
X5786226Y-38808072D01*
X4197371Y-40396928D01*
X3689997Y-40396928D01*
X3516743Y-40413992D01*
X3350148Y-40464528D01*
X3299324Y-40491694D01*
X3300000Y-40484833D01*
X3300000Y-40484823D01*
X3303676Y-40447500D01*
X3300000Y-40410178D01*
X3300000Y-40312110D01*
X3354850Y-40295472D01*
X3508386Y-40213405D01*
X3642962Y-40102962D01*
X3753405Y-39968386D01*
X3835472Y-39814850D01*
X3886008Y-39648254D01*
X3903072Y-39475000D01*
X3903072Y-38800000D01*
X3886008Y-38626746D01*
X3835472Y-38460150D01*
X3753405Y-38306614D01*
X3642962Y-38172038D01*
X3555183Y-38100000D01*
X3642962Y-38027962D01*
X3753405Y-37893386D01*
X3835472Y-37739850D01*
X3886008Y-37573254D01*
X3903072Y-37400000D01*
X3903072Y-36725000D01*
X3886008Y-36551746D01*
X3835472Y-36385150D01*
X3753405Y-36231614D01*
X3642962Y-36097038D01*
X3508386Y-35986595D01*
X3354850Y-35904528D01*
X3188254Y-35853992D01*
X3015000Y-35836928D01*
X2389229Y-35836928D01*
X2374600Y-35822299D01*
X2374600Y-35758072D01*
X3140000Y-35758072D01*
X3264482Y-35745812D01*
X3384180Y-35709502D01*
X3414040Y-35693541D01*
X5111928Y-37391430D01*
G37*
%TD.AperFunction*%
D18*
X29083000Y-26007497D02*
X14822404Y-11746903D01*
X14798601Y-11717899D01*
X14682876Y-11622926D01*
X14550847Y-11552354D01*
X14407586Y-11508897D01*
X14295933Y-11497900D01*
X14295922Y-11497900D01*
X14258600Y-11494224D01*
X14221278Y-11497900D01*
X7021101Y-11497900D01*
X11303702Y-7215300D01*
X15359478Y-7215300D01*
X15396800Y-7218976D01*
X15434122Y-7215300D01*
X15434133Y-7215300D01*
X15545786Y-7204303D01*
X15689047Y-7160846D01*
X15821076Y-7090274D01*
X15936801Y-6995301D01*
X15960603Y-6966298D01*
X16469371Y-6457531D01*
X16676589Y-6595990D01*
X16946842Y-6707932D01*
X17233740Y-6765000D01*
X17526260Y-6765000D01*
X17813158Y-6707932D01*
X18083411Y-6595990D01*
X18326632Y-6433475D01*
X18533475Y-6226632D01*
X18650000Y-6052240D01*
X18766525Y-6226632D01*
X18973368Y-6433475D01*
X19216589Y-6595990D01*
X19486842Y-6707932D01*
X19773740Y-6765000D01*
X20066260Y-6765000D01*
X20353158Y-6707932D01*
X20623411Y-6595990D01*
X20866632Y-6433475D01*
X21073475Y-6226632D01*
X21190000Y-6052240D01*
X21306525Y-6226632D01*
X21513368Y-6433475D01*
X21756589Y-6595990D01*
X22026842Y-6707932D01*
X22313740Y-6765000D01*
X22606260Y-6765000D01*
X22893158Y-6707932D01*
X23163411Y-6595990D01*
X23406632Y-6433475D01*
X23538487Y-6301620D01*
X23560498Y-6374180D01*
X23619463Y-6484494D01*
X23698815Y-6581185D01*
X23795506Y-6660537D01*
X23905820Y-6719502D01*
X24025518Y-6755812D01*
X24150000Y-6768072D01*
X25850000Y-6768072D01*
X25974482Y-6755812D01*
X26094180Y-6719502D01*
X26204494Y-6660537D01*
X26301185Y-6581185D01*
X26380537Y-6484494D01*
X26439502Y-6374180D01*
X26475812Y-6254482D01*
X26488072Y-6130000D01*
X26488072Y-4430000D01*
X26475812Y-4305518D01*
X26439502Y-4185820D01*
X26380537Y-4075506D01*
X26301185Y-3978815D01*
X26204494Y-3899463D01*
X26094180Y-3840498D01*
X26021620Y-3818487D01*
X26153475Y-3686632D01*
X26315990Y-3443411D01*
X26427932Y-3173158D01*
X26485000Y-2886260D01*
X26485000Y-2593740D01*
X26427932Y-2306842D01*
X26315990Y-2036589D01*
X26153475Y-1793368D01*
X25946632Y-1586525D01*
X25703411Y-1424010D01*
X25433158Y-1312068D01*
X25146260Y-1255000D01*
X24853740Y-1255000D01*
X24566842Y-1312068D01*
X24296589Y-1424010D01*
X24053368Y-1586525D01*
X23846525Y-1793368D01*
X23730000Y-1967760D01*
X23613475Y-1793368D01*
X23406632Y-1586525D01*
X23163411Y-1424010D01*
X22893158Y-1312068D01*
X22606260Y-1255000D01*
X22313740Y-1255000D01*
X22026842Y-1312068D01*
X21756589Y-1424010D01*
X21513368Y-1586525D01*
X21306525Y-1793368D01*
X21190000Y-1967760D01*
X21073475Y-1793368D01*
X20866632Y-1586525D01*
X20623411Y-1424010D01*
X20353158Y-1312068D01*
X20066260Y-1255000D01*
X19773740Y-1255000D01*
X19486842Y-1312068D01*
X19216589Y-1424010D01*
X18973368Y-1586525D01*
X18766525Y-1793368D01*
X18650000Y-1967760D01*
X18533475Y-1793368D01*
X18326632Y-1586525D01*
X18083411Y-1424010D01*
X17813158Y-1312068D01*
X17526260Y-1255000D01*
X17233740Y-1255000D01*
X16946842Y-1312068D01*
X16676589Y-1424010D01*
X16433368Y-1586525D01*
X16226525Y-1793368D01*
X16110000Y-1967760D01*
X15993475Y-1793368D01*
X15786632Y-1586525D01*
X15543411Y-1424010D01*
X15273158Y-1312068D01*
X14986260Y-1255000D01*
X14693740Y-1255000D01*
X14406842Y-1312068D01*
X14136589Y-1424010D01*
X13893368Y-1586525D01*
X13686525Y-1793368D01*
X13524010Y-2036589D01*
X13412068Y-2306842D01*
X13355000Y-2593740D01*
X13355000Y-2886260D01*
X13412068Y-3173158D01*
X13524010Y-3443411D01*
X13686525Y-3686632D01*
X13893368Y-3893475D01*
X14067760Y-4010000D01*
X13893368Y-4126525D01*
X13686525Y-4333368D01*
X13524010Y-4576589D01*
X13412068Y-4846842D01*
X13355000Y-5133740D01*
X13355000Y-5426260D01*
X13408516Y-5695300D01*
X11026223Y-5695300D01*
X10988900Y-5691624D01*
X10951577Y-5695300D01*
X10951567Y-5695300D01*
X10839914Y-5706297D01*
X10696653Y-5749754D01*
X10564624Y-5820326D01*
X10448899Y-5915299D01*
X10425101Y-5944297D01*
X3912471Y-12456928D01*
X3304997Y-12456928D01*
X3131743Y-12473992D01*
X2965148Y-12524528D01*
X2811612Y-12606595D01*
X2677037Y-12717037D01*
X2566595Y-12851612D01*
X2484528Y-13005148D01*
X2433992Y-13171743D01*
X2416928Y-13344997D01*
X2416928Y-14095770D01*
X1534098Y-14978601D01*
X1505100Y-15002399D01*
X1481302Y-15031397D01*
X1481301Y-15031398D01*
X1410126Y-15118124D01*
X1339554Y-15250154D01*
X1327103Y-15291201D01*
X1296098Y-15393414D01*
X1292202Y-15432974D01*
X1281424Y-15542400D01*
X1285101Y-15579732D01*
X1285100Y-20145777D01*
X1281424Y-20183100D01*
X1285100Y-20220422D01*
X1285100Y-20220432D01*
X1296097Y-20332085D01*
X1325670Y-20429576D01*
X1339554Y-20475346D01*
X1410126Y-20607376D01*
X1437125Y-20640274D01*
X1505099Y-20723101D01*
X1534103Y-20746904D01*
X2261928Y-21474730D01*
X2261928Y-21740000D01*
X2277071Y-21893745D01*
X2321916Y-22041582D01*
X2394742Y-22177829D01*
X2433454Y-22225000D01*
X2394742Y-22272171D01*
X2321916Y-22408418D01*
X2277071Y-22556255D01*
X2261928Y-22710000D01*
X2261928Y-23010000D01*
X2277071Y-23163745D01*
X2321916Y-23311582D01*
X2394742Y-23447829D01*
X2433454Y-23495000D01*
X2394742Y-23542171D01*
X2321916Y-23678418D01*
X2277071Y-23826255D01*
X2261928Y-23980000D01*
X2261928Y-24280000D01*
X2277071Y-24433745D01*
X2321916Y-24581582D01*
X2394742Y-24717829D01*
X2433454Y-24765000D01*
X2394742Y-24812171D01*
X2321916Y-24948418D01*
X2277071Y-25096255D01*
X2261928Y-25250000D01*
X2261928Y-25550000D01*
X2277071Y-25703745D01*
X2321916Y-25851582D01*
X2394742Y-25987829D01*
X2492749Y-26107251D01*
X2612171Y-26205258D01*
X2748418Y-26278084D01*
X2896255Y-26322929D01*
X3050000Y-26338072D01*
X4700000Y-26338072D01*
X4853745Y-26322929D01*
X4974642Y-26286256D01*
X1103603Y-30157296D01*
X1074599Y-30181099D01*
X1043975Y-30218415D01*
X979626Y-30296824D01*
X916299Y-30415300D01*
X909054Y-30428854D01*
X865597Y-30572115D01*
X854600Y-30683768D01*
X854600Y-30683778D01*
X850924Y-30721100D01*
X854600Y-30758423D01*
X854601Y-36099768D01*
X850924Y-36137100D01*
X854601Y-36174433D01*
X860685Y-36236199D01*
X865598Y-36286085D01*
X909054Y-36429346D01*
X979626Y-36561376D01*
X1043514Y-36639223D01*
X1074600Y-36677101D01*
X1103598Y-36700899D01*
X1176928Y-36774229D01*
X1176928Y-37400000D01*
X1193992Y-37573254D01*
X1244528Y-37739850D01*
X1326595Y-37893386D01*
X1437038Y-38027962D01*
X1524817Y-38100000D01*
X1437038Y-38172038D01*
X1326595Y-38306614D01*
X1244528Y-38460150D01*
X1193992Y-38626746D01*
X1176928Y-38800000D01*
X1176928Y-39475000D01*
X1193992Y-39648254D01*
X1244528Y-39814850D01*
X1326595Y-39968386D01*
X1437038Y-40102962D01*
X1571614Y-40213405D01*
X1654819Y-40257879D01*
X1504494Y-40408204D01*
X1390003Y-40396928D01*
X764997Y-40396928D01*
X685000Y-40404807D01*
X685000Y-685000D01*
X29083000Y-685000D01*
X29083000Y-26007497D01*
%TA.AperFunction,NonConductor*%
D19*
G36*
X29083000Y-26007497D02*
G01*
X14822404Y-11746903D01*
X14798601Y-11717899D01*
X14682876Y-11622926D01*
X14550847Y-11552354D01*
X14407586Y-11508897D01*
X14295933Y-11497900D01*
X14295922Y-11497900D01*
X14258600Y-11494224D01*
X14221278Y-11497900D01*
X7021101Y-11497900D01*
X11303702Y-7215300D01*
X15359478Y-7215300D01*
X15396800Y-7218976D01*
X15434122Y-7215300D01*
X15434133Y-7215300D01*
X15545786Y-7204303D01*
X15689047Y-7160846D01*
X15821076Y-7090274D01*
X15936801Y-6995301D01*
X15960603Y-6966298D01*
X16469371Y-6457531D01*
X16676589Y-6595990D01*
X16946842Y-6707932D01*
X17233740Y-6765000D01*
X17526260Y-6765000D01*
X17813158Y-6707932D01*
X18083411Y-6595990D01*
X18326632Y-6433475D01*
X18533475Y-6226632D01*
X18650000Y-6052240D01*
X18766525Y-6226632D01*
X18973368Y-6433475D01*
X19216589Y-6595990D01*
X19486842Y-6707932D01*
X19773740Y-6765000D01*
X20066260Y-6765000D01*
X20353158Y-6707932D01*
X20623411Y-6595990D01*
X20866632Y-6433475D01*
X21073475Y-6226632D01*
X21190000Y-6052240D01*
X21306525Y-6226632D01*
X21513368Y-6433475D01*
X21756589Y-6595990D01*
X22026842Y-6707932D01*
X22313740Y-6765000D01*
X22606260Y-6765000D01*
X22893158Y-6707932D01*
X23163411Y-6595990D01*
X23406632Y-6433475D01*
X23538487Y-6301620D01*
X23560498Y-6374180D01*
X23619463Y-6484494D01*
X23698815Y-6581185D01*
X23795506Y-6660537D01*
X23905820Y-6719502D01*
X24025518Y-6755812D01*
X24150000Y-6768072D01*
X25850000Y-6768072D01*
X25974482Y-6755812D01*
X26094180Y-6719502D01*
X26204494Y-6660537D01*
X26301185Y-6581185D01*
X26380537Y-6484494D01*
X26439502Y-6374180D01*
X26475812Y-6254482D01*
X26488072Y-6130000D01*
X26488072Y-4430000D01*
X26475812Y-4305518D01*
X26439502Y-4185820D01*
X26380537Y-4075506D01*
X26301185Y-3978815D01*
X26204494Y-3899463D01*
X26094180Y-3840498D01*
X26021620Y-3818487D01*
X26153475Y-3686632D01*
X26315990Y-3443411D01*
X26427932Y-3173158D01*
X26485000Y-2886260D01*
X26485000Y-2593740D01*
X26427932Y-2306842D01*
X26315990Y-2036589D01*
X26153475Y-1793368D01*
X25946632Y-1586525D01*
X25703411Y-1424010D01*
X25433158Y-1312068D01*
X25146260Y-1255000D01*
X24853740Y-1255000D01*
X24566842Y-1312068D01*
X24296589Y-1424010D01*
X24053368Y-1586525D01*
X23846525Y-1793368D01*
X23730000Y-1967760D01*
X23613475Y-1793368D01*
X23406632Y-1586525D01*
X23163411Y-1424010D01*
X22893158Y-1312068D01*
X22606260Y-1255000D01*
X22313740Y-1255000D01*
X22026842Y-1312068D01*
X21756589Y-1424010D01*
X21513368Y-1586525D01*
X21306525Y-1793368D01*
X21190000Y-1967760D01*
X21073475Y-1793368D01*
X20866632Y-1586525D01*
X20623411Y-1424010D01*
X20353158Y-1312068D01*
X20066260Y-1255000D01*
X19773740Y-1255000D01*
X19486842Y-1312068D01*
X19216589Y-1424010D01*
X18973368Y-1586525D01*
X18766525Y-1793368D01*
X18650000Y-1967760D01*
X18533475Y-1793368D01*
X18326632Y-1586525D01*
X18083411Y-1424010D01*
X17813158Y-1312068D01*
X17526260Y-1255000D01*
X17233740Y-1255000D01*
X16946842Y-1312068D01*
X16676589Y-1424010D01*
X16433368Y-1586525D01*
X16226525Y-1793368D01*
X16110000Y-1967760D01*
X15993475Y-1793368D01*
X15786632Y-1586525D01*
X15543411Y-1424010D01*
X15273158Y-1312068D01*
X14986260Y-1255000D01*
X14693740Y-1255000D01*
X14406842Y-1312068D01*
X14136589Y-1424010D01*
X13893368Y-1586525D01*
X13686525Y-1793368D01*
X13524010Y-2036589D01*
X13412068Y-2306842D01*
X13355000Y-2593740D01*
X13355000Y-2886260D01*
X13412068Y-3173158D01*
X13524010Y-3443411D01*
X13686525Y-3686632D01*
X13893368Y-3893475D01*
X14067760Y-4010000D01*
X13893368Y-4126525D01*
X13686525Y-4333368D01*
X13524010Y-4576589D01*
X13412068Y-4846842D01*
X13355000Y-5133740D01*
X13355000Y-5426260D01*
X13408516Y-5695300D01*
X11026223Y-5695300D01*
X10988900Y-5691624D01*
X10951577Y-5695300D01*
X10951567Y-5695300D01*
X10839914Y-5706297D01*
X10696653Y-5749754D01*
X10564624Y-5820326D01*
X10448899Y-5915299D01*
X10425101Y-5944297D01*
X3912471Y-12456928D01*
X3304997Y-12456928D01*
X3131743Y-12473992D01*
X2965148Y-12524528D01*
X2811612Y-12606595D01*
X2677037Y-12717037D01*
X2566595Y-12851612D01*
X2484528Y-13005148D01*
X2433992Y-13171743D01*
X2416928Y-13344997D01*
X2416928Y-14095770D01*
X1534098Y-14978601D01*
X1505100Y-15002399D01*
X1481302Y-15031397D01*
X1481301Y-15031398D01*
X1410126Y-15118124D01*
X1339554Y-15250154D01*
X1327103Y-15291201D01*
X1296098Y-15393414D01*
X1292202Y-15432974D01*
X1281424Y-15542400D01*
X1285101Y-15579732D01*
X1285100Y-20145777D01*
X1281424Y-20183100D01*
X1285100Y-20220422D01*
X1285100Y-20220432D01*
X1296097Y-20332085D01*
X1325670Y-20429576D01*
X1339554Y-20475346D01*
X1410126Y-20607376D01*
X1437125Y-20640274D01*
X1505099Y-20723101D01*
X1534103Y-20746904D01*
X2261928Y-21474730D01*
X2261928Y-21740000D01*
X2277071Y-21893745D01*
X2321916Y-22041582D01*
X2394742Y-22177829D01*
X2433454Y-22225000D01*
X2394742Y-22272171D01*
X2321916Y-22408418D01*
X2277071Y-22556255D01*
X2261928Y-22710000D01*
X2261928Y-23010000D01*
X2277071Y-23163745D01*
X2321916Y-23311582D01*
X2394742Y-23447829D01*
X2433454Y-23495000D01*
X2394742Y-23542171D01*
X2321916Y-23678418D01*
X2277071Y-23826255D01*
X2261928Y-23980000D01*
X2261928Y-24280000D01*
X2277071Y-24433745D01*
X2321916Y-24581582D01*
X2394742Y-24717829D01*
X2433454Y-24765000D01*
X2394742Y-24812171D01*
X2321916Y-24948418D01*
X2277071Y-25096255D01*
X2261928Y-25250000D01*
X2261928Y-25550000D01*
X2277071Y-25703745D01*
X2321916Y-25851582D01*
X2394742Y-25987829D01*
X2492749Y-26107251D01*
X2612171Y-26205258D01*
X2748418Y-26278084D01*
X2896255Y-26322929D01*
X3050000Y-26338072D01*
X4700000Y-26338072D01*
X4853745Y-26322929D01*
X4974642Y-26286256D01*
X1103603Y-30157296D01*
X1074599Y-30181099D01*
X1043975Y-30218415D01*
X979626Y-30296824D01*
X916299Y-30415300D01*
X909054Y-30428854D01*
X865597Y-30572115D01*
X854600Y-30683768D01*
X854600Y-30683778D01*
X850924Y-30721100D01*
X854600Y-30758423D01*
X854601Y-36099768D01*
X850924Y-36137100D01*
X854601Y-36174433D01*
X860685Y-36236199D01*
X865598Y-36286085D01*
X909054Y-36429346D01*
X979626Y-36561376D01*
X1043514Y-36639223D01*
X1074600Y-36677101D01*
X1103598Y-36700899D01*
X1176928Y-36774229D01*
X1176928Y-37400000D01*
X1193992Y-37573254D01*
X1244528Y-37739850D01*
X1326595Y-37893386D01*
X1437038Y-38027962D01*
X1524817Y-38100000D01*
X1437038Y-38172038D01*
X1326595Y-38306614D01*
X1244528Y-38460150D01*
X1193992Y-38626746D01*
X1176928Y-38800000D01*
X1176928Y-39475000D01*
X1193992Y-39648254D01*
X1244528Y-39814850D01*
X1326595Y-39968386D01*
X1437038Y-40102962D01*
X1571614Y-40213405D01*
X1654819Y-40257879D01*
X1504494Y-40408204D01*
X1390003Y-40396928D01*
X764997Y-40396928D01*
X685000Y-40404807D01*
X685000Y-685000D01*
X29083000Y-685000D01*
X29083000Y-26007497D01*
G37*
%TD.AperFunction*%
D18*
X28448201Y-39243152D02*
X28373158Y-39212068D01*
X28086260Y-39155000D01*
X27932302Y-39155000D01*
X28448201Y-38639101D01*
X28448201Y-39243152D01*
%TA.AperFunction,NonConductor*%
D19*
G36*
X28448201Y-39243152D02*
G01*
X28373158Y-39212068D01*
X28086260Y-39155000D01*
X27932302Y-39155000D01*
X28448201Y-38639101D01*
X28448201Y-39243152D01*
G37*
%TD.AperFunction*%
D18*
X27115395Y-36853956D02*
X27228663Y-37023474D01*
X27372826Y-37167637D01*
X27542344Y-37280905D01*
X27623271Y-37314426D01*
X27074300Y-37863398D01*
X27074300Y-36754745D01*
X27115395Y-36853956D01*
%TA.AperFunction,NonConductor*%
D19*
G36*
X27115395Y-36853956D02*
G01*
X27228663Y-37023474D01*
X27372826Y-37167637D01*
X27542344Y-37280905D01*
X27623271Y-37314426D01*
X27074300Y-37863398D01*
X27074300Y-36754745D01*
X27115395Y-36853956D01*
G37*
%TD.AperFunction*%
D18*
X22997037Y-34907963D02*
X23131612Y-35018405D01*
X23285148Y-35100472D01*
X23451743Y-35151008D01*
X23624997Y-35168072D01*
X24070401Y-35168072D01*
X24070401Y-36784496D01*
X23155998Y-37698900D01*
X23093861Y-37698900D01*
X22983072Y-37720937D01*
X22983072Y-37474997D01*
X22966008Y-37301743D01*
X22915472Y-37135148D01*
X22833405Y-36981612D01*
X22722963Y-36847037D01*
X22588388Y-36736595D01*
X22434852Y-36654528D01*
X22350000Y-36628788D01*
X22350000Y-36269610D01*
X22404850Y-36252972D01*
X22558386Y-36170905D01*
X22692962Y-36060462D01*
X22803405Y-35925886D01*
X22885472Y-35772350D01*
X22936008Y-35605754D01*
X22953072Y-35432500D01*
X22953072Y-34854391D01*
X22997037Y-34907963D01*
%TA.AperFunction,NonConductor*%
D19*
G36*
X22997037Y-34907963D02*
G01*
X23131612Y-35018405D01*
X23285148Y-35100472D01*
X23451743Y-35151008D01*
X23624997Y-35168072D01*
X24070401Y-35168072D01*
X24070401Y-36784496D01*
X23155998Y-37698900D01*
X23093861Y-37698900D01*
X22983072Y-37720937D01*
X22983072Y-37474997D01*
X22966008Y-37301743D01*
X22915472Y-37135148D01*
X22833405Y-36981612D01*
X22722963Y-36847037D01*
X22588388Y-36736595D01*
X22434852Y-36654528D01*
X22350000Y-36628788D01*
X22350000Y-36269610D01*
X22404850Y-36252972D01*
X22558386Y-36170905D01*
X22692962Y-36060462D01*
X22803405Y-35925886D01*
X22885472Y-35772350D01*
X22936008Y-35605754D01*
X22953072Y-35432500D01*
X22953072Y-34854391D01*
X22997037Y-34907963D01*
G37*
%TD.AperFunction*%
D18*
X11836525Y-30946632D02*
X12043368Y-31153475D01*
X12230001Y-31278179D01*
X12230000Y-32626928D01*
X12074997Y-32626928D01*
X11901743Y-32643992D01*
X11735148Y-32694528D01*
X11581612Y-32776595D01*
X11447037Y-32887037D01*
X11336595Y-33021612D01*
X11254528Y-33175148D01*
X11203992Y-33341743D01*
X11186928Y-33514997D01*
X11186928Y-34140003D01*
X11198204Y-34254494D01*
X9494501Y-35958198D01*
X8567741Y-35031439D01*
X8596008Y-34938254D01*
X8613072Y-34765000D01*
X8613072Y-33815000D01*
X8596008Y-33641746D01*
X8545472Y-33475150D01*
X8463405Y-33321614D01*
X8352962Y-33187038D01*
X8218386Y-33076595D01*
X8105790Y-33016411D01*
X9230997Y-31891205D01*
X9265147Y-31880846D01*
X9397176Y-31810274D01*
X9512901Y-31715301D01*
X9536704Y-31686297D01*
X9785698Y-31437303D01*
X9814701Y-31413501D01*
X9857145Y-31361783D01*
X10016842Y-31427932D01*
X10303740Y-31485000D01*
X10596260Y-31485000D01*
X10883158Y-31427932D01*
X11153411Y-31315990D01*
X11396632Y-31153475D01*
X11603475Y-30946632D01*
X11720000Y-30772240D01*
X11836525Y-30946632D01*
%TA.AperFunction,NonConductor*%
D19*
G36*
X11836525Y-30946632D02*
G01*
X12043368Y-31153475D01*
X12230001Y-31278179D01*
X12230000Y-32626928D01*
X12074997Y-32626928D01*
X11901743Y-32643992D01*
X11735148Y-32694528D01*
X11581612Y-32776595D01*
X11447037Y-32887037D01*
X11336595Y-33021612D01*
X11254528Y-33175148D01*
X11203992Y-33341743D01*
X11186928Y-33514997D01*
X11186928Y-34140003D01*
X11198204Y-34254494D01*
X9494501Y-35958198D01*
X8567741Y-35031439D01*
X8596008Y-34938254D01*
X8613072Y-34765000D01*
X8613072Y-33815000D01*
X8596008Y-33641746D01*
X8545472Y-33475150D01*
X8463405Y-33321614D01*
X8352962Y-33187038D01*
X8218386Y-33076595D01*
X8105790Y-33016411D01*
X9230997Y-31891205D01*
X9265147Y-31880846D01*
X9397176Y-31810274D01*
X9512901Y-31715301D01*
X9536704Y-31686297D01*
X9785698Y-31437303D01*
X9814701Y-31413501D01*
X9857145Y-31361783D01*
X10016842Y-31427932D01*
X10303740Y-31485000D01*
X10596260Y-31485000D01*
X10883158Y-31427932D01*
X11153411Y-31315990D01*
X11396632Y-31153475D01*
X11603475Y-30946632D01*
X11720000Y-30772240D01*
X11836525Y-30946632D01*
G37*
%TD.AperFunction*%
D18*
X15672947Y-34213949D02*
X15670518Y-34214188D01*
X15550820Y-34250498D01*
X15440506Y-34309463D01*
X15343815Y-34388815D01*
X15264463Y-34485506D01*
X15218176Y-34572101D01*
X15177453Y-34584454D01*
X15045424Y-34655026D01*
X14929699Y-34749999D01*
X14905901Y-34778997D01*
X13908968Y-35775931D01*
X13818388Y-35701595D01*
X13664852Y-35619528D01*
X13498257Y-35568992D01*
X13325003Y-35551928D01*
X12074997Y-35551928D01*
X12047683Y-35554618D01*
X12574230Y-35028072D01*
X13325003Y-35028072D01*
X13498257Y-35011008D01*
X13664852Y-34960472D01*
X13818388Y-34878405D01*
X13952963Y-34767963D01*
X14063405Y-34633388D01*
X14145472Y-34479852D01*
X14196008Y-34313257D01*
X14213072Y-34140003D01*
X14213072Y-33514997D01*
X14196008Y-33341743D01*
X14145472Y-33175148D01*
X14063405Y-33021612D01*
X13952963Y-32887037D01*
X13818388Y-32776595D01*
X13750000Y-32740041D01*
X13750000Y-32291001D01*
X15672947Y-34213949D01*
%TA.AperFunction,NonConductor*%
D19*
G36*
X15672947Y-34213949D02*
G01*
X15670518Y-34214188D01*
X15550820Y-34250498D01*
X15440506Y-34309463D01*
X15343815Y-34388815D01*
X15264463Y-34485506D01*
X15218176Y-34572101D01*
X15177453Y-34584454D01*
X15045424Y-34655026D01*
X14929699Y-34749999D01*
X14905901Y-34778997D01*
X13908968Y-35775931D01*
X13818388Y-35701595D01*
X13664852Y-35619528D01*
X13498257Y-35568992D01*
X13325003Y-35551928D01*
X12074997Y-35551928D01*
X12047683Y-35554618D01*
X12574230Y-35028072D01*
X13325003Y-35028072D01*
X13498257Y-35011008D01*
X13664852Y-34960472D01*
X13818388Y-34878405D01*
X13952963Y-34767963D01*
X14063405Y-34633388D01*
X14145472Y-34479852D01*
X14196008Y-34313257D01*
X14213072Y-34140003D01*
X14213072Y-33514997D01*
X14196008Y-33341743D01*
X14145472Y-33175148D01*
X14063405Y-33021612D01*
X13952963Y-32887037D01*
X13818388Y-32776595D01*
X13750000Y-32740041D01*
X13750000Y-32291001D01*
X15672947Y-34213949D01*
G37*
%TD.AperFunction*%
D18*
X26442058Y-35157441D02*
X26100300Y-35499199D01*
X26100300Y-35492001D01*
X26435506Y-35156796D01*
X26442058Y-35157441D01*
%TA.AperFunction,NonConductor*%
D19*
G36*
X26442058Y-35157441D02*
G01*
X26100300Y-35499199D01*
X26100300Y-35492001D01*
X26435506Y-35156796D01*
X26442058Y-35157441D01*
G37*
%TD.AperFunction*%
D18*
X3602967Y-32305000D02*
X3602976Y-32305000D01*
X3640299Y-32308676D01*
X3677622Y-32305000D01*
X4552500Y-32305000D01*
X4552501Y-33038705D01*
X4481614Y-33076595D01*
X4347038Y-33187038D01*
X4236595Y-33321614D01*
X4154528Y-33475150D01*
X4103992Y-33641746D01*
X4086928Y-33815000D01*
X4086928Y-34216827D01*
X4029104Y-34159003D01*
X4005301Y-34129999D01*
X3889576Y-34035026D01*
X3757547Y-33964454D01*
X3716824Y-33952101D01*
X3670537Y-33865506D01*
X3591185Y-33768815D01*
X3494494Y-33689463D01*
X3384180Y-33630498D01*
X3264482Y-33594188D01*
X3140000Y-33581928D01*
X2374600Y-33581928D01*
X2374600Y-32458072D01*
X3140000Y-32458072D01*
X3264482Y-32445812D01*
X3384180Y-32409502D01*
X3494494Y-32350537D01*
X3555659Y-32300340D01*
X3602967Y-32305000D01*
%TA.AperFunction,NonConductor*%
D19*
G36*
X3602967Y-32305000D02*
G01*
X3602976Y-32305000D01*
X3640299Y-32308676D01*
X3677622Y-32305000D01*
X4552500Y-32305000D01*
X4552501Y-33038705D01*
X4481614Y-33076595D01*
X4347038Y-33187038D01*
X4236595Y-33321614D01*
X4154528Y-33475150D01*
X4103992Y-33641746D01*
X4086928Y-33815000D01*
X4086928Y-34216827D01*
X4029104Y-34159003D01*
X4005301Y-34129999D01*
X3889576Y-34035026D01*
X3757547Y-33964454D01*
X3716824Y-33952101D01*
X3670537Y-33865506D01*
X3591185Y-33768815D01*
X3494494Y-33689463D01*
X3384180Y-33630498D01*
X3264482Y-33594188D01*
X3140000Y-33581928D01*
X2374600Y-33581928D01*
X2374600Y-32458072D01*
X3140000Y-32458072D01*
X3264482Y-32445812D01*
X3384180Y-32409502D01*
X3494494Y-32350537D01*
X3555659Y-32300340D01*
X3602967Y-32305000D01*
G37*
%TD.AperFunction*%
D18*
X25661928Y-33529230D02*
X25661928Y-33780770D01*
X25590400Y-33852298D01*
X25590400Y-33457702D01*
X25661928Y-33529230D01*
%TA.AperFunction,NonConductor*%
D19*
G36*
X25661928Y-33529230D02*
G01*
X25661928Y-33780770D01*
X25590400Y-33852298D01*
X25590400Y-33457702D01*
X25661928Y-33529230D01*
G37*
%TD.AperFunction*%
D18*
X6935518Y-31475812D02*
X7060000Y-31488072D01*
X7484526Y-31488072D01*
X6072500Y-32900099D01*
X6072500Y-32248968D01*
X6201576Y-32179974D01*
X6317301Y-32085001D01*
X6341104Y-32055997D01*
X6924601Y-31472500D01*
X6935518Y-31475812D01*
%TA.AperFunction,NonConductor*%
D19*
G36*
X6935518Y-31475812D02*
G01*
X7060000Y-31488072D01*
X7484526Y-31488072D01*
X6072500Y-32900099D01*
X6072500Y-32248968D01*
X6201576Y-32179974D01*
X6317301Y-32085001D01*
X6341104Y-32055997D01*
X6924601Y-31472500D01*
X6935518Y-31475812D01*
G37*
%TD.AperFunction*%
D18*
X16916525Y-30946632D02*
X17123368Y-31153475D01*
X17366589Y-31315990D01*
X17636842Y-31427932D01*
X17923740Y-31485000D01*
X18216260Y-31485000D01*
X18503158Y-31427932D01*
X18773411Y-31315990D01*
X18980630Y-31177531D01*
X19939700Y-32136602D01*
X19963499Y-32165601D01*
X19992497Y-32189399D01*
X20078525Y-32260000D01*
X18177625Y-32260000D01*
X18140300Y-32256324D01*
X18102975Y-32260000D01*
X18102967Y-32260000D01*
X17991314Y-32270997D01*
X17886827Y-32302692D01*
X17789180Y-32250498D01*
X17669482Y-32214188D01*
X17545000Y-32201928D01*
X16745000Y-32201928D01*
X16620518Y-32214188D01*
X16500820Y-32250498D01*
X16390506Y-32309463D01*
X16293815Y-32388815D01*
X16214463Y-32485506D01*
X16172540Y-32563938D01*
X15020000Y-31411399D01*
X15020000Y-31396103D01*
X15096842Y-31427932D01*
X15383740Y-31485000D01*
X15676260Y-31485000D01*
X15963158Y-31427932D01*
X16233411Y-31315990D01*
X16476632Y-31153475D01*
X16683475Y-30946632D01*
X16800000Y-30772240D01*
X16916525Y-30946632D01*
%TA.AperFunction,NonConductor*%
D19*
G36*
X16916525Y-30946632D02*
G01*
X17123368Y-31153475D01*
X17366589Y-31315990D01*
X17636842Y-31427932D01*
X17923740Y-31485000D01*
X18216260Y-31485000D01*
X18503158Y-31427932D01*
X18773411Y-31315990D01*
X18980630Y-31177531D01*
X19939700Y-32136602D01*
X19963499Y-32165601D01*
X19992497Y-32189399D01*
X20078525Y-32260000D01*
X18177625Y-32260000D01*
X18140300Y-32256324D01*
X18102975Y-32260000D01*
X18102967Y-32260000D01*
X17991314Y-32270997D01*
X17886827Y-32302692D01*
X17789180Y-32250498D01*
X17669482Y-32214188D01*
X17545000Y-32201928D01*
X16745000Y-32201928D01*
X16620518Y-32214188D01*
X16500820Y-32250498D01*
X16390506Y-32309463D01*
X16293815Y-32388815D01*
X16214463Y-32485506D01*
X16172540Y-32563938D01*
X15020000Y-31411399D01*
X15020000Y-31396103D01*
X15096842Y-31427932D01*
X15383740Y-31485000D01*
X15676260Y-31485000D01*
X15963158Y-31427932D01*
X16233411Y-31315990D01*
X16476632Y-31153475D01*
X16683475Y-30946632D01*
X16800000Y-30772240D01*
X16916525Y-30946632D01*
G37*
%TD.AperFunction*%
D18*
X22997037Y-32402037D02*
X22928734Y-32485266D01*
X22898501Y-32385600D01*
X23017066Y-32385600D01*
X22997037Y-32402037D01*
%TA.AperFunction,NonConductor*%
D19*
G36*
X22997037Y-32402037D02*
G01*
X22928734Y-32485266D01*
X22898501Y-32385600D01*
X23017066Y-32385600D01*
X22997037Y-32402037D01*
G37*
%TD.AperFunction*%
D18*
X26994301Y-32141928D02*
X26549997Y-32141928D01*
X26435506Y-32153204D01*
X25767301Y-31485000D01*
X25836260Y-31485000D01*
X26123158Y-31427932D01*
X26393411Y-31315990D01*
X26636632Y-31153475D01*
X26843475Y-30946632D01*
X26994300Y-30720906D01*
X26994301Y-32141928D01*
%TA.AperFunction,NonConductor*%
D19*
G36*
X26994301Y-32141928D02*
G01*
X26549997Y-32141928D01*
X26435506Y-32153204D01*
X25767301Y-31485000D01*
X25836260Y-31485000D01*
X26123158Y-31427932D01*
X26393411Y-31315990D01*
X26636632Y-31153475D01*
X26843475Y-30946632D01*
X26994300Y-30720906D01*
X26994301Y-32141928D01*
G37*
%TD.AperFunction*%
D18*
X21942381Y-30865600D02*
X21817619Y-30865600D01*
X21880000Y-30772240D01*
X21942381Y-30865600D01*
%TA.AperFunction,NonConductor*%
D19*
G36*
X21942381Y-30865600D02*
G01*
X21817619Y-30865600D01*
X21880000Y-30772240D01*
X21942381Y-30865600D01*
G37*
%TD.AperFunction*%
D18*
X7562171Y-26205258D02*
X7698418Y-26278084D01*
X7846255Y-26322929D01*
X8000000Y-26338072D01*
X9321826Y-26338072D01*
X7398998Y-28260901D01*
X7370000Y-28284699D01*
X7346202Y-28313697D01*
X7346201Y-28313698D01*
X7275026Y-28400424D01*
X7232826Y-28479374D01*
X7215425Y-28511928D01*
X7060000Y-28511928D01*
X6935518Y-28524188D01*
X6815820Y-28560498D01*
X6705506Y-28619463D01*
X6608815Y-28698815D01*
X6529463Y-28795506D01*
X6470498Y-28905820D01*
X6434188Y-29025518D01*
X6421928Y-29150000D01*
X6421928Y-29825570D01*
X5462499Y-30785000D01*
X5349833Y-30785000D01*
X5312500Y-30781323D01*
X5275167Y-30785000D01*
X3950470Y-30785000D01*
X3889576Y-30735026D01*
X3757547Y-30664454D01*
X3716824Y-30652101D01*
X3670537Y-30565506D01*
X3591185Y-30468815D01*
X3494494Y-30389463D01*
X3384180Y-30330498D01*
X3264482Y-30294188D01*
X3140000Y-30281928D01*
X3128573Y-30281928D01*
X7250502Y-26160000D01*
X7507024Y-26160000D01*
X7562171Y-26205258D01*
%TA.AperFunction,NonConductor*%
D19*
G36*
X7562171Y-26205258D02*
G01*
X7698418Y-26278084D01*
X7846255Y-26322929D01*
X8000000Y-26338072D01*
X9321826Y-26338072D01*
X7398998Y-28260901D01*
X7370000Y-28284699D01*
X7346202Y-28313697D01*
X7346201Y-28313698D01*
X7275026Y-28400424D01*
X7232826Y-28479374D01*
X7215425Y-28511928D01*
X7060000Y-28511928D01*
X6935518Y-28524188D01*
X6815820Y-28560498D01*
X6705506Y-28619463D01*
X6608815Y-28698815D01*
X6529463Y-28795506D01*
X6470498Y-28905820D01*
X6434188Y-29025518D01*
X6421928Y-29150000D01*
X6421928Y-29825570D01*
X5462499Y-30785000D01*
X5349833Y-30785000D01*
X5312500Y-30781323D01*
X5275167Y-30785000D01*
X3950470Y-30785000D01*
X3889576Y-30735026D01*
X3757547Y-30664454D01*
X3716824Y-30652101D01*
X3670537Y-30565506D01*
X3591185Y-30468815D01*
X3494494Y-30389463D01*
X3384180Y-30330498D01*
X3264482Y-30294188D01*
X3140000Y-30281928D01*
X3128573Y-30281928D01*
X7250502Y-26160000D01*
X7507024Y-26160000D01*
X7562171Y-26205258D01*
G37*
%TD.AperFunction*%
D18*
X26994300Y-28616002D02*
X26994300Y-29279094D01*
X26843475Y-29053368D01*
X26636632Y-28846525D01*
X26393411Y-28684010D01*
X26123158Y-28572068D01*
X25836260Y-28515000D01*
X25543740Y-28515000D01*
X25256842Y-28572068D01*
X24986589Y-28684010D01*
X24782488Y-28820386D01*
X20085901Y-24123800D01*
X20131304Y-24078398D01*
X20160301Y-24054601D01*
X20191976Y-24016005D01*
X20255274Y-23938877D01*
X20325846Y-23806847D01*
X20333232Y-23782499D01*
X20369303Y-23663586D01*
X20380300Y-23551933D01*
X20380300Y-23551923D01*
X20383976Y-23514600D01*
X20380300Y-23477277D01*
X20380300Y-22002001D01*
X26994300Y-28616002D01*
%TA.AperFunction,NonConductor*%
D19*
G36*
X26994300Y-28616002D02*
G01*
X26994300Y-29279094D01*
X26843475Y-29053368D01*
X26636632Y-28846525D01*
X26393411Y-28684010D01*
X26123158Y-28572068D01*
X25836260Y-28515000D01*
X25543740Y-28515000D01*
X25256842Y-28572068D01*
X24986589Y-28684010D01*
X24782488Y-28820386D01*
X20085901Y-24123800D01*
X20131304Y-24078398D01*
X20160301Y-24054601D01*
X20191976Y-24016005D01*
X20255274Y-23938877D01*
X20325846Y-23806847D01*
X20333232Y-23782499D01*
X20369303Y-23663586D01*
X20380300Y-23551933D01*
X20380300Y-23551923D01*
X20383976Y-23514600D01*
X20380300Y-23477277D01*
X20380300Y-22002001D01*
X26994300Y-28616002D01*
G37*
%TD.AperFunction*%
D18*
X13500000Y-27940302D02*
X13500000Y-28603897D01*
X13423158Y-28572068D01*
X13136260Y-28515000D01*
X12843740Y-28515000D01*
X12556842Y-28572068D01*
X12286589Y-28684010D01*
X12043368Y-28846525D01*
X11836525Y-29053368D01*
X11720000Y-29227760D01*
X11603475Y-29053368D01*
X11396632Y-28846525D01*
X11153411Y-28684010D01*
X10883158Y-28572068D01*
X10596260Y-28515000D01*
X10303740Y-28515000D01*
X10016842Y-28572068D01*
X9746589Y-28684010D01*
X9503368Y-28846525D01*
X9371513Y-28978380D01*
X9349502Y-28905820D01*
X9290537Y-28795506D01*
X9211185Y-28698815D01*
X9155986Y-28653515D01*
X11220502Y-26589000D01*
X12148699Y-26589000D01*
X13500000Y-27940302D01*
%TA.AperFunction,NonConductor*%
D19*
G36*
X13500000Y-27940302D02*
G01*
X13500000Y-28603897D01*
X13423158Y-28572068D01*
X13136260Y-28515000D01*
X12843740Y-28515000D01*
X12556842Y-28572068D01*
X12286589Y-28684010D01*
X12043368Y-28846525D01*
X11836525Y-29053368D01*
X11720000Y-29227760D01*
X11603475Y-29053368D01*
X11396632Y-28846525D01*
X11153411Y-28684010D01*
X10883158Y-28572068D01*
X10596260Y-28515000D01*
X10303740Y-28515000D01*
X10016842Y-28572068D01*
X9746589Y-28684010D01*
X9503368Y-28846525D01*
X9371513Y-28978380D01*
X9349502Y-28905820D01*
X9290537Y-28795506D01*
X9211185Y-28698815D01*
X9155986Y-28653515D01*
X11220502Y-26589000D01*
X12148699Y-26589000D01*
X13500000Y-27940302D01*
G37*
%TD.AperFunction*%
D18*
X17051595Y-22203388D02*
X17162037Y-22337963D01*
X17296612Y-22448405D01*
X17450148Y-22530472D01*
X17616743Y-22581008D01*
X17789997Y-22598072D01*
X18860300Y-22598072D01*
X18860300Y-23121928D01*
X17789997Y-23121928D01*
X17616743Y-23138992D01*
X17450148Y-23189528D01*
X17296612Y-23271595D01*
X17162037Y-23382037D01*
X17051595Y-23516612D01*
X16969528Y-23670148D01*
X16918992Y-23836743D01*
X16901928Y-24009997D01*
X16901928Y-24635003D01*
X16918992Y-24808257D01*
X16969528Y-24974852D01*
X17051595Y-25128388D01*
X17162037Y-25262963D01*
X17296612Y-25373405D01*
X17450148Y-25455472D01*
X17616743Y-25506008D01*
X17789997Y-25523072D01*
X19040003Y-25523072D01*
X19213257Y-25506008D01*
X19294011Y-25481512D01*
X22481887Y-28669389D01*
X22446589Y-28684010D01*
X22203368Y-28846525D01*
X21996525Y-29053368D01*
X21880000Y-29227760D01*
X21763475Y-29053368D01*
X21556632Y-28846525D01*
X21313411Y-28684010D01*
X21043158Y-28572068D01*
X20756260Y-28515000D01*
X20463740Y-28515000D01*
X20176842Y-28572068D01*
X19906589Y-28684010D01*
X19663368Y-28846525D01*
X19456525Y-29053368D01*
X19340000Y-29227760D01*
X19223475Y-29053368D01*
X19016632Y-28846525D01*
X18773411Y-28684010D01*
X18503158Y-28572068D01*
X18216260Y-28515000D01*
X17923740Y-28515000D01*
X17636842Y-28572068D01*
X17366589Y-28684010D01*
X17123368Y-28846525D01*
X16916525Y-29053368D01*
X16800000Y-29227760D01*
X16683475Y-29053368D01*
X16476632Y-28846525D01*
X16290000Y-28721822D01*
X16290000Y-24168222D01*
X16293676Y-24130899D01*
X16290000Y-24093577D01*
X16290000Y-24093567D01*
X16279003Y-23981914D01*
X16235546Y-23838653D01*
X16213855Y-23798072D01*
X16164974Y-23706623D01*
X16093799Y-23619897D01*
X16070001Y-23590899D01*
X16041004Y-23567102D01*
X14980157Y-22506256D01*
X15088388Y-22448405D01*
X15222963Y-22337963D01*
X15333405Y-22203388D01*
X15357933Y-22157500D01*
X17027067Y-22157500D01*
X17051595Y-22203388D01*
%TA.AperFunction,NonConductor*%
D19*
G36*
X17051595Y-22203388D02*
G01*
X17162037Y-22337963D01*
X17296612Y-22448405D01*
X17450148Y-22530472D01*
X17616743Y-22581008D01*
X17789997Y-22598072D01*
X18860300Y-22598072D01*
X18860300Y-23121928D01*
X17789997Y-23121928D01*
X17616743Y-23138992D01*
X17450148Y-23189528D01*
X17296612Y-23271595D01*
X17162037Y-23382037D01*
X17051595Y-23516612D01*
X16969528Y-23670148D01*
X16918992Y-23836743D01*
X16901928Y-24009997D01*
X16901928Y-24635003D01*
X16918992Y-24808257D01*
X16969528Y-24974852D01*
X17051595Y-25128388D01*
X17162037Y-25262963D01*
X17296612Y-25373405D01*
X17450148Y-25455472D01*
X17616743Y-25506008D01*
X17789997Y-25523072D01*
X19040003Y-25523072D01*
X19213257Y-25506008D01*
X19294011Y-25481512D01*
X22481887Y-28669389D01*
X22446589Y-28684010D01*
X22203368Y-28846525D01*
X21996525Y-29053368D01*
X21880000Y-29227760D01*
X21763475Y-29053368D01*
X21556632Y-28846525D01*
X21313411Y-28684010D01*
X21043158Y-28572068D01*
X20756260Y-28515000D01*
X20463740Y-28515000D01*
X20176842Y-28572068D01*
X19906589Y-28684010D01*
X19663368Y-28846525D01*
X19456525Y-29053368D01*
X19340000Y-29227760D01*
X19223475Y-29053368D01*
X19016632Y-28846525D01*
X18773411Y-28684010D01*
X18503158Y-28572068D01*
X18216260Y-28515000D01*
X17923740Y-28515000D01*
X17636842Y-28572068D01*
X17366589Y-28684010D01*
X17123368Y-28846525D01*
X16916525Y-29053368D01*
X16800000Y-29227760D01*
X16683475Y-29053368D01*
X16476632Y-28846525D01*
X16290000Y-28721822D01*
X16290000Y-24168222D01*
X16293676Y-24130899D01*
X16290000Y-24093577D01*
X16290000Y-24093567D01*
X16279003Y-23981914D01*
X16235546Y-23838653D01*
X16213855Y-23798072D01*
X16164974Y-23706623D01*
X16093799Y-23619897D01*
X16070001Y-23590899D01*
X16041004Y-23567102D01*
X14980157Y-22506256D01*
X15088388Y-22448405D01*
X15222963Y-22337963D01*
X15333405Y-22203388D01*
X15357933Y-22157500D01*
X17027067Y-22157500D01*
X17051595Y-22203388D01*
G37*
%TD.AperFunction*%
D18*
X14770001Y-27060699D02*
X13538301Y-25829000D01*
X13844230Y-25523072D01*
X14595003Y-25523072D01*
X14768257Y-25506008D01*
X14770000Y-25505479D01*
X14770001Y-27060699D01*
%TA.AperFunction,NonConductor*%
D19*
G36*
X14770001Y-27060699D02*
G01*
X13538301Y-25829000D01*
X13844230Y-25523072D01*
X14595003Y-25523072D01*
X14768257Y-25506008D01*
X14770000Y-25505479D01*
X14770001Y-27060699D01*
G37*
%TD.AperFunction*%
D18*
X6315648Y-24945250D02*
X5436256Y-25824642D01*
X5472929Y-25703745D01*
X5488072Y-25550000D01*
X5488072Y-25250000D01*
X5472929Y-25096255D01*
X5428084Y-24948418D01*
X5355258Y-24812171D01*
X5316546Y-24765000D01*
X5355258Y-24717829D01*
X5428084Y-24581582D01*
X5472929Y-24433745D01*
X5488072Y-24280000D01*
X5488072Y-24117673D01*
X6315648Y-24945250D01*
%TA.AperFunction,NonConductor*%
D19*
G36*
X6315648Y-24945250D02*
G01*
X5436256Y-25824642D01*
X5472929Y-25703745D01*
X5488072Y-25550000D01*
X5488072Y-25250000D01*
X5472929Y-25096255D01*
X5428084Y-24948418D01*
X5355258Y-24812171D01*
X5316546Y-24765000D01*
X5355258Y-24717829D01*
X5428084Y-24581582D01*
X5472929Y-24433745D01*
X5488072Y-24280000D01*
X5488072Y-24117673D01*
X6315648Y-24945250D01*
G37*
%TD.AperFunction*%
D18*
X12524528Y-23670148D02*
X12473992Y-23836743D01*
X12456928Y-24009997D01*
X12456928Y-24635003D01*
X12468204Y-24749494D01*
X12148699Y-25069000D01*
X11220681Y-25069000D01*
X10437492Y-24285885D01*
X10438072Y-24280000D01*
X10438072Y-23980000D01*
X10422929Y-23826255D01*
X10378084Y-23678418D01*
X10346859Y-23620000D01*
X12551333Y-23620000D01*
X12524528Y-23670148D01*
%TA.AperFunction,NonConductor*%
D19*
G36*
X12524528Y-23670148D02*
G01*
X12473992Y-23836743D01*
X12456928Y-24009997D01*
X12456928Y-24635003D01*
X12468204Y-24749494D01*
X12148699Y-25069000D01*
X11220681Y-25069000D01*
X10437492Y-24285885D01*
X10438072Y-24280000D01*
X10438072Y-23980000D01*
X10422929Y-23826255D01*
X10378084Y-23678418D01*
X10346859Y-23620000D01*
X12551333Y-23620000D01*
X12524528Y-23670148D01*
G37*
%TD.AperFunction*%
D18*
X8314003Y-16312596D02*
X8284999Y-16336399D01*
X8252029Y-16376574D01*
X8190026Y-16452124D01*
X8136776Y-16551747D01*
X8119454Y-16584154D01*
X8075997Y-16727415D01*
X8065000Y-16839068D01*
X8065000Y-16839078D01*
X8064719Y-16841928D01*
X8000000Y-16841928D01*
X7846255Y-16857071D01*
X7698418Y-16901916D01*
X7562171Y-16974742D01*
X7442749Y-17072749D01*
X7344742Y-17192171D01*
X7271916Y-17328418D01*
X7227071Y-17476255D01*
X7211928Y-17630000D01*
X7211928Y-17930000D01*
X7227071Y-18083745D01*
X7271916Y-18231582D01*
X7344742Y-18367829D01*
X7383454Y-18415000D01*
X7344742Y-18462171D01*
X7271916Y-18598418D01*
X7227071Y-18746255D01*
X7211928Y-18900000D01*
X7211928Y-19200000D01*
X7227071Y-19353745D01*
X7271916Y-19501582D01*
X7344742Y-19637829D01*
X7383454Y-19685000D01*
X7344742Y-19732171D01*
X7271916Y-19868418D01*
X7227071Y-20016255D01*
X7211928Y-20170000D01*
X7211928Y-20470000D01*
X7227071Y-20623745D01*
X7271916Y-20771582D01*
X7344742Y-20907829D01*
X7383454Y-20955000D01*
X7344742Y-21002171D01*
X7271916Y-21138418D01*
X7227071Y-21286255D01*
X7211928Y-21440000D01*
X7211928Y-21721770D01*
X6973702Y-21959997D01*
X6944699Y-21983799D01*
X6904753Y-22032474D01*
X6849726Y-22099524D01*
X6820365Y-22154454D01*
X6779154Y-22231554D01*
X6735697Y-22374815D01*
X6724700Y-22486468D01*
X6724700Y-22486478D01*
X6721024Y-22523800D01*
X6724700Y-22561122D01*
X6724700Y-23138878D01*
X6721024Y-23176200D01*
X6723736Y-23203734D01*
X5869004Y-22349003D01*
X5845201Y-22319999D01*
X5729476Y-22225026D01*
X5597447Y-22154454D01*
X5454186Y-22110997D01*
X5394142Y-22105083D01*
X5428084Y-22041582D01*
X5472929Y-21893745D01*
X5488072Y-21740000D01*
X5488072Y-21440000D01*
X5472929Y-21286255D01*
X5428084Y-21138418D01*
X5355258Y-21002171D01*
X5316546Y-20955000D01*
X5355258Y-20907829D01*
X5428084Y-20771582D01*
X5472929Y-20623745D01*
X5488072Y-20470000D01*
X5488072Y-20170000D01*
X5472929Y-20016255D01*
X5428084Y-19868418D01*
X5355258Y-19732171D01*
X5316546Y-19685000D01*
X5355258Y-19637829D01*
X5428084Y-19501582D01*
X5472929Y-19353745D01*
X5488072Y-19200000D01*
X5488072Y-18900000D01*
X5487590Y-18895111D01*
X7053503Y-17329199D01*
X7082501Y-17305401D01*
X7177474Y-17189676D01*
X7248046Y-17057647D01*
X7291503Y-16914386D01*
X7302500Y-16802733D01*
X7302500Y-16802724D01*
X7306176Y-16765401D01*
X7302500Y-16728078D01*
X7302500Y-15357933D01*
X7348388Y-15333405D01*
X7482963Y-15222963D01*
X7593405Y-15088388D01*
X7675472Y-14934852D01*
X7726008Y-14768257D01*
X7743072Y-14595003D01*
X7743072Y-14537500D01*
X10089098Y-14537500D01*
X8314003Y-16312596D01*
%TA.AperFunction,NonConductor*%
D19*
G36*
X8314003Y-16312596D02*
G01*
X8284999Y-16336399D01*
X8252029Y-16376574D01*
X8190026Y-16452124D01*
X8136776Y-16551747D01*
X8119454Y-16584154D01*
X8075997Y-16727415D01*
X8065000Y-16839068D01*
X8065000Y-16839078D01*
X8064719Y-16841928D01*
X8000000Y-16841928D01*
X7846255Y-16857071D01*
X7698418Y-16901916D01*
X7562171Y-16974742D01*
X7442749Y-17072749D01*
X7344742Y-17192171D01*
X7271916Y-17328418D01*
X7227071Y-17476255D01*
X7211928Y-17630000D01*
X7211928Y-17930000D01*
X7227071Y-18083745D01*
X7271916Y-18231582D01*
X7344742Y-18367829D01*
X7383454Y-18415000D01*
X7344742Y-18462171D01*
X7271916Y-18598418D01*
X7227071Y-18746255D01*
X7211928Y-18900000D01*
X7211928Y-19200000D01*
X7227071Y-19353745D01*
X7271916Y-19501582D01*
X7344742Y-19637829D01*
X7383454Y-19685000D01*
X7344742Y-19732171D01*
X7271916Y-19868418D01*
X7227071Y-20016255D01*
X7211928Y-20170000D01*
X7211928Y-20470000D01*
X7227071Y-20623745D01*
X7271916Y-20771582D01*
X7344742Y-20907829D01*
X7383454Y-20955000D01*
X7344742Y-21002171D01*
X7271916Y-21138418D01*
X7227071Y-21286255D01*
X7211928Y-21440000D01*
X7211928Y-21721770D01*
X6973702Y-21959997D01*
X6944699Y-21983799D01*
X6904753Y-22032474D01*
X6849726Y-22099524D01*
X6820365Y-22154454D01*
X6779154Y-22231554D01*
X6735697Y-22374815D01*
X6724700Y-22486468D01*
X6724700Y-22486478D01*
X6721024Y-22523800D01*
X6724700Y-22561122D01*
X6724700Y-23138878D01*
X6721024Y-23176200D01*
X6723736Y-23203734D01*
X5869004Y-22349003D01*
X5845201Y-22319999D01*
X5729476Y-22225026D01*
X5597447Y-22154454D01*
X5454186Y-22110997D01*
X5394142Y-22105083D01*
X5428084Y-22041582D01*
X5472929Y-21893745D01*
X5488072Y-21740000D01*
X5488072Y-21440000D01*
X5472929Y-21286255D01*
X5428084Y-21138418D01*
X5355258Y-21002171D01*
X5316546Y-20955000D01*
X5355258Y-20907829D01*
X5428084Y-20771582D01*
X5472929Y-20623745D01*
X5488072Y-20470000D01*
X5488072Y-20170000D01*
X5472929Y-20016255D01*
X5428084Y-19868418D01*
X5355258Y-19732171D01*
X5316546Y-19685000D01*
X5355258Y-19637829D01*
X5428084Y-19501582D01*
X5472929Y-19353745D01*
X5488072Y-19200000D01*
X5488072Y-18900000D01*
X5487590Y-18895111D01*
X7053503Y-17329199D01*
X7082501Y-17305401D01*
X7177474Y-17189676D01*
X7248046Y-17057647D01*
X7291503Y-16914386D01*
X7302500Y-16802733D01*
X7302500Y-16802724D01*
X7306176Y-16765401D01*
X7302500Y-16728078D01*
X7302500Y-15357933D01*
X7348388Y-15333405D01*
X7482963Y-15222963D01*
X7593405Y-15088388D01*
X7675472Y-14934852D01*
X7726008Y-14768257D01*
X7743072Y-14595003D01*
X7743072Y-14537500D01*
X10089098Y-14537500D01*
X8314003Y-16312596D01*
G37*
%TD.AperFunction*%
D18*
X16602900Y-20045102D02*
X16602900Y-20107239D01*
X16642674Y-20307198D01*
X16720695Y-20495556D01*
X16815539Y-20637500D01*
X15357933Y-20637500D01*
X15333405Y-20591612D01*
X15222963Y-20457037D01*
X15088388Y-20346595D01*
X14934852Y-20264528D01*
X14768257Y-20213992D01*
X14595003Y-20196928D01*
X13344997Y-20196928D01*
X13171743Y-20213992D01*
X13005148Y-20264528D01*
X12851612Y-20346595D01*
X12717037Y-20457037D01*
X12606595Y-20591612D01*
X12524528Y-20745148D01*
X12473992Y-20911743D01*
X12456928Y-21084997D01*
X12456928Y-21464900D01*
X10462901Y-21464900D01*
X12830102Y-19097700D01*
X15655499Y-19097700D01*
X16602900Y-20045102D01*
%TA.AperFunction,NonConductor*%
D19*
G36*
X16602900Y-20045102D02*
G01*
X16602900Y-20107239D01*
X16642674Y-20307198D01*
X16720695Y-20495556D01*
X16815539Y-20637500D01*
X15357933Y-20637500D01*
X15333405Y-20591612D01*
X15222963Y-20457037D01*
X15088388Y-20346595D01*
X14934852Y-20264528D01*
X14768257Y-20213992D01*
X14595003Y-20196928D01*
X13344997Y-20196928D01*
X13171743Y-20213992D01*
X13005148Y-20264528D01*
X12851612Y-20346595D01*
X12717037Y-20457037D01*
X12606595Y-20591612D01*
X12524528Y-20745148D01*
X12473992Y-20911743D01*
X12456928Y-21084997D01*
X12456928Y-21464900D01*
X10462901Y-21464900D01*
X12830102Y-19097700D01*
X15655499Y-19097700D01*
X16602900Y-20045102D01*
G37*
%TD.AperFunction*%
D18*
X11439997Y-17903072D02*
X11755300Y-17903072D01*
X11755300Y-18022898D01*
X11403500Y-18374698D01*
X11403500Y-17899477D01*
X11439997Y-17903072D01*
%TA.AperFunction,NonConductor*%
D19*
G36*
X11439997Y-17903072D02*
G01*
X11755300Y-17903072D01*
X11755300Y-18022898D01*
X11403500Y-18374698D01*
X11403500Y-17899477D01*
X11439997Y-17903072D01*
G37*
%TD.AperFunction*%
D18*
X15953935Y-17575636D02*
X15932978Y-17577700D01*
X13371523Y-17577700D01*
X13428405Y-17508388D01*
X13510472Y-17354852D01*
X13561008Y-17188257D01*
X13578072Y-17015003D01*
X13578072Y-16501600D01*
X14879899Y-16501600D01*
X15953935Y-17575636D01*
%TA.AperFunction,NonConductor*%
D19*
G36*
X15953935Y-17575636D02*
G01*
X15932978Y-17577700D01*
X13371523Y-17577700D01*
X13428405Y-17508388D01*
X13510472Y-17354852D01*
X13561008Y-17188257D01*
X13578072Y-17015003D01*
X13578072Y-16501600D01*
X14879899Y-16501600D01*
X15953935Y-17575636D01*
G37*
%TD.AperFunction*%
D18*
X3195965Y-15472333D02*
X2805100Y-15863199D01*
X2805100Y-15857201D01*
X3190506Y-15471796D01*
X3195965Y-15472333D01*
%TA.AperFunction,NonConductor*%
D19*
G36*
X3195965Y-15472333D02*
G01*
X2805100Y-15863199D01*
X2805100Y-15857201D01*
X3190506Y-15471796D01*
X3195965Y-15472333D01*
G37*
%TD.AperFunction*%
D18*
X14369899Y-14080900D02*
X13578072Y-14080900D01*
X13578072Y-13468300D01*
X13757299Y-13468300D01*
X14369899Y-14080900D01*
%TA.AperFunction,NonConductor*%
D19*
G36*
X14369899Y-14080900D02*
G01*
X13578072Y-14080900D01*
X13578072Y-13468300D01*
X13757299Y-13468300D01*
X14369899Y-14080900D01*
G37*
%TD.AperFunction*%
D18*
X16226525Y-3686632D02*
X16433368Y-3893475D01*
X16607760Y-4010000D01*
X16433368Y-4126525D01*
X16226525Y-4333368D01*
X16110000Y-4507760D01*
X15993475Y-4333368D01*
X15786632Y-4126525D01*
X15612240Y-4010000D01*
X15786632Y-3893475D01*
X15993475Y-3686632D01*
X16110000Y-3512240D01*
X16226525Y-3686632D01*
%TA.AperFunction,NonConductor*%
D19*
G36*
X16226525Y-3686632D02*
G01*
X16433368Y-3893475D01*
X16607760Y-4010000D01*
X16433368Y-4126525D01*
X16226525Y-4333368D01*
X16110000Y-4507760D01*
X15993475Y-4333368D01*
X15786632Y-4126525D01*
X15612240Y-4010000D01*
X15786632Y-3893475D01*
X15993475Y-3686632D01*
X16110000Y-3512240D01*
X16226525Y-3686632D01*
G37*
%TD.AperFunction*%
D18*
X18766525Y-3686632D02*
X18973368Y-3893475D01*
X19147760Y-4010000D01*
X18973368Y-4126525D01*
X18766525Y-4333368D01*
X18650000Y-4507760D01*
X18533475Y-4333368D01*
X18326632Y-4126525D01*
X18152240Y-4010000D01*
X18326632Y-3893475D01*
X18533475Y-3686632D01*
X18650000Y-3512240D01*
X18766525Y-3686632D01*
%TA.AperFunction,NonConductor*%
D19*
G36*
X18766525Y-3686632D02*
G01*
X18973368Y-3893475D01*
X19147760Y-4010000D01*
X18973368Y-4126525D01*
X18766525Y-4333368D01*
X18650000Y-4507760D01*
X18533475Y-4333368D01*
X18326632Y-4126525D01*
X18152240Y-4010000D01*
X18326632Y-3893475D01*
X18533475Y-3686632D01*
X18650000Y-3512240D01*
X18766525Y-3686632D01*
G37*
%TD.AperFunction*%
D18*
X21306525Y-3686632D02*
X21513368Y-3893475D01*
X21687760Y-4010000D01*
X21513368Y-4126525D01*
X21306525Y-4333368D01*
X21190000Y-4507760D01*
X21073475Y-4333368D01*
X20866632Y-4126525D01*
X20692240Y-4010000D01*
X20866632Y-3893475D01*
X21073475Y-3686632D01*
X21190000Y-3512240D01*
X21306525Y-3686632D01*
%TA.AperFunction,NonConductor*%
D19*
G36*
X21306525Y-3686632D02*
G01*
X21513368Y-3893475D01*
X21687760Y-4010000D01*
X21513368Y-4126525D01*
X21306525Y-4333368D01*
X21190000Y-4507760D01*
X21073475Y-4333368D01*
X20866632Y-4126525D01*
X20692240Y-4010000D01*
X20866632Y-3893475D01*
X21073475Y-3686632D01*
X21190000Y-3512240D01*
X21306525Y-3686632D01*
G37*
%TD.AperFunction*%
D18*
X23846525Y-3686632D02*
X23978380Y-3818487D01*
X23905820Y-3840498D01*
X23795506Y-3899463D01*
X23698815Y-3978815D01*
X23619463Y-4075506D01*
X23560498Y-4185820D01*
X23538487Y-4258380D01*
X23406632Y-4126525D01*
X23232240Y-4010000D01*
X23406632Y-3893475D01*
X23613475Y-3686632D01*
X23730000Y-3512240D01*
X23846525Y-3686632D01*
%TA.AperFunction,NonConductor*%
D19*
G36*
X23846525Y-3686632D02*
G01*
X23978380Y-3818487D01*
X23905820Y-3840498D01*
X23795506Y-3899463D01*
X23698815Y-3978815D01*
X23619463Y-4075506D01*
X23560498Y-4185820D01*
X23538487Y-4258380D01*
X23406632Y-4126525D01*
X23232240Y-4010000D01*
X23406632Y-3893475D01*
X23613475Y-3686632D01*
X23730000Y-3512240D01*
X23846525Y-3686632D01*
G37*
%TD.AperFunction*%
M02*
