M48
; DRILL file {KiCad (5.1.9-0-10_14)} date Tuesday, April 20, 2021 at 10:51:22 PM
; FORMAT={-:-/ absolute / inch / decimal}
; #@! TF.CreationDate,2021-04-20T22:51:22+02:00
; #@! TF.GenerationSoftware,Kicad,Pcbnew,(5.1.9-0-10_14)
FMAT,2
INCH
T1C0.0157
T2C0.0394
%
G90
G05
T1
X0.1457Y-2.1412
X0.2198Y-1.7986
X0.2298Y-2.1836
X0.2864Y-1.9411
X0.3588Y-1.8076
X0.4148Y-2.8837
X0.6944Y-0.7876
X0.9132Y-1.525
X0.9896Y-2.7254
X1.0432Y-3.4215
X1.0653Y-2.2147
X1.0981Y-2.5578
X1.1036Y-1.4316
T2
X0.3114Y-1.1811
X0.4114Y-1.1811
X0.4295Y-3.3071
X0.5114Y-1.1811
X0.5295Y-3.3071
X0.5843Y-0.1079
X0.5843Y-0.2079
X0.6114Y-1.1811
X0.6295Y-3.3071
X0.6843Y-0.1079
X0.6843Y-0.2079
X0.7114Y-1.1811
X0.7295Y-3.3071
X0.7843Y-0.1079
X0.7843Y-0.2079
X0.8114Y-1.1811
X0.8295Y-3.3071
X0.85Y-2.5
X0.8843Y-0.1079
X0.8843Y-0.2079
X0.9114Y-1.1811
X0.9295Y-3.3071
X0.95Y-2.5
X0.9843Y-0.1079
X0.9843Y-0.2079
X1.0114Y-1.1811
X1.0295Y-3.3071
X1.05Y-2.5
X1.1Y-1.6
X1.1Y-1.7
X1.1295Y-3.3071
T0
M30
