%TF.GenerationSoftware,KiCad,Pcbnew,(5.1.9-0-10_14)*%
%TF.CreationDate,2021-04-20T22:51:25+02:00*%
%TF.ProjectId,tribus,74726962-7573-42e6-9b69-6361645f7063,rev?*%
%TF.SameCoordinates,Original*%
%TF.FileFunction,Legend,Bot*%
%TF.FilePolarity,Positive*%
%FSLAX46Y46*%
G04 Gerber Fmt 4.6, Leading zero omitted, Abs format (unit mm)*
G04 Created by KiCad (PCBNEW (5.1.9-0-10_14)) date 2021-04-20 22:51:25*
%MOMM*%
%LPD*%
G01*
G04 APERTURE LIST*
%ADD10C,0.150000*%
%ADD11C,0.175000*%
%ADD12C,0.500000*%
%ADD13C,0.120000*%
%ADD14C,0.010000*%
G04 APERTURE END LIST*
D10*
X25936711Y-32962857D02*
X25827187Y-33000952D01*
X25793854Y-33039047D01*
X25765282Y-33115238D01*
X25779568Y-33229523D01*
X25827187Y-33305714D01*
X25870044Y-33343809D01*
X25950997Y-33381904D01*
X26255758Y-33381904D01*
X26155758Y-32581904D01*
X25889092Y-32581904D01*
X25817663Y-32620000D01*
X25784330Y-32658095D01*
X25755758Y-32734285D01*
X25765282Y-32810476D01*
X25812901Y-32886666D01*
X25855758Y-32924761D01*
X25936711Y-32962857D01*
X26203377Y-32962857D01*
X25112901Y-33381904D02*
X25060520Y-32962857D01*
X25089092Y-32886666D01*
X25160520Y-32848571D01*
X25312901Y-32848571D01*
X25393854Y-32886666D01*
X25108139Y-33343809D02*
X25189092Y-33381904D01*
X25379568Y-33381904D01*
X25450997Y-33343809D01*
X25479568Y-33267619D01*
X25470044Y-33191428D01*
X25422425Y-33115238D01*
X25341473Y-33077142D01*
X25150997Y-33077142D01*
X25070044Y-33039047D01*
X24765282Y-33343809D02*
X24693854Y-33381904D01*
X24541473Y-33381904D01*
X24460520Y-33343809D01*
X24412901Y-33267619D01*
X24408139Y-33229523D01*
X24436711Y-33153333D01*
X24508139Y-33115238D01*
X24622425Y-33115238D01*
X24693854Y-33077142D01*
X24722425Y-33000952D01*
X24717663Y-32962857D01*
X24670044Y-32886666D01*
X24589092Y-32848571D01*
X24474806Y-32848571D01*
X24403377Y-32886666D01*
X23774806Y-33343809D02*
X23855758Y-33381904D01*
X24008139Y-33381904D01*
X24079568Y-33343809D01*
X24108139Y-33267619D01*
X24070044Y-32962857D01*
X24022425Y-32886666D01*
X23941473Y-32848571D01*
X23789092Y-32848571D01*
X23717663Y-32886666D01*
X23689092Y-32962857D01*
X23698616Y-33039047D01*
X24089092Y-33115238D01*
X23055758Y-33381904D02*
X22955758Y-32581904D01*
X23050997Y-33343809D02*
X23131949Y-33381904D01*
X23284330Y-33381904D01*
X23355758Y-33343809D01*
X23389092Y-33305714D01*
X23417663Y-33229523D01*
X23389092Y-33000952D01*
X23341473Y-32924761D01*
X23298616Y-32886666D01*
X23217663Y-32848571D01*
X23065282Y-32848571D01*
X22993854Y-32886666D01*
X21950997Y-33381904D02*
X22022425Y-33343809D01*
X22055758Y-33305714D01*
X22084330Y-33229523D01*
X22055758Y-33000952D01*
X22008139Y-32924761D01*
X21965282Y-32886666D01*
X21884330Y-32848571D01*
X21770044Y-32848571D01*
X21698616Y-32886666D01*
X21665282Y-32924761D01*
X21636711Y-33000952D01*
X21665282Y-33229523D01*
X21712901Y-33305714D01*
X21755758Y-33343809D01*
X21836711Y-33381904D01*
X21950997Y-33381904D01*
X21274806Y-32848571D02*
X21341473Y-33381904D01*
X21284330Y-32924761D02*
X21241473Y-32886666D01*
X21160520Y-32848571D01*
X21046235Y-32848571D01*
X20974806Y-32886666D01*
X20946235Y-32962857D01*
X20998616Y-33381904D01*
X20055758Y-32848571D02*
X19750997Y-32848571D01*
X19908139Y-32581904D02*
X19993854Y-33267619D01*
X19965282Y-33343809D01*
X19893854Y-33381904D01*
X19817663Y-33381904D01*
X19550997Y-33381904D02*
X19450997Y-32581904D01*
X19208139Y-33381904D02*
X19155758Y-32962857D01*
X19184330Y-32886666D01*
X19255758Y-32848571D01*
X19370044Y-32848571D01*
X19450997Y-32886666D01*
X19493854Y-32924761D01*
X18517663Y-33343809D02*
X18598616Y-33381904D01*
X18750997Y-33381904D01*
X18822425Y-33343809D01*
X18850997Y-33267619D01*
X18812901Y-32962857D01*
X18765282Y-32886666D01*
X18684330Y-32848571D01*
X18531949Y-32848571D01*
X18460520Y-32886666D01*
X18431949Y-32962857D01*
X18441473Y-33039047D01*
X18831949Y-33115238D01*
X17531949Y-33381904D02*
X17431949Y-32581904D01*
X17074806Y-33381904D02*
X17360520Y-32924761D01*
X16974806Y-32581904D02*
X17489092Y-33039047D01*
X16617663Y-33381904D02*
X16689092Y-33343809D01*
X16722425Y-33305714D01*
X16750997Y-33229523D01*
X16722425Y-33000952D01*
X16674806Y-32924761D01*
X16631949Y-32886666D01*
X16550997Y-32848571D01*
X16436711Y-32848571D01*
X16365282Y-32886666D01*
X16331949Y-32924761D01*
X16303377Y-33000952D01*
X16331949Y-33229523D01*
X16379568Y-33305714D01*
X16422425Y-33343809D01*
X16503377Y-33381904D01*
X16617663Y-33381904D01*
X16008139Y-33381904D02*
X15941473Y-32848571D01*
X15960520Y-33000952D02*
X15912901Y-32924761D01*
X15870044Y-32886666D01*
X15789092Y-32848571D01*
X15712901Y-32848571D01*
X15103377Y-32848571D02*
X15184330Y-33496190D01*
X15231949Y-33572380D01*
X15274806Y-33610476D01*
X15355758Y-33648571D01*
X15470044Y-33648571D01*
X15541473Y-33610476D01*
X15165282Y-33343809D02*
X15246235Y-33381904D01*
X15398616Y-33381904D01*
X15470044Y-33343809D01*
X15503377Y-33305714D01*
X15531949Y-33229523D01*
X15503377Y-33000952D01*
X15455758Y-32924761D01*
X15412901Y-32886666D01*
X15331949Y-32848571D01*
X15179568Y-32848571D01*
X15108139Y-32886666D01*
X14179568Y-33381904D02*
X14079568Y-32581904D01*
X13884330Y-33153333D01*
X13546235Y-32581904D01*
X13646235Y-33381904D01*
X13150997Y-33381904D02*
X13222425Y-33343809D01*
X13255758Y-33305714D01*
X13284330Y-33229523D01*
X13255758Y-33000952D01*
X13208139Y-32924761D01*
X13165282Y-32886666D01*
X13084330Y-32848571D01*
X12970044Y-32848571D01*
X12898616Y-32886666D01*
X12865282Y-32924761D01*
X12836711Y-33000952D01*
X12865282Y-33229523D01*
X12912901Y-33305714D01*
X12955758Y-33343809D01*
X13036711Y-33381904D01*
X13150997Y-33381904D01*
X12474806Y-32848571D02*
X12541473Y-33381904D01*
X12484330Y-32924761D02*
X12441473Y-32886666D01*
X12360520Y-32848571D01*
X12246235Y-32848571D01*
X12174806Y-32886666D01*
X12146235Y-32962857D01*
X12198616Y-33381904D01*
X11703377Y-33381904D02*
X11774806Y-33343809D01*
X11808139Y-33305714D01*
X11836711Y-33229523D01*
X11808139Y-33000952D01*
X11760520Y-32924761D01*
X11717663Y-32886666D01*
X11636711Y-32848571D01*
X11522425Y-32848571D01*
X11450997Y-32886666D01*
X11417663Y-32924761D01*
X11389092Y-33000952D01*
X11417663Y-33229523D01*
X11465282Y-33305714D01*
X11508139Y-33343809D01*
X11589092Y-33381904D01*
X11703377Y-33381904D01*
X11141473Y-32848571D02*
X10836711Y-32848571D01*
X10993854Y-32581904D02*
X11079568Y-33267619D01*
X11050997Y-33343809D01*
X10979568Y-33381904D01*
X10903377Y-33381904D01*
X10636711Y-33381904D02*
X10570044Y-32848571D01*
X10589092Y-33000952D02*
X10541473Y-32924761D01*
X10498616Y-32886666D01*
X10417663Y-32848571D01*
X10341473Y-32848571D01*
X10141473Y-33381904D02*
X10074806Y-32848571D01*
X10041473Y-32581904D02*
X10084330Y-32620000D01*
X10050997Y-32658095D01*
X10008139Y-32620000D01*
X10041473Y-32581904D01*
X10050997Y-32658095D01*
X9760520Y-33381904D02*
X9660520Y-32581904D01*
X9698616Y-32886666D02*
X9617663Y-32848571D01*
X9465282Y-32848571D01*
X9393854Y-32886666D01*
X9360520Y-32924761D01*
X9331949Y-33000952D01*
X9360520Y-33229523D01*
X9408139Y-33305714D01*
X9450997Y-33343809D01*
X9531949Y-33381904D01*
X9684330Y-33381904D01*
X9755758Y-33343809D01*
X8727187Y-33343809D02*
X8808139Y-33381904D01*
X8960520Y-33381904D01*
X9031949Y-33343809D01*
X9060520Y-33267619D01*
X9022425Y-32962857D01*
X8974806Y-32886666D01*
X8893854Y-32848571D01*
X8741473Y-32848571D01*
X8670044Y-32886666D01*
X8641473Y-32962857D01*
X8650997Y-33039047D01*
X9041473Y-33115238D01*
X7741473Y-33381904D02*
X7641473Y-32581904D01*
X7450997Y-32581904D01*
X7341473Y-32620000D01*
X7274806Y-32696190D01*
X7246235Y-32772380D01*
X7227187Y-32924761D01*
X7241473Y-33039047D01*
X7298616Y-33191428D01*
X7346235Y-33267619D01*
X7431949Y-33343809D01*
X7550997Y-33381904D01*
X7741473Y-33381904D01*
X6941473Y-33381904D02*
X6874806Y-32848571D01*
X6893854Y-33000952D02*
X6846235Y-32924761D01*
X6803377Y-32886666D01*
X6722425Y-32848571D01*
X6646235Y-32848571D01*
X6036711Y-32848571D02*
X6103377Y-33381904D01*
X6379568Y-32848571D02*
X6431949Y-33267619D01*
X6403377Y-33343809D01*
X6331949Y-33381904D01*
X6217663Y-33381904D01*
X6136711Y-33343809D01*
X6093854Y-33305714D01*
X5722425Y-33381904D02*
X5655758Y-32848571D01*
X5665282Y-32924761D02*
X5622425Y-32886666D01*
X5541473Y-32848571D01*
X5427187Y-32848571D01*
X5355758Y-32886666D01*
X5327187Y-32962857D01*
X5379568Y-33381904D01*
X5327187Y-32962857D02*
X5279568Y-32886666D01*
X5198616Y-32848571D01*
X5084330Y-32848571D01*
X5012901Y-32886666D01*
X4984330Y-32962857D01*
X5036711Y-33381904D01*
X4689092Y-33343809D02*
X4617663Y-33381904D01*
X4465282Y-33381904D01*
X4384330Y-33343809D01*
X4336711Y-33267619D01*
X4331949Y-33229523D01*
X4360520Y-33153333D01*
X4431949Y-33115238D01*
X4546235Y-33115238D01*
X4617663Y-33077142D01*
X4646235Y-33000952D01*
X4641473Y-32962857D01*
X4593854Y-32886666D01*
X4512901Y-32848571D01*
X4398616Y-32848571D01*
X4327187Y-32886666D01*
D11*
X13670000Y-24446666D02*
X13670000Y-23746666D01*
X13370000Y-24446666D02*
X13370000Y-24080000D01*
X13403333Y-24013333D01*
X13470000Y-23980000D01*
X13570000Y-23980000D01*
X13636666Y-24013333D01*
X13670000Y-24046666D01*
X13136666Y-23980000D02*
X12870000Y-23980000D01*
X13036666Y-23746666D02*
X13036666Y-24346666D01*
X13003333Y-24413333D01*
X12936666Y-24446666D01*
X12870000Y-24446666D01*
X12736666Y-23980000D02*
X12470000Y-23980000D01*
X12636666Y-23746666D02*
X12636666Y-24346666D01*
X12603333Y-24413333D01*
X12536666Y-24446666D01*
X12470000Y-24446666D01*
X12236666Y-23980000D02*
X12236666Y-24680000D01*
X12236666Y-24013333D02*
X12170000Y-23980000D01*
X12036666Y-23980000D01*
X11970000Y-24013333D01*
X11936666Y-24046666D01*
X11903333Y-24113333D01*
X11903333Y-24313333D01*
X11936666Y-24380000D01*
X11970000Y-24413333D01*
X12036666Y-24446666D01*
X12170000Y-24446666D01*
X12236666Y-24413333D01*
X11636666Y-24413333D02*
X11570000Y-24446666D01*
X11436666Y-24446666D01*
X11370000Y-24413333D01*
X11336666Y-24346666D01*
X11336666Y-24313333D01*
X11370000Y-24246666D01*
X11436666Y-24213333D01*
X11536666Y-24213333D01*
X11603333Y-24180000D01*
X11636666Y-24113333D01*
X11636666Y-24080000D01*
X11603333Y-24013333D01*
X11536666Y-23980000D01*
X11436666Y-23980000D01*
X11370000Y-24013333D01*
X11036666Y-24380000D02*
X11003333Y-24413333D01*
X11036666Y-24446666D01*
X11070000Y-24413333D01*
X11036666Y-24380000D01*
X11036666Y-24446666D01*
X11036666Y-24013333D02*
X11003333Y-24046666D01*
X11036666Y-24080000D01*
X11070000Y-24046666D01*
X11036666Y-24013333D01*
X11036666Y-24080000D01*
X10203333Y-23713333D02*
X10803333Y-24613333D01*
X9469999Y-23713333D02*
X10070000Y-24613333D01*
X9236666Y-24446666D02*
X9236666Y-23746666D01*
X9236666Y-24013333D02*
X9170000Y-23980000D01*
X9036666Y-23980000D01*
X8970000Y-24013333D01*
X8936666Y-24046666D01*
X8903333Y-24113333D01*
X8903333Y-24313333D01*
X8936666Y-24380000D01*
X8970000Y-24413333D01*
X9036666Y-24446666D01*
X9170000Y-24446666D01*
X9236666Y-24413333D01*
X8603333Y-24446666D02*
X8603333Y-23980000D01*
X8603333Y-23746666D02*
X8636666Y-23780000D01*
X8603333Y-23813333D01*
X8570000Y-23780000D01*
X8603333Y-23746666D01*
X8603333Y-23813333D01*
X8369999Y-23980000D02*
X8103333Y-23980000D01*
X8269999Y-23746666D02*
X8269999Y-24346666D01*
X8236666Y-24413333D01*
X8169999Y-24446666D01*
X8103333Y-24446666D01*
X7869999Y-24380000D02*
X7836666Y-24413333D01*
X7869999Y-24446666D01*
X7903333Y-24413333D01*
X7869999Y-24380000D01*
X7869999Y-24446666D01*
X7436666Y-24446666D02*
X7503333Y-24413333D01*
X7536666Y-24346666D01*
X7536666Y-23746666D01*
X7236666Y-23980000D02*
X7069999Y-24446666D01*
X6903333Y-23980000D02*
X7069999Y-24446666D01*
X7136666Y-24613333D01*
X7169999Y-24646666D01*
X7236666Y-24680000D01*
X6136666Y-23713333D02*
X6736666Y-24613333D01*
X5936666Y-23813333D02*
X5903333Y-23780000D01*
X5836666Y-23746666D01*
X5670000Y-23746666D01*
X5603333Y-23780000D01*
X5570000Y-23813333D01*
X5536666Y-23880000D01*
X5536666Y-23946666D01*
X5570000Y-24046666D01*
X5970000Y-24446666D01*
X5536666Y-24446666D01*
X5103333Y-23746666D02*
X4970000Y-23746666D01*
X4903333Y-23780000D01*
X4836666Y-23846666D01*
X4803333Y-23980000D01*
X4803333Y-24213333D01*
X4836666Y-24346666D01*
X4903333Y-24413333D01*
X4970000Y-24446666D01*
X5103333Y-24446666D01*
X5170000Y-24413333D01*
X5236666Y-24346666D01*
X5270000Y-24213333D01*
X5270000Y-23980000D01*
X5236666Y-23846666D01*
X5170000Y-23780000D01*
X5103333Y-23746666D01*
X4103333Y-24380000D02*
X4136666Y-24413333D01*
X4236666Y-24446666D01*
X4303333Y-24446666D01*
X4403333Y-24413333D01*
X4470000Y-24346666D01*
X4503333Y-24280000D01*
X4536666Y-24146666D01*
X4536666Y-24046666D01*
X4503333Y-23913333D01*
X4470000Y-23846666D01*
X4403333Y-23780000D01*
X4303333Y-23746666D01*
X4236666Y-23746666D01*
X4136666Y-23780000D01*
X4103333Y-23813333D01*
X3870000Y-24446666D02*
X3503333Y-23980000D01*
X3870000Y-23980000D02*
X3503333Y-24446666D01*
X3303333Y-23746666D02*
X2836666Y-23746666D01*
X3136666Y-24446666D01*
X2270000Y-23980000D02*
X2270000Y-24546666D01*
X2303333Y-24613333D01*
X2336666Y-24646666D01*
X2403333Y-24680000D01*
X2503333Y-24680000D01*
X2570000Y-24646666D01*
X2270000Y-24413333D02*
X2336666Y-24446666D01*
X2470000Y-24446666D01*
X2536666Y-24413333D01*
X2570000Y-24380000D01*
X2603333Y-24313333D01*
X2603333Y-24113333D01*
X2570000Y-24046666D01*
X2536666Y-24013333D01*
X2470000Y-23980000D01*
X2336666Y-23980000D01*
X2270000Y-24013333D01*
X1536666Y-24380000D02*
X1570000Y-24413333D01*
X1670000Y-24446666D01*
X1736666Y-24446666D01*
X1836666Y-24413333D01*
X1903333Y-24346666D01*
X1936666Y-24280000D01*
X1970000Y-24146666D01*
X1970000Y-24046666D01*
X1936666Y-23913333D01*
X1903333Y-23846666D01*
X1836666Y-23780000D01*
X1736666Y-23746666D01*
X1670000Y-23746666D01*
X1570000Y-23780000D01*
X1536666Y-23813333D01*
D12*
X14048571Y-19947142D02*
X12334285Y-19947142D01*
X13191428Y-22947142D02*
X13191428Y-19947142D01*
X11334285Y-22947142D02*
X11334285Y-20947142D01*
X11334285Y-21518571D02*
X11191428Y-21232857D01*
X11048571Y-21090000D01*
X10762857Y-20947142D01*
X10477142Y-20947142D01*
X9477142Y-22947142D02*
X9477142Y-20947142D01*
X9477142Y-19947142D02*
X9620000Y-20090000D01*
X9477142Y-20232857D01*
X9334285Y-20090000D01*
X9477142Y-19947142D01*
X9477142Y-20232857D01*
X8048571Y-22947142D02*
X8048571Y-19947142D01*
X8048571Y-21090000D02*
X7762857Y-20947142D01*
X7191428Y-20947142D01*
X6905714Y-21090000D01*
X6762857Y-21232857D01*
X6620000Y-21518571D01*
X6620000Y-22375714D01*
X6762857Y-22661428D01*
X6905714Y-22804285D01*
X7191428Y-22947142D01*
X7762857Y-22947142D01*
X8048571Y-22804285D01*
X4048571Y-20947142D02*
X4048571Y-22947142D01*
X5334285Y-20947142D02*
X5334285Y-22518571D01*
X5191428Y-22804285D01*
X4905714Y-22947142D01*
X4477142Y-22947142D01*
X4191428Y-22804285D01*
X4048571Y-22661428D01*
X2762857Y-22804285D02*
X2477142Y-22947142D01*
X1905714Y-22947142D01*
X1620000Y-22804285D01*
X1477142Y-22518571D01*
X1477142Y-22375714D01*
X1620000Y-22090000D01*
X1905714Y-21947142D01*
X2334285Y-21947142D01*
X2620000Y-21804285D01*
X2762857Y-21518571D01*
X2762857Y-21375714D01*
X2620000Y-21090000D01*
X2334285Y-20947142D01*
X1905714Y-20947142D01*
X1620000Y-21090000D01*
D10*
X11423571Y-4188571D02*
X11423571Y-4760000D01*
X11709285Y-5510000D02*
X11709285Y-5081428D01*
X11709285Y-5295714D02*
X10959285Y-5295714D01*
X11066428Y-5224285D01*
X11137857Y-5152857D01*
X11173571Y-5081428D01*
X11030714Y-5795714D02*
X10995000Y-5831428D01*
X10959285Y-5902857D01*
X10959285Y-6081428D01*
X10995000Y-6152857D01*
X11030714Y-6188571D01*
X11102142Y-6224285D01*
X11173571Y-6224285D01*
X11280714Y-6188571D01*
X11709285Y-5760000D01*
X11709285Y-6224285D01*
X10959285Y-6438571D02*
X11709285Y-6688571D01*
X10959285Y-6938571D01*
D13*
X12070000Y-1810000D02*
X12470000Y-1810000D01*
X12070000Y-6910000D02*
X12070000Y-1810000D01*
X12470000Y-6910000D02*
X12070000Y-6910000D01*
X12470000Y-1810000D02*
X12470000Y-6910000D01*
D10*
X19281428Y-8162857D02*
X19281428Y-6962857D01*
X18824285Y-6962857D01*
X18710000Y-7020000D01*
X18652857Y-7077142D01*
X18595714Y-7191428D01*
X18595714Y-7362857D01*
X18652857Y-7477142D01*
X18710000Y-7534285D01*
X18824285Y-7591428D01*
X19281428Y-7591428D01*
X17852857Y-6962857D02*
X17624285Y-6962857D01*
X17510000Y-7020000D01*
X17395714Y-7134285D01*
X17338571Y-7362857D01*
X17338571Y-7762857D01*
X17395714Y-7991428D01*
X17510000Y-8105714D01*
X17624285Y-8162857D01*
X17852857Y-8162857D01*
X17967142Y-8105714D01*
X18081428Y-7991428D01*
X18138571Y-7762857D01*
X18138571Y-7362857D01*
X18081428Y-7134285D01*
X17967142Y-7020000D01*
X17852857Y-6962857D01*
X16938571Y-6962857D02*
X16652857Y-8162857D01*
X16424285Y-7305714D01*
X16195714Y-8162857D01*
X15910000Y-6962857D01*
X15452857Y-7534285D02*
X15052857Y-7534285D01*
X14881428Y-8162857D02*
X15452857Y-8162857D01*
X15452857Y-6962857D01*
X14881428Y-6962857D01*
X13681428Y-8162857D02*
X14081428Y-7591428D01*
X14367142Y-8162857D02*
X14367142Y-6962857D01*
X13910000Y-6962857D01*
X13795714Y-7020000D01*
X13738571Y-7077142D01*
X13681428Y-7191428D01*
X13681428Y-7362857D01*
X13738571Y-7477142D01*
X13795714Y-7534285D01*
X13910000Y-7591428D01*
X14367142Y-7591428D01*
X28685714Y-67917142D02*
X28471428Y-67988571D01*
X28114285Y-67988571D01*
X27971428Y-67917142D01*
X27900000Y-67845714D01*
X27828571Y-67702857D01*
X27828571Y-67560000D01*
X27900000Y-67417142D01*
X27971428Y-67345714D01*
X28114285Y-67274285D01*
X28400000Y-67202857D01*
X28542857Y-67131428D01*
X28614285Y-67060000D01*
X28685714Y-66917142D01*
X28685714Y-66774285D01*
X28614285Y-66631428D01*
X28542857Y-66560000D01*
X28400000Y-66488571D01*
X28042857Y-66488571D01*
X27828571Y-66560000D01*
X27185714Y-67988571D02*
X27185714Y-66488571D01*
X26328571Y-67988571D01*
X26328571Y-66488571D01*
X25685714Y-67560000D02*
X24971428Y-67560000D01*
X25828571Y-67988571D02*
X25328571Y-66488571D01*
X24828571Y-67988571D01*
X23471428Y-67988571D02*
X23971428Y-67274285D01*
X24328571Y-67988571D02*
X24328571Y-66488571D01*
X23757142Y-66488571D01*
X23614285Y-66560000D01*
X23542857Y-66631428D01*
X23471428Y-66774285D01*
X23471428Y-66988571D01*
X23542857Y-67131428D01*
X23614285Y-67202857D01*
X23757142Y-67274285D01*
X24328571Y-67274285D01*
X22828571Y-67202857D02*
X22328571Y-67202857D01*
X22114285Y-67988571D02*
X22828571Y-67988571D01*
X22828571Y-66488571D01*
X22114285Y-66488571D01*
X28364285Y-37508571D02*
X28364285Y-36008571D01*
X27507142Y-37508571D01*
X27507142Y-36008571D01*
X26507142Y-36008571D02*
X26221428Y-36008571D01*
X26078571Y-36080000D01*
X25935714Y-36222857D01*
X25864285Y-36508571D01*
X25864285Y-37008571D01*
X25935714Y-37294285D01*
X26078571Y-37437142D01*
X26221428Y-37508571D01*
X26507142Y-37508571D01*
X26650000Y-37437142D01*
X26792857Y-37294285D01*
X26864285Y-37008571D01*
X26864285Y-36508571D01*
X26792857Y-36222857D01*
X26650000Y-36080000D01*
X26507142Y-36008571D01*
X25221428Y-37508571D02*
X25221428Y-36008571D01*
X24578571Y-37437142D02*
X24364285Y-37508571D01*
X24007142Y-37508571D01*
X23864285Y-37437142D01*
X23792857Y-37365714D01*
X23721428Y-37222857D01*
X23721428Y-37080000D01*
X23792857Y-36937142D01*
X23864285Y-36865714D01*
X24007142Y-36794285D01*
X24292857Y-36722857D01*
X24435714Y-36651428D01*
X24507142Y-36580000D01*
X24578571Y-36437142D01*
X24578571Y-36294285D01*
X24507142Y-36151428D01*
X24435714Y-36080000D01*
X24292857Y-36008571D01*
X23935714Y-36008571D01*
X23721428Y-36080000D01*
X23078571Y-36722857D02*
X22578571Y-36722857D01*
X22364285Y-37508571D02*
X23078571Y-37508571D01*
X23078571Y-36008571D01*
X22364285Y-36008571D01*
D14*
%TO.C,OSHWLOGO*%
G36*
X4976090Y-98842348D02*
G01*
X4897546Y-98842778D01*
X4840702Y-98843942D01*
X4801895Y-98846207D01*
X4777462Y-98849940D01*
X4763738Y-98855506D01*
X4757060Y-98863273D01*
X4753764Y-98873605D01*
X4753444Y-98874943D01*
X4748438Y-98899079D01*
X4739171Y-98946701D01*
X4726608Y-99012741D01*
X4711713Y-99092128D01*
X4695449Y-99179796D01*
X4694881Y-99182875D01*
X4678590Y-99268789D01*
X4663348Y-99344696D01*
X4650139Y-99406045D01*
X4639946Y-99448282D01*
X4633752Y-99466855D01*
X4633457Y-99467184D01*
X4615212Y-99476253D01*
X4577595Y-99491367D01*
X4528729Y-99509262D01*
X4528457Y-99509358D01*
X4466907Y-99532493D01*
X4394343Y-99561965D01*
X4325943Y-99591597D01*
X4322706Y-99593062D01*
X4211298Y-99643626D01*
X3964601Y-99475160D01*
X3888923Y-99423803D01*
X3820369Y-99377889D01*
X3762912Y-99340030D01*
X3720524Y-99312837D01*
X3697175Y-99298921D01*
X3694958Y-99297889D01*
X3677990Y-99302484D01*
X3646299Y-99324655D01*
X3598648Y-99365447D01*
X3533802Y-99425905D01*
X3467603Y-99490227D01*
X3403786Y-99553612D01*
X3346671Y-99611451D01*
X3299695Y-99660175D01*
X3266297Y-99696210D01*
X3249915Y-99715984D01*
X3249306Y-99717002D01*
X3247495Y-99730572D01*
X3254317Y-99752733D01*
X3271460Y-99786478D01*
X3300607Y-99834800D01*
X3343445Y-99900692D01*
X3400552Y-99985517D01*
X3451234Y-100060177D01*
X3496539Y-100127140D01*
X3533850Y-100182516D01*
X3560548Y-100222420D01*
X3574015Y-100242962D01*
X3574863Y-100244356D01*
X3573219Y-100264038D01*
X3560755Y-100302293D01*
X3539952Y-100351889D01*
X3532538Y-100367728D01*
X3500186Y-100438290D01*
X3465672Y-100518353D01*
X3437635Y-100587629D01*
X3417432Y-100639045D01*
X3401385Y-100678119D01*
X3392112Y-100698541D01*
X3390959Y-100700114D01*
X3373904Y-100702721D01*
X3333702Y-100709863D01*
X3275698Y-100720523D01*
X3205237Y-100733685D01*
X3127665Y-100748333D01*
X3048328Y-100763449D01*
X2972569Y-100778018D01*
X2905736Y-100791022D01*
X2853172Y-100801445D01*
X2820224Y-100808270D01*
X2812143Y-100810199D01*
X2803795Y-100814962D01*
X2797494Y-100825718D01*
X2792955Y-100846098D01*
X2789896Y-100879734D01*
X2788033Y-100930255D01*
X2787082Y-101001292D01*
X2786760Y-101096476D01*
X2786743Y-101135492D01*
X2786743Y-101452799D01*
X2862943Y-101467839D01*
X2905337Y-101475995D01*
X2968600Y-101487899D01*
X3045038Y-101502116D01*
X3126957Y-101517210D01*
X3149600Y-101521355D01*
X3225194Y-101536053D01*
X3291047Y-101550505D01*
X3341634Y-101563375D01*
X3371426Y-101573322D01*
X3376388Y-101576287D01*
X3388574Y-101597283D01*
X3406047Y-101637967D01*
X3425423Y-101690322D01*
X3429266Y-101701600D01*
X3454661Y-101771523D01*
X3486183Y-101850418D01*
X3517031Y-101921266D01*
X3517183Y-101921595D01*
X3568553Y-102032733D01*
X3399601Y-102281253D01*
X3230648Y-102529772D01*
X3447571Y-102747058D01*
X3513181Y-102811726D01*
X3573021Y-102868733D01*
X3623733Y-102915033D01*
X3661954Y-102947584D01*
X3684325Y-102963343D01*
X3687534Y-102964343D01*
X3706374Y-102956469D01*
X3744820Y-102934578D01*
X3798670Y-102901267D01*
X3863724Y-102859131D01*
X3934060Y-102811943D01*
X4005445Y-102763810D01*
X4069092Y-102721928D01*
X4120959Y-102688871D01*
X4157005Y-102667218D01*
X4173133Y-102659543D01*
X4192811Y-102666037D01*
X4230125Y-102683150D01*
X4277379Y-102707326D01*
X4282388Y-102710013D01*
X4346023Y-102741927D01*
X4389659Y-102757579D01*
X4416798Y-102757745D01*
X4430943Y-102743204D01*
X4431025Y-102743000D01*
X4438095Y-102725779D01*
X4454958Y-102684899D01*
X4480305Y-102623525D01*
X4512829Y-102544819D01*
X4551222Y-102451947D01*
X4594178Y-102348072D01*
X4635778Y-102247502D01*
X4681496Y-102136516D01*
X4723474Y-102033703D01*
X4760452Y-101942215D01*
X4791173Y-101865201D01*
X4814378Y-101805815D01*
X4828810Y-101767209D01*
X4833257Y-101752800D01*
X4822104Y-101736272D01*
X4792931Y-101709930D01*
X4754029Y-101680887D01*
X4643243Y-101589039D01*
X4556649Y-101483759D01*
X4495284Y-101367266D01*
X4460185Y-101241776D01*
X4452392Y-101109507D01*
X4458057Y-101048457D01*
X4488922Y-100921795D01*
X4542080Y-100809941D01*
X4614233Y-100714001D01*
X4702083Y-100635076D01*
X4802335Y-100574270D01*
X4911690Y-100532687D01*
X5026853Y-100511428D01*
X5144525Y-100511599D01*
X5261410Y-100534301D01*
X5374211Y-100580638D01*
X5479631Y-100651713D01*
X5523632Y-100691911D01*
X5608021Y-100795129D01*
X5666778Y-100907925D01*
X5700296Y-101027010D01*
X5708965Y-101149095D01*
X5693177Y-101270893D01*
X5653322Y-101389116D01*
X5589793Y-101500475D01*
X5502979Y-101601684D01*
X5405971Y-101680887D01*
X5365563Y-101711162D01*
X5337018Y-101737219D01*
X5326743Y-101752825D01*
X5332123Y-101769843D01*
X5347425Y-101810500D01*
X5371388Y-101871642D01*
X5402756Y-101950119D01*
X5440268Y-102042780D01*
X5482667Y-102146472D01*
X5524337Y-102247526D01*
X5570310Y-102358607D01*
X5612893Y-102461541D01*
X5650779Y-102553165D01*
X5682660Y-102630316D01*
X5707229Y-102689831D01*
X5723180Y-102728544D01*
X5729090Y-102743000D01*
X5743052Y-102757685D01*
X5770060Y-102757642D01*
X5813587Y-102742099D01*
X5877110Y-102710284D01*
X5877612Y-102710013D01*
X5925440Y-102685323D01*
X5964103Y-102667338D01*
X5985905Y-102659614D01*
X5986867Y-102659543D01*
X6003279Y-102667378D01*
X6039513Y-102689165D01*
X6091526Y-102722328D01*
X6155275Y-102764291D01*
X6225940Y-102811943D01*
X6297884Y-102860191D01*
X6362726Y-102902151D01*
X6416265Y-102935227D01*
X6454303Y-102956821D01*
X6472467Y-102964343D01*
X6489192Y-102954457D01*
X6522820Y-102926826D01*
X6569990Y-102884495D01*
X6627342Y-102830505D01*
X6691516Y-102767899D01*
X6712503Y-102746983D01*
X6929501Y-102529623D01*
X6764332Y-102287220D01*
X6714136Y-102212781D01*
X6670081Y-102145972D01*
X6634638Y-102090665D01*
X6610281Y-102050729D01*
X6599478Y-102030036D01*
X6599162Y-102028563D01*
X6604857Y-102009058D01*
X6620174Y-101969822D01*
X6642463Y-101917430D01*
X6658107Y-101882355D01*
X6687359Y-101815201D01*
X6714906Y-101747358D01*
X6736263Y-101690034D01*
X6742065Y-101672572D01*
X6758548Y-101625938D01*
X6774660Y-101589905D01*
X6783510Y-101576287D01*
X6803040Y-101567952D01*
X6845666Y-101556137D01*
X6905855Y-101542181D01*
X6978078Y-101527422D01*
X7010400Y-101521355D01*
X7092478Y-101506273D01*
X7171205Y-101491669D01*
X7238891Y-101478980D01*
X7287840Y-101469642D01*
X7297057Y-101467839D01*
X7373257Y-101452799D01*
X7373257Y-101135492D01*
X7373086Y-101031154D01*
X7372384Y-100952213D01*
X7370866Y-100895038D01*
X7368251Y-100855999D01*
X7364254Y-100831465D01*
X7358591Y-100817805D01*
X7350980Y-100811389D01*
X7347857Y-100810199D01*
X7329022Y-100805980D01*
X7287412Y-100797562D01*
X7228370Y-100785961D01*
X7157243Y-100772195D01*
X7079375Y-100757280D01*
X7000113Y-100742232D01*
X6924802Y-100728069D01*
X6858787Y-100715806D01*
X6807413Y-100706461D01*
X6776025Y-100701050D01*
X6769041Y-100700114D01*
X6762715Y-100687596D01*
X6748710Y-100654246D01*
X6729645Y-100606377D01*
X6722366Y-100587629D01*
X6693004Y-100515195D01*
X6658429Y-100435170D01*
X6627463Y-100367728D01*
X6604677Y-100316159D01*
X6589518Y-100273785D01*
X6584458Y-100247834D01*
X6585264Y-100244356D01*
X6595959Y-100227936D01*
X6620380Y-100191417D01*
X6655905Y-100138687D01*
X6699913Y-100073635D01*
X6749783Y-100000151D01*
X6759644Y-99985645D01*
X6817508Y-99899704D01*
X6860044Y-99834261D01*
X6888946Y-99786304D01*
X6905910Y-99752820D01*
X6912633Y-99730795D01*
X6910810Y-99717217D01*
X6910764Y-99717131D01*
X6896414Y-99699297D01*
X6864677Y-99664817D01*
X6818990Y-99617268D01*
X6762796Y-99560222D01*
X6699532Y-99497255D01*
X6692398Y-99490227D01*
X6612670Y-99413020D01*
X6551143Y-99356330D01*
X6506579Y-99319110D01*
X6477743Y-99300315D01*
X6465042Y-99297889D01*
X6446506Y-99308471D01*
X6408039Y-99332916D01*
X6353614Y-99368612D01*
X6287202Y-99412947D01*
X6212775Y-99463311D01*
X6195399Y-99475160D01*
X5948703Y-99643626D01*
X5837294Y-99593062D01*
X5769543Y-99563595D01*
X5696817Y-99533959D01*
X5634297Y-99510330D01*
X5631543Y-99509358D01*
X5582640Y-99491457D01*
X5544943Y-99476320D01*
X5526575Y-99467210D01*
X5526544Y-99467184D01*
X5520715Y-99450717D01*
X5510808Y-99410219D01*
X5497805Y-99350242D01*
X5482691Y-99275340D01*
X5466448Y-99190064D01*
X5465119Y-99182875D01*
X5448825Y-99095014D01*
X5433867Y-99015260D01*
X5421209Y-98948681D01*
X5411814Y-98900347D01*
X5406646Y-98875325D01*
X5406556Y-98874943D01*
X5403411Y-98864299D01*
X5397296Y-98856262D01*
X5384547Y-98850467D01*
X5361500Y-98846547D01*
X5324491Y-98844135D01*
X5269856Y-98842865D01*
X5193933Y-98842371D01*
X5093056Y-98842286D01*
X5080000Y-98842286D01*
X4976090Y-98842348D01*
G37*
X4976090Y-98842348D02*
X4897546Y-98842778D01*
X4840702Y-98843942D01*
X4801895Y-98846207D01*
X4777462Y-98849940D01*
X4763738Y-98855506D01*
X4757060Y-98863273D01*
X4753764Y-98873605D01*
X4753444Y-98874943D01*
X4748438Y-98899079D01*
X4739171Y-98946701D01*
X4726608Y-99012741D01*
X4711713Y-99092128D01*
X4695449Y-99179796D01*
X4694881Y-99182875D01*
X4678590Y-99268789D01*
X4663348Y-99344696D01*
X4650139Y-99406045D01*
X4639946Y-99448282D01*
X4633752Y-99466855D01*
X4633457Y-99467184D01*
X4615212Y-99476253D01*
X4577595Y-99491367D01*
X4528729Y-99509262D01*
X4528457Y-99509358D01*
X4466907Y-99532493D01*
X4394343Y-99561965D01*
X4325943Y-99591597D01*
X4322706Y-99593062D01*
X4211298Y-99643626D01*
X3964601Y-99475160D01*
X3888923Y-99423803D01*
X3820369Y-99377889D01*
X3762912Y-99340030D01*
X3720524Y-99312837D01*
X3697175Y-99298921D01*
X3694958Y-99297889D01*
X3677990Y-99302484D01*
X3646299Y-99324655D01*
X3598648Y-99365447D01*
X3533802Y-99425905D01*
X3467603Y-99490227D01*
X3403786Y-99553612D01*
X3346671Y-99611451D01*
X3299695Y-99660175D01*
X3266297Y-99696210D01*
X3249915Y-99715984D01*
X3249306Y-99717002D01*
X3247495Y-99730572D01*
X3254317Y-99752733D01*
X3271460Y-99786478D01*
X3300607Y-99834800D01*
X3343445Y-99900692D01*
X3400552Y-99985517D01*
X3451234Y-100060177D01*
X3496539Y-100127140D01*
X3533850Y-100182516D01*
X3560548Y-100222420D01*
X3574015Y-100242962D01*
X3574863Y-100244356D01*
X3573219Y-100264038D01*
X3560755Y-100302293D01*
X3539952Y-100351889D01*
X3532538Y-100367728D01*
X3500186Y-100438290D01*
X3465672Y-100518353D01*
X3437635Y-100587629D01*
X3417432Y-100639045D01*
X3401385Y-100678119D01*
X3392112Y-100698541D01*
X3390959Y-100700114D01*
X3373904Y-100702721D01*
X3333702Y-100709863D01*
X3275698Y-100720523D01*
X3205237Y-100733685D01*
X3127665Y-100748333D01*
X3048328Y-100763449D01*
X2972569Y-100778018D01*
X2905736Y-100791022D01*
X2853172Y-100801445D01*
X2820224Y-100808270D01*
X2812143Y-100810199D01*
X2803795Y-100814962D01*
X2797494Y-100825718D01*
X2792955Y-100846098D01*
X2789896Y-100879734D01*
X2788033Y-100930255D01*
X2787082Y-101001292D01*
X2786760Y-101096476D01*
X2786743Y-101135492D01*
X2786743Y-101452799D01*
X2862943Y-101467839D01*
X2905337Y-101475995D01*
X2968600Y-101487899D01*
X3045038Y-101502116D01*
X3126957Y-101517210D01*
X3149600Y-101521355D01*
X3225194Y-101536053D01*
X3291047Y-101550505D01*
X3341634Y-101563375D01*
X3371426Y-101573322D01*
X3376388Y-101576287D01*
X3388574Y-101597283D01*
X3406047Y-101637967D01*
X3425423Y-101690322D01*
X3429266Y-101701600D01*
X3454661Y-101771523D01*
X3486183Y-101850418D01*
X3517031Y-101921266D01*
X3517183Y-101921595D01*
X3568553Y-102032733D01*
X3399601Y-102281253D01*
X3230648Y-102529772D01*
X3447571Y-102747058D01*
X3513181Y-102811726D01*
X3573021Y-102868733D01*
X3623733Y-102915033D01*
X3661954Y-102947584D01*
X3684325Y-102963343D01*
X3687534Y-102964343D01*
X3706374Y-102956469D01*
X3744820Y-102934578D01*
X3798670Y-102901267D01*
X3863724Y-102859131D01*
X3934060Y-102811943D01*
X4005445Y-102763810D01*
X4069092Y-102721928D01*
X4120959Y-102688871D01*
X4157005Y-102667218D01*
X4173133Y-102659543D01*
X4192811Y-102666037D01*
X4230125Y-102683150D01*
X4277379Y-102707326D01*
X4282388Y-102710013D01*
X4346023Y-102741927D01*
X4389659Y-102757579D01*
X4416798Y-102757745D01*
X4430943Y-102743204D01*
X4431025Y-102743000D01*
X4438095Y-102725779D01*
X4454958Y-102684899D01*
X4480305Y-102623525D01*
X4512829Y-102544819D01*
X4551222Y-102451947D01*
X4594178Y-102348072D01*
X4635778Y-102247502D01*
X4681496Y-102136516D01*
X4723474Y-102033703D01*
X4760452Y-101942215D01*
X4791173Y-101865201D01*
X4814378Y-101805815D01*
X4828810Y-101767209D01*
X4833257Y-101752800D01*
X4822104Y-101736272D01*
X4792931Y-101709930D01*
X4754029Y-101680887D01*
X4643243Y-101589039D01*
X4556649Y-101483759D01*
X4495284Y-101367266D01*
X4460185Y-101241776D01*
X4452392Y-101109507D01*
X4458057Y-101048457D01*
X4488922Y-100921795D01*
X4542080Y-100809941D01*
X4614233Y-100714001D01*
X4702083Y-100635076D01*
X4802335Y-100574270D01*
X4911690Y-100532687D01*
X5026853Y-100511428D01*
X5144525Y-100511599D01*
X5261410Y-100534301D01*
X5374211Y-100580638D01*
X5479631Y-100651713D01*
X5523632Y-100691911D01*
X5608021Y-100795129D01*
X5666778Y-100907925D01*
X5700296Y-101027010D01*
X5708965Y-101149095D01*
X5693177Y-101270893D01*
X5653322Y-101389116D01*
X5589793Y-101500475D01*
X5502979Y-101601684D01*
X5405971Y-101680887D01*
X5365563Y-101711162D01*
X5337018Y-101737219D01*
X5326743Y-101752825D01*
X5332123Y-101769843D01*
X5347425Y-101810500D01*
X5371388Y-101871642D01*
X5402756Y-101950119D01*
X5440268Y-102042780D01*
X5482667Y-102146472D01*
X5524337Y-102247526D01*
X5570310Y-102358607D01*
X5612893Y-102461541D01*
X5650779Y-102553165D01*
X5682660Y-102630316D01*
X5707229Y-102689831D01*
X5723180Y-102728544D01*
X5729090Y-102743000D01*
X5743052Y-102757685D01*
X5770060Y-102757642D01*
X5813587Y-102742099D01*
X5877110Y-102710284D01*
X5877612Y-102710013D01*
X5925440Y-102685323D01*
X5964103Y-102667338D01*
X5985905Y-102659614D01*
X5986867Y-102659543D01*
X6003279Y-102667378D01*
X6039513Y-102689165D01*
X6091526Y-102722328D01*
X6155275Y-102764291D01*
X6225940Y-102811943D01*
X6297884Y-102860191D01*
X6362726Y-102902151D01*
X6416265Y-102935227D01*
X6454303Y-102956821D01*
X6472467Y-102964343D01*
X6489192Y-102954457D01*
X6522820Y-102926826D01*
X6569990Y-102884495D01*
X6627342Y-102830505D01*
X6691516Y-102767899D01*
X6712503Y-102746983D01*
X6929501Y-102529623D01*
X6764332Y-102287220D01*
X6714136Y-102212781D01*
X6670081Y-102145972D01*
X6634638Y-102090665D01*
X6610281Y-102050729D01*
X6599478Y-102030036D01*
X6599162Y-102028563D01*
X6604857Y-102009058D01*
X6620174Y-101969822D01*
X6642463Y-101917430D01*
X6658107Y-101882355D01*
X6687359Y-101815201D01*
X6714906Y-101747358D01*
X6736263Y-101690034D01*
X6742065Y-101672572D01*
X6758548Y-101625938D01*
X6774660Y-101589905D01*
X6783510Y-101576287D01*
X6803040Y-101567952D01*
X6845666Y-101556137D01*
X6905855Y-101542181D01*
X6978078Y-101527422D01*
X7010400Y-101521355D01*
X7092478Y-101506273D01*
X7171205Y-101491669D01*
X7238891Y-101478980D01*
X7287840Y-101469642D01*
X7297057Y-101467839D01*
X7373257Y-101452799D01*
X7373257Y-101135492D01*
X7373086Y-101031154D01*
X7372384Y-100952213D01*
X7370866Y-100895038D01*
X7368251Y-100855999D01*
X7364254Y-100831465D01*
X7358591Y-100817805D01*
X7350980Y-100811389D01*
X7347857Y-100810199D01*
X7329022Y-100805980D01*
X7287412Y-100797562D01*
X7228370Y-100785961D01*
X7157243Y-100772195D01*
X7079375Y-100757280D01*
X7000113Y-100742232D01*
X6924802Y-100728069D01*
X6858787Y-100715806D01*
X6807413Y-100706461D01*
X6776025Y-100701050D01*
X6769041Y-100700114D01*
X6762715Y-100687596D01*
X6748710Y-100654246D01*
X6729645Y-100606377D01*
X6722366Y-100587629D01*
X6693004Y-100515195D01*
X6658429Y-100435170D01*
X6627463Y-100367728D01*
X6604677Y-100316159D01*
X6589518Y-100273785D01*
X6584458Y-100247834D01*
X6585264Y-100244356D01*
X6595959Y-100227936D01*
X6620380Y-100191417D01*
X6655905Y-100138687D01*
X6699913Y-100073635D01*
X6749783Y-100000151D01*
X6759644Y-99985645D01*
X6817508Y-99899704D01*
X6860044Y-99834261D01*
X6888946Y-99786304D01*
X6905910Y-99752820D01*
X6912633Y-99730795D01*
X6910810Y-99717217D01*
X6910764Y-99717131D01*
X6896414Y-99699297D01*
X6864677Y-99664817D01*
X6818990Y-99617268D01*
X6762796Y-99560222D01*
X6699532Y-99497255D01*
X6692398Y-99490227D01*
X6612670Y-99413020D01*
X6551143Y-99356330D01*
X6506579Y-99319110D01*
X6477743Y-99300315D01*
X6465042Y-99297889D01*
X6446506Y-99308471D01*
X6408039Y-99332916D01*
X6353614Y-99368612D01*
X6287202Y-99412947D01*
X6212775Y-99463311D01*
X6195399Y-99475160D01*
X5948703Y-99643626D01*
X5837294Y-99593062D01*
X5769543Y-99563595D01*
X5696817Y-99533959D01*
X5634297Y-99510330D01*
X5631543Y-99509358D01*
X5582640Y-99491457D01*
X5544943Y-99476320D01*
X5526575Y-99467210D01*
X5526544Y-99467184D01*
X5520715Y-99450717D01*
X5510808Y-99410219D01*
X5497805Y-99350242D01*
X5482691Y-99275340D01*
X5466448Y-99190064D01*
X5465119Y-99182875D01*
X5448825Y-99095014D01*
X5433867Y-99015260D01*
X5421209Y-98948681D01*
X5411814Y-98900347D01*
X5406646Y-98875325D01*
X5406556Y-98874943D01*
X5403411Y-98864299D01*
X5397296Y-98856262D01*
X5384547Y-98850467D01*
X5361500Y-98846547D01*
X5324491Y-98844135D01*
X5269856Y-98842865D01*
X5193933Y-98842371D01*
X5093056Y-98842286D01*
X5080000Y-98842286D01*
X4976090Y-98842348D01*
G36*
X1926405Y-103566966D02*
G01*
X1868979Y-103604497D01*
X1841281Y-103638096D01*
X1819338Y-103699064D01*
X1817595Y-103747308D01*
X1821543Y-103811816D01*
X1970314Y-103876934D01*
X2042651Y-103910202D01*
X2089916Y-103936964D01*
X2114493Y-103960144D01*
X2118763Y-103982667D01*
X2105111Y-104007455D01*
X2090057Y-104023886D01*
X2046254Y-104050235D01*
X1998611Y-104052081D01*
X1954855Y-104031546D01*
X1922711Y-103990752D01*
X1916962Y-103976347D01*
X1889424Y-103931356D01*
X1857742Y-103912182D01*
X1814286Y-103895779D01*
X1814286Y-103957966D01*
X1818128Y-104000283D01*
X1833177Y-104035969D01*
X1864720Y-104076943D01*
X1869408Y-104082267D01*
X1904494Y-104118720D01*
X1934653Y-104138283D01*
X1972385Y-104147283D01*
X2003665Y-104150230D01*
X2059615Y-104150965D01*
X2099445Y-104141660D01*
X2124292Y-104127846D01*
X2163344Y-104097467D01*
X2190375Y-104064613D01*
X2207483Y-104023294D01*
X2216762Y-103967521D01*
X2220307Y-103891305D01*
X2220590Y-103852622D01*
X2219628Y-103806247D01*
X2131993Y-103806247D01*
X2130977Y-103831126D01*
X2128444Y-103835200D01*
X2111726Y-103829665D01*
X2075751Y-103815017D01*
X2027669Y-103794190D01*
X2017614Y-103789714D01*
X1956848Y-103758814D01*
X1923368Y-103731657D01*
X1916010Y-103706220D01*
X1933609Y-103680481D01*
X1948144Y-103669109D01*
X2000590Y-103646364D01*
X2049678Y-103650122D01*
X2090773Y-103677884D01*
X2119242Y-103727152D01*
X2128369Y-103766257D01*
X2131993Y-103806247D01*
X2219628Y-103806247D01*
X2218715Y-103762249D01*
X2211804Y-103695384D01*
X2198116Y-103646695D01*
X2175904Y-103610849D01*
X2143426Y-103582513D01*
X2129267Y-103573355D01*
X2064947Y-103549507D01*
X1994527Y-103548006D01*
X1926405Y-103566966D01*
G37*
X1926405Y-103566966D02*
X1868979Y-103604497D01*
X1841281Y-103638096D01*
X1819338Y-103699064D01*
X1817595Y-103747308D01*
X1821543Y-103811816D01*
X1970314Y-103876934D01*
X2042651Y-103910202D01*
X2089916Y-103936964D01*
X2114493Y-103960144D01*
X2118763Y-103982667D01*
X2105111Y-104007455D01*
X2090057Y-104023886D01*
X2046254Y-104050235D01*
X1998611Y-104052081D01*
X1954855Y-104031546D01*
X1922711Y-103990752D01*
X1916962Y-103976347D01*
X1889424Y-103931356D01*
X1857742Y-103912182D01*
X1814286Y-103895779D01*
X1814286Y-103957966D01*
X1818128Y-104000283D01*
X1833177Y-104035969D01*
X1864720Y-104076943D01*
X1869408Y-104082267D01*
X1904494Y-104118720D01*
X1934653Y-104138283D01*
X1972385Y-104147283D01*
X2003665Y-104150230D01*
X2059615Y-104150965D01*
X2099445Y-104141660D01*
X2124292Y-104127846D01*
X2163344Y-104097467D01*
X2190375Y-104064613D01*
X2207483Y-104023294D01*
X2216762Y-103967521D01*
X2220307Y-103891305D01*
X2220590Y-103852622D01*
X2219628Y-103806247D01*
X2131993Y-103806247D01*
X2130977Y-103831126D01*
X2128444Y-103835200D01*
X2111726Y-103829665D01*
X2075751Y-103815017D01*
X2027669Y-103794190D01*
X2017614Y-103789714D01*
X1956848Y-103758814D01*
X1923368Y-103731657D01*
X1916010Y-103706220D01*
X1933609Y-103680481D01*
X1948144Y-103669109D01*
X2000590Y-103646364D01*
X2049678Y-103650122D01*
X2090773Y-103677884D01*
X2119242Y-103727152D01*
X2128369Y-103766257D01*
X2131993Y-103806247D01*
X2219628Y-103806247D01*
X2218715Y-103762249D01*
X2211804Y-103695384D01*
X2198116Y-103646695D01*
X2175904Y-103610849D01*
X2143426Y-103582513D01*
X2129267Y-103573355D01*
X2064947Y-103549507D01*
X1994527Y-103548006D01*
X1926405Y-103566966D01*
G36*
X2427400Y-103558752D02*
G01*
X2410052Y-103566334D01*
X2368644Y-103599128D01*
X2333235Y-103646547D01*
X2311336Y-103697151D01*
X2307771Y-103722098D01*
X2319721Y-103756927D01*
X2345933Y-103775357D01*
X2374036Y-103786516D01*
X2386905Y-103788572D01*
X2393171Y-103773649D01*
X2405544Y-103741175D01*
X2410972Y-103726502D01*
X2441410Y-103675744D01*
X2485480Y-103650427D01*
X2541990Y-103651206D01*
X2546175Y-103652203D01*
X2576345Y-103666507D01*
X2598524Y-103694393D01*
X2613673Y-103739287D01*
X2622750Y-103804615D01*
X2626714Y-103893804D01*
X2627086Y-103941261D01*
X2627270Y-104016071D01*
X2628478Y-104067069D01*
X2631691Y-104099471D01*
X2637891Y-104118495D01*
X2648060Y-104129356D01*
X2663181Y-104137272D01*
X2664054Y-104137670D01*
X2693172Y-104149981D01*
X2707597Y-104154514D01*
X2709814Y-104140809D01*
X2711711Y-104102925D01*
X2713153Y-104045715D01*
X2714002Y-103974027D01*
X2714171Y-103921565D01*
X2713308Y-103820047D01*
X2709930Y-103743032D01*
X2702858Y-103686023D01*
X2690912Y-103644526D01*
X2672910Y-103614043D01*
X2647673Y-103590080D01*
X2622753Y-103573355D01*
X2562829Y-103551097D01*
X2493089Y-103546076D01*
X2427400Y-103558752D01*
G37*
X2427400Y-103558752D02*
X2410052Y-103566334D01*
X2368644Y-103599128D01*
X2333235Y-103646547D01*
X2311336Y-103697151D01*
X2307771Y-103722098D01*
X2319721Y-103756927D01*
X2345933Y-103775357D01*
X2374036Y-103786516D01*
X2386905Y-103788572D01*
X2393171Y-103773649D01*
X2405544Y-103741175D01*
X2410972Y-103726502D01*
X2441410Y-103675744D01*
X2485480Y-103650427D01*
X2541990Y-103651206D01*
X2546175Y-103652203D01*
X2576345Y-103666507D01*
X2598524Y-103694393D01*
X2613673Y-103739287D01*
X2622750Y-103804615D01*
X2626714Y-103893804D01*
X2627086Y-103941261D01*
X2627270Y-104016071D01*
X2628478Y-104067069D01*
X2631691Y-104099471D01*
X2637891Y-104118495D01*
X2648060Y-104129356D01*
X2663181Y-104137272D01*
X2664054Y-104137670D01*
X2693172Y-104149981D01*
X2707597Y-104154514D01*
X2709814Y-104140809D01*
X2711711Y-104102925D01*
X2713153Y-104045715D01*
X2714002Y-103974027D01*
X2714171Y-103921565D01*
X2713308Y-103820047D01*
X2709930Y-103743032D01*
X2702858Y-103686023D01*
X2690912Y-103644526D01*
X2672910Y-103614043D01*
X2647673Y-103590080D01*
X2622753Y-103573355D01*
X2562829Y-103551097D01*
X2493089Y-103546076D01*
X2427400Y-103558752D01*
G36*
X2935124Y-103556335D02*
G01*
X2893333Y-103575344D01*
X2860531Y-103598378D01*
X2836497Y-103624133D01*
X2819903Y-103657358D01*
X2809423Y-103702800D01*
X2803729Y-103765207D01*
X2801493Y-103849327D01*
X2801257Y-103904721D01*
X2801257Y-104120826D01*
X2838226Y-104137670D01*
X2867344Y-104149981D01*
X2881769Y-104154514D01*
X2884528Y-104141025D01*
X2886718Y-104104653D01*
X2888058Y-104051542D01*
X2888343Y-104009372D01*
X2889566Y-103948447D01*
X2892864Y-103900115D01*
X2897679Y-103870518D01*
X2901504Y-103864229D01*
X2927217Y-103870652D01*
X2967582Y-103887125D01*
X3014321Y-103909458D01*
X3059155Y-103933457D01*
X3093807Y-103954930D01*
X3109998Y-103969685D01*
X3110062Y-103969845D01*
X3108670Y-103997152D01*
X3096182Y-104023219D01*
X3074257Y-104044392D01*
X3042257Y-104051474D01*
X3014908Y-104050649D01*
X2976174Y-104050042D01*
X2955842Y-104059116D01*
X2943631Y-104083092D01*
X2942091Y-104087613D01*
X2936797Y-104121806D01*
X2950953Y-104142568D01*
X2987852Y-104152462D01*
X3027711Y-104154292D01*
X3099438Y-104140727D01*
X3136568Y-104121355D01*
X3182424Y-104075845D01*
X3206744Y-104019983D01*
X3208927Y-103960957D01*
X3188371Y-103905953D01*
X3157451Y-103871486D01*
X3126580Y-103852189D01*
X3078058Y-103827759D01*
X3021515Y-103802985D01*
X3012090Y-103799199D01*
X2949981Y-103771791D01*
X2914178Y-103747634D01*
X2902663Y-103723619D01*
X2913420Y-103696635D01*
X2931886Y-103675543D01*
X2975531Y-103649572D01*
X3023554Y-103647624D01*
X3067594Y-103667637D01*
X3099291Y-103707551D01*
X3103451Y-103717848D01*
X3127673Y-103755724D01*
X3163035Y-103783842D01*
X3207657Y-103806917D01*
X3207657Y-103741485D01*
X3205031Y-103701506D01*
X3193770Y-103669997D01*
X3168801Y-103636378D01*
X3144831Y-103610484D01*
X3107559Y-103573817D01*
X3078599Y-103554121D01*
X3047495Y-103546220D01*
X3012287Y-103544914D01*
X2935124Y-103556335D01*
G37*
X2935124Y-103556335D02*
X2893333Y-103575344D01*
X2860531Y-103598378D01*
X2836497Y-103624133D01*
X2819903Y-103657358D01*
X2809423Y-103702800D01*
X2803729Y-103765207D01*
X2801493Y-103849327D01*
X2801257Y-103904721D01*
X2801257Y-104120826D01*
X2838226Y-104137670D01*
X2867344Y-104149981D01*
X2881769Y-104154514D01*
X2884528Y-104141025D01*
X2886718Y-104104653D01*
X2888058Y-104051542D01*
X2888343Y-104009372D01*
X2889566Y-103948447D01*
X2892864Y-103900115D01*
X2897679Y-103870518D01*
X2901504Y-103864229D01*
X2927217Y-103870652D01*
X2967582Y-103887125D01*
X3014321Y-103909458D01*
X3059155Y-103933457D01*
X3093807Y-103954930D01*
X3109998Y-103969685D01*
X3110062Y-103969845D01*
X3108670Y-103997152D01*
X3096182Y-104023219D01*
X3074257Y-104044392D01*
X3042257Y-104051474D01*
X3014908Y-104050649D01*
X2976174Y-104050042D01*
X2955842Y-104059116D01*
X2943631Y-104083092D01*
X2942091Y-104087613D01*
X2936797Y-104121806D01*
X2950953Y-104142568D01*
X2987852Y-104152462D01*
X3027711Y-104154292D01*
X3099438Y-104140727D01*
X3136568Y-104121355D01*
X3182424Y-104075845D01*
X3206744Y-104019983D01*
X3208927Y-103960957D01*
X3188371Y-103905953D01*
X3157451Y-103871486D01*
X3126580Y-103852189D01*
X3078058Y-103827759D01*
X3021515Y-103802985D01*
X3012090Y-103799199D01*
X2949981Y-103771791D01*
X2914178Y-103747634D01*
X2902663Y-103723619D01*
X2913420Y-103696635D01*
X2931886Y-103675543D01*
X2975531Y-103649572D01*
X3023554Y-103647624D01*
X3067594Y-103667637D01*
X3099291Y-103707551D01*
X3103451Y-103717848D01*
X3127673Y-103755724D01*
X3163035Y-103783842D01*
X3207657Y-103806917D01*
X3207657Y-103741485D01*
X3205031Y-103701506D01*
X3193770Y-103669997D01*
X3168801Y-103636378D01*
X3144831Y-103610484D01*
X3107559Y-103573817D01*
X3078599Y-103554121D01*
X3047495Y-103546220D01*
X3012287Y-103544914D01*
X2935124Y-103556335D01*
G36*
X3300167Y-103558663D02*
G01*
X3297952Y-103596850D01*
X3296216Y-103654886D01*
X3295101Y-103728180D01*
X3294743Y-103805055D01*
X3294743Y-104065196D01*
X3340674Y-104111127D01*
X3372325Y-104139429D01*
X3400110Y-104150893D01*
X3438085Y-104150168D01*
X3453160Y-104148321D01*
X3500274Y-104142948D01*
X3539244Y-104139869D01*
X3548743Y-104139585D01*
X3580767Y-104141445D01*
X3626568Y-104146114D01*
X3644326Y-104148321D01*
X3687943Y-104151735D01*
X3717255Y-104144320D01*
X3746320Y-104121427D01*
X3756812Y-104111127D01*
X3802743Y-104065196D01*
X3802743Y-103578602D01*
X3765774Y-103561758D01*
X3733941Y-103549282D01*
X3715317Y-103544914D01*
X3710542Y-103558718D01*
X3706079Y-103597286D01*
X3702225Y-103656356D01*
X3699278Y-103731663D01*
X3697857Y-103795286D01*
X3693886Y-104045657D01*
X3659241Y-104050556D01*
X3627732Y-104047131D01*
X3612292Y-104036041D01*
X3607977Y-104015308D01*
X3604292Y-103971145D01*
X3601531Y-103909146D01*
X3599988Y-103834909D01*
X3599765Y-103796706D01*
X3599543Y-103576783D01*
X3553834Y-103560849D01*
X3521482Y-103550015D01*
X3503885Y-103544962D01*
X3503377Y-103544914D01*
X3501612Y-103558648D01*
X3499671Y-103596730D01*
X3497718Y-103654482D01*
X3495916Y-103727227D01*
X3494657Y-103795286D01*
X3490686Y-104045657D01*
X3403600Y-104045657D01*
X3399604Y-103817240D01*
X3395608Y-103588822D01*
X3353153Y-103566868D01*
X3321808Y-103551793D01*
X3303256Y-103544951D01*
X3302721Y-103544914D01*
X3300167Y-103558663D01*
G37*
X3300167Y-103558663D02*
X3297952Y-103596850D01*
X3296216Y-103654886D01*
X3295101Y-103728180D01*
X3294743Y-103805055D01*
X3294743Y-104065196D01*
X3340674Y-104111127D01*
X3372325Y-104139429D01*
X3400110Y-104150893D01*
X3438085Y-104150168D01*
X3453160Y-104148321D01*
X3500274Y-104142948D01*
X3539244Y-104139869D01*
X3548743Y-104139585D01*
X3580767Y-104141445D01*
X3626568Y-104146114D01*
X3644326Y-104148321D01*
X3687943Y-104151735D01*
X3717255Y-104144320D01*
X3746320Y-104121427D01*
X3756812Y-104111127D01*
X3802743Y-104065196D01*
X3802743Y-103578602D01*
X3765774Y-103561758D01*
X3733941Y-103549282D01*
X3715317Y-103544914D01*
X3710542Y-103558718D01*
X3706079Y-103597286D01*
X3702225Y-103656356D01*
X3699278Y-103731663D01*
X3697857Y-103795286D01*
X3693886Y-104045657D01*
X3659241Y-104050556D01*
X3627732Y-104047131D01*
X3612292Y-104036041D01*
X3607977Y-104015308D01*
X3604292Y-103971145D01*
X3601531Y-103909146D01*
X3599988Y-103834909D01*
X3599765Y-103796706D01*
X3599543Y-103576783D01*
X3553834Y-103560849D01*
X3521482Y-103550015D01*
X3503885Y-103544962D01*
X3503377Y-103544914D01*
X3501612Y-103558648D01*
X3499671Y-103596730D01*
X3497718Y-103654482D01*
X3495916Y-103727227D01*
X3494657Y-103795286D01*
X3490686Y-104045657D01*
X3403600Y-104045657D01*
X3399604Y-103817240D01*
X3395608Y-103588822D01*
X3353153Y-103566868D01*
X3321808Y-103551793D01*
X3303256Y-103544951D01*
X3302721Y-103544914D01*
X3300167Y-103558663D01*
G36*
X3889883Y-103665358D02*
G01*
X3890067Y-103773837D01*
X3890781Y-103857287D01*
X3892325Y-103919704D01*
X3894999Y-103965085D01*
X3899106Y-103997429D01*
X3904945Y-104020733D01*
X3912818Y-104038995D01*
X3918779Y-104049418D01*
X3968145Y-104105945D01*
X4030736Y-104141377D01*
X4099987Y-104154090D01*
X4169332Y-104142463D01*
X4210625Y-104121568D01*
X4253975Y-104085422D01*
X4283519Y-104041276D01*
X4301345Y-103983462D01*
X4309537Y-103906313D01*
X4310698Y-103849714D01*
X4310542Y-103845647D01*
X4209143Y-103845647D01*
X4208524Y-103910550D01*
X4205686Y-103953514D01*
X4199160Y-103981622D01*
X4187477Y-104001953D01*
X4173517Y-104017288D01*
X4126635Y-104046890D01*
X4076299Y-104049419D01*
X4028724Y-104024705D01*
X4025021Y-104021356D01*
X4009217Y-104003935D01*
X3999307Y-103983209D01*
X3993942Y-103952362D01*
X3991772Y-103904577D01*
X3991429Y-103851748D01*
X3992173Y-103785381D01*
X3995252Y-103741106D01*
X4001939Y-103712009D01*
X4013504Y-103691173D01*
X4022987Y-103680107D01*
X4067040Y-103652198D01*
X4117776Y-103648843D01*
X4166204Y-103670159D01*
X4175550Y-103678073D01*
X4191460Y-103695647D01*
X4201390Y-103716587D01*
X4206722Y-103747782D01*
X4208837Y-103796122D01*
X4209143Y-103845647D01*
X4310542Y-103845647D01*
X4307190Y-103758568D01*
X4295274Y-103690086D01*
X4272865Y-103638600D01*
X4237876Y-103598443D01*
X4210625Y-103577861D01*
X4161093Y-103555625D01*
X4103684Y-103545304D01*
X4050318Y-103548067D01*
X4020457Y-103559212D01*
X4008739Y-103562383D01*
X4000963Y-103550557D01*
X3995535Y-103518866D01*
X3991429Y-103470593D01*
X3986933Y-103416829D01*
X3980687Y-103384482D01*
X3969324Y-103365985D01*
X3949472Y-103353770D01*
X3937000Y-103348362D01*
X3889829Y-103328601D01*
X3889883Y-103665358D01*
G37*
X3889883Y-103665358D02*
X3890067Y-103773837D01*
X3890781Y-103857287D01*
X3892325Y-103919704D01*
X3894999Y-103965085D01*
X3899106Y-103997429D01*
X3904945Y-104020733D01*
X3912818Y-104038995D01*
X3918779Y-104049418D01*
X3968145Y-104105945D01*
X4030736Y-104141377D01*
X4099987Y-104154090D01*
X4169332Y-104142463D01*
X4210625Y-104121568D01*
X4253975Y-104085422D01*
X4283519Y-104041276D01*
X4301345Y-103983462D01*
X4309537Y-103906313D01*
X4310698Y-103849714D01*
X4310542Y-103845647D01*
X4209143Y-103845647D01*
X4208524Y-103910550D01*
X4205686Y-103953514D01*
X4199160Y-103981622D01*
X4187477Y-104001953D01*
X4173517Y-104017288D01*
X4126635Y-104046890D01*
X4076299Y-104049419D01*
X4028724Y-104024705D01*
X4025021Y-104021356D01*
X4009217Y-104003935D01*
X3999307Y-103983209D01*
X3993942Y-103952362D01*
X3991772Y-103904577D01*
X3991429Y-103851748D01*
X3992173Y-103785381D01*
X3995252Y-103741106D01*
X4001939Y-103712009D01*
X4013504Y-103691173D01*
X4022987Y-103680107D01*
X4067040Y-103652198D01*
X4117776Y-103648843D01*
X4166204Y-103670159D01*
X4175550Y-103678073D01*
X4191460Y-103695647D01*
X4201390Y-103716587D01*
X4206722Y-103747782D01*
X4208837Y-103796122D01*
X4209143Y-103845647D01*
X4310542Y-103845647D01*
X4307190Y-103758568D01*
X4295274Y-103690086D01*
X4272865Y-103638600D01*
X4237876Y-103598443D01*
X4210625Y-103577861D01*
X4161093Y-103555625D01*
X4103684Y-103545304D01*
X4050318Y-103548067D01*
X4020457Y-103559212D01*
X4008739Y-103562383D01*
X4000963Y-103550557D01*
X3995535Y-103518866D01*
X3991429Y-103470593D01*
X3986933Y-103416829D01*
X3980687Y-103384482D01*
X3969324Y-103365985D01*
X3949472Y-103353770D01*
X3937000Y-103348362D01*
X3889829Y-103328601D01*
X3889883Y-103665358D01*
G36*
X4550074Y-103549755D02*
G01*
X4484142Y-103574084D01*
X4430727Y-103617117D01*
X4409836Y-103647409D01*
X4387061Y-103702994D01*
X4387534Y-103743186D01*
X4411438Y-103770217D01*
X4420283Y-103774813D01*
X4458470Y-103789144D01*
X4477972Y-103785472D01*
X4484578Y-103761407D01*
X4484914Y-103748114D01*
X4497008Y-103699210D01*
X4528529Y-103664999D01*
X4572341Y-103648476D01*
X4621305Y-103652634D01*
X4661106Y-103674227D01*
X4674550Y-103686544D01*
X4684079Y-103701487D01*
X4690515Y-103724075D01*
X4694683Y-103759328D01*
X4697403Y-103812266D01*
X4699498Y-103887907D01*
X4700040Y-103911857D01*
X4702019Y-103993790D01*
X4704269Y-104051455D01*
X4707643Y-104089608D01*
X4712994Y-104113004D01*
X4721176Y-104126398D01*
X4733041Y-104134545D01*
X4740638Y-104138144D01*
X4772898Y-104150452D01*
X4791889Y-104154514D01*
X4798164Y-104140948D01*
X4801994Y-104099934D01*
X4803400Y-104030999D01*
X4802402Y-103933669D01*
X4802092Y-103918657D01*
X4799899Y-103829859D01*
X4797307Y-103765019D01*
X4793618Y-103719067D01*
X4788136Y-103686935D01*
X4780165Y-103663553D01*
X4769007Y-103643852D01*
X4763170Y-103635410D01*
X4729704Y-103598057D01*
X4692273Y-103569003D01*
X4687691Y-103566467D01*
X4620574Y-103546443D01*
X4550074Y-103549755D01*
G37*
X4550074Y-103549755D02*
X4484142Y-103574084D01*
X4430727Y-103617117D01*
X4409836Y-103647409D01*
X4387061Y-103702994D01*
X4387534Y-103743186D01*
X4411438Y-103770217D01*
X4420283Y-103774813D01*
X4458470Y-103789144D01*
X4477972Y-103785472D01*
X4484578Y-103761407D01*
X4484914Y-103748114D01*
X4497008Y-103699210D01*
X4528529Y-103664999D01*
X4572341Y-103648476D01*
X4621305Y-103652634D01*
X4661106Y-103674227D01*
X4674550Y-103686544D01*
X4684079Y-103701487D01*
X4690515Y-103724075D01*
X4694683Y-103759328D01*
X4697403Y-103812266D01*
X4699498Y-103887907D01*
X4700040Y-103911857D01*
X4702019Y-103993790D01*
X4704269Y-104051455D01*
X4707643Y-104089608D01*
X4712994Y-104113004D01*
X4721176Y-104126398D01*
X4733041Y-104134545D01*
X4740638Y-104138144D01*
X4772898Y-104150452D01*
X4791889Y-104154514D01*
X4798164Y-104140948D01*
X4801994Y-104099934D01*
X4803400Y-104030999D01*
X4802402Y-103933669D01*
X4802092Y-103918657D01*
X4799899Y-103829859D01*
X4797307Y-103765019D01*
X4793618Y-103719067D01*
X4788136Y-103686935D01*
X4780165Y-103663553D01*
X4769007Y-103643852D01*
X4763170Y-103635410D01*
X4729704Y-103598057D01*
X4692273Y-103569003D01*
X4687691Y-103566467D01*
X4620574Y-103546443D01*
X4550074Y-103549755D01*
G36*
X5040256Y-103550968D02*
G01*
X4983384Y-103572087D01*
X4982733Y-103572493D01*
X4947560Y-103598380D01*
X4921593Y-103628633D01*
X4903330Y-103668058D01*
X4891268Y-103721462D01*
X4883904Y-103793651D01*
X4879736Y-103889432D01*
X4879371Y-103903078D01*
X4874124Y-104108842D01*
X4918284Y-104131678D01*
X4950237Y-104147110D01*
X4969530Y-104154423D01*
X4970422Y-104154514D01*
X4973761Y-104141022D01*
X4976413Y-104104626D01*
X4978044Y-104051452D01*
X4978400Y-104008393D01*
X4978408Y-103938641D01*
X4981597Y-103894837D01*
X4992712Y-103873944D01*
X5016499Y-103872925D01*
X5057704Y-103888741D01*
X5119914Y-103917815D01*
X5165659Y-103941963D01*
X5189187Y-103962913D01*
X5196104Y-103985747D01*
X5196114Y-103986877D01*
X5184701Y-104026212D01*
X5150908Y-104047462D01*
X5099191Y-104050539D01*
X5061939Y-104050006D01*
X5042297Y-104060735D01*
X5030048Y-104086505D01*
X5022998Y-104119337D01*
X5033158Y-104137966D01*
X5036983Y-104140632D01*
X5072999Y-104151340D01*
X5123434Y-104152856D01*
X5175374Y-104145759D01*
X5212178Y-104132788D01*
X5263062Y-104089585D01*
X5291986Y-104029446D01*
X5297714Y-103982462D01*
X5293343Y-103940082D01*
X5277525Y-103905488D01*
X5246203Y-103874763D01*
X5195322Y-103843990D01*
X5120824Y-103809252D01*
X5116286Y-103807288D01*
X5049179Y-103776287D01*
X5007768Y-103750862D01*
X4990019Y-103728014D01*
X4993893Y-103704745D01*
X5017357Y-103678056D01*
X5024373Y-103671914D01*
X5071370Y-103648100D01*
X5120067Y-103649103D01*
X5162478Y-103672451D01*
X5190616Y-103715675D01*
X5193231Y-103724160D01*
X5218692Y-103765308D01*
X5250999Y-103785128D01*
X5297714Y-103804770D01*
X5297714Y-103753950D01*
X5283504Y-103680082D01*
X5241325Y-103612327D01*
X5219376Y-103589661D01*
X5169483Y-103560569D01*
X5106033Y-103547400D01*
X5040256Y-103550968D01*
G37*
X5040256Y-103550968D02*
X4983384Y-103572087D01*
X4982733Y-103572493D01*
X4947560Y-103598380D01*
X4921593Y-103628633D01*
X4903330Y-103668058D01*
X4891268Y-103721462D01*
X4883904Y-103793651D01*
X4879736Y-103889432D01*
X4879371Y-103903078D01*
X4874124Y-104108842D01*
X4918284Y-104131678D01*
X4950237Y-104147110D01*
X4969530Y-104154423D01*
X4970422Y-104154514D01*
X4973761Y-104141022D01*
X4976413Y-104104626D01*
X4978044Y-104051452D01*
X4978400Y-104008393D01*
X4978408Y-103938641D01*
X4981597Y-103894837D01*
X4992712Y-103873944D01*
X5016499Y-103872925D01*
X5057704Y-103888741D01*
X5119914Y-103917815D01*
X5165659Y-103941963D01*
X5189187Y-103962913D01*
X5196104Y-103985747D01*
X5196114Y-103986877D01*
X5184701Y-104026212D01*
X5150908Y-104047462D01*
X5099191Y-104050539D01*
X5061939Y-104050006D01*
X5042297Y-104060735D01*
X5030048Y-104086505D01*
X5022998Y-104119337D01*
X5033158Y-104137966D01*
X5036983Y-104140632D01*
X5072999Y-104151340D01*
X5123434Y-104152856D01*
X5175374Y-104145759D01*
X5212178Y-104132788D01*
X5263062Y-104089585D01*
X5291986Y-104029446D01*
X5297714Y-103982462D01*
X5293343Y-103940082D01*
X5277525Y-103905488D01*
X5246203Y-103874763D01*
X5195322Y-103843990D01*
X5120824Y-103809252D01*
X5116286Y-103807288D01*
X5049179Y-103776287D01*
X5007768Y-103750862D01*
X4990019Y-103728014D01*
X4993893Y-103704745D01*
X5017357Y-103678056D01*
X5024373Y-103671914D01*
X5071370Y-103648100D01*
X5120067Y-103649103D01*
X5162478Y-103672451D01*
X5190616Y-103715675D01*
X5193231Y-103724160D01*
X5218692Y-103765308D01*
X5250999Y-103785128D01*
X5297714Y-103804770D01*
X5297714Y-103753950D01*
X5283504Y-103680082D01*
X5241325Y-103612327D01*
X5219376Y-103589661D01*
X5169483Y-103560569D01*
X5106033Y-103547400D01*
X5040256Y-103550968D01*
G36*
X5704114Y-103451289D02*
G01*
X5699861Y-103510613D01*
X5694975Y-103545572D01*
X5688205Y-103560820D01*
X5678298Y-103561015D01*
X5675086Y-103559195D01*
X5632356Y-103546015D01*
X5576773Y-103546785D01*
X5520263Y-103560333D01*
X5484918Y-103577861D01*
X5448679Y-103605861D01*
X5422187Y-103637549D01*
X5404001Y-103677813D01*
X5392678Y-103731543D01*
X5386778Y-103803626D01*
X5384857Y-103898951D01*
X5384823Y-103917237D01*
X5384800Y-104122646D01*
X5430509Y-104138580D01*
X5462973Y-104149420D01*
X5480785Y-104154468D01*
X5481309Y-104154514D01*
X5483063Y-104140828D01*
X5484556Y-104103076D01*
X5485674Y-104046224D01*
X5486303Y-103975234D01*
X5486400Y-103932073D01*
X5486602Y-103846973D01*
X5487642Y-103785981D01*
X5490169Y-103744177D01*
X5494836Y-103716642D01*
X5502293Y-103698456D01*
X5513189Y-103684698D01*
X5519993Y-103678073D01*
X5566728Y-103651375D01*
X5617728Y-103649375D01*
X5663999Y-103671955D01*
X5672556Y-103680107D01*
X5685107Y-103695436D01*
X5693812Y-103713618D01*
X5699369Y-103739909D01*
X5702474Y-103779562D01*
X5703824Y-103837832D01*
X5704114Y-103918173D01*
X5704114Y-104122646D01*
X5749823Y-104138580D01*
X5782287Y-104149420D01*
X5800099Y-104154468D01*
X5800623Y-104154514D01*
X5801963Y-104140623D01*
X5803172Y-104101439D01*
X5804199Y-104040700D01*
X5804998Y-103962141D01*
X5805519Y-103869498D01*
X5805714Y-103766509D01*
X5805714Y-103369342D01*
X5758543Y-103349444D01*
X5711371Y-103329547D01*
X5704114Y-103451289D01*
G37*
X5704114Y-103451289D02*
X5699861Y-103510613D01*
X5694975Y-103545572D01*
X5688205Y-103560820D01*
X5678298Y-103561015D01*
X5675086Y-103559195D01*
X5632356Y-103546015D01*
X5576773Y-103546785D01*
X5520263Y-103560333D01*
X5484918Y-103577861D01*
X5448679Y-103605861D01*
X5422187Y-103637549D01*
X5404001Y-103677813D01*
X5392678Y-103731543D01*
X5386778Y-103803626D01*
X5384857Y-103898951D01*
X5384823Y-103917237D01*
X5384800Y-104122646D01*
X5430509Y-104138580D01*
X5462973Y-104149420D01*
X5480785Y-104154468D01*
X5481309Y-104154514D01*
X5483063Y-104140828D01*
X5484556Y-104103076D01*
X5485674Y-104046224D01*
X5486303Y-103975234D01*
X5486400Y-103932073D01*
X5486602Y-103846973D01*
X5487642Y-103785981D01*
X5490169Y-103744177D01*
X5494836Y-103716642D01*
X5502293Y-103698456D01*
X5513189Y-103684698D01*
X5519993Y-103678073D01*
X5566728Y-103651375D01*
X5617728Y-103649375D01*
X5663999Y-103671955D01*
X5672556Y-103680107D01*
X5685107Y-103695436D01*
X5693812Y-103713618D01*
X5699369Y-103739909D01*
X5702474Y-103779562D01*
X5703824Y-103837832D01*
X5704114Y-103918173D01*
X5704114Y-104122646D01*
X5749823Y-104138580D01*
X5782287Y-104149420D01*
X5800099Y-104154468D01*
X5800623Y-104154514D01*
X5801963Y-104140623D01*
X5803172Y-104101439D01*
X5804199Y-104040700D01*
X5804998Y-103962141D01*
X5805519Y-103869498D01*
X5805714Y-103766509D01*
X5805714Y-103369342D01*
X5758543Y-103349444D01*
X5711371Y-103329547D01*
X5704114Y-103451289D01*
G36*
X6911697Y-103531239D02*
G01*
X6854473Y-103569735D01*
X6810251Y-103625335D01*
X6783833Y-103696086D01*
X6778490Y-103748162D01*
X6779097Y-103769893D01*
X6784178Y-103786531D01*
X6798145Y-103801437D01*
X6825411Y-103817973D01*
X6870388Y-103839498D01*
X6937489Y-103869374D01*
X6937829Y-103869524D01*
X6999593Y-103897813D01*
X7050241Y-103922933D01*
X7084596Y-103942179D01*
X7097482Y-103952848D01*
X7097486Y-103952934D01*
X7086128Y-103976166D01*
X7059569Y-104001774D01*
X7029077Y-104020221D01*
X7013630Y-104023886D01*
X6971485Y-104011212D01*
X6935192Y-103979471D01*
X6917483Y-103944572D01*
X6900448Y-103918845D01*
X6867078Y-103889546D01*
X6827851Y-103864235D01*
X6793244Y-103850471D01*
X6786007Y-103849714D01*
X6777861Y-103862160D01*
X6777370Y-103893972D01*
X6783357Y-103936866D01*
X6794643Y-103982558D01*
X6810050Y-104022761D01*
X6810829Y-104024322D01*
X6857196Y-104089062D01*
X6917289Y-104133097D01*
X6985535Y-104154711D01*
X7056362Y-104152185D01*
X7124196Y-104123804D01*
X7127212Y-104121808D01*
X7180573Y-104073448D01*
X7215660Y-104010352D01*
X7235078Y-103927387D01*
X7237684Y-103904078D01*
X7242299Y-103794055D01*
X7236767Y-103742748D01*
X7097486Y-103742748D01*
X7095676Y-103774753D01*
X7085778Y-103784093D01*
X7061102Y-103777105D01*
X7022205Y-103760587D01*
X6978725Y-103739881D01*
X6977644Y-103739333D01*
X6940791Y-103719949D01*
X6926000Y-103707013D01*
X6929647Y-103693451D01*
X6945005Y-103675632D01*
X6984077Y-103649845D01*
X7026154Y-103647950D01*
X7063897Y-103666717D01*
X7089966Y-103702915D01*
X7097486Y-103742748D01*
X7236767Y-103742748D01*
X7232806Y-103706027D01*
X7208450Y-103636212D01*
X7174544Y-103587302D01*
X7113347Y-103537878D01*
X7045937Y-103513359D01*
X6977120Y-103511797D01*
X6911697Y-103531239D01*
G37*
X6911697Y-103531239D02*
X6854473Y-103569735D01*
X6810251Y-103625335D01*
X6783833Y-103696086D01*
X6778490Y-103748162D01*
X6779097Y-103769893D01*
X6784178Y-103786531D01*
X6798145Y-103801437D01*
X6825411Y-103817973D01*
X6870388Y-103839498D01*
X6937489Y-103869374D01*
X6937829Y-103869524D01*
X6999593Y-103897813D01*
X7050241Y-103922933D01*
X7084596Y-103942179D01*
X7097482Y-103952848D01*
X7097486Y-103952934D01*
X7086128Y-103976166D01*
X7059569Y-104001774D01*
X7029077Y-104020221D01*
X7013630Y-104023886D01*
X6971485Y-104011212D01*
X6935192Y-103979471D01*
X6917483Y-103944572D01*
X6900448Y-103918845D01*
X6867078Y-103889546D01*
X6827851Y-103864235D01*
X6793244Y-103850471D01*
X6786007Y-103849714D01*
X6777861Y-103862160D01*
X6777370Y-103893972D01*
X6783357Y-103936866D01*
X6794643Y-103982558D01*
X6810050Y-104022761D01*
X6810829Y-104024322D01*
X6857196Y-104089062D01*
X6917289Y-104133097D01*
X6985535Y-104154711D01*
X7056362Y-104152185D01*
X7124196Y-104123804D01*
X7127212Y-104121808D01*
X7180573Y-104073448D01*
X7215660Y-104010352D01*
X7235078Y-103927387D01*
X7237684Y-103904078D01*
X7242299Y-103794055D01*
X7236767Y-103742748D01*
X7097486Y-103742748D01*
X7095676Y-103774753D01*
X7085778Y-103784093D01*
X7061102Y-103777105D01*
X7022205Y-103760587D01*
X6978725Y-103739881D01*
X6977644Y-103739333D01*
X6940791Y-103719949D01*
X6926000Y-103707013D01*
X6929647Y-103693451D01*
X6945005Y-103675632D01*
X6984077Y-103649845D01*
X7026154Y-103647950D01*
X7063897Y-103666717D01*
X7089966Y-103702915D01*
X7097486Y-103742748D01*
X7236767Y-103742748D01*
X7232806Y-103706027D01*
X7208450Y-103636212D01*
X7174544Y-103587302D01*
X7113347Y-103537878D01*
X7045937Y-103513359D01*
X6977120Y-103511797D01*
X6911697Y-103531239D01*
G36*
X8038885Y-103521962D02*
G01*
X7970855Y-103557733D01*
X7920649Y-103615301D01*
X7902815Y-103652312D01*
X7888937Y-103707882D01*
X7881833Y-103778096D01*
X7881160Y-103854727D01*
X7886573Y-103929552D01*
X7897730Y-103994342D01*
X7914286Y-104040873D01*
X7919374Y-104048887D01*
X7979645Y-104108707D01*
X8051231Y-104144535D01*
X8128908Y-104155020D01*
X8207452Y-104138810D01*
X8229311Y-104129092D01*
X8271878Y-104099143D01*
X8309237Y-104059433D01*
X8312768Y-104054397D01*
X8327119Y-104030124D01*
X8336606Y-104004178D01*
X8342210Y-103970022D01*
X8344914Y-103921119D01*
X8345701Y-103850935D01*
X8345714Y-103835200D01*
X8345678Y-103830192D01*
X8200571Y-103830192D01*
X8199727Y-103896430D01*
X8196404Y-103940386D01*
X8189417Y-103968779D01*
X8177584Y-103988325D01*
X8171543Y-103994857D01*
X8136814Y-104019680D01*
X8103097Y-104018548D01*
X8069005Y-103997016D01*
X8048671Y-103974029D01*
X8036629Y-103940478D01*
X8029866Y-103887569D01*
X8029402Y-103881399D01*
X8028248Y-103785513D01*
X8040312Y-103714299D01*
X8065430Y-103668194D01*
X8103440Y-103647635D01*
X8117008Y-103646514D01*
X8152636Y-103652152D01*
X8177006Y-103671686D01*
X8191907Y-103709042D01*
X8199125Y-103768150D01*
X8200571Y-103830192D01*
X8345678Y-103830192D01*
X8345174Y-103760413D01*
X8342904Y-103708159D01*
X8337932Y-103671949D01*
X8329287Y-103645299D01*
X8315995Y-103621722D01*
X8313057Y-103617338D01*
X8263687Y-103558249D01*
X8209891Y-103523947D01*
X8144398Y-103510331D01*
X8122158Y-103509665D01*
X8038885Y-103521962D01*
G37*
X8038885Y-103521962D02*
X7970855Y-103557733D01*
X7920649Y-103615301D01*
X7902815Y-103652312D01*
X7888937Y-103707882D01*
X7881833Y-103778096D01*
X7881160Y-103854727D01*
X7886573Y-103929552D01*
X7897730Y-103994342D01*
X7914286Y-104040873D01*
X7919374Y-104048887D01*
X7979645Y-104108707D01*
X8051231Y-104144535D01*
X8128908Y-104155020D01*
X8207452Y-104138810D01*
X8229311Y-104129092D01*
X8271878Y-104099143D01*
X8309237Y-104059433D01*
X8312768Y-104054397D01*
X8327119Y-104030124D01*
X8336606Y-104004178D01*
X8342210Y-103970022D01*
X8344914Y-103921119D01*
X8345701Y-103850935D01*
X8345714Y-103835200D01*
X8345678Y-103830192D01*
X8200571Y-103830192D01*
X8199727Y-103896430D01*
X8196404Y-103940386D01*
X8189417Y-103968779D01*
X8177584Y-103988325D01*
X8171543Y-103994857D01*
X8136814Y-104019680D01*
X8103097Y-104018548D01*
X8069005Y-103997016D01*
X8048671Y-103974029D01*
X8036629Y-103940478D01*
X8029866Y-103887569D01*
X8029402Y-103881399D01*
X8028248Y-103785513D01*
X8040312Y-103714299D01*
X8065430Y-103668194D01*
X8103440Y-103647635D01*
X8117008Y-103646514D01*
X8152636Y-103652152D01*
X8177006Y-103671686D01*
X8191907Y-103709042D01*
X8199125Y-103768150D01*
X8200571Y-103830192D01*
X8345678Y-103830192D01*
X8345174Y-103760413D01*
X8342904Y-103708159D01*
X8337932Y-103671949D01*
X8329287Y-103645299D01*
X8315995Y-103621722D01*
X8313057Y-103617338D01*
X8263687Y-103558249D01*
X8209891Y-103523947D01*
X8144398Y-103510331D01*
X8122158Y-103509665D01*
X8038885Y-103521962D01*
G36*
X6363907Y-103527780D02*
G01*
X6317328Y-103554723D01*
X6284943Y-103581466D01*
X6261258Y-103609484D01*
X6244941Y-103643748D01*
X6234661Y-103689227D01*
X6229086Y-103750892D01*
X6226884Y-103833711D01*
X6226629Y-103893246D01*
X6226629Y-104112391D01*
X6288314Y-104140044D01*
X6350000Y-104167697D01*
X6357257Y-103927670D01*
X6360256Y-103838028D01*
X6363402Y-103772962D01*
X6367299Y-103728026D01*
X6372553Y-103698770D01*
X6379769Y-103680748D01*
X6389550Y-103669511D01*
X6392688Y-103667079D01*
X6440239Y-103648083D01*
X6488303Y-103655600D01*
X6516914Y-103675543D01*
X6528553Y-103689675D01*
X6536609Y-103708220D01*
X6541729Y-103736334D01*
X6544559Y-103779173D01*
X6545744Y-103841895D01*
X6545943Y-103907261D01*
X6545982Y-103989268D01*
X6547386Y-104047316D01*
X6552086Y-104086465D01*
X6562013Y-104111780D01*
X6579097Y-104128323D01*
X6605268Y-104141156D01*
X6640225Y-104154491D01*
X6678404Y-104169007D01*
X6673859Y-103911389D01*
X6672029Y-103818519D01*
X6669888Y-103749889D01*
X6666819Y-103700711D01*
X6662206Y-103666198D01*
X6655432Y-103641562D01*
X6645881Y-103622016D01*
X6634366Y-103604770D01*
X6578810Y-103549680D01*
X6511020Y-103517822D01*
X6437287Y-103510191D01*
X6363907Y-103527780D01*
G37*
X6363907Y-103527780D02*
X6317328Y-103554723D01*
X6284943Y-103581466D01*
X6261258Y-103609484D01*
X6244941Y-103643748D01*
X6234661Y-103689227D01*
X6229086Y-103750892D01*
X6226884Y-103833711D01*
X6226629Y-103893246D01*
X6226629Y-104112391D01*
X6288314Y-104140044D01*
X6350000Y-104167697D01*
X6357257Y-103927670D01*
X6360256Y-103838028D01*
X6363402Y-103772962D01*
X6367299Y-103728026D01*
X6372553Y-103698770D01*
X6379769Y-103680748D01*
X6389550Y-103669511D01*
X6392688Y-103667079D01*
X6440239Y-103648083D01*
X6488303Y-103655600D01*
X6516914Y-103675543D01*
X6528553Y-103689675D01*
X6536609Y-103708220D01*
X6541729Y-103736334D01*
X6544559Y-103779173D01*
X6545744Y-103841895D01*
X6545943Y-103907261D01*
X6545982Y-103989268D01*
X6547386Y-104047316D01*
X6552086Y-104086465D01*
X6562013Y-104111780D01*
X6579097Y-104128323D01*
X6605268Y-104141156D01*
X6640225Y-104154491D01*
X6678404Y-104169007D01*
X6673859Y-103911389D01*
X6672029Y-103818519D01*
X6669888Y-103749889D01*
X6666819Y-103700711D01*
X6662206Y-103666198D01*
X6655432Y-103641562D01*
X6645881Y-103622016D01*
X6634366Y-103604770D01*
X6578810Y-103549680D01*
X6511020Y-103517822D01*
X6437287Y-103510191D01*
X6363907Y-103527780D01*
G36*
X7480256Y-103519918D02*
G01*
X7424799Y-103547568D01*
X7375852Y-103598480D01*
X7362371Y-103617338D01*
X7347686Y-103642015D01*
X7338158Y-103668816D01*
X7332707Y-103704587D01*
X7330253Y-103756169D01*
X7329714Y-103824267D01*
X7332148Y-103917588D01*
X7340606Y-103987657D01*
X7356826Y-104039931D01*
X7382546Y-104079869D01*
X7419503Y-104112929D01*
X7422218Y-104114886D01*
X7458640Y-104134908D01*
X7502498Y-104144815D01*
X7558276Y-104147257D01*
X7648952Y-104147257D01*
X7648990Y-104235283D01*
X7649834Y-104284308D01*
X7654976Y-104313065D01*
X7668413Y-104330311D01*
X7694142Y-104344808D01*
X7700321Y-104347769D01*
X7729236Y-104361648D01*
X7751624Y-104370414D01*
X7768271Y-104371171D01*
X7779964Y-104361023D01*
X7787490Y-104337073D01*
X7791634Y-104296426D01*
X7793185Y-104236186D01*
X7792929Y-104153455D01*
X7791651Y-104045339D01*
X7791252Y-104013000D01*
X7789815Y-103901524D01*
X7788528Y-103828603D01*
X7649029Y-103828603D01*
X7648245Y-103890499D01*
X7644760Y-103930997D01*
X7636876Y-103957708D01*
X7622895Y-103978244D01*
X7613403Y-103988260D01*
X7574596Y-104017567D01*
X7540237Y-104019952D01*
X7504784Y-103995750D01*
X7503886Y-103994857D01*
X7489461Y-103976153D01*
X7480687Y-103950732D01*
X7476261Y-103911584D01*
X7474882Y-103851697D01*
X7474857Y-103838430D01*
X7478188Y-103755901D01*
X7489031Y-103698691D01*
X7508660Y-103663766D01*
X7538350Y-103648094D01*
X7555509Y-103646514D01*
X7596234Y-103653926D01*
X7624168Y-103678330D01*
X7640983Y-103722980D01*
X7648350Y-103791130D01*
X7649029Y-103828603D01*
X7788528Y-103828603D01*
X7788292Y-103815245D01*
X7786323Y-103750333D01*
X7783550Y-103702958D01*
X7779612Y-103669290D01*
X7774151Y-103645498D01*
X7766808Y-103627753D01*
X7757223Y-103612224D01*
X7753113Y-103606381D01*
X7698595Y-103551185D01*
X7629664Y-103519890D01*
X7549928Y-103511165D01*
X7480256Y-103519918D01*
G37*
X7480256Y-103519918D02*
X7424799Y-103547568D01*
X7375852Y-103598480D01*
X7362371Y-103617338D01*
X7347686Y-103642015D01*
X7338158Y-103668816D01*
X7332707Y-103704587D01*
X7330253Y-103756169D01*
X7329714Y-103824267D01*
X7332148Y-103917588D01*
X7340606Y-103987657D01*
X7356826Y-104039931D01*
X7382546Y-104079869D01*
X7419503Y-104112929D01*
X7422218Y-104114886D01*
X7458640Y-104134908D01*
X7502498Y-104144815D01*
X7558276Y-104147257D01*
X7648952Y-104147257D01*
X7648990Y-104235283D01*
X7649834Y-104284308D01*
X7654976Y-104313065D01*
X7668413Y-104330311D01*
X7694142Y-104344808D01*
X7700321Y-104347769D01*
X7729236Y-104361648D01*
X7751624Y-104370414D01*
X7768271Y-104371171D01*
X7779964Y-104361023D01*
X7787490Y-104337073D01*
X7791634Y-104296426D01*
X7793185Y-104236186D01*
X7792929Y-104153455D01*
X7791651Y-104045339D01*
X7791252Y-104013000D01*
X7789815Y-103901524D01*
X7788528Y-103828603D01*
X7649029Y-103828603D01*
X7648245Y-103890499D01*
X7644760Y-103930997D01*
X7636876Y-103957708D01*
X7622895Y-103978244D01*
X7613403Y-103988260D01*
X7574596Y-104017567D01*
X7540237Y-104019952D01*
X7504784Y-103995750D01*
X7503886Y-103994857D01*
X7489461Y-103976153D01*
X7480687Y-103950732D01*
X7476261Y-103911584D01*
X7474882Y-103851697D01*
X7474857Y-103838430D01*
X7478188Y-103755901D01*
X7489031Y-103698691D01*
X7508660Y-103663766D01*
X7538350Y-103648094D01*
X7555509Y-103646514D01*
X7596234Y-103653926D01*
X7624168Y-103678330D01*
X7640983Y-103722980D01*
X7648350Y-103791130D01*
X7649029Y-103828603D01*
X7788528Y-103828603D01*
X7788292Y-103815245D01*
X7786323Y-103750333D01*
X7783550Y-103702958D01*
X7779612Y-103669290D01*
X7774151Y-103645498D01*
X7766808Y-103627753D01*
X7757223Y-103612224D01*
X7753113Y-103606381D01*
X7698595Y-103551185D01*
X7629664Y-103519890D01*
X7549928Y-103511165D01*
X7480256Y-103519918D01*
D13*
%TO.C,L2*%
X7358748Y-10695000D02*
X7881252Y-10695000D01*
X7358748Y-12165000D02*
X7881252Y-12165000D01*
%TO.C,L1*%
X28675000Y-4391252D02*
X28675000Y-3868748D01*
X27205000Y-4391252D02*
X27205000Y-3868748D01*
%TO.C,C1*%
X25893752Y-24665000D02*
X25371248Y-24665000D01*
X25893752Y-26135000D02*
X25371248Y-26135000D01*
%TO.C,C5*%
X14978748Y-17045000D02*
X15501252Y-17045000D01*
X14978748Y-18515000D02*
X15501252Y-18515000D01*
%TO.C,C6*%
X15501252Y-11965000D02*
X14978748Y-11965000D01*
X15501252Y-13435000D02*
X14978748Y-13435000D01*
%TO.C,C7*%
X14978748Y-15975000D02*
X15501252Y-15975000D01*
X14978748Y-14505000D02*
X15501252Y-14505000D01*
%TO.C,C8*%
X15501252Y-9425000D02*
X14978748Y-9425000D01*
X15501252Y-10895000D02*
X14978748Y-10895000D01*
%TO.C,C10*%
X14665000Y-47861252D02*
X14665000Y-47338748D01*
X16135000Y-47861252D02*
X16135000Y-47338748D01*
%TO.C,C11*%
X11435000Y-57961252D02*
X11435000Y-57438748D01*
X9965000Y-57961252D02*
X9965000Y-57438748D01*
%TO.C,C12*%
X9965000Y-63761252D02*
X9965000Y-63238748D01*
X11435000Y-63761252D02*
X11435000Y-63238748D01*
%TO.C,C14*%
X17965000Y-42538748D02*
X17965000Y-43061252D01*
X19435000Y-42538748D02*
X19435000Y-43061252D01*
%TO.C,C15*%
X9561252Y-42465000D02*
X9038748Y-42465000D01*
X9561252Y-43935000D02*
X9038748Y-43935000D01*
%TO.C,C16*%
X17238748Y-37765000D02*
X17761252Y-37765000D01*
X17238748Y-39235000D02*
X17761252Y-39235000D01*
%TO.C,C24*%
X19585000Y-68608752D02*
X19585000Y-68086248D01*
X21055000Y-68608752D02*
X21055000Y-68086248D01*
%TO.C,C27*%
X13961252Y-72495000D02*
X13438748Y-72495000D01*
X13961252Y-71025000D02*
X13438748Y-71025000D01*
%TO.C,C29*%
X9035000Y-95571252D02*
X9035000Y-95048748D01*
X7565000Y-95571252D02*
X7565000Y-95048748D01*
%TO.C,C30*%
X16961252Y-90475000D02*
X16438748Y-90475000D01*
X16961252Y-91945000D02*
X16438748Y-91945000D01*
%TO.C,C31*%
X5341252Y-74830000D02*
X4818748Y-74830000D01*
X5341252Y-76300000D02*
X4818748Y-76300000D01*
%TO.C,C32*%
X21561252Y-92810000D02*
X21038748Y-92810000D01*
X21561252Y-91340000D02*
X21038748Y-91340000D01*
%TO.C,C34*%
X11938748Y-86775000D02*
X12461252Y-86775000D01*
X11938748Y-88245000D02*
X12461252Y-88245000D01*
%TO.C,C35*%
X19838748Y-101175000D02*
X20361252Y-101175000D01*
X19838748Y-102645000D02*
X20361252Y-102645000D01*
%TO.C,C36*%
X8165000Y-89171252D02*
X8165000Y-88648748D01*
X9635000Y-89171252D02*
X9635000Y-88648748D01*
%TO.C,D10*%
X18000000Y-75210000D02*
X18000000Y-71310000D01*
X16000000Y-75210000D02*
X16000000Y-71310000D01*
X18000000Y-75210000D02*
X16000000Y-75210000D01*
%TO.C,D11*%
X18000000Y-80510000D02*
X16000000Y-80510000D01*
X16000000Y-80510000D02*
X16000000Y-76610000D01*
X18000000Y-80510000D02*
X18000000Y-76610000D01*
%TO.C,D12*%
X21200000Y-76040000D02*
X19200000Y-76040000D01*
X19200000Y-76040000D02*
X19200000Y-72140000D01*
X21200000Y-76040000D02*
X21200000Y-72140000D01*
%TO.C,D13*%
X13150000Y-69660000D02*
X17050000Y-69660000D01*
X13150000Y-67660000D02*
X17050000Y-67660000D01*
X13150000Y-69660000D02*
X13150000Y-67660000D01*
%TO.C,J1*%
X26330000Y-6610000D02*
X26330000Y-5280000D01*
X25000000Y-6610000D02*
X26330000Y-6610000D01*
X26330000Y-4010000D02*
X26330000Y-1410000D01*
X23730000Y-4010000D02*
X26330000Y-4010000D01*
X23730000Y-6610000D02*
X23730000Y-4010000D01*
X26330000Y-1410000D02*
X13510000Y-1410000D01*
X23730000Y-6610000D02*
X13510000Y-6610000D01*
X13510000Y-6610000D02*
X13510000Y-1410000D01*
%TO.C,FILTER_Q*%
X26610000Y-44510000D02*
X27940000Y-44510000D01*
X26610000Y-43180000D02*
X26610000Y-44510000D01*
X26610000Y-41910000D02*
X29270000Y-41910000D01*
X29270000Y-41910000D02*
X29270000Y-39310000D01*
X26610000Y-41910000D02*
X26610000Y-39310000D01*
X26610000Y-39310000D02*
X29270000Y-39310000D01*
%TO.C,NOISE_TYPE*%
X20260000Y-62170000D02*
X20260000Y-63500000D01*
X21590000Y-62170000D02*
X20260000Y-62170000D01*
X22860000Y-62170000D02*
X22860000Y-64830000D01*
X22860000Y-64830000D02*
X28000000Y-64830000D01*
X22860000Y-62170000D02*
X28000000Y-62170000D01*
X28000000Y-62170000D02*
X28000000Y-64830000D01*
%TO.C,Q1*%
X21720000Y-41150000D02*
X21720000Y-42610000D01*
X24880000Y-41150000D02*
X24880000Y-43310000D01*
X24880000Y-41150000D02*
X23950000Y-41150000D01*
X21720000Y-41150000D02*
X22650000Y-41150000D01*
%TO.C,Q2*%
X22440000Y-48180000D02*
X22440000Y-47250000D01*
X22440000Y-45020000D02*
X22440000Y-45950000D01*
X22440000Y-45020000D02*
X24600000Y-45020000D01*
X22440000Y-48180000D02*
X23900000Y-48180000D01*
%TO.C,Q5*%
X14780000Y-75620000D02*
X14780000Y-74160000D01*
X11620000Y-75620000D02*
X11620000Y-73460000D01*
X11620000Y-75620000D02*
X12550000Y-75620000D01*
X14780000Y-75620000D02*
X13850000Y-75620000D01*
%TO.C,Q6*%
X26260000Y-94030000D02*
X26260000Y-94960000D01*
X26260000Y-97190000D02*
X26260000Y-96260000D01*
X26260000Y-97190000D02*
X24100000Y-97190000D01*
X26260000Y-94030000D02*
X24800000Y-94030000D01*
%TO.C,RV1*%
X4100000Y-63000000D02*
X4100000Y-62300000D01*
X4800000Y-63000000D02*
X4100000Y-63000000D01*
X8600000Y-59600000D02*
X8600000Y-60200000D01*
X5700000Y-59600000D02*
X8600000Y-59600000D01*
X8600000Y-62800000D02*
X8600000Y-62200000D01*
X5700000Y-62800000D02*
X8600000Y-62800000D01*
X4600000Y-61400000D02*
X4600000Y-61000000D01*
%TO.C,RV4*%
X15675000Y-94110000D02*
X16075000Y-94110000D01*
X14275000Y-95210000D02*
X14275000Y-98110000D01*
X14275000Y-98110000D02*
X14875000Y-98110000D01*
X17475000Y-95210000D02*
X17475000Y-98110000D01*
X17475000Y-98110000D02*
X16875000Y-98110000D01*
X14075000Y-94310000D02*
X14075000Y-93610000D01*
X14075000Y-93610000D02*
X14775000Y-93610000D01*
%TO.C,U1*%
X29030000Y-19260000D02*
X28800000Y-19260000D01*
X24310000Y-19260000D02*
X24540000Y-19260000D01*
X24310000Y-19260000D02*
X24310000Y-21980000D01*
X24310000Y-21980000D02*
X25620000Y-21980000D01*
X24540000Y-18120000D02*
X24540000Y-19260000D01*
X29030000Y-21980000D02*
X29030000Y-19260000D01*
X27720000Y-21980000D02*
X29030000Y-21980000D01*
%TO.C,U2*%
X8000000Y-45965000D02*
X9950000Y-45965000D01*
X8000000Y-45965000D02*
X6050000Y-45965000D01*
X8000000Y-54835000D02*
X9950000Y-54835000D01*
X8000000Y-54835000D02*
X4550000Y-54835000D01*
%TO.C,D1*%
X28940000Y-14950000D02*
X28940000Y-11050000D01*
X26940000Y-14950000D02*
X26940000Y-11050000D01*
X28940000Y-14950000D02*
X26940000Y-14950000D01*
%TO.C,D2*%
X3540000Y-13680000D02*
X1540000Y-13680000D01*
X1540000Y-13680000D02*
X1540000Y-9780000D01*
X3540000Y-13680000D02*
X3540000Y-9780000D01*
%TO.C,R1*%
X19592936Y-51160000D02*
X21047064Y-51160000D01*
X19592936Y-52980000D02*
X21047064Y-52980000D01*
%TO.C,R2*%
X20110000Y-48327064D02*
X20110000Y-46872936D01*
X18290000Y-48327064D02*
X18290000Y-46872936D01*
%TO.C,R3*%
X13772936Y-52310000D02*
X15227064Y-52310000D01*
X13772936Y-50490000D02*
X15227064Y-50490000D01*
%TO.C,R5*%
X7077064Y-55990000D02*
X5622936Y-55990000D01*
X7077064Y-57810000D02*
X5622936Y-57810000D01*
%TO.C,R9*%
X23855000Y-53247936D02*
X23855000Y-54702064D01*
X25675000Y-53247936D02*
X25675000Y-54702064D01*
%TO.C,R11*%
X14490000Y-42072936D02*
X14490000Y-43527064D01*
X16310000Y-42072936D02*
X16310000Y-43527064D01*
%TO.C,R27*%
X24442936Y-73770000D02*
X25897064Y-73770000D01*
X24442936Y-71950000D02*
X25897064Y-71950000D01*
%TO.C,R30*%
X25997064Y-68450000D02*
X24542936Y-68450000D01*
X25997064Y-70270000D02*
X24542936Y-70270000D01*
%TO.C,R32*%
X25697064Y-77270000D02*
X24242936Y-77270000D01*
X25697064Y-75450000D02*
X24242936Y-75450000D01*
%TO.C,R35*%
X21210000Y-80102064D02*
X21210000Y-78647936D01*
X19390000Y-80102064D02*
X19390000Y-78647936D01*
%TO.C,R37*%
X18507064Y-87355000D02*
X17052936Y-87355000D01*
X18507064Y-89175000D02*
X17052936Y-89175000D01*
%TO.C,R38*%
X4352936Y-71480000D02*
X5807064Y-71480000D01*
X4352936Y-73300000D02*
X5807064Y-73300000D01*
%TO.C,R39*%
X24410000Y-88937064D02*
X24410000Y-87482936D01*
X22590000Y-88937064D02*
X22590000Y-87482936D01*
%TO.C,R41*%
X7980000Y-73117064D02*
X7980000Y-71662936D01*
X9800000Y-73117064D02*
X9800000Y-71662936D01*
%TO.C,R42*%
X25942936Y-91165000D02*
X27397064Y-91165000D01*
X25942936Y-92985000D02*
X27397064Y-92985000D01*
%TO.C,R45*%
X13427064Y-77830000D02*
X11972936Y-77830000D01*
X13427064Y-79650000D02*
X11972936Y-79650000D01*
%TO.C,R46*%
X21682064Y-99335000D02*
X20227936Y-99335000D01*
X21682064Y-97515000D02*
X20227936Y-97515000D01*
%TO.C,R47*%
X20072936Y-94000000D02*
X21527064Y-94000000D01*
X20072936Y-95820000D02*
X21527064Y-95820000D01*
%TO.C,R49*%
X8540000Y-79437936D02*
X8540000Y-80892064D01*
X6720000Y-79437936D02*
X6720000Y-80892064D01*
%TO.C,R50*%
X12710000Y-94082936D02*
X12710000Y-95537064D01*
X10890000Y-94082936D02*
X10890000Y-95537064D01*
%TO.C,R52*%
X4020000Y-83877936D02*
X4020000Y-85332064D01*
X5840000Y-83877936D02*
X5840000Y-85332064D01*
%TO.C,R53*%
X15027064Y-100000000D02*
X13572936Y-100000000D01*
X15027064Y-101820000D02*
X13572936Y-101820000D01*
%TO.C,R54*%
X4272936Y-89000000D02*
X5727064Y-89000000D01*
X4272936Y-90820000D02*
X5727064Y-90820000D01*
%TO.C,C2*%
X14590000Y-61010000D02*
X14590000Y-58660000D01*
X14590000Y-54190000D02*
X14590000Y-56540000D01*
X20345563Y-54190000D02*
X14590000Y-54190000D01*
X20345563Y-61010000D02*
X14590000Y-61010000D01*
X21410000Y-59945563D02*
X21410000Y-58660000D01*
X21410000Y-55254437D02*
X21410000Y-56540000D01*
X21410000Y-55254437D02*
X20345563Y-54190000D01*
X21410000Y-59945563D02*
X20345563Y-61010000D01*
X22437500Y-55752500D02*
X21650000Y-55752500D01*
X22043750Y-55358750D02*
X22043750Y-56146250D01*
%TO.C,C3*%
X25101250Y-16743750D02*
X24313750Y-16743750D01*
X24707500Y-17137500D02*
X24707500Y-16350000D01*
X20514437Y-16110000D02*
X19450000Y-15045563D01*
X25205563Y-16110000D02*
X26270000Y-15045563D01*
X25205563Y-16110000D02*
X23920000Y-16110000D01*
X20514437Y-16110000D02*
X21800000Y-16110000D01*
X19450000Y-15045563D02*
X19450000Y-9290000D01*
X26270000Y-15045563D02*
X26270000Y-9290000D01*
X26270000Y-9290000D02*
X23920000Y-9290000D01*
X19450000Y-9290000D02*
X21800000Y-9290000D01*
%TO.C,C4*%
X8490000Y-8490000D02*
X6140000Y-8490000D01*
X1670000Y-8490000D02*
X4020000Y-8490000D01*
X1670000Y-2734437D02*
X1670000Y-8490000D01*
X8490000Y-2734437D02*
X8490000Y-8490000D01*
X7425563Y-1670000D02*
X6140000Y-1670000D01*
X2734437Y-1670000D02*
X4020000Y-1670000D01*
X2734437Y-1670000D02*
X1670000Y-2734437D01*
X7425563Y-1670000D02*
X8490000Y-2734437D01*
X3232500Y-642500D02*
X3232500Y-1430000D01*
X2838750Y-1036250D02*
X3626250Y-1036250D01*
%TO.C,C9*%
X16808750Y-18816250D02*
X17596250Y-18816250D01*
X17202500Y-18422500D02*
X17202500Y-19210000D01*
X21395563Y-19450000D02*
X22460000Y-20514437D01*
X16704437Y-19450000D02*
X15640000Y-20514437D01*
X16704437Y-19450000D02*
X17990000Y-19450000D01*
X21395563Y-19450000D02*
X20110000Y-19450000D01*
X22460000Y-20514437D02*
X22460000Y-26270000D01*
X15640000Y-20514437D02*
X15640000Y-26270000D01*
X15640000Y-26270000D02*
X17990000Y-26270000D01*
X22460000Y-26270000D02*
X20110000Y-26270000D01*
%TO.C,L2*%
D10*
X7786666Y-14422380D02*
X8262857Y-14422380D01*
X8262857Y-13422380D01*
X7500952Y-13517619D02*
X7453333Y-13470000D01*
X7358095Y-13422380D01*
X7120000Y-13422380D01*
X7024761Y-13470000D01*
X6977142Y-13517619D01*
X6929523Y-13612857D01*
X6929523Y-13708095D01*
X6977142Y-13850952D01*
X7548571Y-14422380D01*
X6929523Y-14422380D01*
%TO.C,L1*%
X28106666Y-1722380D02*
X28582857Y-1722380D01*
X28582857Y-722380D01*
X27249523Y-1722380D02*
X27820952Y-1722380D01*
X27535238Y-1722380D02*
X27535238Y-722380D01*
X27630476Y-865238D01*
X27725714Y-960476D01*
X27820952Y-1008095D01*
%TO.C,C1*%
X25999166Y-27557142D02*
X26046785Y-27604761D01*
X26189642Y-27652380D01*
X26284880Y-27652380D01*
X26427738Y-27604761D01*
X26522976Y-27509523D01*
X26570595Y-27414285D01*
X26618214Y-27223809D01*
X26618214Y-27080952D01*
X26570595Y-26890476D01*
X26522976Y-26795238D01*
X26427738Y-26700000D01*
X26284880Y-26652380D01*
X26189642Y-26652380D01*
X26046785Y-26700000D01*
X25999166Y-26747619D01*
X25046785Y-27652380D02*
X25618214Y-27652380D01*
X25332500Y-27652380D02*
X25332500Y-26652380D01*
X25427738Y-26795238D01*
X25522976Y-26890476D01*
X25618214Y-26938095D01*
%TO.C,C5*%
X12866666Y-18137142D02*
X12914285Y-18184761D01*
X13057142Y-18232380D01*
X13152380Y-18232380D01*
X13295238Y-18184761D01*
X13390476Y-18089523D01*
X13438095Y-17994285D01*
X13485714Y-17803809D01*
X13485714Y-17660952D01*
X13438095Y-17470476D01*
X13390476Y-17375238D01*
X13295238Y-17280000D01*
X13152380Y-17232380D01*
X13057142Y-17232380D01*
X12914285Y-17280000D01*
X12866666Y-17327619D01*
X11961904Y-17232380D02*
X12438095Y-17232380D01*
X12485714Y-17708571D01*
X12438095Y-17660952D01*
X12342857Y-17613333D01*
X12104761Y-17613333D01*
X12009523Y-17660952D01*
X11961904Y-17708571D01*
X11914285Y-17803809D01*
X11914285Y-18041904D01*
X11961904Y-18137142D01*
X12009523Y-18184761D01*
X12104761Y-18232380D01*
X12342857Y-18232380D01*
X12438095Y-18184761D01*
X12485714Y-18137142D01*
%TO.C,C6*%
X12866666Y-13057142D02*
X12914285Y-13104761D01*
X13057142Y-13152380D01*
X13152380Y-13152380D01*
X13295238Y-13104761D01*
X13390476Y-13009523D01*
X13438095Y-12914285D01*
X13485714Y-12723809D01*
X13485714Y-12580952D01*
X13438095Y-12390476D01*
X13390476Y-12295238D01*
X13295238Y-12200000D01*
X13152380Y-12152380D01*
X13057142Y-12152380D01*
X12914285Y-12200000D01*
X12866666Y-12247619D01*
X12009523Y-12152380D02*
X12200000Y-12152380D01*
X12295238Y-12200000D01*
X12342857Y-12247619D01*
X12438095Y-12390476D01*
X12485714Y-12580952D01*
X12485714Y-12961904D01*
X12438095Y-13057142D01*
X12390476Y-13104761D01*
X12295238Y-13152380D01*
X12104761Y-13152380D01*
X12009523Y-13104761D01*
X11961904Y-13057142D01*
X11914285Y-12961904D01*
X11914285Y-12723809D01*
X11961904Y-12628571D01*
X12009523Y-12580952D01*
X12104761Y-12533333D01*
X12295238Y-12533333D01*
X12390476Y-12580952D01*
X12438095Y-12628571D01*
X12485714Y-12723809D01*
%TO.C,C7*%
X12866666Y-15597142D02*
X12914285Y-15644761D01*
X13057142Y-15692380D01*
X13152380Y-15692380D01*
X13295238Y-15644761D01*
X13390476Y-15549523D01*
X13438095Y-15454285D01*
X13485714Y-15263809D01*
X13485714Y-15120952D01*
X13438095Y-14930476D01*
X13390476Y-14835238D01*
X13295238Y-14740000D01*
X13152380Y-14692380D01*
X13057142Y-14692380D01*
X12914285Y-14740000D01*
X12866666Y-14787619D01*
X12533333Y-14692380D02*
X11866666Y-14692380D01*
X12295238Y-15692380D01*
%TO.C,C8*%
X12866666Y-10617142D02*
X12914285Y-10664761D01*
X13057142Y-10712380D01*
X13152380Y-10712380D01*
X13295238Y-10664761D01*
X13390476Y-10569523D01*
X13438095Y-10474285D01*
X13485714Y-10283809D01*
X13485714Y-10140952D01*
X13438095Y-9950476D01*
X13390476Y-9855238D01*
X13295238Y-9760000D01*
X13152380Y-9712380D01*
X13057142Y-9712380D01*
X12914285Y-9760000D01*
X12866666Y-9807619D01*
X12295238Y-10140952D02*
X12390476Y-10093333D01*
X12438095Y-10045714D01*
X12485714Y-9950476D01*
X12485714Y-9902857D01*
X12438095Y-9807619D01*
X12390476Y-9760000D01*
X12295238Y-9712380D01*
X12104761Y-9712380D01*
X12009523Y-9760000D01*
X11961904Y-9807619D01*
X11914285Y-9902857D01*
X11914285Y-9950476D01*
X11961904Y-10045714D01*
X12009523Y-10093333D01*
X12104761Y-10140952D01*
X12295238Y-10140952D01*
X12390476Y-10188571D01*
X12438095Y-10236190D01*
X12485714Y-10331428D01*
X12485714Y-10521904D01*
X12438095Y-10617142D01*
X12390476Y-10664761D01*
X12295238Y-10712380D01*
X12104761Y-10712380D01*
X12009523Y-10664761D01*
X11961904Y-10617142D01*
X11914285Y-10521904D01*
X11914285Y-10331428D01*
X11961904Y-10236190D01*
X12009523Y-10188571D01*
X12104761Y-10140952D01*
%TO.C,C10*%
X14057142Y-46857142D02*
X14104761Y-46809523D01*
X14152380Y-46666666D01*
X14152380Y-46571428D01*
X14104761Y-46428571D01*
X14009523Y-46333333D01*
X13914285Y-46285714D01*
X13723809Y-46238095D01*
X13580952Y-46238095D01*
X13390476Y-46285714D01*
X13295238Y-46333333D01*
X13200000Y-46428571D01*
X13152380Y-46571428D01*
X13152380Y-46666666D01*
X13200000Y-46809523D01*
X13247619Y-46857142D01*
X14152380Y-47809523D02*
X14152380Y-47238095D01*
X14152380Y-47523809D02*
X13152380Y-47523809D01*
X13295238Y-47428571D01*
X13390476Y-47333333D01*
X13438095Y-47238095D01*
X13152380Y-48428571D02*
X13152380Y-48523809D01*
X13200000Y-48619047D01*
X13247619Y-48666666D01*
X13342857Y-48714285D01*
X13533333Y-48761904D01*
X13771428Y-48761904D01*
X13961904Y-48714285D01*
X14057142Y-48666666D01*
X14104761Y-48619047D01*
X14152380Y-48523809D01*
X14152380Y-48428571D01*
X14104761Y-48333333D01*
X14057142Y-48285714D01*
X13961904Y-48238095D01*
X13771428Y-48190476D01*
X13533333Y-48190476D01*
X13342857Y-48238095D01*
X13247619Y-48285714D01*
X13200000Y-48333333D01*
X13152380Y-48428571D01*
%TO.C,C11*%
X12857142Y-57057142D02*
X12904761Y-57009523D01*
X12952380Y-56866666D01*
X12952380Y-56771428D01*
X12904761Y-56628571D01*
X12809523Y-56533333D01*
X12714285Y-56485714D01*
X12523809Y-56438095D01*
X12380952Y-56438095D01*
X12190476Y-56485714D01*
X12095238Y-56533333D01*
X12000000Y-56628571D01*
X11952380Y-56771428D01*
X11952380Y-56866666D01*
X12000000Y-57009523D01*
X12047619Y-57057142D01*
X12952380Y-58009523D02*
X12952380Y-57438095D01*
X12952380Y-57723809D02*
X11952380Y-57723809D01*
X12095238Y-57628571D01*
X12190476Y-57533333D01*
X12238095Y-57438095D01*
X12952380Y-58961904D02*
X12952380Y-58390476D01*
X12952380Y-58676190D02*
X11952380Y-58676190D01*
X12095238Y-58580952D01*
X12190476Y-58485714D01*
X12238095Y-58390476D01*
%TO.C,C12*%
X12857142Y-62857142D02*
X12904761Y-62809523D01*
X12952380Y-62666666D01*
X12952380Y-62571428D01*
X12904761Y-62428571D01*
X12809523Y-62333333D01*
X12714285Y-62285714D01*
X12523809Y-62238095D01*
X12380952Y-62238095D01*
X12190476Y-62285714D01*
X12095238Y-62333333D01*
X12000000Y-62428571D01*
X11952380Y-62571428D01*
X11952380Y-62666666D01*
X12000000Y-62809523D01*
X12047619Y-62857142D01*
X12952380Y-63809523D02*
X12952380Y-63238095D01*
X12952380Y-63523809D02*
X11952380Y-63523809D01*
X12095238Y-63428571D01*
X12190476Y-63333333D01*
X12238095Y-63238095D01*
X12047619Y-64190476D02*
X12000000Y-64238095D01*
X11952380Y-64333333D01*
X11952380Y-64571428D01*
X12000000Y-64666666D01*
X12047619Y-64714285D01*
X12142857Y-64761904D01*
X12238095Y-64761904D01*
X12380952Y-64714285D01*
X12952380Y-64142857D01*
X12952380Y-64761904D01*
%TO.C,C14*%
X20857142Y-42157142D02*
X20904761Y-42109523D01*
X20952380Y-41966666D01*
X20952380Y-41871428D01*
X20904761Y-41728571D01*
X20809523Y-41633333D01*
X20714285Y-41585714D01*
X20523809Y-41538095D01*
X20380952Y-41538095D01*
X20190476Y-41585714D01*
X20095238Y-41633333D01*
X20000000Y-41728571D01*
X19952380Y-41871428D01*
X19952380Y-41966666D01*
X20000000Y-42109523D01*
X20047619Y-42157142D01*
X20952380Y-43109523D02*
X20952380Y-42538095D01*
X20952380Y-42823809D02*
X19952380Y-42823809D01*
X20095238Y-42728571D01*
X20190476Y-42633333D01*
X20238095Y-42538095D01*
X20285714Y-43966666D02*
X20952380Y-43966666D01*
X19904761Y-43728571D02*
X20619047Y-43490476D01*
X20619047Y-44109523D01*
%TO.C,C15*%
X9942857Y-41877142D02*
X9990476Y-41924761D01*
X10133333Y-41972380D01*
X10228571Y-41972380D01*
X10371428Y-41924761D01*
X10466666Y-41829523D01*
X10514285Y-41734285D01*
X10561904Y-41543809D01*
X10561904Y-41400952D01*
X10514285Y-41210476D01*
X10466666Y-41115238D01*
X10371428Y-41020000D01*
X10228571Y-40972380D01*
X10133333Y-40972380D01*
X9990476Y-41020000D01*
X9942857Y-41067619D01*
X8990476Y-41972380D02*
X9561904Y-41972380D01*
X9276190Y-41972380D02*
X9276190Y-40972380D01*
X9371428Y-41115238D01*
X9466666Y-41210476D01*
X9561904Y-41258095D01*
X8085714Y-40972380D02*
X8561904Y-40972380D01*
X8609523Y-41448571D01*
X8561904Y-41400952D01*
X8466666Y-41353333D01*
X8228571Y-41353333D01*
X8133333Y-41400952D01*
X8085714Y-41448571D01*
X8038095Y-41543809D01*
X8038095Y-41781904D01*
X8085714Y-41877142D01*
X8133333Y-41924761D01*
X8228571Y-41972380D01*
X8466666Y-41972380D01*
X8561904Y-41924761D01*
X8609523Y-41877142D01*
%TO.C,C16*%
X18142857Y-36957142D02*
X18190476Y-37004761D01*
X18333333Y-37052380D01*
X18428571Y-37052380D01*
X18571428Y-37004761D01*
X18666666Y-36909523D01*
X18714285Y-36814285D01*
X18761904Y-36623809D01*
X18761904Y-36480952D01*
X18714285Y-36290476D01*
X18666666Y-36195238D01*
X18571428Y-36100000D01*
X18428571Y-36052380D01*
X18333333Y-36052380D01*
X18190476Y-36100000D01*
X18142857Y-36147619D01*
X17190476Y-37052380D02*
X17761904Y-37052380D01*
X17476190Y-37052380D02*
X17476190Y-36052380D01*
X17571428Y-36195238D01*
X17666666Y-36290476D01*
X17761904Y-36338095D01*
X16333333Y-36052380D02*
X16523809Y-36052380D01*
X16619047Y-36100000D01*
X16666666Y-36147619D01*
X16761904Y-36290476D01*
X16809523Y-36480952D01*
X16809523Y-36861904D01*
X16761904Y-36957142D01*
X16714285Y-37004761D01*
X16619047Y-37052380D01*
X16428571Y-37052380D01*
X16333333Y-37004761D01*
X16285714Y-36957142D01*
X16238095Y-36861904D01*
X16238095Y-36623809D01*
X16285714Y-36528571D01*
X16333333Y-36480952D01*
X16428571Y-36433333D01*
X16619047Y-36433333D01*
X16714285Y-36480952D01*
X16761904Y-36528571D01*
X16809523Y-36623809D01*
%TO.C,C24*%
X18422857Y-66397142D02*
X18470476Y-66444761D01*
X18613333Y-66492380D01*
X18708571Y-66492380D01*
X18851428Y-66444761D01*
X18946666Y-66349523D01*
X18994285Y-66254285D01*
X19041904Y-66063809D01*
X19041904Y-65920952D01*
X18994285Y-65730476D01*
X18946666Y-65635238D01*
X18851428Y-65540000D01*
X18708571Y-65492380D01*
X18613333Y-65492380D01*
X18470476Y-65540000D01*
X18422857Y-65587619D01*
X18041904Y-65587619D02*
X17994285Y-65540000D01*
X17899047Y-65492380D01*
X17660952Y-65492380D01*
X17565714Y-65540000D01*
X17518095Y-65587619D01*
X17470476Y-65682857D01*
X17470476Y-65778095D01*
X17518095Y-65920952D01*
X18089523Y-66492380D01*
X17470476Y-66492380D01*
X16613333Y-65825714D02*
X16613333Y-66492380D01*
X16851428Y-65444761D02*
X17089523Y-66159047D01*
X16470476Y-66159047D01*
%TO.C,C27*%
X12142857Y-70217142D02*
X12190476Y-70264761D01*
X12333333Y-70312380D01*
X12428571Y-70312380D01*
X12571428Y-70264761D01*
X12666666Y-70169523D01*
X12714285Y-70074285D01*
X12761904Y-69883809D01*
X12761904Y-69740952D01*
X12714285Y-69550476D01*
X12666666Y-69455238D01*
X12571428Y-69360000D01*
X12428571Y-69312380D01*
X12333333Y-69312380D01*
X12190476Y-69360000D01*
X12142857Y-69407619D01*
X11761904Y-69407619D02*
X11714285Y-69360000D01*
X11619047Y-69312380D01*
X11380952Y-69312380D01*
X11285714Y-69360000D01*
X11238095Y-69407619D01*
X11190476Y-69502857D01*
X11190476Y-69598095D01*
X11238095Y-69740952D01*
X11809523Y-70312380D01*
X11190476Y-70312380D01*
X10857142Y-69312380D02*
X10190476Y-69312380D01*
X10619047Y-70312380D01*
%TO.C,C29*%
X6957142Y-94367142D02*
X7004761Y-94319523D01*
X7052380Y-94176666D01*
X7052380Y-94081428D01*
X7004761Y-93938571D01*
X6909523Y-93843333D01*
X6814285Y-93795714D01*
X6623809Y-93748095D01*
X6480952Y-93748095D01*
X6290476Y-93795714D01*
X6195238Y-93843333D01*
X6100000Y-93938571D01*
X6052380Y-94081428D01*
X6052380Y-94176666D01*
X6100000Y-94319523D01*
X6147619Y-94367142D01*
X6147619Y-94748095D02*
X6100000Y-94795714D01*
X6052380Y-94890952D01*
X6052380Y-95129047D01*
X6100000Y-95224285D01*
X6147619Y-95271904D01*
X6242857Y-95319523D01*
X6338095Y-95319523D01*
X6480952Y-95271904D01*
X7052380Y-94700476D01*
X7052380Y-95319523D01*
X7052380Y-95795714D02*
X7052380Y-95986190D01*
X7004761Y-96081428D01*
X6957142Y-96129047D01*
X6814285Y-96224285D01*
X6623809Y-96271904D01*
X6242857Y-96271904D01*
X6147619Y-96224285D01*
X6100000Y-96176666D01*
X6052380Y-96081428D01*
X6052380Y-95890952D01*
X6100000Y-95795714D01*
X6147619Y-95748095D01*
X6242857Y-95700476D01*
X6480952Y-95700476D01*
X6576190Y-95748095D01*
X6623809Y-95795714D01*
X6671428Y-95890952D01*
X6671428Y-96081428D01*
X6623809Y-96176666D01*
X6576190Y-96224285D01*
X6480952Y-96271904D01*
%TO.C,C30*%
X13742857Y-91867142D02*
X13790476Y-91914761D01*
X13933333Y-91962380D01*
X14028571Y-91962380D01*
X14171428Y-91914761D01*
X14266666Y-91819523D01*
X14314285Y-91724285D01*
X14361904Y-91533809D01*
X14361904Y-91390952D01*
X14314285Y-91200476D01*
X14266666Y-91105238D01*
X14171428Y-91010000D01*
X14028571Y-90962380D01*
X13933333Y-90962380D01*
X13790476Y-91010000D01*
X13742857Y-91057619D01*
X13409523Y-90962380D02*
X12790476Y-90962380D01*
X13123809Y-91343333D01*
X12980952Y-91343333D01*
X12885714Y-91390952D01*
X12838095Y-91438571D01*
X12790476Y-91533809D01*
X12790476Y-91771904D01*
X12838095Y-91867142D01*
X12885714Y-91914761D01*
X12980952Y-91962380D01*
X13266666Y-91962380D01*
X13361904Y-91914761D01*
X13409523Y-91867142D01*
X12171428Y-90962380D02*
X12076190Y-90962380D01*
X11980952Y-91010000D01*
X11933333Y-91057619D01*
X11885714Y-91152857D01*
X11838095Y-91343333D01*
X11838095Y-91581428D01*
X11885714Y-91771904D01*
X11933333Y-91867142D01*
X11980952Y-91914761D01*
X12076190Y-91962380D01*
X12171428Y-91962380D01*
X12266666Y-91914761D01*
X12314285Y-91867142D01*
X12361904Y-91771904D01*
X12409523Y-91581428D01*
X12409523Y-91343333D01*
X12361904Y-91152857D01*
X12314285Y-91057619D01*
X12266666Y-91010000D01*
X12171428Y-90962380D01*
%TO.C,C31*%
X2322857Y-75922142D02*
X2370476Y-75969761D01*
X2513333Y-76017380D01*
X2608571Y-76017380D01*
X2751428Y-75969761D01*
X2846666Y-75874523D01*
X2894285Y-75779285D01*
X2941904Y-75588809D01*
X2941904Y-75445952D01*
X2894285Y-75255476D01*
X2846666Y-75160238D01*
X2751428Y-75065000D01*
X2608571Y-75017380D01*
X2513333Y-75017380D01*
X2370476Y-75065000D01*
X2322857Y-75112619D01*
X1989523Y-75017380D02*
X1370476Y-75017380D01*
X1703809Y-75398333D01*
X1560952Y-75398333D01*
X1465714Y-75445952D01*
X1418095Y-75493571D01*
X1370476Y-75588809D01*
X1370476Y-75826904D01*
X1418095Y-75922142D01*
X1465714Y-75969761D01*
X1560952Y-76017380D01*
X1846666Y-76017380D01*
X1941904Y-75969761D01*
X1989523Y-75922142D01*
X418095Y-76017380D02*
X989523Y-76017380D01*
X703809Y-76017380D02*
X703809Y-75017380D01*
X799047Y-75160238D01*
X894285Y-75255476D01*
X989523Y-75303095D01*
%TO.C,C32*%
X21350000Y-90725000D02*
X21383333Y-90758333D01*
X21483333Y-90791666D01*
X21550000Y-90791666D01*
X21650000Y-90758333D01*
X21716666Y-90691666D01*
X21750000Y-90625000D01*
X21783333Y-90491666D01*
X21783333Y-90391666D01*
X21750000Y-90258333D01*
X21716666Y-90191666D01*
X21650000Y-90125000D01*
X21550000Y-90091666D01*
X21483333Y-90091666D01*
X21383333Y-90125000D01*
X21350000Y-90158333D01*
X21116666Y-90091666D02*
X20683333Y-90091666D01*
X20916666Y-90358333D01*
X20816666Y-90358333D01*
X20750000Y-90391666D01*
X20716666Y-90425000D01*
X20683333Y-90491666D01*
X20683333Y-90658333D01*
X20716666Y-90725000D01*
X20750000Y-90758333D01*
X20816666Y-90791666D01*
X21016666Y-90791666D01*
X21083333Y-90758333D01*
X21116666Y-90725000D01*
X20416666Y-90158333D02*
X20383333Y-90125000D01*
X20316666Y-90091666D01*
X20150000Y-90091666D01*
X20083333Y-90125000D01*
X20050000Y-90158333D01*
X20016666Y-90225000D01*
X20016666Y-90291666D01*
X20050000Y-90391666D01*
X20450000Y-90791666D01*
X20016666Y-90791666D01*
%TO.C,C34*%
X12842857Y-89547142D02*
X12890476Y-89594761D01*
X13033333Y-89642380D01*
X13128571Y-89642380D01*
X13271428Y-89594761D01*
X13366666Y-89499523D01*
X13414285Y-89404285D01*
X13461904Y-89213809D01*
X13461904Y-89070952D01*
X13414285Y-88880476D01*
X13366666Y-88785238D01*
X13271428Y-88690000D01*
X13128571Y-88642380D01*
X13033333Y-88642380D01*
X12890476Y-88690000D01*
X12842857Y-88737619D01*
X12509523Y-88642380D02*
X11890476Y-88642380D01*
X12223809Y-89023333D01*
X12080952Y-89023333D01*
X11985714Y-89070952D01*
X11938095Y-89118571D01*
X11890476Y-89213809D01*
X11890476Y-89451904D01*
X11938095Y-89547142D01*
X11985714Y-89594761D01*
X12080952Y-89642380D01*
X12366666Y-89642380D01*
X12461904Y-89594761D01*
X12509523Y-89547142D01*
X11033333Y-88975714D02*
X11033333Y-89642380D01*
X11271428Y-88594761D02*
X11509523Y-89309047D01*
X10890476Y-89309047D01*
%TO.C,C35*%
X20742857Y-103947142D02*
X20790476Y-103994761D01*
X20933333Y-104042380D01*
X21028571Y-104042380D01*
X21171428Y-103994761D01*
X21266666Y-103899523D01*
X21314285Y-103804285D01*
X21361904Y-103613809D01*
X21361904Y-103470952D01*
X21314285Y-103280476D01*
X21266666Y-103185238D01*
X21171428Y-103090000D01*
X21028571Y-103042380D01*
X20933333Y-103042380D01*
X20790476Y-103090000D01*
X20742857Y-103137619D01*
X20409523Y-103042380D02*
X19790476Y-103042380D01*
X20123809Y-103423333D01*
X19980952Y-103423333D01*
X19885714Y-103470952D01*
X19838095Y-103518571D01*
X19790476Y-103613809D01*
X19790476Y-103851904D01*
X19838095Y-103947142D01*
X19885714Y-103994761D01*
X19980952Y-104042380D01*
X20266666Y-104042380D01*
X20361904Y-103994761D01*
X20409523Y-103947142D01*
X18885714Y-103042380D02*
X19361904Y-103042380D01*
X19409523Y-103518571D01*
X19361904Y-103470952D01*
X19266666Y-103423333D01*
X19028571Y-103423333D01*
X18933333Y-103470952D01*
X18885714Y-103518571D01*
X18838095Y-103613809D01*
X18838095Y-103851904D01*
X18885714Y-103947142D01*
X18933333Y-103994761D01*
X19028571Y-104042380D01*
X19266666Y-104042380D01*
X19361904Y-103994761D01*
X19409523Y-103947142D01*
%TO.C,C36*%
X9157142Y-91367142D02*
X9204761Y-91319523D01*
X9252380Y-91176666D01*
X9252380Y-91081428D01*
X9204761Y-90938571D01*
X9109523Y-90843333D01*
X9014285Y-90795714D01*
X8823809Y-90748095D01*
X8680952Y-90748095D01*
X8490476Y-90795714D01*
X8395238Y-90843333D01*
X8300000Y-90938571D01*
X8252380Y-91081428D01*
X8252380Y-91176666D01*
X8300000Y-91319523D01*
X8347619Y-91367142D01*
X8252380Y-91700476D02*
X8252380Y-92319523D01*
X8633333Y-91986190D01*
X8633333Y-92129047D01*
X8680952Y-92224285D01*
X8728571Y-92271904D01*
X8823809Y-92319523D01*
X9061904Y-92319523D01*
X9157142Y-92271904D01*
X9204761Y-92224285D01*
X9252380Y-92129047D01*
X9252380Y-91843333D01*
X9204761Y-91748095D01*
X9157142Y-91700476D01*
X8252380Y-93176666D02*
X8252380Y-92986190D01*
X8300000Y-92890952D01*
X8347619Y-92843333D01*
X8490476Y-92748095D01*
X8680952Y-92700476D01*
X9061904Y-92700476D01*
X9157142Y-92748095D01*
X9204761Y-92795714D01*
X9252380Y-92890952D01*
X9252380Y-93081428D01*
X9204761Y-93176666D01*
X9157142Y-93224285D01*
X9061904Y-93271904D01*
X8823809Y-93271904D01*
X8728571Y-93224285D01*
X8680952Y-93176666D01*
X8633333Y-93081428D01*
X8633333Y-92890952D01*
X8680952Y-92795714D01*
X8728571Y-92748095D01*
X8823809Y-92700476D01*
%TO.C,D10*%
X17361904Y-72088571D02*
X16561904Y-72088571D01*
X16561904Y-72279047D01*
X16600000Y-72393333D01*
X16676190Y-72469523D01*
X16752380Y-72507619D01*
X16904761Y-72545714D01*
X17019047Y-72545714D01*
X17171428Y-72507619D01*
X17247619Y-72469523D01*
X17323809Y-72393333D01*
X17361904Y-72279047D01*
X17361904Y-72088571D01*
X17361904Y-73307619D02*
X17361904Y-72850476D01*
X17361904Y-73079047D02*
X16561904Y-73079047D01*
X16676190Y-73002857D01*
X16752380Y-72926666D01*
X16790476Y-72850476D01*
X16561904Y-73802857D02*
X16561904Y-73879047D01*
X16600000Y-73955238D01*
X16638095Y-73993333D01*
X16714285Y-74031428D01*
X16866666Y-74069523D01*
X17057142Y-74069523D01*
X17209523Y-74031428D01*
X17285714Y-73993333D01*
X17323809Y-73955238D01*
X17361904Y-73879047D01*
X17361904Y-73802857D01*
X17323809Y-73726666D01*
X17285714Y-73688571D01*
X17209523Y-73650476D01*
X17057142Y-73612380D01*
X16866666Y-73612380D01*
X16714285Y-73650476D01*
X16638095Y-73688571D01*
X16600000Y-73726666D01*
X16561904Y-73802857D01*
%TO.C,D11*%
X17461904Y-77388571D02*
X16661904Y-77388571D01*
X16661904Y-77579047D01*
X16700000Y-77693333D01*
X16776190Y-77769523D01*
X16852380Y-77807619D01*
X17004761Y-77845714D01*
X17119047Y-77845714D01*
X17271428Y-77807619D01*
X17347619Y-77769523D01*
X17423809Y-77693333D01*
X17461904Y-77579047D01*
X17461904Y-77388571D01*
X17461904Y-78607619D02*
X17461904Y-78150476D01*
X17461904Y-78379047D02*
X16661904Y-78379047D01*
X16776190Y-78302857D01*
X16852380Y-78226666D01*
X16890476Y-78150476D01*
X17461904Y-79369523D02*
X17461904Y-78912380D01*
X17461904Y-79140952D02*
X16661904Y-79140952D01*
X16776190Y-79064761D01*
X16852380Y-78988571D01*
X16890476Y-78912380D01*
%TO.C,D12*%
X20661904Y-72818571D02*
X19861904Y-72818571D01*
X19861904Y-73009047D01*
X19900000Y-73123333D01*
X19976190Y-73199523D01*
X20052380Y-73237619D01*
X20204761Y-73275714D01*
X20319047Y-73275714D01*
X20471428Y-73237619D01*
X20547619Y-73199523D01*
X20623809Y-73123333D01*
X20661904Y-73009047D01*
X20661904Y-72818571D01*
X20661904Y-74037619D02*
X20661904Y-73580476D01*
X20661904Y-73809047D02*
X19861904Y-73809047D01*
X19976190Y-73732857D01*
X20052380Y-73656666D01*
X20090476Y-73580476D01*
X19938095Y-74342380D02*
X19900000Y-74380476D01*
X19861904Y-74456666D01*
X19861904Y-74647142D01*
X19900000Y-74723333D01*
X19938095Y-74761428D01*
X20014285Y-74799523D01*
X20090476Y-74799523D01*
X20204761Y-74761428D01*
X20661904Y-74304285D01*
X20661904Y-74799523D01*
%TO.C,D13*%
X16371428Y-69121904D02*
X16371428Y-68321904D01*
X16180952Y-68321904D01*
X16066666Y-68360000D01*
X15990476Y-68436190D01*
X15952380Y-68512380D01*
X15914285Y-68664761D01*
X15914285Y-68779047D01*
X15952380Y-68931428D01*
X15990476Y-69007619D01*
X16066666Y-69083809D01*
X16180952Y-69121904D01*
X16371428Y-69121904D01*
X15152380Y-69121904D02*
X15609523Y-69121904D01*
X15380952Y-69121904D02*
X15380952Y-68321904D01*
X15457142Y-68436190D01*
X15533333Y-68512380D01*
X15609523Y-68550476D01*
X14885714Y-68321904D02*
X14390476Y-68321904D01*
X14657142Y-68626666D01*
X14542857Y-68626666D01*
X14466666Y-68664761D01*
X14428571Y-68702857D01*
X14390476Y-68779047D01*
X14390476Y-68969523D01*
X14428571Y-69045714D01*
X14466666Y-69083809D01*
X14542857Y-69121904D01*
X14771428Y-69121904D01*
X14847619Y-69083809D01*
X14885714Y-69045714D01*
%TO.C,J1*%
X25193333Y-6542380D02*
X25193333Y-7256666D01*
X25240952Y-7399523D01*
X25336190Y-7494761D01*
X25479047Y-7542380D01*
X25574285Y-7542380D01*
X24193333Y-7542380D02*
X24764761Y-7542380D01*
X24479047Y-7542380D02*
X24479047Y-6542380D01*
X24574285Y-6685238D01*
X24669523Y-6780476D01*
X24764761Y-6828095D01*
%TO.C,FILTER_Q*%
X27868571Y-45521904D02*
X27868571Y-45188571D01*
X28392380Y-45188571D02*
X27392380Y-45188571D01*
X27392380Y-45664761D01*
X28392380Y-46045714D02*
X27392380Y-46045714D01*
X28392380Y-46998095D02*
X28392380Y-46521904D01*
X27392380Y-46521904D01*
X27392380Y-47188571D02*
X27392380Y-47760000D01*
X28392380Y-47474285D02*
X27392380Y-47474285D01*
X27868571Y-48093333D02*
X27868571Y-48426666D01*
X28392380Y-48569523D02*
X28392380Y-48093333D01*
X27392380Y-48093333D01*
X27392380Y-48569523D01*
X28392380Y-49569523D02*
X27916190Y-49236190D01*
X28392380Y-48998095D02*
X27392380Y-48998095D01*
X27392380Y-49379047D01*
X27440000Y-49474285D01*
X27487619Y-49521904D01*
X27582857Y-49569523D01*
X27725714Y-49569523D01*
X27820952Y-49521904D01*
X27868571Y-49474285D01*
X27916190Y-49379047D01*
X27916190Y-48998095D01*
X28487619Y-49760000D02*
X28487619Y-50521904D01*
X28487619Y-51426666D02*
X28440000Y-51331428D01*
X28344761Y-51236190D01*
X28201904Y-51093333D01*
X28154285Y-50998095D01*
X28154285Y-50902857D01*
X28392380Y-50950476D02*
X28344761Y-50855238D01*
X28249523Y-50760000D01*
X28059047Y-50712380D01*
X27725714Y-50712380D01*
X27535238Y-50760000D01*
X27440000Y-50855238D01*
X27392380Y-50950476D01*
X27392380Y-51140952D01*
X27440000Y-51236190D01*
X27535238Y-51331428D01*
X27725714Y-51379047D01*
X28059047Y-51379047D01*
X28249523Y-51331428D01*
X28344761Y-51236190D01*
X28392380Y-51140952D01*
X28392380Y-50950476D01*
%TO.C,NOISE_TYPE*%
X28283333Y-61276666D02*
X28283333Y-60576666D01*
X27883333Y-61276666D01*
X27883333Y-60576666D01*
X27416666Y-60576666D02*
X27283333Y-60576666D01*
X27216666Y-60610000D01*
X27150000Y-60676666D01*
X27116666Y-60810000D01*
X27116666Y-61043333D01*
X27150000Y-61176666D01*
X27216666Y-61243333D01*
X27283333Y-61276666D01*
X27416666Y-61276666D01*
X27483333Y-61243333D01*
X27550000Y-61176666D01*
X27583333Y-61043333D01*
X27583333Y-60810000D01*
X27550000Y-60676666D01*
X27483333Y-60610000D01*
X27416666Y-60576666D01*
X26816666Y-61276666D02*
X26816666Y-60576666D01*
X26516666Y-61243333D02*
X26416666Y-61276666D01*
X26250000Y-61276666D01*
X26183333Y-61243333D01*
X26150000Y-61210000D01*
X26116666Y-61143333D01*
X26116666Y-61076666D01*
X26150000Y-61010000D01*
X26183333Y-60976666D01*
X26250000Y-60943333D01*
X26383333Y-60910000D01*
X26450000Y-60876666D01*
X26483333Y-60843333D01*
X26516666Y-60776666D01*
X26516666Y-60710000D01*
X26483333Y-60643333D01*
X26450000Y-60610000D01*
X26383333Y-60576666D01*
X26216666Y-60576666D01*
X26116666Y-60610000D01*
X25816666Y-60910000D02*
X25583333Y-60910000D01*
X25483333Y-61276666D02*
X25816666Y-61276666D01*
X25816666Y-60576666D01*
X25483333Y-60576666D01*
X25350000Y-61343333D02*
X24816666Y-61343333D01*
X24750000Y-60576666D02*
X24350000Y-60576666D01*
X24550000Y-61276666D02*
X24550000Y-60576666D01*
X23983333Y-60943333D02*
X23983333Y-61276666D01*
X24216666Y-60576666D02*
X23983333Y-60943333D01*
X23750000Y-60576666D01*
X23516666Y-61276666D02*
X23516666Y-60576666D01*
X23250000Y-60576666D01*
X23183333Y-60610000D01*
X23150000Y-60643333D01*
X23116666Y-60710000D01*
X23116666Y-60810000D01*
X23150000Y-60876666D01*
X23183333Y-60910000D01*
X23250000Y-60943333D01*
X23516666Y-60943333D01*
X22816666Y-60910000D02*
X22583333Y-60910000D01*
X22483333Y-61276666D02*
X22816666Y-61276666D01*
X22816666Y-60576666D01*
X22483333Y-60576666D01*
%TO.C,Q1*%
X26347619Y-41814761D02*
X26300000Y-41719523D01*
X26204761Y-41624285D01*
X26061904Y-41481428D01*
X26014285Y-41386190D01*
X26014285Y-41290952D01*
X26252380Y-41338571D02*
X26204761Y-41243333D01*
X26109523Y-41148095D01*
X25919047Y-41100476D01*
X25585714Y-41100476D01*
X25395238Y-41148095D01*
X25300000Y-41243333D01*
X25252380Y-41338571D01*
X25252380Y-41529047D01*
X25300000Y-41624285D01*
X25395238Y-41719523D01*
X25585714Y-41767142D01*
X25919047Y-41767142D01*
X26109523Y-41719523D01*
X26204761Y-41624285D01*
X26252380Y-41529047D01*
X26252380Y-41338571D01*
X26252380Y-42719523D02*
X26252380Y-42148095D01*
X26252380Y-42433809D02*
X25252380Y-42433809D01*
X25395238Y-42338571D01*
X25490476Y-42243333D01*
X25538095Y-42148095D01*
%TO.C,Q2*%
X23295238Y-44647619D02*
X23390476Y-44600000D01*
X23485714Y-44504761D01*
X23628571Y-44361904D01*
X23723809Y-44314285D01*
X23819047Y-44314285D01*
X23771428Y-44552380D02*
X23866666Y-44504761D01*
X23961904Y-44409523D01*
X24009523Y-44219047D01*
X24009523Y-43885714D01*
X23961904Y-43695238D01*
X23866666Y-43600000D01*
X23771428Y-43552380D01*
X23580952Y-43552380D01*
X23485714Y-43600000D01*
X23390476Y-43695238D01*
X23342857Y-43885714D01*
X23342857Y-44219047D01*
X23390476Y-44409523D01*
X23485714Y-44504761D01*
X23580952Y-44552380D01*
X23771428Y-44552380D01*
X22961904Y-43647619D02*
X22914285Y-43600000D01*
X22819047Y-43552380D01*
X22580952Y-43552380D01*
X22485714Y-43600000D01*
X22438095Y-43647619D01*
X22390476Y-43742857D01*
X22390476Y-43838095D01*
X22438095Y-43980952D01*
X23009523Y-44552380D01*
X22390476Y-44552380D01*
%TO.C,Q5*%
X13266666Y-75143333D02*
X13333333Y-75110000D01*
X13400000Y-75043333D01*
X13500000Y-74943333D01*
X13566666Y-74910000D01*
X13633333Y-74910000D01*
X13600000Y-75076666D02*
X13666666Y-75043333D01*
X13733333Y-74976666D01*
X13766666Y-74843333D01*
X13766666Y-74610000D01*
X13733333Y-74476666D01*
X13666666Y-74410000D01*
X13600000Y-74376666D01*
X13466666Y-74376666D01*
X13400000Y-74410000D01*
X13333333Y-74476666D01*
X13300000Y-74610000D01*
X13300000Y-74843333D01*
X13333333Y-74976666D01*
X13400000Y-75043333D01*
X13466666Y-75076666D01*
X13600000Y-75076666D01*
X12666666Y-74376666D02*
X13000000Y-74376666D01*
X13033333Y-74710000D01*
X13000000Y-74676666D01*
X12933333Y-74643333D01*
X12766666Y-74643333D01*
X12700000Y-74676666D01*
X12666666Y-74710000D01*
X12633333Y-74776666D01*
X12633333Y-74943333D01*
X12666666Y-75010000D01*
X12700000Y-75043333D01*
X12766666Y-75076666D01*
X12933333Y-75076666D01*
X13000000Y-75043333D01*
X13033333Y-75010000D01*
%TO.C,Q6*%
X27381190Y-97593095D02*
X27457380Y-97555000D01*
X27533571Y-97478809D01*
X27647857Y-97364523D01*
X27724047Y-97326428D01*
X27800238Y-97326428D01*
X27762142Y-97516904D02*
X27838333Y-97478809D01*
X27914523Y-97402619D01*
X27952619Y-97250238D01*
X27952619Y-96983571D01*
X27914523Y-96831190D01*
X27838333Y-96755000D01*
X27762142Y-96716904D01*
X27609761Y-96716904D01*
X27533571Y-96755000D01*
X27457380Y-96831190D01*
X27419285Y-96983571D01*
X27419285Y-97250238D01*
X27457380Y-97402619D01*
X27533571Y-97478809D01*
X27609761Y-97516904D01*
X27762142Y-97516904D01*
X26733571Y-96716904D02*
X26885952Y-96716904D01*
X26962142Y-96755000D01*
X27000238Y-96793095D01*
X27076428Y-96907380D01*
X27114523Y-97059761D01*
X27114523Y-97364523D01*
X27076428Y-97440714D01*
X27038333Y-97478809D01*
X26962142Y-97516904D01*
X26809761Y-97516904D01*
X26733571Y-97478809D01*
X26695476Y-97440714D01*
X26657380Y-97364523D01*
X26657380Y-97174047D01*
X26695476Y-97097857D01*
X26733571Y-97059761D01*
X26809761Y-97021666D01*
X26962142Y-97021666D01*
X27038333Y-97059761D01*
X27076428Y-97097857D01*
X27114523Y-97174047D01*
%TO.C,RV1*%
X7295238Y-64152380D02*
X7628571Y-63676190D01*
X7866666Y-64152380D02*
X7866666Y-63152380D01*
X7485714Y-63152380D01*
X7390476Y-63200000D01*
X7342857Y-63247619D01*
X7295238Y-63342857D01*
X7295238Y-63485714D01*
X7342857Y-63580952D01*
X7390476Y-63628571D01*
X7485714Y-63676190D01*
X7866666Y-63676190D01*
X7009523Y-63152380D02*
X6676190Y-64152380D01*
X6342857Y-63152380D01*
X5485714Y-64152380D02*
X6057142Y-64152380D01*
X5771428Y-64152380D02*
X5771428Y-63152380D01*
X5866666Y-63295238D01*
X5961904Y-63390476D01*
X6057142Y-63438095D01*
%TO.C,RV4*%
X16351190Y-96471904D02*
X16617857Y-96090952D01*
X16808333Y-96471904D02*
X16808333Y-95671904D01*
X16503571Y-95671904D01*
X16427380Y-95710000D01*
X16389285Y-95748095D01*
X16351190Y-95824285D01*
X16351190Y-95938571D01*
X16389285Y-96014761D01*
X16427380Y-96052857D01*
X16503571Y-96090952D01*
X16808333Y-96090952D01*
X16122619Y-95671904D02*
X15855952Y-96471904D01*
X15589285Y-95671904D01*
X14979761Y-95938571D02*
X14979761Y-96471904D01*
X15170238Y-95633809D02*
X15360714Y-96205238D01*
X14865476Y-96205238D01*
%TO.C,U1*%
X22312380Y-18288095D02*
X23121904Y-18288095D01*
X23217142Y-18335714D01*
X23264761Y-18383333D01*
X23312380Y-18478571D01*
X23312380Y-18669047D01*
X23264761Y-18764285D01*
X23217142Y-18811904D01*
X23121904Y-18859523D01*
X22312380Y-18859523D01*
X23312380Y-19859523D02*
X23312380Y-19288095D01*
X23312380Y-19573809D02*
X22312380Y-19573809D01*
X22455238Y-19478571D01*
X22550476Y-19383333D01*
X22598095Y-19288095D01*
%TO.C,U2*%
X8861904Y-50252380D02*
X8861904Y-51061904D01*
X8814285Y-51157142D01*
X8766666Y-51204761D01*
X8671428Y-51252380D01*
X8480952Y-51252380D01*
X8385714Y-51204761D01*
X8338095Y-51157142D01*
X8290476Y-51061904D01*
X8290476Y-50252380D01*
X7861904Y-50347619D02*
X7814285Y-50300000D01*
X7719047Y-50252380D01*
X7480952Y-50252380D01*
X7385714Y-50300000D01*
X7338095Y-50347619D01*
X7290476Y-50442857D01*
X7290476Y-50538095D01*
X7338095Y-50680952D01*
X7909523Y-51252380D01*
X7290476Y-51252380D01*
%TO.C,D1*%
X28678095Y-9342380D02*
X28678095Y-8342380D01*
X28440000Y-8342380D01*
X28297142Y-8390000D01*
X28201904Y-8485238D01*
X28154285Y-8580476D01*
X28106666Y-8770952D01*
X28106666Y-8913809D01*
X28154285Y-9104285D01*
X28201904Y-9199523D01*
X28297142Y-9294761D01*
X28440000Y-9342380D01*
X28678095Y-9342380D01*
X27154285Y-9342380D02*
X27725714Y-9342380D01*
X27440000Y-9342380D02*
X27440000Y-8342380D01*
X27535238Y-8485238D01*
X27630476Y-8580476D01*
X27725714Y-8628095D01*
%TO.C,D2*%
X4992380Y-10691904D02*
X3992380Y-10691904D01*
X3992380Y-10930000D01*
X4040000Y-11072857D01*
X4135238Y-11168095D01*
X4230476Y-11215714D01*
X4420952Y-11263333D01*
X4563809Y-11263333D01*
X4754285Y-11215714D01*
X4849523Y-11168095D01*
X4944761Y-11072857D01*
X4992380Y-10930000D01*
X4992380Y-10691904D01*
X4087619Y-11644285D02*
X4040000Y-11691904D01*
X3992380Y-11787142D01*
X3992380Y-12025238D01*
X4040000Y-12120476D01*
X4087619Y-12168095D01*
X4182857Y-12215714D01*
X4278095Y-12215714D01*
X4420952Y-12168095D01*
X4992380Y-11596666D01*
X4992380Y-12215714D01*
%TO.C,R1*%
X22391666Y-50617380D02*
X22725000Y-50141190D01*
X22963095Y-50617380D02*
X22963095Y-49617380D01*
X22582142Y-49617380D01*
X22486904Y-49665000D01*
X22439285Y-49712619D01*
X22391666Y-49807857D01*
X22391666Y-49950714D01*
X22439285Y-50045952D01*
X22486904Y-50093571D01*
X22582142Y-50141190D01*
X22963095Y-50141190D01*
X21439285Y-50617380D02*
X22010714Y-50617380D01*
X21725000Y-50617380D02*
X21725000Y-49617380D01*
X21820238Y-49760238D01*
X21915476Y-49855476D01*
X22010714Y-49903095D01*
%TO.C,R2*%
X21472380Y-47433333D02*
X20996190Y-47100000D01*
X21472380Y-46861904D02*
X20472380Y-46861904D01*
X20472380Y-47242857D01*
X20520000Y-47338095D01*
X20567619Y-47385714D01*
X20662857Y-47433333D01*
X20805714Y-47433333D01*
X20900952Y-47385714D01*
X20948571Y-47338095D01*
X20996190Y-47242857D01*
X20996190Y-46861904D01*
X20567619Y-47814285D02*
X20520000Y-47861904D01*
X20472380Y-47957142D01*
X20472380Y-48195238D01*
X20520000Y-48290476D01*
X20567619Y-48338095D01*
X20662857Y-48385714D01*
X20758095Y-48385714D01*
X20900952Y-48338095D01*
X21472380Y-47766666D01*
X21472380Y-48385714D01*
%TO.C,R3*%
X14666666Y-53672380D02*
X15000000Y-53196190D01*
X15238095Y-53672380D02*
X15238095Y-52672380D01*
X14857142Y-52672380D01*
X14761904Y-52720000D01*
X14714285Y-52767619D01*
X14666666Y-52862857D01*
X14666666Y-53005714D01*
X14714285Y-53100952D01*
X14761904Y-53148571D01*
X14857142Y-53196190D01*
X15238095Y-53196190D01*
X14333333Y-52672380D02*
X13714285Y-52672380D01*
X14047619Y-53053333D01*
X13904761Y-53053333D01*
X13809523Y-53100952D01*
X13761904Y-53148571D01*
X13714285Y-53243809D01*
X13714285Y-53481904D01*
X13761904Y-53577142D01*
X13809523Y-53624761D01*
X13904761Y-53672380D01*
X14190476Y-53672380D01*
X14285714Y-53624761D01*
X14333333Y-53577142D01*
%TO.C,R5*%
X6516666Y-55532380D02*
X6850000Y-55056190D01*
X7088095Y-55532380D02*
X7088095Y-54532380D01*
X6707142Y-54532380D01*
X6611904Y-54580000D01*
X6564285Y-54627619D01*
X6516666Y-54722857D01*
X6516666Y-54865714D01*
X6564285Y-54960952D01*
X6611904Y-55008571D01*
X6707142Y-55056190D01*
X7088095Y-55056190D01*
X5611904Y-54532380D02*
X6088095Y-54532380D01*
X6135714Y-55008571D01*
X6088095Y-54960952D01*
X5992857Y-54913333D01*
X5754761Y-54913333D01*
X5659523Y-54960952D01*
X5611904Y-55008571D01*
X5564285Y-55103809D01*
X5564285Y-55341904D01*
X5611904Y-55437142D01*
X5659523Y-55484761D01*
X5754761Y-55532380D01*
X5992857Y-55532380D01*
X6088095Y-55484761D01*
X6135714Y-55437142D01*
%TO.C,R9*%
X23397380Y-53808333D02*
X22921190Y-53475000D01*
X23397380Y-53236904D02*
X22397380Y-53236904D01*
X22397380Y-53617857D01*
X22445000Y-53713095D01*
X22492619Y-53760714D01*
X22587857Y-53808333D01*
X22730714Y-53808333D01*
X22825952Y-53760714D01*
X22873571Y-53713095D01*
X22921190Y-53617857D01*
X22921190Y-53236904D01*
X23397380Y-54284523D02*
X23397380Y-54475000D01*
X23349761Y-54570238D01*
X23302142Y-54617857D01*
X23159285Y-54713095D01*
X22968809Y-54760714D01*
X22587857Y-54760714D01*
X22492619Y-54713095D01*
X22445000Y-54665476D01*
X22397380Y-54570238D01*
X22397380Y-54379761D01*
X22445000Y-54284523D01*
X22492619Y-54236904D01*
X22587857Y-54189285D01*
X22825952Y-54189285D01*
X22921190Y-54236904D01*
X22968809Y-54284523D01*
X23016428Y-54379761D01*
X23016428Y-54570238D01*
X22968809Y-54665476D01*
X22921190Y-54713095D01*
X22825952Y-54760714D01*
%TO.C,R11*%
X14032380Y-42157142D02*
X13556190Y-41823809D01*
X14032380Y-41585714D02*
X13032380Y-41585714D01*
X13032380Y-41966666D01*
X13080000Y-42061904D01*
X13127619Y-42109523D01*
X13222857Y-42157142D01*
X13365714Y-42157142D01*
X13460952Y-42109523D01*
X13508571Y-42061904D01*
X13556190Y-41966666D01*
X13556190Y-41585714D01*
X14032380Y-43109523D02*
X14032380Y-42538095D01*
X14032380Y-42823809D02*
X13032380Y-42823809D01*
X13175238Y-42728571D01*
X13270476Y-42633333D01*
X13318095Y-42538095D01*
X14032380Y-44061904D02*
X14032380Y-43490476D01*
X14032380Y-43776190D02*
X13032380Y-43776190D01*
X13175238Y-43680952D01*
X13270476Y-43585714D01*
X13318095Y-43490476D01*
%TO.C,R27*%
X25684285Y-75041904D02*
X25950952Y-74660952D01*
X26141428Y-75041904D02*
X26141428Y-74241904D01*
X25836666Y-74241904D01*
X25760476Y-74280000D01*
X25722380Y-74318095D01*
X25684285Y-74394285D01*
X25684285Y-74508571D01*
X25722380Y-74584761D01*
X25760476Y-74622857D01*
X25836666Y-74660952D01*
X26141428Y-74660952D01*
X25379523Y-74318095D02*
X25341428Y-74280000D01*
X25265238Y-74241904D01*
X25074761Y-74241904D01*
X24998571Y-74280000D01*
X24960476Y-74318095D01*
X24922380Y-74394285D01*
X24922380Y-74470476D01*
X24960476Y-74584761D01*
X25417619Y-75041904D01*
X24922380Y-75041904D01*
X24655714Y-74241904D02*
X24122380Y-74241904D01*
X24465238Y-75041904D01*
%TO.C,R30*%
X25784285Y-71481904D02*
X26050952Y-71100952D01*
X26241428Y-71481904D02*
X26241428Y-70681904D01*
X25936666Y-70681904D01*
X25860476Y-70720000D01*
X25822380Y-70758095D01*
X25784285Y-70834285D01*
X25784285Y-70948571D01*
X25822380Y-71024761D01*
X25860476Y-71062857D01*
X25936666Y-71100952D01*
X26241428Y-71100952D01*
X25517619Y-70681904D02*
X25022380Y-70681904D01*
X25289047Y-70986666D01*
X25174761Y-70986666D01*
X25098571Y-71024761D01*
X25060476Y-71062857D01*
X25022380Y-71139047D01*
X25022380Y-71329523D01*
X25060476Y-71405714D01*
X25098571Y-71443809D01*
X25174761Y-71481904D01*
X25403333Y-71481904D01*
X25479523Y-71443809D01*
X25517619Y-71405714D01*
X24527142Y-70681904D02*
X24450952Y-70681904D01*
X24374761Y-70720000D01*
X24336666Y-70758095D01*
X24298571Y-70834285D01*
X24260476Y-70986666D01*
X24260476Y-71177142D01*
X24298571Y-71329523D01*
X24336666Y-71405714D01*
X24374761Y-71443809D01*
X24450952Y-71481904D01*
X24527142Y-71481904D01*
X24603333Y-71443809D01*
X24641428Y-71405714D01*
X24679523Y-71329523D01*
X24717619Y-71177142D01*
X24717619Y-70986666D01*
X24679523Y-70834285D01*
X24641428Y-70758095D01*
X24603333Y-70720000D01*
X24527142Y-70681904D01*
%TO.C,R32*%
X25612857Y-79192380D02*
X25946190Y-78716190D01*
X26184285Y-79192380D02*
X26184285Y-78192380D01*
X25803333Y-78192380D01*
X25708095Y-78240000D01*
X25660476Y-78287619D01*
X25612857Y-78382857D01*
X25612857Y-78525714D01*
X25660476Y-78620952D01*
X25708095Y-78668571D01*
X25803333Y-78716190D01*
X26184285Y-78716190D01*
X25279523Y-78192380D02*
X24660476Y-78192380D01*
X24993809Y-78573333D01*
X24850952Y-78573333D01*
X24755714Y-78620952D01*
X24708095Y-78668571D01*
X24660476Y-78763809D01*
X24660476Y-79001904D01*
X24708095Y-79097142D01*
X24755714Y-79144761D01*
X24850952Y-79192380D01*
X25136666Y-79192380D01*
X25231904Y-79144761D01*
X25279523Y-79097142D01*
X24279523Y-78287619D02*
X24231904Y-78240000D01*
X24136666Y-78192380D01*
X23898571Y-78192380D01*
X23803333Y-78240000D01*
X23755714Y-78287619D01*
X23708095Y-78382857D01*
X23708095Y-78478095D01*
X23755714Y-78620952D01*
X24327142Y-79192380D01*
X23708095Y-79192380D01*
%TO.C,R35*%
X22572380Y-78732142D02*
X22096190Y-78398809D01*
X22572380Y-78160714D02*
X21572380Y-78160714D01*
X21572380Y-78541666D01*
X21620000Y-78636904D01*
X21667619Y-78684523D01*
X21762857Y-78732142D01*
X21905714Y-78732142D01*
X22000952Y-78684523D01*
X22048571Y-78636904D01*
X22096190Y-78541666D01*
X22096190Y-78160714D01*
X21572380Y-79065476D02*
X21572380Y-79684523D01*
X21953333Y-79351190D01*
X21953333Y-79494047D01*
X22000952Y-79589285D01*
X22048571Y-79636904D01*
X22143809Y-79684523D01*
X22381904Y-79684523D01*
X22477142Y-79636904D01*
X22524761Y-79589285D01*
X22572380Y-79494047D01*
X22572380Y-79208333D01*
X22524761Y-79113095D01*
X22477142Y-79065476D01*
X21572380Y-80589285D02*
X21572380Y-80113095D01*
X22048571Y-80065476D01*
X22000952Y-80113095D01*
X21953333Y-80208333D01*
X21953333Y-80446428D01*
X22000952Y-80541666D01*
X22048571Y-80589285D01*
X22143809Y-80636904D01*
X22381904Y-80636904D01*
X22477142Y-80589285D01*
X22524761Y-80541666D01*
X22572380Y-80446428D01*
X22572380Y-80208333D01*
X22524761Y-80113095D01*
X22477142Y-80065476D01*
%TO.C,R37*%
X18422857Y-86897380D02*
X18756190Y-86421190D01*
X18994285Y-86897380D02*
X18994285Y-85897380D01*
X18613333Y-85897380D01*
X18518095Y-85945000D01*
X18470476Y-85992619D01*
X18422857Y-86087857D01*
X18422857Y-86230714D01*
X18470476Y-86325952D01*
X18518095Y-86373571D01*
X18613333Y-86421190D01*
X18994285Y-86421190D01*
X18089523Y-85897380D02*
X17470476Y-85897380D01*
X17803809Y-86278333D01*
X17660952Y-86278333D01*
X17565714Y-86325952D01*
X17518095Y-86373571D01*
X17470476Y-86468809D01*
X17470476Y-86706904D01*
X17518095Y-86802142D01*
X17565714Y-86849761D01*
X17660952Y-86897380D01*
X17946666Y-86897380D01*
X18041904Y-86849761D01*
X18089523Y-86802142D01*
X17137142Y-85897380D02*
X16470476Y-85897380D01*
X16899047Y-86897380D01*
%TO.C,R38*%
X5722857Y-74662380D02*
X6056190Y-74186190D01*
X6294285Y-74662380D02*
X6294285Y-73662380D01*
X5913333Y-73662380D01*
X5818095Y-73710000D01*
X5770476Y-73757619D01*
X5722857Y-73852857D01*
X5722857Y-73995714D01*
X5770476Y-74090952D01*
X5818095Y-74138571D01*
X5913333Y-74186190D01*
X6294285Y-74186190D01*
X5389523Y-73662380D02*
X4770476Y-73662380D01*
X5103809Y-74043333D01*
X4960952Y-74043333D01*
X4865714Y-74090952D01*
X4818095Y-74138571D01*
X4770476Y-74233809D01*
X4770476Y-74471904D01*
X4818095Y-74567142D01*
X4865714Y-74614761D01*
X4960952Y-74662380D01*
X5246666Y-74662380D01*
X5341904Y-74614761D01*
X5389523Y-74567142D01*
X4199047Y-74090952D02*
X4294285Y-74043333D01*
X4341904Y-73995714D01*
X4389523Y-73900476D01*
X4389523Y-73852857D01*
X4341904Y-73757619D01*
X4294285Y-73710000D01*
X4199047Y-73662380D01*
X4008571Y-73662380D01*
X3913333Y-73710000D01*
X3865714Y-73757619D01*
X3818095Y-73852857D01*
X3818095Y-73900476D01*
X3865714Y-73995714D01*
X3913333Y-74043333D01*
X4008571Y-74090952D01*
X4199047Y-74090952D01*
X4294285Y-74138571D01*
X4341904Y-74186190D01*
X4389523Y-74281428D01*
X4389523Y-74471904D01*
X4341904Y-74567142D01*
X4294285Y-74614761D01*
X4199047Y-74662380D01*
X4008571Y-74662380D01*
X3913333Y-74614761D01*
X3865714Y-74567142D01*
X3818095Y-74471904D01*
X3818095Y-74281428D01*
X3865714Y-74186190D01*
X3913333Y-74138571D01*
X4008571Y-74090952D01*
%TO.C,R39*%
X25772380Y-87567142D02*
X25296190Y-87233809D01*
X25772380Y-86995714D02*
X24772380Y-86995714D01*
X24772380Y-87376666D01*
X24820000Y-87471904D01*
X24867619Y-87519523D01*
X24962857Y-87567142D01*
X25105714Y-87567142D01*
X25200952Y-87519523D01*
X25248571Y-87471904D01*
X25296190Y-87376666D01*
X25296190Y-86995714D01*
X24772380Y-87900476D02*
X24772380Y-88519523D01*
X25153333Y-88186190D01*
X25153333Y-88329047D01*
X25200952Y-88424285D01*
X25248571Y-88471904D01*
X25343809Y-88519523D01*
X25581904Y-88519523D01*
X25677142Y-88471904D01*
X25724761Y-88424285D01*
X25772380Y-88329047D01*
X25772380Y-88043333D01*
X25724761Y-87948095D01*
X25677142Y-87900476D01*
X25772380Y-88995714D02*
X25772380Y-89186190D01*
X25724761Y-89281428D01*
X25677142Y-89329047D01*
X25534285Y-89424285D01*
X25343809Y-89471904D01*
X24962857Y-89471904D01*
X24867619Y-89424285D01*
X24820000Y-89376666D01*
X24772380Y-89281428D01*
X24772380Y-89090952D01*
X24820000Y-88995714D01*
X24867619Y-88948095D01*
X24962857Y-88900476D01*
X25200952Y-88900476D01*
X25296190Y-88948095D01*
X25343809Y-88995714D01*
X25391428Y-89090952D01*
X25391428Y-89281428D01*
X25343809Y-89376666D01*
X25296190Y-89424285D01*
X25200952Y-89471904D01*
%TO.C,R41*%
X11162380Y-71747142D02*
X10686190Y-71413809D01*
X11162380Y-71175714D02*
X10162380Y-71175714D01*
X10162380Y-71556666D01*
X10210000Y-71651904D01*
X10257619Y-71699523D01*
X10352857Y-71747142D01*
X10495714Y-71747142D01*
X10590952Y-71699523D01*
X10638571Y-71651904D01*
X10686190Y-71556666D01*
X10686190Y-71175714D01*
X10495714Y-72604285D02*
X11162380Y-72604285D01*
X10114761Y-72366190D02*
X10829047Y-72128095D01*
X10829047Y-72747142D01*
X11162380Y-73651904D02*
X11162380Y-73080476D01*
X11162380Y-73366190D02*
X10162380Y-73366190D01*
X10305238Y-73270952D01*
X10400476Y-73175714D01*
X10448095Y-73080476D01*
%TO.C,R42*%
X28325714Y-90441428D02*
X28525714Y-90155714D01*
X28668571Y-90441428D02*
X28668571Y-89841428D01*
X28440000Y-89841428D01*
X28382857Y-89870000D01*
X28354285Y-89898571D01*
X28325714Y-89955714D01*
X28325714Y-90041428D01*
X28354285Y-90098571D01*
X28382857Y-90127142D01*
X28440000Y-90155714D01*
X28668571Y-90155714D01*
X27811428Y-90041428D02*
X27811428Y-90441428D01*
X27954285Y-89812857D02*
X28097142Y-90241428D01*
X27725714Y-90241428D01*
X27525714Y-89898571D02*
X27497142Y-89870000D01*
X27440000Y-89841428D01*
X27297142Y-89841428D01*
X27240000Y-89870000D01*
X27211428Y-89898571D01*
X27182857Y-89955714D01*
X27182857Y-90012857D01*
X27211428Y-90098571D01*
X27554285Y-90441428D01*
X27182857Y-90441428D01*
%TO.C,R45*%
X13342857Y-77372380D02*
X13676190Y-76896190D01*
X13914285Y-77372380D02*
X13914285Y-76372380D01*
X13533333Y-76372380D01*
X13438095Y-76420000D01*
X13390476Y-76467619D01*
X13342857Y-76562857D01*
X13342857Y-76705714D01*
X13390476Y-76800952D01*
X13438095Y-76848571D01*
X13533333Y-76896190D01*
X13914285Y-76896190D01*
X12485714Y-76705714D02*
X12485714Y-77372380D01*
X12723809Y-76324761D02*
X12961904Y-77039047D01*
X12342857Y-77039047D01*
X11485714Y-76372380D02*
X11961904Y-76372380D01*
X12009523Y-76848571D01*
X11961904Y-76800952D01*
X11866666Y-76753333D01*
X11628571Y-76753333D01*
X11533333Y-76800952D01*
X11485714Y-76848571D01*
X11438095Y-76943809D01*
X11438095Y-77181904D01*
X11485714Y-77277142D01*
X11533333Y-77324761D01*
X11628571Y-77372380D01*
X11866666Y-77372380D01*
X11961904Y-77324761D01*
X12009523Y-77277142D01*
%TO.C,R46*%
X21340714Y-100601428D02*
X21540714Y-100315714D01*
X21683571Y-100601428D02*
X21683571Y-100001428D01*
X21455000Y-100001428D01*
X21397857Y-100030000D01*
X21369285Y-100058571D01*
X21340714Y-100115714D01*
X21340714Y-100201428D01*
X21369285Y-100258571D01*
X21397857Y-100287142D01*
X21455000Y-100315714D01*
X21683571Y-100315714D01*
X20826428Y-100201428D02*
X20826428Y-100601428D01*
X20969285Y-99972857D02*
X21112142Y-100401428D01*
X20740714Y-100401428D01*
X20255000Y-100001428D02*
X20369285Y-100001428D01*
X20426428Y-100030000D01*
X20455000Y-100058571D01*
X20512142Y-100144285D01*
X20540714Y-100258571D01*
X20540714Y-100487142D01*
X20512142Y-100544285D01*
X20483571Y-100572857D01*
X20426428Y-100601428D01*
X20312142Y-100601428D01*
X20255000Y-100572857D01*
X20226428Y-100544285D01*
X20197857Y-100487142D01*
X20197857Y-100344285D01*
X20226428Y-100287142D01*
X20255000Y-100258571D01*
X20312142Y-100230000D01*
X20426428Y-100230000D01*
X20483571Y-100258571D01*
X20512142Y-100287142D01*
X20540714Y-100344285D01*
%TO.C,R47*%
X21185714Y-97001428D02*
X21385714Y-96715714D01*
X21528571Y-97001428D02*
X21528571Y-96401428D01*
X21300000Y-96401428D01*
X21242857Y-96430000D01*
X21214285Y-96458571D01*
X21185714Y-96515714D01*
X21185714Y-96601428D01*
X21214285Y-96658571D01*
X21242857Y-96687142D01*
X21300000Y-96715714D01*
X21528571Y-96715714D01*
X20671428Y-96601428D02*
X20671428Y-97001428D01*
X20814285Y-96372857D02*
X20957142Y-96801428D01*
X20585714Y-96801428D01*
X20414285Y-96401428D02*
X20014285Y-96401428D01*
X20271428Y-97001428D01*
%TO.C,R49*%
X6262380Y-79522142D02*
X5786190Y-79188809D01*
X6262380Y-78950714D02*
X5262380Y-78950714D01*
X5262380Y-79331666D01*
X5310000Y-79426904D01*
X5357619Y-79474523D01*
X5452857Y-79522142D01*
X5595714Y-79522142D01*
X5690952Y-79474523D01*
X5738571Y-79426904D01*
X5786190Y-79331666D01*
X5786190Y-78950714D01*
X5595714Y-80379285D02*
X6262380Y-80379285D01*
X5214761Y-80141190D02*
X5929047Y-79903095D01*
X5929047Y-80522142D01*
X6262380Y-80950714D02*
X6262380Y-81141190D01*
X6214761Y-81236428D01*
X6167142Y-81284047D01*
X6024285Y-81379285D01*
X5833809Y-81426904D01*
X5452857Y-81426904D01*
X5357619Y-81379285D01*
X5310000Y-81331666D01*
X5262380Y-81236428D01*
X5262380Y-81045952D01*
X5310000Y-80950714D01*
X5357619Y-80903095D01*
X5452857Y-80855476D01*
X5690952Y-80855476D01*
X5786190Y-80903095D01*
X5833809Y-80950714D01*
X5881428Y-81045952D01*
X5881428Y-81236428D01*
X5833809Y-81331666D01*
X5786190Y-81379285D01*
X5690952Y-81426904D01*
%TO.C,R50*%
X10432380Y-94167142D02*
X9956190Y-93833809D01*
X10432380Y-93595714D02*
X9432380Y-93595714D01*
X9432380Y-93976666D01*
X9480000Y-94071904D01*
X9527619Y-94119523D01*
X9622857Y-94167142D01*
X9765714Y-94167142D01*
X9860952Y-94119523D01*
X9908571Y-94071904D01*
X9956190Y-93976666D01*
X9956190Y-93595714D01*
X9432380Y-95071904D02*
X9432380Y-94595714D01*
X9908571Y-94548095D01*
X9860952Y-94595714D01*
X9813333Y-94690952D01*
X9813333Y-94929047D01*
X9860952Y-95024285D01*
X9908571Y-95071904D01*
X10003809Y-95119523D01*
X10241904Y-95119523D01*
X10337142Y-95071904D01*
X10384761Y-95024285D01*
X10432380Y-94929047D01*
X10432380Y-94690952D01*
X10384761Y-94595714D01*
X10337142Y-94548095D01*
X9432380Y-95738571D02*
X9432380Y-95833809D01*
X9480000Y-95929047D01*
X9527619Y-95976666D01*
X9622857Y-96024285D01*
X9813333Y-96071904D01*
X10051428Y-96071904D01*
X10241904Y-96024285D01*
X10337142Y-95976666D01*
X10384761Y-95929047D01*
X10432380Y-95833809D01*
X10432380Y-95738571D01*
X10384761Y-95643333D01*
X10337142Y-95595714D01*
X10241904Y-95548095D01*
X10051428Y-95500476D01*
X9813333Y-95500476D01*
X9622857Y-95548095D01*
X9527619Y-95595714D01*
X9480000Y-95643333D01*
X9432380Y-95738571D01*
%TO.C,R52*%
X3562380Y-83962142D02*
X3086190Y-83628809D01*
X3562380Y-83390714D02*
X2562380Y-83390714D01*
X2562380Y-83771666D01*
X2610000Y-83866904D01*
X2657619Y-83914523D01*
X2752857Y-83962142D01*
X2895714Y-83962142D01*
X2990952Y-83914523D01*
X3038571Y-83866904D01*
X3086190Y-83771666D01*
X3086190Y-83390714D01*
X2562380Y-84866904D02*
X2562380Y-84390714D01*
X3038571Y-84343095D01*
X2990952Y-84390714D01*
X2943333Y-84485952D01*
X2943333Y-84724047D01*
X2990952Y-84819285D01*
X3038571Y-84866904D01*
X3133809Y-84914523D01*
X3371904Y-84914523D01*
X3467142Y-84866904D01*
X3514761Y-84819285D01*
X3562380Y-84724047D01*
X3562380Y-84485952D01*
X3514761Y-84390714D01*
X3467142Y-84343095D01*
X2657619Y-85295476D02*
X2610000Y-85343095D01*
X2562380Y-85438333D01*
X2562380Y-85676428D01*
X2610000Y-85771666D01*
X2657619Y-85819285D01*
X2752857Y-85866904D01*
X2848095Y-85866904D01*
X2990952Y-85819285D01*
X3562380Y-85247857D01*
X3562380Y-85866904D01*
%TO.C,R53*%
X14942857Y-99542380D02*
X15276190Y-99066190D01*
X15514285Y-99542380D02*
X15514285Y-98542380D01*
X15133333Y-98542380D01*
X15038095Y-98590000D01*
X14990476Y-98637619D01*
X14942857Y-98732857D01*
X14942857Y-98875714D01*
X14990476Y-98970952D01*
X15038095Y-99018571D01*
X15133333Y-99066190D01*
X15514285Y-99066190D01*
X14038095Y-98542380D02*
X14514285Y-98542380D01*
X14561904Y-99018571D01*
X14514285Y-98970952D01*
X14419047Y-98923333D01*
X14180952Y-98923333D01*
X14085714Y-98970952D01*
X14038095Y-99018571D01*
X13990476Y-99113809D01*
X13990476Y-99351904D01*
X14038095Y-99447142D01*
X14085714Y-99494761D01*
X14180952Y-99542380D01*
X14419047Y-99542380D01*
X14514285Y-99494761D01*
X14561904Y-99447142D01*
X13657142Y-98542380D02*
X13038095Y-98542380D01*
X13371428Y-98923333D01*
X13228571Y-98923333D01*
X13133333Y-98970952D01*
X13085714Y-99018571D01*
X13038095Y-99113809D01*
X13038095Y-99351904D01*
X13085714Y-99447142D01*
X13133333Y-99494761D01*
X13228571Y-99542380D01*
X13514285Y-99542380D01*
X13609523Y-99494761D01*
X13657142Y-99447142D01*
%TO.C,R54*%
X5642857Y-92182380D02*
X5976190Y-91706190D01*
X6214285Y-92182380D02*
X6214285Y-91182380D01*
X5833333Y-91182380D01*
X5738095Y-91230000D01*
X5690476Y-91277619D01*
X5642857Y-91372857D01*
X5642857Y-91515714D01*
X5690476Y-91610952D01*
X5738095Y-91658571D01*
X5833333Y-91706190D01*
X6214285Y-91706190D01*
X4738095Y-91182380D02*
X5214285Y-91182380D01*
X5261904Y-91658571D01*
X5214285Y-91610952D01*
X5119047Y-91563333D01*
X4880952Y-91563333D01*
X4785714Y-91610952D01*
X4738095Y-91658571D01*
X4690476Y-91753809D01*
X4690476Y-91991904D01*
X4738095Y-92087142D01*
X4785714Y-92134761D01*
X4880952Y-92182380D01*
X5119047Y-92182380D01*
X5214285Y-92134761D01*
X5261904Y-92087142D01*
X3833333Y-91515714D02*
X3833333Y-92182380D01*
X4071428Y-91134761D02*
X4309523Y-91849047D01*
X3690476Y-91849047D01*
%TO.C,C2*%
X18166666Y-53607142D02*
X18214285Y-53654761D01*
X18357142Y-53702380D01*
X18452380Y-53702380D01*
X18595238Y-53654761D01*
X18690476Y-53559523D01*
X18738095Y-53464285D01*
X18785714Y-53273809D01*
X18785714Y-53130952D01*
X18738095Y-52940476D01*
X18690476Y-52845238D01*
X18595238Y-52750000D01*
X18452380Y-52702380D01*
X18357142Y-52702380D01*
X18214285Y-52750000D01*
X18166666Y-52797619D01*
X17785714Y-52797619D02*
X17738095Y-52750000D01*
X17642857Y-52702380D01*
X17404761Y-52702380D01*
X17309523Y-52750000D01*
X17261904Y-52797619D01*
X17214285Y-52892857D01*
X17214285Y-52988095D01*
X17261904Y-53130952D01*
X17833333Y-53702380D01*
X17214285Y-53702380D01*
%TO.C,C3*%
X27567142Y-12533333D02*
X27614761Y-12485714D01*
X27662380Y-12342857D01*
X27662380Y-12247619D01*
X27614761Y-12104761D01*
X27519523Y-12009523D01*
X27424285Y-11961904D01*
X27233809Y-11914285D01*
X27090952Y-11914285D01*
X26900476Y-11961904D01*
X26805238Y-12009523D01*
X26710000Y-12104761D01*
X26662380Y-12247619D01*
X26662380Y-12342857D01*
X26710000Y-12485714D01*
X26757619Y-12533333D01*
X26662380Y-12866666D02*
X26662380Y-13485714D01*
X27043333Y-13152380D01*
X27043333Y-13295238D01*
X27090952Y-13390476D01*
X27138571Y-13438095D01*
X27233809Y-13485714D01*
X27471904Y-13485714D01*
X27567142Y-13438095D01*
X27614761Y-13390476D01*
X27662380Y-13295238D01*
X27662380Y-13009523D01*
X27614761Y-12914285D01*
X27567142Y-12866666D01*
%TO.C,C4*%
X1087142Y-4913333D02*
X1134761Y-4865714D01*
X1182380Y-4722857D01*
X1182380Y-4627619D01*
X1134761Y-4484761D01*
X1039523Y-4389523D01*
X944285Y-4341904D01*
X753809Y-4294285D01*
X610952Y-4294285D01*
X420476Y-4341904D01*
X325238Y-4389523D01*
X230000Y-4484761D01*
X182380Y-4627619D01*
X182380Y-4722857D01*
X230000Y-4865714D01*
X277619Y-4913333D01*
X515714Y-5770476D02*
X1182380Y-5770476D01*
X134761Y-5532380D02*
X849047Y-5294285D01*
X849047Y-5913333D01*
%TO.C,C9*%
X15057142Y-22693333D02*
X15104761Y-22645714D01*
X15152380Y-22502857D01*
X15152380Y-22407619D01*
X15104761Y-22264761D01*
X15009523Y-22169523D01*
X14914285Y-22121904D01*
X14723809Y-22074285D01*
X14580952Y-22074285D01*
X14390476Y-22121904D01*
X14295238Y-22169523D01*
X14200000Y-22264761D01*
X14152380Y-22407619D01*
X14152380Y-22502857D01*
X14200000Y-22645714D01*
X14247619Y-22693333D01*
X15152380Y-23169523D02*
X15152380Y-23360000D01*
X15104761Y-23455238D01*
X15057142Y-23502857D01*
X14914285Y-23598095D01*
X14723809Y-23645714D01*
X14342857Y-23645714D01*
X14247619Y-23598095D01*
X14200000Y-23550476D01*
X14152380Y-23455238D01*
X14152380Y-23264761D01*
X14200000Y-23169523D01*
X14247619Y-23121904D01*
X14342857Y-23074285D01*
X14580952Y-23074285D01*
X14676190Y-23121904D01*
X14723809Y-23169523D01*
X14771428Y-23264761D01*
X14771428Y-23455238D01*
X14723809Y-23550476D01*
X14676190Y-23598095D01*
X14580952Y-23645714D01*
%TD*%
M02*
