%TF.GenerationSoftware,KiCad,Pcbnew,(5.1.9-0-10_14)*%
%TF.CreationDate,2021-04-20T22:44:58+02:00*%
%TF.ProjectId,tribus_front,74726962-7573-45f6-9672-6f6e742e6b69,rev?*%
%TF.SameCoordinates,Original*%
%TF.FileFunction,Copper,L1,Top*%
%TF.FilePolarity,Positive*%
%FSLAX46Y46*%
G04 Gerber Fmt 4.6, Leading zero omitted, Abs format (unit mm)*
G04 Created by KiCad (PCBNEW (5.1.9-0-10_14)) date 2021-04-20 22:44:58*
%MOMM*%
%LPD*%
G01*
G04 APERTURE LIST*
%TA.AperFunction,ComponentPad*%
%ADD10C,1.800000*%
%TD*%
%TA.AperFunction,ComponentPad*%
%ADD11R,1.800000X1.800000*%
%TD*%
%TA.AperFunction,ComponentPad*%
%ADD12C,2.130000*%
%TD*%
%TA.AperFunction,ComponentPad*%
%ADD13R,1.930000X1.830000*%
%TD*%
%TA.AperFunction,ComponentPad*%
%ADD14O,2.720000X3.240000*%
%TD*%
%TA.AperFunction,WasherPad*%
%ADD15C,4.000000*%
%TD*%
%TA.AperFunction,ComponentPad*%
%ADD16O,1.700000X1.700000*%
%TD*%
%TA.AperFunction,ComponentPad*%
%ADD17R,1.700000X1.700000*%
%TD*%
%TA.AperFunction,ViaPad*%
%ADD18C,0.800000*%
%TD*%
%TA.AperFunction,Conductor*%
%ADD19C,0.250000*%
%TD*%
%TA.AperFunction,NonConductor*%
%ADD20C,0.254000*%
%TD*%
%TA.AperFunction,NonConductor*%
%ADD21C,0.100000*%
%TD*%
G04 APERTURE END LIST*
D10*
%TO.P,D14,2*%
%TO.N,Net-(C40-Pad2)*%
X22140000Y-65300000D03*
D11*
%TO.P,D14,1*%
%TO.N,GND*%
X19600000Y-65300000D03*
%TD*%
D12*
%TO.P,J8,TN*%
%TO.N,INPUT_NORM*%
X4900000Y-90800000D03*
D13*
%TO.P,J8,S*%
%TO.N,GND*%
X4900000Y-93900000D03*
D12*
%TO.P,J8,T*%
%TO.N,Net-(J8-PadT)*%
X4900000Y-82500000D03*
%TD*%
%TO.P,J5,TN*%
%TO.N,BASS_OUT_MIX*%
X4900000Y-96050000D03*
D13*
%TO.P,J5,S*%
%TO.N,GND*%
X4900000Y-92950000D03*
D12*
%TO.P,J5,T*%
%TO.N,BASS_OUT_FRONT*%
X4900000Y-104350000D03*
%TD*%
D11*
%TO.P,RV5,1*%
%TO.N,BASS_DECAY_FRONT*%
X18400000Y-100700000D03*
D10*
%TO.P,RV5,2*%
X20900000Y-100700000D03*
%TO.P,RV5,3*%
%TO.N,GND*%
X23400000Y-100700000D03*
D14*
%TO.P,RV5,*%
%TO.N,*%
X25700000Y-93200000D03*
X16100000Y-93200000D03*
%TD*%
D10*
%TO.P,RV3,3*%
%TO.N,SNARE_BODY_FRONT*%
X18400000Y-79900000D03*
%TO.P,RV3,2*%
%TO.N,GND*%
X20900000Y-79900000D03*
%TO.P,RV3,1*%
%TO.N,SNARE_NOISE_FRONT*%
X23400000Y-79900000D03*
D15*
%TO.P,RV3,*%
%TO.N,*%
X16500000Y-72900000D03*
X25300000Y-72900000D03*
%TD*%
D11*
%TO.P,RV2,1*%
%TO.N,Net-(R7-Pad1)*%
X18400000Y-60400000D03*
D10*
%TO.P,RV2,2*%
X20900000Y-60400000D03*
%TO.P,RV2,3*%
%TO.N,GND*%
X23400000Y-60400000D03*
D14*
%TO.P,RV2,*%
%TO.N,*%
X25700000Y-52900000D03*
X16100000Y-52900000D03*
%TD*%
D10*
%TO.P,RV7,3*%
%TO.N,GND*%
X18400000Y-45100000D03*
%TO.P,RV7,2*%
%TO.N,Net-(R67-Pad2)*%
X20900000Y-45100000D03*
%TO.P,RV7,1*%
X23400000Y-45100000D03*
D15*
%TO.P,RV7,*%
%TO.N,*%
X16500000Y-38100000D03*
X25300000Y-38100000D03*
%TD*%
D11*
%TO.P,RV6,1*%
%TO.N,GND*%
X18400000Y-20100000D03*
D10*
%TO.P,RV6,2*%
%TO.N,Net-(R60-Pad1)*%
X20900000Y-20100000D03*
%TO.P,RV6,3*%
X23400000Y-20100000D03*
D14*
%TO.P,RV6,*%
%TO.N,*%
X25700000Y-12600000D03*
X16100000Y-12600000D03*
%TD*%
D10*
%TO.P,D8,2*%
%TO.N,Net-(C39-Pad2)*%
X22140000Y-25000000D03*
D11*
%TO.P,D8,1*%
%TO.N,GND*%
X19600000Y-25000000D03*
%TD*%
D10*
%TO.P,D7,2*%
%TO.N,Net-(C38-Pad2)*%
X22140000Y-104730000D03*
D11*
%TO.P,D7,1*%
%TO.N,GND*%
X19600000Y-104730000D03*
%TD*%
D12*
%TO.P,J2,TN*%
%TO.N,Net-(J2-PadTN)*%
X4900000Y-10100000D03*
D13*
%TO.P,J2,S*%
%TO.N,GND*%
X4900000Y-13200000D03*
D12*
%TO.P,J2,T*%
%TO.N,INPUT_NORM*%
X4900000Y-1800000D03*
%TD*%
%TO.P,J6,TN*%
%TO.N,HH_OUT_MIX*%
X4900000Y-15300000D03*
D13*
%TO.P,J6,S*%
%TO.N,GND*%
X4900000Y-12200000D03*
D12*
%TO.P,J6,T*%
%TO.N,HH_OUT_FRONT*%
X4900000Y-23600000D03*
%TD*%
%TO.P,J10,TN*%
%TO.N,INPUT_NORM*%
X4900000Y-50100000D03*
D13*
%TO.P,J10,S*%
%TO.N,GND*%
X4900000Y-53200000D03*
D12*
%TO.P,J10,T*%
%TO.N,Net-(J10-PadT)*%
X4900000Y-41800000D03*
%TD*%
%TO.P,J3,TN*%
%TO.N,Net-(J3-PadTN)*%
X4900000Y-55300000D03*
D13*
%TO.P,J3,S*%
%TO.N,GND*%
X4900000Y-52200000D03*
D12*
%TO.P,J3,T*%
%TO.N,Net-(J3-PadT)*%
X4900000Y-63600000D03*
%TD*%
D16*
%TO.P,J9,8*%
%TO.N,BASS_TRIG_FRONT*%
X28690000Y-84000000D03*
%TO.P,J9,7*%
%TO.N,BASS_DECAY_FRONT*%
X26150000Y-84000000D03*
%TO.P,J9,6*%
%TO.N,BASS_LED_FRONT*%
X23610000Y-84000000D03*
%TO.P,J9,5*%
%TO.N,BASS_OUT_FRONT*%
X21070000Y-84000000D03*
%TO.P,J9,4*%
%TO.N,SNARE_TRIGGER_FRONT*%
X18530000Y-84000000D03*
%TO.P,J9,3*%
%TO.N,SNARE_DECAY_FRONT*%
X15990000Y-84000000D03*
%TO.P,J9,2*%
%TO.N,SNARE_NOISE_FRONT*%
X13450000Y-84000000D03*
D17*
%TO.P,J9,1*%
%TO.N,SNARE_BODY_FRONT*%
X10910000Y-84000000D03*
%TD*%
D16*
%TO.P,J11,8*%
%TO.N,+12V*%
X25690000Y-30000000D03*
%TO.P,J11,7*%
%TO.N,Net-(J11-Pad7)*%
X23150000Y-30000000D03*
%TO.P,J11,6*%
%TO.N,-12V*%
X20610000Y-30000000D03*
%TO.P,J11,5*%
%TO.N,NOISE_CUTOFF_FRONT*%
X18070000Y-30000000D03*
%TO.P,J11,4*%
%TO.N,HH_TRIG_FRONT*%
X15530000Y-30000000D03*
%TO.P,J11,3*%
%TO.N,HH_DECAY_FRONT*%
X12990000Y-30000000D03*
%TO.P,J11,2*%
%TO.N,HH_OUT_FRONT*%
X10450000Y-30000000D03*
D17*
%TO.P,J11,1*%
%TO.N,GND*%
X7910000Y-30000000D03*
%TD*%
D18*
%TO.N,HH_DECAY_FRONT*%
X27406800Y-21748900D03*
%TO.N,-12V*%
X19029300Y-4308600D03*
%TO.N,Net-(R29-Pad2)*%
X26500300Y-14949900D03*
X27471300Y-87713500D03*
%TD*%
D19*
%TO.N,GND*%
X19600000Y-104730000D02*
X19600000Y-103504700D01*
X19600000Y-103504700D02*
X20595300Y-103504700D01*
X20595300Y-103504700D02*
X23400000Y-100700000D01*
X20900000Y-79900000D02*
X17260000Y-83540000D01*
X17260000Y-83540000D02*
X17260000Y-84460000D01*
X17260000Y-84460000D02*
X8770000Y-92950000D01*
X8770000Y-92950000D02*
X4900000Y-92950000D01*
X19600000Y-65300000D02*
X19600000Y-64074700D01*
X23400000Y-60400000D02*
X19725300Y-64074700D01*
X19725300Y-64074700D02*
X19600000Y-64074700D01*
X16687000Y-43386900D02*
X11720000Y-38419900D01*
X11720000Y-38419900D02*
X11720000Y-29580800D01*
X4900000Y-52200000D02*
X6190300Y-52200000D01*
X16687000Y-43386900D02*
X8583500Y-51490400D01*
X8583500Y-51490400D02*
X6899900Y-51490400D01*
X6899900Y-51490400D02*
X6190300Y-52200000D01*
X18400000Y-45100000D02*
X16687000Y-43386900D01*
X11720000Y-29580800D02*
X10963800Y-28824600D01*
X10963800Y-28824600D02*
X9085400Y-28824600D01*
X9085400Y-28824600D02*
X7910000Y-30000000D01*
X19600000Y-25000000D02*
X16300800Y-25000000D01*
X16300800Y-25000000D02*
X11720000Y-29580800D01*
X4900000Y-13200000D02*
X10274700Y-13200000D01*
X10274700Y-13200000D02*
X17174700Y-20100000D01*
X18400000Y-20100000D02*
X17174700Y-20100000D01*
X4900000Y-12200000D02*
X4900000Y-13200000D01*
X4900000Y-52200000D02*
X4900000Y-53200000D01*
X4900000Y-92950000D02*
X4900000Y-93900000D01*
%TO.N,INPUT_NORM*%
X4639500Y-50100000D02*
X3476800Y-51262700D01*
X3476800Y-51262700D02*
X3476800Y-89376800D01*
X3476800Y-89376800D02*
X4900000Y-90800000D01*
X4900000Y-50100000D02*
X4639500Y-50100000D01*
X4900000Y-1800000D02*
X3476800Y-3223200D01*
X3476800Y-3223200D02*
X3476800Y-48937300D01*
X3476800Y-48937300D02*
X4639500Y-50100000D01*
%TO.N,BASS_OUT_FRONT*%
X21070000Y-84000000D02*
X21070000Y-85175300D01*
X21070000Y-85175300D02*
X4900000Y-101345300D01*
X4900000Y-101345300D02*
X4900000Y-104350000D01*
%TO.N,HH_OUT_FRONT*%
X10450000Y-30000000D02*
X9274700Y-30000000D01*
X9274700Y-30000000D02*
X9274700Y-30808000D01*
X9274700Y-30808000D02*
X8901100Y-31181600D01*
X8901100Y-31181600D02*
X6914600Y-31181600D01*
X6914600Y-31181600D02*
X4900000Y-29167000D01*
X4900000Y-29167000D02*
X4900000Y-23600000D01*
%TO.N,BASS_DECAY_FRONT*%
X20900000Y-100700000D02*
X20900000Y-90425300D01*
X20900000Y-90425300D02*
X26150000Y-85175300D01*
X26150000Y-84000000D02*
X26150000Y-85175300D01*
%TO.N,SNARE_NOISE_FRONT*%
X13450000Y-84000000D02*
X14625300Y-84000000D01*
X14625300Y-84000000D02*
X14625300Y-83632600D01*
X14625300Y-83632600D02*
X15433200Y-82824700D01*
X15433200Y-82824700D02*
X17217800Y-82824700D01*
X17217800Y-82824700D02*
X19650000Y-80392500D01*
X19650000Y-80392500D02*
X19650000Y-79373100D01*
X19650000Y-79373100D02*
X20351000Y-78672100D01*
X20351000Y-78672100D02*
X22172100Y-78672100D01*
X22172100Y-78672100D02*
X23400000Y-79900000D01*
%TO.N,SNARE_BODY_FRONT*%
X10910000Y-84000000D02*
X12085300Y-84000000D01*
X18400000Y-79900000D02*
X15818000Y-79900000D01*
X15818000Y-79900000D02*
X12085300Y-83632700D01*
X12085300Y-83632700D02*
X12085300Y-84000000D01*
%TO.N,HH_DECAY_FRONT*%
X27406800Y-21748900D02*
X27406800Y-29967500D01*
X27406800Y-29967500D02*
X26199000Y-31175300D01*
X26199000Y-31175300D02*
X14973200Y-31175300D01*
X14973200Y-31175300D02*
X14165300Y-30367400D01*
X14165300Y-30367400D02*
X14165300Y-30000000D01*
X12990000Y-30000000D02*
X14165300Y-30000000D01*
%TO.N,-12V*%
X20610000Y-28824700D02*
X20825400Y-28609300D01*
X20825400Y-28609300D02*
X20825400Y-22550000D01*
X20825400Y-22550000D02*
X19625500Y-21350100D01*
X19625500Y-21350100D02*
X19625500Y-4904800D01*
X19625500Y-4904800D02*
X19029300Y-4308600D01*
X20610000Y-30000000D02*
X20610000Y-28824700D01*
%TO.N,Net-(R29-Pad2)*%
X27471300Y-87713500D02*
X27471300Y-82978700D01*
X27471300Y-82978700D02*
X28191700Y-82258300D01*
X28191700Y-82258300D02*
X28191700Y-16641300D01*
X28191700Y-16641300D02*
X26500300Y-14949900D01*
%TO.N,Net-(R60-Pad1)*%
X23400000Y-20100000D02*
X20900000Y-20100000D01*
%TD*%
D20*
X3579523Y-716313D02*
X3393479Y-994748D01*
X3265330Y-1304128D01*
X3200000Y-1632565D01*
X3200000Y-1967435D01*
X3265330Y-2295872D01*
X3284074Y-2341125D01*
X2965803Y-2659396D01*
X2936799Y-2683199D01*
X2881671Y-2750374D01*
X2841826Y-2798924D01*
X2796519Y-2883687D01*
X2771254Y-2930954D01*
X2727797Y-3074215D01*
X2716800Y-3185868D01*
X2716800Y-3185878D01*
X2713124Y-3223200D01*
X2716800Y-3260522D01*
X2716801Y-48899967D01*
X2713124Y-48937300D01*
X2727798Y-49086285D01*
X2771254Y-49229546D01*
X2841826Y-49361576D01*
X2868809Y-49394454D01*
X2936800Y-49477301D01*
X2965798Y-49501099D01*
X3232728Y-49768029D01*
X3200000Y-49932565D01*
X3200000Y-50267435D01*
X3232728Y-50431971D01*
X2965803Y-50698896D01*
X2936799Y-50722699D01*
X2885790Y-50784854D01*
X2841826Y-50838424D01*
X2794694Y-50926601D01*
X2771254Y-50970454D01*
X2727797Y-51113715D01*
X2716800Y-51225368D01*
X2716800Y-51225378D01*
X2713124Y-51262700D01*
X2716800Y-51300022D01*
X2716801Y-89339467D01*
X2713124Y-89376800D01*
X2716801Y-89414133D01*
X2723242Y-89479523D01*
X2727798Y-89525785D01*
X2771254Y-89669046D01*
X2841826Y-89801076D01*
X2910947Y-89885299D01*
X2936800Y-89916801D01*
X2965798Y-89940599D01*
X3284074Y-90258875D01*
X3265330Y-90304128D01*
X3200000Y-90632565D01*
X3200000Y-90967435D01*
X3265330Y-91295872D01*
X3393479Y-91605252D01*
X3426125Y-91654111D01*
X3404463Y-91680506D01*
X3345498Y-91790820D01*
X3309188Y-91910518D01*
X3296928Y-92035000D01*
X3296928Y-94815000D01*
X3309188Y-94939482D01*
X3345498Y-95059180D01*
X3404463Y-95169494D01*
X3426125Y-95195889D01*
X3393479Y-95244748D01*
X3265330Y-95554128D01*
X3200000Y-95882565D01*
X3200000Y-96217435D01*
X3265330Y-96545872D01*
X3393479Y-96855252D01*
X3579523Y-97133687D01*
X3816313Y-97370477D01*
X4094748Y-97556521D01*
X4404128Y-97684670D01*
X4732565Y-97750000D01*
X5067435Y-97750000D01*
X5395872Y-97684670D01*
X5705252Y-97556521D01*
X5983687Y-97370477D01*
X6220477Y-97133687D01*
X6406521Y-96855252D01*
X6534670Y-96545872D01*
X6600000Y-96217435D01*
X6600000Y-95882565D01*
X6534670Y-95554128D01*
X6406521Y-95244748D01*
X6373875Y-95195889D01*
X6395537Y-95169494D01*
X6454502Y-95059180D01*
X6490812Y-94939482D01*
X6503072Y-94815000D01*
X6503072Y-93710000D01*
X8732678Y-93710000D01*
X8770000Y-93713676D01*
X8807322Y-93710000D01*
X8807333Y-93710000D01*
X8918986Y-93699003D01*
X9062247Y-93655546D01*
X9194276Y-93584974D01*
X9310001Y-93490001D01*
X9333804Y-93460997D01*
X17618112Y-85176690D01*
X17826589Y-85315990D01*
X18096842Y-85427932D01*
X18383740Y-85485000D01*
X18676260Y-85485000D01*
X18963158Y-85427932D01*
X19233411Y-85315990D01*
X19476632Y-85153475D01*
X19683475Y-84946632D01*
X19800000Y-84772240D01*
X19916525Y-84946632D01*
X20070196Y-85100303D01*
X4389003Y-100781496D01*
X4359999Y-100805299D01*
X4322343Y-100851184D01*
X4265026Y-100921024D01*
X4226957Y-100992246D01*
X4194454Y-101053054D01*
X4150997Y-101196315D01*
X4140000Y-101307968D01*
X4140000Y-101307978D01*
X4136324Y-101345300D01*
X4140000Y-101382623D01*
X4140000Y-102824735D01*
X4094748Y-102843479D01*
X3816313Y-103029523D01*
X3579523Y-103266313D01*
X3393479Y-103544748D01*
X3265330Y-103854128D01*
X3200000Y-104182565D01*
X3200000Y-104517435D01*
X3265330Y-104845872D01*
X3393479Y-105155252D01*
X3500219Y-105315000D01*
X685000Y-105315000D01*
X685000Y-685000D01*
X3610836Y-685000D01*
X3579523Y-716313D01*
%TA.AperFunction,NonConductor*%
D21*
G36*
X3579523Y-716313D02*
G01*
X3393479Y-994748D01*
X3265330Y-1304128D01*
X3200000Y-1632565D01*
X3200000Y-1967435D01*
X3265330Y-2295872D01*
X3284074Y-2341125D01*
X2965803Y-2659396D01*
X2936799Y-2683199D01*
X2881671Y-2750374D01*
X2841826Y-2798924D01*
X2796519Y-2883687D01*
X2771254Y-2930954D01*
X2727797Y-3074215D01*
X2716800Y-3185868D01*
X2716800Y-3185878D01*
X2713124Y-3223200D01*
X2716800Y-3260522D01*
X2716801Y-48899967D01*
X2713124Y-48937300D01*
X2727798Y-49086285D01*
X2771254Y-49229546D01*
X2841826Y-49361576D01*
X2868809Y-49394454D01*
X2936800Y-49477301D01*
X2965798Y-49501099D01*
X3232728Y-49768029D01*
X3200000Y-49932565D01*
X3200000Y-50267435D01*
X3232728Y-50431971D01*
X2965803Y-50698896D01*
X2936799Y-50722699D01*
X2885790Y-50784854D01*
X2841826Y-50838424D01*
X2794694Y-50926601D01*
X2771254Y-50970454D01*
X2727797Y-51113715D01*
X2716800Y-51225368D01*
X2716800Y-51225378D01*
X2713124Y-51262700D01*
X2716800Y-51300022D01*
X2716801Y-89339467D01*
X2713124Y-89376800D01*
X2716801Y-89414133D01*
X2723242Y-89479523D01*
X2727798Y-89525785D01*
X2771254Y-89669046D01*
X2841826Y-89801076D01*
X2910947Y-89885299D01*
X2936800Y-89916801D01*
X2965798Y-89940599D01*
X3284074Y-90258875D01*
X3265330Y-90304128D01*
X3200000Y-90632565D01*
X3200000Y-90967435D01*
X3265330Y-91295872D01*
X3393479Y-91605252D01*
X3426125Y-91654111D01*
X3404463Y-91680506D01*
X3345498Y-91790820D01*
X3309188Y-91910518D01*
X3296928Y-92035000D01*
X3296928Y-94815000D01*
X3309188Y-94939482D01*
X3345498Y-95059180D01*
X3404463Y-95169494D01*
X3426125Y-95195889D01*
X3393479Y-95244748D01*
X3265330Y-95554128D01*
X3200000Y-95882565D01*
X3200000Y-96217435D01*
X3265330Y-96545872D01*
X3393479Y-96855252D01*
X3579523Y-97133687D01*
X3816313Y-97370477D01*
X4094748Y-97556521D01*
X4404128Y-97684670D01*
X4732565Y-97750000D01*
X5067435Y-97750000D01*
X5395872Y-97684670D01*
X5705252Y-97556521D01*
X5983687Y-97370477D01*
X6220477Y-97133687D01*
X6406521Y-96855252D01*
X6534670Y-96545872D01*
X6600000Y-96217435D01*
X6600000Y-95882565D01*
X6534670Y-95554128D01*
X6406521Y-95244748D01*
X6373875Y-95195889D01*
X6395537Y-95169494D01*
X6454502Y-95059180D01*
X6490812Y-94939482D01*
X6503072Y-94815000D01*
X6503072Y-93710000D01*
X8732678Y-93710000D01*
X8770000Y-93713676D01*
X8807322Y-93710000D01*
X8807333Y-93710000D01*
X8918986Y-93699003D01*
X9062247Y-93655546D01*
X9194276Y-93584974D01*
X9310001Y-93490001D01*
X9333804Y-93460997D01*
X17618112Y-85176690D01*
X17826589Y-85315990D01*
X18096842Y-85427932D01*
X18383740Y-85485000D01*
X18676260Y-85485000D01*
X18963158Y-85427932D01*
X19233411Y-85315990D01*
X19476632Y-85153475D01*
X19683475Y-84946632D01*
X19800000Y-84772240D01*
X19916525Y-84946632D01*
X20070196Y-85100303D01*
X4389003Y-100781496D01*
X4359999Y-100805299D01*
X4322343Y-100851184D01*
X4265026Y-100921024D01*
X4226957Y-100992246D01*
X4194454Y-101053054D01*
X4150997Y-101196315D01*
X4140000Y-101307968D01*
X4140000Y-101307978D01*
X4136324Y-101345300D01*
X4140000Y-101382623D01*
X4140000Y-102824735D01*
X4094748Y-102843479D01*
X3816313Y-103029523D01*
X3579523Y-103266313D01*
X3393479Y-103544748D01*
X3265330Y-103854128D01*
X3200000Y-104182565D01*
X3200000Y-104517435D01*
X3265330Y-104845872D01*
X3393479Y-105155252D01*
X3500219Y-105315000D01*
X685000Y-105315000D01*
X685000Y-685000D01*
X3610836Y-685000D01*
X3579523Y-716313D01*
G37*
%TD.AperFunction*%
D20*
X24996525Y-84946632D02*
X25150196Y-85100303D01*
X20388998Y-89861501D01*
X20360000Y-89885299D01*
X20336202Y-89914297D01*
X20336201Y-89914298D01*
X20265026Y-90001024D01*
X20194454Y-90133054D01*
X20150998Y-90276315D01*
X20136324Y-90425300D01*
X20140001Y-90462632D01*
X20140000Y-99361687D01*
X19921495Y-99507688D01*
X19883880Y-99545303D01*
X19830537Y-99445506D01*
X19751185Y-99348815D01*
X19654494Y-99269463D01*
X19544180Y-99210498D01*
X19424482Y-99174188D01*
X19300000Y-99161928D01*
X17500000Y-99161928D01*
X17375518Y-99174188D01*
X17255820Y-99210498D01*
X17145506Y-99269463D01*
X17048815Y-99348815D01*
X16969463Y-99445506D01*
X16910498Y-99555820D01*
X16874188Y-99675518D01*
X16861928Y-99800000D01*
X16861928Y-101600000D01*
X16874188Y-101724482D01*
X16910498Y-101844180D01*
X16969463Y-101954494D01*
X17048815Y-102051185D01*
X17145506Y-102130537D01*
X17255820Y-102189502D01*
X17375518Y-102225812D01*
X17500000Y-102238072D01*
X19300000Y-102238072D01*
X19424482Y-102225812D01*
X19544180Y-102189502D01*
X19654494Y-102130537D01*
X19751185Y-102051185D01*
X19830537Y-101954494D01*
X19883880Y-101854697D01*
X19921495Y-101892312D01*
X20172905Y-102060299D01*
X20452257Y-102176011D01*
X20748816Y-102235000D01*
X20790199Y-102235000D01*
X20280499Y-102744700D01*
X19637333Y-102744700D01*
X19600000Y-102741023D01*
X19562667Y-102744700D01*
X19451014Y-102755697D01*
X19307753Y-102799154D01*
X19175724Y-102869726D01*
X19059999Y-102964699D01*
X18965026Y-103080424D01*
X18905425Y-103191928D01*
X18700000Y-103191928D01*
X18575518Y-103204188D01*
X18455820Y-103240498D01*
X18345506Y-103299463D01*
X18248815Y-103378815D01*
X18169463Y-103475506D01*
X18110498Y-103585820D01*
X18074188Y-103705518D01*
X18061928Y-103830000D01*
X18061928Y-105315000D01*
X6299781Y-105315000D01*
X6406521Y-105155252D01*
X6534670Y-104845872D01*
X6600000Y-104517435D01*
X6600000Y-104182565D01*
X6534670Y-103854128D01*
X6406521Y-103544748D01*
X6220477Y-103266313D01*
X5983687Y-103029523D01*
X5705252Y-102843479D01*
X5660000Y-102824735D01*
X5660000Y-101660101D01*
X14105000Y-93215102D01*
X14105000Y-93557997D01*
X14133867Y-93851087D01*
X14247943Y-94227146D01*
X14433193Y-94573725D01*
X14682497Y-94877503D01*
X14986275Y-95126807D01*
X15332853Y-95312057D01*
X15708912Y-95426133D01*
X16100000Y-95464652D01*
X16491087Y-95426133D01*
X16867146Y-95312057D01*
X17213725Y-95126807D01*
X17517503Y-94877503D01*
X17766807Y-94573725D01*
X17952057Y-94227147D01*
X18066133Y-93851088D01*
X18095000Y-93557998D01*
X18095000Y-92842003D01*
X18066133Y-92548913D01*
X17952057Y-92172853D01*
X17766807Y-91826275D01*
X17517503Y-91522497D01*
X17213725Y-91273193D01*
X16867147Y-91087943D01*
X16491088Y-90973867D01*
X16359222Y-90960879D01*
X21581003Y-85739099D01*
X21610001Y-85715301D01*
X21704974Y-85599576D01*
X21775546Y-85467547D01*
X21819003Y-85324286D01*
X21823089Y-85282796D01*
X22016632Y-85153475D01*
X22223475Y-84946632D01*
X22340000Y-84772240D01*
X22456525Y-84946632D01*
X22663368Y-85153475D01*
X22906589Y-85315990D01*
X23176842Y-85427932D01*
X23463740Y-85485000D01*
X23756260Y-85485000D01*
X24043158Y-85427932D01*
X24313411Y-85315990D01*
X24556632Y-85153475D01*
X24763475Y-84946632D01*
X24880000Y-84772240D01*
X24996525Y-84946632D01*
%TA.AperFunction,NonConductor*%
D21*
G36*
X24996525Y-84946632D02*
G01*
X25150196Y-85100303D01*
X20388998Y-89861501D01*
X20360000Y-89885299D01*
X20336202Y-89914297D01*
X20336201Y-89914298D01*
X20265026Y-90001024D01*
X20194454Y-90133054D01*
X20150998Y-90276315D01*
X20136324Y-90425300D01*
X20140001Y-90462632D01*
X20140000Y-99361687D01*
X19921495Y-99507688D01*
X19883880Y-99545303D01*
X19830537Y-99445506D01*
X19751185Y-99348815D01*
X19654494Y-99269463D01*
X19544180Y-99210498D01*
X19424482Y-99174188D01*
X19300000Y-99161928D01*
X17500000Y-99161928D01*
X17375518Y-99174188D01*
X17255820Y-99210498D01*
X17145506Y-99269463D01*
X17048815Y-99348815D01*
X16969463Y-99445506D01*
X16910498Y-99555820D01*
X16874188Y-99675518D01*
X16861928Y-99800000D01*
X16861928Y-101600000D01*
X16874188Y-101724482D01*
X16910498Y-101844180D01*
X16969463Y-101954494D01*
X17048815Y-102051185D01*
X17145506Y-102130537D01*
X17255820Y-102189502D01*
X17375518Y-102225812D01*
X17500000Y-102238072D01*
X19300000Y-102238072D01*
X19424482Y-102225812D01*
X19544180Y-102189502D01*
X19654494Y-102130537D01*
X19751185Y-102051185D01*
X19830537Y-101954494D01*
X19883880Y-101854697D01*
X19921495Y-101892312D01*
X20172905Y-102060299D01*
X20452257Y-102176011D01*
X20748816Y-102235000D01*
X20790199Y-102235000D01*
X20280499Y-102744700D01*
X19637333Y-102744700D01*
X19600000Y-102741023D01*
X19562667Y-102744700D01*
X19451014Y-102755697D01*
X19307753Y-102799154D01*
X19175724Y-102869726D01*
X19059999Y-102964699D01*
X18965026Y-103080424D01*
X18905425Y-103191928D01*
X18700000Y-103191928D01*
X18575518Y-103204188D01*
X18455820Y-103240498D01*
X18345506Y-103299463D01*
X18248815Y-103378815D01*
X18169463Y-103475506D01*
X18110498Y-103585820D01*
X18074188Y-103705518D01*
X18061928Y-103830000D01*
X18061928Y-105315000D01*
X6299781Y-105315000D01*
X6406521Y-105155252D01*
X6534670Y-104845872D01*
X6600000Y-104517435D01*
X6600000Y-104182565D01*
X6534670Y-103854128D01*
X6406521Y-103544748D01*
X6220477Y-103266313D01*
X5983687Y-103029523D01*
X5705252Y-102843479D01*
X5660000Y-102824735D01*
X5660000Y-101660101D01*
X14105000Y-93215102D01*
X14105000Y-93557997D01*
X14133867Y-93851087D01*
X14247943Y-94227146D01*
X14433193Y-94573725D01*
X14682497Y-94877503D01*
X14986275Y-95126807D01*
X15332853Y-95312057D01*
X15708912Y-95426133D01*
X16100000Y-95464652D01*
X16491087Y-95426133D01*
X16867146Y-95312057D01*
X17213725Y-95126807D01*
X17517503Y-94877503D01*
X17766807Y-94573725D01*
X17952057Y-94227147D01*
X18066133Y-93851088D01*
X18095000Y-93557998D01*
X18095000Y-92842003D01*
X18066133Y-92548913D01*
X17952057Y-92172853D01*
X17766807Y-91826275D01*
X17517503Y-91522497D01*
X17213725Y-91273193D01*
X16867147Y-91087943D01*
X16491088Y-90973867D01*
X16359222Y-90960879D01*
X21581003Y-85739099D01*
X21610001Y-85715301D01*
X21704974Y-85599576D01*
X21775546Y-85467547D01*
X21819003Y-85324286D01*
X21823089Y-85282796D01*
X22016632Y-85153475D01*
X22223475Y-84946632D01*
X22340000Y-84772240D01*
X22456525Y-84946632D01*
X22663368Y-85153475D01*
X22906589Y-85315990D01*
X23176842Y-85427932D01*
X23463740Y-85485000D01*
X23756260Y-85485000D01*
X24043158Y-85427932D01*
X24313411Y-85315990D01*
X24556632Y-85153475D01*
X24763475Y-84946632D01*
X24880000Y-84772240D01*
X24996525Y-84946632D01*
G37*
%TD.AperFunction*%
D20*
X29315001Y-105315000D02*
X23559157Y-105315000D01*
X23616011Y-105177743D01*
X23675000Y-104881184D01*
X23675000Y-104578816D01*
X23616011Y-104282257D01*
X23500299Y-104002905D01*
X23332312Y-103751495D01*
X23118505Y-103537688D01*
X22867095Y-103369701D01*
X22587743Y-103253989D01*
X22291184Y-103195000D01*
X21988816Y-103195000D01*
X21977563Y-103197238D01*
X22991070Y-102183731D01*
X23248816Y-102235000D01*
X23551184Y-102235000D01*
X23847743Y-102176011D01*
X24127095Y-102060299D01*
X24378505Y-101892312D01*
X24592312Y-101678505D01*
X24760299Y-101427095D01*
X24876011Y-101147743D01*
X24935000Y-100851184D01*
X24935000Y-100548816D01*
X24876011Y-100252257D01*
X24760299Y-99972905D01*
X24592312Y-99721495D01*
X24378505Y-99507688D01*
X24127095Y-99339701D01*
X23847743Y-99223989D01*
X23551184Y-99165000D01*
X23248816Y-99165000D01*
X22952257Y-99223989D01*
X22672905Y-99339701D01*
X22421495Y-99507688D01*
X22207688Y-99721495D01*
X22150000Y-99807831D01*
X22092312Y-99721495D01*
X21878505Y-99507688D01*
X21660000Y-99361687D01*
X21660000Y-92842002D01*
X23705000Y-92842002D01*
X23705000Y-93557997D01*
X23733867Y-93851087D01*
X23847943Y-94227146D01*
X24033193Y-94573725D01*
X24282497Y-94877503D01*
X24586275Y-95126807D01*
X24932853Y-95312057D01*
X25308912Y-95426133D01*
X25700000Y-95464652D01*
X26091087Y-95426133D01*
X26467146Y-95312057D01*
X26813725Y-95126807D01*
X27117503Y-94877503D01*
X27366807Y-94573725D01*
X27552057Y-94227147D01*
X27666133Y-93851088D01*
X27695000Y-93557998D01*
X27695000Y-92842003D01*
X27666133Y-92548913D01*
X27552057Y-92172853D01*
X27366807Y-91826275D01*
X27117503Y-91522497D01*
X26813725Y-91273193D01*
X26467147Y-91087943D01*
X26091088Y-90973867D01*
X25700000Y-90935348D01*
X25308913Y-90973867D01*
X24932854Y-91087943D01*
X24586276Y-91273193D01*
X24282498Y-91522497D01*
X24033193Y-91826275D01*
X23847943Y-92172853D01*
X23733867Y-92548912D01*
X23705000Y-92842002D01*
X21660000Y-92842002D01*
X21660000Y-90740101D01*
X26661003Y-85739099D01*
X26690001Y-85715301D01*
X26711300Y-85689348D01*
X26711300Y-87009789D01*
X26667363Y-87053726D01*
X26554095Y-87223244D01*
X26476074Y-87411602D01*
X26436300Y-87611561D01*
X26436300Y-87815439D01*
X26476074Y-88015398D01*
X26554095Y-88203756D01*
X26667363Y-88373274D01*
X26811526Y-88517437D01*
X26981044Y-88630705D01*
X27169402Y-88708726D01*
X27369361Y-88748500D01*
X27573239Y-88748500D01*
X27773198Y-88708726D01*
X27961556Y-88630705D01*
X28131074Y-88517437D01*
X28275237Y-88373274D01*
X28388505Y-88203756D01*
X28466526Y-88015398D01*
X28506300Y-87815439D01*
X28506300Y-87611561D01*
X28466526Y-87411602D01*
X28388505Y-87223244D01*
X28275237Y-87053726D01*
X28231300Y-87009789D01*
X28231300Y-85417352D01*
X28256842Y-85427932D01*
X28543740Y-85485000D01*
X28836260Y-85485000D01*
X29123158Y-85427932D01*
X29315001Y-85348468D01*
X29315001Y-105315000D01*
%TA.AperFunction,NonConductor*%
D21*
G36*
X29315001Y-105315000D02*
G01*
X23559157Y-105315000D01*
X23616011Y-105177743D01*
X23675000Y-104881184D01*
X23675000Y-104578816D01*
X23616011Y-104282257D01*
X23500299Y-104002905D01*
X23332312Y-103751495D01*
X23118505Y-103537688D01*
X22867095Y-103369701D01*
X22587743Y-103253989D01*
X22291184Y-103195000D01*
X21988816Y-103195000D01*
X21977563Y-103197238D01*
X22991070Y-102183731D01*
X23248816Y-102235000D01*
X23551184Y-102235000D01*
X23847743Y-102176011D01*
X24127095Y-102060299D01*
X24378505Y-101892312D01*
X24592312Y-101678505D01*
X24760299Y-101427095D01*
X24876011Y-101147743D01*
X24935000Y-100851184D01*
X24935000Y-100548816D01*
X24876011Y-100252257D01*
X24760299Y-99972905D01*
X24592312Y-99721495D01*
X24378505Y-99507688D01*
X24127095Y-99339701D01*
X23847743Y-99223989D01*
X23551184Y-99165000D01*
X23248816Y-99165000D01*
X22952257Y-99223989D01*
X22672905Y-99339701D01*
X22421495Y-99507688D01*
X22207688Y-99721495D01*
X22150000Y-99807831D01*
X22092312Y-99721495D01*
X21878505Y-99507688D01*
X21660000Y-99361687D01*
X21660000Y-92842002D01*
X23705000Y-92842002D01*
X23705000Y-93557997D01*
X23733867Y-93851087D01*
X23847943Y-94227146D01*
X24033193Y-94573725D01*
X24282497Y-94877503D01*
X24586275Y-95126807D01*
X24932853Y-95312057D01*
X25308912Y-95426133D01*
X25700000Y-95464652D01*
X26091087Y-95426133D01*
X26467146Y-95312057D01*
X26813725Y-95126807D01*
X27117503Y-94877503D01*
X27366807Y-94573725D01*
X27552057Y-94227147D01*
X27666133Y-93851088D01*
X27695000Y-93557998D01*
X27695000Y-92842003D01*
X27666133Y-92548913D01*
X27552057Y-92172853D01*
X27366807Y-91826275D01*
X27117503Y-91522497D01*
X26813725Y-91273193D01*
X26467147Y-91087943D01*
X26091088Y-90973867D01*
X25700000Y-90935348D01*
X25308913Y-90973867D01*
X24932854Y-91087943D01*
X24586276Y-91273193D01*
X24282498Y-91522497D01*
X24033193Y-91826275D01*
X23847943Y-92172853D01*
X23733867Y-92548912D01*
X23705000Y-92842002D01*
X21660000Y-92842002D01*
X21660000Y-90740101D01*
X26661003Y-85739099D01*
X26690001Y-85715301D01*
X26711300Y-85689348D01*
X26711300Y-87009789D01*
X26667363Y-87053726D01*
X26554095Y-87223244D01*
X26476074Y-87411602D01*
X26436300Y-87611561D01*
X26436300Y-87815439D01*
X26476074Y-88015398D01*
X26554095Y-88203756D01*
X26667363Y-88373274D01*
X26811526Y-88517437D01*
X26981044Y-88630705D01*
X27169402Y-88708726D01*
X27369361Y-88748500D01*
X27573239Y-88748500D01*
X27773198Y-88708726D01*
X27961556Y-88630705D01*
X28131074Y-88517437D01*
X28275237Y-88373274D01*
X28388505Y-88203756D01*
X28466526Y-88015398D01*
X28506300Y-87815439D01*
X28506300Y-87611561D01*
X28466526Y-87411602D01*
X28388505Y-87223244D01*
X28275237Y-87053726D01*
X28231300Y-87009789D01*
X28231300Y-85417352D01*
X28256842Y-85427932D01*
X28543740Y-85485000D01*
X28836260Y-85485000D01*
X29123158Y-85427932D01*
X29315001Y-85348468D01*
X29315001Y-105315000D01*
G37*
%TD.AperFunction*%
D20*
X27431701Y-36547440D02*
X27346738Y-36420285D01*
X26979715Y-36053262D01*
X26548141Y-35764893D01*
X26068601Y-35566261D01*
X25559525Y-35465000D01*
X25040475Y-35465000D01*
X24531399Y-35566261D01*
X24051859Y-35764893D01*
X23620285Y-36053262D01*
X23253262Y-36420285D01*
X22964893Y-36851859D01*
X22766261Y-37331399D01*
X22665000Y-37840475D01*
X22665000Y-38359525D01*
X22766261Y-38868601D01*
X22964893Y-39348141D01*
X23253262Y-39779715D01*
X23620285Y-40146738D01*
X24051859Y-40435107D01*
X24531399Y-40633739D01*
X25040475Y-40735000D01*
X25559525Y-40735000D01*
X26068601Y-40633739D01*
X26548141Y-40435107D01*
X26979715Y-40146738D01*
X27346738Y-39779715D01*
X27431701Y-39652560D01*
X27431700Y-51647682D01*
X27366807Y-51526275D01*
X27117503Y-51222497D01*
X26813725Y-50973193D01*
X26467147Y-50787943D01*
X26091088Y-50673867D01*
X25700000Y-50635348D01*
X25308913Y-50673867D01*
X24932854Y-50787943D01*
X24586276Y-50973193D01*
X24282498Y-51222497D01*
X24033193Y-51526275D01*
X23847943Y-51872853D01*
X23733867Y-52248912D01*
X23705000Y-52542002D01*
X23705000Y-53257997D01*
X23733867Y-53551087D01*
X23847943Y-53927146D01*
X24033193Y-54273725D01*
X24282497Y-54577503D01*
X24586275Y-54826807D01*
X24932853Y-55012057D01*
X25308912Y-55126133D01*
X25700000Y-55164652D01*
X26091087Y-55126133D01*
X26467146Y-55012057D01*
X26813725Y-54826807D01*
X27117503Y-54577503D01*
X27366807Y-54273725D01*
X27431700Y-54152318D01*
X27431700Y-71347440D01*
X27346738Y-71220285D01*
X26979715Y-70853262D01*
X26548141Y-70564893D01*
X26068601Y-70366261D01*
X25559525Y-70265000D01*
X25040475Y-70265000D01*
X24531399Y-70366261D01*
X24051859Y-70564893D01*
X23620285Y-70853262D01*
X23253262Y-71220285D01*
X22964893Y-71651859D01*
X22766261Y-72131399D01*
X22665000Y-72640475D01*
X22665000Y-73159525D01*
X22766261Y-73668601D01*
X22964893Y-74148141D01*
X23253262Y-74579715D01*
X23620285Y-74946738D01*
X24051859Y-75235107D01*
X24531399Y-75433739D01*
X25040475Y-75535000D01*
X25559525Y-75535000D01*
X26068601Y-75433739D01*
X26548141Y-75235107D01*
X26979715Y-74946738D01*
X27346738Y-74579715D01*
X27431700Y-74452560D01*
X27431700Y-81943498D01*
X26960297Y-82414901D01*
X26931300Y-82438699D01*
X26907502Y-82467697D01*
X26907501Y-82467698D01*
X26836326Y-82554424D01*
X26782713Y-82654726D01*
X26583158Y-82572068D01*
X26296260Y-82515000D01*
X26003740Y-82515000D01*
X25716842Y-82572068D01*
X25446589Y-82684010D01*
X25203368Y-82846525D01*
X24996525Y-83053368D01*
X24880000Y-83227760D01*
X24763475Y-83053368D01*
X24556632Y-82846525D01*
X24313411Y-82684010D01*
X24043158Y-82572068D01*
X23756260Y-82515000D01*
X23463740Y-82515000D01*
X23176842Y-82572068D01*
X22906589Y-82684010D01*
X22663368Y-82846525D01*
X22456525Y-83053368D01*
X22340000Y-83227760D01*
X22223475Y-83053368D01*
X22016632Y-82846525D01*
X21773411Y-82684010D01*
X21503158Y-82572068D01*
X21216260Y-82515000D01*
X20923740Y-82515000D01*
X20636842Y-82572068D01*
X20366589Y-82684010D01*
X20123368Y-82846525D01*
X19916525Y-83053368D01*
X19800000Y-83227760D01*
X19683475Y-83053368D01*
X19476632Y-82846525D01*
X19233411Y-82684010D01*
X19203274Y-82671527D01*
X20491070Y-81383731D01*
X20748816Y-81435000D01*
X21051184Y-81435000D01*
X21347743Y-81376011D01*
X21627095Y-81260299D01*
X21878505Y-81092312D01*
X22092312Y-80878505D01*
X22150000Y-80792169D01*
X22207688Y-80878505D01*
X22421495Y-81092312D01*
X22672905Y-81260299D01*
X22952257Y-81376011D01*
X23248816Y-81435000D01*
X23551184Y-81435000D01*
X23847743Y-81376011D01*
X24127095Y-81260299D01*
X24378505Y-81092312D01*
X24592312Y-80878505D01*
X24760299Y-80627095D01*
X24876011Y-80347743D01*
X24935000Y-80051184D01*
X24935000Y-79748816D01*
X24876011Y-79452257D01*
X24760299Y-79172905D01*
X24592312Y-78921495D01*
X24378505Y-78707688D01*
X24127095Y-78539701D01*
X23847743Y-78423989D01*
X23551184Y-78365000D01*
X23248816Y-78365000D01*
X22991070Y-78416269D01*
X22735904Y-78161103D01*
X22712101Y-78132099D01*
X22596376Y-78037126D01*
X22464347Y-77966554D01*
X22321086Y-77923097D01*
X22209433Y-77912100D01*
X22209422Y-77912100D01*
X22172100Y-77908424D01*
X22134778Y-77912100D01*
X20388325Y-77912100D01*
X20351000Y-77908424D01*
X20313675Y-77912100D01*
X20313667Y-77912100D01*
X20202014Y-77923097D01*
X20058753Y-77966554D01*
X19926724Y-78037126D01*
X19810999Y-78132099D01*
X19787201Y-78161098D01*
X19295843Y-78652455D01*
X19127095Y-78539701D01*
X18847743Y-78423989D01*
X18551184Y-78365000D01*
X18248816Y-78365000D01*
X17952257Y-78423989D01*
X17672905Y-78539701D01*
X17421495Y-78707688D01*
X17207688Y-78921495D01*
X17061687Y-79140000D01*
X15855323Y-79140000D01*
X15818000Y-79136324D01*
X15780677Y-79140000D01*
X15780667Y-79140000D01*
X15669014Y-79150997D01*
X15525753Y-79194454D01*
X15393723Y-79265026D01*
X15342488Y-79307074D01*
X15277999Y-79359999D01*
X15254201Y-79388997D01*
X12055350Y-82587849D01*
X12004180Y-82560498D01*
X11884482Y-82524188D01*
X11760000Y-82511928D01*
X10060000Y-82511928D01*
X9935518Y-82524188D01*
X9815820Y-82560498D01*
X9705506Y-82619463D01*
X9608815Y-82698815D01*
X9529463Y-82795506D01*
X9470498Y-82905820D01*
X9434188Y-83025518D01*
X9421928Y-83150000D01*
X9421928Y-84850000D01*
X9434188Y-84974482D01*
X9470498Y-85094180D01*
X9529463Y-85204494D01*
X9608815Y-85301185D01*
X9705506Y-85380537D01*
X9815820Y-85439502D01*
X9935518Y-85475812D01*
X10060000Y-85488072D01*
X11760000Y-85488072D01*
X11884482Y-85475812D01*
X12004180Y-85439502D01*
X12114494Y-85380537D01*
X12211185Y-85301185D01*
X12290537Y-85204494D01*
X12349502Y-85094180D01*
X12371513Y-85021620D01*
X12503368Y-85153475D01*
X12746589Y-85315990D01*
X13016842Y-85427932D01*
X13303740Y-85485000D01*
X13596260Y-85485000D01*
X13883158Y-85427932D01*
X14153411Y-85315990D01*
X14396632Y-85153475D01*
X14603475Y-84946632D01*
X14720000Y-84772240D01*
X14836525Y-84946632D01*
X15043368Y-85153475D01*
X15286589Y-85315990D01*
X15316725Y-85328473D01*
X8455199Y-92190000D01*
X6503072Y-92190000D01*
X6503072Y-92035000D01*
X6490812Y-91910518D01*
X6454502Y-91790820D01*
X6395537Y-91680506D01*
X6373875Y-91654111D01*
X6406521Y-91605252D01*
X6534670Y-91295872D01*
X6600000Y-90967435D01*
X6600000Y-90632565D01*
X6534670Y-90304128D01*
X6406521Y-89994748D01*
X6220477Y-89716313D01*
X5983687Y-89479523D01*
X5705252Y-89293479D01*
X5395872Y-89165330D01*
X5067435Y-89100000D01*
X4732565Y-89100000D01*
X4404128Y-89165330D01*
X4358875Y-89184074D01*
X4236800Y-89061999D01*
X4236800Y-84065361D01*
X4404128Y-84134670D01*
X4732565Y-84200000D01*
X5067435Y-84200000D01*
X5395872Y-84134670D01*
X5705252Y-84006521D01*
X5983687Y-83820477D01*
X6220477Y-83583687D01*
X6406521Y-83305252D01*
X6534670Y-82995872D01*
X6600000Y-82667435D01*
X6600000Y-82332565D01*
X6534670Y-82004128D01*
X6406521Y-81694748D01*
X6220477Y-81416313D01*
X5983687Y-81179523D01*
X5705252Y-80993479D01*
X5395872Y-80865330D01*
X5067435Y-80800000D01*
X4732565Y-80800000D01*
X4404128Y-80865330D01*
X4236800Y-80934639D01*
X4236800Y-72640475D01*
X13865000Y-72640475D01*
X13865000Y-73159525D01*
X13966261Y-73668601D01*
X14164893Y-74148141D01*
X14453262Y-74579715D01*
X14820285Y-74946738D01*
X15251859Y-75235107D01*
X15731399Y-75433739D01*
X16240475Y-75535000D01*
X16759525Y-75535000D01*
X17268601Y-75433739D01*
X17748141Y-75235107D01*
X18179715Y-74946738D01*
X18546738Y-74579715D01*
X18835107Y-74148141D01*
X19033739Y-73668601D01*
X19135000Y-73159525D01*
X19135000Y-72640475D01*
X19033739Y-72131399D01*
X18835107Y-71651859D01*
X18546738Y-71220285D01*
X18179715Y-70853262D01*
X17748141Y-70564893D01*
X17268601Y-70366261D01*
X16759525Y-70265000D01*
X16240475Y-70265000D01*
X15731399Y-70366261D01*
X15251859Y-70564893D01*
X14820285Y-70853262D01*
X14453262Y-71220285D01*
X14164893Y-71651859D01*
X13966261Y-72131399D01*
X13865000Y-72640475D01*
X4236800Y-72640475D01*
X4236800Y-65165361D01*
X4404128Y-65234670D01*
X4732565Y-65300000D01*
X5067435Y-65300000D01*
X5395872Y-65234670D01*
X5705252Y-65106521D01*
X5983687Y-64920477D01*
X6220477Y-64683687D01*
X6406521Y-64405252D01*
X6534670Y-64095872D01*
X6600000Y-63767435D01*
X6600000Y-63432565D01*
X6534670Y-63104128D01*
X6406521Y-62794748D01*
X6220477Y-62516313D01*
X5983687Y-62279523D01*
X5705252Y-62093479D01*
X5395872Y-61965330D01*
X5067435Y-61900000D01*
X4732565Y-61900000D01*
X4404128Y-61965330D01*
X4236800Y-62034639D01*
X4236800Y-59500000D01*
X16861928Y-59500000D01*
X16861928Y-61300000D01*
X16874188Y-61424482D01*
X16910498Y-61544180D01*
X16969463Y-61654494D01*
X17048815Y-61751185D01*
X17145506Y-61830537D01*
X17255820Y-61889502D01*
X17375518Y-61925812D01*
X17500000Y-61938072D01*
X19300000Y-61938072D01*
X19424482Y-61925812D01*
X19544180Y-61889502D01*
X19654494Y-61830537D01*
X19751185Y-61751185D01*
X19830537Y-61654494D01*
X19883880Y-61554697D01*
X19921495Y-61592312D01*
X20172905Y-61760299D01*
X20452257Y-61876011D01*
X20748816Y-61935000D01*
X20790199Y-61935000D01*
X19377072Y-63348127D01*
X19307753Y-63369154D01*
X19175724Y-63439726D01*
X19059999Y-63534699D01*
X18965026Y-63650424D01*
X18905425Y-63761928D01*
X18700000Y-63761928D01*
X18575518Y-63774188D01*
X18455820Y-63810498D01*
X18345506Y-63869463D01*
X18248815Y-63948815D01*
X18169463Y-64045506D01*
X18110498Y-64155820D01*
X18074188Y-64275518D01*
X18061928Y-64400000D01*
X18061928Y-66200000D01*
X18074188Y-66324482D01*
X18110498Y-66444180D01*
X18169463Y-66554494D01*
X18248815Y-66651185D01*
X18345506Y-66730537D01*
X18455820Y-66789502D01*
X18575518Y-66825812D01*
X18700000Y-66838072D01*
X20500000Y-66838072D01*
X20624482Y-66825812D01*
X20744180Y-66789502D01*
X20854494Y-66730537D01*
X20951185Y-66651185D01*
X21030537Y-66554494D01*
X21089502Y-66444180D01*
X21095056Y-66425873D01*
X21161495Y-66492312D01*
X21412905Y-66660299D01*
X21692257Y-66776011D01*
X21988816Y-66835000D01*
X22291184Y-66835000D01*
X22587743Y-66776011D01*
X22867095Y-66660299D01*
X23118505Y-66492312D01*
X23332312Y-66278505D01*
X23500299Y-66027095D01*
X23616011Y-65747743D01*
X23675000Y-65451184D01*
X23675000Y-65148816D01*
X23616011Y-64852257D01*
X23500299Y-64572905D01*
X23332312Y-64321495D01*
X23118505Y-64107688D01*
X22867095Y-63939701D01*
X22587743Y-63823989D01*
X22291184Y-63765000D01*
X21988816Y-63765000D01*
X21692257Y-63823989D01*
X21412905Y-63939701D01*
X21161495Y-64107688D01*
X21095056Y-64174127D01*
X21089502Y-64155820D01*
X21030537Y-64045506D01*
X20951185Y-63948815D01*
X20937345Y-63937457D01*
X22991070Y-61883731D01*
X23248816Y-61935000D01*
X23551184Y-61935000D01*
X23847743Y-61876011D01*
X24127095Y-61760299D01*
X24378505Y-61592312D01*
X24592312Y-61378505D01*
X24760299Y-61127095D01*
X24876011Y-60847743D01*
X24935000Y-60551184D01*
X24935000Y-60248816D01*
X24876011Y-59952257D01*
X24760299Y-59672905D01*
X24592312Y-59421495D01*
X24378505Y-59207688D01*
X24127095Y-59039701D01*
X23847743Y-58923989D01*
X23551184Y-58865000D01*
X23248816Y-58865000D01*
X22952257Y-58923989D01*
X22672905Y-59039701D01*
X22421495Y-59207688D01*
X22207688Y-59421495D01*
X22150000Y-59507831D01*
X22092312Y-59421495D01*
X21878505Y-59207688D01*
X21627095Y-59039701D01*
X21347743Y-58923989D01*
X21051184Y-58865000D01*
X20748816Y-58865000D01*
X20452257Y-58923989D01*
X20172905Y-59039701D01*
X19921495Y-59207688D01*
X19883880Y-59245303D01*
X19830537Y-59145506D01*
X19751185Y-59048815D01*
X19654494Y-58969463D01*
X19544180Y-58910498D01*
X19424482Y-58874188D01*
X19300000Y-58861928D01*
X17500000Y-58861928D01*
X17375518Y-58874188D01*
X17255820Y-58910498D01*
X17145506Y-58969463D01*
X17048815Y-59048815D01*
X16969463Y-59145506D01*
X16910498Y-59255820D01*
X16874188Y-59375518D01*
X16861928Y-59500000D01*
X4236800Y-59500000D01*
X4236800Y-56865361D01*
X4404128Y-56934670D01*
X4732565Y-57000000D01*
X5067435Y-57000000D01*
X5395872Y-56934670D01*
X5705252Y-56806521D01*
X5983687Y-56620477D01*
X6220477Y-56383687D01*
X6406521Y-56105252D01*
X6534670Y-55795872D01*
X6600000Y-55467435D01*
X6600000Y-55132565D01*
X6534670Y-54804128D01*
X6406521Y-54494748D01*
X6392290Y-54473450D01*
X6395537Y-54469494D01*
X6454502Y-54359180D01*
X6490812Y-54239482D01*
X6503072Y-54115000D01*
X6503072Y-52894575D01*
X6614576Y-52834974D01*
X6730301Y-52740001D01*
X6754103Y-52710998D01*
X6923099Y-52542002D01*
X14105000Y-52542002D01*
X14105000Y-53257997D01*
X14133867Y-53551087D01*
X14247943Y-53927146D01*
X14433193Y-54273725D01*
X14682497Y-54577503D01*
X14986275Y-54826807D01*
X15332853Y-55012057D01*
X15708912Y-55126133D01*
X16100000Y-55164652D01*
X16491087Y-55126133D01*
X16867146Y-55012057D01*
X17213725Y-54826807D01*
X17517503Y-54577503D01*
X17766807Y-54273725D01*
X17952057Y-53927147D01*
X18066133Y-53551088D01*
X18095000Y-53257998D01*
X18095000Y-52542003D01*
X18066133Y-52248913D01*
X17952057Y-51872853D01*
X17766807Y-51526275D01*
X17517503Y-51222497D01*
X17213725Y-50973193D01*
X16867147Y-50787943D01*
X16491088Y-50673867D01*
X16100000Y-50635348D01*
X15708913Y-50673867D01*
X15332854Y-50787943D01*
X14986276Y-50973193D01*
X14682498Y-51222497D01*
X14433193Y-51526275D01*
X14247943Y-51872853D01*
X14133867Y-52248912D01*
X14105000Y-52542002D01*
X6923099Y-52542002D01*
X7214702Y-52250400D01*
X8546178Y-52250400D01*
X8583500Y-52254076D01*
X8620822Y-52250400D01*
X8620833Y-52250400D01*
X8732486Y-52239403D01*
X8875747Y-52195946D01*
X9007776Y-52125374D01*
X9123501Y-52030401D01*
X9147304Y-52001397D01*
X16686985Y-44461717D01*
X16916278Y-44691024D01*
X16865000Y-44948816D01*
X16865000Y-45251184D01*
X16923989Y-45547743D01*
X17039701Y-45827095D01*
X17207688Y-46078505D01*
X17421495Y-46292312D01*
X17672905Y-46460299D01*
X17952257Y-46576011D01*
X18248816Y-46635000D01*
X18551184Y-46635000D01*
X18847743Y-46576011D01*
X19127095Y-46460299D01*
X19378505Y-46292312D01*
X19592312Y-46078505D01*
X19650000Y-45992169D01*
X19707688Y-46078505D01*
X19921495Y-46292312D01*
X20172905Y-46460299D01*
X20452257Y-46576011D01*
X20748816Y-46635000D01*
X21051184Y-46635000D01*
X21347743Y-46576011D01*
X21627095Y-46460299D01*
X21878505Y-46292312D01*
X22092312Y-46078505D01*
X22150000Y-45992169D01*
X22207688Y-46078505D01*
X22421495Y-46292312D01*
X22672905Y-46460299D01*
X22952257Y-46576011D01*
X23248816Y-46635000D01*
X23551184Y-46635000D01*
X23847743Y-46576011D01*
X24127095Y-46460299D01*
X24378505Y-46292312D01*
X24592312Y-46078505D01*
X24760299Y-45827095D01*
X24876011Y-45547743D01*
X24935000Y-45251184D01*
X24935000Y-44948816D01*
X24876011Y-44652257D01*
X24760299Y-44372905D01*
X24592312Y-44121495D01*
X24378505Y-43907688D01*
X24127095Y-43739701D01*
X23847743Y-43623989D01*
X23551184Y-43565000D01*
X23248816Y-43565000D01*
X22952257Y-43623989D01*
X22672905Y-43739701D01*
X22421495Y-43907688D01*
X22207688Y-44121495D01*
X22150000Y-44207831D01*
X22092312Y-44121495D01*
X21878505Y-43907688D01*
X21627095Y-43739701D01*
X21347743Y-43623989D01*
X21051184Y-43565000D01*
X20748816Y-43565000D01*
X20452257Y-43623989D01*
X20172905Y-43739701D01*
X19921495Y-43907688D01*
X19707688Y-44121495D01*
X19650000Y-44207831D01*
X19592312Y-44121495D01*
X19378505Y-43907688D01*
X19127095Y-43739701D01*
X18847743Y-43623989D01*
X18551184Y-43565000D01*
X18248816Y-43565000D01*
X17991116Y-43616259D01*
X17250809Y-42875909D01*
X17250799Y-42875897D01*
X17227001Y-42846899D01*
X17198003Y-42823101D01*
X12480000Y-38105099D01*
X12480000Y-37840475D01*
X13865000Y-37840475D01*
X13865000Y-38359525D01*
X13966261Y-38868601D01*
X14164893Y-39348141D01*
X14453262Y-39779715D01*
X14820285Y-40146738D01*
X15251859Y-40435107D01*
X15731399Y-40633739D01*
X16240475Y-40735000D01*
X16759525Y-40735000D01*
X17268601Y-40633739D01*
X17748141Y-40435107D01*
X18179715Y-40146738D01*
X18546738Y-39779715D01*
X18835107Y-39348141D01*
X19033739Y-38868601D01*
X19135000Y-38359525D01*
X19135000Y-37840475D01*
X19033739Y-37331399D01*
X18835107Y-36851859D01*
X18546738Y-36420285D01*
X18179715Y-36053262D01*
X17748141Y-35764893D01*
X17268601Y-35566261D01*
X16759525Y-35465000D01*
X16240475Y-35465000D01*
X15731399Y-35566261D01*
X15251859Y-35764893D01*
X14820285Y-36053262D01*
X14453262Y-36420285D01*
X14164893Y-36851859D01*
X13966261Y-37331399D01*
X13865000Y-37840475D01*
X12480000Y-37840475D01*
X12480000Y-31396103D01*
X12556842Y-31427932D01*
X12843740Y-31485000D01*
X13136260Y-31485000D01*
X13423158Y-31427932D01*
X13693411Y-31315990D01*
X13900630Y-31177531D01*
X14409401Y-31686302D01*
X14433199Y-31715301D01*
X14462197Y-31739099D01*
X14548923Y-31810274D01*
X14680953Y-31880846D01*
X14824214Y-31924303D01*
X14935867Y-31935300D01*
X14935876Y-31935300D01*
X14973199Y-31938976D01*
X15010522Y-31935300D01*
X26161678Y-31935300D01*
X26199000Y-31938976D01*
X26236322Y-31935300D01*
X26236333Y-31935300D01*
X26347986Y-31924303D01*
X26491247Y-31880846D01*
X26623276Y-31810274D01*
X26739001Y-31715301D01*
X26762804Y-31686297D01*
X27431701Y-31017401D01*
X27431701Y-36547440D01*
%TA.AperFunction,NonConductor*%
D21*
G36*
X27431701Y-36547440D02*
G01*
X27346738Y-36420285D01*
X26979715Y-36053262D01*
X26548141Y-35764893D01*
X26068601Y-35566261D01*
X25559525Y-35465000D01*
X25040475Y-35465000D01*
X24531399Y-35566261D01*
X24051859Y-35764893D01*
X23620285Y-36053262D01*
X23253262Y-36420285D01*
X22964893Y-36851859D01*
X22766261Y-37331399D01*
X22665000Y-37840475D01*
X22665000Y-38359525D01*
X22766261Y-38868601D01*
X22964893Y-39348141D01*
X23253262Y-39779715D01*
X23620285Y-40146738D01*
X24051859Y-40435107D01*
X24531399Y-40633739D01*
X25040475Y-40735000D01*
X25559525Y-40735000D01*
X26068601Y-40633739D01*
X26548141Y-40435107D01*
X26979715Y-40146738D01*
X27346738Y-39779715D01*
X27431701Y-39652560D01*
X27431700Y-51647682D01*
X27366807Y-51526275D01*
X27117503Y-51222497D01*
X26813725Y-50973193D01*
X26467147Y-50787943D01*
X26091088Y-50673867D01*
X25700000Y-50635348D01*
X25308913Y-50673867D01*
X24932854Y-50787943D01*
X24586276Y-50973193D01*
X24282498Y-51222497D01*
X24033193Y-51526275D01*
X23847943Y-51872853D01*
X23733867Y-52248912D01*
X23705000Y-52542002D01*
X23705000Y-53257997D01*
X23733867Y-53551087D01*
X23847943Y-53927146D01*
X24033193Y-54273725D01*
X24282497Y-54577503D01*
X24586275Y-54826807D01*
X24932853Y-55012057D01*
X25308912Y-55126133D01*
X25700000Y-55164652D01*
X26091087Y-55126133D01*
X26467146Y-55012057D01*
X26813725Y-54826807D01*
X27117503Y-54577503D01*
X27366807Y-54273725D01*
X27431700Y-54152318D01*
X27431700Y-71347440D01*
X27346738Y-71220285D01*
X26979715Y-70853262D01*
X26548141Y-70564893D01*
X26068601Y-70366261D01*
X25559525Y-70265000D01*
X25040475Y-70265000D01*
X24531399Y-70366261D01*
X24051859Y-70564893D01*
X23620285Y-70853262D01*
X23253262Y-71220285D01*
X22964893Y-71651859D01*
X22766261Y-72131399D01*
X22665000Y-72640475D01*
X22665000Y-73159525D01*
X22766261Y-73668601D01*
X22964893Y-74148141D01*
X23253262Y-74579715D01*
X23620285Y-74946738D01*
X24051859Y-75235107D01*
X24531399Y-75433739D01*
X25040475Y-75535000D01*
X25559525Y-75535000D01*
X26068601Y-75433739D01*
X26548141Y-75235107D01*
X26979715Y-74946738D01*
X27346738Y-74579715D01*
X27431700Y-74452560D01*
X27431700Y-81943498D01*
X26960297Y-82414901D01*
X26931300Y-82438699D01*
X26907502Y-82467697D01*
X26907501Y-82467698D01*
X26836326Y-82554424D01*
X26782713Y-82654726D01*
X26583158Y-82572068D01*
X26296260Y-82515000D01*
X26003740Y-82515000D01*
X25716842Y-82572068D01*
X25446589Y-82684010D01*
X25203368Y-82846525D01*
X24996525Y-83053368D01*
X24880000Y-83227760D01*
X24763475Y-83053368D01*
X24556632Y-82846525D01*
X24313411Y-82684010D01*
X24043158Y-82572068D01*
X23756260Y-82515000D01*
X23463740Y-82515000D01*
X23176842Y-82572068D01*
X22906589Y-82684010D01*
X22663368Y-82846525D01*
X22456525Y-83053368D01*
X22340000Y-83227760D01*
X22223475Y-83053368D01*
X22016632Y-82846525D01*
X21773411Y-82684010D01*
X21503158Y-82572068D01*
X21216260Y-82515000D01*
X20923740Y-82515000D01*
X20636842Y-82572068D01*
X20366589Y-82684010D01*
X20123368Y-82846525D01*
X19916525Y-83053368D01*
X19800000Y-83227760D01*
X19683475Y-83053368D01*
X19476632Y-82846525D01*
X19233411Y-82684010D01*
X19203274Y-82671527D01*
X20491070Y-81383731D01*
X20748816Y-81435000D01*
X21051184Y-81435000D01*
X21347743Y-81376011D01*
X21627095Y-81260299D01*
X21878505Y-81092312D01*
X22092312Y-80878505D01*
X22150000Y-80792169D01*
X22207688Y-80878505D01*
X22421495Y-81092312D01*
X22672905Y-81260299D01*
X22952257Y-81376011D01*
X23248816Y-81435000D01*
X23551184Y-81435000D01*
X23847743Y-81376011D01*
X24127095Y-81260299D01*
X24378505Y-81092312D01*
X24592312Y-80878505D01*
X24760299Y-80627095D01*
X24876011Y-80347743D01*
X24935000Y-80051184D01*
X24935000Y-79748816D01*
X24876011Y-79452257D01*
X24760299Y-79172905D01*
X24592312Y-78921495D01*
X24378505Y-78707688D01*
X24127095Y-78539701D01*
X23847743Y-78423989D01*
X23551184Y-78365000D01*
X23248816Y-78365000D01*
X22991070Y-78416269D01*
X22735904Y-78161103D01*
X22712101Y-78132099D01*
X22596376Y-78037126D01*
X22464347Y-77966554D01*
X22321086Y-77923097D01*
X22209433Y-77912100D01*
X22209422Y-77912100D01*
X22172100Y-77908424D01*
X22134778Y-77912100D01*
X20388325Y-77912100D01*
X20351000Y-77908424D01*
X20313675Y-77912100D01*
X20313667Y-77912100D01*
X20202014Y-77923097D01*
X20058753Y-77966554D01*
X19926724Y-78037126D01*
X19810999Y-78132099D01*
X19787201Y-78161098D01*
X19295843Y-78652455D01*
X19127095Y-78539701D01*
X18847743Y-78423989D01*
X18551184Y-78365000D01*
X18248816Y-78365000D01*
X17952257Y-78423989D01*
X17672905Y-78539701D01*
X17421495Y-78707688D01*
X17207688Y-78921495D01*
X17061687Y-79140000D01*
X15855323Y-79140000D01*
X15818000Y-79136324D01*
X15780677Y-79140000D01*
X15780667Y-79140000D01*
X15669014Y-79150997D01*
X15525753Y-79194454D01*
X15393723Y-79265026D01*
X15342488Y-79307074D01*
X15277999Y-79359999D01*
X15254201Y-79388997D01*
X12055350Y-82587849D01*
X12004180Y-82560498D01*
X11884482Y-82524188D01*
X11760000Y-82511928D01*
X10060000Y-82511928D01*
X9935518Y-82524188D01*
X9815820Y-82560498D01*
X9705506Y-82619463D01*
X9608815Y-82698815D01*
X9529463Y-82795506D01*
X9470498Y-82905820D01*
X9434188Y-83025518D01*
X9421928Y-83150000D01*
X9421928Y-84850000D01*
X9434188Y-84974482D01*
X9470498Y-85094180D01*
X9529463Y-85204494D01*
X9608815Y-85301185D01*
X9705506Y-85380537D01*
X9815820Y-85439502D01*
X9935518Y-85475812D01*
X10060000Y-85488072D01*
X11760000Y-85488072D01*
X11884482Y-85475812D01*
X12004180Y-85439502D01*
X12114494Y-85380537D01*
X12211185Y-85301185D01*
X12290537Y-85204494D01*
X12349502Y-85094180D01*
X12371513Y-85021620D01*
X12503368Y-85153475D01*
X12746589Y-85315990D01*
X13016842Y-85427932D01*
X13303740Y-85485000D01*
X13596260Y-85485000D01*
X13883158Y-85427932D01*
X14153411Y-85315990D01*
X14396632Y-85153475D01*
X14603475Y-84946632D01*
X14720000Y-84772240D01*
X14836525Y-84946632D01*
X15043368Y-85153475D01*
X15286589Y-85315990D01*
X15316725Y-85328473D01*
X8455199Y-92190000D01*
X6503072Y-92190000D01*
X6503072Y-92035000D01*
X6490812Y-91910518D01*
X6454502Y-91790820D01*
X6395537Y-91680506D01*
X6373875Y-91654111D01*
X6406521Y-91605252D01*
X6534670Y-91295872D01*
X6600000Y-90967435D01*
X6600000Y-90632565D01*
X6534670Y-90304128D01*
X6406521Y-89994748D01*
X6220477Y-89716313D01*
X5983687Y-89479523D01*
X5705252Y-89293479D01*
X5395872Y-89165330D01*
X5067435Y-89100000D01*
X4732565Y-89100000D01*
X4404128Y-89165330D01*
X4358875Y-89184074D01*
X4236800Y-89061999D01*
X4236800Y-84065361D01*
X4404128Y-84134670D01*
X4732565Y-84200000D01*
X5067435Y-84200000D01*
X5395872Y-84134670D01*
X5705252Y-84006521D01*
X5983687Y-83820477D01*
X6220477Y-83583687D01*
X6406521Y-83305252D01*
X6534670Y-82995872D01*
X6600000Y-82667435D01*
X6600000Y-82332565D01*
X6534670Y-82004128D01*
X6406521Y-81694748D01*
X6220477Y-81416313D01*
X5983687Y-81179523D01*
X5705252Y-80993479D01*
X5395872Y-80865330D01*
X5067435Y-80800000D01*
X4732565Y-80800000D01*
X4404128Y-80865330D01*
X4236800Y-80934639D01*
X4236800Y-72640475D01*
X13865000Y-72640475D01*
X13865000Y-73159525D01*
X13966261Y-73668601D01*
X14164893Y-74148141D01*
X14453262Y-74579715D01*
X14820285Y-74946738D01*
X15251859Y-75235107D01*
X15731399Y-75433739D01*
X16240475Y-75535000D01*
X16759525Y-75535000D01*
X17268601Y-75433739D01*
X17748141Y-75235107D01*
X18179715Y-74946738D01*
X18546738Y-74579715D01*
X18835107Y-74148141D01*
X19033739Y-73668601D01*
X19135000Y-73159525D01*
X19135000Y-72640475D01*
X19033739Y-72131399D01*
X18835107Y-71651859D01*
X18546738Y-71220285D01*
X18179715Y-70853262D01*
X17748141Y-70564893D01*
X17268601Y-70366261D01*
X16759525Y-70265000D01*
X16240475Y-70265000D01*
X15731399Y-70366261D01*
X15251859Y-70564893D01*
X14820285Y-70853262D01*
X14453262Y-71220285D01*
X14164893Y-71651859D01*
X13966261Y-72131399D01*
X13865000Y-72640475D01*
X4236800Y-72640475D01*
X4236800Y-65165361D01*
X4404128Y-65234670D01*
X4732565Y-65300000D01*
X5067435Y-65300000D01*
X5395872Y-65234670D01*
X5705252Y-65106521D01*
X5983687Y-64920477D01*
X6220477Y-64683687D01*
X6406521Y-64405252D01*
X6534670Y-64095872D01*
X6600000Y-63767435D01*
X6600000Y-63432565D01*
X6534670Y-63104128D01*
X6406521Y-62794748D01*
X6220477Y-62516313D01*
X5983687Y-62279523D01*
X5705252Y-62093479D01*
X5395872Y-61965330D01*
X5067435Y-61900000D01*
X4732565Y-61900000D01*
X4404128Y-61965330D01*
X4236800Y-62034639D01*
X4236800Y-59500000D01*
X16861928Y-59500000D01*
X16861928Y-61300000D01*
X16874188Y-61424482D01*
X16910498Y-61544180D01*
X16969463Y-61654494D01*
X17048815Y-61751185D01*
X17145506Y-61830537D01*
X17255820Y-61889502D01*
X17375518Y-61925812D01*
X17500000Y-61938072D01*
X19300000Y-61938072D01*
X19424482Y-61925812D01*
X19544180Y-61889502D01*
X19654494Y-61830537D01*
X19751185Y-61751185D01*
X19830537Y-61654494D01*
X19883880Y-61554697D01*
X19921495Y-61592312D01*
X20172905Y-61760299D01*
X20452257Y-61876011D01*
X20748816Y-61935000D01*
X20790199Y-61935000D01*
X19377072Y-63348127D01*
X19307753Y-63369154D01*
X19175724Y-63439726D01*
X19059999Y-63534699D01*
X18965026Y-63650424D01*
X18905425Y-63761928D01*
X18700000Y-63761928D01*
X18575518Y-63774188D01*
X18455820Y-63810498D01*
X18345506Y-63869463D01*
X18248815Y-63948815D01*
X18169463Y-64045506D01*
X18110498Y-64155820D01*
X18074188Y-64275518D01*
X18061928Y-64400000D01*
X18061928Y-66200000D01*
X18074188Y-66324482D01*
X18110498Y-66444180D01*
X18169463Y-66554494D01*
X18248815Y-66651185D01*
X18345506Y-66730537D01*
X18455820Y-66789502D01*
X18575518Y-66825812D01*
X18700000Y-66838072D01*
X20500000Y-66838072D01*
X20624482Y-66825812D01*
X20744180Y-66789502D01*
X20854494Y-66730537D01*
X20951185Y-66651185D01*
X21030537Y-66554494D01*
X21089502Y-66444180D01*
X21095056Y-66425873D01*
X21161495Y-66492312D01*
X21412905Y-66660299D01*
X21692257Y-66776011D01*
X21988816Y-66835000D01*
X22291184Y-66835000D01*
X22587743Y-66776011D01*
X22867095Y-66660299D01*
X23118505Y-66492312D01*
X23332312Y-66278505D01*
X23500299Y-66027095D01*
X23616011Y-65747743D01*
X23675000Y-65451184D01*
X23675000Y-65148816D01*
X23616011Y-64852257D01*
X23500299Y-64572905D01*
X23332312Y-64321495D01*
X23118505Y-64107688D01*
X22867095Y-63939701D01*
X22587743Y-63823989D01*
X22291184Y-63765000D01*
X21988816Y-63765000D01*
X21692257Y-63823989D01*
X21412905Y-63939701D01*
X21161495Y-64107688D01*
X21095056Y-64174127D01*
X21089502Y-64155820D01*
X21030537Y-64045506D01*
X20951185Y-63948815D01*
X20937345Y-63937457D01*
X22991070Y-61883731D01*
X23248816Y-61935000D01*
X23551184Y-61935000D01*
X23847743Y-61876011D01*
X24127095Y-61760299D01*
X24378505Y-61592312D01*
X24592312Y-61378505D01*
X24760299Y-61127095D01*
X24876011Y-60847743D01*
X24935000Y-60551184D01*
X24935000Y-60248816D01*
X24876011Y-59952257D01*
X24760299Y-59672905D01*
X24592312Y-59421495D01*
X24378505Y-59207688D01*
X24127095Y-59039701D01*
X23847743Y-58923989D01*
X23551184Y-58865000D01*
X23248816Y-58865000D01*
X22952257Y-58923989D01*
X22672905Y-59039701D01*
X22421495Y-59207688D01*
X22207688Y-59421495D01*
X22150000Y-59507831D01*
X22092312Y-59421495D01*
X21878505Y-59207688D01*
X21627095Y-59039701D01*
X21347743Y-58923989D01*
X21051184Y-58865000D01*
X20748816Y-58865000D01*
X20452257Y-58923989D01*
X20172905Y-59039701D01*
X19921495Y-59207688D01*
X19883880Y-59245303D01*
X19830537Y-59145506D01*
X19751185Y-59048815D01*
X19654494Y-58969463D01*
X19544180Y-58910498D01*
X19424482Y-58874188D01*
X19300000Y-58861928D01*
X17500000Y-58861928D01*
X17375518Y-58874188D01*
X17255820Y-58910498D01*
X17145506Y-58969463D01*
X17048815Y-59048815D01*
X16969463Y-59145506D01*
X16910498Y-59255820D01*
X16874188Y-59375518D01*
X16861928Y-59500000D01*
X4236800Y-59500000D01*
X4236800Y-56865361D01*
X4404128Y-56934670D01*
X4732565Y-57000000D01*
X5067435Y-57000000D01*
X5395872Y-56934670D01*
X5705252Y-56806521D01*
X5983687Y-56620477D01*
X6220477Y-56383687D01*
X6406521Y-56105252D01*
X6534670Y-55795872D01*
X6600000Y-55467435D01*
X6600000Y-55132565D01*
X6534670Y-54804128D01*
X6406521Y-54494748D01*
X6392290Y-54473450D01*
X6395537Y-54469494D01*
X6454502Y-54359180D01*
X6490812Y-54239482D01*
X6503072Y-54115000D01*
X6503072Y-52894575D01*
X6614576Y-52834974D01*
X6730301Y-52740001D01*
X6754103Y-52710998D01*
X6923099Y-52542002D01*
X14105000Y-52542002D01*
X14105000Y-53257997D01*
X14133867Y-53551087D01*
X14247943Y-53927146D01*
X14433193Y-54273725D01*
X14682497Y-54577503D01*
X14986275Y-54826807D01*
X15332853Y-55012057D01*
X15708912Y-55126133D01*
X16100000Y-55164652D01*
X16491087Y-55126133D01*
X16867146Y-55012057D01*
X17213725Y-54826807D01*
X17517503Y-54577503D01*
X17766807Y-54273725D01*
X17952057Y-53927147D01*
X18066133Y-53551088D01*
X18095000Y-53257998D01*
X18095000Y-52542003D01*
X18066133Y-52248913D01*
X17952057Y-51872853D01*
X17766807Y-51526275D01*
X17517503Y-51222497D01*
X17213725Y-50973193D01*
X16867147Y-50787943D01*
X16491088Y-50673867D01*
X16100000Y-50635348D01*
X15708913Y-50673867D01*
X15332854Y-50787943D01*
X14986276Y-50973193D01*
X14682498Y-51222497D01*
X14433193Y-51526275D01*
X14247943Y-51872853D01*
X14133867Y-52248912D01*
X14105000Y-52542002D01*
X6923099Y-52542002D01*
X7214702Y-52250400D01*
X8546178Y-52250400D01*
X8583500Y-52254076D01*
X8620822Y-52250400D01*
X8620833Y-52250400D01*
X8732486Y-52239403D01*
X8875747Y-52195946D01*
X9007776Y-52125374D01*
X9123501Y-52030401D01*
X9147304Y-52001397D01*
X16686985Y-44461717D01*
X16916278Y-44691024D01*
X16865000Y-44948816D01*
X16865000Y-45251184D01*
X16923989Y-45547743D01*
X17039701Y-45827095D01*
X17207688Y-46078505D01*
X17421495Y-46292312D01*
X17672905Y-46460299D01*
X17952257Y-46576011D01*
X18248816Y-46635000D01*
X18551184Y-46635000D01*
X18847743Y-46576011D01*
X19127095Y-46460299D01*
X19378505Y-46292312D01*
X19592312Y-46078505D01*
X19650000Y-45992169D01*
X19707688Y-46078505D01*
X19921495Y-46292312D01*
X20172905Y-46460299D01*
X20452257Y-46576011D01*
X20748816Y-46635000D01*
X21051184Y-46635000D01*
X21347743Y-46576011D01*
X21627095Y-46460299D01*
X21878505Y-46292312D01*
X22092312Y-46078505D01*
X22150000Y-45992169D01*
X22207688Y-46078505D01*
X22421495Y-46292312D01*
X22672905Y-46460299D01*
X22952257Y-46576011D01*
X23248816Y-46635000D01*
X23551184Y-46635000D01*
X23847743Y-46576011D01*
X24127095Y-46460299D01*
X24378505Y-46292312D01*
X24592312Y-46078505D01*
X24760299Y-45827095D01*
X24876011Y-45547743D01*
X24935000Y-45251184D01*
X24935000Y-44948816D01*
X24876011Y-44652257D01*
X24760299Y-44372905D01*
X24592312Y-44121495D01*
X24378505Y-43907688D01*
X24127095Y-43739701D01*
X23847743Y-43623989D01*
X23551184Y-43565000D01*
X23248816Y-43565000D01*
X22952257Y-43623989D01*
X22672905Y-43739701D01*
X22421495Y-43907688D01*
X22207688Y-44121495D01*
X22150000Y-44207831D01*
X22092312Y-44121495D01*
X21878505Y-43907688D01*
X21627095Y-43739701D01*
X21347743Y-43623989D01*
X21051184Y-43565000D01*
X20748816Y-43565000D01*
X20452257Y-43623989D01*
X20172905Y-43739701D01*
X19921495Y-43907688D01*
X19707688Y-44121495D01*
X19650000Y-44207831D01*
X19592312Y-44121495D01*
X19378505Y-43907688D01*
X19127095Y-43739701D01*
X18847743Y-43623989D01*
X18551184Y-43565000D01*
X18248816Y-43565000D01*
X17991116Y-43616259D01*
X17250809Y-42875909D01*
X17250799Y-42875897D01*
X17227001Y-42846899D01*
X17198003Y-42823101D01*
X12480000Y-38105099D01*
X12480000Y-37840475D01*
X13865000Y-37840475D01*
X13865000Y-38359525D01*
X13966261Y-38868601D01*
X14164893Y-39348141D01*
X14453262Y-39779715D01*
X14820285Y-40146738D01*
X15251859Y-40435107D01*
X15731399Y-40633739D01*
X16240475Y-40735000D01*
X16759525Y-40735000D01*
X17268601Y-40633739D01*
X17748141Y-40435107D01*
X18179715Y-40146738D01*
X18546738Y-39779715D01*
X18835107Y-39348141D01*
X19033739Y-38868601D01*
X19135000Y-38359525D01*
X19135000Y-37840475D01*
X19033739Y-37331399D01*
X18835107Y-36851859D01*
X18546738Y-36420285D01*
X18179715Y-36053262D01*
X17748141Y-35764893D01*
X17268601Y-35566261D01*
X16759525Y-35465000D01*
X16240475Y-35465000D01*
X15731399Y-35566261D01*
X15251859Y-35764893D01*
X14820285Y-36053262D01*
X14453262Y-36420285D01*
X14164893Y-36851859D01*
X13966261Y-37331399D01*
X13865000Y-37840475D01*
X12480000Y-37840475D01*
X12480000Y-31396103D01*
X12556842Y-31427932D01*
X12843740Y-31485000D01*
X13136260Y-31485000D01*
X13423158Y-31427932D01*
X13693411Y-31315990D01*
X13900630Y-31177531D01*
X14409401Y-31686302D01*
X14433199Y-31715301D01*
X14462197Y-31739099D01*
X14548923Y-31810274D01*
X14680953Y-31880846D01*
X14824214Y-31924303D01*
X14935867Y-31935300D01*
X14935876Y-31935300D01*
X14973199Y-31938976D01*
X15010522Y-31935300D01*
X26161678Y-31935300D01*
X26199000Y-31938976D01*
X26236322Y-31935300D01*
X26236333Y-31935300D01*
X26347986Y-31924303D01*
X26491247Y-31880846D01*
X26623276Y-31810274D01*
X26739001Y-31715301D01*
X26762804Y-31686297D01*
X27431701Y-31017401D01*
X27431701Y-36547440D01*
G37*
%TD.AperFunction*%
D20*
X17207688Y-80878505D02*
X17421495Y-81092312D01*
X17672905Y-81260299D01*
X17697296Y-81270402D01*
X16902999Y-82064700D01*
X15470522Y-82064700D01*
X15433199Y-82061024D01*
X15395876Y-82064700D01*
X15395867Y-82064700D01*
X15284214Y-82075697D01*
X15140953Y-82119154D01*
X15008923Y-82189726D01*
X14978099Y-82215023D01*
X14893199Y-82284699D01*
X14869401Y-82313698D01*
X14360630Y-82822469D01*
X14153411Y-82684010D01*
X14121860Y-82670941D01*
X16132802Y-80660000D01*
X17061687Y-80660000D01*
X17207688Y-80878505D01*
%TA.AperFunction,NonConductor*%
D21*
G36*
X17207688Y-80878505D02*
G01*
X17421495Y-81092312D01*
X17672905Y-81260299D01*
X17697296Y-81270402D01*
X16902999Y-82064700D01*
X15470522Y-82064700D01*
X15433199Y-82061024D01*
X15395876Y-82064700D01*
X15395867Y-82064700D01*
X15284214Y-82075697D01*
X15140953Y-82119154D01*
X15008923Y-82189726D01*
X14978099Y-82215023D01*
X14893199Y-82284699D01*
X14869401Y-82313698D01*
X14360630Y-82822469D01*
X14153411Y-82684010D01*
X14121860Y-82670941D01*
X16132802Y-80660000D01*
X17061687Y-80660000D01*
X17207688Y-80878505D01*
G37*
%TD.AperFunction*%
D20*
X29315001Y-82651532D02*
X29123158Y-82572068D01*
X28903945Y-82528463D01*
X28940703Y-82407286D01*
X28951700Y-82295633D01*
X28951700Y-82295624D01*
X28955376Y-82258301D01*
X28951700Y-82220978D01*
X28951700Y-16678623D01*
X28955376Y-16641300D01*
X28951700Y-16603977D01*
X28951700Y-16603967D01*
X28940703Y-16492314D01*
X28897246Y-16349053D01*
X28826674Y-16217024D01*
X28731701Y-16101299D01*
X28702703Y-16077501D01*
X27535300Y-14910099D01*
X27535300Y-14847961D01*
X27495526Y-14648002D01*
X27417505Y-14459644D01*
X27304237Y-14290126D01*
X27195984Y-14181873D01*
X27366807Y-13973725D01*
X27552057Y-13627147D01*
X27666133Y-13251088D01*
X27695000Y-12957998D01*
X27695000Y-12242003D01*
X27666133Y-11948913D01*
X27552057Y-11572853D01*
X27366807Y-11226275D01*
X27117503Y-10922497D01*
X26813725Y-10673193D01*
X26467147Y-10487943D01*
X26091088Y-10373867D01*
X25700000Y-10335348D01*
X25308913Y-10373867D01*
X24932854Y-10487943D01*
X24586276Y-10673193D01*
X24282498Y-10922497D01*
X24033193Y-11226275D01*
X23847943Y-11572853D01*
X23733867Y-11948912D01*
X23705000Y-12242002D01*
X23705000Y-12957997D01*
X23733867Y-13251087D01*
X23847943Y-13627146D01*
X24033193Y-13973725D01*
X24282497Y-14277503D01*
X24586275Y-14526807D01*
X24932853Y-14712057D01*
X25308912Y-14826133D01*
X25466553Y-14841659D01*
X25465300Y-14847961D01*
X25465300Y-15051839D01*
X25505074Y-15251798D01*
X25583095Y-15440156D01*
X25696363Y-15609674D01*
X25840526Y-15753837D01*
X26010044Y-15867105D01*
X26198402Y-15945126D01*
X26398361Y-15984900D01*
X26460499Y-15984900D01*
X27431701Y-16956103D01*
X27431701Y-20713900D01*
X27304861Y-20713900D01*
X27104902Y-20753674D01*
X26916544Y-20831695D01*
X26747026Y-20944963D01*
X26602863Y-21089126D01*
X26489595Y-21258644D01*
X26411574Y-21447002D01*
X26371800Y-21646961D01*
X26371800Y-21850839D01*
X26411574Y-22050798D01*
X26489595Y-22239156D01*
X26602863Y-22408674D01*
X26646800Y-22452611D01*
X26646801Y-28856694D01*
X26636632Y-28846525D01*
X26393411Y-28684010D01*
X26123158Y-28572068D01*
X25836260Y-28515000D01*
X25543740Y-28515000D01*
X25256842Y-28572068D01*
X24986589Y-28684010D01*
X24743368Y-28846525D01*
X24536525Y-29053368D01*
X24420000Y-29227760D01*
X24303475Y-29053368D01*
X24096632Y-28846525D01*
X23853411Y-28684010D01*
X23583158Y-28572068D01*
X23296260Y-28515000D01*
X23003740Y-28515000D01*
X22716842Y-28572068D01*
X22446589Y-28684010D01*
X22203368Y-28846525D01*
X21996525Y-29053368D01*
X21880000Y-29227760D01*
X21763475Y-29053368D01*
X21556632Y-28846525D01*
X21549152Y-28841527D01*
X21574403Y-28758286D01*
X21585400Y-28646633D01*
X21585400Y-28646632D01*
X21589077Y-28609300D01*
X21585400Y-28571967D01*
X21585400Y-26431749D01*
X21692257Y-26476011D01*
X21988816Y-26535000D01*
X22291184Y-26535000D01*
X22587743Y-26476011D01*
X22867095Y-26360299D01*
X23118505Y-26192312D01*
X23332312Y-25978505D01*
X23500299Y-25727095D01*
X23616011Y-25447743D01*
X23675000Y-25151184D01*
X23675000Y-24848816D01*
X23616011Y-24552257D01*
X23500299Y-24272905D01*
X23332312Y-24021495D01*
X23118505Y-23807688D01*
X22867095Y-23639701D01*
X22587743Y-23523989D01*
X22291184Y-23465000D01*
X21988816Y-23465000D01*
X21692257Y-23523989D01*
X21585400Y-23568251D01*
X21585400Y-22587323D01*
X21589076Y-22550000D01*
X21585400Y-22512677D01*
X21585400Y-22512667D01*
X21574403Y-22401014D01*
X21530946Y-22257753D01*
X21460374Y-22125724D01*
X21365401Y-22009999D01*
X21336403Y-21986201D01*
X20985202Y-21635000D01*
X21051184Y-21635000D01*
X21347743Y-21576011D01*
X21627095Y-21460299D01*
X21878505Y-21292312D01*
X22092312Y-21078505D01*
X22150000Y-20992169D01*
X22207688Y-21078505D01*
X22421495Y-21292312D01*
X22672905Y-21460299D01*
X22952257Y-21576011D01*
X23248816Y-21635000D01*
X23551184Y-21635000D01*
X23847743Y-21576011D01*
X24127095Y-21460299D01*
X24378505Y-21292312D01*
X24592312Y-21078505D01*
X24760299Y-20827095D01*
X24876011Y-20547743D01*
X24935000Y-20251184D01*
X24935000Y-19948816D01*
X24876011Y-19652257D01*
X24760299Y-19372905D01*
X24592312Y-19121495D01*
X24378505Y-18907688D01*
X24127095Y-18739701D01*
X23847743Y-18623989D01*
X23551184Y-18565000D01*
X23248816Y-18565000D01*
X22952257Y-18623989D01*
X22672905Y-18739701D01*
X22421495Y-18907688D01*
X22207688Y-19121495D01*
X22150000Y-19207831D01*
X22092312Y-19121495D01*
X21878505Y-18907688D01*
X21627095Y-18739701D01*
X21347743Y-18623989D01*
X21051184Y-18565000D01*
X20748816Y-18565000D01*
X20452257Y-18623989D01*
X20385500Y-18651641D01*
X20385500Y-4942122D01*
X20389176Y-4904799D01*
X20385500Y-4867476D01*
X20385500Y-4867467D01*
X20374503Y-4755814D01*
X20331046Y-4612553D01*
X20324788Y-4600846D01*
X20260474Y-4480523D01*
X20189299Y-4393797D01*
X20165501Y-4364799D01*
X20136502Y-4341000D01*
X20064300Y-4268798D01*
X20064300Y-4206661D01*
X20024526Y-4006702D01*
X19946505Y-3818344D01*
X19833237Y-3648826D01*
X19689074Y-3504663D01*
X19519556Y-3391395D01*
X19331198Y-3313374D01*
X19131239Y-3273600D01*
X18927361Y-3273600D01*
X18727402Y-3313374D01*
X18539044Y-3391395D01*
X18369526Y-3504663D01*
X18225363Y-3648826D01*
X18112095Y-3818344D01*
X18034074Y-4006702D01*
X17994300Y-4206661D01*
X17994300Y-4410539D01*
X18034074Y-4610498D01*
X18112095Y-4798856D01*
X18225363Y-4968374D01*
X18369526Y-5112537D01*
X18539044Y-5225805D01*
X18727402Y-5303826D01*
X18865501Y-5331295D01*
X18865500Y-18561928D01*
X17500000Y-18561928D01*
X17375518Y-18574188D01*
X17255820Y-18610498D01*
X17145506Y-18669463D01*
X17048815Y-18748815D01*
X16980977Y-18831476D01*
X10838504Y-12689003D01*
X10814701Y-12659999D01*
X10698976Y-12565026D01*
X10566947Y-12494454D01*
X10423686Y-12450997D01*
X10312033Y-12440000D01*
X10312022Y-12440000D01*
X10274700Y-12436324D01*
X10237378Y-12440000D01*
X6503072Y-12440000D01*
X6503072Y-12242002D01*
X14105000Y-12242002D01*
X14105000Y-12957997D01*
X14133867Y-13251087D01*
X14247943Y-13627146D01*
X14433193Y-13973725D01*
X14682497Y-14277503D01*
X14986275Y-14526807D01*
X15332853Y-14712057D01*
X15708912Y-14826133D01*
X16100000Y-14864652D01*
X16491087Y-14826133D01*
X16867146Y-14712057D01*
X17213725Y-14526807D01*
X17517503Y-14277503D01*
X17766807Y-13973725D01*
X17952057Y-13627147D01*
X18066133Y-13251088D01*
X18095000Y-12957998D01*
X18095000Y-12242003D01*
X18066133Y-11948913D01*
X17952057Y-11572853D01*
X17766807Y-11226275D01*
X17517503Y-10922497D01*
X17213725Y-10673193D01*
X16867147Y-10487943D01*
X16491088Y-10373867D01*
X16100000Y-10335348D01*
X15708913Y-10373867D01*
X15332854Y-10487943D01*
X14986276Y-10673193D01*
X14682498Y-10922497D01*
X14433193Y-11226275D01*
X14247943Y-11572853D01*
X14133867Y-11948912D01*
X14105000Y-12242002D01*
X6503072Y-12242002D01*
X6503072Y-11285000D01*
X6490812Y-11160518D01*
X6454502Y-11040820D01*
X6395537Y-10930506D01*
X6392290Y-10926550D01*
X6406521Y-10905252D01*
X6534670Y-10595872D01*
X6600000Y-10267435D01*
X6600000Y-9932565D01*
X6534670Y-9604128D01*
X6406521Y-9294748D01*
X6220477Y-9016313D01*
X5983687Y-8779523D01*
X5705252Y-8593479D01*
X5395872Y-8465330D01*
X5067435Y-8400000D01*
X4732565Y-8400000D01*
X4404128Y-8465330D01*
X4236800Y-8534639D01*
X4236800Y-3538001D01*
X4358875Y-3415926D01*
X4404128Y-3434670D01*
X4732565Y-3500000D01*
X5067435Y-3500000D01*
X5395872Y-3434670D01*
X5705252Y-3306521D01*
X5983687Y-3120477D01*
X6220477Y-2883687D01*
X6406521Y-2605252D01*
X6534670Y-2295872D01*
X6600000Y-1967435D01*
X6600000Y-1632565D01*
X6534670Y-1304128D01*
X6406521Y-994748D01*
X6220477Y-716313D01*
X6189164Y-685000D01*
X29315000Y-685000D01*
X29315001Y-82651532D01*
%TA.AperFunction,NonConductor*%
D21*
G36*
X29315001Y-82651532D02*
G01*
X29123158Y-82572068D01*
X28903945Y-82528463D01*
X28940703Y-82407286D01*
X28951700Y-82295633D01*
X28951700Y-82295624D01*
X28955376Y-82258301D01*
X28951700Y-82220978D01*
X28951700Y-16678623D01*
X28955376Y-16641300D01*
X28951700Y-16603977D01*
X28951700Y-16603967D01*
X28940703Y-16492314D01*
X28897246Y-16349053D01*
X28826674Y-16217024D01*
X28731701Y-16101299D01*
X28702703Y-16077501D01*
X27535300Y-14910099D01*
X27535300Y-14847961D01*
X27495526Y-14648002D01*
X27417505Y-14459644D01*
X27304237Y-14290126D01*
X27195984Y-14181873D01*
X27366807Y-13973725D01*
X27552057Y-13627147D01*
X27666133Y-13251088D01*
X27695000Y-12957998D01*
X27695000Y-12242003D01*
X27666133Y-11948913D01*
X27552057Y-11572853D01*
X27366807Y-11226275D01*
X27117503Y-10922497D01*
X26813725Y-10673193D01*
X26467147Y-10487943D01*
X26091088Y-10373867D01*
X25700000Y-10335348D01*
X25308913Y-10373867D01*
X24932854Y-10487943D01*
X24586276Y-10673193D01*
X24282498Y-10922497D01*
X24033193Y-11226275D01*
X23847943Y-11572853D01*
X23733867Y-11948912D01*
X23705000Y-12242002D01*
X23705000Y-12957997D01*
X23733867Y-13251087D01*
X23847943Y-13627146D01*
X24033193Y-13973725D01*
X24282497Y-14277503D01*
X24586275Y-14526807D01*
X24932853Y-14712057D01*
X25308912Y-14826133D01*
X25466553Y-14841659D01*
X25465300Y-14847961D01*
X25465300Y-15051839D01*
X25505074Y-15251798D01*
X25583095Y-15440156D01*
X25696363Y-15609674D01*
X25840526Y-15753837D01*
X26010044Y-15867105D01*
X26198402Y-15945126D01*
X26398361Y-15984900D01*
X26460499Y-15984900D01*
X27431701Y-16956103D01*
X27431701Y-20713900D01*
X27304861Y-20713900D01*
X27104902Y-20753674D01*
X26916544Y-20831695D01*
X26747026Y-20944963D01*
X26602863Y-21089126D01*
X26489595Y-21258644D01*
X26411574Y-21447002D01*
X26371800Y-21646961D01*
X26371800Y-21850839D01*
X26411574Y-22050798D01*
X26489595Y-22239156D01*
X26602863Y-22408674D01*
X26646800Y-22452611D01*
X26646801Y-28856694D01*
X26636632Y-28846525D01*
X26393411Y-28684010D01*
X26123158Y-28572068D01*
X25836260Y-28515000D01*
X25543740Y-28515000D01*
X25256842Y-28572068D01*
X24986589Y-28684010D01*
X24743368Y-28846525D01*
X24536525Y-29053368D01*
X24420000Y-29227760D01*
X24303475Y-29053368D01*
X24096632Y-28846525D01*
X23853411Y-28684010D01*
X23583158Y-28572068D01*
X23296260Y-28515000D01*
X23003740Y-28515000D01*
X22716842Y-28572068D01*
X22446589Y-28684010D01*
X22203368Y-28846525D01*
X21996525Y-29053368D01*
X21880000Y-29227760D01*
X21763475Y-29053368D01*
X21556632Y-28846525D01*
X21549152Y-28841527D01*
X21574403Y-28758286D01*
X21585400Y-28646633D01*
X21585400Y-28646632D01*
X21589077Y-28609300D01*
X21585400Y-28571967D01*
X21585400Y-26431749D01*
X21692257Y-26476011D01*
X21988816Y-26535000D01*
X22291184Y-26535000D01*
X22587743Y-26476011D01*
X22867095Y-26360299D01*
X23118505Y-26192312D01*
X23332312Y-25978505D01*
X23500299Y-25727095D01*
X23616011Y-25447743D01*
X23675000Y-25151184D01*
X23675000Y-24848816D01*
X23616011Y-24552257D01*
X23500299Y-24272905D01*
X23332312Y-24021495D01*
X23118505Y-23807688D01*
X22867095Y-23639701D01*
X22587743Y-23523989D01*
X22291184Y-23465000D01*
X21988816Y-23465000D01*
X21692257Y-23523989D01*
X21585400Y-23568251D01*
X21585400Y-22587323D01*
X21589076Y-22550000D01*
X21585400Y-22512677D01*
X21585400Y-22512667D01*
X21574403Y-22401014D01*
X21530946Y-22257753D01*
X21460374Y-22125724D01*
X21365401Y-22009999D01*
X21336403Y-21986201D01*
X20985202Y-21635000D01*
X21051184Y-21635000D01*
X21347743Y-21576011D01*
X21627095Y-21460299D01*
X21878505Y-21292312D01*
X22092312Y-21078505D01*
X22150000Y-20992169D01*
X22207688Y-21078505D01*
X22421495Y-21292312D01*
X22672905Y-21460299D01*
X22952257Y-21576011D01*
X23248816Y-21635000D01*
X23551184Y-21635000D01*
X23847743Y-21576011D01*
X24127095Y-21460299D01*
X24378505Y-21292312D01*
X24592312Y-21078505D01*
X24760299Y-20827095D01*
X24876011Y-20547743D01*
X24935000Y-20251184D01*
X24935000Y-19948816D01*
X24876011Y-19652257D01*
X24760299Y-19372905D01*
X24592312Y-19121495D01*
X24378505Y-18907688D01*
X24127095Y-18739701D01*
X23847743Y-18623989D01*
X23551184Y-18565000D01*
X23248816Y-18565000D01*
X22952257Y-18623989D01*
X22672905Y-18739701D01*
X22421495Y-18907688D01*
X22207688Y-19121495D01*
X22150000Y-19207831D01*
X22092312Y-19121495D01*
X21878505Y-18907688D01*
X21627095Y-18739701D01*
X21347743Y-18623989D01*
X21051184Y-18565000D01*
X20748816Y-18565000D01*
X20452257Y-18623989D01*
X20385500Y-18651641D01*
X20385500Y-4942122D01*
X20389176Y-4904799D01*
X20385500Y-4867476D01*
X20385500Y-4867467D01*
X20374503Y-4755814D01*
X20331046Y-4612553D01*
X20324788Y-4600846D01*
X20260474Y-4480523D01*
X20189299Y-4393797D01*
X20165501Y-4364799D01*
X20136502Y-4341000D01*
X20064300Y-4268798D01*
X20064300Y-4206661D01*
X20024526Y-4006702D01*
X19946505Y-3818344D01*
X19833237Y-3648826D01*
X19689074Y-3504663D01*
X19519556Y-3391395D01*
X19331198Y-3313374D01*
X19131239Y-3273600D01*
X18927361Y-3273600D01*
X18727402Y-3313374D01*
X18539044Y-3391395D01*
X18369526Y-3504663D01*
X18225363Y-3648826D01*
X18112095Y-3818344D01*
X18034074Y-4006702D01*
X17994300Y-4206661D01*
X17994300Y-4410539D01*
X18034074Y-4610498D01*
X18112095Y-4798856D01*
X18225363Y-4968374D01*
X18369526Y-5112537D01*
X18539044Y-5225805D01*
X18727402Y-5303826D01*
X18865501Y-5331295D01*
X18865500Y-18561928D01*
X17500000Y-18561928D01*
X17375518Y-18574188D01*
X17255820Y-18610498D01*
X17145506Y-18669463D01*
X17048815Y-18748815D01*
X16980977Y-18831476D01*
X10838504Y-12689003D01*
X10814701Y-12659999D01*
X10698976Y-12565026D01*
X10566947Y-12494454D01*
X10423686Y-12450997D01*
X10312033Y-12440000D01*
X10312022Y-12440000D01*
X10274700Y-12436324D01*
X10237378Y-12440000D01*
X6503072Y-12440000D01*
X6503072Y-12242002D01*
X14105000Y-12242002D01*
X14105000Y-12957997D01*
X14133867Y-13251087D01*
X14247943Y-13627146D01*
X14433193Y-13973725D01*
X14682497Y-14277503D01*
X14986275Y-14526807D01*
X15332853Y-14712057D01*
X15708912Y-14826133D01*
X16100000Y-14864652D01*
X16491087Y-14826133D01*
X16867146Y-14712057D01*
X17213725Y-14526807D01*
X17517503Y-14277503D01*
X17766807Y-13973725D01*
X17952057Y-13627147D01*
X18066133Y-13251088D01*
X18095000Y-12957998D01*
X18095000Y-12242003D01*
X18066133Y-11948913D01*
X17952057Y-11572853D01*
X17766807Y-11226275D01*
X17517503Y-10922497D01*
X17213725Y-10673193D01*
X16867147Y-10487943D01*
X16491088Y-10373867D01*
X16100000Y-10335348D01*
X15708913Y-10373867D01*
X15332854Y-10487943D01*
X14986276Y-10673193D01*
X14682498Y-10922497D01*
X14433193Y-11226275D01*
X14247943Y-11572853D01*
X14133867Y-11948912D01*
X14105000Y-12242002D01*
X6503072Y-12242002D01*
X6503072Y-11285000D01*
X6490812Y-11160518D01*
X6454502Y-11040820D01*
X6395537Y-10930506D01*
X6392290Y-10926550D01*
X6406521Y-10905252D01*
X6534670Y-10595872D01*
X6600000Y-10267435D01*
X6600000Y-9932565D01*
X6534670Y-9604128D01*
X6406521Y-9294748D01*
X6220477Y-9016313D01*
X5983687Y-8779523D01*
X5705252Y-8593479D01*
X5395872Y-8465330D01*
X5067435Y-8400000D01*
X4732565Y-8400000D01*
X4404128Y-8465330D01*
X4236800Y-8534639D01*
X4236800Y-3538001D01*
X4358875Y-3415926D01*
X4404128Y-3434670D01*
X4732565Y-3500000D01*
X5067435Y-3500000D01*
X5395872Y-3434670D01*
X5705252Y-3306521D01*
X5983687Y-3120477D01*
X6220477Y-2883687D01*
X6406521Y-2605252D01*
X6534670Y-2295872D01*
X6600000Y-1967435D01*
X6600000Y-1632565D01*
X6534670Y-1304128D01*
X6406521Y-994748D01*
X6220477Y-716313D01*
X6189164Y-685000D01*
X29315000Y-685000D01*
X29315001Y-82651532D01*
G37*
%TD.AperFunction*%
D20*
X4265026Y-29591276D02*
X4287285Y-29618398D01*
X4359999Y-29707001D01*
X4389003Y-29730804D01*
X6350801Y-31692603D01*
X6374599Y-31721601D01*
X6490324Y-31816574D01*
X6622353Y-31887146D01*
X6765614Y-31930603D01*
X6877267Y-31941600D01*
X6877275Y-31941600D01*
X6914600Y-31945276D01*
X6951925Y-31941600D01*
X8863778Y-31941600D01*
X8901100Y-31945276D01*
X8938422Y-31941600D01*
X8938433Y-31941600D01*
X9050086Y-31930603D01*
X9193347Y-31887146D01*
X9325376Y-31816574D01*
X9441101Y-31721601D01*
X9464904Y-31692597D01*
X9785697Y-31371804D01*
X9814701Y-31348001D01*
X9817027Y-31345166D01*
X10016842Y-31427932D01*
X10303740Y-31485000D01*
X10596260Y-31485000D01*
X10883158Y-31427932D01*
X10960001Y-31396103D01*
X10960000Y-38382578D01*
X10956324Y-38419900D01*
X10960000Y-38457222D01*
X10960000Y-38457232D01*
X10970997Y-38568885D01*
X11014454Y-38712146D01*
X11085026Y-38844176D01*
X11124871Y-38892726D01*
X11179999Y-38959901D01*
X11209003Y-38983704D01*
X15612198Y-43386900D01*
X8268699Y-50730400D01*
X6937223Y-50730400D01*
X6899900Y-50726724D01*
X6862577Y-50730400D01*
X6862567Y-50730400D01*
X6750914Y-50741397D01*
X6607653Y-50784854D01*
X6475623Y-50855426D01*
X6414911Y-50905252D01*
X6396335Y-50920497D01*
X6406521Y-50905252D01*
X6534670Y-50595872D01*
X6600000Y-50267435D01*
X6600000Y-49932565D01*
X6534670Y-49604128D01*
X6406521Y-49294748D01*
X6220477Y-49016313D01*
X5983687Y-48779523D01*
X5705252Y-48593479D01*
X5395872Y-48465330D01*
X5067435Y-48400000D01*
X4732565Y-48400000D01*
X4404128Y-48465330D01*
X4236800Y-48534639D01*
X4236800Y-43365361D01*
X4404128Y-43434670D01*
X4732565Y-43500000D01*
X5067435Y-43500000D01*
X5395872Y-43434670D01*
X5705252Y-43306521D01*
X5983687Y-43120477D01*
X6220477Y-42883687D01*
X6406521Y-42605252D01*
X6534670Y-42295872D01*
X6600000Y-41967435D01*
X6600000Y-41632565D01*
X6534670Y-41304128D01*
X6406521Y-40994748D01*
X6220477Y-40716313D01*
X5983687Y-40479523D01*
X5705252Y-40293479D01*
X5395872Y-40165330D01*
X5067435Y-40100000D01*
X4732565Y-40100000D01*
X4404128Y-40165330D01*
X4236800Y-40234639D01*
X4236800Y-29538469D01*
X4265026Y-29591276D01*
%TA.AperFunction,NonConductor*%
D21*
G36*
X4265026Y-29591276D02*
G01*
X4287285Y-29618398D01*
X4359999Y-29707001D01*
X4389003Y-29730804D01*
X6350801Y-31692603D01*
X6374599Y-31721601D01*
X6490324Y-31816574D01*
X6622353Y-31887146D01*
X6765614Y-31930603D01*
X6877267Y-31941600D01*
X6877275Y-31941600D01*
X6914600Y-31945276D01*
X6951925Y-31941600D01*
X8863778Y-31941600D01*
X8901100Y-31945276D01*
X8938422Y-31941600D01*
X8938433Y-31941600D01*
X9050086Y-31930603D01*
X9193347Y-31887146D01*
X9325376Y-31816574D01*
X9441101Y-31721601D01*
X9464904Y-31692597D01*
X9785697Y-31371804D01*
X9814701Y-31348001D01*
X9817027Y-31345166D01*
X10016842Y-31427932D01*
X10303740Y-31485000D01*
X10596260Y-31485000D01*
X10883158Y-31427932D01*
X10960001Y-31396103D01*
X10960000Y-38382578D01*
X10956324Y-38419900D01*
X10960000Y-38457222D01*
X10960000Y-38457232D01*
X10970997Y-38568885D01*
X11014454Y-38712146D01*
X11085026Y-38844176D01*
X11124871Y-38892726D01*
X11179999Y-38959901D01*
X11209003Y-38983704D01*
X15612198Y-43386900D01*
X8268699Y-50730400D01*
X6937223Y-50730400D01*
X6899900Y-50726724D01*
X6862577Y-50730400D01*
X6862567Y-50730400D01*
X6750914Y-50741397D01*
X6607653Y-50784854D01*
X6475623Y-50855426D01*
X6414911Y-50905252D01*
X6396335Y-50920497D01*
X6406521Y-50905252D01*
X6534670Y-50595872D01*
X6600000Y-50267435D01*
X6600000Y-49932565D01*
X6534670Y-49604128D01*
X6406521Y-49294748D01*
X6220477Y-49016313D01*
X5983687Y-48779523D01*
X5705252Y-48593479D01*
X5395872Y-48465330D01*
X5067435Y-48400000D01*
X4732565Y-48400000D01*
X4404128Y-48465330D01*
X4236800Y-48534639D01*
X4236800Y-43365361D01*
X4404128Y-43434670D01*
X4732565Y-43500000D01*
X5067435Y-43500000D01*
X5395872Y-43434670D01*
X5705252Y-43306521D01*
X5983687Y-43120477D01*
X6220477Y-42883687D01*
X6406521Y-42605252D01*
X6534670Y-42295872D01*
X6600000Y-41967435D01*
X6600000Y-41632565D01*
X6534670Y-41304128D01*
X6406521Y-40994748D01*
X6220477Y-40716313D01*
X5983687Y-40479523D01*
X5705252Y-40293479D01*
X5395872Y-40165330D01*
X5067435Y-40100000D01*
X4732565Y-40100000D01*
X4404128Y-40165330D01*
X4236800Y-40234639D01*
X4236800Y-29538469D01*
X4265026Y-29591276D01*
G37*
%TD.AperFunction*%
D20*
X16610901Y-20611003D02*
X16634699Y-20640001D01*
X16663697Y-20663799D01*
X16750424Y-20734974D01*
X16861928Y-20794575D01*
X16861928Y-21000000D01*
X16874188Y-21124482D01*
X16910498Y-21244180D01*
X16969463Y-21354494D01*
X17048815Y-21451185D01*
X17145506Y-21530537D01*
X17255820Y-21589502D01*
X17375518Y-21625812D01*
X17500000Y-21638072D01*
X18918658Y-21638072D01*
X18919954Y-21642346D01*
X18990526Y-21774376D01*
X19000331Y-21786323D01*
X19085499Y-21890101D01*
X19114503Y-21913904D01*
X20065401Y-22864803D01*
X20065401Y-23461928D01*
X18700000Y-23461928D01*
X18575518Y-23474188D01*
X18455820Y-23510498D01*
X18345506Y-23569463D01*
X18248815Y-23648815D01*
X18169463Y-23745506D01*
X18110498Y-23855820D01*
X18074188Y-23975518D01*
X18061928Y-24100000D01*
X18061928Y-24240000D01*
X16338122Y-24240000D01*
X16300799Y-24236324D01*
X16263476Y-24240000D01*
X16263467Y-24240000D01*
X16151814Y-24250997D01*
X16008553Y-24294454D01*
X15876524Y-24365026D01*
X15876522Y-24365027D01*
X15876523Y-24365027D01*
X15789796Y-24436201D01*
X15789792Y-24436205D01*
X15760799Y-24459999D01*
X15737005Y-24488992D01*
X11720000Y-28505999D01*
X11527603Y-28313602D01*
X11503801Y-28284599D01*
X11388076Y-28189626D01*
X11256047Y-28119054D01*
X11112786Y-28075597D01*
X11001133Y-28064600D01*
X11001122Y-28064600D01*
X10963800Y-28060924D01*
X10926478Y-28064600D01*
X9122733Y-28064600D01*
X9085400Y-28060923D01*
X9048067Y-28064600D01*
X8936414Y-28075597D01*
X8793153Y-28119054D01*
X8661124Y-28189626D01*
X8545399Y-28284599D01*
X8521601Y-28313597D01*
X8323270Y-28511928D01*
X7060000Y-28511928D01*
X6935518Y-28524188D01*
X6815820Y-28560498D01*
X6705506Y-28619463D01*
X6608815Y-28698815D01*
X6529463Y-28795506D01*
X6470498Y-28905820D01*
X6434188Y-29025518D01*
X6421928Y-29150000D01*
X6421928Y-29614127D01*
X5660000Y-28852199D01*
X5660000Y-25125265D01*
X5705252Y-25106521D01*
X5983687Y-24920477D01*
X6220477Y-24683687D01*
X6406521Y-24405252D01*
X6534670Y-24095872D01*
X6600000Y-23767435D01*
X6600000Y-23432565D01*
X6534670Y-23104128D01*
X6406521Y-22794748D01*
X6220477Y-22516313D01*
X5983687Y-22279523D01*
X5705252Y-22093479D01*
X5395872Y-21965330D01*
X5067435Y-21900000D01*
X4732565Y-21900000D01*
X4404128Y-21965330D01*
X4236800Y-22034639D01*
X4236800Y-16865361D01*
X4404128Y-16934670D01*
X4732565Y-17000000D01*
X5067435Y-17000000D01*
X5395872Y-16934670D01*
X5705252Y-16806521D01*
X5983687Y-16620477D01*
X6220477Y-16383687D01*
X6406521Y-16105252D01*
X6534670Y-15795872D01*
X6600000Y-15467435D01*
X6600000Y-15132565D01*
X6534670Y-14804128D01*
X6406521Y-14494748D01*
X6392290Y-14473450D01*
X6395537Y-14469494D01*
X6454502Y-14359180D01*
X6490812Y-14239482D01*
X6503072Y-14115000D01*
X6503072Y-13960000D01*
X9959899Y-13960000D01*
X16610901Y-20611003D01*
%TA.AperFunction,NonConductor*%
D21*
G36*
X16610901Y-20611003D02*
G01*
X16634699Y-20640001D01*
X16663697Y-20663799D01*
X16750424Y-20734974D01*
X16861928Y-20794575D01*
X16861928Y-21000000D01*
X16874188Y-21124482D01*
X16910498Y-21244180D01*
X16969463Y-21354494D01*
X17048815Y-21451185D01*
X17145506Y-21530537D01*
X17255820Y-21589502D01*
X17375518Y-21625812D01*
X17500000Y-21638072D01*
X18918658Y-21638072D01*
X18919954Y-21642346D01*
X18990526Y-21774376D01*
X19000331Y-21786323D01*
X19085499Y-21890101D01*
X19114503Y-21913904D01*
X20065401Y-22864803D01*
X20065401Y-23461928D01*
X18700000Y-23461928D01*
X18575518Y-23474188D01*
X18455820Y-23510498D01*
X18345506Y-23569463D01*
X18248815Y-23648815D01*
X18169463Y-23745506D01*
X18110498Y-23855820D01*
X18074188Y-23975518D01*
X18061928Y-24100000D01*
X18061928Y-24240000D01*
X16338122Y-24240000D01*
X16300799Y-24236324D01*
X16263476Y-24240000D01*
X16263467Y-24240000D01*
X16151814Y-24250997D01*
X16008553Y-24294454D01*
X15876524Y-24365026D01*
X15876522Y-24365027D01*
X15876523Y-24365027D01*
X15789796Y-24436201D01*
X15789792Y-24436205D01*
X15760799Y-24459999D01*
X15737005Y-24488992D01*
X11720000Y-28505999D01*
X11527603Y-28313602D01*
X11503801Y-28284599D01*
X11388076Y-28189626D01*
X11256047Y-28119054D01*
X11112786Y-28075597D01*
X11001133Y-28064600D01*
X11001122Y-28064600D01*
X10963800Y-28060924D01*
X10926478Y-28064600D01*
X9122733Y-28064600D01*
X9085400Y-28060923D01*
X9048067Y-28064600D01*
X8936414Y-28075597D01*
X8793153Y-28119054D01*
X8661124Y-28189626D01*
X8545399Y-28284599D01*
X8521601Y-28313597D01*
X8323270Y-28511928D01*
X7060000Y-28511928D01*
X6935518Y-28524188D01*
X6815820Y-28560498D01*
X6705506Y-28619463D01*
X6608815Y-28698815D01*
X6529463Y-28795506D01*
X6470498Y-28905820D01*
X6434188Y-29025518D01*
X6421928Y-29150000D01*
X6421928Y-29614127D01*
X5660000Y-28852199D01*
X5660000Y-25125265D01*
X5705252Y-25106521D01*
X5983687Y-24920477D01*
X6220477Y-24683687D01*
X6406521Y-24405252D01*
X6534670Y-24095872D01*
X6600000Y-23767435D01*
X6600000Y-23432565D01*
X6534670Y-23104128D01*
X6406521Y-22794748D01*
X6220477Y-22516313D01*
X5983687Y-22279523D01*
X5705252Y-22093479D01*
X5395872Y-21965330D01*
X5067435Y-21900000D01*
X4732565Y-21900000D01*
X4404128Y-21965330D01*
X4236800Y-22034639D01*
X4236800Y-16865361D01*
X4404128Y-16934670D01*
X4732565Y-17000000D01*
X5067435Y-17000000D01*
X5395872Y-16934670D01*
X5705252Y-16806521D01*
X5983687Y-16620477D01*
X6220477Y-16383687D01*
X6406521Y-16105252D01*
X6534670Y-15795872D01*
X6600000Y-15467435D01*
X6600000Y-15132565D01*
X6534670Y-14804128D01*
X6406521Y-14494748D01*
X6392290Y-14473450D01*
X6395537Y-14469494D01*
X6454502Y-14359180D01*
X6490812Y-14239482D01*
X6503072Y-14115000D01*
X6503072Y-13960000D01*
X9959899Y-13960000D01*
X16610901Y-20611003D01*
G37*
%TD.AperFunction*%
D20*
X18061928Y-25900000D02*
X18074188Y-26024482D01*
X18110498Y-26144180D01*
X18169463Y-26254494D01*
X18248815Y-26351185D01*
X18345506Y-26430537D01*
X18455820Y-26489502D01*
X18575518Y-26525812D01*
X18700000Y-26538072D01*
X20065400Y-26538072D01*
X20065400Y-28290304D01*
X20046202Y-28313697D01*
X20046201Y-28313698D01*
X19975026Y-28400424D01*
X19904454Y-28532454D01*
X19892438Y-28572068D01*
X19861029Y-28675614D01*
X19860998Y-28675715D01*
X19856912Y-28717203D01*
X19663368Y-28846525D01*
X19456525Y-29053368D01*
X19340000Y-29227760D01*
X19223475Y-29053368D01*
X19016632Y-28846525D01*
X18773411Y-28684010D01*
X18503158Y-28572068D01*
X18216260Y-28515000D01*
X17923740Y-28515000D01*
X17636842Y-28572068D01*
X17366589Y-28684010D01*
X17123368Y-28846525D01*
X16916525Y-29053368D01*
X16800000Y-29227760D01*
X16683475Y-29053368D01*
X16476632Y-28846525D01*
X16233411Y-28684010D01*
X15963158Y-28572068D01*
X15676260Y-28515000D01*
X15383740Y-28515000D01*
X15096842Y-28572068D01*
X14826589Y-28684010D01*
X14583368Y-28846525D01*
X14376525Y-29053368D01*
X14260000Y-29227760D01*
X14143475Y-29053368D01*
X13936632Y-28846525D01*
X13693411Y-28684010D01*
X13692125Y-28683477D01*
X16615603Y-25760000D01*
X18061928Y-25760000D01*
X18061928Y-25900000D01*
%TA.AperFunction,NonConductor*%
D21*
G36*
X18061928Y-25900000D02*
G01*
X18074188Y-26024482D01*
X18110498Y-26144180D01*
X18169463Y-26254494D01*
X18248815Y-26351185D01*
X18345506Y-26430537D01*
X18455820Y-26489502D01*
X18575518Y-26525812D01*
X18700000Y-26538072D01*
X20065400Y-26538072D01*
X20065400Y-28290304D01*
X20046202Y-28313697D01*
X20046201Y-28313698D01*
X19975026Y-28400424D01*
X19904454Y-28532454D01*
X19892438Y-28572068D01*
X19861029Y-28675614D01*
X19860998Y-28675715D01*
X19856912Y-28717203D01*
X19663368Y-28846525D01*
X19456525Y-29053368D01*
X19340000Y-29227760D01*
X19223475Y-29053368D01*
X19016632Y-28846525D01*
X18773411Y-28684010D01*
X18503158Y-28572068D01*
X18216260Y-28515000D01*
X17923740Y-28515000D01*
X17636842Y-28572068D01*
X17366589Y-28684010D01*
X17123368Y-28846525D01*
X16916525Y-29053368D01*
X16800000Y-29227760D01*
X16683475Y-29053368D01*
X16476632Y-28846525D01*
X16233411Y-28684010D01*
X15963158Y-28572068D01*
X15676260Y-28515000D01*
X15383740Y-28515000D01*
X15096842Y-28572068D01*
X14826589Y-28684010D01*
X14583368Y-28846525D01*
X14376525Y-29053368D01*
X14260000Y-29227760D01*
X14143475Y-29053368D01*
X13936632Y-28846525D01*
X13693411Y-28684010D01*
X13692125Y-28683477D01*
X16615603Y-25760000D01*
X18061928Y-25760000D01*
X18061928Y-25900000D01*
G37*
%TD.AperFunction*%
M02*
