%TF.GenerationSoftware,KiCad,Pcbnew,(5.1.9-0-10_14)*%
%TF.CreationDate,2021-04-20T22:44:58+02:00*%
%TF.ProjectId,tribus_front,74726962-7573-45f6-9672-6f6e742e6b69,rev?*%
%TF.SameCoordinates,Original*%
%TF.FileFunction,Soldermask,Bot*%
%TF.FilePolarity,Negative*%
%FSLAX46Y46*%
G04 Gerber Fmt 4.6, Leading zero omitted, Abs format (unit mm)*
G04 Created by KiCad (PCBNEW (5.1.9-0-10_14)) date 2021-04-20 22:44:58*
%MOMM*%
%LPD*%
G01*
G04 APERTURE LIST*
%ADD10C,1.800000*%
%ADD11R,1.800000X1.800000*%
%ADD12C,2.130000*%
%ADD13R,1.930000X1.830000*%
%ADD14O,2.720000X3.240000*%
%ADD15C,4.000000*%
%ADD16O,1.700000X1.700000*%
%ADD17R,1.700000X1.700000*%
%ADD18R,1.200000X0.900000*%
%ADD19R,0.900000X1.200000*%
G04 APERTURE END LIST*
D10*
%TO.C,D14*%
X22140000Y-65300000D03*
D11*
X19600000Y-65300000D03*
%TD*%
D12*
%TO.C,J8*%
X4900000Y-90800000D03*
D13*
X4900000Y-93900000D03*
D12*
X4900000Y-82500000D03*
%TD*%
%TO.C,J5*%
X4900000Y-96050000D03*
D13*
X4900000Y-92950000D03*
D12*
X4900000Y-104350000D03*
%TD*%
D11*
%TO.C,RV5*%
X18400000Y-100700000D03*
D10*
X20900000Y-100700000D03*
X23400000Y-100700000D03*
D14*
X25700000Y-93200000D03*
X16100000Y-93200000D03*
%TD*%
D10*
%TO.C,RV3*%
X18400000Y-79900000D03*
X20900000Y-79900000D03*
X23400000Y-79900000D03*
D15*
X16500000Y-72900000D03*
X25300000Y-72900000D03*
%TD*%
D11*
%TO.C,RV2*%
X18400000Y-60400000D03*
D10*
X20900000Y-60400000D03*
X23400000Y-60400000D03*
D14*
X25700000Y-52900000D03*
X16100000Y-52900000D03*
%TD*%
D10*
%TO.C,RV7*%
X18400000Y-45100000D03*
X20900000Y-45100000D03*
X23400000Y-45100000D03*
D15*
X16500000Y-38100000D03*
X25300000Y-38100000D03*
%TD*%
D11*
%TO.C,RV6*%
X18400000Y-20100000D03*
D10*
X20900000Y-20100000D03*
X23400000Y-20100000D03*
D14*
X25700000Y-12600000D03*
X16100000Y-12600000D03*
%TD*%
D10*
%TO.C,D8*%
X22140000Y-25000000D03*
D11*
X19600000Y-25000000D03*
%TD*%
D10*
%TO.C,D7*%
X22140000Y-104730000D03*
D11*
X19600000Y-104730000D03*
%TD*%
D12*
%TO.C,J2*%
X4900000Y-10100000D03*
D13*
X4900000Y-13200000D03*
D12*
X4900000Y-1800000D03*
%TD*%
%TO.C,J6*%
X4900000Y-15300000D03*
D13*
X4900000Y-12200000D03*
D12*
X4900000Y-23600000D03*
%TD*%
%TO.C,J10*%
X4900000Y-50100000D03*
D13*
X4900000Y-53200000D03*
D12*
X4900000Y-41800000D03*
%TD*%
%TO.C,J3*%
X4900000Y-55300000D03*
D13*
X4900000Y-52200000D03*
D12*
X4900000Y-63600000D03*
%TD*%
D16*
%TO.C,J9*%
X28690000Y-84000000D03*
X26150000Y-84000000D03*
X23610000Y-84000000D03*
X21070000Y-84000000D03*
X18530000Y-84000000D03*
X15990000Y-84000000D03*
X13450000Y-84000000D03*
D17*
X10910000Y-84000000D03*
%TD*%
D16*
%TO.C,J11*%
X25690000Y-30000000D03*
X23150000Y-30000000D03*
X20610000Y-30000000D03*
X18070000Y-30000000D03*
X15530000Y-30000000D03*
X12990000Y-30000000D03*
X10450000Y-30000000D03*
D17*
X7910000Y-30000000D03*
%TD*%
%TO.C,C21*%
G36*
G01*
X26950000Y-9275000D02*
X26950000Y-8325000D01*
G75*
G02*
X27200000Y-8075000I250000J0D01*
G01*
X27875000Y-8075000D01*
G75*
G02*
X28125000Y-8325000I0J-250000D01*
G01*
X28125000Y-9275000D01*
G75*
G02*
X27875000Y-9525000I-250000J0D01*
G01*
X27200000Y-9525000D01*
G75*
G02*
X26950000Y-9275000I0J250000D01*
G01*
G37*
G36*
G01*
X24875000Y-9275000D02*
X24875000Y-8325000D01*
G75*
G02*
X25125000Y-8075000I250000J0D01*
G01*
X25800000Y-8075000D01*
G75*
G02*
X26050000Y-8325000I0J-250000D01*
G01*
X26050000Y-9275000D01*
G75*
G02*
X25800000Y-9525000I-250000J0D01*
G01*
X25125000Y-9525000D01*
G75*
G02*
X24875000Y-9275000I0J250000D01*
G01*
G37*
%TD*%
%TO.C,C38*%
G36*
G01*
X27120000Y-103345000D02*
X27120000Y-102395000D01*
G75*
G02*
X27370000Y-102145000I250000J0D01*
G01*
X28045000Y-102145000D01*
G75*
G02*
X28295000Y-102395000I0J-250000D01*
G01*
X28295000Y-103345000D01*
G75*
G02*
X28045000Y-103595000I-250000J0D01*
G01*
X27370000Y-103595000D01*
G75*
G02*
X27120000Y-103345000I0J250000D01*
G01*
G37*
G36*
G01*
X25045000Y-103345000D02*
X25045000Y-102395000D01*
G75*
G02*
X25295000Y-102145000I250000J0D01*
G01*
X25970000Y-102145000D01*
G75*
G02*
X26220000Y-102395000I0J-250000D01*
G01*
X26220000Y-103345000D01*
G75*
G02*
X25970000Y-103595000I-250000J0D01*
G01*
X25295000Y-103595000D01*
G75*
G02*
X25045000Y-103345000I0J250000D01*
G01*
G37*
%TD*%
%TO.C,C39*%
G36*
G01*
X12917500Y-34765000D02*
X12917500Y-33815000D01*
G75*
G02*
X13167500Y-33565000I250000J0D01*
G01*
X13842500Y-33565000D01*
G75*
G02*
X14092500Y-33815000I0J-250000D01*
G01*
X14092500Y-34765000D01*
G75*
G02*
X13842500Y-35015000I-250000J0D01*
G01*
X13167500Y-35015000D01*
G75*
G02*
X12917500Y-34765000I0J250000D01*
G01*
G37*
G36*
G01*
X10842500Y-34765000D02*
X10842500Y-33815000D01*
G75*
G02*
X11092500Y-33565000I250000J0D01*
G01*
X11767500Y-33565000D01*
G75*
G02*
X12017500Y-33815000I0J-250000D01*
G01*
X12017500Y-34765000D01*
G75*
G02*
X11767500Y-35015000I-250000J0D01*
G01*
X11092500Y-35015000D01*
G75*
G02*
X10842500Y-34765000I0J250000D01*
G01*
G37*
%TD*%
%TO.C,C40*%
G36*
G01*
X20770000Y-70325000D02*
X20770000Y-69375000D01*
G75*
G02*
X21020000Y-69125000I250000J0D01*
G01*
X21695000Y-69125000D01*
G75*
G02*
X21945000Y-69375000I0J-250000D01*
G01*
X21945000Y-70325000D01*
G75*
G02*
X21695000Y-70575000I-250000J0D01*
G01*
X21020000Y-70575000D01*
G75*
G02*
X20770000Y-70325000I0J250000D01*
G01*
G37*
G36*
G01*
X18695000Y-70325000D02*
X18695000Y-69375000D01*
G75*
G02*
X18945000Y-69125000I250000J0D01*
G01*
X19620000Y-69125000D01*
G75*
G02*
X19870000Y-69375000I0J-250000D01*
G01*
X19870000Y-70325000D01*
G75*
G02*
X19620000Y-70575000I-250000J0D01*
G01*
X18945000Y-70575000D01*
G75*
G02*
X18695000Y-70325000I0J250000D01*
G01*
G37*
%TD*%
D18*
%TO.C,D3*%
X11400000Y-3950000D03*
X11400000Y-7250000D03*
%TD*%
D19*
%TO.C,D15*%
X15850000Y-104300000D03*
X12550000Y-104300000D03*
%TD*%
%TO.C,D16*%
X18500000Y-48300000D03*
X15200000Y-48300000D03*
%TD*%
%TO.C,U4*%
G36*
G01*
X22375000Y-3580000D02*
X22075000Y-3580000D01*
G75*
G02*
X21925000Y-3430000I0J150000D01*
G01*
X21925000Y-1780000D01*
G75*
G02*
X22075000Y-1630000I150000J0D01*
G01*
X22375000Y-1630000D01*
G75*
G02*
X22525000Y-1780000I0J-150000D01*
G01*
X22525000Y-3430000D01*
G75*
G02*
X22375000Y-3580000I-150000J0D01*
G01*
G37*
G36*
G01*
X21105000Y-3580000D02*
X20805000Y-3580000D01*
G75*
G02*
X20655000Y-3430000I0J150000D01*
G01*
X20655000Y-1780000D01*
G75*
G02*
X20805000Y-1630000I150000J0D01*
G01*
X21105000Y-1630000D01*
G75*
G02*
X21255000Y-1780000I0J-150000D01*
G01*
X21255000Y-3430000D01*
G75*
G02*
X21105000Y-3580000I-150000J0D01*
G01*
G37*
G36*
G01*
X19835000Y-3580000D02*
X19535000Y-3580000D01*
G75*
G02*
X19385000Y-3430000I0J150000D01*
G01*
X19385000Y-1780000D01*
G75*
G02*
X19535000Y-1630000I150000J0D01*
G01*
X19835000Y-1630000D01*
G75*
G02*
X19985000Y-1780000I0J-150000D01*
G01*
X19985000Y-3430000D01*
G75*
G02*
X19835000Y-3580000I-150000J0D01*
G01*
G37*
G36*
G01*
X18565000Y-3580000D02*
X18265000Y-3580000D01*
G75*
G02*
X18115000Y-3430000I0J150000D01*
G01*
X18115000Y-1780000D01*
G75*
G02*
X18265000Y-1630000I150000J0D01*
G01*
X18565000Y-1630000D01*
G75*
G02*
X18715000Y-1780000I0J-150000D01*
G01*
X18715000Y-3430000D01*
G75*
G02*
X18565000Y-3580000I-150000J0D01*
G01*
G37*
G36*
G01*
X17295000Y-3580000D02*
X16995000Y-3580000D01*
G75*
G02*
X16845000Y-3430000I0J150000D01*
G01*
X16845000Y-1780000D01*
G75*
G02*
X16995000Y-1630000I150000J0D01*
G01*
X17295000Y-1630000D01*
G75*
G02*
X17445000Y-1780000I0J-150000D01*
G01*
X17445000Y-3430000D01*
G75*
G02*
X17295000Y-3580000I-150000J0D01*
G01*
G37*
G36*
G01*
X16025000Y-3580000D02*
X15725000Y-3580000D01*
G75*
G02*
X15575000Y-3430000I0J150000D01*
G01*
X15575000Y-1780000D01*
G75*
G02*
X15725000Y-1630000I150000J0D01*
G01*
X16025000Y-1630000D01*
G75*
G02*
X16175000Y-1780000I0J-150000D01*
G01*
X16175000Y-3430000D01*
G75*
G02*
X16025000Y-3580000I-150000J0D01*
G01*
G37*
G36*
G01*
X14755000Y-3580000D02*
X14455000Y-3580000D01*
G75*
G02*
X14305000Y-3430000I0J150000D01*
G01*
X14305000Y-1780000D01*
G75*
G02*
X14455000Y-1630000I150000J0D01*
G01*
X14755000Y-1630000D01*
G75*
G02*
X14905000Y-1780000I0J-150000D01*
G01*
X14905000Y-3430000D01*
G75*
G02*
X14755000Y-3580000I-150000J0D01*
G01*
G37*
G36*
G01*
X14755000Y-8530000D02*
X14455000Y-8530000D01*
G75*
G02*
X14305000Y-8380000I0J150000D01*
G01*
X14305000Y-6730000D01*
G75*
G02*
X14455000Y-6580000I150000J0D01*
G01*
X14755000Y-6580000D01*
G75*
G02*
X14905000Y-6730000I0J-150000D01*
G01*
X14905000Y-8380000D01*
G75*
G02*
X14755000Y-8530000I-150000J0D01*
G01*
G37*
G36*
G01*
X16025000Y-8530000D02*
X15725000Y-8530000D01*
G75*
G02*
X15575000Y-8380000I0J150000D01*
G01*
X15575000Y-6730000D01*
G75*
G02*
X15725000Y-6580000I150000J0D01*
G01*
X16025000Y-6580000D01*
G75*
G02*
X16175000Y-6730000I0J-150000D01*
G01*
X16175000Y-8380000D01*
G75*
G02*
X16025000Y-8530000I-150000J0D01*
G01*
G37*
G36*
G01*
X17295000Y-8530000D02*
X16995000Y-8530000D01*
G75*
G02*
X16845000Y-8380000I0J150000D01*
G01*
X16845000Y-6730000D01*
G75*
G02*
X16995000Y-6580000I150000J0D01*
G01*
X17295000Y-6580000D01*
G75*
G02*
X17445000Y-6730000I0J-150000D01*
G01*
X17445000Y-8380000D01*
G75*
G02*
X17295000Y-8530000I-150000J0D01*
G01*
G37*
G36*
G01*
X18565000Y-8530000D02*
X18265000Y-8530000D01*
G75*
G02*
X18115000Y-8380000I0J150000D01*
G01*
X18115000Y-6730000D01*
G75*
G02*
X18265000Y-6580000I150000J0D01*
G01*
X18565000Y-6580000D01*
G75*
G02*
X18715000Y-6730000I0J-150000D01*
G01*
X18715000Y-8380000D01*
G75*
G02*
X18565000Y-8530000I-150000J0D01*
G01*
G37*
G36*
G01*
X19835000Y-8530000D02*
X19535000Y-8530000D01*
G75*
G02*
X19385000Y-8380000I0J150000D01*
G01*
X19385000Y-6730000D01*
G75*
G02*
X19535000Y-6580000I150000J0D01*
G01*
X19835000Y-6580000D01*
G75*
G02*
X19985000Y-6730000I0J-150000D01*
G01*
X19985000Y-8380000D01*
G75*
G02*
X19835000Y-8530000I-150000J0D01*
G01*
G37*
G36*
G01*
X21105000Y-8530000D02*
X20805000Y-8530000D01*
G75*
G02*
X20655000Y-8380000I0J150000D01*
G01*
X20655000Y-6730000D01*
G75*
G02*
X20805000Y-6580000I150000J0D01*
G01*
X21105000Y-6580000D01*
G75*
G02*
X21255000Y-6730000I0J-150000D01*
G01*
X21255000Y-8380000D01*
G75*
G02*
X21105000Y-8530000I-150000J0D01*
G01*
G37*
G36*
G01*
X22375000Y-8530000D02*
X22075000Y-8530000D01*
G75*
G02*
X21925000Y-8380000I0J150000D01*
G01*
X21925000Y-6730000D01*
G75*
G02*
X22075000Y-6580000I150000J0D01*
G01*
X22375000Y-6580000D01*
G75*
G02*
X22525000Y-6730000I0J-150000D01*
G01*
X22525000Y-8380000D01*
G75*
G02*
X22375000Y-8530000I-150000J0D01*
G01*
G37*
%TD*%
%TO.C,R7*%
G36*
G01*
X12800000Y-59874997D02*
X12800000Y-61125003D01*
G75*
G02*
X12550003Y-61375000I-249997J0D01*
G01*
X11924997Y-61375000D01*
G75*
G02*
X11675000Y-61125003I0J249997D01*
G01*
X11675000Y-59874997D01*
G75*
G02*
X11924997Y-59625000I249997J0D01*
G01*
X12550003Y-59625000D01*
G75*
G02*
X12800000Y-59874997I0J-249997D01*
G01*
G37*
G36*
G01*
X15725000Y-59874997D02*
X15725000Y-61125003D01*
G75*
G02*
X15475003Y-61375000I-249997J0D01*
G01*
X14849997Y-61375000D01*
G75*
G02*
X14600000Y-61125003I0J249997D01*
G01*
X14600000Y-59874997D01*
G75*
G02*
X14849997Y-59625000I249997J0D01*
G01*
X15475003Y-59625000D01*
G75*
G02*
X15725000Y-59874997I0J-249997D01*
G01*
G37*
%TD*%
%TO.C,R8*%
G36*
G01*
X24475000Y-6525003D02*
X24475000Y-5274997D01*
G75*
G02*
X24724997Y-5025000I249997J0D01*
G01*
X25350003Y-5025000D01*
G75*
G02*
X25600000Y-5274997I0J-249997D01*
G01*
X25600000Y-6525003D01*
G75*
G02*
X25350003Y-6775000I-249997J0D01*
G01*
X24724997Y-6775000D01*
G75*
G02*
X24475000Y-6525003I0J249997D01*
G01*
G37*
G36*
G01*
X27400000Y-6525003D02*
X27400000Y-5274997D01*
G75*
G02*
X27649997Y-5025000I249997J0D01*
G01*
X28275003Y-5025000D01*
G75*
G02*
X28525000Y-5274997I0J-249997D01*
G01*
X28525000Y-6525003D01*
G75*
G02*
X28275003Y-6775000I-249997J0D01*
G01*
X27649997Y-6775000D01*
G75*
G02*
X27400000Y-6525003I0J249997D01*
G01*
G37*
%TD*%
%TO.C,R13*%
G36*
G01*
X10800000Y-11625003D02*
X10800000Y-10374997D01*
G75*
G02*
X11049997Y-10125000I249997J0D01*
G01*
X11675003Y-10125000D01*
G75*
G02*
X11925000Y-10374997I0J-249997D01*
G01*
X11925000Y-11625003D01*
G75*
G02*
X11675003Y-11875000I-249997J0D01*
G01*
X11049997Y-11875000D01*
G75*
G02*
X10800000Y-11625003I0J249997D01*
G01*
G37*
G36*
G01*
X7875000Y-11625003D02*
X7875000Y-10374997D01*
G75*
G02*
X8124997Y-10125000I249997J0D01*
G01*
X8750003Y-10125000D01*
G75*
G02*
X9000000Y-10374997I0J-249997D01*
G01*
X9000000Y-11625003D01*
G75*
G02*
X8750003Y-11875000I-249997J0D01*
G01*
X8124997Y-11875000D01*
G75*
G02*
X7875000Y-11625003I0J249997D01*
G01*
G37*
%TD*%
%TO.C,R15*%
G36*
G01*
X12185000Y-15884997D02*
X12185000Y-17135003D01*
G75*
G02*
X11935003Y-17385000I-249997J0D01*
G01*
X11309997Y-17385000D01*
G75*
G02*
X11060000Y-17135003I0J249997D01*
G01*
X11060000Y-15884997D01*
G75*
G02*
X11309997Y-15635000I249997J0D01*
G01*
X11935003Y-15635000D01*
G75*
G02*
X12185000Y-15884997I0J-249997D01*
G01*
G37*
G36*
G01*
X9260000Y-15884997D02*
X9260000Y-17135003D01*
G75*
G02*
X9010003Y-17385000I-249997J0D01*
G01*
X8384997Y-17385000D01*
G75*
G02*
X8135000Y-17135003I0J249997D01*
G01*
X8135000Y-15884997D01*
G75*
G02*
X8384997Y-15635000I249997J0D01*
G01*
X9010003Y-15635000D01*
G75*
G02*
X9260000Y-15884997I0J-249997D01*
G01*
G37*
%TD*%
%TO.C,R16*%
G36*
G01*
X12074997Y-23300000D02*
X13325003Y-23300000D01*
G75*
G02*
X13575000Y-23549997I0J-249997D01*
G01*
X13575000Y-24175003D01*
G75*
G02*
X13325003Y-24425000I-249997J0D01*
G01*
X12074997Y-24425000D01*
G75*
G02*
X11825000Y-24175003I0J249997D01*
G01*
X11825000Y-23549997D01*
G75*
G02*
X12074997Y-23300000I249997J0D01*
G01*
G37*
G36*
G01*
X12074997Y-20375000D02*
X13325003Y-20375000D01*
G75*
G02*
X13575000Y-20624997I0J-249997D01*
G01*
X13575000Y-21250003D01*
G75*
G02*
X13325003Y-21500000I-249997J0D01*
G01*
X12074997Y-21500000D01*
G75*
G02*
X11825000Y-21250003I0J249997D01*
G01*
X11825000Y-20624997D01*
G75*
G02*
X12074997Y-20375000I249997J0D01*
G01*
G37*
%TD*%
%TO.C,R17*%
G36*
G01*
X4435003Y-74415000D02*
X3184997Y-74415000D01*
G75*
G02*
X2935000Y-74165003I0J249997D01*
G01*
X2935000Y-73539997D01*
G75*
G02*
X3184997Y-73290000I249997J0D01*
G01*
X4435003Y-73290000D01*
G75*
G02*
X4685000Y-73539997I0J-249997D01*
G01*
X4685000Y-74165003D01*
G75*
G02*
X4435003Y-74415000I-249997J0D01*
G01*
G37*
G36*
G01*
X4435003Y-71490000D02*
X3184997Y-71490000D01*
G75*
G02*
X2935000Y-71240003I0J249997D01*
G01*
X2935000Y-70614997D01*
G75*
G02*
X3184997Y-70365000I249997J0D01*
G01*
X4435003Y-70365000D01*
G75*
G02*
X4685000Y-70614997I0J-249997D01*
G01*
X4685000Y-71240003D01*
G75*
G02*
X4435003Y-71490000I-249997J0D01*
G01*
G37*
%TD*%
%TO.C,R20*%
G36*
G01*
X10800000Y-80654997D02*
X10800000Y-81905003D01*
G75*
G02*
X10550003Y-82155000I-249997J0D01*
G01*
X9924997Y-82155000D01*
G75*
G02*
X9675000Y-81905003I0J249997D01*
G01*
X9675000Y-80654997D01*
G75*
G02*
X9924997Y-80405000I249997J0D01*
G01*
X10550003Y-80405000D01*
G75*
G02*
X10800000Y-80654997I0J-249997D01*
G01*
G37*
G36*
G01*
X13725000Y-80654997D02*
X13725000Y-81905003D01*
G75*
G02*
X13475003Y-82155000I-249997J0D01*
G01*
X12849997Y-82155000D01*
G75*
G02*
X12600000Y-81905003I0J249997D01*
G01*
X12600000Y-80654997D01*
G75*
G02*
X12849997Y-80405000I249997J0D01*
G01*
X13475003Y-80405000D01*
G75*
G02*
X13725000Y-80654997I0J-249997D01*
G01*
G37*
%TD*%
%TO.C,R26*%
G36*
G01*
X10915000Y-71129997D02*
X10915000Y-72380003D01*
G75*
G02*
X10665003Y-72630000I-249997J0D01*
G01*
X10039997Y-72630000D01*
G75*
G02*
X9790000Y-72380003I0J249997D01*
G01*
X9790000Y-71129997D01*
G75*
G02*
X10039997Y-70880000I249997J0D01*
G01*
X10665003Y-70880000D01*
G75*
G02*
X10915000Y-71129997I0J-249997D01*
G01*
G37*
G36*
G01*
X7990000Y-71129997D02*
X7990000Y-72380003D01*
G75*
G02*
X7740003Y-72630000I-249997J0D01*
G01*
X7114997Y-72630000D01*
G75*
G02*
X6865000Y-72380003I0J249997D01*
G01*
X6865000Y-71129997D01*
G75*
G02*
X7114997Y-70880000I249997J0D01*
G01*
X7740003Y-70880000D01*
G75*
G02*
X7990000Y-71129997I0J-249997D01*
G01*
G37*
%TD*%
%TO.C,R29*%
G36*
G01*
X27300000Y-98025003D02*
X27300000Y-96774997D01*
G75*
G02*
X27549997Y-96525000I249997J0D01*
G01*
X28175003Y-96525000D01*
G75*
G02*
X28425000Y-96774997I0J-249997D01*
G01*
X28425000Y-98025003D01*
G75*
G02*
X28175003Y-98275000I-249997J0D01*
G01*
X27549997Y-98275000D01*
G75*
G02*
X27300000Y-98025003I0J249997D01*
G01*
G37*
G36*
G01*
X24375000Y-98025003D02*
X24375000Y-96774997D01*
G75*
G02*
X24624997Y-96525000I249997J0D01*
G01*
X25250003Y-96525000D01*
G75*
G02*
X25500000Y-96774997I0J-249997D01*
G01*
X25500000Y-98025003D01*
G75*
G02*
X25250003Y-98275000I-249997J0D01*
G01*
X24624997Y-98275000D01*
G75*
G02*
X24375000Y-98025003I0J249997D01*
G01*
G37*
%TD*%
%TO.C,R56*%
G36*
G01*
X12690003Y-69335000D02*
X11439997Y-69335000D01*
G75*
G02*
X11190000Y-69085003I0J249997D01*
G01*
X11190000Y-68459997D01*
G75*
G02*
X11439997Y-68210000I249997J0D01*
G01*
X12690003Y-68210000D01*
G75*
G02*
X12940000Y-68459997I0J-249997D01*
G01*
X12940000Y-69085003D01*
G75*
G02*
X12690003Y-69335000I-249997J0D01*
G01*
G37*
G36*
G01*
X12690003Y-66410000D02*
X11439997Y-66410000D01*
G75*
G02*
X11190000Y-66160003I0J249997D01*
G01*
X11190000Y-65534997D01*
G75*
G02*
X11439997Y-65285000I249997J0D01*
G01*
X12690003Y-65285000D01*
G75*
G02*
X12940000Y-65534997I0J-249997D01*
G01*
X12940000Y-66160003D01*
G75*
G02*
X12690003Y-66410000I-249997J0D01*
G01*
G37*
%TD*%
%TO.C,R57*%
G36*
G01*
X7400000Y-67555003D02*
X7400000Y-66304997D01*
G75*
G02*
X7649997Y-66055000I249997J0D01*
G01*
X8275003Y-66055000D01*
G75*
G02*
X8525000Y-66304997I0J-249997D01*
G01*
X8525000Y-67555003D01*
G75*
G02*
X8275003Y-67805000I-249997J0D01*
G01*
X7649997Y-67805000D01*
G75*
G02*
X7400000Y-67555003I0J249997D01*
G01*
G37*
G36*
G01*
X4475000Y-67555003D02*
X4475000Y-66304997D01*
G75*
G02*
X4724997Y-66055000I249997J0D01*
G01*
X5350003Y-66055000D01*
G75*
G02*
X5600000Y-66304997I0J-249997D01*
G01*
X5600000Y-67555003D01*
G75*
G02*
X5350003Y-67805000I-249997J0D01*
G01*
X4724997Y-67805000D01*
G75*
G02*
X4475000Y-67555003I0J249997D01*
G01*
G37*
%TD*%
%TO.C,R59*%
G36*
G01*
X24375000Y-3165003D02*
X24375000Y-1914997D01*
G75*
G02*
X24624997Y-1665000I249997J0D01*
G01*
X25250003Y-1665000D01*
G75*
G02*
X25500000Y-1914997I0J-249997D01*
G01*
X25500000Y-3165003D01*
G75*
G02*
X25250003Y-3415000I-249997J0D01*
G01*
X24624997Y-3415000D01*
G75*
G02*
X24375000Y-3165003I0J249997D01*
G01*
G37*
G36*
G01*
X27300000Y-3165003D02*
X27300000Y-1914997D01*
G75*
G02*
X27549997Y-1665000I249997J0D01*
G01*
X28175003Y-1665000D01*
G75*
G02*
X28425000Y-1914997I0J-249997D01*
G01*
X28425000Y-3165003D01*
G75*
G02*
X28175003Y-3415000I-249997J0D01*
G01*
X27549997Y-3415000D01*
G75*
G02*
X27300000Y-3165003I0J249997D01*
G01*
G37*
%TD*%
%TO.C,R60*%
G36*
G01*
X28825003Y-23600000D02*
X27574997Y-23600000D01*
G75*
G02*
X27325000Y-23350003I0J249997D01*
G01*
X27325000Y-22724997D01*
G75*
G02*
X27574997Y-22475000I249997J0D01*
G01*
X28825003Y-22475000D01*
G75*
G02*
X29075000Y-22724997I0J-249997D01*
G01*
X29075000Y-23350003D01*
G75*
G02*
X28825003Y-23600000I-249997J0D01*
G01*
G37*
G36*
G01*
X28825003Y-26525000D02*
X27574997Y-26525000D01*
G75*
G02*
X27325000Y-26275003I0J249997D01*
G01*
X27325000Y-25649997D01*
G75*
G02*
X27574997Y-25400000I249997J0D01*
G01*
X28825003Y-25400000D01*
G75*
G02*
X29075000Y-25649997I0J-249997D01*
G01*
X29075000Y-26275003D01*
G75*
G02*
X28825003Y-26525000I-249997J0D01*
G01*
G37*
%TD*%
%TO.C,R61*%
G36*
G01*
X28205000Y-17770003D02*
X28205000Y-16519997D01*
G75*
G02*
X28454997Y-16270000I249997J0D01*
G01*
X29080003Y-16270000D01*
G75*
G02*
X29330000Y-16519997I0J-249997D01*
G01*
X29330000Y-17770003D01*
G75*
G02*
X29080003Y-18020000I-249997J0D01*
G01*
X28454997Y-18020000D01*
G75*
G02*
X28205000Y-17770003I0J249997D01*
G01*
G37*
G36*
G01*
X25280000Y-17770003D02*
X25280000Y-16519997D01*
G75*
G02*
X25529997Y-16270000I249997J0D01*
G01*
X26155003Y-16270000D01*
G75*
G02*
X26405000Y-16519997I0J-249997D01*
G01*
X26405000Y-17770003D01*
G75*
G02*
X26155003Y-18020000I-249997J0D01*
G01*
X25529997Y-18020000D01*
G75*
G02*
X25280000Y-17770003I0J249997D01*
G01*
G37*
%TD*%
%TO.C,R62*%
G36*
G01*
X17265000Y-26044997D02*
X17265000Y-27295003D01*
G75*
G02*
X17015003Y-27545000I-249997J0D01*
G01*
X16389997Y-27545000D01*
G75*
G02*
X16140000Y-27295003I0J249997D01*
G01*
X16140000Y-26044997D01*
G75*
G02*
X16389997Y-25795000I249997J0D01*
G01*
X17015003Y-25795000D01*
G75*
G02*
X17265000Y-26044997I0J-249997D01*
G01*
G37*
G36*
G01*
X14340000Y-26044997D02*
X14340000Y-27295003D01*
G75*
G02*
X14090003Y-27545000I-249997J0D01*
G01*
X13464997Y-27545000D01*
G75*
G02*
X13215000Y-27295003I0J249997D01*
G01*
X13215000Y-26044997D01*
G75*
G02*
X13464997Y-25795000I249997J0D01*
G01*
X14090003Y-25795000D01*
G75*
G02*
X14340000Y-26044997I0J-249997D01*
G01*
G37*
%TD*%
%TO.C,R63*%
G36*
G01*
X24375000Y-66025003D02*
X24375000Y-64774997D01*
G75*
G02*
X24624997Y-64525000I249997J0D01*
G01*
X25250003Y-64525000D01*
G75*
G02*
X25500000Y-64774997I0J-249997D01*
G01*
X25500000Y-66025003D01*
G75*
G02*
X25250003Y-66275000I-249997J0D01*
G01*
X24624997Y-66275000D01*
G75*
G02*
X24375000Y-66025003I0J249997D01*
G01*
G37*
G36*
G01*
X27300000Y-66025003D02*
X27300000Y-64774997D01*
G75*
G02*
X27549997Y-64525000I249997J0D01*
G01*
X28175003Y-64525000D01*
G75*
G02*
X28425000Y-64774997I0J-249997D01*
G01*
X28425000Y-66025003D01*
G75*
G02*
X28175003Y-66275000I-249997J0D01*
G01*
X27549997Y-66275000D01*
G75*
G02*
X27300000Y-66025003I0J249997D01*
G01*
G37*
%TD*%
%TO.C,R64*%
G36*
G01*
X7674997Y-73905000D02*
X8925003Y-73905000D01*
G75*
G02*
X9175000Y-74154997I0J-249997D01*
G01*
X9175000Y-74780003D01*
G75*
G02*
X8925003Y-75030000I-249997J0D01*
G01*
X7674997Y-75030000D01*
G75*
G02*
X7425000Y-74780003I0J249997D01*
G01*
X7425000Y-74154997D01*
G75*
G02*
X7674997Y-73905000I249997J0D01*
G01*
G37*
G36*
G01*
X7674997Y-76830000D02*
X8925003Y-76830000D01*
G75*
G02*
X9175000Y-77079997I0J-249997D01*
G01*
X9175000Y-77705003D01*
G75*
G02*
X8925003Y-77955000I-249997J0D01*
G01*
X7674997Y-77955000D01*
G75*
G02*
X7425000Y-77705003I0J249997D01*
G01*
X7425000Y-77079997D01*
G75*
G02*
X7674997Y-76830000I249997J0D01*
G01*
G37*
%TD*%
%TO.C,R65*%
G36*
G01*
X27314997Y-79640000D02*
X28565003Y-79640000D01*
G75*
G02*
X28815000Y-79889997I0J-249997D01*
G01*
X28815000Y-80515003D01*
G75*
G02*
X28565003Y-80765000I-249997J0D01*
G01*
X27314997Y-80765000D01*
G75*
G02*
X27065000Y-80515003I0J249997D01*
G01*
X27065000Y-79889997D01*
G75*
G02*
X27314997Y-79640000I249997J0D01*
G01*
G37*
G36*
G01*
X27314997Y-76715000D02*
X28565003Y-76715000D01*
G75*
G02*
X28815000Y-76964997I0J-249997D01*
G01*
X28815000Y-77590003D01*
G75*
G02*
X28565003Y-77840000I-249997J0D01*
G01*
X27314997Y-77840000D01*
G75*
G02*
X27065000Y-77590003I0J249997D01*
G01*
X27065000Y-76964997D01*
G75*
G02*
X27314997Y-76715000I249997J0D01*
G01*
G37*
%TD*%
%TO.C,R66*%
G36*
G01*
X7475000Y-43325003D02*
X7475000Y-42074997D01*
G75*
G02*
X7724997Y-41825000I249997J0D01*
G01*
X8350003Y-41825000D01*
G75*
G02*
X8600000Y-42074997I0J-249997D01*
G01*
X8600000Y-43325003D01*
G75*
G02*
X8350003Y-43575000I-249997J0D01*
G01*
X7724997Y-43575000D01*
G75*
G02*
X7475000Y-43325003I0J249997D01*
G01*
G37*
G36*
G01*
X10400000Y-43325003D02*
X10400000Y-42074997D01*
G75*
G02*
X10649997Y-41825000I249997J0D01*
G01*
X11275003Y-41825000D01*
G75*
G02*
X11525000Y-42074997I0J-249997D01*
G01*
X11525000Y-43325003D01*
G75*
G02*
X11275003Y-43575000I-249997J0D01*
G01*
X10649997Y-43575000D01*
G75*
G02*
X10400000Y-43325003I0J249997D01*
G01*
G37*
%TD*%
%TO.C,R67*%
G36*
G01*
X18295000Y-41265003D02*
X18295000Y-40014997D01*
G75*
G02*
X18544997Y-39765000I249997J0D01*
G01*
X19170003Y-39765000D01*
G75*
G02*
X19420000Y-40014997I0J-249997D01*
G01*
X19420000Y-41265003D01*
G75*
G02*
X19170003Y-41515000I-249997J0D01*
G01*
X18544997Y-41515000D01*
G75*
G02*
X18295000Y-41265003I0J249997D01*
G01*
G37*
G36*
G01*
X21220000Y-41265003D02*
X21220000Y-40014997D01*
G75*
G02*
X21469997Y-39765000I249997J0D01*
G01*
X22095003Y-39765000D01*
G75*
G02*
X22345000Y-40014997I0J-249997D01*
G01*
X22345000Y-41265003D01*
G75*
G02*
X22095003Y-41515000I-249997J0D01*
G01*
X21469997Y-41515000D01*
G75*
G02*
X21220000Y-41265003I0J249997D01*
G01*
G37*
%TD*%
%TO.C,R68*%
G36*
G01*
X8520000Y-34915003D02*
X8520000Y-33664997D01*
G75*
G02*
X8769997Y-33415000I249997J0D01*
G01*
X9395003Y-33415000D01*
G75*
G02*
X9645000Y-33664997I0J-249997D01*
G01*
X9645000Y-34915003D01*
G75*
G02*
X9395003Y-35165000I-249997J0D01*
G01*
X8769997Y-35165000D01*
G75*
G02*
X8520000Y-34915003I0J249997D01*
G01*
G37*
G36*
G01*
X5595000Y-34915003D02*
X5595000Y-33664997D01*
G75*
G02*
X5844997Y-33415000I249997J0D01*
G01*
X6470003Y-33415000D01*
G75*
G02*
X6720000Y-33664997I0J-249997D01*
G01*
X6720000Y-34915003D01*
G75*
G02*
X6470003Y-35165000I-249997J0D01*
G01*
X5844997Y-35165000D01*
G75*
G02*
X5595000Y-34915003I0J249997D01*
G01*
G37*
%TD*%
%TO.C,R69*%
G36*
G01*
X20964997Y-36730000D02*
X22215003Y-36730000D01*
G75*
G02*
X22465000Y-36979997I0J-249997D01*
G01*
X22465000Y-37605003D01*
G75*
G02*
X22215003Y-37855000I-249997J0D01*
G01*
X20964997Y-37855000D01*
G75*
G02*
X20715000Y-37605003I0J249997D01*
G01*
X20715000Y-36979997D01*
G75*
G02*
X20964997Y-36730000I249997J0D01*
G01*
G37*
G36*
G01*
X20964997Y-33805000D02*
X22215003Y-33805000D01*
G75*
G02*
X22465000Y-34054997I0J-249997D01*
G01*
X22465000Y-34680003D01*
G75*
G02*
X22215003Y-34930000I-249997J0D01*
G01*
X20964997Y-34930000D01*
G75*
G02*
X20715000Y-34680003I0J249997D01*
G01*
X20715000Y-34054997D01*
G75*
G02*
X20964997Y-33805000I249997J0D01*
G01*
G37*
%TD*%
M02*
