%TF.GenerationSoftware,KiCad,Pcbnew,(5.1.9-0-10_14)*%
%TF.CreationDate,2021-04-20T22:44:58+02:00*%
%TF.ProjectId,tribus_front,74726962-7573-45f6-9672-6f6e742e6b69,rev?*%
%TF.SameCoordinates,Original*%
%TF.FileFunction,Legend,Top*%
%TF.FilePolarity,Positive*%
%FSLAX46Y46*%
G04 Gerber Fmt 4.6, Leading zero omitted, Abs format (unit mm)*
G04 Created by KiCad (PCBNEW (5.1.9-0-10_14)) date 2021-04-20 22:44:58*
%MOMM*%
%LPD*%
G01*
G04 APERTURE LIST*
%ADD10C,0.200000*%
%ADD11C,0.500000*%
%ADD12C,0.120000*%
%ADD13C,0.150000*%
G04 APERTURE END LIST*
D10*
X13405714Y-1631904D02*
X13405714Y-831904D01*
X13748571Y-1631904D02*
X13748571Y-1212857D01*
X13710476Y-1136666D01*
X13634285Y-1098571D01*
X13520000Y-1098571D01*
X13443809Y-1136666D01*
X13405714Y-1174761D01*
X14015238Y-1098571D02*
X14320000Y-1098571D01*
X14129523Y-831904D02*
X14129523Y-1517619D01*
X14167619Y-1593809D01*
X14243809Y-1631904D01*
X14320000Y-1631904D01*
X14472380Y-1098571D02*
X14777142Y-1098571D01*
X14586666Y-831904D02*
X14586666Y-1517619D01*
X14624761Y-1593809D01*
X14700952Y-1631904D01*
X14777142Y-1631904D01*
X15043809Y-1098571D02*
X15043809Y-1898571D01*
X15043809Y-1136666D02*
X15120000Y-1098571D01*
X15272380Y-1098571D01*
X15348571Y-1136666D01*
X15386666Y-1174761D01*
X15424761Y-1250952D01*
X15424761Y-1479523D01*
X15386666Y-1555714D01*
X15348571Y-1593809D01*
X15272380Y-1631904D01*
X15120000Y-1631904D01*
X15043809Y-1593809D01*
X15729523Y-1593809D02*
X15805714Y-1631904D01*
X15958095Y-1631904D01*
X16034285Y-1593809D01*
X16072380Y-1517619D01*
X16072380Y-1479523D01*
X16034285Y-1403333D01*
X15958095Y-1365238D01*
X15843809Y-1365238D01*
X15767619Y-1327142D01*
X15729523Y-1250952D01*
X15729523Y-1212857D01*
X15767619Y-1136666D01*
X15843809Y-1098571D01*
X15958095Y-1098571D01*
X16034285Y-1136666D01*
X16415238Y-1555714D02*
X16453333Y-1593809D01*
X16415238Y-1631904D01*
X16377142Y-1593809D01*
X16415238Y-1555714D01*
X16415238Y-1631904D01*
X16415238Y-1136666D02*
X16453333Y-1174761D01*
X16415238Y-1212857D01*
X16377142Y-1174761D01*
X16415238Y-1136666D01*
X16415238Y-1212857D01*
X17367619Y-793809D02*
X16681904Y-1822380D01*
X18205714Y-793809D02*
X17520000Y-1822380D01*
X18472380Y-1631904D02*
X18472380Y-831904D01*
X18472380Y-1136666D02*
X18548571Y-1098571D01*
X18700952Y-1098571D01*
X18777142Y-1136666D01*
X18815238Y-1174761D01*
X18853333Y-1250952D01*
X18853333Y-1479523D01*
X18815238Y-1555714D01*
X18777142Y-1593809D01*
X18700952Y-1631904D01*
X18548571Y-1631904D01*
X18472380Y-1593809D01*
X19196190Y-1631904D02*
X19196190Y-1098571D01*
X19196190Y-831904D02*
X19158095Y-870000D01*
X19196190Y-908095D01*
X19234285Y-870000D01*
X19196190Y-831904D01*
X19196190Y-908095D01*
X19462857Y-1098571D02*
X19767619Y-1098571D01*
X19577142Y-831904D02*
X19577142Y-1517619D01*
X19615238Y-1593809D01*
X19691428Y-1631904D01*
X19767619Y-1631904D01*
X20034285Y-1555714D02*
X20072380Y-1593809D01*
X20034285Y-1631904D01*
X19996190Y-1593809D01*
X20034285Y-1555714D01*
X20034285Y-1631904D01*
X20529523Y-1631904D02*
X20453333Y-1593809D01*
X20415238Y-1517619D01*
X20415238Y-831904D01*
X20758095Y-1098571D02*
X20948571Y-1631904D01*
X21139047Y-1098571D02*
X20948571Y-1631904D01*
X20872380Y-1822380D01*
X20834285Y-1860476D01*
X20758095Y-1898571D01*
X22015238Y-793809D02*
X21329523Y-1822380D01*
X22243809Y-908095D02*
X22281904Y-870000D01*
X22358095Y-831904D01*
X22548571Y-831904D01*
X22624761Y-870000D01*
X22662857Y-908095D01*
X22700952Y-984285D01*
X22700952Y-1060476D01*
X22662857Y-1174761D01*
X22205714Y-1631904D01*
X22700952Y-1631904D01*
X23196190Y-831904D02*
X23348571Y-831904D01*
X23424761Y-870000D01*
X23500952Y-946190D01*
X23539047Y-1098571D01*
X23539047Y-1365238D01*
X23500952Y-1517619D01*
X23424761Y-1593809D01*
X23348571Y-1631904D01*
X23196190Y-1631904D01*
X23120000Y-1593809D01*
X23043809Y-1517619D01*
X23005714Y-1365238D01*
X23005714Y-1098571D01*
X23043809Y-946190D01*
X23120000Y-870000D01*
X23196190Y-831904D01*
X24339047Y-1555714D02*
X24300952Y-1593809D01*
X24186666Y-1631904D01*
X24110476Y-1631904D01*
X23996190Y-1593809D01*
X23920000Y-1517619D01*
X23881904Y-1441428D01*
X23843809Y-1289047D01*
X23843809Y-1174761D01*
X23881904Y-1022380D01*
X23920000Y-946190D01*
X23996190Y-870000D01*
X24110476Y-831904D01*
X24186666Y-831904D01*
X24300952Y-870000D01*
X24339047Y-908095D01*
X24605714Y-1631904D02*
X25024761Y-1098571D01*
X24605714Y-1098571D02*
X25024761Y-1631904D01*
X25253333Y-831904D02*
X25786666Y-831904D01*
X25443809Y-1631904D01*
X26434285Y-1098571D02*
X26434285Y-1746190D01*
X26396190Y-1822380D01*
X26358095Y-1860476D01*
X26281904Y-1898571D01*
X26167619Y-1898571D01*
X26091428Y-1860476D01*
X26434285Y-1593809D02*
X26358095Y-1631904D01*
X26205714Y-1631904D01*
X26129523Y-1593809D01*
X26091428Y-1555714D01*
X26053333Y-1479523D01*
X26053333Y-1250952D01*
X26091428Y-1174761D01*
X26129523Y-1136666D01*
X26205714Y-1098571D01*
X26358095Y-1098571D01*
X26434285Y-1136666D01*
X27272380Y-1555714D02*
X27234285Y-1593809D01*
X27120000Y-1631904D01*
X27043809Y-1631904D01*
X26929523Y-1593809D01*
X26853333Y-1517619D01*
X26815238Y-1441428D01*
X26777142Y-1289047D01*
X26777142Y-1174761D01*
X26815238Y-1022380D01*
X26853333Y-946190D01*
X26929523Y-870000D01*
X27043809Y-831904D01*
X27120000Y-831904D01*
X27234285Y-870000D01*
X27272380Y-908095D01*
D11*
X11842857Y-32847142D02*
X13557142Y-32847142D01*
X12700000Y-35847142D02*
X12700000Y-32847142D01*
X12485714Y-40847142D02*
X12485714Y-38847142D01*
X12485714Y-39418571D02*
X12628571Y-39132857D01*
X12771428Y-38990000D01*
X13057142Y-38847142D01*
X13342857Y-38847142D01*
X12700000Y-45847142D02*
X12700000Y-43847142D01*
X12700000Y-42847142D02*
X12557142Y-42990000D01*
X12700000Y-43132857D01*
X12842857Y-42990000D01*
X12700000Y-42847142D01*
X12700000Y-43132857D01*
X12057142Y-50847142D02*
X12057142Y-47847142D01*
X12057142Y-48990000D02*
X12342857Y-48847142D01*
X12914285Y-48847142D01*
X13200000Y-48990000D01*
X13342857Y-49132857D01*
X13485714Y-49418571D01*
X13485714Y-50275714D01*
X13342857Y-50561428D01*
X13200000Y-50704285D01*
X12914285Y-50847142D01*
X12342857Y-50847142D01*
X12057142Y-50704285D01*
X13342857Y-53847142D02*
X13342857Y-55847142D01*
X12057142Y-53847142D02*
X12057142Y-55418571D01*
X12200000Y-55704285D01*
X12485714Y-55847142D01*
X12914285Y-55847142D01*
X13200000Y-55704285D01*
X13342857Y-55561428D01*
X12057142Y-60704285D02*
X12342857Y-60847142D01*
X12914285Y-60847142D01*
X13200000Y-60704285D01*
X13342857Y-60418571D01*
X13342857Y-60275714D01*
X13200000Y-59990000D01*
X12914285Y-59847142D01*
X12485714Y-59847142D01*
X12200000Y-59704285D01*
X12057142Y-59418571D01*
X12057142Y-59275714D01*
X12200000Y-58990000D01*
X12485714Y-58847142D01*
X12914285Y-58847142D01*
X13200000Y-58990000D01*
D12*
%TO.C,D14*%
X19310000Y-64064000D02*
X19310000Y-64220000D01*
X19310000Y-66380000D02*
X19310000Y-66536000D01*
X21911130Y-66379837D02*
G75*
G02*
X19829039Y-66380000I-1041130J1079837D01*
G01*
X21911130Y-64220163D02*
G75*
G03*
X19829039Y-64220000I-1041130J-1079837D01*
G01*
X22542335Y-66378608D02*
G75*
G02*
X19310000Y-66535516I-1672335J1078608D01*
G01*
X22542335Y-64221392D02*
G75*
G03*
X19310000Y-64064484I-1672335J-1078608D01*
G01*
%TO.C,J8*%
X5960000Y-94900000D02*
X5100000Y-94900000D01*
X5960000Y-94900000D02*
X5960000Y-94100000D01*
X6700000Y-87420000D02*
G75*
G03*
X6700000Y-87420000I-1800000J0D01*
G01*
X5250000Y-91920000D02*
X9400000Y-91920000D01*
X400000Y-91920000D02*
X4550000Y-91920000D01*
X5400000Y-81420000D02*
X9400000Y-81420000D01*
X400000Y-81420000D02*
X4400000Y-81420000D01*
X400000Y-91920000D02*
X400000Y-81420000D01*
X9400000Y-91920000D02*
X9400000Y-81420000D01*
%TO.C,J5*%
X3840000Y-91950000D02*
X4700000Y-91950000D01*
X3840000Y-91950000D02*
X3840000Y-92750000D01*
X6700000Y-99430000D02*
G75*
G03*
X6700000Y-99430000I-1800000J0D01*
G01*
X4550000Y-94930000D02*
X400000Y-94930000D01*
X9400000Y-94930000D02*
X5250000Y-94930000D01*
X4400000Y-105430000D02*
X400000Y-105430000D01*
X9400000Y-105430000D02*
X5400000Y-105430000D01*
X9400000Y-94930000D02*
X9400000Y-105430000D01*
X400000Y-94930000D02*
X400000Y-105430000D01*
%TO.C,RV5*%
X25770000Y-88230000D02*
X16030000Y-88230000D01*
X25770000Y-99820000D02*
X24280000Y-99820000D01*
X25770000Y-91290000D02*
X25770000Y-88230000D01*
X16020000Y-99820000D02*
X16020000Y-95100000D01*
X16030000Y-91290000D02*
X16030000Y-88230000D01*
X25770000Y-99820000D02*
X25770000Y-95100000D01*
X17210000Y-99820000D02*
X16030000Y-99820000D01*
X20110000Y-99820000D02*
X19580000Y-99820000D01*
X22560000Y-99820000D02*
X21730000Y-99820000D01*
%TO.C,RV3*%
X15879000Y-66780000D02*
X25920000Y-66780000D01*
X24270000Y-79020000D02*
X25920000Y-79020000D01*
X21771000Y-79020000D02*
X22530000Y-79020000D01*
X19271000Y-79020000D02*
X20030000Y-79020000D01*
X15879000Y-79020000D02*
X17529000Y-79020000D01*
X25920000Y-70716000D02*
X25920000Y-66780000D01*
X25920000Y-79020000D02*
X25920000Y-75083000D01*
X15879000Y-70716000D02*
X15879000Y-66780000D01*
X15879000Y-79020000D02*
X15879000Y-75083000D01*
%TO.C,RV2*%
X25770000Y-47930000D02*
X16030000Y-47930000D01*
X25770000Y-59520000D02*
X24280000Y-59520000D01*
X25770000Y-50990000D02*
X25770000Y-47930000D01*
X16020000Y-59520000D02*
X16020000Y-54800000D01*
X16030000Y-50990000D02*
X16030000Y-47930000D01*
X25770000Y-59520000D02*
X25770000Y-54800000D01*
X17210000Y-59520000D02*
X16030000Y-59520000D01*
X20110000Y-59520000D02*
X19580000Y-59520000D01*
X22560000Y-59520000D02*
X21730000Y-59520000D01*
%TO.C,RV7*%
X15879000Y-31980000D02*
X25920000Y-31980000D01*
X24270000Y-44220000D02*
X25920000Y-44220000D01*
X21771000Y-44220000D02*
X22530000Y-44220000D01*
X19271000Y-44220000D02*
X20030000Y-44220000D01*
X15879000Y-44220000D02*
X17529000Y-44220000D01*
X25920000Y-35916000D02*
X25920000Y-31980000D01*
X25920000Y-44220000D02*
X25920000Y-40283000D01*
X15879000Y-35916000D02*
X15879000Y-31980000D01*
X15879000Y-44220000D02*
X15879000Y-40283000D01*
%TO.C,RV6*%
X25770000Y-7630000D02*
X16030000Y-7630000D01*
X25770000Y-19220000D02*
X24280000Y-19220000D01*
X25770000Y-10690000D02*
X25770000Y-7630000D01*
X16020000Y-19220000D02*
X16020000Y-14500000D01*
X16030000Y-10690000D02*
X16030000Y-7630000D01*
X25770000Y-19220000D02*
X25770000Y-14500000D01*
X17210000Y-19220000D02*
X16030000Y-19220000D01*
X20110000Y-19220000D02*
X19580000Y-19220000D01*
X22560000Y-19220000D02*
X21730000Y-19220000D01*
%TO.C,D8*%
X19310000Y-23764000D02*
X19310000Y-23920000D01*
X19310000Y-26080000D02*
X19310000Y-26236000D01*
X21911130Y-26079837D02*
G75*
G02*
X19829039Y-26080000I-1041130J1079837D01*
G01*
X21911130Y-23920163D02*
G75*
G03*
X19829039Y-23920000I-1041130J-1079837D01*
G01*
X22542335Y-26078608D02*
G75*
G02*
X19310000Y-26235516I-1672335J1078608D01*
G01*
X22542335Y-23921392D02*
G75*
G03*
X19310000Y-23764484I-1672335J-1078608D01*
G01*
%TO.C,D7*%
X19310000Y-103494000D02*
X19310000Y-103650000D01*
X19310000Y-105810000D02*
X19310000Y-105966000D01*
X21911130Y-105809837D02*
G75*
G02*
X19829039Y-105810000I-1041130J1079837D01*
G01*
X21911130Y-103650163D02*
G75*
G03*
X19829039Y-103650000I-1041130J-1079837D01*
G01*
X22542335Y-105808608D02*
G75*
G02*
X19310000Y-105965516I-1672335J1078608D01*
G01*
X22542335Y-103651392D02*
G75*
G03*
X19310000Y-103494484I-1672335J-1078608D01*
G01*
%TO.C,J2*%
X5960000Y-14200000D02*
X5100000Y-14200000D01*
X5960000Y-14200000D02*
X5960000Y-13400000D01*
X6700000Y-6720000D02*
G75*
G03*
X6700000Y-6720000I-1800000J0D01*
G01*
X5250000Y-11220000D02*
X9400000Y-11220000D01*
X400000Y-11220000D02*
X4550000Y-11220000D01*
X5400000Y-720000D02*
X9400000Y-720000D01*
X400000Y-720000D02*
X4400000Y-720000D01*
X400000Y-11220000D02*
X400000Y-720000D01*
X9400000Y-11220000D02*
X9400000Y-720000D01*
%TO.C,J6*%
X3840000Y-11200000D02*
X4700000Y-11200000D01*
X3840000Y-11200000D02*
X3840000Y-12000000D01*
X6700000Y-18680000D02*
G75*
G03*
X6700000Y-18680000I-1800000J0D01*
G01*
X4550000Y-14180000D02*
X400000Y-14180000D01*
X9400000Y-14180000D02*
X5250000Y-14180000D01*
X4400000Y-24680000D02*
X400000Y-24680000D01*
X9400000Y-24680000D02*
X5400000Y-24680000D01*
X9400000Y-14180000D02*
X9400000Y-24680000D01*
X400000Y-14180000D02*
X400000Y-24680000D01*
%TO.C,J10*%
X5960000Y-54200000D02*
X5100000Y-54200000D01*
X5960000Y-54200000D02*
X5960000Y-53400000D01*
X6700000Y-46720000D02*
G75*
G03*
X6700000Y-46720000I-1800000J0D01*
G01*
X5250000Y-51220000D02*
X9400000Y-51220000D01*
X400000Y-51220000D02*
X4550000Y-51220000D01*
X5400000Y-40720000D02*
X9400000Y-40720000D01*
X400000Y-40720000D02*
X4400000Y-40720000D01*
X400000Y-51220000D02*
X400000Y-40720000D01*
X9400000Y-51220000D02*
X9400000Y-40720000D01*
%TO.C,J3*%
X3840000Y-51200000D02*
X4700000Y-51200000D01*
X3840000Y-51200000D02*
X3840000Y-52000000D01*
X6700000Y-58680000D02*
G75*
G03*
X6700000Y-58680000I-1800000J0D01*
G01*
X4550000Y-54180000D02*
X400000Y-54180000D01*
X9400000Y-54180000D02*
X5250000Y-54180000D01*
X4400000Y-64680000D02*
X400000Y-64680000D01*
X9400000Y-64680000D02*
X5400000Y-64680000D01*
X9400000Y-54180000D02*
X9400000Y-64680000D01*
X400000Y-54180000D02*
X400000Y-64680000D01*
%TO.C,D14*%
D13*
X19655714Y-62792380D02*
X19655714Y-61792380D01*
X19893809Y-61792380D01*
X20036666Y-61840000D01*
X20131904Y-61935238D01*
X20179523Y-62030476D01*
X20227142Y-62220952D01*
X20227142Y-62363809D01*
X20179523Y-62554285D01*
X20131904Y-62649523D01*
X20036666Y-62744761D01*
X19893809Y-62792380D01*
X19655714Y-62792380D01*
X21179523Y-62792380D02*
X20608095Y-62792380D01*
X20893809Y-62792380D02*
X20893809Y-61792380D01*
X20798571Y-61935238D01*
X20703333Y-62030476D01*
X20608095Y-62078095D01*
X22036666Y-62125714D02*
X22036666Y-62792380D01*
X21798571Y-61744761D02*
X21560476Y-62459047D01*
X22179523Y-62459047D01*
%TO.C,J8*%
X8596666Y-92272380D02*
X8596666Y-92986666D01*
X8549047Y-93129523D01*
X8453809Y-93224761D01*
X8310952Y-93272380D01*
X8215714Y-93272380D01*
X9215714Y-92700952D02*
X9120476Y-92653333D01*
X9072857Y-92605714D01*
X9025238Y-92510476D01*
X9025238Y-92462857D01*
X9072857Y-92367619D01*
X9120476Y-92320000D01*
X9215714Y-92272380D01*
X9406190Y-92272380D01*
X9501428Y-92320000D01*
X9549047Y-92367619D01*
X9596666Y-92462857D01*
X9596666Y-92510476D01*
X9549047Y-92605714D01*
X9501428Y-92653333D01*
X9406190Y-92700952D01*
X9215714Y-92700952D01*
X9120476Y-92748571D01*
X9072857Y-92796190D01*
X9025238Y-92891428D01*
X9025238Y-93081904D01*
X9072857Y-93177142D01*
X9120476Y-93224761D01*
X9215714Y-93272380D01*
X9406190Y-93272380D01*
X9501428Y-93224761D01*
X9549047Y-93177142D01*
X9596666Y-93081904D01*
X9596666Y-92891428D01*
X9549047Y-92796190D01*
X9501428Y-92748571D01*
X9406190Y-92700952D01*
%TO.C,J5*%
X536666Y-93482380D02*
X536666Y-94196666D01*
X489047Y-94339523D01*
X393809Y-94434761D01*
X250952Y-94482380D01*
X155714Y-94482380D01*
X1489047Y-93482380D02*
X1012857Y-93482380D01*
X965238Y-93958571D01*
X1012857Y-93910952D01*
X1108095Y-93863333D01*
X1346190Y-93863333D01*
X1441428Y-93910952D01*
X1489047Y-93958571D01*
X1536666Y-94053809D01*
X1536666Y-94291904D01*
X1489047Y-94387142D01*
X1441428Y-94434761D01*
X1346190Y-94482380D01*
X1108095Y-94482380D01*
X1012857Y-94434761D01*
X965238Y-94387142D01*
%TO.C,RV5*%
X14212380Y-94585238D02*
X13736190Y-94918571D01*
X14212380Y-95156666D02*
X13212380Y-95156666D01*
X13212380Y-94775714D01*
X13260000Y-94680476D01*
X13307619Y-94632857D01*
X13402857Y-94585238D01*
X13545714Y-94585238D01*
X13640952Y-94632857D01*
X13688571Y-94680476D01*
X13736190Y-94775714D01*
X13736190Y-95156666D01*
X13212380Y-94299523D02*
X14212380Y-93966190D01*
X13212380Y-93632857D01*
X13212380Y-92823333D02*
X13212380Y-93299523D01*
X13688571Y-93347142D01*
X13640952Y-93299523D01*
X13593333Y-93204285D01*
X13593333Y-92966190D01*
X13640952Y-92870952D01*
X13688571Y-92823333D01*
X13783809Y-92775714D01*
X14021904Y-92775714D01*
X14117142Y-92823333D01*
X14164761Y-92870952D01*
X14212380Y-92966190D01*
X14212380Y-93204285D01*
X14164761Y-93299523D01*
X14117142Y-93347142D01*
%TO.C,RV3*%
X15914761Y-66492380D02*
X15581428Y-66016190D01*
X15343333Y-66492380D02*
X15343333Y-65492380D01*
X15724285Y-65492380D01*
X15819523Y-65540000D01*
X15867142Y-65587619D01*
X15914761Y-65682857D01*
X15914761Y-65825714D01*
X15867142Y-65920952D01*
X15819523Y-65968571D01*
X15724285Y-66016190D01*
X15343333Y-66016190D01*
X16200476Y-65492380D02*
X16533809Y-66492380D01*
X16867142Y-65492380D01*
X17105238Y-65492380D02*
X17724285Y-65492380D01*
X17390952Y-65873333D01*
X17533809Y-65873333D01*
X17629047Y-65920952D01*
X17676666Y-65968571D01*
X17724285Y-66063809D01*
X17724285Y-66301904D01*
X17676666Y-66397142D01*
X17629047Y-66444761D01*
X17533809Y-66492380D01*
X17248095Y-66492380D01*
X17152857Y-66444761D01*
X17105238Y-66397142D01*
%TO.C,RV2*%
X19724761Y-47442380D02*
X19391428Y-46966190D01*
X19153333Y-47442380D02*
X19153333Y-46442380D01*
X19534285Y-46442380D01*
X19629523Y-46490000D01*
X19677142Y-46537619D01*
X19724761Y-46632857D01*
X19724761Y-46775714D01*
X19677142Y-46870952D01*
X19629523Y-46918571D01*
X19534285Y-46966190D01*
X19153333Y-46966190D01*
X20010476Y-46442380D02*
X20343809Y-47442380D01*
X20677142Y-46442380D01*
X20962857Y-46537619D02*
X21010476Y-46490000D01*
X21105714Y-46442380D01*
X21343809Y-46442380D01*
X21439047Y-46490000D01*
X21486666Y-46537619D01*
X21534285Y-46632857D01*
X21534285Y-46728095D01*
X21486666Y-46870952D01*
X20915238Y-47442380D01*
X21534285Y-47442380D01*
%TO.C,RV7*%
X17184761Y-33472380D02*
X16851428Y-32996190D01*
X16613333Y-33472380D02*
X16613333Y-32472380D01*
X16994285Y-32472380D01*
X17089523Y-32520000D01*
X17137142Y-32567619D01*
X17184761Y-32662857D01*
X17184761Y-32805714D01*
X17137142Y-32900952D01*
X17089523Y-32948571D01*
X16994285Y-32996190D01*
X16613333Y-32996190D01*
X17470476Y-32472380D02*
X17803809Y-33472380D01*
X18137142Y-32472380D01*
X18375238Y-32472380D02*
X19041904Y-32472380D01*
X18613333Y-33472380D01*
%TO.C,RV6*%
X14212380Y-13985238D02*
X13736190Y-14318571D01*
X14212380Y-14556666D02*
X13212380Y-14556666D01*
X13212380Y-14175714D01*
X13260000Y-14080476D01*
X13307619Y-14032857D01*
X13402857Y-13985238D01*
X13545714Y-13985238D01*
X13640952Y-14032857D01*
X13688571Y-14080476D01*
X13736190Y-14175714D01*
X13736190Y-14556666D01*
X13212380Y-13699523D02*
X14212380Y-13366190D01*
X13212380Y-13032857D01*
X13212380Y-12270952D02*
X13212380Y-12461428D01*
X13260000Y-12556666D01*
X13307619Y-12604285D01*
X13450476Y-12699523D01*
X13640952Y-12747142D01*
X14021904Y-12747142D01*
X14117142Y-12699523D01*
X14164761Y-12651904D01*
X14212380Y-12556666D01*
X14212380Y-12366190D01*
X14164761Y-12270952D01*
X14117142Y-12223333D01*
X14021904Y-12175714D01*
X13783809Y-12175714D01*
X13688571Y-12223333D01*
X13640952Y-12270952D01*
X13593333Y-12366190D01*
X13593333Y-12556666D01*
X13640952Y-12651904D01*
X13688571Y-12699523D01*
X13783809Y-12747142D01*
%TO.C,D8*%
X20131904Y-22492380D02*
X20131904Y-21492380D01*
X20370000Y-21492380D01*
X20512857Y-21540000D01*
X20608095Y-21635238D01*
X20655714Y-21730476D01*
X20703333Y-21920952D01*
X20703333Y-22063809D01*
X20655714Y-22254285D01*
X20608095Y-22349523D01*
X20512857Y-22444761D01*
X20370000Y-22492380D01*
X20131904Y-22492380D01*
X21274761Y-21920952D02*
X21179523Y-21873333D01*
X21131904Y-21825714D01*
X21084285Y-21730476D01*
X21084285Y-21682857D01*
X21131904Y-21587619D01*
X21179523Y-21540000D01*
X21274761Y-21492380D01*
X21465238Y-21492380D01*
X21560476Y-21540000D01*
X21608095Y-21587619D01*
X21655714Y-21682857D01*
X21655714Y-21730476D01*
X21608095Y-21825714D01*
X21560476Y-21873333D01*
X21465238Y-21920952D01*
X21274761Y-21920952D01*
X21179523Y-21968571D01*
X21131904Y-22016190D01*
X21084285Y-22111428D01*
X21084285Y-22301904D01*
X21131904Y-22397142D01*
X21179523Y-22444761D01*
X21274761Y-22492380D01*
X21465238Y-22492380D01*
X21560476Y-22444761D01*
X21608095Y-22397142D01*
X21655714Y-22301904D01*
X21655714Y-22111428D01*
X21608095Y-22016190D01*
X21560476Y-21968571D01*
X21465238Y-21920952D01*
%TO.C,D7*%
X20131904Y-102222380D02*
X20131904Y-101222380D01*
X20370000Y-101222380D01*
X20512857Y-101270000D01*
X20608095Y-101365238D01*
X20655714Y-101460476D01*
X20703333Y-101650952D01*
X20703333Y-101793809D01*
X20655714Y-101984285D01*
X20608095Y-102079523D01*
X20512857Y-102174761D01*
X20370000Y-102222380D01*
X20131904Y-102222380D01*
X21036666Y-101222380D02*
X21703333Y-101222380D01*
X21274761Y-102222380D01*
%TO.C,J2*%
X8596666Y-11572380D02*
X8596666Y-12286666D01*
X8549047Y-12429523D01*
X8453809Y-12524761D01*
X8310952Y-12572380D01*
X8215714Y-12572380D01*
X9025238Y-11667619D02*
X9072857Y-11620000D01*
X9168095Y-11572380D01*
X9406190Y-11572380D01*
X9501428Y-11620000D01*
X9549047Y-11667619D01*
X9596666Y-11762857D01*
X9596666Y-11858095D01*
X9549047Y-12000952D01*
X8977619Y-12572380D01*
X9596666Y-12572380D01*
%TO.C,J6*%
X536666Y-12732380D02*
X536666Y-13446666D01*
X489047Y-13589523D01*
X393809Y-13684761D01*
X250952Y-13732380D01*
X155714Y-13732380D01*
X1441428Y-12732380D02*
X1250952Y-12732380D01*
X1155714Y-12780000D01*
X1108095Y-12827619D01*
X1012857Y-12970476D01*
X965238Y-13160952D01*
X965238Y-13541904D01*
X1012857Y-13637142D01*
X1060476Y-13684761D01*
X1155714Y-13732380D01*
X1346190Y-13732380D01*
X1441428Y-13684761D01*
X1489047Y-13637142D01*
X1536666Y-13541904D01*
X1536666Y-13303809D01*
X1489047Y-13208571D01*
X1441428Y-13160952D01*
X1346190Y-13113333D01*
X1155714Y-13113333D01*
X1060476Y-13160952D01*
X1012857Y-13208571D01*
X965238Y-13303809D01*
%TO.C,J10*%
X8120476Y-51572380D02*
X8120476Y-52286666D01*
X8072857Y-52429523D01*
X7977619Y-52524761D01*
X7834761Y-52572380D01*
X7739523Y-52572380D01*
X9120476Y-52572380D02*
X8549047Y-52572380D01*
X8834761Y-52572380D02*
X8834761Y-51572380D01*
X8739523Y-51715238D01*
X8644285Y-51810476D01*
X8549047Y-51858095D01*
X9739523Y-51572380D02*
X9834761Y-51572380D01*
X9930000Y-51620000D01*
X9977619Y-51667619D01*
X10025238Y-51762857D01*
X10072857Y-51953333D01*
X10072857Y-52191428D01*
X10025238Y-52381904D01*
X9977619Y-52477142D01*
X9930000Y-52524761D01*
X9834761Y-52572380D01*
X9739523Y-52572380D01*
X9644285Y-52524761D01*
X9596666Y-52477142D01*
X9549047Y-52381904D01*
X9501428Y-52191428D01*
X9501428Y-51953333D01*
X9549047Y-51762857D01*
X9596666Y-51667619D01*
X9644285Y-51620000D01*
X9739523Y-51572380D01*
%TO.C,J3*%
X536666Y-52732380D02*
X536666Y-53446666D01*
X489047Y-53589523D01*
X393809Y-53684761D01*
X250952Y-53732380D01*
X155714Y-53732380D01*
X917619Y-52732380D02*
X1536666Y-52732380D01*
X1203333Y-53113333D01*
X1346190Y-53113333D01*
X1441428Y-53160952D01*
X1489047Y-53208571D01*
X1536666Y-53303809D01*
X1536666Y-53541904D01*
X1489047Y-53637142D01*
X1441428Y-53684761D01*
X1346190Y-53732380D01*
X1060476Y-53732380D01*
X965238Y-53684761D01*
X917619Y-53637142D01*
%TD*%
M02*
