%TF.GenerationSoftware,KiCad,Pcbnew,(5.1.9-0-10_14)*%
%TF.CreationDate,2021-04-20T22:44:58+02:00*%
%TF.ProjectId,tribus_front,74726962-7573-45f6-9672-6f6e742e6b69,rev?*%
%TF.SameCoordinates,Original*%
%TF.FileFunction,Soldermask,Top*%
%TF.FilePolarity,Negative*%
%FSLAX46Y46*%
G04 Gerber Fmt 4.6, Leading zero omitted, Abs format (unit mm)*
G04 Created by KiCad (PCBNEW (5.1.9-0-10_14)) date 2021-04-20 22:44:58*
%MOMM*%
%LPD*%
G01*
G04 APERTURE LIST*
%ADD10C,1.800000*%
%ADD11R,1.800000X1.800000*%
%ADD12C,2.130000*%
%ADD13R,1.930000X1.830000*%
%ADD14O,2.720000X3.240000*%
%ADD15C,4.000000*%
%ADD16O,1.700000X1.700000*%
%ADD17R,1.700000X1.700000*%
G04 APERTURE END LIST*
D10*
%TO.C,D14*%
X22140000Y-65300000D03*
D11*
X19600000Y-65300000D03*
%TD*%
D12*
%TO.C,J8*%
X4900000Y-90800000D03*
D13*
X4900000Y-93900000D03*
D12*
X4900000Y-82500000D03*
%TD*%
%TO.C,J5*%
X4900000Y-96050000D03*
D13*
X4900000Y-92950000D03*
D12*
X4900000Y-104350000D03*
%TD*%
D11*
%TO.C,RV5*%
X18400000Y-100700000D03*
D10*
X20900000Y-100700000D03*
X23400000Y-100700000D03*
D14*
X25700000Y-93200000D03*
X16100000Y-93200000D03*
%TD*%
D10*
%TO.C,RV3*%
X18400000Y-79900000D03*
X20900000Y-79900000D03*
X23400000Y-79900000D03*
D15*
X16500000Y-72900000D03*
X25300000Y-72900000D03*
%TD*%
D11*
%TO.C,RV2*%
X18400000Y-60400000D03*
D10*
X20900000Y-60400000D03*
X23400000Y-60400000D03*
D14*
X25700000Y-52900000D03*
X16100000Y-52900000D03*
%TD*%
D10*
%TO.C,RV7*%
X18400000Y-45100000D03*
X20900000Y-45100000D03*
X23400000Y-45100000D03*
D15*
X16500000Y-38100000D03*
X25300000Y-38100000D03*
%TD*%
D11*
%TO.C,RV6*%
X18400000Y-20100000D03*
D10*
X20900000Y-20100000D03*
X23400000Y-20100000D03*
D14*
X25700000Y-12600000D03*
X16100000Y-12600000D03*
%TD*%
D10*
%TO.C,D8*%
X22140000Y-25000000D03*
D11*
X19600000Y-25000000D03*
%TD*%
D10*
%TO.C,D7*%
X22140000Y-104730000D03*
D11*
X19600000Y-104730000D03*
%TD*%
D12*
%TO.C,J2*%
X4900000Y-10100000D03*
D13*
X4900000Y-13200000D03*
D12*
X4900000Y-1800000D03*
%TD*%
%TO.C,J6*%
X4900000Y-15300000D03*
D13*
X4900000Y-12200000D03*
D12*
X4900000Y-23600000D03*
%TD*%
%TO.C,J10*%
X4900000Y-50100000D03*
D13*
X4900000Y-53200000D03*
D12*
X4900000Y-41800000D03*
%TD*%
%TO.C,J3*%
X4900000Y-55300000D03*
D13*
X4900000Y-52200000D03*
D12*
X4900000Y-63600000D03*
%TD*%
D16*
%TO.C,J9*%
X28690000Y-84000000D03*
X26150000Y-84000000D03*
X23610000Y-84000000D03*
X21070000Y-84000000D03*
X18530000Y-84000000D03*
X15990000Y-84000000D03*
X13450000Y-84000000D03*
D17*
X10910000Y-84000000D03*
%TD*%
D16*
%TO.C,J11*%
X25690000Y-30000000D03*
X23150000Y-30000000D03*
X20610000Y-30000000D03*
X18070000Y-30000000D03*
X15530000Y-30000000D03*
X12990000Y-30000000D03*
X10450000Y-30000000D03*
D17*
X7910000Y-30000000D03*
%TD*%
M02*
