M48
; DRILL file {KiCad (5.1.9-0-10_14)} date Tuesday, April 20, 2021 at 10:44:54 PM
; FORMAT={-:-/ absolute / inch / decimal}
; #@! TF.CreationDate,2021-04-20T22:44:54+02:00
; #@! TF.GenerationSoftware,Kicad,Pcbnew,(5.1.9-0-10_14)
FMAT,2
INCH
T1C0.0157
T2C0.0354
T3C0.0394
T4C0.0433
T5C0.0480
T6C0.0559
T7C0.0563
T8C0.0787
%
G90
G05
T1
X0.7492Y-0.1696
X1.0433Y-0.5886
X1.079Y-0.8563
X1.0815Y-3.4533
T2
X0.7717Y-0.9843
X0.7717Y-2.5709
X0.7717Y-4.1232
X0.8717Y-0.9843
X0.8717Y-2.5709
X0.8717Y-4.1232
T3
X0.3114Y-1.1811
X0.4114Y-1.1811
X0.4295Y-3.3071
X0.5114Y-1.1811
X0.5295Y-3.3071
X0.6114Y-1.1811
X0.6295Y-3.3071
X0.7114Y-1.1811
X0.7244Y-0.7913
X0.7244Y-1.7756
X0.7244Y-2.378
X0.7244Y-3.1457
X0.7244Y-3.9646
X0.7295Y-3.3071
X0.8114Y-1.1811
X0.8228Y-0.7913
X0.8228Y-1.7756
X0.8228Y-2.378
X0.8228Y-3.1457
X0.8228Y-3.9646
X0.8295Y-3.3071
X0.9114Y-1.1811
X0.9213Y-0.7913
X0.9213Y-1.7756
X0.9213Y-2.378
X0.9213Y-3.1457
X0.9213Y-3.9646
X0.9295Y-3.3071
X1.0114Y-1.1811
X1.0295Y-3.3071
X1.1295Y-3.3071
T5
X0.1929Y-0.4803
X0.1929Y-0.5197
X0.1929Y-2.0551
X0.1929Y-2.0945
X0.1929Y-3.6594
X0.1929Y-3.6969
T6
X0.1929Y-0.3976
X0.1929Y-0.6024
X0.1929Y-1.9724
X0.1929Y-2.1772
X0.1929Y-3.5748
X0.1929Y-3.7815
T7
X0.1929Y-0.0709
X0.1929Y-0.9291
X0.1929Y-1.6457
X0.1929Y-2.5039
X0.1929Y-3.248
X0.1929Y-4.1083
T8
X0.6496Y-1.5
X0.6496Y-2.8701
X0.9961Y-1.5
X0.9961Y-2.8701
T4
G00X0.6339Y-0.5098
M15
G01X0.6339Y-0.4823
M16
G05
G00X0.6339Y-2.0965
M15
G01X0.6339Y-2.0689
M16
G05
G00X0.6339Y-3.6831
M15
G01X0.6339Y-3.6555
M16
G05
G00X1.0118Y-0.5098
M15
G01X1.0118Y-0.4823
M16
G05
G00X1.0118Y-2.0965
M15
G01X1.0118Y-2.0689
M16
G05
G00X1.0118Y-3.6831
M15
G01X1.0118Y-3.6555
M16
G05
T0
M30
