%TF.GenerationSoftware,KiCad,Pcbnew,(5.1.9-0-10_14)*%
%TF.CreationDate,2021-04-20T22:44:58+02:00*%
%TF.ProjectId,tribus_front,74726962-7573-45f6-9672-6f6e742e6b69,rev?*%
%TF.SameCoordinates,Original*%
%TF.FileFunction,Copper,L2,Bot*%
%TF.FilePolarity,Positive*%
%FSLAX46Y46*%
G04 Gerber Fmt 4.6, Leading zero omitted, Abs format (unit mm)*
G04 Created by KiCad (PCBNEW (5.1.9-0-10_14)) date 2021-04-20 22:44:58*
%MOMM*%
%LPD*%
G01*
G04 APERTURE LIST*
%TA.AperFunction,ComponentPad*%
%ADD10C,1.800000*%
%TD*%
%TA.AperFunction,ComponentPad*%
%ADD11R,1.800000X1.800000*%
%TD*%
%TA.AperFunction,ComponentPad*%
%ADD12C,2.130000*%
%TD*%
%TA.AperFunction,ComponentPad*%
%ADD13R,1.930000X1.830000*%
%TD*%
%TA.AperFunction,ComponentPad*%
%ADD14O,2.720000X3.240000*%
%TD*%
%TA.AperFunction,WasherPad*%
%ADD15C,4.000000*%
%TD*%
%TA.AperFunction,ComponentPad*%
%ADD16O,1.700000X1.700000*%
%TD*%
%TA.AperFunction,ComponentPad*%
%ADD17R,1.700000X1.700000*%
%TD*%
%TA.AperFunction,SMDPad,CuDef*%
%ADD18R,1.200000X0.900000*%
%TD*%
%TA.AperFunction,SMDPad,CuDef*%
%ADD19R,0.900000X1.200000*%
%TD*%
%TA.AperFunction,ViaPad*%
%ADD20C,0.800000*%
%TD*%
%TA.AperFunction,Conductor*%
%ADD21C,0.250000*%
%TD*%
%TA.AperFunction,NonConductor*%
%ADD22C,0.254000*%
%TD*%
%TA.AperFunction,NonConductor*%
%ADD23C,0.100000*%
%TD*%
G04 APERTURE END LIST*
D10*
%TO.P,D14,2*%
%TO.N,Net-(C40-Pad2)*%
X22140000Y-65300000D03*
D11*
%TO.P,D14,1*%
%TO.N,GND*%
X19600000Y-65300000D03*
%TD*%
D12*
%TO.P,J8,TN*%
%TO.N,INPUT_NORM*%
X4900000Y-90800000D03*
D13*
%TO.P,J8,S*%
%TO.N,GND*%
X4900000Y-93900000D03*
D12*
%TO.P,J8,T*%
%TO.N,Net-(J8-PadT)*%
X4900000Y-82500000D03*
%TD*%
%TO.P,J5,TN*%
%TO.N,BASS_OUT_MIX*%
X4900000Y-96050000D03*
D13*
%TO.P,J5,S*%
%TO.N,GND*%
X4900000Y-92950000D03*
D12*
%TO.P,J5,T*%
%TO.N,BASS_OUT_FRONT*%
X4900000Y-104350000D03*
%TD*%
D11*
%TO.P,RV5,1*%
%TO.N,BASS_DECAY_FRONT*%
X18400000Y-100700000D03*
D10*
%TO.P,RV5,2*%
X20900000Y-100700000D03*
%TO.P,RV5,3*%
%TO.N,GND*%
X23400000Y-100700000D03*
D14*
%TO.P,RV5,*%
%TO.N,*%
X25700000Y-93200000D03*
X16100000Y-93200000D03*
%TD*%
D10*
%TO.P,RV3,3*%
%TO.N,SNARE_BODY_FRONT*%
X18400000Y-79900000D03*
%TO.P,RV3,2*%
%TO.N,GND*%
X20900000Y-79900000D03*
%TO.P,RV3,1*%
%TO.N,SNARE_NOISE_FRONT*%
X23400000Y-79900000D03*
D15*
%TO.P,RV3,*%
%TO.N,*%
X16500000Y-72900000D03*
X25300000Y-72900000D03*
%TD*%
D11*
%TO.P,RV2,1*%
%TO.N,Net-(R7-Pad1)*%
X18400000Y-60400000D03*
D10*
%TO.P,RV2,2*%
X20900000Y-60400000D03*
%TO.P,RV2,3*%
%TO.N,GND*%
X23400000Y-60400000D03*
D14*
%TO.P,RV2,*%
%TO.N,*%
X25700000Y-52900000D03*
X16100000Y-52900000D03*
%TD*%
D10*
%TO.P,RV7,3*%
%TO.N,GND*%
X18400000Y-45100000D03*
%TO.P,RV7,2*%
%TO.N,Net-(R67-Pad2)*%
X20900000Y-45100000D03*
%TO.P,RV7,1*%
X23400000Y-45100000D03*
D15*
%TO.P,RV7,*%
%TO.N,*%
X16500000Y-38100000D03*
X25300000Y-38100000D03*
%TD*%
D11*
%TO.P,RV6,1*%
%TO.N,GND*%
X18400000Y-20100000D03*
D10*
%TO.P,RV6,2*%
%TO.N,Net-(R60-Pad1)*%
X20900000Y-20100000D03*
%TO.P,RV6,3*%
X23400000Y-20100000D03*
D14*
%TO.P,RV6,*%
%TO.N,*%
X25700000Y-12600000D03*
X16100000Y-12600000D03*
%TD*%
D10*
%TO.P,D8,2*%
%TO.N,Net-(C39-Pad2)*%
X22140000Y-25000000D03*
D11*
%TO.P,D8,1*%
%TO.N,GND*%
X19600000Y-25000000D03*
%TD*%
D10*
%TO.P,D7,2*%
%TO.N,Net-(C38-Pad2)*%
X22140000Y-104730000D03*
D11*
%TO.P,D7,1*%
%TO.N,GND*%
X19600000Y-104730000D03*
%TD*%
D12*
%TO.P,J2,TN*%
%TO.N,Net-(J2-PadTN)*%
X4900000Y-10100000D03*
D13*
%TO.P,J2,S*%
%TO.N,GND*%
X4900000Y-13200000D03*
D12*
%TO.P,J2,T*%
%TO.N,INPUT_NORM*%
X4900000Y-1800000D03*
%TD*%
%TO.P,J6,TN*%
%TO.N,HH_OUT_MIX*%
X4900000Y-15300000D03*
D13*
%TO.P,J6,S*%
%TO.N,GND*%
X4900000Y-12200000D03*
D12*
%TO.P,J6,T*%
%TO.N,HH_OUT_FRONT*%
X4900000Y-23600000D03*
%TD*%
%TO.P,J10,TN*%
%TO.N,INPUT_NORM*%
X4900000Y-50100000D03*
D13*
%TO.P,J10,S*%
%TO.N,GND*%
X4900000Y-53200000D03*
D12*
%TO.P,J10,T*%
%TO.N,Net-(J10-PadT)*%
X4900000Y-41800000D03*
%TD*%
%TO.P,J3,TN*%
%TO.N,Net-(J3-PadTN)*%
X4900000Y-55300000D03*
D13*
%TO.P,J3,S*%
%TO.N,GND*%
X4900000Y-52200000D03*
D12*
%TO.P,J3,T*%
%TO.N,Net-(J3-PadT)*%
X4900000Y-63600000D03*
%TD*%
D16*
%TO.P,J9,8*%
%TO.N,BASS_TRIG_FRONT*%
X28690000Y-84000000D03*
%TO.P,J9,7*%
%TO.N,BASS_DECAY_FRONT*%
X26150000Y-84000000D03*
%TO.P,J9,6*%
%TO.N,BASS_LED_FRONT*%
X23610000Y-84000000D03*
%TO.P,J9,5*%
%TO.N,BASS_OUT_FRONT*%
X21070000Y-84000000D03*
%TO.P,J9,4*%
%TO.N,SNARE_TRIGGER_FRONT*%
X18530000Y-84000000D03*
%TO.P,J9,3*%
%TO.N,SNARE_DECAY_FRONT*%
X15990000Y-84000000D03*
%TO.P,J9,2*%
%TO.N,SNARE_NOISE_FRONT*%
X13450000Y-84000000D03*
D17*
%TO.P,J9,1*%
%TO.N,SNARE_BODY_FRONT*%
X10910000Y-84000000D03*
%TD*%
D16*
%TO.P,J11,8*%
%TO.N,+12V*%
X25690000Y-30000000D03*
%TO.P,J11,7*%
%TO.N,Net-(J11-Pad7)*%
X23150000Y-30000000D03*
%TO.P,J11,6*%
%TO.N,-12V*%
X20610000Y-30000000D03*
%TO.P,J11,5*%
%TO.N,NOISE_CUTOFF_FRONT*%
X18070000Y-30000000D03*
%TO.P,J11,4*%
%TO.N,HH_TRIG_FRONT*%
X15530000Y-30000000D03*
%TO.P,J11,3*%
%TO.N,HH_DECAY_FRONT*%
X12990000Y-30000000D03*
%TO.P,J11,2*%
%TO.N,HH_OUT_FRONT*%
X10450000Y-30000000D03*
D17*
%TO.P,J11,1*%
%TO.N,GND*%
X7910000Y-30000000D03*
%TD*%
%TO.P,C21,2*%
%TO.N,Net-(C21-Pad2)*%
%TA.AperFunction,SMDPad,CuDef*%
G36*
G01*
X26950000Y-9275000D02*
X26950000Y-8325000D01*
G75*
G02*
X27200000Y-8075000I250000J0D01*
G01*
X27875000Y-8075000D01*
G75*
G02*
X28125000Y-8325000I0J-250000D01*
G01*
X28125000Y-9275000D01*
G75*
G02*
X27875000Y-9525000I-250000J0D01*
G01*
X27200000Y-9525000D01*
G75*
G02*
X26950000Y-9275000I0J250000D01*
G01*
G37*
%TD.AperFunction*%
%TO.P,C21,1*%
%TO.N,Net-(C21-Pad1)*%
%TA.AperFunction,SMDPad,CuDef*%
G36*
G01*
X24875000Y-9275000D02*
X24875000Y-8325000D01*
G75*
G02*
X25125000Y-8075000I250000J0D01*
G01*
X25800000Y-8075000D01*
G75*
G02*
X26050000Y-8325000I0J-250000D01*
G01*
X26050000Y-9275000D01*
G75*
G02*
X25800000Y-9525000I-250000J0D01*
G01*
X25125000Y-9525000D01*
G75*
G02*
X24875000Y-9275000I0J250000D01*
G01*
G37*
%TD.AperFunction*%
%TD*%
%TO.P,C38,2*%
%TO.N,Net-(C38-Pad2)*%
%TA.AperFunction,SMDPad,CuDef*%
G36*
G01*
X27120000Y-103345000D02*
X27120000Y-102395000D01*
G75*
G02*
X27370000Y-102145000I250000J0D01*
G01*
X28045000Y-102145000D01*
G75*
G02*
X28295000Y-102395000I0J-250000D01*
G01*
X28295000Y-103345000D01*
G75*
G02*
X28045000Y-103595000I-250000J0D01*
G01*
X27370000Y-103595000D01*
G75*
G02*
X27120000Y-103345000I0J250000D01*
G01*
G37*
%TD.AperFunction*%
%TO.P,C38,1*%
%TO.N,GND*%
%TA.AperFunction,SMDPad,CuDef*%
G36*
G01*
X25045000Y-103345000D02*
X25045000Y-102395000D01*
G75*
G02*
X25295000Y-102145000I250000J0D01*
G01*
X25970000Y-102145000D01*
G75*
G02*
X26220000Y-102395000I0J-250000D01*
G01*
X26220000Y-103345000D01*
G75*
G02*
X25970000Y-103595000I-250000J0D01*
G01*
X25295000Y-103595000D01*
G75*
G02*
X25045000Y-103345000I0J250000D01*
G01*
G37*
%TD.AperFunction*%
%TD*%
%TO.P,C39,2*%
%TO.N,Net-(C39-Pad2)*%
%TA.AperFunction,SMDPad,CuDef*%
G36*
G01*
X12917500Y-34765000D02*
X12917500Y-33815000D01*
G75*
G02*
X13167500Y-33565000I250000J0D01*
G01*
X13842500Y-33565000D01*
G75*
G02*
X14092500Y-33815000I0J-250000D01*
G01*
X14092500Y-34765000D01*
G75*
G02*
X13842500Y-35015000I-250000J0D01*
G01*
X13167500Y-35015000D01*
G75*
G02*
X12917500Y-34765000I0J250000D01*
G01*
G37*
%TD.AperFunction*%
%TO.P,C39,1*%
%TO.N,GND*%
%TA.AperFunction,SMDPad,CuDef*%
G36*
G01*
X10842500Y-34765000D02*
X10842500Y-33815000D01*
G75*
G02*
X11092500Y-33565000I250000J0D01*
G01*
X11767500Y-33565000D01*
G75*
G02*
X12017500Y-33815000I0J-250000D01*
G01*
X12017500Y-34765000D01*
G75*
G02*
X11767500Y-35015000I-250000J0D01*
G01*
X11092500Y-35015000D01*
G75*
G02*
X10842500Y-34765000I0J250000D01*
G01*
G37*
%TD.AperFunction*%
%TD*%
%TO.P,C40,2*%
%TO.N,Net-(C40-Pad2)*%
%TA.AperFunction,SMDPad,CuDef*%
G36*
G01*
X20770000Y-70325000D02*
X20770000Y-69375000D01*
G75*
G02*
X21020000Y-69125000I250000J0D01*
G01*
X21695000Y-69125000D01*
G75*
G02*
X21945000Y-69375000I0J-250000D01*
G01*
X21945000Y-70325000D01*
G75*
G02*
X21695000Y-70575000I-250000J0D01*
G01*
X21020000Y-70575000D01*
G75*
G02*
X20770000Y-70325000I0J250000D01*
G01*
G37*
%TD.AperFunction*%
%TO.P,C40,1*%
%TO.N,GND*%
%TA.AperFunction,SMDPad,CuDef*%
G36*
G01*
X18695000Y-70325000D02*
X18695000Y-69375000D01*
G75*
G02*
X18945000Y-69125000I250000J0D01*
G01*
X19620000Y-69125000D01*
G75*
G02*
X19870000Y-69375000I0J-250000D01*
G01*
X19870000Y-70325000D01*
G75*
G02*
X19620000Y-70575000I-250000J0D01*
G01*
X18945000Y-70575000D01*
G75*
G02*
X18695000Y-70325000I0J250000D01*
G01*
G37*
%TD.AperFunction*%
%TD*%
D18*
%TO.P,D3,2*%
%TO.N,GND*%
X11400000Y-3950000D03*
%TO.P,D3,1*%
%TO.N,HH_TRIG_FRONT*%
X11400000Y-7250000D03*
%TD*%
D19*
%TO.P,D15,2*%
%TO.N,GND*%
X15850000Y-104300000D03*
%TO.P,D15,1*%
%TO.N,BASS_TRIG_FRONT*%
X12550000Y-104300000D03*
%TD*%
%TO.P,D16,2*%
%TO.N,GND*%
X18500000Y-48300000D03*
%TO.P,D16,1*%
%TO.N,SNARE_TRIGGER_FRONT*%
X15200000Y-48300000D03*
%TD*%
%TO.P,U4,14*%
%TO.N,Net-(R61-Pad2)*%
%TA.AperFunction,SMDPad,CuDef*%
G36*
G01*
X22375000Y-3580000D02*
X22075000Y-3580000D01*
G75*
G02*
X21925000Y-3430000I0J150000D01*
G01*
X21925000Y-1780000D01*
G75*
G02*
X22075000Y-1630000I150000J0D01*
G01*
X22375000Y-1630000D01*
G75*
G02*
X22525000Y-1780000I0J-150000D01*
G01*
X22525000Y-3430000D01*
G75*
G02*
X22375000Y-3580000I-150000J0D01*
G01*
G37*
%TD.AperFunction*%
%TO.P,U4,13*%
%TA.AperFunction,SMDPad,CuDef*%
G36*
G01*
X21105000Y-3580000D02*
X20805000Y-3580000D01*
G75*
G02*
X20655000Y-3430000I0J150000D01*
G01*
X20655000Y-1780000D01*
G75*
G02*
X20805000Y-1630000I150000J0D01*
G01*
X21105000Y-1630000D01*
G75*
G02*
X21255000Y-1780000I0J-150000D01*
G01*
X21255000Y-3430000D01*
G75*
G02*
X21105000Y-3580000I-150000J0D01*
G01*
G37*
%TD.AperFunction*%
%TO.P,U4,12*%
%TO.N,Net-(R59-Pad1)*%
%TA.AperFunction,SMDPad,CuDef*%
G36*
G01*
X19835000Y-3580000D02*
X19535000Y-3580000D01*
G75*
G02*
X19385000Y-3430000I0J150000D01*
G01*
X19385000Y-1780000D01*
G75*
G02*
X19535000Y-1630000I150000J0D01*
G01*
X19835000Y-1630000D01*
G75*
G02*
X19985000Y-1780000I0J-150000D01*
G01*
X19985000Y-3430000D01*
G75*
G02*
X19835000Y-3580000I-150000J0D01*
G01*
G37*
%TD.AperFunction*%
%TO.P,U4,11*%
%TO.N,-12V*%
%TA.AperFunction,SMDPad,CuDef*%
G36*
G01*
X18565000Y-3580000D02*
X18265000Y-3580000D01*
G75*
G02*
X18115000Y-3430000I0J150000D01*
G01*
X18115000Y-1780000D01*
G75*
G02*
X18265000Y-1630000I150000J0D01*
G01*
X18565000Y-1630000D01*
G75*
G02*
X18715000Y-1780000I0J-150000D01*
G01*
X18715000Y-3430000D01*
G75*
G02*
X18565000Y-3580000I-150000J0D01*
G01*
G37*
%TD.AperFunction*%
%TO.P,U4,10*%
%TO.N,GND*%
%TA.AperFunction,SMDPad,CuDef*%
G36*
G01*
X17295000Y-3580000D02*
X16995000Y-3580000D01*
G75*
G02*
X16845000Y-3430000I0J150000D01*
G01*
X16845000Y-1780000D01*
G75*
G02*
X16995000Y-1630000I150000J0D01*
G01*
X17295000Y-1630000D01*
G75*
G02*
X17445000Y-1780000I0J-150000D01*
G01*
X17445000Y-3430000D01*
G75*
G02*
X17295000Y-3580000I-150000J0D01*
G01*
G37*
%TD.AperFunction*%
%TO.P,U4,9*%
%TO.N,Net-(C21-Pad2)*%
%TA.AperFunction,SMDPad,CuDef*%
G36*
G01*
X16025000Y-3580000D02*
X15725000Y-3580000D01*
G75*
G02*
X15575000Y-3430000I0J150000D01*
G01*
X15575000Y-1780000D01*
G75*
G02*
X15725000Y-1630000I150000J0D01*
G01*
X16025000Y-1630000D01*
G75*
G02*
X16175000Y-1780000I0J-150000D01*
G01*
X16175000Y-3430000D01*
G75*
G02*
X16025000Y-3580000I-150000J0D01*
G01*
G37*
%TD.AperFunction*%
%TO.P,U4,8*%
%TO.N,Net-(C21-Pad1)*%
%TA.AperFunction,SMDPad,CuDef*%
G36*
G01*
X14755000Y-3580000D02*
X14455000Y-3580000D01*
G75*
G02*
X14305000Y-3430000I0J150000D01*
G01*
X14305000Y-1780000D01*
G75*
G02*
X14455000Y-1630000I150000J0D01*
G01*
X14755000Y-1630000D01*
G75*
G02*
X14905000Y-1780000I0J-150000D01*
G01*
X14905000Y-3430000D01*
G75*
G02*
X14755000Y-3580000I-150000J0D01*
G01*
G37*
%TD.AperFunction*%
%TO.P,U4,7*%
%TO.N,Net-(R63-Pad2)*%
%TA.AperFunction,SMDPad,CuDef*%
G36*
G01*
X14755000Y-8530000D02*
X14455000Y-8530000D01*
G75*
G02*
X14305000Y-8380000I0J150000D01*
G01*
X14305000Y-6730000D01*
G75*
G02*
X14455000Y-6580000I150000J0D01*
G01*
X14755000Y-6580000D01*
G75*
G02*
X14905000Y-6730000I0J-150000D01*
G01*
X14905000Y-8380000D01*
G75*
G02*
X14755000Y-8530000I-150000J0D01*
G01*
G37*
%TD.AperFunction*%
%TO.P,U4,6*%
%TA.AperFunction,SMDPad,CuDef*%
G36*
G01*
X16025000Y-8530000D02*
X15725000Y-8530000D01*
G75*
G02*
X15575000Y-8380000I0J150000D01*
G01*
X15575000Y-6730000D01*
G75*
G02*
X15725000Y-6580000I150000J0D01*
G01*
X16025000Y-6580000D01*
G75*
G02*
X16175000Y-6730000I0J-150000D01*
G01*
X16175000Y-8380000D01*
G75*
G02*
X16025000Y-8530000I-150000J0D01*
G01*
G37*
%TD.AperFunction*%
%TO.P,U4,5*%
%TO.N,Net-(R62-Pad1)*%
%TA.AperFunction,SMDPad,CuDef*%
G36*
G01*
X17295000Y-8530000D02*
X16995000Y-8530000D01*
G75*
G02*
X16845000Y-8380000I0J150000D01*
G01*
X16845000Y-6730000D01*
G75*
G02*
X16995000Y-6580000I150000J0D01*
G01*
X17295000Y-6580000D01*
G75*
G02*
X17445000Y-6730000I0J-150000D01*
G01*
X17445000Y-8380000D01*
G75*
G02*
X17295000Y-8530000I-150000J0D01*
G01*
G37*
%TD.AperFunction*%
%TO.P,U4,4*%
%TO.N,+12V*%
%TA.AperFunction,SMDPad,CuDef*%
G36*
G01*
X18565000Y-8530000D02*
X18265000Y-8530000D01*
G75*
G02*
X18115000Y-8380000I0J150000D01*
G01*
X18115000Y-6730000D01*
G75*
G02*
X18265000Y-6580000I150000J0D01*
G01*
X18565000Y-6580000D01*
G75*
G02*
X18715000Y-6730000I0J-150000D01*
G01*
X18715000Y-8380000D01*
G75*
G02*
X18565000Y-8530000I-150000J0D01*
G01*
G37*
%TD.AperFunction*%
%TO.P,U4,3*%
%TO.N,Net-(R8-Pad1)*%
%TA.AperFunction,SMDPad,CuDef*%
G36*
G01*
X19835000Y-8530000D02*
X19535000Y-8530000D01*
G75*
G02*
X19385000Y-8380000I0J150000D01*
G01*
X19385000Y-6730000D01*
G75*
G02*
X19535000Y-6580000I150000J0D01*
G01*
X19835000Y-6580000D01*
G75*
G02*
X19985000Y-6730000I0J-150000D01*
G01*
X19985000Y-8380000D01*
G75*
G02*
X19835000Y-8530000I-150000J0D01*
G01*
G37*
%TD.AperFunction*%
%TO.P,U4,2*%
%TO.N,Net-(R29-Pad2)*%
%TA.AperFunction,SMDPad,CuDef*%
G36*
G01*
X21105000Y-8530000D02*
X20805000Y-8530000D01*
G75*
G02*
X20655000Y-8380000I0J150000D01*
G01*
X20655000Y-6730000D01*
G75*
G02*
X20805000Y-6580000I150000J0D01*
G01*
X21105000Y-6580000D01*
G75*
G02*
X21255000Y-6730000I0J-150000D01*
G01*
X21255000Y-8380000D01*
G75*
G02*
X21105000Y-8530000I-150000J0D01*
G01*
G37*
%TD.AperFunction*%
%TO.P,U4,1*%
%TA.AperFunction,SMDPad,CuDef*%
G36*
G01*
X22375000Y-8530000D02*
X22075000Y-8530000D01*
G75*
G02*
X21925000Y-8380000I0J150000D01*
G01*
X21925000Y-6730000D01*
G75*
G02*
X22075000Y-6580000I150000J0D01*
G01*
X22375000Y-6580000D01*
G75*
G02*
X22525000Y-6730000I0J-150000D01*
G01*
X22525000Y-8380000D01*
G75*
G02*
X22375000Y-8530000I-150000J0D01*
G01*
G37*
%TD.AperFunction*%
%TD*%
%TO.P,R7,2*%
%TO.N,SNARE_DECAY_FRONT*%
%TA.AperFunction,SMDPad,CuDef*%
G36*
G01*
X12800000Y-59874997D02*
X12800000Y-61125003D01*
G75*
G02*
X12550003Y-61375000I-249997J0D01*
G01*
X11924997Y-61375000D01*
G75*
G02*
X11675000Y-61125003I0J249997D01*
G01*
X11675000Y-59874997D01*
G75*
G02*
X11924997Y-59625000I249997J0D01*
G01*
X12550003Y-59625000D01*
G75*
G02*
X12800000Y-59874997I0J-249997D01*
G01*
G37*
%TD.AperFunction*%
%TO.P,R7,1*%
%TO.N,Net-(R7-Pad1)*%
%TA.AperFunction,SMDPad,CuDef*%
G36*
G01*
X15725000Y-59874997D02*
X15725000Y-61125003D01*
G75*
G02*
X15475003Y-61375000I-249997J0D01*
G01*
X14849997Y-61375000D01*
G75*
G02*
X14600000Y-61125003I0J249997D01*
G01*
X14600000Y-59874997D01*
G75*
G02*
X14849997Y-59625000I249997J0D01*
G01*
X15475003Y-59625000D01*
G75*
G02*
X15725000Y-59874997I0J-249997D01*
G01*
G37*
%TD.AperFunction*%
%TD*%
%TO.P,R8,1*%
%TO.N,Net-(R8-Pad1)*%
%TA.AperFunction,SMDPad,CuDef*%
G36*
G01*
X24475000Y-6525003D02*
X24475000Y-5274997D01*
G75*
G02*
X24724997Y-5025000I249997J0D01*
G01*
X25350003Y-5025000D01*
G75*
G02*
X25600000Y-5274997I0J-249997D01*
G01*
X25600000Y-6525003D01*
G75*
G02*
X25350003Y-6775000I-249997J0D01*
G01*
X24724997Y-6775000D01*
G75*
G02*
X24475000Y-6525003I0J249997D01*
G01*
G37*
%TD.AperFunction*%
%TO.P,R8,2*%
%TO.N,BASS_LED_FRONT*%
%TA.AperFunction,SMDPad,CuDef*%
G36*
G01*
X27400000Y-6525003D02*
X27400000Y-5274997D01*
G75*
G02*
X27649997Y-5025000I249997J0D01*
G01*
X28275003Y-5025000D01*
G75*
G02*
X28525000Y-5274997I0J-249997D01*
G01*
X28525000Y-6525003D01*
G75*
G02*
X28275003Y-6775000I-249997J0D01*
G01*
X27649997Y-6775000D01*
G75*
G02*
X27400000Y-6525003I0J249997D01*
G01*
G37*
%TD.AperFunction*%
%TD*%
%TO.P,R13,2*%
%TO.N,HH_TRIG_FRONT*%
%TA.AperFunction,SMDPad,CuDef*%
G36*
G01*
X10800000Y-11625003D02*
X10800000Y-10374997D01*
G75*
G02*
X11049997Y-10125000I249997J0D01*
G01*
X11675003Y-10125000D01*
G75*
G02*
X11925000Y-10374997I0J-249997D01*
G01*
X11925000Y-11625003D01*
G75*
G02*
X11675003Y-11875000I-249997J0D01*
G01*
X11049997Y-11875000D01*
G75*
G02*
X10800000Y-11625003I0J249997D01*
G01*
G37*
%TD.AperFunction*%
%TO.P,R13,1*%
%TO.N,INPUT_NORM*%
%TA.AperFunction,SMDPad,CuDef*%
G36*
G01*
X7875000Y-11625003D02*
X7875000Y-10374997D01*
G75*
G02*
X8124997Y-10125000I249997J0D01*
G01*
X8750003Y-10125000D01*
G75*
G02*
X9000000Y-10374997I0J-249997D01*
G01*
X9000000Y-11625003D01*
G75*
G02*
X8750003Y-11875000I-249997J0D01*
G01*
X8124997Y-11875000D01*
G75*
G02*
X7875000Y-11625003I0J249997D01*
G01*
G37*
%TD.AperFunction*%
%TD*%
%TO.P,R15,1*%
%TO.N,HH_TRIG_FRONT*%
%TA.AperFunction,SMDPad,CuDef*%
G36*
G01*
X12185000Y-15884997D02*
X12185000Y-17135003D01*
G75*
G02*
X11935003Y-17385000I-249997J0D01*
G01*
X11309997Y-17385000D01*
G75*
G02*
X11060000Y-17135003I0J249997D01*
G01*
X11060000Y-15884997D01*
G75*
G02*
X11309997Y-15635000I249997J0D01*
G01*
X11935003Y-15635000D01*
G75*
G02*
X12185000Y-15884997I0J-249997D01*
G01*
G37*
%TD.AperFunction*%
%TO.P,R15,2*%
%TO.N,GND*%
%TA.AperFunction,SMDPad,CuDef*%
G36*
G01*
X9260000Y-15884997D02*
X9260000Y-17135003D01*
G75*
G02*
X9010003Y-17385000I-249997J0D01*
G01*
X8384997Y-17385000D01*
G75*
G02*
X8135000Y-17135003I0J249997D01*
G01*
X8135000Y-15884997D01*
G75*
G02*
X8384997Y-15635000I249997J0D01*
G01*
X9010003Y-15635000D01*
G75*
G02*
X9260000Y-15884997I0J-249997D01*
G01*
G37*
%TD.AperFunction*%
%TD*%
%TO.P,R16,2*%
%TO.N,Net-(C21-Pad2)*%
%TA.AperFunction,SMDPad,CuDef*%
G36*
G01*
X12074997Y-23300000D02*
X13325003Y-23300000D01*
G75*
G02*
X13575000Y-23549997I0J-249997D01*
G01*
X13575000Y-24175003D01*
G75*
G02*
X13325003Y-24425000I-249997J0D01*
G01*
X12074997Y-24425000D01*
G75*
G02*
X11825000Y-24175003I0J249997D01*
G01*
X11825000Y-23549997D01*
G75*
G02*
X12074997Y-23300000I249997J0D01*
G01*
G37*
%TD.AperFunction*%
%TO.P,R16,1*%
%TO.N,HH_OUT_MIX*%
%TA.AperFunction,SMDPad,CuDef*%
G36*
G01*
X12074997Y-20375000D02*
X13325003Y-20375000D01*
G75*
G02*
X13575000Y-20624997I0J-249997D01*
G01*
X13575000Y-21250003D01*
G75*
G02*
X13325003Y-21500000I-249997J0D01*
G01*
X12074997Y-21500000D01*
G75*
G02*
X11825000Y-21250003I0J249997D01*
G01*
X11825000Y-20624997D01*
G75*
G02*
X12074997Y-20375000I249997J0D01*
G01*
G37*
%TD.AperFunction*%
%TD*%
%TO.P,R17,1*%
%TO.N,BASS_OUT_MIX*%
%TA.AperFunction,SMDPad,CuDef*%
G36*
G01*
X4435003Y-74415000D02*
X3184997Y-74415000D01*
G75*
G02*
X2935000Y-74165003I0J249997D01*
G01*
X2935000Y-73539997D01*
G75*
G02*
X3184997Y-73290000I249997J0D01*
G01*
X4435003Y-73290000D01*
G75*
G02*
X4685000Y-73539997I0J-249997D01*
G01*
X4685000Y-74165003D01*
G75*
G02*
X4435003Y-74415000I-249997J0D01*
G01*
G37*
%TD.AperFunction*%
%TO.P,R17,2*%
%TO.N,Net-(C21-Pad2)*%
%TA.AperFunction,SMDPad,CuDef*%
G36*
G01*
X4435003Y-71490000D02*
X3184997Y-71490000D01*
G75*
G02*
X2935000Y-71240003I0J249997D01*
G01*
X2935000Y-70614997D01*
G75*
G02*
X3184997Y-70365000I249997J0D01*
G01*
X4435003Y-70365000D01*
G75*
G02*
X4685000Y-70614997I0J-249997D01*
G01*
X4685000Y-71240003D01*
G75*
G02*
X4435003Y-71490000I-249997J0D01*
G01*
G37*
%TD.AperFunction*%
%TD*%
%TO.P,R20,2*%
%TO.N,Net-(C21-Pad2)*%
%TA.AperFunction,SMDPad,CuDef*%
G36*
G01*
X10800000Y-80654997D02*
X10800000Y-81905003D01*
G75*
G02*
X10550003Y-82155000I-249997J0D01*
G01*
X9924997Y-82155000D01*
G75*
G02*
X9675000Y-81905003I0J249997D01*
G01*
X9675000Y-80654997D01*
G75*
G02*
X9924997Y-80405000I249997J0D01*
G01*
X10550003Y-80405000D01*
G75*
G02*
X10800000Y-80654997I0J-249997D01*
G01*
G37*
%TD.AperFunction*%
%TO.P,R20,1*%
%TO.N,SNARE_NOISE_FRONT*%
%TA.AperFunction,SMDPad,CuDef*%
G36*
G01*
X13725000Y-80654997D02*
X13725000Y-81905003D01*
G75*
G02*
X13475003Y-82155000I-249997J0D01*
G01*
X12849997Y-82155000D01*
G75*
G02*
X12600000Y-81905003I0J249997D01*
G01*
X12600000Y-80654997D01*
G75*
G02*
X12849997Y-80405000I249997J0D01*
G01*
X13475003Y-80405000D01*
G75*
G02*
X13725000Y-80654997I0J-249997D01*
G01*
G37*
%TD.AperFunction*%
%TD*%
%TO.P,R26,1*%
%TO.N,SNARE_BODY_FRONT*%
%TA.AperFunction,SMDPad,CuDef*%
G36*
G01*
X10915000Y-71129997D02*
X10915000Y-72380003D01*
G75*
G02*
X10665003Y-72630000I-249997J0D01*
G01*
X10039997Y-72630000D01*
G75*
G02*
X9790000Y-72380003I0J249997D01*
G01*
X9790000Y-71129997D01*
G75*
G02*
X10039997Y-70880000I249997J0D01*
G01*
X10665003Y-70880000D01*
G75*
G02*
X10915000Y-71129997I0J-249997D01*
G01*
G37*
%TD.AperFunction*%
%TO.P,R26,2*%
%TO.N,Net-(C21-Pad2)*%
%TA.AperFunction,SMDPad,CuDef*%
G36*
G01*
X7990000Y-71129997D02*
X7990000Y-72380003D01*
G75*
G02*
X7740003Y-72630000I-249997J0D01*
G01*
X7114997Y-72630000D01*
G75*
G02*
X6865000Y-72380003I0J249997D01*
G01*
X6865000Y-71129997D01*
G75*
G02*
X7114997Y-70880000I249997J0D01*
G01*
X7740003Y-70880000D01*
G75*
G02*
X7990000Y-71129997I0J-249997D01*
G01*
G37*
%TD.AperFunction*%
%TD*%
%TO.P,R29,2*%
%TO.N,Net-(R29-Pad2)*%
%TA.AperFunction,SMDPad,CuDef*%
G36*
G01*
X27300000Y-98025003D02*
X27300000Y-96774997D01*
G75*
G02*
X27549997Y-96525000I249997J0D01*
G01*
X28175003Y-96525000D01*
G75*
G02*
X28425000Y-96774997I0J-249997D01*
G01*
X28425000Y-98025003D01*
G75*
G02*
X28175003Y-98275000I-249997J0D01*
G01*
X27549997Y-98275000D01*
G75*
G02*
X27300000Y-98025003I0J249997D01*
G01*
G37*
%TD.AperFunction*%
%TO.P,R29,1*%
%TO.N,Net-(C38-Pad2)*%
%TA.AperFunction,SMDPad,CuDef*%
G36*
G01*
X24375000Y-98025003D02*
X24375000Y-96774997D01*
G75*
G02*
X24624997Y-96525000I249997J0D01*
G01*
X25250003Y-96525000D01*
G75*
G02*
X25500000Y-96774997I0J-249997D01*
G01*
X25500000Y-98025003D01*
G75*
G02*
X25250003Y-98275000I-249997J0D01*
G01*
X24624997Y-98275000D01*
G75*
G02*
X24375000Y-98025003I0J249997D01*
G01*
G37*
%TD.AperFunction*%
%TD*%
%TO.P,R56,1*%
%TO.N,Net-(C21-Pad2)*%
%TA.AperFunction,SMDPad,CuDef*%
G36*
G01*
X12690003Y-69335000D02*
X11439997Y-69335000D01*
G75*
G02*
X11190000Y-69085003I0J249997D01*
G01*
X11190000Y-68459997D01*
G75*
G02*
X11439997Y-68210000I249997J0D01*
G01*
X12690003Y-68210000D01*
G75*
G02*
X12940000Y-68459997I0J-249997D01*
G01*
X12940000Y-69085003D01*
G75*
G02*
X12690003Y-69335000I-249997J0D01*
G01*
G37*
%TD.AperFunction*%
%TO.P,R56,2*%
%TO.N,Net-(C21-Pad1)*%
%TA.AperFunction,SMDPad,CuDef*%
G36*
G01*
X12690003Y-66410000D02*
X11439997Y-66410000D01*
G75*
G02*
X11190000Y-66160003I0J249997D01*
G01*
X11190000Y-65534997D01*
G75*
G02*
X11439997Y-65285000I249997J0D01*
G01*
X12690003Y-65285000D01*
G75*
G02*
X12940000Y-65534997I0J-249997D01*
G01*
X12940000Y-66160003D01*
G75*
G02*
X12690003Y-66410000I-249997J0D01*
G01*
G37*
%TD.AperFunction*%
%TD*%
%TO.P,R57,2*%
%TO.N,Net-(C21-Pad1)*%
%TA.AperFunction,SMDPad,CuDef*%
G36*
G01*
X7400000Y-67555003D02*
X7400000Y-66304997D01*
G75*
G02*
X7649997Y-66055000I249997J0D01*
G01*
X8275003Y-66055000D01*
G75*
G02*
X8525000Y-66304997I0J-249997D01*
G01*
X8525000Y-67555003D01*
G75*
G02*
X8275003Y-67805000I-249997J0D01*
G01*
X7649997Y-67805000D01*
G75*
G02*
X7400000Y-67555003I0J249997D01*
G01*
G37*
%TD.AperFunction*%
%TO.P,R57,1*%
%TO.N,Net-(J3-PadT)*%
%TA.AperFunction,SMDPad,CuDef*%
G36*
G01*
X4475000Y-67555003D02*
X4475000Y-66304997D01*
G75*
G02*
X4724997Y-66055000I249997J0D01*
G01*
X5350003Y-66055000D01*
G75*
G02*
X5600000Y-66304997I0J-249997D01*
G01*
X5600000Y-67555003D01*
G75*
G02*
X5350003Y-67805000I-249997J0D01*
G01*
X4724997Y-67805000D01*
G75*
G02*
X4475000Y-67555003I0J249997D01*
G01*
G37*
%TD.AperFunction*%
%TD*%
%TO.P,R59,1*%
%TO.N,Net-(R59-Pad1)*%
%TA.AperFunction,SMDPad,CuDef*%
G36*
G01*
X24375000Y-3165003D02*
X24375000Y-1914997D01*
G75*
G02*
X24624997Y-1665000I249997J0D01*
G01*
X25250003Y-1665000D01*
G75*
G02*
X25500000Y-1914997I0J-249997D01*
G01*
X25500000Y-3165003D01*
G75*
G02*
X25250003Y-3415000I-249997J0D01*
G01*
X24624997Y-3415000D01*
G75*
G02*
X24375000Y-3165003I0J249997D01*
G01*
G37*
%TD.AperFunction*%
%TO.P,R59,2*%
%TO.N,HH_DECAY_FRONT*%
%TA.AperFunction,SMDPad,CuDef*%
G36*
G01*
X27300000Y-3165003D02*
X27300000Y-1914997D01*
G75*
G02*
X27549997Y-1665000I249997J0D01*
G01*
X28175003Y-1665000D01*
G75*
G02*
X28425000Y-1914997I0J-249997D01*
G01*
X28425000Y-3165003D01*
G75*
G02*
X28175003Y-3415000I-249997J0D01*
G01*
X27549997Y-3415000D01*
G75*
G02*
X27300000Y-3165003I0J249997D01*
G01*
G37*
%TD.AperFunction*%
%TD*%
%TO.P,R60,2*%
%TO.N,HH_DECAY_FRONT*%
%TA.AperFunction,SMDPad,CuDef*%
G36*
G01*
X28825003Y-23600000D02*
X27574997Y-23600000D01*
G75*
G02*
X27325000Y-23350003I0J249997D01*
G01*
X27325000Y-22724997D01*
G75*
G02*
X27574997Y-22475000I249997J0D01*
G01*
X28825003Y-22475000D01*
G75*
G02*
X29075000Y-22724997I0J-249997D01*
G01*
X29075000Y-23350003D01*
G75*
G02*
X28825003Y-23600000I-249997J0D01*
G01*
G37*
%TD.AperFunction*%
%TO.P,R60,1*%
%TO.N,Net-(R60-Pad1)*%
%TA.AperFunction,SMDPad,CuDef*%
G36*
G01*
X28825003Y-26525000D02*
X27574997Y-26525000D01*
G75*
G02*
X27325000Y-26275003I0J249997D01*
G01*
X27325000Y-25649997D01*
G75*
G02*
X27574997Y-25400000I249997J0D01*
G01*
X28825003Y-25400000D01*
G75*
G02*
X29075000Y-25649997I0J-249997D01*
G01*
X29075000Y-26275003D01*
G75*
G02*
X28825003Y-26525000I-249997J0D01*
G01*
G37*
%TD.AperFunction*%
%TD*%
%TO.P,R61,2*%
%TO.N,Net-(R61-Pad2)*%
%TA.AperFunction,SMDPad,CuDef*%
G36*
G01*
X28205000Y-17770003D02*
X28205000Y-16519997D01*
G75*
G02*
X28454997Y-16270000I249997J0D01*
G01*
X29080003Y-16270000D01*
G75*
G02*
X29330000Y-16519997I0J-249997D01*
G01*
X29330000Y-17770003D01*
G75*
G02*
X29080003Y-18020000I-249997J0D01*
G01*
X28454997Y-18020000D01*
G75*
G02*
X28205000Y-17770003I0J249997D01*
G01*
G37*
%TD.AperFunction*%
%TO.P,R61,1*%
%TO.N,Net-(C39-Pad2)*%
%TA.AperFunction,SMDPad,CuDef*%
G36*
G01*
X25280000Y-17770003D02*
X25280000Y-16519997D01*
G75*
G02*
X25529997Y-16270000I249997J0D01*
G01*
X26155003Y-16270000D01*
G75*
G02*
X26405000Y-16519997I0J-249997D01*
G01*
X26405000Y-17770003D01*
G75*
G02*
X26155003Y-18020000I-249997J0D01*
G01*
X25529997Y-18020000D01*
G75*
G02*
X25280000Y-17770003I0J249997D01*
G01*
G37*
%TD.AperFunction*%
%TD*%
%TO.P,R62,1*%
%TO.N,Net-(R62-Pad1)*%
%TA.AperFunction,SMDPad,CuDef*%
G36*
G01*
X17265000Y-26044997D02*
X17265000Y-27295003D01*
G75*
G02*
X17015003Y-27545000I-249997J0D01*
G01*
X16389997Y-27545000D01*
G75*
G02*
X16140000Y-27295003I0J249997D01*
G01*
X16140000Y-26044997D01*
G75*
G02*
X16389997Y-25795000I249997J0D01*
G01*
X17015003Y-25795000D01*
G75*
G02*
X17265000Y-26044997I0J-249997D01*
G01*
G37*
%TD.AperFunction*%
%TO.P,R62,2*%
%TO.N,SNARE_DECAY_FRONT*%
%TA.AperFunction,SMDPad,CuDef*%
G36*
G01*
X14340000Y-26044997D02*
X14340000Y-27295003D01*
G75*
G02*
X14090003Y-27545000I-249997J0D01*
G01*
X13464997Y-27545000D01*
G75*
G02*
X13215000Y-27295003I0J249997D01*
G01*
X13215000Y-26044997D01*
G75*
G02*
X13464997Y-25795000I249997J0D01*
G01*
X14090003Y-25795000D01*
G75*
G02*
X14340000Y-26044997I0J-249997D01*
G01*
G37*
%TD.AperFunction*%
%TD*%
%TO.P,R63,1*%
%TO.N,Net-(C40-Pad2)*%
%TA.AperFunction,SMDPad,CuDef*%
G36*
G01*
X24375000Y-66025003D02*
X24375000Y-64774997D01*
G75*
G02*
X24624997Y-64525000I249997J0D01*
G01*
X25250003Y-64525000D01*
G75*
G02*
X25500000Y-64774997I0J-249997D01*
G01*
X25500000Y-66025003D01*
G75*
G02*
X25250003Y-66275000I-249997J0D01*
G01*
X24624997Y-66275000D01*
G75*
G02*
X24375000Y-66025003I0J249997D01*
G01*
G37*
%TD.AperFunction*%
%TO.P,R63,2*%
%TO.N,Net-(R63-Pad2)*%
%TA.AperFunction,SMDPad,CuDef*%
G36*
G01*
X27300000Y-66025003D02*
X27300000Y-64774997D01*
G75*
G02*
X27549997Y-64525000I249997J0D01*
G01*
X28175003Y-64525000D01*
G75*
G02*
X28425000Y-64774997I0J-249997D01*
G01*
X28425000Y-66025003D01*
G75*
G02*
X28175003Y-66275000I-249997J0D01*
G01*
X27549997Y-66275000D01*
G75*
G02*
X27300000Y-66025003I0J249997D01*
G01*
G37*
%TD.AperFunction*%
%TD*%
%TO.P,R64,1*%
%TO.N,Net-(J8-PadT)*%
%TA.AperFunction,SMDPad,CuDef*%
G36*
G01*
X7674997Y-73905000D02*
X8925003Y-73905000D01*
G75*
G02*
X9175000Y-74154997I0J-249997D01*
G01*
X9175000Y-74780003D01*
G75*
G02*
X8925003Y-75030000I-249997J0D01*
G01*
X7674997Y-75030000D01*
G75*
G02*
X7425000Y-74780003I0J249997D01*
G01*
X7425000Y-74154997D01*
G75*
G02*
X7674997Y-73905000I249997J0D01*
G01*
G37*
%TD.AperFunction*%
%TO.P,R64,2*%
%TO.N,BASS_TRIG_FRONT*%
%TA.AperFunction,SMDPad,CuDef*%
G36*
G01*
X7674997Y-76830000D02*
X8925003Y-76830000D01*
G75*
G02*
X9175000Y-77079997I0J-249997D01*
G01*
X9175000Y-77705003D01*
G75*
G02*
X8925003Y-77955000I-249997J0D01*
G01*
X7674997Y-77955000D01*
G75*
G02*
X7425000Y-77705003I0J249997D01*
G01*
X7425000Y-77079997D01*
G75*
G02*
X7674997Y-76830000I249997J0D01*
G01*
G37*
%TD.AperFunction*%
%TD*%
%TO.P,R65,2*%
%TO.N,GND*%
%TA.AperFunction,SMDPad,CuDef*%
G36*
G01*
X27314997Y-79640000D02*
X28565003Y-79640000D01*
G75*
G02*
X28815000Y-79889997I0J-249997D01*
G01*
X28815000Y-80515003D01*
G75*
G02*
X28565003Y-80765000I-249997J0D01*
G01*
X27314997Y-80765000D01*
G75*
G02*
X27065000Y-80515003I0J249997D01*
G01*
X27065000Y-79889997D01*
G75*
G02*
X27314997Y-79640000I249997J0D01*
G01*
G37*
%TD.AperFunction*%
%TO.P,R65,1*%
%TO.N,BASS_TRIG_FRONT*%
%TA.AperFunction,SMDPad,CuDef*%
G36*
G01*
X27314997Y-76715000D02*
X28565003Y-76715000D01*
G75*
G02*
X28815000Y-76964997I0J-249997D01*
G01*
X28815000Y-77590003D01*
G75*
G02*
X28565003Y-77840000I-249997J0D01*
G01*
X27314997Y-77840000D01*
G75*
G02*
X27065000Y-77590003I0J249997D01*
G01*
X27065000Y-76964997D01*
G75*
G02*
X27314997Y-76715000I249997J0D01*
G01*
G37*
%TD.AperFunction*%
%TD*%
%TO.P,R66,1*%
%TO.N,Net-(J10-PadT)*%
%TA.AperFunction,SMDPad,CuDef*%
G36*
G01*
X7475000Y-43325003D02*
X7475000Y-42074997D01*
G75*
G02*
X7724997Y-41825000I249997J0D01*
G01*
X8350003Y-41825000D01*
G75*
G02*
X8600000Y-42074997I0J-249997D01*
G01*
X8600000Y-43325003D01*
G75*
G02*
X8350003Y-43575000I-249997J0D01*
G01*
X7724997Y-43575000D01*
G75*
G02*
X7475000Y-43325003I0J249997D01*
G01*
G37*
%TD.AperFunction*%
%TO.P,R66,2*%
%TO.N,SNARE_TRIGGER_FRONT*%
%TA.AperFunction,SMDPad,CuDef*%
G36*
G01*
X10400000Y-43325003D02*
X10400000Y-42074997D01*
G75*
G02*
X10649997Y-41825000I249997J0D01*
G01*
X11275003Y-41825000D01*
G75*
G02*
X11525000Y-42074997I0J-249997D01*
G01*
X11525000Y-43325003D01*
G75*
G02*
X11275003Y-43575000I-249997J0D01*
G01*
X10649997Y-43575000D01*
G75*
G02*
X10400000Y-43325003I0J249997D01*
G01*
G37*
%TD.AperFunction*%
%TD*%
%TO.P,R67,1*%
%TO.N,GND*%
%TA.AperFunction,SMDPad,CuDef*%
G36*
G01*
X18295000Y-41265003D02*
X18295000Y-40014997D01*
G75*
G02*
X18544997Y-39765000I249997J0D01*
G01*
X19170003Y-39765000D01*
G75*
G02*
X19420000Y-40014997I0J-249997D01*
G01*
X19420000Y-41265003D01*
G75*
G02*
X19170003Y-41515000I-249997J0D01*
G01*
X18544997Y-41515000D01*
G75*
G02*
X18295000Y-41265003I0J249997D01*
G01*
G37*
%TD.AperFunction*%
%TO.P,R67,2*%
%TO.N,Net-(R67-Pad2)*%
%TA.AperFunction,SMDPad,CuDef*%
G36*
G01*
X21220000Y-41265003D02*
X21220000Y-40014997D01*
G75*
G02*
X21469997Y-39765000I249997J0D01*
G01*
X22095003Y-39765000D01*
G75*
G02*
X22345000Y-40014997I0J-249997D01*
G01*
X22345000Y-41265003D01*
G75*
G02*
X22095003Y-41515000I-249997J0D01*
G01*
X21469997Y-41515000D01*
G75*
G02*
X21220000Y-41265003I0J249997D01*
G01*
G37*
%TD.AperFunction*%
%TD*%
%TO.P,R68,2*%
%TO.N,GND*%
%TA.AperFunction,SMDPad,CuDef*%
G36*
G01*
X8520000Y-34915003D02*
X8520000Y-33664997D01*
G75*
G02*
X8769997Y-33415000I249997J0D01*
G01*
X9395003Y-33415000D01*
G75*
G02*
X9645000Y-33664997I0J-249997D01*
G01*
X9645000Y-34915003D01*
G75*
G02*
X9395003Y-35165000I-249997J0D01*
G01*
X8769997Y-35165000D01*
G75*
G02*
X8520000Y-34915003I0J249997D01*
G01*
G37*
%TD.AperFunction*%
%TO.P,R68,1*%
%TO.N,SNARE_TRIGGER_FRONT*%
%TA.AperFunction,SMDPad,CuDef*%
G36*
G01*
X5595000Y-34915003D02*
X5595000Y-33664997D01*
G75*
G02*
X5844997Y-33415000I249997J0D01*
G01*
X6470003Y-33415000D01*
G75*
G02*
X6720000Y-33664997I0J-249997D01*
G01*
X6720000Y-34915003D01*
G75*
G02*
X6470003Y-35165000I-249997J0D01*
G01*
X5844997Y-35165000D01*
G75*
G02*
X5595000Y-34915003I0J249997D01*
G01*
G37*
%TD.AperFunction*%
%TD*%
%TO.P,R69,2*%
%TO.N,Net-(R67-Pad2)*%
%TA.AperFunction,SMDPad,CuDef*%
G36*
G01*
X20964997Y-36730000D02*
X22215003Y-36730000D01*
G75*
G02*
X22465000Y-36979997I0J-249997D01*
G01*
X22465000Y-37605003D01*
G75*
G02*
X22215003Y-37855000I-249997J0D01*
G01*
X20964997Y-37855000D01*
G75*
G02*
X20715000Y-37605003I0J249997D01*
G01*
X20715000Y-36979997D01*
G75*
G02*
X20964997Y-36730000I249997J0D01*
G01*
G37*
%TD.AperFunction*%
%TO.P,R69,1*%
%TO.N,NOISE_CUTOFF_FRONT*%
%TA.AperFunction,SMDPad,CuDef*%
G36*
G01*
X20964997Y-33805000D02*
X22215003Y-33805000D01*
G75*
G02*
X22465000Y-34054997I0J-249997D01*
G01*
X22465000Y-34680003D01*
G75*
G02*
X22215003Y-34930000I-249997J0D01*
G01*
X20964997Y-34930000D01*
G75*
G02*
X20715000Y-34680003I0J249997D01*
G01*
X20715000Y-34054997D01*
G75*
G02*
X20964997Y-33805000I249997J0D01*
G01*
G37*
%TD.AperFunction*%
%TD*%
D20*
%TO.N,HH_DECAY_FRONT*%
X27406800Y-21748900D03*
%TO.N,-12V*%
X19029300Y-4308600D03*
%TO.N,Net-(R29-Pad2)*%
X26500300Y-14949900D03*
X27471300Y-87713500D03*
%TD*%
D21*
%TO.N,Net-(C21-Pad2)*%
X15875000Y-2605000D02*
X15875000Y-2162700D01*
X15875000Y-2162700D02*
X15005900Y-1293600D01*
X15005900Y-1293600D02*
X14216600Y-1293600D01*
X14216600Y-1293600D02*
X13857900Y-1652300D01*
X13857900Y-1652300D02*
X13857900Y-3024600D01*
X13857900Y-3024600D02*
X10931500Y-5951000D01*
X10931500Y-5951000D02*
X10533400Y-5951000D01*
X10533400Y-5951000D02*
X10012800Y-6471600D01*
X10012800Y-6471600D02*
X10012800Y-17297500D01*
X10012800Y-17297500D02*
X10971100Y-18255800D01*
X10971100Y-18255800D02*
X11850000Y-18255800D01*
X11850000Y-18255800D02*
X13953900Y-20359700D01*
X13953900Y-20359700D02*
X13953900Y-22608600D01*
X13953900Y-22608600D02*
X12700000Y-23862500D01*
X7427500Y-71755000D02*
X10237500Y-74565000D01*
X10237500Y-74565000D02*
X10237500Y-81280000D01*
X27537500Y-8800000D02*
X26423400Y-7685900D01*
X26423400Y-7685900D02*
X26423400Y-4852500D01*
X26423400Y-4852500D02*
X25784700Y-4213800D01*
X25784700Y-4213800D02*
X20149900Y-4213800D01*
X20149900Y-4213800D02*
X19329800Y-5033900D01*
X19329800Y-5033900D02*
X17896500Y-5033900D01*
X17896500Y-5033900D02*
X15875000Y-3012400D01*
X15875000Y-3012400D02*
X15875000Y-2605000D01*
X7427500Y-70927500D02*
X7427500Y-71755000D01*
X12065000Y-68772500D02*
X9582500Y-68772500D01*
X9582500Y-68772500D02*
X7427500Y-70927500D01*
X7427500Y-70927500D02*
X3810000Y-70927500D01*
X12700000Y-23862500D02*
X11180200Y-23862500D01*
X11180200Y-23862500D02*
X3021800Y-32020900D01*
X3021800Y-32020900D02*
X3021800Y-70139300D01*
X3021800Y-70139300D02*
X3810000Y-70927500D01*
%TO.N,Net-(C21-Pad1)*%
X14605000Y-3049200D02*
X11179500Y-6474700D01*
X11179500Y-6474700D02*
X10665200Y-6474700D01*
X10665200Y-6474700D02*
X10463200Y-6676700D01*
X10463200Y-6676700D02*
X10463200Y-17111000D01*
X10463200Y-17111000D02*
X11063600Y-17711400D01*
X11063600Y-17711400D02*
X11942500Y-17711400D01*
X11942500Y-17711400D02*
X14404200Y-20173100D01*
X14404200Y-20173100D02*
X14404200Y-23932000D01*
X14404200Y-23932000D02*
X9610700Y-28725500D01*
X9610700Y-28725500D02*
X6954100Y-28725500D01*
X6954100Y-28725500D02*
X3472200Y-32207400D01*
X3472200Y-32207400D02*
X3472200Y-59911200D01*
X3472200Y-59911200D02*
X9045000Y-65484000D01*
X9045000Y-65484000D02*
X9045000Y-65847500D01*
X25462500Y-8800000D02*
X25962500Y-8300000D01*
X25962500Y-8300000D02*
X25962500Y-5028500D01*
X25962500Y-5028500D02*
X25598100Y-4664100D01*
X25598100Y-4664100D02*
X20336500Y-4664100D01*
X20336500Y-4664100D02*
X19516400Y-5484200D01*
X19516400Y-5484200D02*
X17676900Y-5484200D01*
X17676900Y-5484200D02*
X16586900Y-4394200D01*
X16586900Y-4394200D02*
X15950000Y-4394200D01*
X15950000Y-4394200D02*
X14605000Y-3049200D01*
X14605000Y-2605000D02*
X14605000Y-3049200D01*
X9045000Y-65847500D02*
X7962500Y-66930000D01*
X12065000Y-65847500D02*
X9045000Y-65847500D01*
%TO.N,GND*%
X15850000Y-104300000D02*
X15074700Y-104300000D01*
X4900000Y-93900000D02*
X11774600Y-100774600D01*
X11774600Y-100774600D02*
X11774600Y-105059700D01*
X11774600Y-105059700D02*
X11940300Y-105225400D01*
X11940300Y-105225400D02*
X14149300Y-105225400D01*
X14149300Y-105225400D02*
X15074700Y-104300000D01*
X25632500Y-102870000D02*
X25570000Y-102870000D01*
X25570000Y-102870000D02*
X23400000Y-100700000D01*
X19600000Y-104730000D02*
X18374700Y-104730000D01*
X15850000Y-104300000D02*
X17944700Y-104300000D01*
X17944700Y-104300000D02*
X18374700Y-104730000D01*
X20900000Y-78673000D02*
X20900000Y-79900000D01*
X18500000Y-48300000D02*
X18500000Y-47374700D01*
X18400000Y-45100000D02*
X18400000Y-47274700D01*
X18400000Y-47274700D02*
X18500000Y-47374700D01*
X18857500Y-40640000D02*
X18400000Y-41097500D01*
X18400000Y-41097500D02*
X18400000Y-45100000D01*
X18500000Y-48300000D02*
X18500000Y-55500000D01*
X18500000Y-55500000D02*
X23400000Y-60400000D01*
X20900000Y-78673000D02*
X20900000Y-71467500D01*
X20900000Y-71467500D02*
X19282500Y-69850000D01*
X20900000Y-78673000D02*
X26410500Y-78673000D01*
X26410500Y-78673000D02*
X27940000Y-80202500D01*
X7816600Y-13396700D02*
X9393700Y-11819600D01*
X9393700Y-11819600D02*
X9393700Y-6440900D01*
X9393700Y-6440900D02*
X11109300Y-4725300D01*
X11109300Y-4725300D02*
X11400000Y-4725300D01*
X5545200Y-13200000D02*
X5741900Y-13396700D01*
X5741900Y-13396700D02*
X7816600Y-13396700D01*
X7816600Y-13396700D02*
X7816600Y-15629100D01*
X7816600Y-15629100D02*
X8697500Y-16510000D01*
X11400000Y-3950000D02*
X11400000Y-4725300D01*
X4900000Y-13200000D02*
X5545200Y-13200000D01*
X11430000Y-34290000D02*
X9082500Y-34290000D01*
X19600000Y-66525300D02*
X19282500Y-66842800D01*
X19282500Y-66842800D02*
X19282500Y-69850000D01*
X11400000Y-3950000D02*
X11400000Y-3174700D01*
X11400000Y-3174700D02*
X13753300Y-821400D01*
X13753300Y-821400D02*
X15767800Y-821400D01*
X15767800Y-821400D02*
X17145000Y-2198600D01*
X17145000Y-2198600D02*
X17145000Y-2605000D01*
X9082500Y-34290000D02*
X9082500Y-32347800D01*
X9082500Y-32347800D02*
X7910000Y-31175300D01*
X7910000Y-30000000D02*
X7910000Y-31175300D01*
X19600000Y-25000000D02*
X19600000Y-23774700D01*
X18400000Y-20100000D02*
X18400000Y-22574700D01*
X18400000Y-22574700D02*
X19600000Y-23774700D01*
X19600000Y-65300000D02*
X19600000Y-66525300D01*
%TO.N,Net-(C38-Pad2)*%
X27707500Y-102870000D02*
X25847500Y-104730000D01*
X25847500Y-104730000D02*
X22140000Y-104730000D01*
X24937500Y-97400000D02*
X27707500Y-100170000D01*
X27707500Y-100170000D02*
X27707500Y-102870000D01*
%TO.N,Net-(C39-Pad2)*%
X17330000Y-29049900D02*
X16800000Y-29579900D01*
X16800000Y-29579900D02*
X16800000Y-30995000D01*
X16800000Y-30995000D02*
X13505000Y-34290000D01*
X22140000Y-25000000D02*
X18855700Y-28284300D01*
X18855700Y-28284300D02*
X18095600Y-28284300D01*
X18095600Y-28284300D02*
X17330000Y-29049900D01*
X25842500Y-17145000D02*
X19050000Y-10352500D01*
X19050000Y-10352500D02*
X19050000Y-6512900D01*
X19050000Y-6512900D02*
X18770000Y-6232900D01*
X18770000Y-6232900D02*
X17788700Y-6232900D01*
X17788700Y-6232900D02*
X17312400Y-5756600D01*
X17312400Y-5756600D02*
X14072600Y-5756600D01*
X14072600Y-5756600D02*
X13506100Y-6323100D01*
X13506100Y-6323100D02*
X13506100Y-14195900D01*
X13506100Y-14195900D02*
X15568500Y-16258300D01*
X15568500Y-16258300D02*
X15568500Y-27288500D01*
X15568500Y-27288500D02*
X17330000Y-29049900D01*
%TO.N,Net-(C40-Pad2)*%
X22240000Y-65400000D02*
X22140000Y-65300000D01*
X24937500Y-65400000D02*
X22240000Y-65400000D01*
X21357500Y-69850000D02*
X22240000Y-68967500D01*
X22240000Y-68967500D02*
X22240000Y-65400000D01*
%TO.N,HH_TRIG_FRONT*%
X11362500Y-11000000D02*
X11622500Y-11260000D01*
X11622500Y-11260000D02*
X11622500Y-16510000D01*
X11362500Y-11000000D02*
X11362500Y-8062800D01*
X11362500Y-8062800D02*
X11400000Y-8025300D01*
X11622500Y-16510000D02*
X15079600Y-19967100D01*
X15079600Y-19967100D02*
X15079600Y-28374300D01*
X15079600Y-28374300D02*
X15530000Y-28824700D01*
X15530000Y-30000000D02*
X15530000Y-28824700D01*
X11400000Y-7250000D02*
X11400000Y-8025300D01*
%TO.N,BASS_TRIG_FRONT*%
X12550000Y-85653500D02*
X26228500Y-85653500D01*
X26228500Y-85653500D02*
X27514700Y-84367300D01*
X27514700Y-84367300D02*
X27514700Y-84000000D01*
X8300000Y-77392500D02*
X8300000Y-83573800D01*
X8300000Y-83573800D02*
X10379700Y-85653500D01*
X10379700Y-85653500D02*
X12550000Y-85653500D01*
X12550000Y-85653500D02*
X12550000Y-103374700D01*
X12550000Y-104300000D02*
X12550000Y-103374700D01*
X28690000Y-84000000D02*
X27514700Y-84000000D01*
X28690000Y-84000000D02*
X28690000Y-82824700D01*
X27940000Y-77277500D02*
X29614300Y-78951800D01*
X29614300Y-78951800D02*
X29614300Y-81900400D01*
X29614300Y-81900400D02*
X28690000Y-82824700D01*
%TO.N,SNARE_TRIGGER_FRONT*%
X14424700Y-48300000D02*
X11321000Y-51403700D01*
X11321000Y-51403700D02*
X11321000Y-62731100D01*
X11321000Y-62731100D02*
X13273100Y-64683200D01*
X13273100Y-64683200D02*
X13273100Y-77371800D01*
X13273100Y-77371800D02*
X12248100Y-78396800D01*
X12248100Y-78396800D02*
X12248100Y-84470100D01*
X12248100Y-84470100D02*
X12953300Y-85175300D01*
X12953300Y-85175300D02*
X16546800Y-85175300D01*
X16546800Y-85175300D02*
X17354700Y-84367400D01*
X17354700Y-84367400D02*
X17354700Y-84000000D01*
X10962500Y-42700000D02*
X14424700Y-46162200D01*
X14424700Y-46162200D02*
X14424700Y-48300000D01*
X6157500Y-34290000D02*
X10962500Y-39095000D01*
X10962500Y-39095000D02*
X10962500Y-42700000D01*
X15200000Y-48300000D02*
X14424700Y-48300000D01*
X18530000Y-84000000D02*
X17354700Y-84000000D01*
%TO.N,INPUT_NORM*%
X8437500Y-11000000D02*
X8437500Y-5337500D01*
X8437500Y-5337500D02*
X4900000Y-1800000D01*
%TO.N,Net-(J3-PadT)*%
X5037500Y-66930000D02*
X4900000Y-66792500D01*
X4900000Y-66792500D02*
X4900000Y-63600000D01*
%TO.N,BASS_OUT_MIX*%
X3810000Y-73852500D02*
X3505800Y-74156700D01*
X3505800Y-74156700D02*
X3505800Y-94865400D01*
X3505800Y-94865400D02*
X4690400Y-96050000D01*
X4690400Y-96050000D02*
X4900000Y-96050000D01*
%TO.N,HH_OUT_MIX*%
X12700000Y-20937500D02*
X10537500Y-20937500D01*
X10537500Y-20937500D02*
X4900000Y-15300000D01*
%TO.N,Net-(J8-PadT)*%
X8300000Y-74467500D02*
X4900000Y-77867500D01*
X4900000Y-77867500D02*
X4900000Y-82500000D01*
%TO.N,BASS_DECAY_FRONT*%
X20900000Y-100700000D02*
X18400000Y-100700000D01*
%TO.N,BASS_LED_FRONT*%
X24785300Y-84000000D02*
X24785300Y-83632600D01*
X24785300Y-83632600D02*
X25593200Y-82824700D01*
X25593200Y-82824700D02*
X27128900Y-82824700D01*
X27128900Y-82824700D02*
X29159100Y-80794500D01*
X29159100Y-80794500D02*
X29159100Y-79652300D01*
X29159100Y-79652300D02*
X28665700Y-79158900D01*
X28665700Y-79158900D02*
X28070200Y-79158900D01*
X28070200Y-79158900D02*
X26722800Y-77811500D01*
X26722800Y-77811500D02*
X26722800Y-76202500D01*
X26722800Y-76202500D02*
X29401300Y-73524000D01*
X29401300Y-73524000D02*
X29401300Y-25350300D01*
X29401300Y-25350300D02*
X28551000Y-24500000D01*
X28551000Y-24500000D02*
X27903000Y-24500000D01*
X27903000Y-24500000D02*
X26652500Y-23249500D01*
X26652500Y-23249500D02*
X26652500Y-18580500D01*
X26652500Y-18580500D02*
X27225600Y-18007400D01*
X27225600Y-18007400D02*
X27225600Y-13799700D01*
X27225600Y-13799700D02*
X28494900Y-12530400D01*
X28494900Y-12530400D02*
X28494900Y-6432400D01*
X28494900Y-6432400D02*
X27962500Y-5900000D01*
X23610000Y-84000000D02*
X24785300Y-84000000D01*
%TO.N,SNARE_DECAY_FRONT*%
X15990000Y-84000000D02*
X15990000Y-82824700D01*
X12237500Y-60500000D02*
X14051400Y-62313900D01*
X14051400Y-62313900D02*
X14051400Y-80886100D01*
X14051400Y-80886100D02*
X15990000Y-82824700D01*
X13777500Y-26670000D02*
X14199700Y-27092200D01*
X14199700Y-27092200D02*
X14199700Y-30701900D01*
X14199700Y-30701900D02*
X12575800Y-32325800D01*
X12575800Y-32325800D02*
X12575800Y-41008700D01*
X12575800Y-41008700D02*
X15975400Y-44408300D01*
X15975400Y-44408300D02*
X15975400Y-49343200D01*
X15975400Y-49343200D02*
X12237500Y-53081100D01*
X12237500Y-53081100D02*
X12237500Y-60500000D01*
%TO.N,SNARE_NOISE_FRONT*%
X13162500Y-81280000D02*
X13450000Y-81567500D01*
X13450000Y-81567500D02*
X13450000Y-84000000D01*
%TO.N,SNARE_BODY_FRONT*%
X10910000Y-84000000D02*
X10910000Y-82824700D01*
X10352500Y-71755000D02*
X11176800Y-72579300D01*
X11176800Y-72579300D02*
X11176800Y-82557900D01*
X11176800Y-82557900D02*
X10910000Y-82824700D01*
%TO.N,Net-(J10-PadT)*%
X8037500Y-42700000D02*
X5800000Y-42700000D01*
X5800000Y-42700000D02*
X4900000Y-41800000D01*
%TO.N,HH_DECAY_FRONT*%
X28200000Y-21748900D02*
X28200000Y-23037500D01*
X27862500Y-2540000D02*
X29660500Y-4338000D01*
X29660500Y-4338000D02*
X29660500Y-20288400D01*
X29660500Y-20288400D02*
X28200000Y-21748900D01*
X28200000Y-21748900D02*
X27406800Y-21748900D01*
%TO.N,NOISE_CUTOFF_FRONT*%
X18070000Y-30000000D02*
X18070000Y-31175300D01*
X21590000Y-34367500D02*
X18397800Y-31175300D01*
X18397800Y-31175300D02*
X18070000Y-31175300D01*
%TO.N,-12V*%
X18415000Y-2605000D02*
X18415000Y-3694300D01*
X18415000Y-3694300D02*
X19029300Y-4308600D01*
%TO.N,+12V*%
X25690000Y-30000000D02*
X25690000Y-24865300D01*
X25690000Y-24865300D02*
X22150100Y-21325400D01*
X22150100Y-21325400D02*
X22150100Y-17083300D01*
X22150100Y-17083300D02*
X18415000Y-13348200D01*
X18415000Y-13348200D02*
X18415000Y-7555000D01*
%TO.N,Net-(R7-Pad1)*%
X20900000Y-60400000D02*
X18400000Y-60400000D01*
X18400000Y-60400000D02*
X17174700Y-60400000D01*
X15162500Y-60500000D02*
X17074700Y-60500000D01*
X17074700Y-60500000D02*
X17174700Y-60400000D01*
%TO.N,Net-(R8-Pad1)*%
X25037500Y-5900000D02*
X20882100Y-5900000D01*
X20882100Y-5900000D02*
X19685000Y-7097100D01*
X19685000Y-7097100D02*
X19685000Y-7555000D01*
%TO.N,Net-(R29-Pad2)*%
X27862500Y-97400000D02*
X27862500Y-88104700D01*
X27862500Y-88104700D02*
X27471300Y-87713500D01*
X26500300Y-14949900D02*
X25403600Y-14949900D01*
X25403600Y-14949900D02*
X22225000Y-11771300D01*
X22225000Y-11771300D02*
X22225000Y-7555000D01*
X22225000Y-7555000D02*
X20955000Y-7555000D01*
%TO.N,Net-(R59-Pad1)*%
X24937500Y-2540000D02*
X23693800Y-1296300D01*
X23693800Y-1296300D02*
X20600800Y-1296300D01*
X20600800Y-1296300D02*
X19685000Y-2212100D01*
X19685000Y-2212100D02*
X19685000Y-2605000D01*
%TO.N,Net-(R60-Pad1)*%
X28200000Y-25962500D02*
X23400000Y-21162500D01*
X23400000Y-21162500D02*
X23400000Y-20100000D01*
%TO.N,Net-(R61-Pad2)*%
X22225000Y-2605000D02*
X20955000Y-2605000D01*
X28767500Y-17145000D02*
X28988800Y-16923700D01*
X28988800Y-16923700D02*
X28988800Y-5156600D01*
X28988800Y-5156600D02*
X27595700Y-3763500D01*
X27595700Y-3763500D02*
X23383500Y-3763500D01*
X23383500Y-3763500D02*
X22225000Y-2605000D01*
%TO.N,Net-(R62-Pad1)*%
X16702500Y-26670000D02*
X16702500Y-16526000D01*
X16702500Y-16526000D02*
X13967800Y-13791300D01*
X13967800Y-13791300D02*
X13967800Y-6498300D01*
X13967800Y-6498300D02*
X14259100Y-6207000D01*
X14259100Y-6207000D02*
X16228900Y-6207000D01*
X16228900Y-6207000D02*
X17145000Y-7123100D01*
X17145000Y-7123100D02*
X17145000Y-7555000D01*
%TO.N,Net-(R63-Pad2)*%
X27862500Y-65400000D02*
X27862500Y-35685400D01*
X27862500Y-35685400D02*
X24461800Y-32284700D01*
X24461800Y-32284700D02*
X24461800Y-25560000D01*
X24461800Y-25560000D02*
X19625400Y-20723600D01*
X19625400Y-20723600D02*
X19625400Y-17063500D01*
X19625400Y-17063500D02*
X17964600Y-15402700D01*
X17964600Y-15402700D02*
X17964600Y-11132000D01*
X17964600Y-11132000D02*
X15875000Y-9042400D01*
X15875000Y-9042400D02*
X15875000Y-7555000D01*
X15875000Y-7555000D02*
X14605000Y-7555000D01*
%TO.N,Net-(R67-Pad2)*%
X21782500Y-45100000D02*
X20900000Y-45100000D01*
X23400000Y-45100000D02*
X21782500Y-45100000D01*
X21782500Y-40640000D02*
X21782500Y-45100000D01*
X21590000Y-37292500D02*
X21782500Y-37485000D01*
X21782500Y-37485000D02*
X21782500Y-40640000D01*
%TD*%
D22*
X17810896Y-105240997D02*
X17834699Y-105270001D01*
X17889530Y-105315000D01*
X16780881Y-105315000D01*
X16830537Y-105254494D01*
X16889502Y-105144180D01*
X16915038Y-105060000D01*
X17629899Y-105060000D01*
X17810896Y-105240997D01*
%TA.AperFunction,NonConductor*%
D23*
G36*
X17810896Y-105240997D02*
G01*
X17834699Y-105270001D01*
X17889530Y-105315000D01*
X16780881Y-105315000D01*
X16830537Y-105254494D01*
X16889502Y-105144180D01*
X16915038Y-105060000D01*
X17629899Y-105060000D01*
X17810896Y-105240997D01*
G37*
%TD.AperFunction*%
D22*
X27986589Y-85315990D02*
X28256842Y-85427932D01*
X28543740Y-85485000D01*
X28836260Y-85485000D01*
X29123158Y-85427932D01*
X29315001Y-85348468D01*
X29315001Y-105315000D01*
X26332670Y-105315000D01*
X26387501Y-105270001D01*
X26411304Y-105240997D01*
X27419230Y-104233072D01*
X28045000Y-104233072D01*
X28218254Y-104216008D01*
X28384850Y-104165472D01*
X28538386Y-104083405D01*
X28672962Y-103972962D01*
X28783405Y-103838386D01*
X28865472Y-103684850D01*
X28916008Y-103518254D01*
X28933072Y-103345000D01*
X28933072Y-102395000D01*
X28916008Y-102221746D01*
X28865472Y-102055150D01*
X28783405Y-101901614D01*
X28672962Y-101767038D01*
X28538386Y-101656595D01*
X28467500Y-101618706D01*
X28467500Y-100207333D01*
X28471177Y-100170000D01*
X28456503Y-100021014D01*
X28413046Y-99877753D01*
X28342474Y-99745724D01*
X28271299Y-99658997D01*
X28247501Y-99629999D01*
X28218504Y-99606202D01*
X27522684Y-98910382D01*
X27549997Y-98913072D01*
X28175003Y-98913072D01*
X28348257Y-98896008D01*
X28514852Y-98845472D01*
X28668388Y-98763405D01*
X28802963Y-98652963D01*
X28913405Y-98518388D01*
X28995472Y-98364852D01*
X29046008Y-98198257D01*
X29063072Y-98025003D01*
X29063072Y-96774997D01*
X29046008Y-96601743D01*
X28995472Y-96435148D01*
X28913405Y-96281612D01*
X28802963Y-96147037D01*
X28668388Y-96036595D01*
X28622500Y-96012067D01*
X28622500Y-88142022D01*
X28626176Y-88104699D01*
X28622500Y-88067376D01*
X28622500Y-88067367D01*
X28611503Y-87955714D01*
X28568046Y-87812453D01*
X28506300Y-87696936D01*
X28506300Y-87611561D01*
X28466526Y-87411602D01*
X28388505Y-87223244D01*
X28275237Y-87053726D01*
X28131074Y-86909563D01*
X27961556Y-86796295D01*
X27773198Y-86718274D01*
X27573239Y-86678500D01*
X27369361Y-86678500D01*
X27169402Y-86718274D01*
X26981044Y-86796295D01*
X26811526Y-86909563D01*
X26667363Y-87053726D01*
X26554095Y-87223244D01*
X26476074Y-87411602D01*
X26436300Y-87611561D01*
X26436300Y-87815439D01*
X26476074Y-88015398D01*
X26554095Y-88203756D01*
X26667363Y-88373274D01*
X26811526Y-88517437D01*
X26981044Y-88630705D01*
X27102501Y-88681014D01*
X27102501Y-91510185D01*
X26813725Y-91273193D01*
X26467147Y-91087943D01*
X26091088Y-90973867D01*
X25700000Y-90935348D01*
X25308913Y-90973867D01*
X24932854Y-91087943D01*
X24586276Y-91273193D01*
X24282498Y-91522497D01*
X24033193Y-91826275D01*
X23847943Y-92172853D01*
X23733867Y-92548912D01*
X23705000Y-92842002D01*
X23705000Y-93557997D01*
X23733867Y-93851087D01*
X23847943Y-94227146D01*
X24033193Y-94573725D01*
X24282497Y-94877503D01*
X24586275Y-95126807D01*
X24932853Y-95312057D01*
X25308912Y-95426133D01*
X25700000Y-95464652D01*
X26091087Y-95426133D01*
X26467146Y-95312057D01*
X26813725Y-95126807D01*
X27102500Y-94889815D01*
X27102500Y-96012067D01*
X27056612Y-96036595D01*
X26922037Y-96147037D01*
X26811595Y-96281612D01*
X26729528Y-96435148D01*
X26678992Y-96601743D01*
X26661928Y-96774997D01*
X26661928Y-98025003D01*
X26664618Y-98052317D01*
X26138072Y-97525771D01*
X26138072Y-96774997D01*
X26121008Y-96601743D01*
X26070472Y-96435148D01*
X25988405Y-96281612D01*
X25877963Y-96147037D01*
X25743388Y-96036595D01*
X25589852Y-95954528D01*
X25423257Y-95903992D01*
X25250003Y-95886928D01*
X24624997Y-95886928D01*
X24451743Y-95903992D01*
X24285148Y-95954528D01*
X24131612Y-96036595D01*
X23997037Y-96147037D01*
X23886595Y-96281612D01*
X23804528Y-96435148D01*
X23753992Y-96601743D01*
X23736928Y-96774997D01*
X23736928Y-98025003D01*
X23753992Y-98198257D01*
X23804528Y-98364852D01*
X23886595Y-98518388D01*
X23997037Y-98652963D01*
X24131612Y-98763405D01*
X24285148Y-98845472D01*
X24451743Y-98896008D01*
X24624997Y-98913072D01*
X25250003Y-98913072D01*
X25364494Y-98901796D01*
X26947500Y-100484802D01*
X26947501Y-101618705D01*
X26876614Y-101656595D01*
X26742038Y-101767038D01*
X26670000Y-101854817D01*
X26597962Y-101767038D01*
X26463386Y-101656595D01*
X26309850Y-101574528D01*
X26143254Y-101523992D01*
X25970000Y-101506928D01*
X25295000Y-101506928D01*
X25282920Y-101508118D01*
X24883731Y-101108930D01*
X24935000Y-100851184D01*
X24935000Y-100548816D01*
X24876011Y-100252257D01*
X24760299Y-99972905D01*
X24592312Y-99721495D01*
X24378505Y-99507688D01*
X24127095Y-99339701D01*
X23847743Y-99223989D01*
X23551184Y-99165000D01*
X23248816Y-99165000D01*
X22952257Y-99223989D01*
X22672905Y-99339701D01*
X22421495Y-99507688D01*
X22207688Y-99721495D01*
X22150000Y-99807831D01*
X22092312Y-99721495D01*
X21878505Y-99507688D01*
X21627095Y-99339701D01*
X21347743Y-99223989D01*
X21051184Y-99165000D01*
X20748816Y-99165000D01*
X20452257Y-99223989D01*
X20172905Y-99339701D01*
X19921495Y-99507688D01*
X19883880Y-99545303D01*
X19830537Y-99445506D01*
X19751185Y-99348815D01*
X19654494Y-99269463D01*
X19544180Y-99210498D01*
X19424482Y-99174188D01*
X19300000Y-99161928D01*
X17500000Y-99161928D01*
X17375518Y-99174188D01*
X17255820Y-99210498D01*
X17145506Y-99269463D01*
X17048815Y-99348815D01*
X16969463Y-99445506D01*
X16910498Y-99555820D01*
X16874188Y-99675518D01*
X16861928Y-99800000D01*
X16861928Y-101600000D01*
X16874188Y-101724482D01*
X16910498Y-101844180D01*
X16969463Y-101954494D01*
X17048815Y-102051185D01*
X17145506Y-102130537D01*
X17255820Y-102189502D01*
X17375518Y-102225812D01*
X17500000Y-102238072D01*
X19300000Y-102238072D01*
X19424482Y-102225812D01*
X19544180Y-102189502D01*
X19654494Y-102130537D01*
X19751185Y-102051185D01*
X19830537Y-101954494D01*
X19883880Y-101854697D01*
X19921495Y-101892312D01*
X20172905Y-102060299D01*
X20452257Y-102176011D01*
X20748816Y-102235000D01*
X21051184Y-102235000D01*
X21347743Y-102176011D01*
X21627095Y-102060299D01*
X21878505Y-101892312D01*
X22092312Y-101678505D01*
X22150000Y-101592169D01*
X22207688Y-101678505D01*
X22421495Y-101892312D01*
X22672905Y-102060299D01*
X22952257Y-102176011D01*
X23248816Y-102235000D01*
X23551184Y-102235000D01*
X23808930Y-102183731D01*
X24406928Y-102781730D01*
X24406928Y-103345000D01*
X24423992Y-103518254D01*
X24474528Y-103684850D01*
X24556595Y-103838386D01*
X24664607Y-103970000D01*
X23478313Y-103970000D01*
X23332312Y-103751495D01*
X23118505Y-103537688D01*
X22867095Y-103369701D01*
X22587743Y-103253989D01*
X22291184Y-103195000D01*
X21988816Y-103195000D01*
X21692257Y-103253989D01*
X21412905Y-103369701D01*
X21161495Y-103537688D01*
X21095056Y-103604127D01*
X21089502Y-103585820D01*
X21030537Y-103475506D01*
X20951185Y-103378815D01*
X20854494Y-103299463D01*
X20744180Y-103240498D01*
X20624482Y-103204188D01*
X20500000Y-103191928D01*
X18700000Y-103191928D01*
X18575518Y-103204188D01*
X18455820Y-103240498D01*
X18345506Y-103299463D01*
X18248815Y-103378815D01*
X18169463Y-103475506D01*
X18124169Y-103560244D01*
X18093686Y-103550997D01*
X17982033Y-103540000D01*
X17982022Y-103540000D01*
X17944700Y-103536324D01*
X17907378Y-103540000D01*
X16915038Y-103540000D01*
X16889502Y-103455820D01*
X16830537Y-103345506D01*
X16751185Y-103248815D01*
X16654494Y-103169463D01*
X16544180Y-103110498D01*
X16424482Y-103074188D01*
X16300000Y-103061928D01*
X15400000Y-103061928D01*
X15275518Y-103074188D01*
X15155820Y-103110498D01*
X15045506Y-103169463D01*
X14948815Y-103248815D01*
X14869463Y-103345506D01*
X14810498Y-103455820D01*
X14774188Y-103575518D01*
X14771760Y-103600170D01*
X14650424Y-103665026D01*
X14534699Y-103759999D01*
X14510901Y-103788997D01*
X13834499Y-104465400D01*
X13638072Y-104465400D01*
X13638072Y-103700000D01*
X13625812Y-103575518D01*
X13589502Y-103455820D01*
X13530537Y-103345506D01*
X13451185Y-103248815D01*
X13354494Y-103169463D01*
X13310000Y-103145680D01*
X13310000Y-92842002D01*
X14105000Y-92842002D01*
X14105000Y-93557997D01*
X14133867Y-93851087D01*
X14247943Y-94227146D01*
X14433193Y-94573725D01*
X14682497Y-94877503D01*
X14986275Y-95126807D01*
X15332853Y-95312057D01*
X15708912Y-95426133D01*
X16100000Y-95464652D01*
X16491087Y-95426133D01*
X16867146Y-95312057D01*
X17213725Y-95126807D01*
X17517503Y-94877503D01*
X17766807Y-94573725D01*
X17952057Y-94227147D01*
X18066133Y-93851088D01*
X18095000Y-93557998D01*
X18095000Y-92842003D01*
X18066133Y-92548913D01*
X17952057Y-92172853D01*
X17766807Y-91826275D01*
X17517503Y-91522497D01*
X17213725Y-91273193D01*
X16867147Y-91087943D01*
X16491088Y-90973867D01*
X16100000Y-90935348D01*
X15708913Y-90973867D01*
X15332854Y-91087943D01*
X14986276Y-91273193D01*
X14682498Y-91522497D01*
X14433193Y-91826275D01*
X14247943Y-92172853D01*
X14133867Y-92548912D01*
X14105000Y-92842002D01*
X13310000Y-92842002D01*
X13310000Y-86413500D01*
X26191178Y-86413500D01*
X26228500Y-86417176D01*
X26265822Y-86413500D01*
X26265833Y-86413500D01*
X26377486Y-86402503D01*
X26520747Y-86359046D01*
X26652776Y-86288474D01*
X26768501Y-86193501D01*
X26792303Y-86164498D01*
X27779311Y-85177491D01*
X27986589Y-85315990D01*
%TA.AperFunction,NonConductor*%
D23*
G36*
X27986589Y-85315990D02*
G01*
X28256842Y-85427932D01*
X28543740Y-85485000D01*
X28836260Y-85485000D01*
X29123158Y-85427932D01*
X29315001Y-85348468D01*
X29315001Y-105315000D01*
X26332670Y-105315000D01*
X26387501Y-105270001D01*
X26411304Y-105240997D01*
X27419230Y-104233072D01*
X28045000Y-104233072D01*
X28218254Y-104216008D01*
X28384850Y-104165472D01*
X28538386Y-104083405D01*
X28672962Y-103972962D01*
X28783405Y-103838386D01*
X28865472Y-103684850D01*
X28916008Y-103518254D01*
X28933072Y-103345000D01*
X28933072Y-102395000D01*
X28916008Y-102221746D01*
X28865472Y-102055150D01*
X28783405Y-101901614D01*
X28672962Y-101767038D01*
X28538386Y-101656595D01*
X28467500Y-101618706D01*
X28467500Y-100207333D01*
X28471177Y-100170000D01*
X28456503Y-100021014D01*
X28413046Y-99877753D01*
X28342474Y-99745724D01*
X28271299Y-99658997D01*
X28247501Y-99629999D01*
X28218504Y-99606202D01*
X27522684Y-98910382D01*
X27549997Y-98913072D01*
X28175003Y-98913072D01*
X28348257Y-98896008D01*
X28514852Y-98845472D01*
X28668388Y-98763405D01*
X28802963Y-98652963D01*
X28913405Y-98518388D01*
X28995472Y-98364852D01*
X29046008Y-98198257D01*
X29063072Y-98025003D01*
X29063072Y-96774997D01*
X29046008Y-96601743D01*
X28995472Y-96435148D01*
X28913405Y-96281612D01*
X28802963Y-96147037D01*
X28668388Y-96036595D01*
X28622500Y-96012067D01*
X28622500Y-88142022D01*
X28626176Y-88104699D01*
X28622500Y-88067376D01*
X28622500Y-88067367D01*
X28611503Y-87955714D01*
X28568046Y-87812453D01*
X28506300Y-87696936D01*
X28506300Y-87611561D01*
X28466526Y-87411602D01*
X28388505Y-87223244D01*
X28275237Y-87053726D01*
X28131074Y-86909563D01*
X27961556Y-86796295D01*
X27773198Y-86718274D01*
X27573239Y-86678500D01*
X27369361Y-86678500D01*
X27169402Y-86718274D01*
X26981044Y-86796295D01*
X26811526Y-86909563D01*
X26667363Y-87053726D01*
X26554095Y-87223244D01*
X26476074Y-87411602D01*
X26436300Y-87611561D01*
X26436300Y-87815439D01*
X26476074Y-88015398D01*
X26554095Y-88203756D01*
X26667363Y-88373274D01*
X26811526Y-88517437D01*
X26981044Y-88630705D01*
X27102501Y-88681014D01*
X27102501Y-91510185D01*
X26813725Y-91273193D01*
X26467147Y-91087943D01*
X26091088Y-90973867D01*
X25700000Y-90935348D01*
X25308913Y-90973867D01*
X24932854Y-91087943D01*
X24586276Y-91273193D01*
X24282498Y-91522497D01*
X24033193Y-91826275D01*
X23847943Y-92172853D01*
X23733867Y-92548912D01*
X23705000Y-92842002D01*
X23705000Y-93557997D01*
X23733867Y-93851087D01*
X23847943Y-94227146D01*
X24033193Y-94573725D01*
X24282497Y-94877503D01*
X24586275Y-95126807D01*
X24932853Y-95312057D01*
X25308912Y-95426133D01*
X25700000Y-95464652D01*
X26091087Y-95426133D01*
X26467146Y-95312057D01*
X26813725Y-95126807D01*
X27102500Y-94889815D01*
X27102500Y-96012067D01*
X27056612Y-96036595D01*
X26922037Y-96147037D01*
X26811595Y-96281612D01*
X26729528Y-96435148D01*
X26678992Y-96601743D01*
X26661928Y-96774997D01*
X26661928Y-98025003D01*
X26664618Y-98052317D01*
X26138072Y-97525771D01*
X26138072Y-96774997D01*
X26121008Y-96601743D01*
X26070472Y-96435148D01*
X25988405Y-96281612D01*
X25877963Y-96147037D01*
X25743388Y-96036595D01*
X25589852Y-95954528D01*
X25423257Y-95903992D01*
X25250003Y-95886928D01*
X24624997Y-95886928D01*
X24451743Y-95903992D01*
X24285148Y-95954528D01*
X24131612Y-96036595D01*
X23997037Y-96147037D01*
X23886595Y-96281612D01*
X23804528Y-96435148D01*
X23753992Y-96601743D01*
X23736928Y-96774997D01*
X23736928Y-98025003D01*
X23753992Y-98198257D01*
X23804528Y-98364852D01*
X23886595Y-98518388D01*
X23997037Y-98652963D01*
X24131612Y-98763405D01*
X24285148Y-98845472D01*
X24451743Y-98896008D01*
X24624997Y-98913072D01*
X25250003Y-98913072D01*
X25364494Y-98901796D01*
X26947500Y-100484802D01*
X26947501Y-101618705D01*
X26876614Y-101656595D01*
X26742038Y-101767038D01*
X26670000Y-101854817D01*
X26597962Y-101767038D01*
X26463386Y-101656595D01*
X26309850Y-101574528D01*
X26143254Y-101523992D01*
X25970000Y-101506928D01*
X25295000Y-101506928D01*
X25282920Y-101508118D01*
X24883731Y-101108930D01*
X24935000Y-100851184D01*
X24935000Y-100548816D01*
X24876011Y-100252257D01*
X24760299Y-99972905D01*
X24592312Y-99721495D01*
X24378505Y-99507688D01*
X24127095Y-99339701D01*
X23847743Y-99223989D01*
X23551184Y-99165000D01*
X23248816Y-99165000D01*
X22952257Y-99223989D01*
X22672905Y-99339701D01*
X22421495Y-99507688D01*
X22207688Y-99721495D01*
X22150000Y-99807831D01*
X22092312Y-99721495D01*
X21878505Y-99507688D01*
X21627095Y-99339701D01*
X21347743Y-99223989D01*
X21051184Y-99165000D01*
X20748816Y-99165000D01*
X20452257Y-99223989D01*
X20172905Y-99339701D01*
X19921495Y-99507688D01*
X19883880Y-99545303D01*
X19830537Y-99445506D01*
X19751185Y-99348815D01*
X19654494Y-99269463D01*
X19544180Y-99210498D01*
X19424482Y-99174188D01*
X19300000Y-99161928D01*
X17500000Y-99161928D01*
X17375518Y-99174188D01*
X17255820Y-99210498D01*
X17145506Y-99269463D01*
X17048815Y-99348815D01*
X16969463Y-99445506D01*
X16910498Y-99555820D01*
X16874188Y-99675518D01*
X16861928Y-99800000D01*
X16861928Y-101600000D01*
X16874188Y-101724482D01*
X16910498Y-101844180D01*
X16969463Y-101954494D01*
X17048815Y-102051185D01*
X17145506Y-102130537D01*
X17255820Y-102189502D01*
X17375518Y-102225812D01*
X17500000Y-102238072D01*
X19300000Y-102238072D01*
X19424482Y-102225812D01*
X19544180Y-102189502D01*
X19654494Y-102130537D01*
X19751185Y-102051185D01*
X19830537Y-101954494D01*
X19883880Y-101854697D01*
X19921495Y-101892312D01*
X20172905Y-102060299D01*
X20452257Y-102176011D01*
X20748816Y-102235000D01*
X21051184Y-102235000D01*
X21347743Y-102176011D01*
X21627095Y-102060299D01*
X21878505Y-101892312D01*
X22092312Y-101678505D01*
X22150000Y-101592169D01*
X22207688Y-101678505D01*
X22421495Y-101892312D01*
X22672905Y-102060299D01*
X22952257Y-102176011D01*
X23248816Y-102235000D01*
X23551184Y-102235000D01*
X23808930Y-102183731D01*
X24406928Y-102781730D01*
X24406928Y-103345000D01*
X24423992Y-103518254D01*
X24474528Y-103684850D01*
X24556595Y-103838386D01*
X24664607Y-103970000D01*
X23478313Y-103970000D01*
X23332312Y-103751495D01*
X23118505Y-103537688D01*
X22867095Y-103369701D01*
X22587743Y-103253989D01*
X22291184Y-103195000D01*
X21988816Y-103195000D01*
X21692257Y-103253989D01*
X21412905Y-103369701D01*
X21161495Y-103537688D01*
X21095056Y-103604127D01*
X21089502Y-103585820D01*
X21030537Y-103475506D01*
X20951185Y-103378815D01*
X20854494Y-103299463D01*
X20744180Y-103240498D01*
X20624482Y-103204188D01*
X20500000Y-103191928D01*
X18700000Y-103191928D01*
X18575518Y-103204188D01*
X18455820Y-103240498D01*
X18345506Y-103299463D01*
X18248815Y-103378815D01*
X18169463Y-103475506D01*
X18124169Y-103560244D01*
X18093686Y-103550997D01*
X17982033Y-103540000D01*
X17982022Y-103540000D01*
X17944700Y-103536324D01*
X17907378Y-103540000D01*
X16915038Y-103540000D01*
X16889502Y-103455820D01*
X16830537Y-103345506D01*
X16751185Y-103248815D01*
X16654494Y-103169463D01*
X16544180Y-103110498D01*
X16424482Y-103074188D01*
X16300000Y-103061928D01*
X15400000Y-103061928D01*
X15275518Y-103074188D01*
X15155820Y-103110498D01*
X15045506Y-103169463D01*
X14948815Y-103248815D01*
X14869463Y-103345506D01*
X14810498Y-103455820D01*
X14774188Y-103575518D01*
X14771760Y-103600170D01*
X14650424Y-103665026D01*
X14534699Y-103759999D01*
X14510901Y-103788997D01*
X13834499Y-104465400D01*
X13638072Y-104465400D01*
X13638072Y-103700000D01*
X13625812Y-103575518D01*
X13589502Y-103455820D01*
X13530537Y-103345506D01*
X13451185Y-103248815D01*
X13354494Y-103169463D01*
X13310000Y-103145680D01*
X13310000Y-92842002D01*
X14105000Y-92842002D01*
X14105000Y-93557997D01*
X14133867Y-93851087D01*
X14247943Y-94227146D01*
X14433193Y-94573725D01*
X14682497Y-94877503D01*
X14986275Y-95126807D01*
X15332853Y-95312057D01*
X15708912Y-95426133D01*
X16100000Y-95464652D01*
X16491087Y-95426133D01*
X16867146Y-95312057D01*
X17213725Y-95126807D01*
X17517503Y-94877503D01*
X17766807Y-94573725D01*
X17952057Y-94227147D01*
X18066133Y-93851088D01*
X18095000Y-93557998D01*
X18095000Y-92842003D01*
X18066133Y-92548913D01*
X17952057Y-92172853D01*
X17766807Y-91826275D01*
X17517503Y-91522497D01*
X17213725Y-91273193D01*
X16867147Y-91087943D01*
X16491088Y-90973867D01*
X16100000Y-90935348D01*
X15708913Y-90973867D01*
X15332854Y-91087943D01*
X14986276Y-91273193D01*
X14682498Y-91522497D01*
X14433193Y-91826275D01*
X14247943Y-92172853D01*
X14133867Y-92548912D01*
X14105000Y-92842002D01*
X13310000Y-92842002D01*
X13310000Y-86413500D01*
X26191178Y-86413500D01*
X26228500Y-86417176D01*
X26265822Y-86413500D01*
X26265833Y-86413500D01*
X26377486Y-86402503D01*
X26520747Y-86359046D01*
X26652776Y-86288474D01*
X26768501Y-86193501D01*
X26792303Y-86164498D01*
X27779311Y-85177491D01*
X27986589Y-85315990D01*
G37*
%TD.AperFunction*%
D22*
X3579523Y-716313D02*
X3393479Y-994748D01*
X3265330Y-1304128D01*
X3200000Y-1632565D01*
X3200000Y-1967435D01*
X3265330Y-2295872D01*
X3393479Y-2605252D01*
X3579523Y-2883687D01*
X3816313Y-3120477D01*
X4094748Y-3306521D01*
X4404128Y-3434670D01*
X4732565Y-3500000D01*
X5067435Y-3500000D01*
X5395872Y-3434670D01*
X5441124Y-3415926D01*
X7677501Y-5652304D01*
X7677500Y-9612067D01*
X7631612Y-9636595D01*
X7497037Y-9747037D01*
X7386595Y-9881612D01*
X7304528Y-10035148D01*
X7253992Y-10201743D01*
X7236928Y-10374997D01*
X7236928Y-11625003D01*
X7253992Y-11798257D01*
X7304528Y-11964852D01*
X7386595Y-12118388D01*
X7497037Y-12252963D01*
X7631612Y-12363405D01*
X7725115Y-12413384D01*
X7501799Y-12636700D01*
X6503072Y-12636700D01*
X6503072Y-11285000D01*
X6490812Y-11160518D01*
X6454502Y-11040820D01*
X6395537Y-10930506D01*
X6392290Y-10926550D01*
X6406521Y-10905252D01*
X6534670Y-10595872D01*
X6600000Y-10267435D01*
X6600000Y-9932565D01*
X6534670Y-9604128D01*
X6406521Y-9294748D01*
X6220477Y-9016313D01*
X5983687Y-8779523D01*
X5705252Y-8593479D01*
X5395872Y-8465330D01*
X5067435Y-8400000D01*
X4732565Y-8400000D01*
X4404128Y-8465330D01*
X4094748Y-8593479D01*
X3816313Y-8779523D01*
X3579523Y-9016313D01*
X3393479Y-9294748D01*
X3265330Y-9604128D01*
X3200000Y-9932565D01*
X3200000Y-10267435D01*
X3265330Y-10595872D01*
X3393479Y-10905252D01*
X3407710Y-10926550D01*
X3404463Y-10930506D01*
X3345498Y-11040820D01*
X3309188Y-11160518D01*
X3296928Y-11285000D01*
X3296928Y-14115000D01*
X3309188Y-14239482D01*
X3345498Y-14359180D01*
X3404463Y-14469494D01*
X3407710Y-14473450D01*
X3393479Y-14494748D01*
X3265330Y-14804128D01*
X3200000Y-15132565D01*
X3200000Y-15467435D01*
X3265330Y-15795872D01*
X3393479Y-16105252D01*
X3579523Y-16383687D01*
X3816313Y-16620477D01*
X4094748Y-16806521D01*
X4404128Y-16934670D01*
X4732565Y-17000000D01*
X5067435Y-17000000D01*
X5395872Y-16934670D01*
X5441125Y-16915926D01*
X9973701Y-21448503D01*
X9997499Y-21477501D01*
X10026497Y-21501299D01*
X10113223Y-21572474D01*
X10213011Y-21625812D01*
X10245253Y-21643046D01*
X10388514Y-21686503D01*
X10500167Y-21697500D01*
X10500177Y-21697500D01*
X10537500Y-21701176D01*
X10574823Y-21697500D01*
X11312067Y-21697500D01*
X11336595Y-21743388D01*
X11447037Y-21877963D01*
X11581612Y-21988405D01*
X11735148Y-22070472D01*
X11901743Y-22121008D01*
X12074997Y-22138072D01*
X13193901Y-22138072D01*
X13193901Y-22293797D01*
X12825770Y-22661928D01*
X12074997Y-22661928D01*
X11901743Y-22678992D01*
X11735148Y-22729528D01*
X11581612Y-22811595D01*
X11447037Y-22922037D01*
X11336595Y-23056612D01*
X11312067Y-23102500D01*
X11217523Y-23102500D01*
X11180200Y-23098824D01*
X11142877Y-23102500D01*
X11142867Y-23102500D01*
X11031214Y-23113497D01*
X10915490Y-23148601D01*
X10887953Y-23156954D01*
X10755923Y-23227526D01*
X10711849Y-23263697D01*
X10640199Y-23322499D01*
X10616401Y-23351497D01*
X2510803Y-31457096D01*
X2481799Y-31480899D01*
X2448870Y-31521024D01*
X2386826Y-31596624D01*
X2348996Y-31667399D01*
X2316254Y-31728654D01*
X2272797Y-31871915D01*
X2261800Y-31983568D01*
X2261800Y-31983578D01*
X2258124Y-32020900D01*
X2261800Y-32058222D01*
X2261801Y-70101967D01*
X2258124Y-70139300D01*
X2272798Y-70288285D01*
X2316254Y-70431546D01*
X2316784Y-70432538D01*
X2313992Y-70441743D01*
X2296928Y-70614997D01*
X2296928Y-71240003D01*
X2313992Y-71413257D01*
X2364528Y-71579852D01*
X2446595Y-71733388D01*
X2557037Y-71867963D01*
X2691612Y-71978405D01*
X2845148Y-72060472D01*
X3011743Y-72111008D01*
X3184997Y-72128072D01*
X4435003Y-72128072D01*
X4608257Y-72111008D01*
X4774852Y-72060472D01*
X4928388Y-71978405D01*
X5062963Y-71867963D01*
X5173405Y-71733388D01*
X5197933Y-71687500D01*
X6226928Y-71687500D01*
X6226928Y-72380003D01*
X6243992Y-72553257D01*
X6294528Y-72719852D01*
X6376595Y-72873388D01*
X6487037Y-73007963D01*
X6621612Y-73118405D01*
X6775148Y-73200472D01*
X6941743Y-73251008D01*
X7114997Y-73268072D01*
X7663382Y-73268072D01*
X7501743Y-73283992D01*
X7335148Y-73334528D01*
X7181612Y-73416595D01*
X7047037Y-73527037D01*
X6936595Y-73661612D01*
X6854528Y-73815148D01*
X6803992Y-73981743D01*
X6786928Y-74154997D01*
X6786928Y-74780003D01*
X6798204Y-74894494D01*
X4389003Y-77303696D01*
X4359999Y-77327499D01*
X4304871Y-77394674D01*
X4265800Y-77442281D01*
X4265800Y-75053072D01*
X4435003Y-75053072D01*
X4608257Y-75036008D01*
X4774852Y-74985472D01*
X4928388Y-74903405D01*
X5062963Y-74792963D01*
X5173405Y-74658388D01*
X5255472Y-74504852D01*
X5306008Y-74338257D01*
X5323072Y-74165003D01*
X5323072Y-73539997D01*
X5306008Y-73366743D01*
X5255472Y-73200148D01*
X5173405Y-73046612D01*
X5062963Y-72912037D01*
X4928388Y-72801595D01*
X4774852Y-72719528D01*
X4608257Y-72668992D01*
X4435003Y-72651928D01*
X3184997Y-72651928D01*
X3011743Y-72668992D01*
X2845148Y-72719528D01*
X2691612Y-72801595D01*
X2557037Y-72912037D01*
X2446595Y-73046612D01*
X2364528Y-73200148D01*
X2313992Y-73366743D01*
X2296928Y-73539997D01*
X2296928Y-74165003D01*
X2313992Y-74338257D01*
X2364528Y-74504852D01*
X2446595Y-74658388D01*
X2557037Y-74792963D01*
X2691612Y-74903405D01*
X2745800Y-74932369D01*
X2745801Y-94828067D01*
X2742124Y-94865400D01*
X2756798Y-95014385D01*
X2800254Y-95157646D01*
X2870826Y-95289676D01*
X2942001Y-95376402D01*
X2965800Y-95405401D01*
X2994798Y-95429199D01*
X3241173Y-95675574D01*
X3200000Y-95882565D01*
X3200000Y-96217435D01*
X3265330Y-96545872D01*
X3393479Y-96855252D01*
X3579523Y-97133687D01*
X3816313Y-97370477D01*
X4094748Y-97556521D01*
X4404128Y-97684670D01*
X4732565Y-97750000D01*
X5067435Y-97750000D01*
X5395872Y-97684670D01*
X5705252Y-97556521D01*
X5983687Y-97370477D01*
X6220477Y-97133687D01*
X6406521Y-96855252D01*
X6516042Y-96590844D01*
X11014600Y-101089402D01*
X11014601Y-105022368D01*
X11010924Y-105059700D01*
X11025598Y-105208685D01*
X11057847Y-105315000D01*
X6299781Y-105315000D01*
X6406521Y-105155252D01*
X6534670Y-104845872D01*
X6600000Y-104517435D01*
X6600000Y-104182565D01*
X6534670Y-103854128D01*
X6406521Y-103544748D01*
X6220477Y-103266313D01*
X5983687Y-103029523D01*
X5705252Y-102843479D01*
X5395872Y-102715330D01*
X5067435Y-102650000D01*
X4732565Y-102650000D01*
X4404128Y-102715330D01*
X4094748Y-102843479D01*
X3816313Y-103029523D01*
X3579523Y-103266313D01*
X3393479Y-103544748D01*
X3265330Y-103854128D01*
X3200000Y-104182565D01*
X3200000Y-104517435D01*
X3265330Y-104845872D01*
X3393479Y-105155252D01*
X3500219Y-105315000D01*
X685000Y-105315000D01*
X685000Y-23432565D01*
X3200000Y-23432565D01*
X3200000Y-23767435D01*
X3265330Y-24095872D01*
X3393479Y-24405252D01*
X3579523Y-24683687D01*
X3816313Y-24920477D01*
X4094748Y-25106521D01*
X4404128Y-25234670D01*
X4732565Y-25300000D01*
X5067435Y-25300000D01*
X5395872Y-25234670D01*
X5705252Y-25106521D01*
X5983687Y-24920477D01*
X6220477Y-24683687D01*
X6406521Y-24405252D01*
X6534670Y-24095872D01*
X6600000Y-23767435D01*
X6600000Y-23432565D01*
X6534670Y-23104128D01*
X6406521Y-22794748D01*
X6220477Y-22516313D01*
X5983687Y-22279523D01*
X5705252Y-22093479D01*
X5395872Y-21965330D01*
X5067435Y-21900000D01*
X4732565Y-21900000D01*
X4404128Y-21965330D01*
X4094748Y-22093479D01*
X3816313Y-22279523D01*
X3579523Y-22516313D01*
X3393479Y-22794748D01*
X3265330Y-23104128D01*
X3200000Y-23432565D01*
X685000Y-23432565D01*
X685000Y-685000D01*
X3610836Y-685000D01*
X3579523Y-716313D01*
%TA.AperFunction,NonConductor*%
D23*
G36*
X3579523Y-716313D02*
G01*
X3393479Y-994748D01*
X3265330Y-1304128D01*
X3200000Y-1632565D01*
X3200000Y-1967435D01*
X3265330Y-2295872D01*
X3393479Y-2605252D01*
X3579523Y-2883687D01*
X3816313Y-3120477D01*
X4094748Y-3306521D01*
X4404128Y-3434670D01*
X4732565Y-3500000D01*
X5067435Y-3500000D01*
X5395872Y-3434670D01*
X5441124Y-3415926D01*
X7677501Y-5652304D01*
X7677500Y-9612067D01*
X7631612Y-9636595D01*
X7497037Y-9747037D01*
X7386595Y-9881612D01*
X7304528Y-10035148D01*
X7253992Y-10201743D01*
X7236928Y-10374997D01*
X7236928Y-11625003D01*
X7253992Y-11798257D01*
X7304528Y-11964852D01*
X7386595Y-12118388D01*
X7497037Y-12252963D01*
X7631612Y-12363405D01*
X7725115Y-12413384D01*
X7501799Y-12636700D01*
X6503072Y-12636700D01*
X6503072Y-11285000D01*
X6490812Y-11160518D01*
X6454502Y-11040820D01*
X6395537Y-10930506D01*
X6392290Y-10926550D01*
X6406521Y-10905252D01*
X6534670Y-10595872D01*
X6600000Y-10267435D01*
X6600000Y-9932565D01*
X6534670Y-9604128D01*
X6406521Y-9294748D01*
X6220477Y-9016313D01*
X5983687Y-8779523D01*
X5705252Y-8593479D01*
X5395872Y-8465330D01*
X5067435Y-8400000D01*
X4732565Y-8400000D01*
X4404128Y-8465330D01*
X4094748Y-8593479D01*
X3816313Y-8779523D01*
X3579523Y-9016313D01*
X3393479Y-9294748D01*
X3265330Y-9604128D01*
X3200000Y-9932565D01*
X3200000Y-10267435D01*
X3265330Y-10595872D01*
X3393479Y-10905252D01*
X3407710Y-10926550D01*
X3404463Y-10930506D01*
X3345498Y-11040820D01*
X3309188Y-11160518D01*
X3296928Y-11285000D01*
X3296928Y-14115000D01*
X3309188Y-14239482D01*
X3345498Y-14359180D01*
X3404463Y-14469494D01*
X3407710Y-14473450D01*
X3393479Y-14494748D01*
X3265330Y-14804128D01*
X3200000Y-15132565D01*
X3200000Y-15467435D01*
X3265330Y-15795872D01*
X3393479Y-16105252D01*
X3579523Y-16383687D01*
X3816313Y-16620477D01*
X4094748Y-16806521D01*
X4404128Y-16934670D01*
X4732565Y-17000000D01*
X5067435Y-17000000D01*
X5395872Y-16934670D01*
X5441125Y-16915926D01*
X9973701Y-21448503D01*
X9997499Y-21477501D01*
X10026497Y-21501299D01*
X10113223Y-21572474D01*
X10213011Y-21625812D01*
X10245253Y-21643046D01*
X10388514Y-21686503D01*
X10500167Y-21697500D01*
X10500177Y-21697500D01*
X10537500Y-21701176D01*
X10574823Y-21697500D01*
X11312067Y-21697500D01*
X11336595Y-21743388D01*
X11447037Y-21877963D01*
X11581612Y-21988405D01*
X11735148Y-22070472D01*
X11901743Y-22121008D01*
X12074997Y-22138072D01*
X13193901Y-22138072D01*
X13193901Y-22293797D01*
X12825770Y-22661928D01*
X12074997Y-22661928D01*
X11901743Y-22678992D01*
X11735148Y-22729528D01*
X11581612Y-22811595D01*
X11447037Y-22922037D01*
X11336595Y-23056612D01*
X11312067Y-23102500D01*
X11217523Y-23102500D01*
X11180200Y-23098824D01*
X11142877Y-23102500D01*
X11142867Y-23102500D01*
X11031214Y-23113497D01*
X10915490Y-23148601D01*
X10887953Y-23156954D01*
X10755923Y-23227526D01*
X10711849Y-23263697D01*
X10640199Y-23322499D01*
X10616401Y-23351497D01*
X2510803Y-31457096D01*
X2481799Y-31480899D01*
X2448870Y-31521024D01*
X2386826Y-31596624D01*
X2348996Y-31667399D01*
X2316254Y-31728654D01*
X2272797Y-31871915D01*
X2261800Y-31983568D01*
X2261800Y-31983578D01*
X2258124Y-32020900D01*
X2261800Y-32058222D01*
X2261801Y-70101967D01*
X2258124Y-70139300D01*
X2272798Y-70288285D01*
X2316254Y-70431546D01*
X2316784Y-70432538D01*
X2313992Y-70441743D01*
X2296928Y-70614997D01*
X2296928Y-71240003D01*
X2313992Y-71413257D01*
X2364528Y-71579852D01*
X2446595Y-71733388D01*
X2557037Y-71867963D01*
X2691612Y-71978405D01*
X2845148Y-72060472D01*
X3011743Y-72111008D01*
X3184997Y-72128072D01*
X4435003Y-72128072D01*
X4608257Y-72111008D01*
X4774852Y-72060472D01*
X4928388Y-71978405D01*
X5062963Y-71867963D01*
X5173405Y-71733388D01*
X5197933Y-71687500D01*
X6226928Y-71687500D01*
X6226928Y-72380003D01*
X6243992Y-72553257D01*
X6294528Y-72719852D01*
X6376595Y-72873388D01*
X6487037Y-73007963D01*
X6621612Y-73118405D01*
X6775148Y-73200472D01*
X6941743Y-73251008D01*
X7114997Y-73268072D01*
X7663382Y-73268072D01*
X7501743Y-73283992D01*
X7335148Y-73334528D01*
X7181612Y-73416595D01*
X7047037Y-73527037D01*
X6936595Y-73661612D01*
X6854528Y-73815148D01*
X6803992Y-73981743D01*
X6786928Y-74154997D01*
X6786928Y-74780003D01*
X6798204Y-74894494D01*
X4389003Y-77303696D01*
X4359999Y-77327499D01*
X4304871Y-77394674D01*
X4265800Y-77442281D01*
X4265800Y-75053072D01*
X4435003Y-75053072D01*
X4608257Y-75036008D01*
X4774852Y-74985472D01*
X4928388Y-74903405D01*
X5062963Y-74792963D01*
X5173405Y-74658388D01*
X5255472Y-74504852D01*
X5306008Y-74338257D01*
X5323072Y-74165003D01*
X5323072Y-73539997D01*
X5306008Y-73366743D01*
X5255472Y-73200148D01*
X5173405Y-73046612D01*
X5062963Y-72912037D01*
X4928388Y-72801595D01*
X4774852Y-72719528D01*
X4608257Y-72668992D01*
X4435003Y-72651928D01*
X3184997Y-72651928D01*
X3011743Y-72668992D01*
X2845148Y-72719528D01*
X2691612Y-72801595D01*
X2557037Y-72912037D01*
X2446595Y-73046612D01*
X2364528Y-73200148D01*
X2313992Y-73366743D01*
X2296928Y-73539997D01*
X2296928Y-74165003D01*
X2313992Y-74338257D01*
X2364528Y-74504852D01*
X2446595Y-74658388D01*
X2557037Y-74792963D01*
X2691612Y-74903405D01*
X2745800Y-74932369D01*
X2745801Y-94828067D01*
X2742124Y-94865400D01*
X2756798Y-95014385D01*
X2800254Y-95157646D01*
X2870826Y-95289676D01*
X2942001Y-95376402D01*
X2965800Y-95405401D01*
X2994798Y-95429199D01*
X3241173Y-95675574D01*
X3200000Y-95882565D01*
X3200000Y-96217435D01*
X3265330Y-96545872D01*
X3393479Y-96855252D01*
X3579523Y-97133687D01*
X3816313Y-97370477D01*
X4094748Y-97556521D01*
X4404128Y-97684670D01*
X4732565Y-97750000D01*
X5067435Y-97750000D01*
X5395872Y-97684670D01*
X5705252Y-97556521D01*
X5983687Y-97370477D01*
X6220477Y-97133687D01*
X6406521Y-96855252D01*
X6516042Y-96590844D01*
X11014600Y-101089402D01*
X11014601Y-105022368D01*
X11010924Y-105059700D01*
X11025598Y-105208685D01*
X11057847Y-105315000D01*
X6299781Y-105315000D01*
X6406521Y-105155252D01*
X6534670Y-104845872D01*
X6600000Y-104517435D01*
X6600000Y-104182565D01*
X6534670Y-103854128D01*
X6406521Y-103544748D01*
X6220477Y-103266313D01*
X5983687Y-103029523D01*
X5705252Y-102843479D01*
X5395872Y-102715330D01*
X5067435Y-102650000D01*
X4732565Y-102650000D01*
X4404128Y-102715330D01*
X4094748Y-102843479D01*
X3816313Y-103029523D01*
X3579523Y-103266313D01*
X3393479Y-103544748D01*
X3265330Y-103854128D01*
X3200000Y-104182565D01*
X3200000Y-104517435D01*
X3265330Y-104845872D01*
X3393479Y-105155252D01*
X3500219Y-105315000D01*
X685000Y-105315000D01*
X685000Y-23432565D01*
X3200000Y-23432565D01*
X3200000Y-23767435D01*
X3265330Y-24095872D01*
X3393479Y-24405252D01*
X3579523Y-24683687D01*
X3816313Y-24920477D01*
X4094748Y-25106521D01*
X4404128Y-25234670D01*
X4732565Y-25300000D01*
X5067435Y-25300000D01*
X5395872Y-25234670D01*
X5705252Y-25106521D01*
X5983687Y-24920477D01*
X6220477Y-24683687D01*
X6406521Y-24405252D01*
X6534670Y-24095872D01*
X6600000Y-23767435D01*
X6600000Y-23432565D01*
X6534670Y-23104128D01*
X6406521Y-22794748D01*
X6220477Y-22516313D01*
X5983687Y-22279523D01*
X5705252Y-22093479D01*
X5395872Y-21965330D01*
X5067435Y-21900000D01*
X4732565Y-21900000D01*
X4404128Y-21965330D01*
X4094748Y-22093479D01*
X3816313Y-22279523D01*
X3579523Y-22516313D01*
X3393479Y-22794748D01*
X3265330Y-23104128D01*
X3200000Y-23432565D01*
X685000Y-23432565D01*
X685000Y-685000D01*
X3610836Y-685000D01*
X3579523Y-716313D01*
G37*
%TD.AperFunction*%
D22*
X6786928Y-77079997D02*
X6786928Y-77705003D01*
X6803992Y-77878257D01*
X6854528Y-78044852D01*
X6936595Y-78198388D01*
X7047037Y-78332963D01*
X7181612Y-78443405D01*
X7335148Y-78525472D01*
X7501743Y-78576008D01*
X7540000Y-78579776D01*
X7540001Y-83536468D01*
X7536324Y-83573800D01*
X7540001Y-83611133D01*
X7549387Y-83706424D01*
X7550998Y-83722785D01*
X7594454Y-83866046D01*
X7665026Y-83998076D01*
X7728201Y-84075054D01*
X7760000Y-84113801D01*
X7788998Y-84137599D01*
X9815901Y-86164503D01*
X9839699Y-86193501D01*
X9868697Y-86217299D01*
X9955423Y-86288474D01*
X10087453Y-86359046D01*
X10230714Y-86402503D01*
X10342367Y-86413500D01*
X10342377Y-86413500D01*
X10379700Y-86417176D01*
X10417023Y-86413500D01*
X11790000Y-86413500D01*
X11790001Y-99715199D01*
X6503072Y-94428271D01*
X6503072Y-92035000D01*
X6490812Y-91910518D01*
X6454502Y-91790820D01*
X6395537Y-91680506D01*
X6373875Y-91654111D01*
X6406521Y-91605252D01*
X6534670Y-91295872D01*
X6600000Y-90967435D01*
X6600000Y-90632565D01*
X6534670Y-90304128D01*
X6406521Y-89994748D01*
X6220477Y-89716313D01*
X5983687Y-89479523D01*
X5705252Y-89293479D01*
X5395872Y-89165330D01*
X5067435Y-89100000D01*
X4732565Y-89100000D01*
X4404128Y-89165330D01*
X4265800Y-89222627D01*
X4265800Y-84077373D01*
X4404128Y-84134670D01*
X4732565Y-84200000D01*
X5067435Y-84200000D01*
X5395872Y-84134670D01*
X5705252Y-84006521D01*
X5983687Y-83820477D01*
X6220477Y-83583687D01*
X6406521Y-83305252D01*
X6534670Y-82995872D01*
X6600000Y-82667435D01*
X6600000Y-82332565D01*
X6534670Y-82004128D01*
X6406521Y-81694748D01*
X6220477Y-81416313D01*
X5983687Y-81179523D01*
X5705252Y-80993479D01*
X5660000Y-80974735D01*
X5660000Y-78182301D01*
X6789618Y-77052683D01*
X6786928Y-77079997D01*
%TA.AperFunction,NonConductor*%
D23*
G36*
X6786928Y-77079997D02*
G01*
X6786928Y-77705003D01*
X6803992Y-77878257D01*
X6854528Y-78044852D01*
X6936595Y-78198388D01*
X7047037Y-78332963D01*
X7181612Y-78443405D01*
X7335148Y-78525472D01*
X7501743Y-78576008D01*
X7540000Y-78579776D01*
X7540001Y-83536468D01*
X7536324Y-83573800D01*
X7540001Y-83611133D01*
X7549387Y-83706424D01*
X7550998Y-83722785D01*
X7594454Y-83866046D01*
X7665026Y-83998076D01*
X7728201Y-84075054D01*
X7760000Y-84113801D01*
X7788998Y-84137599D01*
X9815901Y-86164503D01*
X9839699Y-86193501D01*
X9868697Y-86217299D01*
X9955423Y-86288474D01*
X10087453Y-86359046D01*
X10230714Y-86402503D01*
X10342367Y-86413500D01*
X10342377Y-86413500D01*
X10379700Y-86417176D01*
X10417023Y-86413500D01*
X11790000Y-86413500D01*
X11790001Y-99715199D01*
X6503072Y-94428271D01*
X6503072Y-92035000D01*
X6490812Y-91910518D01*
X6454502Y-91790820D01*
X6395537Y-91680506D01*
X6373875Y-91654111D01*
X6406521Y-91605252D01*
X6534670Y-91295872D01*
X6600000Y-90967435D01*
X6600000Y-90632565D01*
X6534670Y-90304128D01*
X6406521Y-89994748D01*
X6220477Y-89716313D01*
X5983687Y-89479523D01*
X5705252Y-89293479D01*
X5395872Y-89165330D01*
X5067435Y-89100000D01*
X4732565Y-89100000D01*
X4404128Y-89165330D01*
X4265800Y-89222627D01*
X4265800Y-84077373D01*
X4404128Y-84134670D01*
X4732565Y-84200000D01*
X5067435Y-84200000D01*
X5395872Y-84134670D01*
X5705252Y-84006521D01*
X5983687Y-83820477D01*
X6220477Y-83583687D01*
X6406521Y-83305252D01*
X6534670Y-82995872D01*
X6600000Y-82667435D01*
X6600000Y-82332565D01*
X6534670Y-82004128D01*
X6406521Y-81694748D01*
X6220477Y-81416313D01*
X5983687Y-81179523D01*
X5705252Y-80993479D01*
X5660000Y-80974735D01*
X5660000Y-78182301D01*
X6789618Y-77052683D01*
X6786928Y-77079997D01*
G37*
%TD.AperFunction*%
D22*
X24961023Y-84893500D02*
X24798977Y-84893500D01*
X24880000Y-84772240D01*
X24961023Y-84893500D01*
%TA.AperFunction,NonConductor*%
D23*
G36*
X24961023Y-84893500D02*
G01*
X24798977Y-84893500D01*
X24880000Y-84772240D01*
X24961023Y-84893500D01*
G37*
%TD.AperFunction*%
D22*
X22421023Y-84893500D02*
X22258977Y-84893500D01*
X22340000Y-84772240D01*
X22421023Y-84893500D01*
%TA.AperFunction,NonConductor*%
D23*
G36*
X22421023Y-84893500D02*
G01*
X22258977Y-84893500D01*
X22340000Y-84772240D01*
X22421023Y-84893500D01*
G37*
%TD.AperFunction*%
D22*
X19881023Y-84893500D02*
X19718977Y-84893500D01*
X19800000Y-84772240D01*
X19881023Y-84893500D01*
%TA.AperFunction,NonConductor*%
D23*
G36*
X19881023Y-84893500D02*
G01*
X19718977Y-84893500D01*
X19800000Y-84772240D01*
X19881023Y-84893500D01*
G37*
%TD.AperFunction*%
D22*
X9104528Y-82244852D02*
X9186595Y-82398388D01*
X9297037Y-82532963D01*
X9431612Y-82643405D01*
X9585148Y-82725472D01*
X9586581Y-82725907D01*
X9529463Y-82795506D01*
X9470498Y-82905820D01*
X9434188Y-83025518D01*
X9421928Y-83150000D01*
X9421928Y-83620927D01*
X9060000Y-83258999D01*
X9060000Y-82098063D01*
X9104528Y-82244852D01*
%TA.AperFunction,NonConductor*%
D23*
G36*
X9104528Y-82244852D02*
G01*
X9186595Y-82398388D01*
X9297037Y-82532963D01*
X9431612Y-82643405D01*
X9585148Y-82725472D01*
X9586581Y-82725907D01*
X9529463Y-82795506D01*
X9470498Y-82905820D01*
X9434188Y-83025518D01*
X9421928Y-83150000D01*
X9421928Y-83620927D01*
X9060000Y-83258999D01*
X9060000Y-82098063D01*
X9104528Y-82244852D01*
G37*
%TD.AperFunction*%
D22*
X22766261Y-38868601D02*
X22964893Y-39348141D01*
X23253262Y-39779715D01*
X23620285Y-40146738D01*
X24051859Y-40435107D01*
X24531399Y-40633739D01*
X25040475Y-40735000D01*
X25559525Y-40735000D01*
X26068601Y-40633739D01*
X26548141Y-40435107D01*
X26979715Y-40146738D01*
X27102501Y-40023952D01*
X27102500Y-51210185D01*
X26813725Y-50973193D01*
X26467147Y-50787943D01*
X26091088Y-50673867D01*
X25700000Y-50635348D01*
X25308913Y-50673867D01*
X24932854Y-50787943D01*
X24586276Y-50973193D01*
X24282498Y-51222497D01*
X24033193Y-51526275D01*
X23847943Y-51872853D01*
X23733867Y-52248912D01*
X23705000Y-52542002D01*
X23705000Y-53257997D01*
X23733867Y-53551087D01*
X23847943Y-53927146D01*
X24033193Y-54273725D01*
X24282497Y-54577503D01*
X24586275Y-54826807D01*
X24932853Y-55012057D01*
X25308912Y-55126133D01*
X25700000Y-55164652D01*
X26091087Y-55126133D01*
X26467146Y-55012057D01*
X26813725Y-54826807D01*
X27102500Y-54589815D01*
X27102500Y-64012067D01*
X27056612Y-64036595D01*
X26922037Y-64147037D01*
X26811595Y-64281612D01*
X26729528Y-64435148D01*
X26678992Y-64601743D01*
X26661928Y-64774997D01*
X26661928Y-66025003D01*
X26678992Y-66198257D01*
X26729528Y-66364852D01*
X26811595Y-66518388D01*
X26922037Y-66652963D01*
X27056612Y-66763405D01*
X27210148Y-66845472D01*
X27376743Y-66896008D01*
X27549997Y-66913072D01*
X28175003Y-66913072D01*
X28348257Y-66896008D01*
X28514852Y-66845472D01*
X28641300Y-66777884D01*
X28641300Y-73209198D01*
X27499686Y-74350812D01*
X27635107Y-74148141D01*
X27833739Y-73668601D01*
X27935000Y-73159525D01*
X27935000Y-72640475D01*
X27833739Y-72131399D01*
X27635107Y-71651859D01*
X27346738Y-71220285D01*
X26979715Y-70853262D01*
X26548141Y-70564893D01*
X26068601Y-70366261D01*
X25559525Y-70265000D01*
X25040475Y-70265000D01*
X24531399Y-70366261D01*
X24051859Y-70564893D01*
X23620285Y-70853262D01*
X23253262Y-71220285D01*
X22964893Y-71651859D01*
X22766261Y-72131399D01*
X22665000Y-72640475D01*
X22665000Y-73159525D01*
X22766261Y-73668601D01*
X22964893Y-74148141D01*
X23253262Y-74579715D01*
X23620285Y-74946738D01*
X24051859Y-75235107D01*
X24531399Y-75433739D01*
X25040475Y-75535000D01*
X25559525Y-75535000D01*
X26068601Y-75433739D01*
X26548141Y-75235107D01*
X26750813Y-75099685D01*
X26211798Y-75638701D01*
X26182800Y-75662499D01*
X26159002Y-75691497D01*
X26159001Y-75691498D01*
X26087826Y-75778224D01*
X26017254Y-75910254D01*
X25973798Y-76053515D01*
X25959124Y-76202500D01*
X25962801Y-76239832D01*
X25962800Y-77774177D01*
X25959124Y-77811500D01*
X25962800Y-77848822D01*
X25962800Y-77848832D01*
X25969120Y-77913000D01*
X21660000Y-77913000D01*
X21660000Y-71504822D01*
X21663676Y-71467499D01*
X21660000Y-71430176D01*
X21660000Y-71430167D01*
X21649003Y-71318514D01*
X21617018Y-71213072D01*
X21695000Y-71213072D01*
X21868254Y-71196008D01*
X22034850Y-71145472D01*
X22188386Y-71063405D01*
X22322962Y-70952962D01*
X22433405Y-70818386D01*
X22515472Y-70664850D01*
X22566008Y-70498254D01*
X22583072Y-70325000D01*
X22583072Y-69699231D01*
X22751009Y-69531294D01*
X22780001Y-69507501D01*
X22803795Y-69478508D01*
X22803799Y-69478504D01*
X22874973Y-69391777D01*
X22874974Y-69391776D01*
X22945546Y-69259747D01*
X22989003Y-69116486D01*
X23000000Y-69004833D01*
X23000000Y-69004824D01*
X23003676Y-68967501D01*
X23000000Y-68930178D01*
X23000000Y-66571495D01*
X23118505Y-66492312D01*
X23332312Y-66278505D01*
X23411495Y-66160000D01*
X23750224Y-66160000D01*
X23753992Y-66198257D01*
X23804528Y-66364852D01*
X23886595Y-66518388D01*
X23997037Y-66652963D01*
X24131612Y-66763405D01*
X24285148Y-66845472D01*
X24451743Y-66896008D01*
X24624997Y-66913072D01*
X25250003Y-66913072D01*
X25423257Y-66896008D01*
X25589852Y-66845472D01*
X25743388Y-66763405D01*
X25877963Y-66652963D01*
X25988405Y-66518388D01*
X26070472Y-66364852D01*
X26121008Y-66198257D01*
X26138072Y-66025003D01*
X26138072Y-64774997D01*
X26121008Y-64601743D01*
X26070472Y-64435148D01*
X25988405Y-64281612D01*
X25877963Y-64147037D01*
X25743388Y-64036595D01*
X25589852Y-63954528D01*
X25423257Y-63903992D01*
X25250003Y-63886928D01*
X24624997Y-63886928D01*
X24451743Y-63903992D01*
X24285148Y-63954528D01*
X24131612Y-64036595D01*
X23997037Y-64147037D01*
X23886595Y-64281612D01*
X23804528Y-64435148D01*
X23753992Y-64601743D01*
X23750224Y-64640000D01*
X23528091Y-64640000D01*
X23500299Y-64572905D01*
X23332312Y-64321495D01*
X23118505Y-64107688D01*
X22867095Y-63939701D01*
X22587743Y-63823989D01*
X22291184Y-63765000D01*
X21988816Y-63765000D01*
X21692257Y-63823989D01*
X21412905Y-63939701D01*
X21161495Y-64107688D01*
X21095056Y-64174127D01*
X21089502Y-64155820D01*
X21030537Y-64045506D01*
X20951185Y-63948815D01*
X20854494Y-63869463D01*
X20744180Y-63810498D01*
X20624482Y-63774188D01*
X20500000Y-63761928D01*
X18700000Y-63761928D01*
X18575518Y-63774188D01*
X18455820Y-63810498D01*
X18345506Y-63869463D01*
X18248815Y-63948815D01*
X18169463Y-64045506D01*
X18110498Y-64155820D01*
X18074188Y-64275518D01*
X18061928Y-64400000D01*
X18061928Y-66200000D01*
X18074188Y-66324482D01*
X18110498Y-66444180D01*
X18169463Y-66554494D01*
X18248815Y-66651185D01*
X18345506Y-66730537D01*
X18455820Y-66789502D01*
X18522093Y-66809606D01*
X18518824Y-66842800D01*
X18522500Y-66880123D01*
X18522501Y-68598705D01*
X18451614Y-68636595D01*
X18317038Y-68747038D01*
X18206595Y-68881614D01*
X18124528Y-69035150D01*
X18073992Y-69201746D01*
X18056928Y-69375000D01*
X18056928Y-70325000D01*
X18073992Y-70498254D01*
X18124528Y-70664850D01*
X18206595Y-70818386D01*
X18317038Y-70952962D01*
X18451614Y-71063405D01*
X18605150Y-71145472D01*
X18771746Y-71196008D01*
X18945000Y-71213072D01*
X19570770Y-71213072D01*
X20140001Y-71782304D01*
X20140000Y-78561687D01*
X19921495Y-78707688D01*
X19707688Y-78921495D01*
X19650000Y-79007831D01*
X19592312Y-78921495D01*
X19378505Y-78707688D01*
X19127095Y-78539701D01*
X18847743Y-78423989D01*
X18551184Y-78365000D01*
X18248816Y-78365000D01*
X17952257Y-78423989D01*
X17672905Y-78539701D01*
X17421495Y-78707688D01*
X17207688Y-78921495D01*
X17039701Y-79172905D01*
X16923989Y-79452257D01*
X16865000Y-79748816D01*
X16865000Y-80051184D01*
X16923989Y-80347743D01*
X17039701Y-80627095D01*
X17207688Y-80878505D01*
X17421495Y-81092312D01*
X17672905Y-81260299D01*
X17952257Y-81376011D01*
X18248816Y-81435000D01*
X18551184Y-81435000D01*
X18847743Y-81376011D01*
X19127095Y-81260299D01*
X19378505Y-81092312D01*
X19592312Y-80878505D01*
X19650000Y-80792169D01*
X19707688Y-80878505D01*
X19921495Y-81092312D01*
X20172905Y-81260299D01*
X20452257Y-81376011D01*
X20748816Y-81435000D01*
X21051184Y-81435000D01*
X21347743Y-81376011D01*
X21627095Y-81260299D01*
X21878505Y-81092312D01*
X22092312Y-80878505D01*
X22150000Y-80792169D01*
X22207688Y-80878505D01*
X22421495Y-81092312D01*
X22672905Y-81260299D01*
X22952257Y-81376011D01*
X23248816Y-81435000D01*
X23551184Y-81435000D01*
X23847743Y-81376011D01*
X24127095Y-81260299D01*
X24378505Y-81092312D01*
X24592312Y-80878505D01*
X24760299Y-80627095D01*
X24876011Y-80347743D01*
X24935000Y-80051184D01*
X24935000Y-79748816D01*
X24876011Y-79452257D01*
X24868034Y-79433000D01*
X26095699Y-79433000D01*
X26438204Y-79775506D01*
X26426928Y-79889997D01*
X26426928Y-80515003D01*
X26443992Y-80688257D01*
X26494528Y-80854852D01*
X26576595Y-81008388D01*
X26687037Y-81142963D01*
X26821612Y-81253405D01*
X26975148Y-81335472D01*
X27141743Y-81386008D01*
X27314997Y-81403072D01*
X27475726Y-81403072D01*
X26814099Y-82064700D01*
X25630522Y-82064700D01*
X25593199Y-82061024D01*
X25555876Y-82064700D01*
X25555867Y-82064700D01*
X25444214Y-82075697D01*
X25339372Y-82107500D01*
X25300953Y-82119154D01*
X25168923Y-82189726D01*
X25101753Y-82244852D01*
X25053199Y-82284699D01*
X25029402Y-82313696D01*
X24520630Y-82822469D01*
X24313411Y-82684010D01*
X24043158Y-82572068D01*
X23756260Y-82515000D01*
X23463740Y-82515000D01*
X23176842Y-82572068D01*
X22906589Y-82684010D01*
X22663368Y-82846525D01*
X22456525Y-83053368D01*
X22340000Y-83227760D01*
X22223475Y-83053368D01*
X22016632Y-82846525D01*
X21773411Y-82684010D01*
X21503158Y-82572068D01*
X21216260Y-82515000D01*
X20923740Y-82515000D01*
X20636842Y-82572068D01*
X20366589Y-82684010D01*
X20123368Y-82846525D01*
X19916525Y-83053368D01*
X19800000Y-83227760D01*
X19683475Y-83053368D01*
X19476632Y-82846525D01*
X19233411Y-82684010D01*
X18963158Y-82572068D01*
X18676260Y-82515000D01*
X18383740Y-82515000D01*
X18096842Y-82572068D01*
X17826589Y-82684010D01*
X17583368Y-82846525D01*
X17376525Y-83053368D01*
X17260000Y-83227760D01*
X17143475Y-83053368D01*
X16936632Y-82846525D01*
X16743089Y-82717204D01*
X16739003Y-82675714D01*
X16695546Y-82532453D01*
X16624974Y-82400424D01*
X16568144Y-82331176D01*
X16553799Y-82313696D01*
X16553795Y-82313692D01*
X16530001Y-82284699D01*
X16501008Y-82260905D01*
X14811400Y-80571299D01*
X14811400Y-74937853D01*
X14820285Y-74946738D01*
X15251859Y-75235107D01*
X15731399Y-75433739D01*
X16240475Y-75535000D01*
X16759525Y-75535000D01*
X17268601Y-75433739D01*
X17748141Y-75235107D01*
X18179715Y-74946738D01*
X18546738Y-74579715D01*
X18835107Y-74148141D01*
X19033739Y-73668601D01*
X19135000Y-73159525D01*
X19135000Y-72640475D01*
X19033739Y-72131399D01*
X18835107Y-71651859D01*
X18546738Y-71220285D01*
X18179715Y-70853262D01*
X17748141Y-70564893D01*
X17268601Y-70366261D01*
X16759525Y-70265000D01*
X16240475Y-70265000D01*
X15731399Y-70366261D01*
X15251859Y-70564893D01*
X14820285Y-70853262D01*
X14811400Y-70862147D01*
X14811400Y-62351222D01*
X14815076Y-62313900D01*
X14811400Y-62276577D01*
X14811400Y-62276567D01*
X14800403Y-62164914D01*
X14756946Y-62021653D01*
X14746933Y-62002921D01*
X14849997Y-62013072D01*
X15475003Y-62013072D01*
X15648257Y-61996008D01*
X15814852Y-61945472D01*
X15968388Y-61863405D01*
X16102963Y-61752963D01*
X16213405Y-61618388D01*
X16295472Y-61464852D01*
X16346008Y-61298257D01*
X16349776Y-61260000D01*
X16861928Y-61260000D01*
X16861928Y-61300000D01*
X16874188Y-61424482D01*
X16910498Y-61544180D01*
X16969463Y-61654494D01*
X17048815Y-61751185D01*
X17145506Y-61830537D01*
X17255820Y-61889502D01*
X17375518Y-61925812D01*
X17500000Y-61938072D01*
X19300000Y-61938072D01*
X19424482Y-61925812D01*
X19544180Y-61889502D01*
X19654494Y-61830537D01*
X19751185Y-61751185D01*
X19830537Y-61654494D01*
X19883880Y-61554697D01*
X19921495Y-61592312D01*
X20172905Y-61760299D01*
X20452257Y-61876011D01*
X20748816Y-61935000D01*
X21051184Y-61935000D01*
X21347743Y-61876011D01*
X21627095Y-61760299D01*
X21878505Y-61592312D01*
X22092312Y-61378505D01*
X22150000Y-61292169D01*
X22207688Y-61378505D01*
X22421495Y-61592312D01*
X22672905Y-61760299D01*
X22952257Y-61876011D01*
X23248816Y-61935000D01*
X23551184Y-61935000D01*
X23847743Y-61876011D01*
X24127095Y-61760299D01*
X24378505Y-61592312D01*
X24592312Y-61378505D01*
X24760299Y-61127095D01*
X24876011Y-60847743D01*
X24935000Y-60551184D01*
X24935000Y-60248816D01*
X24876011Y-59952257D01*
X24760299Y-59672905D01*
X24592312Y-59421495D01*
X24378505Y-59207688D01*
X24127095Y-59039701D01*
X23847743Y-58923989D01*
X23551184Y-58865000D01*
X23248816Y-58865000D01*
X22991071Y-58916268D01*
X19260000Y-55185199D01*
X19260000Y-49454320D01*
X19304494Y-49430537D01*
X19401185Y-49351185D01*
X19480537Y-49254494D01*
X19539502Y-49144180D01*
X19575812Y-49024482D01*
X19588072Y-48900000D01*
X19588072Y-47700000D01*
X19575812Y-47575518D01*
X19539502Y-47455820D01*
X19480537Y-47345506D01*
X19401185Y-47248815D01*
X19304494Y-47169463D01*
X19217899Y-47123176D01*
X19205546Y-47082453D01*
X19160000Y-46997244D01*
X19160000Y-46438313D01*
X19378505Y-46292312D01*
X19592312Y-46078505D01*
X19650000Y-45992169D01*
X19707688Y-46078505D01*
X19921495Y-46292312D01*
X20172905Y-46460299D01*
X20452257Y-46576011D01*
X20748816Y-46635000D01*
X21051184Y-46635000D01*
X21347743Y-46576011D01*
X21627095Y-46460299D01*
X21878505Y-46292312D01*
X22092312Y-46078505D01*
X22150000Y-45992169D01*
X22207688Y-46078505D01*
X22421495Y-46292312D01*
X22672905Y-46460299D01*
X22952257Y-46576011D01*
X23248816Y-46635000D01*
X23551184Y-46635000D01*
X23847743Y-46576011D01*
X24127095Y-46460299D01*
X24378505Y-46292312D01*
X24592312Y-46078505D01*
X24760299Y-45827095D01*
X24876011Y-45547743D01*
X24935000Y-45251184D01*
X24935000Y-44948816D01*
X24876011Y-44652257D01*
X24760299Y-44372905D01*
X24592312Y-44121495D01*
X24378505Y-43907688D01*
X24127095Y-43739701D01*
X23847743Y-43623989D01*
X23551184Y-43565000D01*
X23248816Y-43565000D01*
X22952257Y-43623989D01*
X22672905Y-43739701D01*
X22542500Y-43826835D01*
X22542500Y-42027933D01*
X22588388Y-42003405D01*
X22722963Y-41892963D01*
X22833405Y-41758388D01*
X22915472Y-41604852D01*
X22966008Y-41438257D01*
X22983072Y-41265003D01*
X22983072Y-40014997D01*
X22966008Y-39841743D01*
X22915472Y-39675148D01*
X22833405Y-39521612D01*
X22722963Y-39387037D01*
X22588388Y-39276595D01*
X22542500Y-39252067D01*
X22542500Y-38429219D01*
X22554852Y-38425472D01*
X22666271Y-38365917D01*
X22766261Y-38868601D01*
%TA.AperFunction,NonConductor*%
D23*
G36*
X22766261Y-38868601D02*
G01*
X22964893Y-39348141D01*
X23253262Y-39779715D01*
X23620285Y-40146738D01*
X24051859Y-40435107D01*
X24531399Y-40633739D01*
X25040475Y-40735000D01*
X25559525Y-40735000D01*
X26068601Y-40633739D01*
X26548141Y-40435107D01*
X26979715Y-40146738D01*
X27102501Y-40023952D01*
X27102500Y-51210185D01*
X26813725Y-50973193D01*
X26467147Y-50787943D01*
X26091088Y-50673867D01*
X25700000Y-50635348D01*
X25308913Y-50673867D01*
X24932854Y-50787943D01*
X24586276Y-50973193D01*
X24282498Y-51222497D01*
X24033193Y-51526275D01*
X23847943Y-51872853D01*
X23733867Y-52248912D01*
X23705000Y-52542002D01*
X23705000Y-53257997D01*
X23733867Y-53551087D01*
X23847943Y-53927146D01*
X24033193Y-54273725D01*
X24282497Y-54577503D01*
X24586275Y-54826807D01*
X24932853Y-55012057D01*
X25308912Y-55126133D01*
X25700000Y-55164652D01*
X26091087Y-55126133D01*
X26467146Y-55012057D01*
X26813725Y-54826807D01*
X27102500Y-54589815D01*
X27102500Y-64012067D01*
X27056612Y-64036595D01*
X26922037Y-64147037D01*
X26811595Y-64281612D01*
X26729528Y-64435148D01*
X26678992Y-64601743D01*
X26661928Y-64774997D01*
X26661928Y-66025003D01*
X26678992Y-66198257D01*
X26729528Y-66364852D01*
X26811595Y-66518388D01*
X26922037Y-66652963D01*
X27056612Y-66763405D01*
X27210148Y-66845472D01*
X27376743Y-66896008D01*
X27549997Y-66913072D01*
X28175003Y-66913072D01*
X28348257Y-66896008D01*
X28514852Y-66845472D01*
X28641300Y-66777884D01*
X28641300Y-73209198D01*
X27499686Y-74350812D01*
X27635107Y-74148141D01*
X27833739Y-73668601D01*
X27935000Y-73159525D01*
X27935000Y-72640475D01*
X27833739Y-72131399D01*
X27635107Y-71651859D01*
X27346738Y-71220285D01*
X26979715Y-70853262D01*
X26548141Y-70564893D01*
X26068601Y-70366261D01*
X25559525Y-70265000D01*
X25040475Y-70265000D01*
X24531399Y-70366261D01*
X24051859Y-70564893D01*
X23620285Y-70853262D01*
X23253262Y-71220285D01*
X22964893Y-71651859D01*
X22766261Y-72131399D01*
X22665000Y-72640475D01*
X22665000Y-73159525D01*
X22766261Y-73668601D01*
X22964893Y-74148141D01*
X23253262Y-74579715D01*
X23620285Y-74946738D01*
X24051859Y-75235107D01*
X24531399Y-75433739D01*
X25040475Y-75535000D01*
X25559525Y-75535000D01*
X26068601Y-75433739D01*
X26548141Y-75235107D01*
X26750813Y-75099685D01*
X26211798Y-75638701D01*
X26182800Y-75662499D01*
X26159002Y-75691497D01*
X26159001Y-75691498D01*
X26087826Y-75778224D01*
X26017254Y-75910254D01*
X25973798Y-76053515D01*
X25959124Y-76202500D01*
X25962801Y-76239832D01*
X25962800Y-77774177D01*
X25959124Y-77811500D01*
X25962800Y-77848822D01*
X25962800Y-77848832D01*
X25969120Y-77913000D01*
X21660000Y-77913000D01*
X21660000Y-71504822D01*
X21663676Y-71467499D01*
X21660000Y-71430176D01*
X21660000Y-71430167D01*
X21649003Y-71318514D01*
X21617018Y-71213072D01*
X21695000Y-71213072D01*
X21868254Y-71196008D01*
X22034850Y-71145472D01*
X22188386Y-71063405D01*
X22322962Y-70952962D01*
X22433405Y-70818386D01*
X22515472Y-70664850D01*
X22566008Y-70498254D01*
X22583072Y-70325000D01*
X22583072Y-69699231D01*
X22751009Y-69531294D01*
X22780001Y-69507501D01*
X22803795Y-69478508D01*
X22803799Y-69478504D01*
X22874973Y-69391777D01*
X22874974Y-69391776D01*
X22945546Y-69259747D01*
X22989003Y-69116486D01*
X23000000Y-69004833D01*
X23000000Y-69004824D01*
X23003676Y-68967501D01*
X23000000Y-68930178D01*
X23000000Y-66571495D01*
X23118505Y-66492312D01*
X23332312Y-66278505D01*
X23411495Y-66160000D01*
X23750224Y-66160000D01*
X23753992Y-66198257D01*
X23804528Y-66364852D01*
X23886595Y-66518388D01*
X23997037Y-66652963D01*
X24131612Y-66763405D01*
X24285148Y-66845472D01*
X24451743Y-66896008D01*
X24624997Y-66913072D01*
X25250003Y-66913072D01*
X25423257Y-66896008D01*
X25589852Y-66845472D01*
X25743388Y-66763405D01*
X25877963Y-66652963D01*
X25988405Y-66518388D01*
X26070472Y-66364852D01*
X26121008Y-66198257D01*
X26138072Y-66025003D01*
X26138072Y-64774997D01*
X26121008Y-64601743D01*
X26070472Y-64435148D01*
X25988405Y-64281612D01*
X25877963Y-64147037D01*
X25743388Y-64036595D01*
X25589852Y-63954528D01*
X25423257Y-63903992D01*
X25250003Y-63886928D01*
X24624997Y-63886928D01*
X24451743Y-63903992D01*
X24285148Y-63954528D01*
X24131612Y-64036595D01*
X23997037Y-64147037D01*
X23886595Y-64281612D01*
X23804528Y-64435148D01*
X23753992Y-64601743D01*
X23750224Y-64640000D01*
X23528091Y-64640000D01*
X23500299Y-64572905D01*
X23332312Y-64321495D01*
X23118505Y-64107688D01*
X22867095Y-63939701D01*
X22587743Y-63823989D01*
X22291184Y-63765000D01*
X21988816Y-63765000D01*
X21692257Y-63823989D01*
X21412905Y-63939701D01*
X21161495Y-64107688D01*
X21095056Y-64174127D01*
X21089502Y-64155820D01*
X21030537Y-64045506D01*
X20951185Y-63948815D01*
X20854494Y-63869463D01*
X20744180Y-63810498D01*
X20624482Y-63774188D01*
X20500000Y-63761928D01*
X18700000Y-63761928D01*
X18575518Y-63774188D01*
X18455820Y-63810498D01*
X18345506Y-63869463D01*
X18248815Y-63948815D01*
X18169463Y-64045506D01*
X18110498Y-64155820D01*
X18074188Y-64275518D01*
X18061928Y-64400000D01*
X18061928Y-66200000D01*
X18074188Y-66324482D01*
X18110498Y-66444180D01*
X18169463Y-66554494D01*
X18248815Y-66651185D01*
X18345506Y-66730537D01*
X18455820Y-66789502D01*
X18522093Y-66809606D01*
X18518824Y-66842800D01*
X18522500Y-66880123D01*
X18522501Y-68598705D01*
X18451614Y-68636595D01*
X18317038Y-68747038D01*
X18206595Y-68881614D01*
X18124528Y-69035150D01*
X18073992Y-69201746D01*
X18056928Y-69375000D01*
X18056928Y-70325000D01*
X18073992Y-70498254D01*
X18124528Y-70664850D01*
X18206595Y-70818386D01*
X18317038Y-70952962D01*
X18451614Y-71063405D01*
X18605150Y-71145472D01*
X18771746Y-71196008D01*
X18945000Y-71213072D01*
X19570770Y-71213072D01*
X20140001Y-71782304D01*
X20140000Y-78561687D01*
X19921495Y-78707688D01*
X19707688Y-78921495D01*
X19650000Y-79007831D01*
X19592312Y-78921495D01*
X19378505Y-78707688D01*
X19127095Y-78539701D01*
X18847743Y-78423989D01*
X18551184Y-78365000D01*
X18248816Y-78365000D01*
X17952257Y-78423989D01*
X17672905Y-78539701D01*
X17421495Y-78707688D01*
X17207688Y-78921495D01*
X17039701Y-79172905D01*
X16923989Y-79452257D01*
X16865000Y-79748816D01*
X16865000Y-80051184D01*
X16923989Y-80347743D01*
X17039701Y-80627095D01*
X17207688Y-80878505D01*
X17421495Y-81092312D01*
X17672905Y-81260299D01*
X17952257Y-81376011D01*
X18248816Y-81435000D01*
X18551184Y-81435000D01*
X18847743Y-81376011D01*
X19127095Y-81260299D01*
X19378505Y-81092312D01*
X19592312Y-80878505D01*
X19650000Y-80792169D01*
X19707688Y-80878505D01*
X19921495Y-81092312D01*
X20172905Y-81260299D01*
X20452257Y-81376011D01*
X20748816Y-81435000D01*
X21051184Y-81435000D01*
X21347743Y-81376011D01*
X21627095Y-81260299D01*
X21878505Y-81092312D01*
X22092312Y-80878505D01*
X22150000Y-80792169D01*
X22207688Y-80878505D01*
X22421495Y-81092312D01*
X22672905Y-81260299D01*
X22952257Y-81376011D01*
X23248816Y-81435000D01*
X23551184Y-81435000D01*
X23847743Y-81376011D01*
X24127095Y-81260299D01*
X24378505Y-81092312D01*
X24592312Y-80878505D01*
X24760299Y-80627095D01*
X24876011Y-80347743D01*
X24935000Y-80051184D01*
X24935000Y-79748816D01*
X24876011Y-79452257D01*
X24868034Y-79433000D01*
X26095699Y-79433000D01*
X26438204Y-79775506D01*
X26426928Y-79889997D01*
X26426928Y-80515003D01*
X26443992Y-80688257D01*
X26494528Y-80854852D01*
X26576595Y-81008388D01*
X26687037Y-81142963D01*
X26821612Y-81253405D01*
X26975148Y-81335472D01*
X27141743Y-81386008D01*
X27314997Y-81403072D01*
X27475726Y-81403072D01*
X26814099Y-82064700D01*
X25630522Y-82064700D01*
X25593199Y-82061024D01*
X25555876Y-82064700D01*
X25555867Y-82064700D01*
X25444214Y-82075697D01*
X25339372Y-82107500D01*
X25300953Y-82119154D01*
X25168923Y-82189726D01*
X25101753Y-82244852D01*
X25053199Y-82284699D01*
X25029402Y-82313696D01*
X24520630Y-82822469D01*
X24313411Y-82684010D01*
X24043158Y-82572068D01*
X23756260Y-82515000D01*
X23463740Y-82515000D01*
X23176842Y-82572068D01*
X22906589Y-82684010D01*
X22663368Y-82846525D01*
X22456525Y-83053368D01*
X22340000Y-83227760D01*
X22223475Y-83053368D01*
X22016632Y-82846525D01*
X21773411Y-82684010D01*
X21503158Y-82572068D01*
X21216260Y-82515000D01*
X20923740Y-82515000D01*
X20636842Y-82572068D01*
X20366589Y-82684010D01*
X20123368Y-82846525D01*
X19916525Y-83053368D01*
X19800000Y-83227760D01*
X19683475Y-83053368D01*
X19476632Y-82846525D01*
X19233411Y-82684010D01*
X18963158Y-82572068D01*
X18676260Y-82515000D01*
X18383740Y-82515000D01*
X18096842Y-82572068D01*
X17826589Y-82684010D01*
X17583368Y-82846525D01*
X17376525Y-83053368D01*
X17260000Y-83227760D01*
X17143475Y-83053368D01*
X16936632Y-82846525D01*
X16743089Y-82717204D01*
X16739003Y-82675714D01*
X16695546Y-82532453D01*
X16624974Y-82400424D01*
X16568144Y-82331176D01*
X16553799Y-82313696D01*
X16553795Y-82313692D01*
X16530001Y-82284699D01*
X16501008Y-82260905D01*
X14811400Y-80571299D01*
X14811400Y-74937853D01*
X14820285Y-74946738D01*
X15251859Y-75235107D01*
X15731399Y-75433739D01*
X16240475Y-75535000D01*
X16759525Y-75535000D01*
X17268601Y-75433739D01*
X17748141Y-75235107D01*
X18179715Y-74946738D01*
X18546738Y-74579715D01*
X18835107Y-74148141D01*
X19033739Y-73668601D01*
X19135000Y-73159525D01*
X19135000Y-72640475D01*
X19033739Y-72131399D01*
X18835107Y-71651859D01*
X18546738Y-71220285D01*
X18179715Y-70853262D01*
X17748141Y-70564893D01*
X17268601Y-70366261D01*
X16759525Y-70265000D01*
X16240475Y-70265000D01*
X15731399Y-70366261D01*
X15251859Y-70564893D01*
X14820285Y-70853262D01*
X14811400Y-70862147D01*
X14811400Y-62351222D01*
X14815076Y-62313900D01*
X14811400Y-62276577D01*
X14811400Y-62276567D01*
X14800403Y-62164914D01*
X14756946Y-62021653D01*
X14746933Y-62002921D01*
X14849997Y-62013072D01*
X15475003Y-62013072D01*
X15648257Y-61996008D01*
X15814852Y-61945472D01*
X15968388Y-61863405D01*
X16102963Y-61752963D01*
X16213405Y-61618388D01*
X16295472Y-61464852D01*
X16346008Y-61298257D01*
X16349776Y-61260000D01*
X16861928Y-61260000D01*
X16861928Y-61300000D01*
X16874188Y-61424482D01*
X16910498Y-61544180D01*
X16969463Y-61654494D01*
X17048815Y-61751185D01*
X17145506Y-61830537D01*
X17255820Y-61889502D01*
X17375518Y-61925812D01*
X17500000Y-61938072D01*
X19300000Y-61938072D01*
X19424482Y-61925812D01*
X19544180Y-61889502D01*
X19654494Y-61830537D01*
X19751185Y-61751185D01*
X19830537Y-61654494D01*
X19883880Y-61554697D01*
X19921495Y-61592312D01*
X20172905Y-61760299D01*
X20452257Y-61876011D01*
X20748816Y-61935000D01*
X21051184Y-61935000D01*
X21347743Y-61876011D01*
X21627095Y-61760299D01*
X21878505Y-61592312D01*
X22092312Y-61378505D01*
X22150000Y-61292169D01*
X22207688Y-61378505D01*
X22421495Y-61592312D01*
X22672905Y-61760299D01*
X22952257Y-61876011D01*
X23248816Y-61935000D01*
X23551184Y-61935000D01*
X23847743Y-61876011D01*
X24127095Y-61760299D01*
X24378505Y-61592312D01*
X24592312Y-61378505D01*
X24760299Y-61127095D01*
X24876011Y-60847743D01*
X24935000Y-60551184D01*
X24935000Y-60248816D01*
X24876011Y-59952257D01*
X24760299Y-59672905D01*
X24592312Y-59421495D01*
X24378505Y-59207688D01*
X24127095Y-59039701D01*
X23847743Y-58923989D01*
X23551184Y-58865000D01*
X23248816Y-58865000D01*
X22991071Y-58916268D01*
X19260000Y-55185199D01*
X19260000Y-49454320D01*
X19304494Y-49430537D01*
X19401185Y-49351185D01*
X19480537Y-49254494D01*
X19539502Y-49144180D01*
X19575812Y-49024482D01*
X19588072Y-48900000D01*
X19588072Y-47700000D01*
X19575812Y-47575518D01*
X19539502Y-47455820D01*
X19480537Y-47345506D01*
X19401185Y-47248815D01*
X19304494Y-47169463D01*
X19217899Y-47123176D01*
X19205546Y-47082453D01*
X19160000Y-46997244D01*
X19160000Y-46438313D01*
X19378505Y-46292312D01*
X19592312Y-46078505D01*
X19650000Y-45992169D01*
X19707688Y-46078505D01*
X19921495Y-46292312D01*
X20172905Y-46460299D01*
X20452257Y-46576011D01*
X20748816Y-46635000D01*
X21051184Y-46635000D01*
X21347743Y-46576011D01*
X21627095Y-46460299D01*
X21878505Y-46292312D01*
X22092312Y-46078505D01*
X22150000Y-45992169D01*
X22207688Y-46078505D01*
X22421495Y-46292312D01*
X22672905Y-46460299D01*
X22952257Y-46576011D01*
X23248816Y-46635000D01*
X23551184Y-46635000D01*
X23847743Y-46576011D01*
X24127095Y-46460299D01*
X24378505Y-46292312D01*
X24592312Y-46078505D01*
X24760299Y-45827095D01*
X24876011Y-45547743D01*
X24935000Y-45251184D01*
X24935000Y-44948816D01*
X24876011Y-44652257D01*
X24760299Y-44372905D01*
X24592312Y-44121495D01*
X24378505Y-43907688D01*
X24127095Y-43739701D01*
X23847743Y-43623989D01*
X23551184Y-43565000D01*
X23248816Y-43565000D01*
X22952257Y-43623989D01*
X22672905Y-43739701D01*
X22542500Y-43826835D01*
X22542500Y-42027933D01*
X22588388Y-42003405D01*
X22722963Y-41892963D01*
X22833405Y-41758388D01*
X22915472Y-41604852D01*
X22966008Y-41438257D01*
X22983072Y-41265003D01*
X22983072Y-40014997D01*
X22966008Y-39841743D01*
X22915472Y-39675148D01*
X22833405Y-39521612D01*
X22722963Y-39387037D01*
X22588388Y-39276595D01*
X22542500Y-39252067D01*
X22542500Y-38429219D01*
X22554852Y-38425472D01*
X22666271Y-38365917D01*
X22766261Y-38868601D01*
G37*
%TD.AperFunction*%
D22*
X14990195Y-82899698D02*
X14836525Y-83053368D01*
X14720000Y-83227760D01*
X14603475Y-83053368D01*
X14396632Y-82846525D01*
X14210000Y-82721822D01*
X14210000Y-82402537D01*
X14213405Y-82398388D01*
X14295472Y-82244852D01*
X14304753Y-82214255D01*
X14990195Y-82899698D01*
%TA.AperFunction,NonConductor*%
D23*
G36*
X14990195Y-82899698D02*
G01*
X14836525Y-83053368D01*
X14720000Y-83227760D01*
X14603475Y-83053368D01*
X14396632Y-82846525D01*
X14210000Y-82721822D01*
X14210000Y-82402537D01*
X14213405Y-82398388D01*
X14295472Y-82244852D01*
X14304753Y-82214255D01*
X14990195Y-82899698D01*
G37*
%TD.AperFunction*%
D22*
X9477501Y-79892067D02*
X9431612Y-79916595D01*
X9297037Y-80027037D01*
X9186595Y-80161612D01*
X9104528Y-80315148D01*
X9060000Y-80461937D01*
X9060000Y-78579776D01*
X9098257Y-78576008D01*
X9264852Y-78525472D01*
X9418388Y-78443405D01*
X9477501Y-78394893D01*
X9477501Y-79892067D01*
%TA.AperFunction,NonConductor*%
D23*
G36*
X9477501Y-79892067D02*
G01*
X9431612Y-79916595D01*
X9297037Y-80027037D01*
X9186595Y-80161612D01*
X9104528Y-80315148D01*
X9060000Y-80461937D01*
X9060000Y-78579776D01*
X9098257Y-78576008D01*
X9264852Y-78525472D01*
X9418388Y-78443405D01*
X9477501Y-78394893D01*
X9477501Y-79892067D01*
G37*
%TD.AperFunction*%
D22*
X13291401Y-79766928D02*
X13008100Y-79766928D01*
X13008100Y-78711601D01*
X13291401Y-78428301D01*
X13291401Y-79766928D01*
%TA.AperFunction,NonConductor*%
D23*
G36*
X13291401Y-79766928D02*
G01*
X13008100Y-79766928D01*
X13008100Y-78711601D01*
X13291401Y-78428301D01*
X13291401Y-79766928D01*
G37*
%TD.AperFunction*%
D22*
X10701595Y-69578388D02*
X10812037Y-69712963D01*
X10946612Y-69823405D01*
X11100148Y-69905472D01*
X11266743Y-69956008D01*
X11439997Y-69973072D01*
X12513100Y-69973072D01*
X12513101Y-77056997D01*
X11936800Y-77633299D01*
X11936800Y-72616622D01*
X11940476Y-72579299D01*
X11936800Y-72541976D01*
X11936800Y-72541967D01*
X11925803Y-72430314D01*
X11882346Y-72287053D01*
X11811774Y-72155024D01*
X11716801Y-72039299D01*
X11687804Y-72015502D01*
X11553072Y-71880770D01*
X11553072Y-71129997D01*
X11536008Y-70956743D01*
X11485472Y-70790148D01*
X11403405Y-70636612D01*
X11292963Y-70502037D01*
X11158388Y-70391595D01*
X11004852Y-70309528D01*
X10838257Y-70258992D01*
X10665003Y-70241928D01*
X10039997Y-70241928D01*
X9866743Y-70258992D01*
X9700148Y-70309528D01*
X9546612Y-70391595D01*
X9412037Y-70502037D01*
X9301595Y-70636612D01*
X9219528Y-70790148D01*
X9168992Y-70956743D01*
X9151928Y-71129997D01*
X9151928Y-72380003D01*
X9154618Y-72407317D01*
X8628072Y-71880771D01*
X8628072Y-71129997D01*
X8611008Y-70956743D01*
X8578901Y-70850900D01*
X9897302Y-69532500D01*
X10677067Y-69532500D01*
X10701595Y-69578388D01*
%TA.AperFunction,NonConductor*%
D23*
G36*
X10701595Y-69578388D02*
G01*
X10812037Y-69712963D01*
X10946612Y-69823405D01*
X11100148Y-69905472D01*
X11266743Y-69956008D01*
X11439997Y-69973072D01*
X12513100Y-69973072D01*
X12513101Y-77056997D01*
X11936800Y-77633299D01*
X11936800Y-72616622D01*
X11940476Y-72579299D01*
X11936800Y-72541976D01*
X11936800Y-72541967D01*
X11925803Y-72430314D01*
X11882346Y-72287053D01*
X11811774Y-72155024D01*
X11716801Y-72039299D01*
X11687804Y-72015502D01*
X11553072Y-71880770D01*
X11553072Y-71129997D01*
X11536008Y-70956743D01*
X11485472Y-70790148D01*
X11403405Y-70636612D01*
X11292963Y-70502037D01*
X11158388Y-70391595D01*
X11004852Y-70309528D01*
X10838257Y-70258992D01*
X10665003Y-70241928D01*
X10039997Y-70241928D01*
X9866743Y-70258992D01*
X9700148Y-70309528D01*
X9546612Y-70391595D01*
X9412037Y-70502037D01*
X9301595Y-70636612D01*
X9219528Y-70790148D01*
X9168992Y-70956743D01*
X9151928Y-71129997D01*
X9151928Y-72380003D01*
X9154618Y-72407317D01*
X8628072Y-71880771D01*
X8628072Y-71129997D01*
X8611008Y-70956743D01*
X8578901Y-70850900D01*
X9897302Y-69532500D01*
X10677067Y-69532500D01*
X10701595Y-69578388D01*
G37*
%TD.AperFunction*%
D22*
X29315001Y-76493306D02*
X29303405Y-76471612D01*
X29192963Y-76337037D01*
X29058388Y-76226595D01*
X28904852Y-76144528D01*
X28738257Y-76093992D01*
X28565003Y-76076928D01*
X27923173Y-76076928D01*
X29315001Y-74685101D01*
X29315001Y-76493306D01*
%TA.AperFunction,NonConductor*%
D23*
G36*
X29315001Y-76493306D02*
G01*
X29303405Y-76471612D01*
X29192963Y-76337037D01*
X29058388Y-76226595D01*
X28904852Y-76144528D01*
X28738257Y-76093992D01*
X28565003Y-76076928D01*
X27923173Y-76076928D01*
X29315001Y-74685101D01*
X29315001Y-76493306D01*
G37*
%TD.AperFunction*%
D22*
X9477500Y-76390107D02*
X9418388Y-76341595D01*
X9264852Y-76259528D01*
X9098257Y-76208992D01*
X8925003Y-76191928D01*
X7674997Y-76191928D01*
X7647684Y-76194618D01*
X8174230Y-75668072D01*
X8925003Y-75668072D01*
X9098257Y-75651008D01*
X9264852Y-75600472D01*
X9418388Y-75518405D01*
X9477500Y-75469893D01*
X9477500Y-76390107D01*
%TA.AperFunction,NonConductor*%
D23*
G36*
X9477500Y-76390107D02*
G01*
X9418388Y-76341595D01*
X9264852Y-76259528D01*
X9098257Y-76208992D01*
X8925003Y-76191928D01*
X7674997Y-76191928D01*
X7647684Y-76194618D01*
X8174230Y-75668072D01*
X8925003Y-75668072D01*
X9098257Y-75651008D01*
X9264852Y-75600472D01*
X9418388Y-75518405D01*
X9477500Y-75469893D01*
X9477500Y-76390107D01*
G37*
%TD.AperFunction*%
D22*
X10039997Y-73268072D02*
X10416800Y-73268072D01*
X10416800Y-73669498D01*
X10012684Y-73265382D01*
X10039997Y-73268072D01*
%TA.AperFunction,NonConductor*%
D23*
G36*
X10039997Y-73268072D02*
G01*
X10416800Y-73268072D01*
X10416800Y-73669498D01*
X10012684Y-73265382D01*
X10039997Y-73268072D01*
G37*
%TD.AperFunction*%
D22*
X7864627Y-73266928D02*
X7751618Y-73266928D01*
X7854494Y-73256796D01*
X7864627Y-73266928D01*
%TA.AperFunction,NonConductor*%
D23*
G36*
X7864627Y-73266928D02*
G01*
X7751618Y-73266928D01*
X7854494Y-73256796D01*
X7864627Y-73266928D01*
G37*
%TD.AperFunction*%
D22*
X7903126Y-65416928D02*
X7649997Y-65416928D01*
X7476743Y-65433992D01*
X7310148Y-65484528D01*
X7156612Y-65566595D01*
X7022037Y-65677037D01*
X6911595Y-65811612D01*
X6829528Y-65965148D01*
X6778992Y-66131743D01*
X6761928Y-66304997D01*
X6761928Y-67555003D01*
X6778992Y-67728257D01*
X6829528Y-67894852D01*
X6911595Y-68048388D01*
X7022037Y-68182963D01*
X7156612Y-68293405D01*
X7310148Y-68375472D01*
X7476743Y-68426008D01*
X7649997Y-68443072D01*
X8275003Y-68443072D01*
X8448257Y-68426008D01*
X8614852Y-68375472D01*
X8768388Y-68293405D01*
X8902963Y-68182963D01*
X9013405Y-68048388D01*
X9095472Y-67894852D01*
X9146008Y-67728257D01*
X9163072Y-67555003D01*
X9163072Y-66804230D01*
X9359802Y-66607500D01*
X10677067Y-66607500D01*
X10701595Y-66653388D01*
X10812037Y-66787963D01*
X10946612Y-66898405D01*
X11100148Y-66980472D01*
X11266743Y-67031008D01*
X11439997Y-67048072D01*
X12513100Y-67048072D01*
X12513100Y-67571928D01*
X11439997Y-67571928D01*
X11266743Y-67588992D01*
X11100148Y-67639528D01*
X10946612Y-67721595D01*
X10812037Y-67832037D01*
X10701595Y-67966612D01*
X10677067Y-68012500D01*
X9619822Y-68012500D01*
X9582499Y-68008824D01*
X9545176Y-68012500D01*
X9545167Y-68012500D01*
X9433514Y-68023497D01*
X9290253Y-68066954D01*
X9158224Y-68137526D01*
X9042499Y-68232499D01*
X9018701Y-68261497D01*
X7112699Y-70167500D01*
X5197933Y-70167500D01*
X5173405Y-70121612D01*
X5062963Y-69987037D01*
X4928388Y-69876595D01*
X4774852Y-69794528D01*
X4608257Y-69743992D01*
X4435003Y-69726928D01*
X3781800Y-69726928D01*
X3781800Y-64885964D01*
X3816313Y-64920477D01*
X4094748Y-65106521D01*
X4140001Y-65125265D01*
X4140000Y-65641778D01*
X4097037Y-65677037D01*
X3986595Y-65811612D01*
X3904528Y-65965148D01*
X3853992Y-66131743D01*
X3836928Y-66304997D01*
X3836928Y-67555003D01*
X3853992Y-67728257D01*
X3904528Y-67894852D01*
X3986595Y-68048388D01*
X4097037Y-68182963D01*
X4231612Y-68293405D01*
X4385148Y-68375472D01*
X4551743Y-68426008D01*
X4724997Y-68443072D01*
X5350003Y-68443072D01*
X5523257Y-68426008D01*
X5689852Y-68375472D01*
X5843388Y-68293405D01*
X5977963Y-68182963D01*
X6088405Y-68048388D01*
X6170472Y-67894852D01*
X6221008Y-67728257D01*
X6238072Y-67555003D01*
X6238072Y-66304997D01*
X6221008Y-66131743D01*
X6170472Y-65965148D01*
X6088405Y-65811612D01*
X5977963Y-65677037D01*
X5843388Y-65566595D01*
X5689852Y-65484528D01*
X5660000Y-65475473D01*
X5660000Y-65125265D01*
X5705252Y-65106521D01*
X5983687Y-64920477D01*
X6220477Y-64683687D01*
X6406521Y-64405252D01*
X6534670Y-64095872D01*
X6542534Y-64056336D01*
X7903126Y-65416928D01*
%TA.AperFunction,NonConductor*%
D23*
G36*
X7903126Y-65416928D02*
G01*
X7649997Y-65416928D01*
X7476743Y-65433992D01*
X7310148Y-65484528D01*
X7156612Y-65566595D01*
X7022037Y-65677037D01*
X6911595Y-65811612D01*
X6829528Y-65965148D01*
X6778992Y-66131743D01*
X6761928Y-66304997D01*
X6761928Y-67555003D01*
X6778992Y-67728257D01*
X6829528Y-67894852D01*
X6911595Y-68048388D01*
X7022037Y-68182963D01*
X7156612Y-68293405D01*
X7310148Y-68375472D01*
X7476743Y-68426008D01*
X7649997Y-68443072D01*
X8275003Y-68443072D01*
X8448257Y-68426008D01*
X8614852Y-68375472D01*
X8768388Y-68293405D01*
X8902963Y-68182963D01*
X9013405Y-68048388D01*
X9095472Y-67894852D01*
X9146008Y-67728257D01*
X9163072Y-67555003D01*
X9163072Y-66804230D01*
X9359802Y-66607500D01*
X10677067Y-66607500D01*
X10701595Y-66653388D01*
X10812037Y-66787963D01*
X10946612Y-66898405D01*
X11100148Y-66980472D01*
X11266743Y-67031008D01*
X11439997Y-67048072D01*
X12513100Y-67048072D01*
X12513100Y-67571928D01*
X11439997Y-67571928D01*
X11266743Y-67588992D01*
X11100148Y-67639528D01*
X10946612Y-67721595D01*
X10812037Y-67832037D01*
X10701595Y-67966612D01*
X10677067Y-68012500D01*
X9619822Y-68012500D01*
X9582499Y-68008824D01*
X9545176Y-68012500D01*
X9545167Y-68012500D01*
X9433514Y-68023497D01*
X9290253Y-68066954D01*
X9158224Y-68137526D01*
X9042499Y-68232499D01*
X9018701Y-68261497D01*
X7112699Y-70167500D01*
X5197933Y-70167500D01*
X5173405Y-70121612D01*
X5062963Y-69987037D01*
X4928388Y-69876595D01*
X4774852Y-69794528D01*
X4608257Y-69743992D01*
X4435003Y-69726928D01*
X3781800Y-69726928D01*
X3781800Y-64885964D01*
X3816313Y-64920477D01*
X4094748Y-65106521D01*
X4140001Y-65125265D01*
X4140000Y-65641778D01*
X4097037Y-65677037D01*
X3986595Y-65811612D01*
X3904528Y-65965148D01*
X3853992Y-66131743D01*
X3836928Y-66304997D01*
X3836928Y-67555003D01*
X3853992Y-67728257D01*
X3904528Y-67894852D01*
X3986595Y-68048388D01*
X4097037Y-68182963D01*
X4231612Y-68293405D01*
X4385148Y-68375472D01*
X4551743Y-68426008D01*
X4724997Y-68443072D01*
X5350003Y-68443072D01*
X5523257Y-68426008D01*
X5689852Y-68375472D01*
X5843388Y-68293405D01*
X5977963Y-68182963D01*
X6088405Y-68048388D01*
X6170472Y-67894852D01*
X6221008Y-67728257D01*
X6238072Y-67555003D01*
X6238072Y-66304997D01*
X6221008Y-66131743D01*
X6170472Y-65965148D01*
X6088405Y-65811612D01*
X5977963Y-65677037D01*
X5843388Y-65566595D01*
X5689852Y-65484528D01*
X5660000Y-65475473D01*
X5660000Y-65125265D01*
X5705252Y-65106521D01*
X5983687Y-64920477D01*
X6220477Y-64683687D01*
X6406521Y-64405252D01*
X6534670Y-64095872D01*
X6542534Y-64056336D01*
X7903126Y-65416928D01*
G37*
%TD.AperFunction*%
D22*
X21161495Y-66492312D02*
X21412905Y-66660299D01*
X21480001Y-66688091D01*
X21480000Y-68486928D01*
X21020000Y-68486928D01*
X20846746Y-68503992D01*
X20680150Y-68554528D01*
X20526614Y-68636595D01*
X20392038Y-68747038D01*
X20320000Y-68834817D01*
X20247962Y-68747038D01*
X20113386Y-68636595D01*
X20042500Y-68598706D01*
X20042500Y-67157601D01*
X20110997Y-67089104D01*
X20140001Y-67065301D01*
X20234974Y-66949576D01*
X20294575Y-66838072D01*
X20500000Y-66838072D01*
X20624482Y-66825812D01*
X20744180Y-66789502D01*
X20854494Y-66730537D01*
X20951185Y-66651185D01*
X21030537Y-66554494D01*
X21089502Y-66444180D01*
X21095056Y-66425873D01*
X21161495Y-66492312D01*
%TA.AperFunction,NonConductor*%
D23*
G36*
X21161495Y-66492312D02*
G01*
X21412905Y-66660299D01*
X21480001Y-66688091D01*
X21480000Y-68486928D01*
X21020000Y-68486928D01*
X20846746Y-68503992D01*
X20680150Y-68554528D01*
X20526614Y-68636595D01*
X20392038Y-68747038D01*
X20320000Y-68834817D01*
X20247962Y-68747038D01*
X20113386Y-68636595D01*
X20042500Y-68598706D01*
X20042500Y-67157601D01*
X20110997Y-67089104D01*
X20140001Y-67065301D01*
X20234974Y-66949576D01*
X20294575Y-66838072D01*
X20500000Y-66838072D01*
X20624482Y-66825812D01*
X20744180Y-66789502D01*
X20854494Y-66730537D01*
X20951185Y-66651185D01*
X21030537Y-66554494D01*
X21089502Y-66444180D01*
X21095056Y-66425873D01*
X21161495Y-66492312D01*
G37*
%TD.AperFunction*%
D22*
X6421928Y-30850000D02*
X6434188Y-30974482D01*
X6470498Y-31094180D01*
X6529463Y-31204494D01*
X6608815Y-31301185D01*
X6705506Y-31380537D01*
X6815820Y-31439502D01*
X6935518Y-31475812D01*
X7060000Y-31488072D01*
X7215425Y-31488072D01*
X7275026Y-31599576D01*
X7316184Y-31649726D01*
X7370000Y-31715301D01*
X7398998Y-31739099D01*
X8322501Y-32662603D01*
X8322501Y-32902067D01*
X8276612Y-32926595D01*
X8142037Y-33037037D01*
X8031595Y-33171612D01*
X7949528Y-33325148D01*
X7898992Y-33491743D01*
X7881928Y-33664997D01*
X7881928Y-34915003D01*
X7884618Y-34942317D01*
X7358072Y-34415771D01*
X7358072Y-33664997D01*
X7341008Y-33491743D01*
X7290472Y-33325148D01*
X7208405Y-33171612D01*
X7097963Y-33037037D01*
X6963388Y-32926595D01*
X6809852Y-32844528D01*
X6643257Y-32793992D01*
X6470003Y-32776928D01*
X5844997Y-32776928D01*
X5671743Y-32793992D01*
X5505148Y-32844528D01*
X5351612Y-32926595D01*
X5217037Y-33037037D01*
X5106595Y-33171612D01*
X5024528Y-33325148D01*
X4973992Y-33491743D01*
X4956928Y-33664997D01*
X4956928Y-34915003D01*
X4973992Y-35088257D01*
X5024528Y-35254852D01*
X5106595Y-35408388D01*
X5217037Y-35542963D01*
X5351612Y-35653405D01*
X5505148Y-35735472D01*
X5671743Y-35786008D01*
X5844997Y-35803072D01*
X6470003Y-35803072D01*
X6584494Y-35791796D01*
X10202500Y-39409802D01*
X10202501Y-41312067D01*
X10156612Y-41336595D01*
X10022037Y-41447037D01*
X9911595Y-41581612D01*
X9829528Y-41735148D01*
X9778992Y-41901743D01*
X9761928Y-42074997D01*
X9761928Y-43325003D01*
X9778992Y-43498257D01*
X9829528Y-43664852D01*
X9911595Y-43818388D01*
X10022037Y-43952963D01*
X10156612Y-44063405D01*
X10310148Y-44145472D01*
X10476743Y-44196008D01*
X10649997Y-44213072D01*
X11275003Y-44213072D01*
X11389494Y-44201796D01*
X13664700Y-46477002D01*
X13664701Y-47985197D01*
X10810003Y-50839896D01*
X10780999Y-50863699D01*
X10746898Y-50905252D01*
X10686026Y-50979424D01*
X10653209Y-51040820D01*
X10615454Y-51111454D01*
X10571997Y-51254715D01*
X10561000Y-51366368D01*
X10561000Y-51366378D01*
X10557324Y-51403700D01*
X10561000Y-51441022D01*
X10561001Y-62693768D01*
X10557324Y-62731100D01*
X10561001Y-62768433D01*
X10571998Y-62880086D01*
X10585180Y-62923542D01*
X10615454Y-63023346D01*
X10686026Y-63155376D01*
X10757201Y-63242102D01*
X10781000Y-63271101D01*
X10809998Y-63294899D01*
X12162026Y-64646928D01*
X11439997Y-64646928D01*
X11266743Y-64663992D01*
X11100148Y-64714528D01*
X10946612Y-64796595D01*
X10812037Y-64907037D01*
X10701595Y-65041612D01*
X10677067Y-65087500D01*
X9694821Y-65087500D01*
X9679974Y-65059724D01*
X9585001Y-64943999D01*
X9556004Y-64920202D01*
X4232200Y-59596399D01*
X4232200Y-56863455D01*
X4404128Y-56934670D01*
X4732565Y-57000000D01*
X5067435Y-57000000D01*
X5395872Y-56934670D01*
X5705252Y-56806521D01*
X5983687Y-56620477D01*
X6220477Y-56383687D01*
X6406521Y-56105252D01*
X6534670Y-55795872D01*
X6600000Y-55467435D01*
X6600000Y-55132565D01*
X6534670Y-54804128D01*
X6406521Y-54494748D01*
X6392290Y-54473450D01*
X6395537Y-54469494D01*
X6454502Y-54359180D01*
X6490812Y-54239482D01*
X6503072Y-54115000D01*
X6503072Y-51285000D01*
X6490812Y-51160518D01*
X6454502Y-51040820D01*
X6395537Y-50930506D01*
X6392290Y-50926550D01*
X6406521Y-50905252D01*
X6534670Y-50595872D01*
X6600000Y-50267435D01*
X6600000Y-49932565D01*
X6534670Y-49604128D01*
X6406521Y-49294748D01*
X6220477Y-49016313D01*
X5983687Y-48779523D01*
X5705252Y-48593479D01*
X5395872Y-48465330D01*
X5067435Y-48400000D01*
X4732565Y-48400000D01*
X4404128Y-48465330D01*
X4232200Y-48536545D01*
X4232200Y-43363455D01*
X4404128Y-43434670D01*
X4732565Y-43500000D01*
X5067435Y-43500000D01*
X5395872Y-43434670D01*
X5489604Y-43395845D01*
X5507753Y-43405546D01*
X5651014Y-43449003D01*
X5762667Y-43460000D01*
X5762676Y-43460000D01*
X5799999Y-43463676D01*
X5837322Y-43460000D01*
X6850224Y-43460000D01*
X6853992Y-43498257D01*
X6904528Y-43664852D01*
X6986595Y-43818388D01*
X7097037Y-43952963D01*
X7231612Y-44063405D01*
X7385148Y-44145472D01*
X7551743Y-44196008D01*
X7724997Y-44213072D01*
X8350003Y-44213072D01*
X8523257Y-44196008D01*
X8689852Y-44145472D01*
X8843388Y-44063405D01*
X8977963Y-43952963D01*
X9088405Y-43818388D01*
X9170472Y-43664852D01*
X9221008Y-43498257D01*
X9238072Y-43325003D01*
X9238072Y-42074997D01*
X9221008Y-41901743D01*
X9170472Y-41735148D01*
X9088405Y-41581612D01*
X8977963Y-41447037D01*
X8843388Y-41336595D01*
X8689852Y-41254528D01*
X8523257Y-41203992D01*
X8350003Y-41186928D01*
X7724997Y-41186928D01*
X7551743Y-41203992D01*
X7385148Y-41254528D01*
X7231612Y-41336595D01*
X7097037Y-41447037D01*
X6986595Y-41581612D01*
X6904528Y-41735148D01*
X6853992Y-41901743D01*
X6850224Y-41940000D01*
X6600000Y-41940000D01*
X6600000Y-41632565D01*
X6534670Y-41304128D01*
X6406521Y-40994748D01*
X6220477Y-40716313D01*
X5983687Y-40479523D01*
X5705252Y-40293479D01*
X5395872Y-40165330D01*
X5067435Y-40100000D01*
X4732565Y-40100000D01*
X4404128Y-40165330D01*
X4232200Y-40236545D01*
X4232200Y-32522201D01*
X6421928Y-30332474D01*
X6421928Y-30850000D01*
%TA.AperFunction,NonConductor*%
D23*
G36*
X6421928Y-30850000D02*
G01*
X6434188Y-30974482D01*
X6470498Y-31094180D01*
X6529463Y-31204494D01*
X6608815Y-31301185D01*
X6705506Y-31380537D01*
X6815820Y-31439502D01*
X6935518Y-31475812D01*
X7060000Y-31488072D01*
X7215425Y-31488072D01*
X7275026Y-31599576D01*
X7316184Y-31649726D01*
X7370000Y-31715301D01*
X7398998Y-31739099D01*
X8322501Y-32662603D01*
X8322501Y-32902067D01*
X8276612Y-32926595D01*
X8142037Y-33037037D01*
X8031595Y-33171612D01*
X7949528Y-33325148D01*
X7898992Y-33491743D01*
X7881928Y-33664997D01*
X7881928Y-34915003D01*
X7884618Y-34942317D01*
X7358072Y-34415771D01*
X7358072Y-33664997D01*
X7341008Y-33491743D01*
X7290472Y-33325148D01*
X7208405Y-33171612D01*
X7097963Y-33037037D01*
X6963388Y-32926595D01*
X6809852Y-32844528D01*
X6643257Y-32793992D01*
X6470003Y-32776928D01*
X5844997Y-32776928D01*
X5671743Y-32793992D01*
X5505148Y-32844528D01*
X5351612Y-32926595D01*
X5217037Y-33037037D01*
X5106595Y-33171612D01*
X5024528Y-33325148D01*
X4973992Y-33491743D01*
X4956928Y-33664997D01*
X4956928Y-34915003D01*
X4973992Y-35088257D01*
X5024528Y-35254852D01*
X5106595Y-35408388D01*
X5217037Y-35542963D01*
X5351612Y-35653405D01*
X5505148Y-35735472D01*
X5671743Y-35786008D01*
X5844997Y-35803072D01*
X6470003Y-35803072D01*
X6584494Y-35791796D01*
X10202500Y-39409802D01*
X10202501Y-41312067D01*
X10156612Y-41336595D01*
X10022037Y-41447037D01*
X9911595Y-41581612D01*
X9829528Y-41735148D01*
X9778992Y-41901743D01*
X9761928Y-42074997D01*
X9761928Y-43325003D01*
X9778992Y-43498257D01*
X9829528Y-43664852D01*
X9911595Y-43818388D01*
X10022037Y-43952963D01*
X10156612Y-44063405D01*
X10310148Y-44145472D01*
X10476743Y-44196008D01*
X10649997Y-44213072D01*
X11275003Y-44213072D01*
X11389494Y-44201796D01*
X13664700Y-46477002D01*
X13664701Y-47985197D01*
X10810003Y-50839896D01*
X10780999Y-50863699D01*
X10746898Y-50905252D01*
X10686026Y-50979424D01*
X10653209Y-51040820D01*
X10615454Y-51111454D01*
X10571997Y-51254715D01*
X10561000Y-51366368D01*
X10561000Y-51366378D01*
X10557324Y-51403700D01*
X10561000Y-51441022D01*
X10561001Y-62693768D01*
X10557324Y-62731100D01*
X10561001Y-62768433D01*
X10571998Y-62880086D01*
X10585180Y-62923542D01*
X10615454Y-63023346D01*
X10686026Y-63155376D01*
X10757201Y-63242102D01*
X10781000Y-63271101D01*
X10809998Y-63294899D01*
X12162026Y-64646928D01*
X11439997Y-64646928D01*
X11266743Y-64663992D01*
X11100148Y-64714528D01*
X10946612Y-64796595D01*
X10812037Y-64907037D01*
X10701595Y-65041612D01*
X10677067Y-65087500D01*
X9694821Y-65087500D01*
X9679974Y-65059724D01*
X9585001Y-64943999D01*
X9556004Y-64920202D01*
X4232200Y-59596399D01*
X4232200Y-56863455D01*
X4404128Y-56934670D01*
X4732565Y-57000000D01*
X5067435Y-57000000D01*
X5395872Y-56934670D01*
X5705252Y-56806521D01*
X5983687Y-56620477D01*
X6220477Y-56383687D01*
X6406521Y-56105252D01*
X6534670Y-55795872D01*
X6600000Y-55467435D01*
X6600000Y-55132565D01*
X6534670Y-54804128D01*
X6406521Y-54494748D01*
X6392290Y-54473450D01*
X6395537Y-54469494D01*
X6454502Y-54359180D01*
X6490812Y-54239482D01*
X6503072Y-54115000D01*
X6503072Y-51285000D01*
X6490812Y-51160518D01*
X6454502Y-51040820D01*
X6395537Y-50930506D01*
X6392290Y-50926550D01*
X6406521Y-50905252D01*
X6534670Y-50595872D01*
X6600000Y-50267435D01*
X6600000Y-49932565D01*
X6534670Y-49604128D01*
X6406521Y-49294748D01*
X6220477Y-49016313D01*
X5983687Y-48779523D01*
X5705252Y-48593479D01*
X5395872Y-48465330D01*
X5067435Y-48400000D01*
X4732565Y-48400000D01*
X4404128Y-48465330D01*
X4232200Y-48536545D01*
X4232200Y-43363455D01*
X4404128Y-43434670D01*
X4732565Y-43500000D01*
X5067435Y-43500000D01*
X5395872Y-43434670D01*
X5489604Y-43395845D01*
X5507753Y-43405546D01*
X5651014Y-43449003D01*
X5762667Y-43460000D01*
X5762676Y-43460000D01*
X5799999Y-43463676D01*
X5837322Y-43460000D01*
X6850224Y-43460000D01*
X6853992Y-43498257D01*
X6904528Y-43664852D01*
X6986595Y-43818388D01*
X7097037Y-43952963D01*
X7231612Y-44063405D01*
X7385148Y-44145472D01*
X7551743Y-44196008D01*
X7724997Y-44213072D01*
X8350003Y-44213072D01*
X8523257Y-44196008D01*
X8689852Y-44145472D01*
X8843388Y-44063405D01*
X8977963Y-43952963D01*
X9088405Y-43818388D01*
X9170472Y-43664852D01*
X9221008Y-43498257D01*
X9238072Y-43325003D01*
X9238072Y-42074997D01*
X9221008Y-41901743D01*
X9170472Y-41735148D01*
X9088405Y-41581612D01*
X8977963Y-41447037D01*
X8843388Y-41336595D01*
X8689852Y-41254528D01*
X8523257Y-41203992D01*
X8350003Y-41186928D01*
X7724997Y-41186928D01*
X7551743Y-41203992D01*
X7385148Y-41254528D01*
X7231612Y-41336595D01*
X7097037Y-41447037D01*
X6986595Y-41581612D01*
X6904528Y-41735148D01*
X6853992Y-41901743D01*
X6850224Y-41940000D01*
X6600000Y-41940000D01*
X6600000Y-41632565D01*
X6534670Y-41304128D01*
X6406521Y-40994748D01*
X6220477Y-40716313D01*
X5983687Y-40479523D01*
X5705252Y-40293479D01*
X5395872Y-40165330D01*
X5067435Y-40100000D01*
X4732565Y-40100000D01*
X4404128Y-40165330D01*
X4232200Y-40236545D01*
X4232200Y-32522201D01*
X6421928Y-30332474D01*
X6421928Y-30850000D01*
G37*
%TD.AperFunction*%
D22*
X26698204Y-25535506D02*
X26686928Y-25649997D01*
X26686928Y-26275003D01*
X26703992Y-26448257D01*
X26754528Y-26614852D01*
X26836595Y-26768388D01*
X26947037Y-26902963D01*
X27081612Y-27013405D01*
X27235148Y-27095472D01*
X27401743Y-27146008D01*
X27574997Y-27163072D01*
X28641301Y-27163072D01*
X28641300Y-64022116D01*
X28622500Y-64012067D01*
X28622500Y-35722722D01*
X28626176Y-35685399D01*
X28622500Y-35648076D01*
X28622500Y-35648067D01*
X28611503Y-35536414D01*
X28568046Y-35393153D01*
X28567944Y-35392962D01*
X28497474Y-35261123D01*
X28426299Y-35174397D01*
X28402501Y-35145399D01*
X28373503Y-35121601D01*
X25221800Y-31969899D01*
X25221800Y-31413417D01*
X25256842Y-31427932D01*
X25543740Y-31485000D01*
X25836260Y-31485000D01*
X26123158Y-31427932D01*
X26393411Y-31315990D01*
X26636632Y-31153475D01*
X26843475Y-30946632D01*
X27005990Y-30703411D01*
X27117932Y-30433158D01*
X27175000Y-30146260D01*
X27175000Y-29853740D01*
X27117932Y-29566842D01*
X27005990Y-29296589D01*
X26843475Y-29053368D01*
X26636632Y-28846525D01*
X26450000Y-28721822D01*
X26450000Y-25287302D01*
X26698204Y-25535506D01*
%TA.AperFunction,NonConductor*%
D23*
G36*
X26698204Y-25535506D02*
G01*
X26686928Y-25649997D01*
X26686928Y-26275003D01*
X26703992Y-26448257D01*
X26754528Y-26614852D01*
X26836595Y-26768388D01*
X26947037Y-26902963D01*
X27081612Y-27013405D01*
X27235148Y-27095472D01*
X27401743Y-27146008D01*
X27574997Y-27163072D01*
X28641301Y-27163072D01*
X28641300Y-64022116D01*
X28622500Y-64012067D01*
X28622500Y-35722722D01*
X28626176Y-35685399D01*
X28622500Y-35648076D01*
X28622500Y-35648067D01*
X28611503Y-35536414D01*
X28568046Y-35393153D01*
X28567944Y-35392962D01*
X28497474Y-35261123D01*
X28426299Y-35174397D01*
X28402501Y-35145399D01*
X28373503Y-35121601D01*
X25221800Y-31969899D01*
X25221800Y-31413417D01*
X25256842Y-31427932D01*
X25543740Y-31485000D01*
X25836260Y-31485000D01*
X26123158Y-31427932D01*
X26393411Y-31315990D01*
X26636632Y-31153475D01*
X26843475Y-30946632D01*
X27005990Y-30703411D01*
X27117932Y-30433158D01*
X27175000Y-30146260D01*
X27175000Y-29853740D01*
X27117932Y-29566842D01*
X27005990Y-29296589D01*
X26843475Y-29053368D01*
X26636632Y-28846525D01*
X26450000Y-28721822D01*
X26450000Y-25287302D01*
X26698204Y-25535506D01*
G37*
%TD.AperFunction*%
D22*
X13291400Y-62628702D02*
X13291400Y-63626698D01*
X12081000Y-62416299D01*
X12081000Y-62013072D01*
X12550003Y-62013072D01*
X12664494Y-62001796D01*
X13291400Y-62628702D01*
%TA.AperFunction,NonConductor*%
D23*
G36*
X13291400Y-62628702D02*
G01*
X13291400Y-63626698D01*
X12081000Y-62416299D01*
X12081000Y-62013072D01*
X12550003Y-62013072D01*
X12664494Y-62001796D01*
X13291400Y-62628702D01*
G37*
%TD.AperFunction*%
D22*
X4443664Y-61957466D02*
X4404128Y-61965330D01*
X4094748Y-62093479D01*
X3816313Y-62279523D01*
X3781800Y-62314036D01*
X3781800Y-61295601D01*
X4443664Y-61957466D01*
%TA.AperFunction,NonConductor*%
D23*
G36*
X4443664Y-61957466D02*
G01*
X4404128Y-61965330D01*
X4094748Y-62093479D01*
X3816313Y-62279523D01*
X3781800Y-62314036D01*
X3781800Y-61295601D01*
X4443664Y-61957466D01*
G37*
%TD.AperFunction*%
D22*
X14105000Y-52542002D02*
X14105000Y-53257997D01*
X14133867Y-53551087D01*
X14247943Y-53927146D01*
X14433193Y-54273725D01*
X14682497Y-54577503D01*
X14986275Y-54826807D01*
X15332853Y-55012057D01*
X15708912Y-55126133D01*
X16100000Y-55164652D01*
X16491087Y-55126133D01*
X16867146Y-55012057D01*
X17213725Y-54826807D01*
X17517503Y-54577503D01*
X17740001Y-54306388D01*
X17740001Y-55462668D01*
X17736324Y-55500000D01*
X17750998Y-55648985D01*
X17794454Y-55792246D01*
X17865026Y-55924276D01*
X17936201Y-56011002D01*
X17960000Y-56040001D01*
X17988998Y-56063799D01*
X20790198Y-58865000D01*
X20748816Y-58865000D01*
X20452257Y-58923989D01*
X20172905Y-59039701D01*
X19921495Y-59207688D01*
X19883880Y-59245303D01*
X19830537Y-59145506D01*
X19751185Y-59048815D01*
X19654494Y-58969463D01*
X19544180Y-58910498D01*
X19424482Y-58874188D01*
X19300000Y-58861928D01*
X17500000Y-58861928D01*
X17375518Y-58874188D01*
X17255820Y-58910498D01*
X17145506Y-58969463D01*
X17048815Y-59048815D01*
X16969463Y-59145506D01*
X16910498Y-59255820D01*
X16874188Y-59375518D01*
X16861928Y-59500000D01*
X16861928Y-59705425D01*
X16797244Y-59740000D01*
X16349776Y-59740000D01*
X16346008Y-59701743D01*
X16295472Y-59535148D01*
X16213405Y-59381612D01*
X16102963Y-59247037D01*
X15968388Y-59136595D01*
X15814852Y-59054528D01*
X15648257Y-59003992D01*
X15475003Y-58986928D01*
X14849997Y-58986928D01*
X14676743Y-59003992D01*
X14510148Y-59054528D01*
X14356612Y-59136595D01*
X14222037Y-59247037D01*
X14111595Y-59381612D01*
X14029528Y-59535148D01*
X13978992Y-59701743D01*
X13961928Y-59874997D01*
X13961928Y-61125003D01*
X13964618Y-61152316D01*
X13438072Y-60625771D01*
X13438072Y-59874997D01*
X13421008Y-59701743D01*
X13370472Y-59535148D01*
X13288405Y-59381612D01*
X13177963Y-59247037D01*
X13043388Y-59136595D01*
X12997500Y-59112067D01*
X12997500Y-53395901D01*
X14132706Y-52260695D01*
X14105000Y-52542002D01*
%TA.AperFunction,NonConductor*%
D23*
G36*
X14105000Y-52542002D02*
G01*
X14105000Y-53257997D01*
X14133867Y-53551087D01*
X14247943Y-53927146D01*
X14433193Y-54273725D01*
X14682497Y-54577503D01*
X14986275Y-54826807D01*
X15332853Y-55012057D01*
X15708912Y-55126133D01*
X16100000Y-55164652D01*
X16491087Y-55126133D01*
X16867146Y-55012057D01*
X17213725Y-54826807D01*
X17517503Y-54577503D01*
X17740001Y-54306388D01*
X17740001Y-55462668D01*
X17736324Y-55500000D01*
X17750998Y-55648985D01*
X17794454Y-55792246D01*
X17865026Y-55924276D01*
X17936201Y-56011002D01*
X17960000Y-56040001D01*
X17988998Y-56063799D01*
X20790198Y-58865000D01*
X20748816Y-58865000D01*
X20452257Y-58923989D01*
X20172905Y-59039701D01*
X19921495Y-59207688D01*
X19883880Y-59245303D01*
X19830537Y-59145506D01*
X19751185Y-59048815D01*
X19654494Y-58969463D01*
X19544180Y-58910498D01*
X19424482Y-58874188D01*
X19300000Y-58861928D01*
X17500000Y-58861928D01*
X17375518Y-58874188D01*
X17255820Y-58910498D01*
X17145506Y-58969463D01*
X17048815Y-59048815D01*
X16969463Y-59145506D01*
X16910498Y-59255820D01*
X16874188Y-59375518D01*
X16861928Y-59500000D01*
X16861928Y-59705425D01*
X16797244Y-59740000D01*
X16349776Y-59740000D01*
X16346008Y-59701743D01*
X16295472Y-59535148D01*
X16213405Y-59381612D01*
X16102963Y-59247037D01*
X15968388Y-59136595D01*
X15814852Y-59054528D01*
X15648257Y-59003992D01*
X15475003Y-58986928D01*
X14849997Y-58986928D01*
X14676743Y-59003992D01*
X14510148Y-59054528D01*
X14356612Y-59136595D01*
X14222037Y-59247037D01*
X14111595Y-59381612D01*
X14029528Y-59535148D01*
X13978992Y-59701743D01*
X13961928Y-59874997D01*
X13961928Y-61125003D01*
X13964618Y-61152316D01*
X13438072Y-60625771D01*
X13438072Y-59874997D01*
X13421008Y-59701743D01*
X13370472Y-59535148D01*
X13288405Y-59381612D01*
X13177963Y-59247037D01*
X13043388Y-59136595D01*
X12997500Y-59112067D01*
X12997500Y-53395901D01*
X14132706Y-52260695D01*
X14105000Y-52542002D01*
G37*
%TD.AperFunction*%
D22*
X14395506Y-49430537D02*
X14505820Y-49489502D01*
X14625518Y-49525812D01*
X14709696Y-49534103D01*
X12081000Y-52162799D01*
X12081000Y-51718501D01*
X14380928Y-49418573D01*
X14395506Y-49430537D01*
%TA.AperFunction,NonConductor*%
D23*
G36*
X14395506Y-49430537D02*
G01*
X14505820Y-49489502D01*
X14625518Y-49525812D01*
X14709696Y-49534103D01*
X12081000Y-52162799D01*
X12081000Y-51718501D01*
X14380928Y-49418573D01*
X14395506Y-49430537D01*
G37*
%TD.AperFunction*%
D22*
X21996525Y-30946632D02*
X22203368Y-31153475D01*
X22446589Y-31315990D01*
X22716842Y-31427932D01*
X23003740Y-31485000D01*
X23296260Y-31485000D01*
X23583158Y-31427932D01*
X23701800Y-31378789D01*
X23701800Y-32247377D01*
X23698124Y-32284700D01*
X23701800Y-32322022D01*
X23701800Y-32322032D01*
X23712797Y-32433685D01*
X23731938Y-32496785D01*
X23756254Y-32576946D01*
X23826826Y-32708976D01*
X23858361Y-32747401D01*
X23921799Y-32824701D01*
X23950803Y-32848504D01*
X27102501Y-36000203D01*
X27102501Y-36176048D01*
X26979715Y-36053262D01*
X26548141Y-35764893D01*
X26068601Y-35566261D01*
X25559525Y-35465000D01*
X25040475Y-35465000D01*
X24531399Y-35566261D01*
X24051859Y-35764893D01*
X23620285Y-36053262D01*
X23253262Y-36420285D01*
X23057604Y-36713107D01*
X23035472Y-36640148D01*
X22953405Y-36486612D01*
X22842963Y-36352037D01*
X22708388Y-36241595D01*
X22554852Y-36159528D01*
X22388257Y-36108992D01*
X22215003Y-36091928D01*
X20964997Y-36091928D01*
X20791743Y-36108992D01*
X20625148Y-36159528D01*
X20471612Y-36241595D01*
X20337037Y-36352037D01*
X20226595Y-36486612D01*
X20144528Y-36640148D01*
X20093992Y-36806743D01*
X20076928Y-36979997D01*
X20076928Y-37605003D01*
X20093992Y-37778257D01*
X20144528Y-37944852D01*
X20226595Y-38098388D01*
X20337037Y-38232963D01*
X20471612Y-38343405D01*
X20625148Y-38425472D01*
X20791743Y-38476008D01*
X20964997Y-38493072D01*
X21022500Y-38493072D01*
X21022501Y-39252067D01*
X20976612Y-39276595D01*
X20842037Y-39387037D01*
X20731595Y-39521612D01*
X20649528Y-39675148D01*
X20598992Y-39841743D01*
X20581928Y-40014997D01*
X20581928Y-41265003D01*
X20598992Y-41438257D01*
X20649528Y-41604852D01*
X20731595Y-41758388D01*
X20842037Y-41892963D01*
X20976612Y-42003405D01*
X21022500Y-42027933D01*
X21022501Y-43565000D01*
X20748816Y-43565000D01*
X20452257Y-43623989D01*
X20172905Y-43739701D01*
X19921495Y-43907688D01*
X19707688Y-44121495D01*
X19650000Y-44207831D01*
X19592312Y-44121495D01*
X19378505Y-43907688D01*
X19160000Y-43761687D01*
X19160000Y-42153072D01*
X19170003Y-42153072D01*
X19343257Y-42136008D01*
X19509852Y-42085472D01*
X19663388Y-42003405D01*
X19797963Y-41892963D01*
X19908405Y-41758388D01*
X19990472Y-41604852D01*
X20041008Y-41438257D01*
X20058072Y-41265003D01*
X20058072Y-40014997D01*
X20041008Y-39841743D01*
X19990472Y-39675148D01*
X19908405Y-39521612D01*
X19797963Y-39387037D01*
X19663388Y-39276595D01*
X19509852Y-39194528D01*
X19343257Y-39143992D01*
X19170003Y-39126928D01*
X18926736Y-39126928D01*
X19033739Y-38868601D01*
X19135000Y-38359525D01*
X19135000Y-37840475D01*
X19033739Y-37331399D01*
X18835107Y-36851859D01*
X18546738Y-36420285D01*
X18179715Y-36053262D01*
X17748141Y-35764893D01*
X17268601Y-35566261D01*
X16759525Y-35465000D01*
X16240475Y-35465000D01*
X15731399Y-35566261D01*
X15251859Y-35764893D01*
X14820285Y-36053262D01*
X14453262Y-36420285D01*
X14164893Y-36851859D01*
X13966261Y-37331399D01*
X13865000Y-37840475D01*
X13865000Y-38359525D01*
X13966261Y-38868601D01*
X14164893Y-39348141D01*
X14453262Y-39779715D01*
X14820285Y-40146738D01*
X15251859Y-40435107D01*
X15731399Y-40633739D01*
X16240475Y-40735000D01*
X16759525Y-40735000D01*
X17268601Y-40633739D01*
X17656928Y-40472889D01*
X17656928Y-40928963D01*
X17650997Y-40948515D01*
X17640000Y-41060168D01*
X17640000Y-41060178D01*
X17636324Y-41097500D01*
X17640000Y-41134823D01*
X17640001Y-43761687D01*
X17421495Y-43907688D01*
X17207688Y-44121495D01*
X17039701Y-44372905D01*
X16923989Y-44652257D01*
X16865000Y-44948816D01*
X16865000Y-45251184D01*
X16923989Y-45547743D01*
X17039701Y-45827095D01*
X17207688Y-46078505D01*
X17421495Y-46292312D01*
X17640001Y-46438313D01*
X17640001Y-47215015D01*
X17598815Y-47248815D01*
X17519463Y-47345506D01*
X17460498Y-47455820D01*
X17424188Y-47575518D01*
X17411928Y-47700000D01*
X17411928Y-48900000D01*
X17424188Y-49024482D01*
X17460498Y-49144180D01*
X17519463Y-49254494D01*
X17598815Y-49351185D01*
X17695506Y-49430537D01*
X17740000Y-49454320D01*
X17740000Y-51493611D01*
X17517503Y-51222497D01*
X17213725Y-50973193D01*
X16867147Y-50787943D01*
X16491088Y-50673867D01*
X16100000Y-50635348D01*
X15720695Y-50672707D01*
X16486403Y-49906999D01*
X16515401Y-49883201D01*
X16541732Y-49851117D01*
X16610374Y-49767477D01*
X16680946Y-49635447D01*
X16690446Y-49604128D01*
X16724403Y-49492186D01*
X16735400Y-49380533D01*
X16735400Y-49380523D01*
X16739076Y-49343200D01*
X16735400Y-49305877D01*
X16735400Y-44445622D01*
X16739076Y-44408299D01*
X16735400Y-44370976D01*
X16735400Y-44370967D01*
X16724403Y-44259314D01*
X16680946Y-44116053D01*
X16610374Y-43984024D01*
X16547727Y-43907688D01*
X16539199Y-43897296D01*
X16539195Y-43897292D01*
X16515401Y-43868299D01*
X16486409Y-43844506D01*
X13335800Y-40693899D01*
X13335800Y-35653072D01*
X13842500Y-35653072D01*
X14015754Y-35636008D01*
X14182350Y-35585472D01*
X14335886Y-35503405D01*
X14470462Y-35392962D01*
X14580905Y-35258386D01*
X14662972Y-35104850D01*
X14713508Y-34938254D01*
X14730572Y-34765000D01*
X14730572Y-34139229D01*
X17311003Y-31558799D01*
X17340001Y-31535001D01*
X17376644Y-31490352D01*
X17435026Y-31599576D01*
X17529999Y-31715301D01*
X17645724Y-31810274D01*
X17777753Y-31880846D01*
X17921014Y-31924303D01*
X18032667Y-31935300D01*
X18070000Y-31938977D01*
X18085181Y-31937482D01*
X20088204Y-33940506D01*
X20076928Y-34054997D01*
X20076928Y-34680003D01*
X20093992Y-34853257D01*
X20144528Y-35019852D01*
X20226595Y-35173388D01*
X20337037Y-35307963D01*
X20471612Y-35418405D01*
X20625148Y-35500472D01*
X20791743Y-35551008D01*
X20964997Y-35568072D01*
X22215003Y-35568072D01*
X22388257Y-35551008D01*
X22554852Y-35500472D01*
X22708388Y-35418405D01*
X22842963Y-35307963D01*
X22953405Y-35173388D01*
X23035472Y-35019852D01*
X23086008Y-34853257D01*
X23103072Y-34680003D01*
X23103072Y-34054997D01*
X23086008Y-33881743D01*
X23035472Y-33715148D01*
X22953405Y-33561612D01*
X22842963Y-33427037D01*
X22708388Y-33316595D01*
X22554852Y-33234528D01*
X22388257Y-33183992D01*
X22215003Y-33166928D01*
X21464230Y-33166928D01*
X19231669Y-30934368D01*
X19340000Y-30772240D01*
X19456525Y-30946632D01*
X19663368Y-31153475D01*
X19906589Y-31315990D01*
X20176842Y-31427932D01*
X20463740Y-31485000D01*
X20756260Y-31485000D01*
X21043158Y-31427932D01*
X21313411Y-31315990D01*
X21556632Y-31153475D01*
X21763475Y-30946632D01*
X21880000Y-30772240D01*
X21996525Y-30946632D01*
%TA.AperFunction,NonConductor*%
D23*
G36*
X21996525Y-30946632D02*
G01*
X22203368Y-31153475D01*
X22446589Y-31315990D01*
X22716842Y-31427932D01*
X23003740Y-31485000D01*
X23296260Y-31485000D01*
X23583158Y-31427932D01*
X23701800Y-31378789D01*
X23701800Y-32247377D01*
X23698124Y-32284700D01*
X23701800Y-32322022D01*
X23701800Y-32322032D01*
X23712797Y-32433685D01*
X23731938Y-32496785D01*
X23756254Y-32576946D01*
X23826826Y-32708976D01*
X23858361Y-32747401D01*
X23921799Y-32824701D01*
X23950803Y-32848504D01*
X27102501Y-36000203D01*
X27102501Y-36176048D01*
X26979715Y-36053262D01*
X26548141Y-35764893D01*
X26068601Y-35566261D01*
X25559525Y-35465000D01*
X25040475Y-35465000D01*
X24531399Y-35566261D01*
X24051859Y-35764893D01*
X23620285Y-36053262D01*
X23253262Y-36420285D01*
X23057604Y-36713107D01*
X23035472Y-36640148D01*
X22953405Y-36486612D01*
X22842963Y-36352037D01*
X22708388Y-36241595D01*
X22554852Y-36159528D01*
X22388257Y-36108992D01*
X22215003Y-36091928D01*
X20964997Y-36091928D01*
X20791743Y-36108992D01*
X20625148Y-36159528D01*
X20471612Y-36241595D01*
X20337037Y-36352037D01*
X20226595Y-36486612D01*
X20144528Y-36640148D01*
X20093992Y-36806743D01*
X20076928Y-36979997D01*
X20076928Y-37605003D01*
X20093992Y-37778257D01*
X20144528Y-37944852D01*
X20226595Y-38098388D01*
X20337037Y-38232963D01*
X20471612Y-38343405D01*
X20625148Y-38425472D01*
X20791743Y-38476008D01*
X20964997Y-38493072D01*
X21022500Y-38493072D01*
X21022501Y-39252067D01*
X20976612Y-39276595D01*
X20842037Y-39387037D01*
X20731595Y-39521612D01*
X20649528Y-39675148D01*
X20598992Y-39841743D01*
X20581928Y-40014997D01*
X20581928Y-41265003D01*
X20598992Y-41438257D01*
X20649528Y-41604852D01*
X20731595Y-41758388D01*
X20842037Y-41892963D01*
X20976612Y-42003405D01*
X21022500Y-42027933D01*
X21022501Y-43565000D01*
X20748816Y-43565000D01*
X20452257Y-43623989D01*
X20172905Y-43739701D01*
X19921495Y-43907688D01*
X19707688Y-44121495D01*
X19650000Y-44207831D01*
X19592312Y-44121495D01*
X19378505Y-43907688D01*
X19160000Y-43761687D01*
X19160000Y-42153072D01*
X19170003Y-42153072D01*
X19343257Y-42136008D01*
X19509852Y-42085472D01*
X19663388Y-42003405D01*
X19797963Y-41892963D01*
X19908405Y-41758388D01*
X19990472Y-41604852D01*
X20041008Y-41438257D01*
X20058072Y-41265003D01*
X20058072Y-40014997D01*
X20041008Y-39841743D01*
X19990472Y-39675148D01*
X19908405Y-39521612D01*
X19797963Y-39387037D01*
X19663388Y-39276595D01*
X19509852Y-39194528D01*
X19343257Y-39143992D01*
X19170003Y-39126928D01*
X18926736Y-39126928D01*
X19033739Y-38868601D01*
X19135000Y-38359525D01*
X19135000Y-37840475D01*
X19033739Y-37331399D01*
X18835107Y-36851859D01*
X18546738Y-36420285D01*
X18179715Y-36053262D01*
X17748141Y-35764893D01*
X17268601Y-35566261D01*
X16759525Y-35465000D01*
X16240475Y-35465000D01*
X15731399Y-35566261D01*
X15251859Y-35764893D01*
X14820285Y-36053262D01*
X14453262Y-36420285D01*
X14164893Y-36851859D01*
X13966261Y-37331399D01*
X13865000Y-37840475D01*
X13865000Y-38359525D01*
X13966261Y-38868601D01*
X14164893Y-39348141D01*
X14453262Y-39779715D01*
X14820285Y-40146738D01*
X15251859Y-40435107D01*
X15731399Y-40633739D01*
X16240475Y-40735000D01*
X16759525Y-40735000D01*
X17268601Y-40633739D01*
X17656928Y-40472889D01*
X17656928Y-40928963D01*
X17650997Y-40948515D01*
X17640000Y-41060168D01*
X17640000Y-41060178D01*
X17636324Y-41097500D01*
X17640000Y-41134823D01*
X17640001Y-43761687D01*
X17421495Y-43907688D01*
X17207688Y-44121495D01*
X17039701Y-44372905D01*
X16923989Y-44652257D01*
X16865000Y-44948816D01*
X16865000Y-45251184D01*
X16923989Y-45547743D01*
X17039701Y-45827095D01*
X17207688Y-46078505D01*
X17421495Y-46292312D01*
X17640001Y-46438313D01*
X17640001Y-47215015D01*
X17598815Y-47248815D01*
X17519463Y-47345506D01*
X17460498Y-47455820D01*
X17424188Y-47575518D01*
X17411928Y-47700000D01*
X17411928Y-48900000D01*
X17424188Y-49024482D01*
X17460498Y-49144180D01*
X17519463Y-49254494D01*
X17598815Y-49351185D01*
X17695506Y-49430537D01*
X17740000Y-49454320D01*
X17740000Y-51493611D01*
X17517503Y-51222497D01*
X17213725Y-50973193D01*
X16867147Y-50787943D01*
X16491088Y-50673867D01*
X16100000Y-50635348D01*
X15720695Y-50672707D01*
X16486403Y-49906999D01*
X16515401Y-49883201D01*
X16541732Y-49851117D01*
X16610374Y-49767477D01*
X16680946Y-49635447D01*
X16690446Y-49604128D01*
X16724403Y-49492186D01*
X16735400Y-49380533D01*
X16735400Y-49380523D01*
X16739076Y-49343200D01*
X16735400Y-49305877D01*
X16735400Y-44445622D01*
X16739076Y-44408299D01*
X16735400Y-44370976D01*
X16735400Y-44370967D01*
X16724403Y-44259314D01*
X16680946Y-44116053D01*
X16610374Y-43984024D01*
X16547727Y-43907688D01*
X16539199Y-43897296D01*
X16539195Y-43897292D01*
X16515401Y-43868299D01*
X16486409Y-43844506D01*
X13335800Y-40693899D01*
X13335800Y-35653072D01*
X13842500Y-35653072D01*
X14015754Y-35636008D01*
X14182350Y-35585472D01*
X14335886Y-35503405D01*
X14470462Y-35392962D01*
X14580905Y-35258386D01*
X14662972Y-35104850D01*
X14713508Y-34938254D01*
X14730572Y-34765000D01*
X14730572Y-34139229D01*
X17311003Y-31558799D01*
X17340001Y-31535001D01*
X17376644Y-31490352D01*
X17435026Y-31599576D01*
X17529999Y-31715301D01*
X17645724Y-31810274D01*
X17777753Y-31880846D01*
X17921014Y-31924303D01*
X18032667Y-31935300D01*
X18070000Y-31938977D01*
X18085181Y-31937482D01*
X20088204Y-33940506D01*
X20076928Y-34054997D01*
X20076928Y-34680003D01*
X20093992Y-34853257D01*
X20144528Y-35019852D01*
X20226595Y-35173388D01*
X20337037Y-35307963D01*
X20471612Y-35418405D01*
X20625148Y-35500472D01*
X20791743Y-35551008D01*
X20964997Y-35568072D01*
X22215003Y-35568072D01*
X22388257Y-35551008D01*
X22554852Y-35500472D01*
X22708388Y-35418405D01*
X22842963Y-35307963D01*
X22953405Y-35173388D01*
X23035472Y-35019852D01*
X23086008Y-34853257D01*
X23103072Y-34680003D01*
X23103072Y-34054997D01*
X23086008Y-33881743D01*
X23035472Y-33715148D01*
X22953405Y-33561612D01*
X22842963Y-33427037D01*
X22708388Y-33316595D01*
X22554852Y-33234528D01*
X22388257Y-33183992D01*
X22215003Y-33166928D01*
X21464230Y-33166928D01*
X19231669Y-30934368D01*
X19340000Y-30772240D01*
X19456525Y-30946632D01*
X19663368Y-31153475D01*
X19906589Y-31315990D01*
X20176842Y-31427932D01*
X20463740Y-31485000D01*
X20756260Y-31485000D01*
X21043158Y-31427932D01*
X21313411Y-31315990D01*
X21556632Y-31153475D01*
X21763475Y-30946632D01*
X21880000Y-30772240D01*
X21996525Y-30946632D01*
G37*
%TD.AperFunction*%
D22*
X10272028Y-35104850D02*
X10354095Y-35258386D01*
X10464538Y-35392962D01*
X10599114Y-35503405D01*
X10752650Y-35585472D01*
X10919246Y-35636008D01*
X11092500Y-35653072D01*
X11767500Y-35653072D01*
X11815800Y-35648315D01*
X11815801Y-40971368D01*
X11812124Y-41008700D01*
X11826798Y-41157685D01*
X11870254Y-41300946D01*
X11940826Y-41432976D01*
X12012001Y-41519702D01*
X12035800Y-41548701D01*
X12064798Y-41572499D01*
X15215400Y-44723103D01*
X15215401Y-47061928D01*
X15184700Y-47061928D01*
X15184700Y-46199522D01*
X15188376Y-46162199D01*
X15184700Y-46124876D01*
X15184700Y-46124867D01*
X15173703Y-46013214D01*
X15130246Y-45869953D01*
X15059674Y-45737924D01*
X14964701Y-45622199D01*
X14935704Y-45598402D01*
X12163072Y-42825771D01*
X12163072Y-42074997D01*
X12146008Y-41901743D01*
X12095472Y-41735148D01*
X12013405Y-41581612D01*
X11902963Y-41447037D01*
X11768388Y-41336595D01*
X11722500Y-41312067D01*
X11722500Y-39132322D01*
X11726176Y-39094999D01*
X11722500Y-39057676D01*
X11722500Y-39057667D01*
X11711503Y-38946014D01*
X11668046Y-38802753D01*
X11597474Y-38670724D01*
X11502501Y-38554999D01*
X11473504Y-38531202D01*
X8742683Y-35800382D01*
X8769997Y-35803072D01*
X9395003Y-35803072D01*
X9568257Y-35786008D01*
X9734852Y-35735472D01*
X9888388Y-35653405D01*
X10022963Y-35542963D01*
X10133405Y-35408388D01*
X10215472Y-35254852D01*
X10266008Y-35088257D01*
X10266250Y-35085802D01*
X10272028Y-35104850D01*
%TA.AperFunction,NonConductor*%
D23*
G36*
X10272028Y-35104850D02*
G01*
X10354095Y-35258386D01*
X10464538Y-35392962D01*
X10599114Y-35503405D01*
X10752650Y-35585472D01*
X10919246Y-35636008D01*
X11092500Y-35653072D01*
X11767500Y-35653072D01*
X11815800Y-35648315D01*
X11815801Y-40971368D01*
X11812124Y-41008700D01*
X11826798Y-41157685D01*
X11870254Y-41300946D01*
X11940826Y-41432976D01*
X12012001Y-41519702D01*
X12035800Y-41548701D01*
X12064798Y-41572499D01*
X15215400Y-44723103D01*
X15215401Y-47061928D01*
X15184700Y-47061928D01*
X15184700Y-46199522D01*
X15188376Y-46162199D01*
X15184700Y-46124876D01*
X15184700Y-46124867D01*
X15173703Y-46013214D01*
X15130246Y-45869953D01*
X15059674Y-45737924D01*
X14964701Y-45622199D01*
X14935704Y-45598402D01*
X12163072Y-42825771D01*
X12163072Y-42074997D01*
X12146008Y-41901743D01*
X12095472Y-41735148D01*
X12013405Y-41581612D01*
X11902963Y-41447037D01*
X11768388Y-41336595D01*
X11722500Y-41312067D01*
X11722500Y-39132322D01*
X11726176Y-39094999D01*
X11722500Y-39057676D01*
X11722500Y-39057667D01*
X11711503Y-38946014D01*
X11668046Y-38802753D01*
X11597474Y-38670724D01*
X11502501Y-38554999D01*
X11473504Y-38531202D01*
X8742683Y-35800382D01*
X8769997Y-35803072D01*
X9395003Y-35803072D01*
X9568257Y-35786008D01*
X9734852Y-35735472D01*
X9888388Y-35653405D01*
X10022963Y-35542963D01*
X10133405Y-35408388D01*
X10215472Y-35254852D01*
X10266008Y-35088257D01*
X10266250Y-35085802D01*
X10272028Y-35104850D01*
G37*
%TD.AperFunction*%
D22*
X11836525Y-30946632D02*
X12043368Y-31153475D01*
X12286589Y-31315990D01*
X12445136Y-31381662D01*
X12064802Y-31761997D01*
X12035799Y-31785799D01*
X11980671Y-31852974D01*
X11940826Y-31901524D01*
X11920807Y-31938977D01*
X11870254Y-32033554D01*
X11826797Y-32176815D01*
X11815800Y-32288468D01*
X11815800Y-32288478D01*
X11812124Y-32325800D01*
X11815800Y-32363122D01*
X11815800Y-32931685D01*
X11767500Y-32926928D01*
X11092500Y-32926928D01*
X10919246Y-32943992D01*
X10752650Y-32994528D01*
X10599114Y-33076595D01*
X10464538Y-33187038D01*
X10354095Y-33321614D01*
X10272028Y-33475150D01*
X10266250Y-33494198D01*
X10266008Y-33491743D01*
X10215472Y-33325148D01*
X10133405Y-33171612D01*
X10022963Y-33037037D01*
X9888388Y-32926595D01*
X9842500Y-32902067D01*
X9842500Y-32385122D01*
X9846176Y-32347799D01*
X9842500Y-32310476D01*
X9842500Y-32310467D01*
X9831503Y-32198814D01*
X9788046Y-32055553D01*
X9717474Y-31923524D01*
X9675119Y-31871914D01*
X9646299Y-31836796D01*
X9646295Y-31836792D01*
X9622501Y-31807799D01*
X9593508Y-31784005D01*
X9155987Y-31346485D01*
X9211185Y-31301185D01*
X9290537Y-31204494D01*
X9349502Y-31094180D01*
X9371513Y-31021620D01*
X9503368Y-31153475D01*
X9746589Y-31315990D01*
X10016842Y-31427932D01*
X10303740Y-31485000D01*
X10596260Y-31485000D01*
X10883158Y-31427932D01*
X11153411Y-31315990D01*
X11396632Y-31153475D01*
X11603475Y-30946632D01*
X11720000Y-30772240D01*
X11836525Y-30946632D01*
%TA.AperFunction,NonConductor*%
D23*
G36*
X11836525Y-30946632D02*
G01*
X12043368Y-31153475D01*
X12286589Y-31315990D01*
X12445136Y-31381662D01*
X12064802Y-31761997D01*
X12035799Y-31785799D01*
X11980671Y-31852974D01*
X11940826Y-31901524D01*
X11920807Y-31938977D01*
X11870254Y-32033554D01*
X11826797Y-32176815D01*
X11815800Y-32288468D01*
X11815800Y-32288478D01*
X11812124Y-32325800D01*
X11815800Y-32363122D01*
X11815800Y-32931685D01*
X11767500Y-32926928D01*
X11092500Y-32926928D01*
X10919246Y-32943992D01*
X10752650Y-32994528D01*
X10599114Y-33076595D01*
X10464538Y-33187038D01*
X10354095Y-33321614D01*
X10272028Y-33475150D01*
X10266250Y-33494198D01*
X10266008Y-33491743D01*
X10215472Y-33325148D01*
X10133405Y-33171612D01*
X10022963Y-33037037D01*
X9888388Y-32926595D01*
X9842500Y-32902067D01*
X9842500Y-32385122D01*
X9846176Y-32347799D01*
X9842500Y-32310476D01*
X9842500Y-32310467D01*
X9831503Y-32198814D01*
X9788046Y-32055553D01*
X9717474Y-31923524D01*
X9675119Y-31871914D01*
X9646299Y-31836796D01*
X9646295Y-31836792D01*
X9622501Y-31807799D01*
X9593508Y-31784005D01*
X9155987Y-31346485D01*
X9211185Y-31301185D01*
X9290537Y-31204494D01*
X9349502Y-31094180D01*
X9371513Y-31021620D01*
X9503368Y-31153475D01*
X9746589Y-31315990D01*
X10016842Y-31427932D01*
X10303740Y-31485000D01*
X10596260Y-31485000D01*
X10883158Y-31427932D01*
X11153411Y-31315990D01*
X11396632Y-31153475D01*
X11603475Y-30946632D01*
X11720000Y-30772240D01*
X11836525Y-30946632D01*
G37*
%TD.AperFunction*%
D22*
X14826589Y-31315990D02*
X15096842Y-31427932D01*
X15259843Y-31460355D01*
X13793271Y-32926928D01*
X13335800Y-32926928D01*
X13335800Y-32640601D01*
X14710708Y-31265695D01*
X14728933Y-31250738D01*
X14826589Y-31315990D01*
%TA.AperFunction,NonConductor*%
D23*
G36*
X14826589Y-31315990D02*
G01*
X15096842Y-31427932D01*
X15259843Y-31460355D01*
X13793271Y-32926928D01*
X13335800Y-32926928D01*
X13335800Y-32640601D01*
X14710708Y-31265695D01*
X14728933Y-31250738D01*
X14826589Y-31315990D01*
G37*
%TD.AperFunction*%
D22*
X12576928Y-27295003D02*
X12593992Y-27468257D01*
X12644528Y-27634852D01*
X12726595Y-27788388D01*
X12837037Y-27922963D01*
X12971612Y-28033405D01*
X13125148Y-28115472D01*
X13291743Y-28166008D01*
X13439700Y-28180580D01*
X13439700Y-28578920D01*
X13423158Y-28572068D01*
X13136260Y-28515000D01*
X12843740Y-28515000D01*
X12556842Y-28572068D01*
X12286589Y-28684010D01*
X12043368Y-28846525D01*
X11836525Y-29053368D01*
X11720000Y-29227760D01*
X11603475Y-29053368D01*
X11396632Y-28846525D01*
X11153411Y-28684010D01*
X10883158Y-28572068D01*
X10846271Y-28564731D01*
X12576928Y-26834074D01*
X12576928Y-27295003D01*
%TA.AperFunction,NonConductor*%
D23*
G36*
X12576928Y-27295003D02*
G01*
X12593992Y-27468257D01*
X12644528Y-27634852D01*
X12726595Y-27788388D01*
X12837037Y-27922963D01*
X12971612Y-28033405D01*
X13125148Y-28115472D01*
X13291743Y-28166008D01*
X13439700Y-28180580D01*
X13439700Y-28578920D01*
X13423158Y-28572068D01*
X13136260Y-28515000D01*
X12843740Y-28515000D01*
X12556842Y-28572068D01*
X12286589Y-28684010D01*
X12043368Y-28846525D01*
X11836525Y-29053368D01*
X11720000Y-29227760D01*
X11603475Y-29053368D01*
X11396632Y-28846525D01*
X11153411Y-28684010D01*
X10883158Y-28572068D01*
X10846271Y-28564731D01*
X12576928Y-26834074D01*
X12576928Y-27295003D01*
G37*
%TD.AperFunction*%
D22*
X23701801Y-25874804D02*
X23701801Y-28621211D01*
X23583158Y-28572068D01*
X23296260Y-28515000D01*
X23003740Y-28515000D01*
X22716842Y-28572068D01*
X22446589Y-28684010D01*
X22203368Y-28846525D01*
X21996525Y-29053368D01*
X21880000Y-29227760D01*
X21763475Y-29053368D01*
X21556632Y-28846525D01*
X21313411Y-28684010D01*
X21043158Y-28572068D01*
X20756260Y-28515000D01*
X20463740Y-28515000D01*
X20176842Y-28572068D01*
X19906589Y-28684010D01*
X19663368Y-28846525D01*
X19456525Y-29053368D01*
X19340000Y-29227760D01*
X19223475Y-29053368D01*
X19155771Y-28985664D01*
X19279976Y-28919274D01*
X19395701Y-28824301D01*
X19419504Y-28795297D01*
X21731070Y-26483731D01*
X21988816Y-26535000D01*
X22291184Y-26535000D01*
X22587743Y-26476011D01*
X22867095Y-26360299D01*
X23118505Y-26192312D01*
X23332312Y-25978505D01*
X23500299Y-25727095D01*
X23516055Y-25689058D01*
X23701801Y-25874804D01*
%TA.AperFunction,NonConductor*%
D23*
G36*
X23701801Y-25874804D02*
G01*
X23701801Y-28621211D01*
X23583158Y-28572068D01*
X23296260Y-28515000D01*
X23003740Y-28515000D01*
X22716842Y-28572068D01*
X22446589Y-28684010D01*
X22203368Y-28846525D01*
X21996525Y-29053368D01*
X21880000Y-29227760D01*
X21763475Y-29053368D01*
X21556632Y-28846525D01*
X21313411Y-28684010D01*
X21043158Y-28572068D01*
X20756260Y-28515000D01*
X20463740Y-28515000D01*
X20176842Y-28572068D01*
X19906589Y-28684010D01*
X19663368Y-28846525D01*
X19456525Y-29053368D01*
X19340000Y-29227760D01*
X19223475Y-29053368D01*
X19155771Y-28985664D01*
X19279976Y-28919274D01*
X19395701Y-28824301D01*
X19419504Y-28795297D01*
X21731070Y-26483731D01*
X21988816Y-26535000D01*
X22291184Y-26535000D01*
X22587743Y-26476011D01*
X22867095Y-26360299D01*
X23118505Y-26192312D01*
X23332312Y-25978505D01*
X23500299Y-25727095D01*
X23516055Y-25689058D01*
X23701801Y-25874804D01*
G37*
%TD.AperFunction*%
D22*
X11447037Y-24802963D02*
X11581612Y-24913405D01*
X11735148Y-24995472D01*
X11901743Y-25046008D01*
X12074997Y-25063072D01*
X12198326Y-25063072D01*
X9295899Y-27965500D01*
X8152002Y-27965500D01*
X11387313Y-24730189D01*
X11447037Y-24802963D01*
%TA.AperFunction,NonConductor*%
D23*
G36*
X11447037Y-24802963D02*
G01*
X11581612Y-24913405D01*
X11735148Y-24995472D01*
X11901743Y-25046008D01*
X12074997Y-25063072D01*
X12198326Y-25063072D01*
X9295899Y-27965500D01*
X8152002Y-27965500D01*
X11387313Y-24730189D01*
X11447037Y-24802963D01*
G37*
%TD.AperFunction*%
D22*
X17500000Y-21638072D02*
X17640001Y-21638072D01*
X17640001Y-22537368D01*
X17636324Y-22574700D01*
X17650998Y-22723685D01*
X17694454Y-22866946D01*
X17765026Y-22998976D01*
X17827281Y-23074833D01*
X17860000Y-23114701D01*
X17888998Y-23138499D01*
X18331476Y-23580977D01*
X18248815Y-23648815D01*
X18169463Y-23745506D01*
X18110498Y-23855820D01*
X18074188Y-23975518D01*
X18061928Y-24100000D01*
X18061928Y-25900000D01*
X18074188Y-26024482D01*
X18110498Y-26144180D01*
X18169463Y-26254494D01*
X18248815Y-26351185D01*
X18345506Y-26430537D01*
X18455820Y-26489502D01*
X18575518Y-26525812D01*
X18700000Y-26538072D01*
X19527127Y-26538072D01*
X18540899Y-27524300D01*
X18132923Y-27524300D01*
X18095600Y-27520624D01*
X18058277Y-27524300D01*
X18058267Y-27524300D01*
X17946614Y-27535297D01*
X17857469Y-27562338D01*
X17886008Y-27468257D01*
X17903072Y-27295003D01*
X17903072Y-26044997D01*
X17886008Y-25871743D01*
X17835472Y-25705148D01*
X17753405Y-25551612D01*
X17642963Y-25417037D01*
X17508388Y-25306595D01*
X17462500Y-25282067D01*
X17462500Y-21634379D01*
X17500000Y-21638072D01*
%TA.AperFunction,NonConductor*%
D23*
G36*
X17500000Y-21638072D02*
G01*
X17640001Y-21638072D01*
X17640001Y-22537368D01*
X17636324Y-22574700D01*
X17650998Y-22723685D01*
X17694454Y-22866946D01*
X17765026Y-22998976D01*
X17827281Y-23074833D01*
X17860000Y-23114701D01*
X17888998Y-23138499D01*
X18331476Y-23580977D01*
X18248815Y-23648815D01*
X18169463Y-23745506D01*
X18110498Y-23855820D01*
X18074188Y-23975518D01*
X18061928Y-24100000D01*
X18061928Y-25900000D01*
X18074188Y-26024482D01*
X18110498Y-26144180D01*
X18169463Y-26254494D01*
X18248815Y-26351185D01*
X18345506Y-26430537D01*
X18455820Y-26489502D01*
X18575518Y-26525812D01*
X18700000Y-26538072D01*
X19527127Y-26538072D01*
X18540899Y-27524300D01*
X18132923Y-27524300D01*
X18095600Y-27520624D01*
X18058277Y-27524300D01*
X18058267Y-27524300D01*
X17946614Y-27535297D01*
X17857469Y-27562338D01*
X17886008Y-27468257D01*
X17903072Y-27295003D01*
X17903072Y-26044997D01*
X17886008Y-25871743D01*
X17835472Y-25705148D01*
X17753405Y-25551612D01*
X17642963Y-25417037D01*
X17508388Y-25306595D01*
X17462500Y-25282067D01*
X17462500Y-21634379D01*
X17500000Y-21638072D01*
G37*
%TD.AperFunction*%
D22*
X14319601Y-25191084D02*
X14263257Y-25173992D01*
X14239363Y-25171639D01*
X14319601Y-25091401D01*
X14319601Y-25191084D01*
%TA.AperFunction,NonConductor*%
D23*
G36*
X14319601Y-25191084D02*
G01*
X14263257Y-25173992D01*
X14239363Y-25171639D01*
X14319601Y-25091401D01*
X14319601Y-25191084D01*
G37*
%TD.AperFunction*%
D22*
X29315000Y-24189199D02*
X29250496Y-24124694D01*
X29315000Y-24090216D01*
X29315000Y-24189199D01*
%TA.AperFunction,NonConductor*%
D23*
G36*
X29315000Y-24189199D02*
G01*
X29250496Y-24124694D01*
X29315000Y-24090216D01*
X29315000Y-24189199D01*
G37*
%TD.AperFunction*%
D22*
X21450943Y-23623945D02*
X21412905Y-23639701D01*
X21161495Y-23807688D01*
X21095056Y-23874127D01*
X21089502Y-23855820D01*
X21030537Y-23745506D01*
X20951185Y-23648815D01*
X20854494Y-23569463D01*
X20744180Y-23510498D01*
X20624482Y-23474188D01*
X20500000Y-23461928D01*
X20294575Y-23461928D01*
X20234974Y-23350424D01*
X20140001Y-23234699D01*
X20111003Y-23210901D01*
X19160000Y-22259899D01*
X19160000Y-21638072D01*
X19300000Y-21638072D01*
X19424482Y-21625812D01*
X19446217Y-21619219D01*
X21450943Y-23623945D01*
%TA.AperFunction,NonConductor*%
D23*
G36*
X21450943Y-23623945D02*
G01*
X21412905Y-23639701D01*
X21161495Y-23807688D01*
X21095056Y-23874127D01*
X21089502Y-23855820D01*
X21030537Y-23745506D01*
X20951185Y-23648815D01*
X20854494Y-23569463D01*
X20744180Y-23510498D01*
X20624482Y-23474188D01*
X20500000Y-23461928D01*
X20294575Y-23461928D01*
X20234974Y-23350424D01*
X20140001Y-23234699D01*
X20111003Y-23210901D01*
X19160000Y-22259899D01*
X19160000Y-21638072D01*
X19300000Y-21638072D01*
X19424482Y-21625812D01*
X19446217Y-21619219D01*
X21450943Y-23623945D01*
G37*
%TD.AperFunction*%
D22*
X24641928Y-17019230D02*
X24641928Y-17770003D01*
X24658992Y-17943257D01*
X24709528Y-18109852D01*
X24791595Y-18263388D01*
X24902037Y-18397963D01*
X25036612Y-18508405D01*
X25190148Y-18590472D01*
X25356743Y-18641008D01*
X25529997Y-18658072D01*
X25892501Y-18658072D01*
X25892500Y-22580199D01*
X24491559Y-21179258D01*
X24592312Y-21078505D01*
X24760299Y-20827095D01*
X24876011Y-20547743D01*
X24935000Y-20251184D01*
X24935000Y-19948816D01*
X24876011Y-19652257D01*
X24760299Y-19372905D01*
X24592312Y-19121495D01*
X24378505Y-18907688D01*
X24127095Y-18739701D01*
X23847743Y-18623989D01*
X23551184Y-18565000D01*
X23248816Y-18565000D01*
X22952257Y-18623989D01*
X22910100Y-18641451D01*
X22910100Y-17120622D01*
X22913776Y-17083299D01*
X22910100Y-17045976D01*
X22910100Y-17045967D01*
X22899103Y-16934314D01*
X22855646Y-16791053D01*
X22837711Y-16757499D01*
X22785074Y-16659023D01*
X22713899Y-16572297D01*
X22690101Y-16543299D01*
X22661103Y-16519501D01*
X19175000Y-13033399D01*
X19175000Y-11552301D01*
X24641928Y-17019230D01*
%TA.AperFunction,NonConductor*%
D23*
G36*
X24641928Y-17019230D02*
G01*
X24641928Y-17770003D01*
X24658992Y-17943257D01*
X24709528Y-18109852D01*
X24791595Y-18263388D01*
X24902037Y-18397963D01*
X25036612Y-18508405D01*
X25190148Y-18590472D01*
X25356743Y-18641008D01*
X25529997Y-18658072D01*
X25892501Y-18658072D01*
X25892500Y-22580199D01*
X24491559Y-21179258D01*
X24592312Y-21078505D01*
X24760299Y-20827095D01*
X24876011Y-20547743D01*
X24935000Y-20251184D01*
X24935000Y-19948816D01*
X24876011Y-19652257D01*
X24760299Y-19372905D01*
X24592312Y-19121495D01*
X24378505Y-18907688D01*
X24127095Y-18739701D01*
X23847743Y-18623989D01*
X23551184Y-18565000D01*
X23248816Y-18565000D01*
X22952257Y-18623989D01*
X22910100Y-18641451D01*
X22910100Y-17120622D01*
X22913776Y-17083299D01*
X22910100Y-17045976D01*
X22910100Y-17045967D01*
X22899103Y-16934314D01*
X22855646Y-16791053D01*
X22837711Y-16757499D01*
X22785074Y-16659023D01*
X22713899Y-16572297D01*
X22690101Y-16543299D01*
X22661103Y-16519501D01*
X19175000Y-13033399D01*
X19175000Y-11552301D01*
X24641928Y-17019230D01*
G37*
%TD.AperFunction*%
D22*
X29315000Y-21984784D02*
X29164852Y-21904528D01*
X29129805Y-21893897D01*
X29315000Y-21708701D01*
X29315000Y-21984784D01*
%TA.AperFunction,NonConductor*%
D23*
G36*
X29315000Y-21984784D02*
G01*
X29164852Y-21904528D01*
X29129805Y-21893897D01*
X29315000Y-21708701D01*
X29315000Y-21984784D01*
G37*
%TD.AperFunction*%
D22*
X27961612Y-18508405D02*
X28115148Y-18590472D01*
X28281743Y-18641008D01*
X28454997Y-18658072D01*
X28900501Y-18658072D01*
X28900501Y-19973597D01*
X27984186Y-20889913D01*
X27897056Y-20831695D01*
X27708698Y-20753674D01*
X27508739Y-20713900D01*
X27412500Y-20713900D01*
X27412500Y-18895301D01*
X27736604Y-18571198D01*
X27765601Y-18547401D01*
X27860574Y-18431676D01*
X27862874Y-18427373D01*
X27961612Y-18508405D01*
%TA.AperFunction,NonConductor*%
D23*
G36*
X27961612Y-18508405D02*
G01*
X28115148Y-18590472D01*
X28281743Y-18641008D01*
X28454997Y-18658072D01*
X28900501Y-18658072D01*
X28900501Y-19973597D01*
X27984186Y-20889913D01*
X27897056Y-20831695D01*
X27708698Y-20753674D01*
X27508739Y-20713900D01*
X27412500Y-20713900D01*
X27412500Y-18895301D01*
X27736604Y-18571198D01*
X27765601Y-18547401D01*
X27860574Y-18431676D01*
X27862874Y-18427373D01*
X27961612Y-18508405D01*
G37*
%TD.AperFunction*%
D22*
X10407300Y-18766802D02*
X10431099Y-18795801D01*
X10546824Y-18890774D01*
X10678853Y-18961346D01*
X10822114Y-19004803D01*
X10933767Y-19015800D01*
X10933777Y-19015800D01*
X10971100Y-19019476D01*
X11008423Y-19015800D01*
X11535199Y-19015800D01*
X12256327Y-19736928D01*
X12074997Y-19736928D01*
X11901743Y-19753992D01*
X11735148Y-19804528D01*
X11581612Y-19886595D01*
X11447037Y-19997037D01*
X11336595Y-20131612D01*
X11312067Y-20177500D01*
X10852302Y-20177500D01*
X8697874Y-18023072D01*
X9010003Y-18023072D01*
X9183257Y-18006008D01*
X9349852Y-17955472D01*
X9503388Y-17873405D01*
X9509164Y-17868665D01*
X10407300Y-18766802D01*
%TA.AperFunction,NonConductor*%
D23*
G36*
X10407300Y-18766802D02*
G01*
X10431099Y-18795801D01*
X10546824Y-18890774D01*
X10678853Y-18961346D01*
X10822114Y-19004803D01*
X10933767Y-19015800D01*
X10933777Y-19015800D01*
X10971100Y-19019476D01*
X11008423Y-19015800D01*
X11535199Y-19015800D01*
X12256327Y-19736928D01*
X12074997Y-19736928D01*
X11901743Y-19753992D01*
X11735148Y-19804528D01*
X11581612Y-19886595D01*
X11447037Y-19997037D01*
X11336595Y-20131612D01*
X11312067Y-20177500D01*
X10852302Y-20177500D01*
X8697874Y-18023072D01*
X9010003Y-18023072D01*
X9183257Y-18006008D01*
X9349852Y-17955472D01*
X9503388Y-17873405D01*
X9509164Y-17868665D01*
X10407300Y-18766802D01*
G37*
%TD.AperFunction*%
D22*
X21390101Y-17398103D02*
X21390101Y-18641534D01*
X21347743Y-18623989D01*
X21051184Y-18565000D01*
X20748816Y-18565000D01*
X20452257Y-18623989D01*
X20385400Y-18651682D01*
X20385400Y-17100823D01*
X20389076Y-17063500D01*
X20385400Y-17026177D01*
X20385400Y-17026167D01*
X20374403Y-16914514D01*
X20330946Y-16771253D01*
X20285764Y-16686724D01*
X20260374Y-16639223D01*
X20189199Y-16552497D01*
X20165401Y-16523499D01*
X20136403Y-16499701D01*
X18724600Y-15087899D01*
X18724600Y-14732601D01*
X21390101Y-17398103D01*
%TA.AperFunction,NonConductor*%
D23*
G36*
X21390101Y-17398103D02*
G01*
X21390101Y-18641534D01*
X21347743Y-18623989D01*
X21051184Y-18565000D01*
X20748816Y-18565000D01*
X20452257Y-18623989D01*
X20385400Y-18651682D01*
X20385400Y-17100823D01*
X20389076Y-17063500D01*
X20385400Y-17026177D01*
X20385400Y-17026167D01*
X20374403Y-16914514D01*
X20330946Y-16771253D01*
X20285764Y-16686724D01*
X20260374Y-16639223D01*
X20189199Y-16552497D01*
X20165401Y-16523499D01*
X20136403Y-16499701D01*
X18724600Y-15087899D01*
X18724600Y-14732601D01*
X21390101Y-17398103D01*
G37*
%TD.AperFunction*%
D22*
X15386200Y-4905202D02*
X15409999Y-4934201D01*
X15486032Y-4996600D01*
X14109922Y-4996600D01*
X14072600Y-4992924D01*
X14035277Y-4996600D01*
X14035267Y-4996600D01*
X13923614Y-5007597D01*
X13799477Y-5045253D01*
X13780353Y-5051054D01*
X13648323Y-5121626D01*
X13573680Y-5182885D01*
X13532599Y-5216599D01*
X13508800Y-5245598D01*
X12995102Y-5759297D01*
X12966099Y-5783099D01*
X12922171Y-5836626D01*
X12871126Y-5898824D01*
X12816022Y-6001916D01*
X12800554Y-6030854D01*
X12757097Y-6174115D01*
X12746100Y-6285768D01*
X12746100Y-6285778D01*
X12742424Y-6323100D01*
X12746100Y-6360422D01*
X12746101Y-14158568D01*
X12742424Y-14195900D01*
X12746101Y-14233233D01*
X12746717Y-14239482D01*
X12757098Y-14344885D01*
X12800554Y-14488146D01*
X12871126Y-14620176D01*
X12942301Y-14706902D01*
X12966100Y-14735901D01*
X12995098Y-14759699D01*
X14808500Y-16573102D01*
X14808500Y-18621198D01*
X12823072Y-16635771D01*
X12823072Y-15884997D01*
X12806008Y-15711743D01*
X12755472Y-15545148D01*
X12673405Y-15391612D01*
X12562963Y-15257037D01*
X12428388Y-15146595D01*
X12382500Y-15122067D01*
X12382500Y-12156046D01*
X12413405Y-12118388D01*
X12495472Y-11964852D01*
X12546008Y-11798257D01*
X12563072Y-11625003D01*
X12563072Y-10374997D01*
X12546008Y-10201743D01*
X12495472Y-10035148D01*
X12413405Y-9881612D01*
X12302963Y-9747037D01*
X12168388Y-9636595D01*
X12122500Y-9612067D01*
X12122500Y-8326007D01*
X12124482Y-8325812D01*
X12244180Y-8289502D01*
X12354494Y-8230537D01*
X12451185Y-8151185D01*
X12530537Y-8054494D01*
X12589502Y-7944180D01*
X12625812Y-7824482D01*
X12638072Y-7700000D01*
X12638072Y-6800000D01*
X12625812Y-6675518D01*
X12589502Y-6555820D01*
X12530537Y-6445506D01*
X12451185Y-6348815D01*
X12412189Y-6316812D01*
X14510930Y-4218072D01*
X14699071Y-4218072D01*
X15386200Y-4905202D01*
%TA.AperFunction,NonConductor*%
D23*
G36*
X15386200Y-4905202D02*
G01*
X15409999Y-4934201D01*
X15486032Y-4996600D01*
X14109922Y-4996600D01*
X14072600Y-4992924D01*
X14035277Y-4996600D01*
X14035267Y-4996600D01*
X13923614Y-5007597D01*
X13799477Y-5045253D01*
X13780353Y-5051054D01*
X13648323Y-5121626D01*
X13573680Y-5182885D01*
X13532599Y-5216599D01*
X13508800Y-5245598D01*
X12995102Y-5759297D01*
X12966099Y-5783099D01*
X12922171Y-5836626D01*
X12871126Y-5898824D01*
X12816022Y-6001916D01*
X12800554Y-6030854D01*
X12757097Y-6174115D01*
X12746100Y-6285768D01*
X12746100Y-6285778D01*
X12742424Y-6323100D01*
X12746100Y-6360422D01*
X12746101Y-14158568D01*
X12742424Y-14195900D01*
X12746101Y-14233233D01*
X12746717Y-14239482D01*
X12757098Y-14344885D01*
X12800554Y-14488146D01*
X12871126Y-14620176D01*
X12942301Y-14706902D01*
X12966100Y-14735901D01*
X12995098Y-14759699D01*
X14808500Y-16573102D01*
X14808500Y-18621198D01*
X12823072Y-16635771D01*
X12823072Y-15884997D01*
X12806008Y-15711743D01*
X12755472Y-15545148D01*
X12673405Y-15391612D01*
X12562963Y-15257037D01*
X12428388Y-15146595D01*
X12382500Y-15122067D01*
X12382500Y-12156046D01*
X12413405Y-12118388D01*
X12495472Y-11964852D01*
X12546008Y-11798257D01*
X12563072Y-11625003D01*
X12563072Y-10374997D01*
X12546008Y-10201743D01*
X12495472Y-10035148D01*
X12413405Y-9881612D01*
X12302963Y-9747037D01*
X12168388Y-9636595D01*
X12122500Y-9612067D01*
X12122500Y-8326007D01*
X12124482Y-8325812D01*
X12244180Y-8289502D01*
X12354494Y-8230537D01*
X12451185Y-8151185D01*
X12530537Y-8054494D01*
X12589502Y-7944180D01*
X12625812Y-7824482D01*
X12638072Y-7700000D01*
X12638072Y-6800000D01*
X12625812Y-6675518D01*
X12589502Y-6555820D01*
X12530537Y-6445506D01*
X12451185Y-6348815D01*
X12412189Y-6316812D01*
X14510930Y-4218072D01*
X14699071Y-4218072D01*
X15386200Y-4905202D01*
G37*
%TD.AperFunction*%
D22*
X17204600Y-15365377D02*
X17200924Y-15402700D01*
X17204600Y-15440022D01*
X17204600Y-15440032D01*
X17215597Y-15551685D01*
X17247072Y-15655446D01*
X17259054Y-15694946D01*
X17329626Y-15826976D01*
X17369060Y-15875026D01*
X17424599Y-15942701D01*
X17453603Y-15966504D01*
X18865401Y-17378303D01*
X18865401Y-18561928D01*
X17500000Y-18561928D01*
X17462500Y-18565621D01*
X17462500Y-16563323D01*
X17466176Y-16526000D01*
X17462500Y-16488677D01*
X17462500Y-16488667D01*
X17451503Y-16377014D01*
X17408046Y-16233753D01*
X17337474Y-16101724D01*
X17242501Y-15985999D01*
X17213503Y-15962201D01*
X16114523Y-14863222D01*
X16491087Y-14826133D01*
X16867146Y-14712057D01*
X17204600Y-14531684D01*
X17204600Y-15365377D01*
%TA.AperFunction,NonConductor*%
D23*
G36*
X17204600Y-15365377D02*
G01*
X17200924Y-15402700D01*
X17204600Y-15440022D01*
X17204600Y-15440032D01*
X17215597Y-15551685D01*
X17247072Y-15655446D01*
X17259054Y-15694946D01*
X17329626Y-15826976D01*
X17369060Y-15875026D01*
X17424599Y-15942701D01*
X17453603Y-15966504D01*
X18865401Y-17378303D01*
X18865401Y-18561928D01*
X17500000Y-18561928D01*
X17462500Y-18565621D01*
X17462500Y-16563323D01*
X17466176Y-16526000D01*
X17462500Y-16488677D01*
X17462500Y-16488667D01*
X17451503Y-16377014D01*
X17408046Y-16233753D01*
X17337474Y-16101724D01*
X17242501Y-15985999D01*
X17213503Y-15962201D01*
X16114523Y-14863222D01*
X16491087Y-14826133D01*
X16867146Y-14712057D01*
X17204600Y-14531684D01*
X17204600Y-15365377D01*
G37*
%TD.AperFunction*%
D22*
X7056601Y-15591768D02*
X7052924Y-15629100D01*
X7056601Y-15666433D01*
X7067598Y-15778086D01*
X7072993Y-15795872D01*
X7111054Y-15921346D01*
X7181626Y-16053376D01*
X7252801Y-16140102D01*
X7276600Y-16169101D01*
X7305598Y-16192899D01*
X7496928Y-16384229D01*
X7496928Y-16822127D01*
X6515926Y-15841125D01*
X6534670Y-15795872D01*
X6600000Y-15467435D01*
X6600000Y-15132565D01*
X6534670Y-14804128D01*
X6406521Y-14494748D01*
X6392290Y-14473450D01*
X6395537Y-14469494D01*
X6454502Y-14359180D01*
X6490812Y-14239482D01*
X6498965Y-14156700D01*
X7056600Y-14156700D01*
X7056601Y-15591768D01*
%TA.AperFunction,NonConductor*%
D23*
G36*
X7056601Y-15591768D02*
G01*
X7052924Y-15629100D01*
X7056601Y-15666433D01*
X7067598Y-15778086D01*
X7072993Y-15795872D01*
X7111054Y-15921346D01*
X7181626Y-16053376D01*
X7252801Y-16140102D01*
X7276600Y-16169101D01*
X7305598Y-16192899D01*
X7496928Y-16384229D01*
X7496928Y-16822127D01*
X6515926Y-15841125D01*
X6534670Y-15795872D01*
X6600000Y-15467435D01*
X6600000Y-15132565D01*
X6534670Y-14804128D01*
X6406521Y-14494748D01*
X6392290Y-14473450D01*
X6395537Y-14469494D01*
X6454502Y-14359180D01*
X6490812Y-14239482D01*
X6498965Y-14156700D01*
X7056600Y-14156700D01*
X7056601Y-15591768D01*
G37*
%TD.AperFunction*%
D22*
X28228800Y-15665052D02*
X28115148Y-15699528D01*
X27985600Y-15768773D01*
X27985600Y-14114501D01*
X28228800Y-13871301D01*
X28228800Y-15665052D01*
%TA.AperFunction,NonConductor*%
D23*
G36*
X28228800Y-15665052D02*
G01*
X28115148Y-15699528D01*
X27985600Y-15768773D01*
X27985600Y-14114501D01*
X28228800Y-13871301D01*
X28228800Y-15665052D01*
G37*
%TD.AperFunction*%
D22*
X9252801Y-15035088D02*
X9183257Y-15013992D01*
X9010003Y-14996928D01*
X8576600Y-14996928D01*
X8576600Y-13711501D01*
X9252801Y-13035301D01*
X9252801Y-15035088D01*
%TA.AperFunction,NonConductor*%
D23*
G36*
X9252801Y-15035088D02*
G01*
X9183257Y-15013992D01*
X9010003Y-14996928D01*
X8576600Y-14996928D01*
X8576600Y-13711501D01*
X9252801Y-13035301D01*
X9252801Y-15035088D01*
G37*
%TD.AperFunction*%
D22*
X23853992Y-6698257D02*
X23904528Y-6864852D01*
X23986595Y-7018388D01*
X24097037Y-7152963D01*
X24231612Y-7263405D01*
X24385148Y-7345472D01*
X24551743Y-7396008D01*
X24724997Y-7413072D01*
X25202500Y-7413072D01*
X25202500Y-7436928D01*
X25125000Y-7436928D01*
X24951746Y-7453992D01*
X24785150Y-7504528D01*
X24631614Y-7586595D01*
X24497038Y-7697038D01*
X24386595Y-7831614D01*
X24304528Y-7985150D01*
X24253992Y-8151746D01*
X24236928Y-8325000D01*
X24236928Y-9275000D01*
X24253992Y-9448254D01*
X24304528Y-9614850D01*
X24386595Y-9768386D01*
X24497038Y-9902962D01*
X24631614Y-10013405D01*
X24785150Y-10095472D01*
X24951746Y-10146008D01*
X25125000Y-10163072D01*
X25800000Y-10163072D01*
X25973254Y-10146008D01*
X26139850Y-10095472D01*
X26293386Y-10013405D01*
X26427962Y-9902962D01*
X26500000Y-9815183D01*
X26572038Y-9902962D01*
X26706614Y-10013405D01*
X26860150Y-10095472D01*
X27026746Y-10146008D01*
X27200000Y-10163072D01*
X27734900Y-10163072D01*
X27734900Y-12215598D01*
X27695000Y-12255498D01*
X27695000Y-12242003D01*
X27666133Y-11948913D01*
X27552057Y-11572853D01*
X27366807Y-11226275D01*
X27117503Y-10922497D01*
X26813725Y-10673193D01*
X26467147Y-10487943D01*
X26091088Y-10373867D01*
X25700000Y-10335348D01*
X25308913Y-10373867D01*
X24932854Y-10487943D01*
X24586276Y-10673193D01*
X24282498Y-10922497D01*
X24033193Y-11226275D01*
X23847943Y-11572853D01*
X23733867Y-11948912D01*
X23710873Y-12182372D01*
X22985000Y-11456499D01*
X22985000Y-8872976D01*
X23030258Y-8817829D01*
X23103084Y-8681582D01*
X23147929Y-8533745D01*
X23163072Y-8380000D01*
X23163072Y-6730000D01*
X23156177Y-6660000D01*
X23850224Y-6660000D01*
X23853992Y-6698257D01*
%TA.AperFunction,NonConductor*%
D23*
G36*
X23853992Y-6698257D02*
G01*
X23904528Y-6864852D01*
X23986595Y-7018388D01*
X24097037Y-7152963D01*
X24231612Y-7263405D01*
X24385148Y-7345472D01*
X24551743Y-7396008D01*
X24724997Y-7413072D01*
X25202500Y-7413072D01*
X25202500Y-7436928D01*
X25125000Y-7436928D01*
X24951746Y-7453992D01*
X24785150Y-7504528D01*
X24631614Y-7586595D01*
X24497038Y-7697038D01*
X24386595Y-7831614D01*
X24304528Y-7985150D01*
X24253992Y-8151746D01*
X24236928Y-8325000D01*
X24236928Y-9275000D01*
X24253992Y-9448254D01*
X24304528Y-9614850D01*
X24386595Y-9768386D01*
X24497038Y-9902962D01*
X24631614Y-10013405D01*
X24785150Y-10095472D01*
X24951746Y-10146008D01*
X25125000Y-10163072D01*
X25800000Y-10163072D01*
X25973254Y-10146008D01*
X26139850Y-10095472D01*
X26293386Y-10013405D01*
X26427962Y-9902962D01*
X26500000Y-9815183D01*
X26572038Y-9902962D01*
X26706614Y-10013405D01*
X26860150Y-10095472D01*
X27026746Y-10146008D01*
X27200000Y-10163072D01*
X27734900Y-10163072D01*
X27734900Y-12215598D01*
X27695000Y-12255498D01*
X27695000Y-12242003D01*
X27666133Y-11948913D01*
X27552057Y-11572853D01*
X27366807Y-11226275D01*
X27117503Y-10922497D01*
X26813725Y-10673193D01*
X26467147Y-10487943D01*
X26091088Y-10373867D01*
X25700000Y-10335348D01*
X25308913Y-10373867D01*
X24932854Y-10487943D01*
X24586276Y-10673193D01*
X24282498Y-10922497D01*
X24033193Y-11226275D01*
X23847943Y-11572853D01*
X23733867Y-11948912D01*
X23710873Y-12182372D01*
X22985000Y-11456499D01*
X22985000Y-8872976D01*
X23030258Y-8817829D01*
X23103084Y-8681582D01*
X23147929Y-8533745D01*
X23163072Y-8380000D01*
X23163072Y-6730000D01*
X23156177Y-6660000D01*
X23850224Y-6660000D01*
X23853992Y-6698257D01*
G37*
%TD.AperFunction*%
D22*
X20367171Y-9035258D02*
X20503418Y-9108084D01*
X20651255Y-9152929D01*
X20805000Y-9168072D01*
X21105000Y-9168072D01*
X21258745Y-9152929D01*
X21406582Y-9108084D01*
X21465001Y-9076858D01*
X21465000Y-11692699D01*
X19810000Y-10037699D01*
X19810000Y-9168072D01*
X19835000Y-9168072D01*
X19988745Y-9152929D01*
X20136582Y-9108084D01*
X20272829Y-9035258D01*
X20320000Y-8996546D01*
X20367171Y-9035258D01*
%TA.AperFunction,NonConductor*%
D23*
G36*
X20367171Y-9035258D02*
G01*
X20503418Y-9108084D01*
X20651255Y-9152929D01*
X20805000Y-9168072D01*
X21105000Y-9168072D01*
X21258745Y-9152929D01*
X21406582Y-9108084D01*
X21465001Y-9076858D01*
X21465000Y-11692699D01*
X19810000Y-10037699D01*
X19810000Y-9168072D01*
X19835000Y-9168072D01*
X19988745Y-9152929D01*
X20136582Y-9108084D01*
X20272829Y-9035258D01*
X20320000Y-8996546D01*
X20367171Y-9035258D01*
G37*
%TD.AperFunction*%
D22*
X15115000Y-9079722D02*
X15115000Y-9079732D01*
X15125997Y-9191385D01*
X15169454Y-9334646D01*
X15240026Y-9466676D01*
X15256647Y-9486928D01*
X15334999Y-9582401D01*
X15364003Y-9606204D01*
X16093761Y-10335962D01*
X15708913Y-10373867D01*
X15332854Y-10487943D01*
X14986276Y-10673193D01*
X14727800Y-10885319D01*
X14727800Y-9168072D01*
X14755000Y-9168072D01*
X14908745Y-9152929D01*
X15056582Y-9108084D01*
X15114732Y-9077002D01*
X15115000Y-9079722D01*
%TA.AperFunction,NonConductor*%
D23*
G36*
X15115000Y-9079722D02*
G01*
X15115000Y-9079732D01*
X15125997Y-9191385D01*
X15169454Y-9334646D01*
X15240026Y-9466676D01*
X15256647Y-9486928D01*
X15334999Y-9582401D01*
X15364003Y-9606204D01*
X16093761Y-10335962D01*
X15708913Y-10373867D01*
X15332854Y-10487943D01*
X14986276Y-10673193D01*
X14727800Y-10885319D01*
X14727800Y-9168072D01*
X14755000Y-9168072D01*
X14908745Y-9152929D01*
X15056582Y-9108084D01*
X15114732Y-9077002D01*
X15115000Y-9079722D01*
G37*
%TD.AperFunction*%
D22*
X17655001Y-9747599D02*
X17075473Y-9168072D01*
X17295000Y-9168072D01*
X17448745Y-9152929D01*
X17596582Y-9108084D01*
X17655001Y-9076858D01*
X17655001Y-9747599D01*
%TA.AperFunction,NonConductor*%
D23*
G36*
X17655001Y-9747599D02*
G01*
X17075473Y-9168072D01*
X17295000Y-9168072D01*
X17448745Y-9152929D01*
X17596582Y-9108084D01*
X17655001Y-9076858D01*
X17655001Y-9747599D01*
G37*
%TD.AperFunction*%
D22*
X27310148Y-7345472D02*
X27476743Y-7396008D01*
X27649997Y-7413072D01*
X27734901Y-7413072D01*
X27734901Y-7436928D01*
X27249229Y-7436928D01*
X27183400Y-7371099D01*
X27183400Y-7277724D01*
X27310148Y-7345472D01*
%TA.AperFunction,NonConductor*%
D23*
G36*
X27310148Y-7345472D02*
G01*
X27476743Y-7396008D01*
X27649997Y-7413072D01*
X27734901Y-7413072D01*
X27734901Y-7436928D01*
X27249229Y-7436928D01*
X27183400Y-7371099D01*
X27183400Y-7277724D01*
X27310148Y-7345472D01*
G37*
%TD.AperFunction*%
D22*
X10888998Y-2610901D02*
X10860000Y-2634699D01*
X10836202Y-2663697D01*
X10836201Y-2663698D01*
X10765026Y-2750424D01*
X10700170Y-2871760D01*
X10675518Y-2874188D01*
X10555820Y-2910498D01*
X10445506Y-2969463D01*
X10348815Y-3048815D01*
X10269463Y-3145506D01*
X10210498Y-3255820D01*
X10174188Y-3375518D01*
X10161928Y-3500000D01*
X10161928Y-4400000D01*
X10174188Y-4524482D01*
X10188415Y-4571383D01*
X9197500Y-5562299D01*
X9197500Y-5374822D01*
X9201176Y-5337499D01*
X9197500Y-5300176D01*
X9197500Y-5300167D01*
X9186503Y-5188514D01*
X9143046Y-5045253D01*
X9072474Y-4913224D01*
X9059311Y-4897185D01*
X9001299Y-4826496D01*
X9001295Y-4826492D01*
X8977501Y-4797499D01*
X8948508Y-4773705D01*
X6515926Y-2341124D01*
X6534670Y-2295872D01*
X6600000Y-1967435D01*
X6600000Y-1632565D01*
X6534670Y-1304128D01*
X6406521Y-994748D01*
X6220477Y-716313D01*
X6189164Y-685000D01*
X12814898Y-685000D01*
X10888998Y-2610901D01*
%TA.AperFunction,NonConductor*%
D23*
G36*
X10888998Y-2610901D02*
G01*
X10860000Y-2634699D01*
X10836202Y-2663697D01*
X10836201Y-2663698D01*
X10765026Y-2750424D01*
X10700170Y-2871760D01*
X10675518Y-2874188D01*
X10555820Y-2910498D01*
X10445506Y-2969463D01*
X10348815Y-3048815D01*
X10269463Y-3145506D01*
X10210498Y-3255820D01*
X10174188Y-3375518D01*
X10161928Y-3500000D01*
X10161928Y-4400000D01*
X10174188Y-4524482D01*
X10188415Y-4571383D01*
X9197500Y-5562299D01*
X9197500Y-5374822D01*
X9201176Y-5337499D01*
X9197500Y-5300176D01*
X9197500Y-5300167D01*
X9186503Y-5188514D01*
X9143046Y-5045253D01*
X9072474Y-4913224D01*
X9059311Y-4897185D01*
X9001299Y-4826496D01*
X9001295Y-4826492D01*
X8977501Y-4797499D01*
X8948508Y-4773705D01*
X6515926Y-2341124D01*
X6534670Y-2295872D01*
X6600000Y-1967435D01*
X6600000Y-1632565D01*
X6534670Y-1304128D01*
X6406521Y-994748D01*
X6220477Y-716313D01*
X6189164Y-685000D01*
X12814898Y-685000D01*
X10888998Y-2610901D01*
G37*
%TD.AperFunction*%
D22*
X27156612Y-4536595D02*
X27128592Y-4559590D01*
X27109301Y-4523500D01*
X27181111Y-4523500D01*
X27156612Y-4536595D01*
%TA.AperFunction,NonConductor*%
D23*
G36*
X27156612Y-4536595D02*
G01*
X27128592Y-4559590D01*
X27109301Y-4523500D01*
X27181111Y-4523500D01*
X27156612Y-4536595D01*
G37*
%TD.AperFunction*%
D22*
X13097901Y-2709797D02*
X12576397Y-3231302D01*
X12530537Y-3145506D01*
X12518573Y-3130928D01*
X13097901Y-2551601D01*
X13097901Y-2709797D01*
%TA.AperFunction,NonConductor*%
D23*
G36*
X13097901Y-2709797D02*
G01*
X12576397Y-3231302D01*
X12530537Y-3145506D01*
X12518573Y-3130928D01*
X13097901Y-2551601D01*
X13097901Y-2709797D01*
G37*
%TD.AperFunction*%
D22*
X23736928Y-2414230D02*
X23736928Y-3003500D01*
X23698303Y-3003500D01*
X23163072Y-2468270D01*
X23163072Y-2056300D01*
X23378999Y-2056300D01*
X23736928Y-2414230D01*
%TA.AperFunction,NonConductor*%
D23*
G36*
X23736928Y-2414230D02*
G01*
X23736928Y-3003500D01*
X23698303Y-3003500D01*
X23163072Y-2468270D01*
X23163072Y-2056300D01*
X23378999Y-2056300D01*
X23736928Y-2414230D01*
G37*
%TD.AperFunction*%
D22*
X29315000Y-2917699D02*
X29063072Y-2665771D01*
X29063072Y-1914997D01*
X29046008Y-1741743D01*
X28995472Y-1575148D01*
X28913405Y-1421612D01*
X28802963Y-1287037D01*
X28668388Y-1176595D01*
X28514852Y-1094528D01*
X28348257Y-1043992D01*
X28175003Y-1026928D01*
X27549997Y-1026928D01*
X27376743Y-1043992D01*
X27210148Y-1094528D01*
X27056612Y-1176595D01*
X26922037Y-1287037D01*
X26811595Y-1421612D01*
X26729528Y-1575148D01*
X26678992Y-1741743D01*
X26661928Y-1914997D01*
X26661928Y-3003500D01*
X26138072Y-3003500D01*
X26138072Y-1914997D01*
X26121008Y-1741743D01*
X26070472Y-1575148D01*
X25988405Y-1421612D01*
X25877963Y-1287037D01*
X25743388Y-1176595D01*
X25589852Y-1094528D01*
X25423257Y-1043992D01*
X25250003Y-1026928D01*
X24624997Y-1026928D01*
X24510506Y-1038204D01*
X24257603Y-785302D01*
X24233801Y-756299D01*
X24146923Y-685000D01*
X29315000Y-685000D01*
X29315000Y-2917699D01*
%TA.AperFunction,NonConductor*%
D23*
G36*
X29315000Y-2917699D02*
G01*
X29063072Y-2665771D01*
X29063072Y-1914997D01*
X29046008Y-1741743D01*
X28995472Y-1575148D01*
X28913405Y-1421612D01*
X28802963Y-1287037D01*
X28668388Y-1176595D01*
X28514852Y-1094528D01*
X28348257Y-1043992D01*
X28175003Y-1026928D01*
X27549997Y-1026928D01*
X27376743Y-1043992D01*
X27210148Y-1094528D01*
X27056612Y-1176595D01*
X26922037Y-1287037D01*
X26811595Y-1421612D01*
X26729528Y-1575148D01*
X26678992Y-1741743D01*
X26661928Y-1914997D01*
X26661928Y-3003500D01*
X26138072Y-3003500D01*
X26138072Y-1914997D01*
X26121008Y-1741743D01*
X26070472Y-1575148D01*
X25988405Y-1421612D01*
X25877963Y-1287037D01*
X25743388Y-1176595D01*
X25589852Y-1094528D01*
X25423257Y-1043992D01*
X25250003Y-1026928D01*
X24624997Y-1026928D01*
X24510506Y-1038204D01*
X24257603Y-785302D01*
X24233801Y-756299D01*
X24146923Y-685000D01*
X29315000Y-685000D01*
X29315000Y-2917699D01*
G37*
%TD.AperFunction*%
D22*
X20060799Y-756299D02*
X20037001Y-785297D01*
X19830370Y-991928D01*
X19535000Y-991928D01*
X19381255Y-1007071D01*
X19233418Y-1051916D01*
X19097171Y-1124742D01*
X19050000Y-1163454D01*
X19002829Y-1124742D01*
X18866582Y-1051916D01*
X18718745Y-1007071D01*
X18565000Y-991928D01*
X18265000Y-991928D01*
X18111255Y-1007071D01*
X17963418Y-1051916D01*
X17827171Y-1124742D01*
X17780000Y-1163454D01*
X17732829Y-1124742D01*
X17596582Y-1051916D01*
X17448745Y-1007071D01*
X17295000Y-991928D01*
X17013130Y-991928D01*
X16706201Y-685000D01*
X20147677Y-685000D01*
X20060799Y-756299D01*
%TA.AperFunction,NonConductor*%
D23*
G36*
X20060799Y-756299D02*
G01*
X20037001Y-785297D01*
X19830370Y-991928D01*
X19535000Y-991928D01*
X19381255Y-1007071D01*
X19233418Y-1051916D01*
X19097171Y-1124742D01*
X19050000Y-1163454D01*
X19002829Y-1124742D01*
X18866582Y-1051916D01*
X18718745Y-1007071D01*
X18565000Y-991928D01*
X18265000Y-991928D01*
X18111255Y-1007071D01*
X17963418Y-1051916D01*
X17827171Y-1124742D01*
X17780000Y-1163454D01*
X17732829Y-1124742D01*
X17596582Y-1051916D01*
X17448745Y-1007071D01*
X17295000Y-991928D01*
X17013130Y-991928D01*
X16706201Y-685000D01*
X20147677Y-685000D01*
X20060799Y-756299D01*
G37*
%TD.AperFunction*%
M02*
