%TF.GenerationSoftware,KiCad,Pcbnew,(5.1.9-0-10_14)*%
%TF.CreationDate,2021-04-20T22:44:58+02:00*%
%TF.ProjectId,tribus_front,74726962-7573-45f6-9672-6f6e742e6b69,rev?*%
%TF.SameCoordinates,Original*%
%TF.FileFunction,Legend,Bot*%
%TF.FilePolarity,Positive*%
%FSLAX46Y46*%
G04 Gerber Fmt 4.6, Leading zero omitted, Abs format (unit mm)*
G04 Created by KiCad (PCBNEW (5.1.9-0-10_14)) date 2021-04-20 22:44:58*
%MOMM*%
%LPD*%
G01*
G04 APERTURE LIST*
%ADD10C,0.200000*%
%ADD11C,0.010000*%
%ADD12C,0.120000*%
%ADD13C,0.150000*%
G04 APERTURE END LIST*
D10*
X25678571Y-88561904D02*
X25678571Y-87761904D01*
X25373809Y-87761904D01*
X25297619Y-87800000D01*
X25259523Y-87838095D01*
X25221428Y-87914285D01*
X25221428Y-88028571D01*
X25259523Y-88104761D01*
X25297619Y-88142857D01*
X25373809Y-88180952D01*
X25678571Y-88180952D01*
X24421428Y-88485714D02*
X24459523Y-88523809D01*
X24573809Y-88561904D01*
X24650000Y-88561904D01*
X24764285Y-88523809D01*
X24840476Y-88447619D01*
X24878571Y-88371428D01*
X24916666Y-88219047D01*
X24916666Y-88104761D01*
X24878571Y-87952380D01*
X24840476Y-87876190D01*
X24764285Y-87800000D01*
X24650000Y-87761904D01*
X24573809Y-87761904D01*
X24459523Y-87800000D01*
X24421428Y-87838095D01*
X23811904Y-88142857D02*
X23697619Y-88180952D01*
X23659523Y-88219047D01*
X23621428Y-88295238D01*
X23621428Y-88409523D01*
X23659523Y-88485714D01*
X23697619Y-88523809D01*
X23773809Y-88561904D01*
X24078571Y-88561904D01*
X24078571Y-87761904D01*
X23811904Y-87761904D01*
X23735714Y-87800000D01*
X23697619Y-87838095D01*
X23659523Y-87914285D01*
X23659523Y-87990476D01*
X23697619Y-88066666D01*
X23735714Y-88104761D01*
X23811904Y-88142857D01*
X24078571Y-88142857D01*
X22669047Y-88561904D02*
X22669047Y-87761904D01*
X22669047Y-88066666D02*
X22592857Y-88028571D01*
X22440476Y-88028571D01*
X22364285Y-88066666D01*
X22326190Y-88104761D01*
X22288095Y-88180952D01*
X22288095Y-88409523D01*
X22326190Y-88485714D01*
X22364285Y-88523809D01*
X22440476Y-88561904D01*
X22592857Y-88561904D01*
X22669047Y-88523809D01*
X22021428Y-88028571D02*
X21830952Y-88561904D01*
X21640476Y-88028571D02*
X21830952Y-88561904D01*
X21907142Y-88752380D01*
X21945238Y-88790476D01*
X22021428Y-88828571D01*
X20726190Y-88561904D02*
X20726190Y-87761904D01*
X20421428Y-87761904D01*
X20345238Y-87800000D01*
X20307142Y-87838095D01*
X20269047Y-87914285D01*
X20269047Y-88028571D01*
X20307142Y-88104761D01*
X20345238Y-88142857D01*
X20421428Y-88180952D01*
X20726190Y-88180952D01*
X19621428Y-88523809D02*
X19697619Y-88561904D01*
X19850000Y-88561904D01*
X19926190Y-88523809D01*
X19964285Y-88447619D01*
X19964285Y-88142857D01*
X19926190Y-88066666D01*
X19850000Y-88028571D01*
X19697619Y-88028571D01*
X19621428Y-88066666D01*
X19583333Y-88142857D01*
X19583333Y-88219047D01*
X19964285Y-88295238D01*
X18897619Y-88561904D02*
X18897619Y-87761904D01*
X18897619Y-88523809D02*
X18973809Y-88561904D01*
X19126190Y-88561904D01*
X19202380Y-88523809D01*
X19240476Y-88485714D01*
X19278571Y-88409523D01*
X19278571Y-88180952D01*
X19240476Y-88104761D01*
X19202380Y-88066666D01*
X19126190Y-88028571D01*
X18973809Y-88028571D01*
X18897619Y-88066666D01*
X18516666Y-88561904D02*
X18516666Y-88028571D01*
X18516666Y-88180952D02*
X18478571Y-88104761D01*
X18440476Y-88066666D01*
X18364285Y-88028571D01*
X18288095Y-88028571D01*
X17907142Y-88561904D02*
X17983333Y-88523809D01*
X18021428Y-88485714D01*
X18059523Y-88409523D01*
X18059523Y-88180952D01*
X18021428Y-88104761D01*
X17983333Y-88066666D01*
X17907142Y-88028571D01*
X17792857Y-88028571D01*
X17716666Y-88066666D01*
X17678571Y-88104761D01*
X17640476Y-88180952D01*
X17640476Y-88409523D01*
X17678571Y-88485714D01*
X17716666Y-88523809D01*
X17792857Y-88561904D01*
X17907142Y-88561904D01*
X16421428Y-88142857D02*
X16688095Y-88142857D01*
X16688095Y-88561904D02*
X16688095Y-87761904D01*
X16307142Y-87761904D01*
X15697619Y-88523809D02*
X15773809Y-88561904D01*
X15926190Y-88561904D01*
X16002380Y-88523809D01*
X16040476Y-88447619D01*
X16040476Y-88142857D01*
X16002380Y-88066666D01*
X15926190Y-88028571D01*
X15773809Y-88028571D01*
X15697619Y-88066666D01*
X15659523Y-88142857D01*
X15659523Y-88219047D01*
X16040476Y-88295238D01*
X15316666Y-88561904D02*
X15316666Y-88028571D01*
X15316666Y-88180952D02*
X15278571Y-88104761D01*
X15240476Y-88066666D01*
X15164285Y-88028571D01*
X15088095Y-88028571D01*
X14821428Y-88561904D02*
X14821428Y-88028571D01*
X14821428Y-88180952D02*
X14783333Y-88104761D01*
X14745238Y-88066666D01*
X14669047Y-88028571D01*
X14592857Y-88028571D01*
X14021428Y-88523809D02*
X14097619Y-88561904D01*
X14250000Y-88561904D01*
X14326190Y-88523809D01*
X14364285Y-88447619D01*
X14364285Y-88142857D01*
X14326190Y-88066666D01*
X14250000Y-88028571D01*
X14097619Y-88028571D01*
X14021428Y-88066666D01*
X13983333Y-88142857D01*
X13983333Y-88219047D01*
X14364285Y-88295238D01*
X13640476Y-88561904D02*
X13640476Y-88028571D01*
X13640476Y-87761904D02*
X13678571Y-87800000D01*
X13640476Y-87838095D01*
X13602380Y-87800000D01*
X13640476Y-87761904D01*
X13640476Y-87838095D01*
X13259523Y-88561904D02*
X13259523Y-88028571D01*
X13259523Y-88180952D02*
X13221428Y-88104761D01*
X13183333Y-88066666D01*
X13107142Y-88028571D01*
X13030952Y-88028571D01*
X12421428Y-88561904D02*
X12421428Y-88142857D01*
X12459523Y-88066666D01*
X12535714Y-88028571D01*
X12688095Y-88028571D01*
X12764285Y-88066666D01*
X12421428Y-88523809D02*
X12497619Y-88561904D01*
X12688095Y-88561904D01*
X12764285Y-88523809D01*
X12802380Y-88447619D01*
X12802380Y-88371428D01*
X12764285Y-88295238D01*
X12688095Y-88257142D01*
X12497619Y-88257142D01*
X12421428Y-88219047D01*
X28478571Y-89961904D02*
X28859523Y-89961904D01*
X28859523Y-89161904D01*
X28211904Y-89961904D02*
X28211904Y-89428571D01*
X28211904Y-89161904D02*
X28250000Y-89200000D01*
X28211904Y-89238095D01*
X28173809Y-89200000D01*
X28211904Y-89161904D01*
X28211904Y-89238095D01*
X27488095Y-89923809D02*
X27564285Y-89961904D01*
X27716666Y-89961904D01*
X27792857Y-89923809D01*
X27830952Y-89885714D01*
X27869047Y-89809523D01*
X27869047Y-89580952D01*
X27830952Y-89504761D01*
X27792857Y-89466666D01*
X27716666Y-89428571D01*
X27564285Y-89428571D01*
X27488095Y-89466666D01*
X26840476Y-89923809D02*
X26916666Y-89961904D01*
X27069047Y-89961904D01*
X27145238Y-89923809D01*
X27183333Y-89847619D01*
X27183333Y-89542857D01*
X27145238Y-89466666D01*
X27069047Y-89428571D01*
X26916666Y-89428571D01*
X26840476Y-89466666D01*
X26802380Y-89542857D01*
X26802380Y-89619047D01*
X27183333Y-89695238D01*
X26459523Y-89428571D02*
X26459523Y-89961904D01*
X26459523Y-89504761D02*
X26421428Y-89466666D01*
X26345238Y-89428571D01*
X26230952Y-89428571D01*
X26154761Y-89466666D01*
X26116666Y-89542857D01*
X26116666Y-89961904D01*
X25773809Y-89923809D02*
X25697619Y-89961904D01*
X25545238Y-89961904D01*
X25469047Y-89923809D01*
X25430952Y-89847619D01*
X25430952Y-89809523D01*
X25469047Y-89733333D01*
X25545238Y-89695238D01*
X25659523Y-89695238D01*
X25735714Y-89657142D01*
X25773809Y-89580952D01*
X25773809Y-89542857D01*
X25735714Y-89466666D01*
X25659523Y-89428571D01*
X25545238Y-89428571D01*
X25469047Y-89466666D01*
X24783333Y-89923809D02*
X24859523Y-89961904D01*
X25011904Y-89961904D01*
X25088095Y-89923809D01*
X25126190Y-89847619D01*
X25126190Y-89542857D01*
X25088095Y-89466666D01*
X25011904Y-89428571D01*
X24859523Y-89428571D01*
X24783333Y-89466666D01*
X24745238Y-89542857D01*
X24745238Y-89619047D01*
X25126190Y-89695238D01*
X24059523Y-89961904D02*
X24059523Y-89161904D01*
X24059523Y-89923809D02*
X24135714Y-89961904D01*
X24288095Y-89961904D01*
X24364285Y-89923809D01*
X24402380Y-89885714D01*
X24440476Y-89809523D01*
X24440476Y-89580952D01*
X24402380Y-89504761D01*
X24364285Y-89466666D01*
X24288095Y-89428571D01*
X24135714Y-89428571D01*
X24059523Y-89466666D01*
X22726190Y-89428571D02*
X22726190Y-89961904D01*
X23069047Y-89428571D02*
X23069047Y-89847619D01*
X23030952Y-89923809D01*
X22954761Y-89961904D01*
X22840476Y-89961904D01*
X22764285Y-89923809D01*
X22726190Y-89885714D01*
X22345238Y-89428571D02*
X22345238Y-89961904D01*
X22345238Y-89504761D02*
X22307142Y-89466666D01*
X22230952Y-89428571D01*
X22116666Y-89428571D01*
X22040476Y-89466666D01*
X22002380Y-89542857D01*
X22002380Y-89961904D01*
X21278571Y-89961904D02*
X21278571Y-89161904D01*
X21278571Y-89923809D02*
X21354761Y-89961904D01*
X21507142Y-89961904D01*
X21583333Y-89923809D01*
X21621428Y-89885714D01*
X21659523Y-89809523D01*
X21659523Y-89580952D01*
X21621428Y-89504761D01*
X21583333Y-89466666D01*
X21507142Y-89428571D01*
X21354761Y-89428571D01*
X21278571Y-89466666D01*
X20592857Y-89923809D02*
X20669047Y-89961904D01*
X20821428Y-89961904D01*
X20897619Y-89923809D01*
X20935714Y-89847619D01*
X20935714Y-89542857D01*
X20897619Y-89466666D01*
X20821428Y-89428571D01*
X20669047Y-89428571D01*
X20592857Y-89466666D01*
X20554761Y-89542857D01*
X20554761Y-89619047D01*
X20935714Y-89695238D01*
X20211904Y-89961904D02*
X20211904Y-89428571D01*
X20211904Y-89580952D02*
X20173809Y-89504761D01*
X20135714Y-89466666D01*
X20059523Y-89428571D01*
X19983333Y-89428571D01*
X18649999Y-89885714D02*
X18688095Y-89923809D01*
X18802380Y-89961904D01*
X18878571Y-89961904D01*
X18992857Y-89923809D01*
X19069047Y-89847619D01*
X19107142Y-89771428D01*
X19145238Y-89619047D01*
X19145238Y-89504761D01*
X19107142Y-89352380D01*
X19069047Y-89276190D01*
X18992857Y-89200000D01*
X18878571Y-89161904D01*
X18802380Y-89161904D01*
X18688095Y-89200000D01*
X18649999Y-89238095D01*
X18307142Y-89542857D02*
X18040476Y-89542857D01*
X17926190Y-89961904D02*
X18307142Y-89961904D01*
X18307142Y-89161904D01*
X17926190Y-89161904D01*
X17126190Y-89961904D02*
X17392857Y-89580952D01*
X17583333Y-89961904D02*
X17583333Y-89161904D01*
X17278571Y-89161904D01*
X17202380Y-89200000D01*
X17164285Y-89238095D01*
X17126190Y-89314285D01*
X17126190Y-89428571D01*
X17164285Y-89504761D01*
X17202380Y-89542857D01*
X17278571Y-89580952D01*
X17583333Y-89580952D01*
X16783333Y-89961904D02*
X16783333Y-89161904D01*
X16326190Y-89961904D01*
X16326190Y-89161904D01*
X15945238Y-89657142D02*
X15335714Y-89657142D01*
X14802380Y-89161904D02*
X14649999Y-89161904D01*
X14573809Y-89200000D01*
X14497619Y-89276190D01*
X14459523Y-89428571D01*
X14459523Y-89695238D01*
X14497619Y-89847619D01*
X14573809Y-89923809D01*
X14649999Y-89961904D01*
X14802380Y-89961904D01*
X14878571Y-89923809D01*
X14954761Y-89847619D01*
X14992857Y-89695238D01*
X14992857Y-89428571D01*
X14954761Y-89276190D01*
X14878571Y-89200000D01*
X14802380Y-89161904D01*
X14116666Y-89961904D02*
X14116666Y-89161904D01*
X14116666Y-89542857D02*
X13659523Y-89542857D01*
X13659523Y-89961904D02*
X13659523Y-89161904D01*
X12897619Y-89961904D02*
X13278571Y-89961904D01*
X13278571Y-89161904D01*
X12630952Y-89657142D02*
X12021428Y-89657142D01*
X11640476Y-89961904D02*
X11640476Y-89161904D01*
X11335714Y-89161904D01*
X11259523Y-89200000D01*
X11221428Y-89238095D01*
X11183333Y-89314285D01*
X11183333Y-89428571D01*
X11221428Y-89504761D01*
X11259523Y-89542857D01*
X11335714Y-89580952D01*
X11640476Y-89580952D01*
X10307142Y-89428571D02*
X10116666Y-89961904D01*
X9926190Y-89428571D01*
X9659523Y-89238095D02*
X9621428Y-89200000D01*
X9545238Y-89161904D01*
X9354761Y-89161904D01*
X9278571Y-89200000D01*
X9240476Y-89238095D01*
X9202380Y-89314285D01*
X9202380Y-89390476D01*
X9240476Y-89504761D01*
X9697619Y-89961904D01*
X9202380Y-89961904D01*
D11*
%TO.C,REF\u002A\u002A*%
G36*
X19819036Y-91013576D02*
G01*
X19743487Y-91414322D01*
X19185959Y-91644154D01*
X18851535Y-91416748D01*
X18757878Y-91353431D01*
X18673218Y-91296896D01*
X18601505Y-91249727D01*
X18546689Y-91214502D01*
X18512720Y-91193805D01*
X18503470Y-91189342D01*
X18486805Y-91200820D01*
X18451194Y-91232551D01*
X18400629Y-91280483D01*
X18339100Y-91340562D01*
X18270601Y-91408733D01*
X18199121Y-91480945D01*
X18128653Y-91553142D01*
X18063189Y-91621273D01*
X18006720Y-91681283D01*
X17963237Y-91729119D01*
X17936732Y-91760727D01*
X17930395Y-91771305D01*
X17939514Y-91790806D01*
X17965080Y-91833531D01*
X18004403Y-91895298D01*
X18054797Y-91971931D01*
X18113573Y-92059248D01*
X18147632Y-92109052D01*
X18209711Y-92199993D01*
X18264874Y-92282059D01*
X18310446Y-92351163D01*
X18343750Y-92403222D01*
X18362110Y-92434150D01*
X18364869Y-92440650D01*
X18358615Y-92459121D01*
X18341566Y-92502172D01*
X18316297Y-92563749D01*
X18285378Y-92637799D01*
X18251382Y-92718270D01*
X18216882Y-92799107D01*
X18184449Y-92874258D01*
X18156657Y-92937671D01*
X18136077Y-92983293D01*
X18125281Y-93005069D01*
X18124644Y-93005926D01*
X18107693Y-93010084D01*
X18062549Y-93019361D01*
X17993890Y-93032844D01*
X17906398Y-93049621D01*
X17804750Y-93068781D01*
X17745444Y-93079830D01*
X17636828Y-93100510D01*
X17538723Y-93120189D01*
X17456091Y-93137789D01*
X17393896Y-93152233D01*
X17357101Y-93162446D01*
X17349704Y-93165686D01*
X17342460Y-93187617D01*
X17336615Y-93237147D01*
X17332165Y-93308485D01*
X17329107Y-93395839D01*
X17327435Y-93493417D01*
X17327147Y-93595426D01*
X17328239Y-93696075D01*
X17330706Y-93789572D01*
X17334544Y-93870125D01*
X17339750Y-93931942D01*
X17346319Y-93969230D01*
X17350259Y-93976993D01*
X17373812Y-93986298D01*
X17423718Y-93999600D01*
X17493377Y-94015337D01*
X17576187Y-94031946D01*
X17605095Y-94037319D01*
X17744469Y-94062848D01*
X17854564Y-94083408D01*
X17939018Y-94099815D01*
X18001470Y-94112887D01*
X18045556Y-94123441D01*
X18074915Y-94132294D01*
X18093185Y-94140263D01*
X18104002Y-94148165D01*
X18105515Y-94149727D01*
X18120623Y-94174886D01*
X18143671Y-94223850D01*
X18172356Y-94290621D01*
X18204378Y-94369205D01*
X18237435Y-94453607D01*
X18269227Y-94537830D01*
X18297451Y-94615879D01*
X18319807Y-94681759D01*
X18333993Y-94729473D01*
X18337707Y-94753027D01*
X18337398Y-94753852D01*
X18324811Y-94773104D01*
X18296256Y-94815463D01*
X18254733Y-94876521D01*
X18203244Y-94951868D01*
X18144789Y-95037096D01*
X18128142Y-95061315D01*
X18068785Y-95149123D01*
X18016553Y-95229238D01*
X17974292Y-95297062D01*
X17944847Y-95347993D01*
X17931063Y-95377431D01*
X17930395Y-95381048D01*
X17941976Y-95400057D01*
X17973976Y-95437714D01*
X18022282Y-95489973D01*
X18082780Y-95552786D01*
X18151356Y-95622106D01*
X18223896Y-95693885D01*
X18296288Y-95764077D01*
X18364416Y-95828635D01*
X18424168Y-95883510D01*
X18471429Y-95924656D01*
X18502087Y-95948026D01*
X18510568Y-95951842D01*
X18530309Y-95942855D01*
X18570726Y-95918616D01*
X18625237Y-95883209D01*
X18667177Y-95854711D01*
X18743171Y-95802418D01*
X18833166Y-95740845D01*
X18923436Y-95679370D01*
X18971968Y-95646469D01*
X19136238Y-95535359D01*
X19274131Y-95609916D01*
X19336951Y-95642578D01*
X19390371Y-95667966D01*
X19426516Y-95682446D01*
X19435716Y-95684460D01*
X19446779Y-95669584D01*
X19468606Y-95627547D01*
X19499566Y-95562227D01*
X19538030Y-95477500D01*
X19582368Y-95377245D01*
X19630953Y-95265339D01*
X19682154Y-95145659D01*
X19734341Y-95022084D01*
X19785887Y-94898491D01*
X19835160Y-94778757D01*
X19880533Y-94666759D01*
X19920375Y-94566377D01*
X19953058Y-94481486D01*
X19976951Y-94415965D01*
X19990426Y-94373690D01*
X19992594Y-94359172D01*
X19975417Y-94340653D01*
X19937810Y-94310590D01*
X19887634Y-94275232D01*
X19883422Y-94272434D01*
X19753736Y-94168625D01*
X19649166Y-94047515D01*
X19570619Y-93912976D01*
X19519001Y-93768882D01*
X19495218Y-93619105D01*
X19500177Y-93467517D01*
X19534783Y-93317992D01*
X19599943Y-93174400D01*
X19619114Y-93142984D01*
X19718826Y-93016125D01*
X19836623Y-92914255D01*
X19968429Y-92837904D01*
X20110167Y-92787602D01*
X20257758Y-92763879D01*
X20407127Y-92767265D01*
X20554197Y-92798288D01*
X20694889Y-92857480D01*
X20825127Y-92945369D01*
X20865414Y-92981042D01*
X20967945Y-93092706D01*
X21042659Y-93210257D01*
X21093910Y-93342020D01*
X21122454Y-93472507D01*
X21129500Y-93619216D01*
X21106004Y-93766653D01*
X21054351Y-93909834D01*
X20976929Y-94043777D01*
X20876125Y-94163498D01*
X20754324Y-94264014D01*
X20738316Y-94274609D01*
X20687602Y-94309306D01*
X20649050Y-94339370D01*
X20630619Y-94358565D01*
X20630351Y-94359172D01*
X20634308Y-94379936D01*
X20649993Y-94427062D01*
X20675778Y-94496673D01*
X20710031Y-94584893D01*
X20751123Y-94687844D01*
X20797424Y-94801650D01*
X20847304Y-94922435D01*
X20899133Y-95046321D01*
X20951281Y-95169432D01*
X21002118Y-95287891D01*
X21050013Y-95397823D01*
X21093338Y-95495349D01*
X21130462Y-95576593D01*
X21159756Y-95637679D01*
X21179588Y-95674730D01*
X21187574Y-95684460D01*
X21211979Y-95676883D01*
X21257642Y-95656560D01*
X21316690Y-95627125D01*
X21349160Y-95609916D01*
X21487053Y-95535359D01*
X21651323Y-95646469D01*
X21735179Y-95703390D01*
X21826987Y-95766030D01*
X21913020Y-95825011D01*
X21956113Y-95854711D01*
X22016723Y-95895410D01*
X22068045Y-95927663D01*
X22103385Y-95947384D01*
X22114863Y-95951554D01*
X22131570Y-95940307D01*
X22168546Y-95908911D01*
X22222205Y-95860624D01*
X22288962Y-95798708D01*
X22365234Y-95726421D01*
X22413473Y-95680008D01*
X22497867Y-95597087D01*
X22570803Y-95522920D01*
X22629331Y-95460680D01*
X22670503Y-95413541D01*
X22691372Y-95384673D01*
X22693374Y-95378815D01*
X22684083Y-95356532D01*
X22658409Y-95311477D01*
X22619200Y-95248211D01*
X22569303Y-95171295D01*
X22511567Y-95085292D01*
X22495149Y-95061315D01*
X22435323Y-94974170D01*
X22381650Y-94895710D01*
X22337130Y-94830345D01*
X22304765Y-94782484D01*
X22287555Y-94756535D01*
X22285893Y-94753852D01*
X22288379Y-94733172D01*
X22301577Y-94687704D01*
X22323186Y-94623444D01*
X22350904Y-94546387D01*
X22382430Y-94462529D01*
X22415463Y-94377866D01*
X22447701Y-94298392D01*
X22476843Y-94230104D01*
X22500588Y-94178997D01*
X22516635Y-94151067D01*
X22517775Y-94149727D01*
X22527588Y-94141745D01*
X22544161Y-94133851D01*
X22571132Y-94125229D01*
X22612139Y-94115062D01*
X22670820Y-94102531D01*
X22750813Y-94086821D01*
X22855755Y-94067113D01*
X22989285Y-94042592D01*
X23018196Y-94037319D01*
X23103882Y-94020764D01*
X23178582Y-94004569D01*
X23235694Y-93990296D01*
X23268617Y-93979508D01*
X23273031Y-93976993D01*
X23280306Y-93954696D01*
X23286219Y-93904869D01*
X23290766Y-93833304D01*
X23293945Y-93745793D01*
X23295749Y-93648128D01*
X23296177Y-93546101D01*
X23295223Y-93445503D01*
X23292884Y-93352127D01*
X23289156Y-93271765D01*
X23284034Y-93210209D01*
X23277516Y-93173250D01*
X23273586Y-93165686D01*
X23251708Y-93158056D01*
X23201891Y-93145642D01*
X23129097Y-93129522D01*
X23038289Y-93110773D01*
X22934431Y-93090471D01*
X22877846Y-93079830D01*
X22770486Y-93059760D01*
X22674746Y-93041580D01*
X22595306Y-93026199D01*
X22536846Y-93014531D01*
X22504045Y-93007488D01*
X22498646Y-93005926D01*
X22489522Y-92988322D01*
X22470235Y-92945918D01*
X22443355Y-92884772D01*
X22411454Y-92810943D01*
X22377102Y-92730489D01*
X22342871Y-92649468D01*
X22311331Y-92573937D01*
X22285054Y-92509955D01*
X22266611Y-92463580D01*
X22258571Y-92440869D01*
X22258422Y-92439876D01*
X22267535Y-92421961D01*
X22293086Y-92380733D01*
X22332388Y-92320291D01*
X22382757Y-92244731D01*
X22441506Y-92158152D01*
X22475658Y-92108421D01*
X22537890Y-92017236D01*
X22593164Y-91934449D01*
X22638782Y-91864249D01*
X22672048Y-91810824D01*
X22690264Y-91778361D01*
X22692895Y-91771083D01*
X22681586Y-91754145D01*
X22650319Y-91717978D01*
X22603090Y-91666635D01*
X22543892Y-91604167D01*
X22476719Y-91534626D01*
X22405566Y-91462065D01*
X22334426Y-91390535D01*
X22267293Y-91324087D01*
X22208161Y-91266774D01*
X22161025Y-91222647D01*
X22129877Y-91195759D01*
X22119457Y-91189342D01*
X22102491Y-91198365D01*
X22061911Y-91223715D01*
X22001663Y-91262810D01*
X21925693Y-91313071D01*
X21837946Y-91371917D01*
X21771756Y-91416748D01*
X21437332Y-91644154D01*
X21158567Y-91529238D01*
X20879803Y-91414322D01*
X20804254Y-91013576D01*
X20728706Y-90612829D01*
X19894585Y-90612829D01*
X19819036Y-91013576D01*
G37*
X19819036Y-91013576D02*
X19743487Y-91414322D01*
X19185959Y-91644154D01*
X18851535Y-91416748D01*
X18757878Y-91353431D01*
X18673218Y-91296896D01*
X18601505Y-91249727D01*
X18546689Y-91214502D01*
X18512720Y-91193805D01*
X18503470Y-91189342D01*
X18486805Y-91200820D01*
X18451194Y-91232551D01*
X18400629Y-91280483D01*
X18339100Y-91340562D01*
X18270601Y-91408733D01*
X18199121Y-91480945D01*
X18128653Y-91553142D01*
X18063189Y-91621273D01*
X18006720Y-91681283D01*
X17963237Y-91729119D01*
X17936732Y-91760727D01*
X17930395Y-91771305D01*
X17939514Y-91790806D01*
X17965080Y-91833531D01*
X18004403Y-91895298D01*
X18054797Y-91971931D01*
X18113573Y-92059248D01*
X18147632Y-92109052D01*
X18209711Y-92199993D01*
X18264874Y-92282059D01*
X18310446Y-92351163D01*
X18343750Y-92403222D01*
X18362110Y-92434150D01*
X18364869Y-92440650D01*
X18358615Y-92459121D01*
X18341566Y-92502172D01*
X18316297Y-92563749D01*
X18285378Y-92637799D01*
X18251382Y-92718270D01*
X18216882Y-92799107D01*
X18184449Y-92874258D01*
X18156657Y-92937671D01*
X18136077Y-92983293D01*
X18125281Y-93005069D01*
X18124644Y-93005926D01*
X18107693Y-93010084D01*
X18062549Y-93019361D01*
X17993890Y-93032844D01*
X17906398Y-93049621D01*
X17804750Y-93068781D01*
X17745444Y-93079830D01*
X17636828Y-93100510D01*
X17538723Y-93120189D01*
X17456091Y-93137789D01*
X17393896Y-93152233D01*
X17357101Y-93162446D01*
X17349704Y-93165686D01*
X17342460Y-93187617D01*
X17336615Y-93237147D01*
X17332165Y-93308485D01*
X17329107Y-93395839D01*
X17327435Y-93493417D01*
X17327147Y-93595426D01*
X17328239Y-93696075D01*
X17330706Y-93789572D01*
X17334544Y-93870125D01*
X17339750Y-93931942D01*
X17346319Y-93969230D01*
X17350259Y-93976993D01*
X17373812Y-93986298D01*
X17423718Y-93999600D01*
X17493377Y-94015337D01*
X17576187Y-94031946D01*
X17605095Y-94037319D01*
X17744469Y-94062848D01*
X17854564Y-94083408D01*
X17939018Y-94099815D01*
X18001470Y-94112887D01*
X18045556Y-94123441D01*
X18074915Y-94132294D01*
X18093185Y-94140263D01*
X18104002Y-94148165D01*
X18105515Y-94149727D01*
X18120623Y-94174886D01*
X18143671Y-94223850D01*
X18172356Y-94290621D01*
X18204378Y-94369205D01*
X18237435Y-94453607D01*
X18269227Y-94537830D01*
X18297451Y-94615879D01*
X18319807Y-94681759D01*
X18333993Y-94729473D01*
X18337707Y-94753027D01*
X18337398Y-94753852D01*
X18324811Y-94773104D01*
X18296256Y-94815463D01*
X18254733Y-94876521D01*
X18203244Y-94951868D01*
X18144789Y-95037096D01*
X18128142Y-95061315D01*
X18068785Y-95149123D01*
X18016553Y-95229238D01*
X17974292Y-95297062D01*
X17944847Y-95347993D01*
X17931063Y-95377431D01*
X17930395Y-95381048D01*
X17941976Y-95400057D01*
X17973976Y-95437714D01*
X18022282Y-95489973D01*
X18082780Y-95552786D01*
X18151356Y-95622106D01*
X18223896Y-95693885D01*
X18296288Y-95764077D01*
X18364416Y-95828635D01*
X18424168Y-95883510D01*
X18471429Y-95924656D01*
X18502087Y-95948026D01*
X18510568Y-95951842D01*
X18530309Y-95942855D01*
X18570726Y-95918616D01*
X18625237Y-95883209D01*
X18667177Y-95854711D01*
X18743171Y-95802418D01*
X18833166Y-95740845D01*
X18923436Y-95679370D01*
X18971968Y-95646469D01*
X19136238Y-95535359D01*
X19274131Y-95609916D01*
X19336951Y-95642578D01*
X19390371Y-95667966D01*
X19426516Y-95682446D01*
X19435716Y-95684460D01*
X19446779Y-95669584D01*
X19468606Y-95627547D01*
X19499566Y-95562227D01*
X19538030Y-95477500D01*
X19582368Y-95377245D01*
X19630953Y-95265339D01*
X19682154Y-95145659D01*
X19734341Y-95022084D01*
X19785887Y-94898491D01*
X19835160Y-94778757D01*
X19880533Y-94666759D01*
X19920375Y-94566377D01*
X19953058Y-94481486D01*
X19976951Y-94415965D01*
X19990426Y-94373690D01*
X19992594Y-94359172D01*
X19975417Y-94340653D01*
X19937810Y-94310590D01*
X19887634Y-94275232D01*
X19883422Y-94272434D01*
X19753736Y-94168625D01*
X19649166Y-94047515D01*
X19570619Y-93912976D01*
X19519001Y-93768882D01*
X19495218Y-93619105D01*
X19500177Y-93467517D01*
X19534783Y-93317992D01*
X19599943Y-93174400D01*
X19619114Y-93142984D01*
X19718826Y-93016125D01*
X19836623Y-92914255D01*
X19968429Y-92837904D01*
X20110167Y-92787602D01*
X20257758Y-92763879D01*
X20407127Y-92767265D01*
X20554197Y-92798288D01*
X20694889Y-92857480D01*
X20825127Y-92945369D01*
X20865414Y-92981042D01*
X20967945Y-93092706D01*
X21042659Y-93210257D01*
X21093910Y-93342020D01*
X21122454Y-93472507D01*
X21129500Y-93619216D01*
X21106004Y-93766653D01*
X21054351Y-93909834D01*
X20976929Y-94043777D01*
X20876125Y-94163498D01*
X20754324Y-94264014D01*
X20738316Y-94274609D01*
X20687602Y-94309306D01*
X20649050Y-94339370D01*
X20630619Y-94358565D01*
X20630351Y-94359172D01*
X20634308Y-94379936D01*
X20649993Y-94427062D01*
X20675778Y-94496673D01*
X20710031Y-94584893D01*
X20751123Y-94687844D01*
X20797424Y-94801650D01*
X20847304Y-94922435D01*
X20899133Y-95046321D01*
X20951281Y-95169432D01*
X21002118Y-95287891D01*
X21050013Y-95397823D01*
X21093338Y-95495349D01*
X21130462Y-95576593D01*
X21159756Y-95637679D01*
X21179588Y-95674730D01*
X21187574Y-95684460D01*
X21211979Y-95676883D01*
X21257642Y-95656560D01*
X21316690Y-95627125D01*
X21349160Y-95609916D01*
X21487053Y-95535359D01*
X21651323Y-95646469D01*
X21735179Y-95703390D01*
X21826987Y-95766030D01*
X21913020Y-95825011D01*
X21956113Y-95854711D01*
X22016723Y-95895410D01*
X22068045Y-95927663D01*
X22103385Y-95947384D01*
X22114863Y-95951554D01*
X22131570Y-95940307D01*
X22168546Y-95908911D01*
X22222205Y-95860624D01*
X22288962Y-95798708D01*
X22365234Y-95726421D01*
X22413473Y-95680008D01*
X22497867Y-95597087D01*
X22570803Y-95522920D01*
X22629331Y-95460680D01*
X22670503Y-95413541D01*
X22691372Y-95384673D01*
X22693374Y-95378815D01*
X22684083Y-95356532D01*
X22658409Y-95311477D01*
X22619200Y-95248211D01*
X22569303Y-95171295D01*
X22511567Y-95085292D01*
X22495149Y-95061315D01*
X22435323Y-94974170D01*
X22381650Y-94895710D01*
X22337130Y-94830345D01*
X22304765Y-94782484D01*
X22287555Y-94756535D01*
X22285893Y-94753852D01*
X22288379Y-94733172D01*
X22301577Y-94687704D01*
X22323186Y-94623444D01*
X22350904Y-94546387D01*
X22382430Y-94462529D01*
X22415463Y-94377866D01*
X22447701Y-94298392D01*
X22476843Y-94230104D01*
X22500588Y-94178997D01*
X22516635Y-94151067D01*
X22517775Y-94149727D01*
X22527588Y-94141745D01*
X22544161Y-94133851D01*
X22571132Y-94125229D01*
X22612139Y-94115062D01*
X22670820Y-94102531D01*
X22750813Y-94086821D01*
X22855755Y-94067113D01*
X22989285Y-94042592D01*
X23018196Y-94037319D01*
X23103882Y-94020764D01*
X23178582Y-94004569D01*
X23235694Y-93990296D01*
X23268617Y-93979508D01*
X23273031Y-93976993D01*
X23280306Y-93954696D01*
X23286219Y-93904869D01*
X23290766Y-93833304D01*
X23293945Y-93745793D01*
X23295749Y-93648128D01*
X23296177Y-93546101D01*
X23295223Y-93445503D01*
X23292884Y-93352127D01*
X23289156Y-93271765D01*
X23284034Y-93210209D01*
X23277516Y-93173250D01*
X23273586Y-93165686D01*
X23251708Y-93158056D01*
X23201891Y-93145642D01*
X23129097Y-93129522D01*
X23038289Y-93110773D01*
X22934431Y-93090471D01*
X22877846Y-93079830D01*
X22770486Y-93059760D01*
X22674746Y-93041580D01*
X22595306Y-93026199D01*
X22536846Y-93014531D01*
X22504045Y-93007488D01*
X22498646Y-93005926D01*
X22489522Y-92988322D01*
X22470235Y-92945918D01*
X22443355Y-92884772D01*
X22411454Y-92810943D01*
X22377102Y-92730489D01*
X22342871Y-92649468D01*
X22311331Y-92573937D01*
X22285054Y-92509955D01*
X22266611Y-92463580D01*
X22258571Y-92440869D01*
X22258422Y-92439876D01*
X22267535Y-92421961D01*
X22293086Y-92380733D01*
X22332388Y-92320291D01*
X22382757Y-92244731D01*
X22441506Y-92158152D01*
X22475658Y-92108421D01*
X22537890Y-92017236D01*
X22593164Y-91934449D01*
X22638782Y-91864249D01*
X22672048Y-91810824D01*
X22690264Y-91778361D01*
X22692895Y-91771083D01*
X22681586Y-91754145D01*
X22650319Y-91717978D01*
X22603090Y-91666635D01*
X22543892Y-91604167D01*
X22476719Y-91534626D01*
X22405566Y-91462065D01*
X22334426Y-91390535D01*
X22267293Y-91324087D01*
X22208161Y-91266774D01*
X22161025Y-91222647D01*
X22129877Y-91195759D01*
X22119457Y-91189342D01*
X22102491Y-91198365D01*
X22061911Y-91223715D01*
X22001663Y-91262810D01*
X21925693Y-91313071D01*
X21837946Y-91371917D01*
X21771756Y-91416748D01*
X21437332Y-91644154D01*
X21158567Y-91529238D01*
X20879803Y-91414322D01*
X20804254Y-91013576D01*
X20728706Y-90612829D01*
X19894585Y-90612829D01*
X19819036Y-91013576D01*
G36*
X17928612Y-96552645D02*
G01*
X17871135Y-96570206D01*
X17834128Y-96592395D01*
X17822073Y-96609942D01*
X17825391Y-96630742D01*
X17846921Y-96663419D01*
X17865126Y-96686562D01*
X17902656Y-96728402D01*
X17930852Y-96746005D01*
X17954889Y-96744856D01*
X18026192Y-96726710D01*
X18078558Y-96727534D01*
X18121082Y-96748098D01*
X18135358Y-96760134D01*
X18181053Y-96802483D01*
X18181053Y-97355526D01*
X18364869Y-97355526D01*
X18364869Y-96553421D01*
X18272961Y-96553421D01*
X18217781Y-96555603D01*
X18189312Y-96563351D01*
X18181057Y-96578468D01*
X18181053Y-96578916D01*
X18177155Y-96594749D01*
X18159526Y-96592684D01*
X18135099Y-96581261D01*
X18084650Y-96560005D01*
X18043684Y-96547216D01*
X17990972Y-96543938D01*
X17928612Y-96552645D01*
G37*
X17928612Y-96552645D02*
X17871135Y-96570206D01*
X17834128Y-96592395D01*
X17822073Y-96609942D01*
X17825391Y-96630742D01*
X17846921Y-96663419D01*
X17865126Y-96686562D01*
X17902656Y-96728402D01*
X17930852Y-96746005D01*
X17954889Y-96744856D01*
X18026192Y-96726710D01*
X18078558Y-96727534D01*
X18121082Y-96748098D01*
X18135358Y-96760134D01*
X18181053Y-96802483D01*
X18181053Y-97355526D01*
X18364869Y-97355526D01*
X18364869Y-96553421D01*
X18272961Y-96553421D01*
X18217781Y-96555603D01*
X18189312Y-96563351D01*
X18181057Y-96578468D01*
X18181053Y-96578916D01*
X18177155Y-96594749D01*
X18159526Y-96592684D01*
X18135099Y-96581261D01*
X18084650Y-96560005D01*
X18043684Y-96547216D01*
X17990972Y-96543938D01*
X17928612Y-96552645D01*
G36*
X21322043Y-96567226D02*
G01*
X21280454Y-96587090D01*
X21240175Y-96615784D01*
X21209490Y-96648809D01*
X21187139Y-96690931D01*
X21171864Y-96746915D01*
X21162408Y-96821528D01*
X21157513Y-96919535D01*
X21155919Y-97045702D01*
X21155894Y-97058914D01*
X21155527Y-97355526D01*
X21339343Y-97355526D01*
X21339343Y-97082081D01*
X21339473Y-96980777D01*
X21340379Y-96907353D01*
X21342827Y-96856271D01*
X21347586Y-96821990D01*
X21355426Y-96798971D01*
X21367115Y-96781673D01*
X21383398Y-96764581D01*
X21440366Y-96727857D01*
X21502555Y-96721042D01*
X21561801Y-96744261D01*
X21582405Y-96761543D01*
X21597530Y-96777791D01*
X21608390Y-96795191D01*
X21615690Y-96819212D01*
X21620137Y-96855322D01*
X21622436Y-96908988D01*
X21623296Y-96985680D01*
X21623422Y-97079043D01*
X21623422Y-97355526D01*
X21807237Y-97355526D01*
X21807237Y-96553421D01*
X21715329Y-96553421D01*
X21660149Y-96555603D01*
X21631680Y-96563351D01*
X21623425Y-96578468D01*
X21623422Y-96578916D01*
X21619592Y-96593720D01*
X21602699Y-96592040D01*
X21569112Y-96575773D01*
X21492937Y-96551840D01*
X21405800Y-96549178D01*
X21322043Y-96567226D01*
G37*
X21322043Y-96567226D02*
X21280454Y-96587090D01*
X21240175Y-96615784D01*
X21209490Y-96648809D01*
X21187139Y-96690931D01*
X21171864Y-96746915D01*
X21162408Y-96821528D01*
X21157513Y-96919535D01*
X21155919Y-97045702D01*
X21155894Y-97058914D01*
X21155527Y-97355526D01*
X21339343Y-97355526D01*
X21339343Y-97082081D01*
X21339473Y-96980777D01*
X21340379Y-96907353D01*
X21342827Y-96856271D01*
X21347586Y-96821990D01*
X21355426Y-96798971D01*
X21367115Y-96781673D01*
X21383398Y-96764581D01*
X21440366Y-96727857D01*
X21502555Y-96721042D01*
X21561801Y-96744261D01*
X21582405Y-96761543D01*
X21597530Y-96777791D01*
X21608390Y-96795191D01*
X21615690Y-96819212D01*
X21620137Y-96855322D01*
X21622436Y-96908988D01*
X21623296Y-96985680D01*
X21623422Y-97079043D01*
X21623422Y-97355526D01*
X21807237Y-97355526D01*
X21807237Y-96553421D01*
X21715329Y-96553421D01*
X21660149Y-96555603D01*
X21631680Y-96563351D01*
X21623425Y-96578468D01*
X21623422Y-96578916D01*
X21619592Y-96593720D01*
X21602699Y-96592040D01*
X21569112Y-96575773D01*
X21492937Y-96551840D01*
X21405800Y-96549178D01*
X21322043Y-96567226D01*
G36*
X16761216Y-96550554D02*
G01*
X16718426Y-96560949D01*
X16636391Y-96599013D01*
X16566243Y-96657149D01*
X16517695Y-96726852D01*
X16511025Y-96742502D01*
X16501876Y-96783496D01*
X16495471Y-96844138D01*
X16493290Y-96905430D01*
X16493290Y-97021316D01*
X16735593Y-97021316D01*
X16835529Y-97021693D01*
X16905931Y-97023987D01*
X16950687Y-97029938D01*
X16973685Y-97041285D01*
X16978811Y-97059771D01*
X16969952Y-97087136D01*
X16954083Y-97119155D01*
X16909816Y-97172592D01*
X16848301Y-97199215D01*
X16773115Y-97198347D01*
X16687947Y-97169371D01*
X16614341Y-97133611D01*
X16553266Y-97181904D01*
X16492190Y-97230197D01*
X16549649Y-97283285D01*
X16626359Y-97333445D01*
X16720698Y-97363688D01*
X16822173Y-97372151D01*
X16920289Y-97356974D01*
X16936119Y-97351824D01*
X17022353Y-97306791D01*
X17086499Y-97239652D01*
X17129909Y-97148405D01*
X17153936Y-97031044D01*
X17154216Y-97028529D01*
X17156367Y-96900627D01*
X17147671Y-96854997D01*
X16977895Y-96854997D01*
X16962303Y-96862013D01*
X16919971Y-96867388D01*
X16857566Y-96870457D01*
X16818019Y-96870921D01*
X16744272Y-96870630D01*
X16698160Y-96868783D01*
X16673900Y-96863912D01*
X16665706Y-96854555D01*
X16667794Y-96839245D01*
X16669545Y-96833322D01*
X16699440Y-96777668D01*
X16746458Y-96732815D01*
X16787951Y-96713105D01*
X16843074Y-96714295D01*
X16898932Y-96738875D01*
X16945788Y-96779570D01*
X16973906Y-96829108D01*
X16977895Y-96854997D01*
X17147671Y-96854997D01*
X17134926Y-96788133D01*
X17092389Y-96693727D01*
X17031253Y-96620088D01*
X16954015Y-96569893D01*
X16863170Y-96545822D01*
X16761216Y-96550554D01*
G37*
X16761216Y-96550554D02*
X16718426Y-96560949D01*
X16636391Y-96599013D01*
X16566243Y-96657149D01*
X16517695Y-96726852D01*
X16511025Y-96742502D01*
X16501876Y-96783496D01*
X16495471Y-96844138D01*
X16493290Y-96905430D01*
X16493290Y-97021316D01*
X16735593Y-97021316D01*
X16835529Y-97021693D01*
X16905931Y-97023987D01*
X16950687Y-97029938D01*
X16973685Y-97041285D01*
X16978811Y-97059771D01*
X16969952Y-97087136D01*
X16954083Y-97119155D01*
X16909816Y-97172592D01*
X16848301Y-97199215D01*
X16773115Y-97198347D01*
X16687947Y-97169371D01*
X16614341Y-97133611D01*
X16553266Y-97181904D01*
X16492190Y-97230197D01*
X16549649Y-97283285D01*
X16626359Y-97333445D01*
X16720698Y-97363688D01*
X16822173Y-97372151D01*
X16920289Y-97356974D01*
X16936119Y-97351824D01*
X17022353Y-97306791D01*
X17086499Y-97239652D01*
X17129909Y-97148405D01*
X17153936Y-97031044D01*
X17154216Y-97028529D01*
X17156367Y-96900627D01*
X17147671Y-96854997D01*
X16977895Y-96854997D01*
X16962303Y-96862013D01*
X16919971Y-96867388D01*
X16857566Y-96870457D01*
X16818019Y-96870921D01*
X16744272Y-96870630D01*
X16698160Y-96868783D01*
X16673900Y-96863912D01*
X16665706Y-96854555D01*
X16667794Y-96839245D01*
X16669545Y-96833322D01*
X16699440Y-96777668D01*
X16746458Y-96732815D01*
X16787951Y-96713105D01*
X16843074Y-96714295D01*
X16898932Y-96738875D01*
X16945788Y-96779570D01*
X16973906Y-96829108D01*
X16977895Y-96854997D01*
X17147671Y-96854997D01*
X17134926Y-96788133D01*
X17092389Y-96693727D01*
X17031253Y-96620088D01*
X16954015Y-96569893D01*
X16863170Y-96545822D01*
X16761216Y-96550554D01*
G36*
X17373424Y-96560419D02*
G01*
X17276605Y-96601549D01*
X17246110Y-96621571D01*
X17207135Y-96652340D01*
X17182669Y-96676533D01*
X17178422Y-96684413D01*
X17190416Y-96701899D01*
X17221113Y-96731570D01*
X17245688Y-96752279D01*
X17312954Y-96806336D01*
X17366070Y-96761642D01*
X17407116Y-96732789D01*
X17447137Y-96722829D01*
X17492941Y-96725261D01*
X17565676Y-96743345D01*
X17615744Y-96780881D01*
X17646171Y-96841562D01*
X17659983Y-96929081D01*
X17659987Y-96929136D01*
X17658792Y-97026958D01*
X17640228Y-97098730D01*
X17603196Y-97147595D01*
X17577950Y-97164143D01*
X17510903Y-97184749D01*
X17439291Y-97184762D01*
X17376985Y-97164768D01*
X17362237Y-97155000D01*
X17325250Y-97130047D01*
X17296332Y-97125958D01*
X17265144Y-97144530D01*
X17230664Y-97177887D01*
X17176088Y-97234196D01*
X17236682Y-97284142D01*
X17330302Y-97340513D01*
X17435875Y-97368293D01*
X17546202Y-97366282D01*
X17618657Y-97347862D01*
X17703344Y-97302310D01*
X17771073Y-97230650D01*
X17801843Y-97180066D01*
X17826764Y-97107488D01*
X17839234Y-97015569D01*
X17839330Y-96915948D01*
X17827130Y-96820267D01*
X17802710Y-96740169D01*
X17798864Y-96731956D01*
X17741907Y-96651413D01*
X17664791Y-96592771D01*
X17573610Y-96557247D01*
X17474457Y-96546057D01*
X17373424Y-96560419D01*
G37*
X17373424Y-96560419D02*
X17276605Y-96601549D01*
X17246110Y-96621571D01*
X17207135Y-96652340D01*
X17182669Y-96676533D01*
X17178422Y-96684413D01*
X17190416Y-96701899D01*
X17221113Y-96731570D01*
X17245688Y-96752279D01*
X17312954Y-96806336D01*
X17366070Y-96761642D01*
X17407116Y-96732789D01*
X17447137Y-96722829D01*
X17492941Y-96725261D01*
X17565676Y-96743345D01*
X17615744Y-96780881D01*
X17646171Y-96841562D01*
X17659983Y-96929081D01*
X17659987Y-96929136D01*
X17658792Y-97026958D01*
X17640228Y-97098730D01*
X17603196Y-97147595D01*
X17577950Y-97164143D01*
X17510903Y-97184749D01*
X17439291Y-97184762D01*
X17376985Y-97164768D01*
X17362237Y-97155000D01*
X17325250Y-97130047D01*
X17296332Y-97125958D01*
X17265144Y-97144530D01*
X17230664Y-97177887D01*
X17176088Y-97234196D01*
X17236682Y-97284142D01*
X17330302Y-97340513D01*
X17435875Y-97368293D01*
X17546202Y-97366282D01*
X17618657Y-97347862D01*
X17703344Y-97302310D01*
X17771073Y-97230650D01*
X17801843Y-97180066D01*
X17826764Y-97107488D01*
X17839234Y-97015569D01*
X17839330Y-96915948D01*
X17827130Y-96820267D01*
X17802710Y-96740169D01*
X17798864Y-96731956D01*
X17741907Y-96651413D01*
X17664791Y-96592771D01*
X17573610Y-96557247D01*
X17474457Y-96546057D01*
X17373424Y-96560419D01*
G36*
X18999869Y-96813533D02*
G01*
X18998290Y-96936089D01*
X18992519Y-97029179D01*
X18981009Y-97096651D01*
X18962210Y-97142355D01*
X18934574Y-97170139D01*
X18896552Y-97183854D01*
X18849474Y-97187358D01*
X18800168Y-97183432D01*
X18762717Y-97169089D01*
X18735572Y-97140478D01*
X18717185Y-97093751D01*
X18706007Y-97025058D01*
X18700489Y-96930550D01*
X18699079Y-96813533D01*
X18699079Y-96553421D01*
X18515264Y-96553421D01*
X18515264Y-97355526D01*
X18607172Y-97355526D01*
X18662578Y-97353281D01*
X18691109Y-97345396D01*
X18699079Y-97330428D01*
X18703880Y-97317097D01*
X18722986Y-97319917D01*
X18761496Y-97338783D01*
X18849761Y-97367887D01*
X18943377Y-97365825D01*
X19033079Y-97334221D01*
X19075796Y-97309257D01*
X19108379Y-97282226D01*
X19132183Y-97248405D01*
X19148561Y-97203068D01*
X19158869Y-97141489D01*
X19164459Y-97058943D01*
X19166688Y-96950705D01*
X19166974Y-96867004D01*
X19166974Y-96553421D01*
X18999869Y-96553421D01*
X18999869Y-96813533D01*
G37*
X18999869Y-96813533D02*
X18998290Y-96936089D01*
X18992519Y-97029179D01*
X18981009Y-97096651D01*
X18962210Y-97142355D01*
X18934574Y-97170139D01*
X18896552Y-97183854D01*
X18849474Y-97187358D01*
X18800168Y-97183432D01*
X18762717Y-97169089D01*
X18735572Y-97140478D01*
X18717185Y-97093751D01*
X18706007Y-97025058D01*
X18700489Y-96930550D01*
X18699079Y-96813533D01*
X18699079Y-96553421D01*
X18515264Y-96553421D01*
X18515264Y-97355526D01*
X18607172Y-97355526D01*
X18662578Y-97353281D01*
X18691109Y-97345396D01*
X18699079Y-97330428D01*
X18703880Y-97317097D01*
X18722986Y-97319917D01*
X18761496Y-97338783D01*
X18849761Y-97367887D01*
X18943377Y-97365825D01*
X19033079Y-97334221D01*
X19075796Y-97309257D01*
X19108379Y-97282226D01*
X19132183Y-97248405D01*
X19148561Y-97203068D01*
X19158869Y-97141489D01*
X19164459Y-97058943D01*
X19166688Y-96950705D01*
X19166974Y-96867004D01*
X19166974Y-96553421D01*
X18999869Y-96553421D01*
X18999869Y-96813533D01*
G36*
X19508331Y-96563310D02*
G01*
X19423808Y-96609340D01*
X19357679Y-96682006D01*
X19326522Y-96741106D01*
X19313145Y-96793305D01*
X19304478Y-96867719D01*
X19300763Y-96953442D01*
X19302246Y-97039569D01*
X19309169Y-97115193D01*
X19317255Y-97155584D01*
X19344535Y-97210840D01*
X19391780Y-97269530D01*
X19448718Y-97320852D01*
X19505076Y-97354005D01*
X19506450Y-97354531D01*
X19576384Y-97369018D01*
X19659263Y-97369377D01*
X19738023Y-97356188D01*
X19768434Y-97345617D01*
X19846761Y-97301201D01*
X19902857Y-97243007D01*
X19939714Y-97165965D01*
X19960320Y-97065001D01*
X19964982Y-97012116D01*
X19964387Y-96945663D01*
X19785264Y-96945663D01*
X19779230Y-97042630D01*
X19761862Y-97116523D01*
X19734260Y-97163736D01*
X19714596Y-97177237D01*
X19664213Y-97186651D01*
X19604327Y-97183864D01*
X19552551Y-97170316D01*
X19538973Y-97162862D01*
X19503151Y-97119451D01*
X19479507Y-97053014D01*
X19469442Y-96972161D01*
X19474358Y-96885502D01*
X19485345Y-96833349D01*
X19516891Y-96772951D01*
X19566689Y-96735197D01*
X19626663Y-96722143D01*
X19688736Y-96735849D01*
X19736418Y-96769372D01*
X19761475Y-96797031D01*
X19776100Y-96824294D01*
X19783071Y-96861190D01*
X19785167Y-96917750D01*
X19785264Y-96945663D01*
X19964387Y-96945663D01*
X19963718Y-96870994D01*
X19940735Y-96755271D01*
X19896028Y-96664941D01*
X19829595Y-96600000D01*
X19741435Y-96560445D01*
X19722505Y-96555858D01*
X19608734Y-96545090D01*
X19508331Y-96563310D01*
G37*
X19508331Y-96563310D02*
X19423808Y-96609340D01*
X19357679Y-96682006D01*
X19326522Y-96741106D01*
X19313145Y-96793305D01*
X19304478Y-96867719D01*
X19300763Y-96953442D01*
X19302246Y-97039569D01*
X19309169Y-97115193D01*
X19317255Y-97155584D01*
X19344535Y-97210840D01*
X19391780Y-97269530D01*
X19448718Y-97320852D01*
X19505076Y-97354005D01*
X19506450Y-97354531D01*
X19576384Y-97369018D01*
X19659263Y-97369377D01*
X19738023Y-97356188D01*
X19768434Y-97345617D01*
X19846761Y-97301201D01*
X19902857Y-97243007D01*
X19939714Y-97165965D01*
X19960320Y-97065001D01*
X19964982Y-97012116D01*
X19964387Y-96945663D01*
X19785264Y-96945663D01*
X19779230Y-97042630D01*
X19761862Y-97116523D01*
X19734260Y-97163736D01*
X19714596Y-97177237D01*
X19664213Y-97186651D01*
X19604327Y-97183864D01*
X19552551Y-97170316D01*
X19538973Y-97162862D01*
X19503151Y-97119451D01*
X19479507Y-97053014D01*
X19469442Y-96972161D01*
X19474358Y-96885502D01*
X19485345Y-96833349D01*
X19516891Y-96772951D01*
X19566689Y-96735197D01*
X19626663Y-96722143D01*
X19688736Y-96735849D01*
X19736418Y-96769372D01*
X19761475Y-96797031D01*
X19776100Y-96824294D01*
X19783071Y-96861190D01*
X19785167Y-96917750D01*
X19785264Y-96945663D01*
X19964387Y-96945663D01*
X19963718Y-96870994D01*
X19940735Y-96755271D01*
X19896028Y-96664941D01*
X19829595Y-96600000D01*
X19741435Y-96560445D01*
X19722505Y-96555858D01*
X19608734Y-96545090D01*
X19508331Y-96563310D01*
G36*
X20301372Y-96550547D02*
G01*
X20238092Y-96562548D01*
X20172443Y-96587648D01*
X20165428Y-96590848D01*
X20115644Y-96617026D01*
X20081166Y-96641353D01*
X20070022Y-96656937D01*
X20080634Y-96682353D01*
X20106412Y-96719853D01*
X20117854Y-96733852D01*
X20165008Y-96788954D01*
X20225799Y-96753086D01*
X20283653Y-96729192D01*
X20350500Y-96716420D01*
X20414606Y-96715613D01*
X20464236Y-96727615D01*
X20476146Y-96735105D01*
X20498828Y-96769450D01*
X20501584Y-96809013D01*
X20484612Y-96839920D01*
X20474573Y-96845913D01*
X20444490Y-96853357D01*
X20391611Y-96862106D01*
X20326425Y-96870467D01*
X20314400Y-96871778D01*
X20209703Y-96889888D01*
X20133768Y-96920651D01*
X20083408Y-96966907D01*
X20055436Y-97031497D01*
X20046722Y-97110387D01*
X20058760Y-97200065D01*
X20097849Y-97270486D01*
X20164145Y-97321777D01*
X20257806Y-97354067D01*
X20361777Y-97366807D01*
X20446562Y-97366654D01*
X20515335Y-97355083D01*
X20562303Y-97339109D01*
X20621650Y-97311275D01*
X20676494Y-97278973D01*
X20695987Y-97264755D01*
X20746119Y-97223835D01*
X20625197Y-97101477D01*
X20556457Y-97146967D01*
X20487512Y-97181133D01*
X20413889Y-97199004D01*
X20343117Y-97200889D01*
X20282726Y-97187101D01*
X20240243Y-97157949D01*
X20226526Y-97133352D01*
X20228583Y-97093904D01*
X20262670Y-97063737D01*
X20328692Y-97042906D01*
X20401026Y-97033279D01*
X20512348Y-97014910D01*
X20595048Y-96980254D01*
X20650235Y-96928297D01*
X20679012Y-96858023D01*
X20682999Y-96774707D01*
X20663307Y-96687681D01*
X20618411Y-96621902D01*
X20547909Y-96577068D01*
X20451399Y-96552879D01*
X20379900Y-96548137D01*
X20301372Y-96550547D01*
G37*
X20301372Y-96550547D02*
X20238092Y-96562548D01*
X20172443Y-96587648D01*
X20165428Y-96590848D01*
X20115644Y-96617026D01*
X20081166Y-96641353D01*
X20070022Y-96656937D01*
X20080634Y-96682353D01*
X20106412Y-96719853D01*
X20117854Y-96733852D01*
X20165008Y-96788954D01*
X20225799Y-96753086D01*
X20283653Y-96729192D01*
X20350500Y-96716420D01*
X20414606Y-96715613D01*
X20464236Y-96727615D01*
X20476146Y-96735105D01*
X20498828Y-96769450D01*
X20501584Y-96809013D01*
X20484612Y-96839920D01*
X20474573Y-96845913D01*
X20444490Y-96853357D01*
X20391611Y-96862106D01*
X20326425Y-96870467D01*
X20314400Y-96871778D01*
X20209703Y-96889888D01*
X20133768Y-96920651D01*
X20083408Y-96966907D01*
X20055436Y-97031497D01*
X20046722Y-97110387D01*
X20058760Y-97200065D01*
X20097849Y-97270486D01*
X20164145Y-97321777D01*
X20257806Y-97354067D01*
X20361777Y-97366807D01*
X20446562Y-97366654D01*
X20515335Y-97355083D01*
X20562303Y-97339109D01*
X20621650Y-97311275D01*
X20676494Y-97278973D01*
X20695987Y-97264755D01*
X20746119Y-97223835D01*
X20625197Y-97101477D01*
X20556457Y-97146967D01*
X20487512Y-97181133D01*
X20413889Y-97199004D01*
X20343117Y-97200889D01*
X20282726Y-97187101D01*
X20240243Y-97157949D01*
X20226526Y-97133352D01*
X20228583Y-97093904D01*
X20262670Y-97063737D01*
X20328692Y-97042906D01*
X20401026Y-97033279D01*
X20512348Y-97014910D01*
X20595048Y-96980254D01*
X20650235Y-96928297D01*
X20679012Y-96858023D01*
X20682999Y-96774707D01*
X20663307Y-96687681D01*
X20618411Y-96621902D01*
X20547909Y-96577068D01*
X20451399Y-96552879D01*
X20379900Y-96548137D01*
X20301372Y-96550547D01*
G36*
X22122982Y-96572027D02*
G01*
X22106330Y-96579866D01*
X22048695Y-96622086D01*
X21994195Y-96683700D01*
X21953501Y-96751543D01*
X21941926Y-96782734D01*
X21931366Y-96838449D01*
X21925069Y-96905781D01*
X21924304Y-96933585D01*
X21924211Y-97021316D01*
X22429150Y-97021316D01*
X22418387Y-97067270D01*
X22391967Y-97121620D01*
X22345778Y-97168591D01*
X22290828Y-97198848D01*
X22255811Y-97205131D01*
X22208323Y-97197506D01*
X22151665Y-97178383D01*
X22132418Y-97169584D01*
X22061241Y-97134036D01*
X22000498Y-97180367D01*
X21965448Y-97211703D01*
X21946798Y-97237567D01*
X21945853Y-97245158D01*
X21962515Y-97263556D01*
X21999030Y-97291515D01*
X22032172Y-97313327D01*
X22121607Y-97352537D01*
X22221871Y-97370285D01*
X22321246Y-97365670D01*
X22400461Y-97341551D01*
X22482120Y-97289884D01*
X22540151Y-97221856D01*
X22576454Y-97133843D01*
X22592928Y-97022216D01*
X22594389Y-96971138D01*
X22588543Y-96854091D01*
X22587825Y-96850686D01*
X22420511Y-96850686D01*
X22415903Y-96861662D01*
X22396964Y-96867715D01*
X22357902Y-96870310D01*
X22292923Y-96870910D01*
X22267903Y-96870921D01*
X22191779Y-96870014D01*
X22143504Y-96866720D01*
X22117540Y-96860181D01*
X22108352Y-96849537D01*
X22108027Y-96846119D01*
X22118513Y-96818956D01*
X22144758Y-96780903D01*
X22156041Y-96767579D01*
X22197928Y-96729896D01*
X22241591Y-96715080D01*
X22265115Y-96713842D01*
X22328757Y-96729329D01*
X22382127Y-96770930D01*
X22415981Y-96831353D01*
X22416581Y-96833322D01*
X22420511Y-96850686D01*
X22587825Y-96850686D01*
X22569101Y-96761928D01*
X22534078Y-96688190D01*
X22491244Y-96635848D01*
X22412052Y-96579092D01*
X22318960Y-96548762D01*
X22219945Y-96546021D01*
X22122982Y-96572027D01*
G37*
X22122982Y-96572027D02*
X22106330Y-96579866D01*
X22048695Y-96622086D01*
X21994195Y-96683700D01*
X21953501Y-96751543D01*
X21941926Y-96782734D01*
X21931366Y-96838449D01*
X21925069Y-96905781D01*
X21924304Y-96933585D01*
X21924211Y-97021316D01*
X22429150Y-97021316D01*
X22418387Y-97067270D01*
X22391967Y-97121620D01*
X22345778Y-97168591D01*
X22290828Y-97198848D01*
X22255811Y-97205131D01*
X22208323Y-97197506D01*
X22151665Y-97178383D01*
X22132418Y-97169584D01*
X22061241Y-97134036D01*
X22000498Y-97180367D01*
X21965448Y-97211703D01*
X21946798Y-97237567D01*
X21945853Y-97245158D01*
X21962515Y-97263556D01*
X21999030Y-97291515D01*
X22032172Y-97313327D01*
X22121607Y-97352537D01*
X22221871Y-97370285D01*
X22321246Y-97365670D01*
X22400461Y-97341551D01*
X22482120Y-97289884D01*
X22540151Y-97221856D01*
X22576454Y-97133843D01*
X22592928Y-97022216D01*
X22594389Y-96971138D01*
X22588543Y-96854091D01*
X22587825Y-96850686D01*
X22420511Y-96850686D01*
X22415903Y-96861662D01*
X22396964Y-96867715D01*
X22357902Y-96870310D01*
X22292923Y-96870910D01*
X22267903Y-96870921D01*
X22191779Y-96870014D01*
X22143504Y-96866720D01*
X22117540Y-96860181D01*
X22108352Y-96849537D01*
X22108027Y-96846119D01*
X22118513Y-96818956D01*
X22144758Y-96780903D01*
X22156041Y-96767579D01*
X22197928Y-96729896D01*
X22241591Y-96715080D01*
X22265115Y-96713842D01*
X22328757Y-96729329D01*
X22382127Y-96770930D01*
X22415981Y-96831353D01*
X22416581Y-96833322D01*
X22420511Y-96850686D01*
X22587825Y-96850686D01*
X22569101Y-96761928D01*
X22534078Y-96688190D01*
X22491244Y-96635848D01*
X22412052Y-96579092D01*
X22318960Y-96548762D01*
X22219945Y-96546021D01*
X22122982Y-96572027D01*
G36*
X23693216Y-96562104D02*
G01*
X23605795Y-96600754D01*
X23539430Y-96665290D01*
X23494024Y-96755812D01*
X23469482Y-96872418D01*
X23467723Y-96890624D01*
X23466344Y-97018984D01*
X23484216Y-97131496D01*
X23520250Y-97222688D01*
X23539545Y-97252022D01*
X23606755Y-97314106D01*
X23692350Y-97354316D01*
X23788110Y-97371003D01*
X23885813Y-97362517D01*
X23960083Y-97336380D01*
X24023953Y-97292335D01*
X24076154Y-97234587D01*
X24077057Y-97233236D01*
X24098256Y-97197593D01*
X24112033Y-97161752D01*
X24120376Y-97116519D01*
X24125273Y-97052701D01*
X24127431Y-97000368D01*
X24128329Y-96952910D01*
X23961257Y-96952910D01*
X23959624Y-97000154D01*
X23953696Y-97063046D01*
X23943239Y-97103407D01*
X23924381Y-97132122D01*
X23906719Y-97148896D01*
X23844106Y-97184016D01*
X23778592Y-97188710D01*
X23717579Y-97163440D01*
X23687072Y-97135124D01*
X23665089Y-97106589D01*
X23652231Y-97079284D01*
X23646588Y-97043750D01*
X23646249Y-96990524D01*
X23647988Y-96941506D01*
X23651729Y-96871482D01*
X23657659Y-96826064D01*
X23668347Y-96796440D01*
X23686361Y-96773797D01*
X23700637Y-96760855D01*
X23760349Y-96726860D01*
X23824766Y-96725165D01*
X23878781Y-96745301D01*
X23924860Y-96787352D01*
X23952311Y-96856428D01*
X23961257Y-96952910D01*
X24128329Y-96952910D01*
X24129401Y-96896299D01*
X24126036Y-96818468D01*
X24115955Y-96759930D01*
X24097774Y-96713737D01*
X24070110Y-96672942D01*
X24059854Y-96660828D01*
X23995722Y-96600474D01*
X23926934Y-96565220D01*
X23842811Y-96550450D01*
X23801791Y-96549243D01*
X23693216Y-96562104D01*
G37*
X23693216Y-96562104D02*
X23605795Y-96600754D01*
X23539430Y-96665290D01*
X23494024Y-96755812D01*
X23469482Y-96872418D01*
X23467723Y-96890624D01*
X23466344Y-97018984D01*
X23484216Y-97131496D01*
X23520250Y-97222688D01*
X23539545Y-97252022D01*
X23606755Y-97314106D01*
X23692350Y-97354316D01*
X23788110Y-97371003D01*
X23885813Y-97362517D01*
X23960083Y-97336380D01*
X24023953Y-97292335D01*
X24076154Y-97234587D01*
X24077057Y-97233236D01*
X24098256Y-97197593D01*
X24112033Y-97161752D01*
X24120376Y-97116519D01*
X24125273Y-97052701D01*
X24127431Y-97000368D01*
X24128329Y-96952910D01*
X23961257Y-96952910D01*
X23959624Y-97000154D01*
X23953696Y-97063046D01*
X23943239Y-97103407D01*
X23924381Y-97132122D01*
X23906719Y-97148896D01*
X23844106Y-97184016D01*
X23778592Y-97188710D01*
X23717579Y-97163440D01*
X23687072Y-97135124D01*
X23665089Y-97106589D01*
X23652231Y-97079284D01*
X23646588Y-97043750D01*
X23646249Y-96990524D01*
X23647988Y-96941506D01*
X23651729Y-96871482D01*
X23657659Y-96826064D01*
X23668347Y-96796440D01*
X23686361Y-96773797D01*
X23700637Y-96760855D01*
X23760349Y-96726860D01*
X23824766Y-96725165D01*
X23878781Y-96745301D01*
X23924860Y-96787352D01*
X23952311Y-96856428D01*
X23961257Y-96952910D01*
X24128329Y-96952910D01*
X24129401Y-96896299D01*
X24126036Y-96818468D01*
X24115955Y-96759930D01*
X24097774Y-96713737D01*
X24070110Y-96672942D01*
X24059854Y-96660828D01*
X23995722Y-96600474D01*
X23926934Y-96565220D01*
X23842811Y-96550450D01*
X23801791Y-96549243D01*
X23693216Y-96562104D01*
G36*
X17618807Y-97811078D02*
G01*
X17538932Y-97831845D01*
X17472038Y-97874705D01*
X17439649Y-97906723D01*
X17386555Y-97982413D01*
X17356127Y-98070216D01*
X17345673Y-98178150D01*
X17345620Y-98186875D01*
X17345527Y-98274605D01*
X17850466Y-98274605D01*
X17839702Y-98320559D01*
X17820268Y-98362178D01*
X17786255Y-98405544D01*
X17779140Y-98412467D01*
X17717997Y-98449935D01*
X17648271Y-98456289D01*
X17568013Y-98431638D01*
X17554408Y-98425000D01*
X17512681Y-98404819D01*
X17484732Y-98393321D01*
X17479855Y-98392258D01*
X17462832Y-98402583D01*
X17430367Y-98427845D01*
X17413886Y-98441650D01*
X17379736Y-98473361D01*
X17368522Y-98494299D01*
X17376305Y-98513560D01*
X17380465Y-98518827D01*
X17408643Y-98541878D01*
X17455138Y-98569892D01*
X17487566Y-98586246D01*
X17579615Y-98615059D01*
X17681524Y-98624395D01*
X17778037Y-98613332D01*
X17805066Y-98605412D01*
X17888724Y-98560581D01*
X17950734Y-98491598D01*
X17991455Y-98397794D01*
X18011245Y-98278498D01*
X18013418Y-98216118D01*
X18007074Y-98125298D01*
X17846843Y-98125298D01*
X17831345Y-98132012D01*
X17789688Y-98137280D01*
X17729124Y-98140389D01*
X17688093Y-98140921D01*
X17614289Y-98140408D01*
X17567707Y-98138006D01*
X17542152Y-98132422D01*
X17531431Y-98122361D01*
X17529343Y-98107763D01*
X17543669Y-98062796D01*
X17579738Y-98018353D01*
X17627185Y-97984242D01*
X17674651Y-97970288D01*
X17739121Y-97982666D01*
X17794930Y-98018452D01*
X17833626Y-98070033D01*
X17846843Y-98125298D01*
X18007074Y-98125298D01*
X18004179Y-98083866D01*
X17975664Y-97978498D01*
X17927271Y-97899178D01*
X17858396Y-97845071D01*
X17768435Y-97815343D01*
X17719700Y-97809618D01*
X17618807Y-97811078D01*
G37*
X17618807Y-97811078D02*
X17538932Y-97831845D01*
X17472038Y-97874705D01*
X17439649Y-97906723D01*
X17386555Y-97982413D01*
X17356127Y-98070216D01*
X17345673Y-98178150D01*
X17345620Y-98186875D01*
X17345527Y-98274605D01*
X17850466Y-98274605D01*
X17839702Y-98320559D01*
X17820268Y-98362178D01*
X17786255Y-98405544D01*
X17779140Y-98412467D01*
X17717997Y-98449935D01*
X17648271Y-98456289D01*
X17568013Y-98431638D01*
X17554408Y-98425000D01*
X17512681Y-98404819D01*
X17484732Y-98393321D01*
X17479855Y-98392258D01*
X17462832Y-98402583D01*
X17430367Y-98427845D01*
X17413886Y-98441650D01*
X17379736Y-98473361D01*
X17368522Y-98494299D01*
X17376305Y-98513560D01*
X17380465Y-98518827D01*
X17408643Y-98541878D01*
X17455138Y-98569892D01*
X17487566Y-98586246D01*
X17579615Y-98615059D01*
X17681524Y-98624395D01*
X17778037Y-98613332D01*
X17805066Y-98605412D01*
X17888724Y-98560581D01*
X17950734Y-98491598D01*
X17991455Y-98397794D01*
X18011245Y-98278498D01*
X18013418Y-98216118D01*
X18007074Y-98125298D01*
X17846843Y-98125298D01*
X17831345Y-98132012D01*
X17789688Y-98137280D01*
X17729124Y-98140389D01*
X17688093Y-98140921D01*
X17614289Y-98140408D01*
X17567707Y-98138006D01*
X17542152Y-98132422D01*
X17531431Y-98122361D01*
X17529343Y-98107763D01*
X17543669Y-98062796D01*
X17579738Y-98018353D01*
X17627185Y-97984242D01*
X17674651Y-97970288D01*
X17739121Y-97982666D01*
X17794930Y-98018452D01*
X17833626Y-98070033D01*
X17846843Y-98125298D01*
X18007074Y-98125298D01*
X18004179Y-98083866D01*
X17975664Y-97978498D01*
X17927271Y-97899178D01*
X17858396Y-97845071D01*
X17768435Y-97815343D01*
X17719700Y-97809618D01*
X17618807Y-97811078D01*
G36*
X18146833Y-97806447D02*
G01*
X18082592Y-97819112D01*
X18046020Y-97837864D01*
X18007547Y-97869017D01*
X18062283Y-97938127D01*
X18096031Y-97979979D01*
X18118947Y-98000398D01*
X18141721Y-98003517D01*
X18175044Y-97993472D01*
X18190686Y-97987789D01*
X18254458Y-97979404D01*
X18312860Y-97997378D01*
X18355736Y-98037982D01*
X18362701Y-98050929D01*
X18370287Y-98085224D01*
X18376141Y-98148427D01*
X18379989Y-98236060D01*
X18381557Y-98343640D01*
X18381579Y-98358944D01*
X18381579Y-98625526D01*
X18565395Y-98625526D01*
X18565395Y-97806710D01*
X18473487Y-97806710D01*
X18420493Y-97808094D01*
X18392885Y-97814252D01*
X18382676Y-97828194D01*
X18381579Y-97841344D01*
X18381579Y-97875978D01*
X18337550Y-97841344D01*
X18287063Y-97817716D01*
X18219240Y-97806033D01*
X18146833Y-97806447D01*
G37*
X18146833Y-97806447D02*
X18082592Y-97819112D01*
X18046020Y-97837864D01*
X18007547Y-97869017D01*
X18062283Y-97938127D01*
X18096031Y-97979979D01*
X18118947Y-98000398D01*
X18141721Y-98003517D01*
X18175044Y-97993472D01*
X18190686Y-97987789D01*
X18254458Y-97979404D01*
X18312860Y-97997378D01*
X18355736Y-98037982D01*
X18362701Y-98050929D01*
X18370287Y-98085224D01*
X18376141Y-98148427D01*
X18379989Y-98236060D01*
X18381557Y-98343640D01*
X18381579Y-98358944D01*
X18381579Y-98625526D01*
X18565395Y-98625526D01*
X18565395Y-97806710D01*
X18473487Y-97806710D01*
X18420493Y-97808094D01*
X18392885Y-97814252D01*
X18382676Y-97828194D01*
X18381579Y-97841344D01*
X18381579Y-97875978D01*
X18337550Y-97841344D01*
X18287063Y-97817716D01*
X18219240Y-97806033D01*
X18146833Y-97806447D01*
G36*
X18940008Y-97811673D02*
G01*
X18869573Y-97828780D01*
X18849213Y-97837844D01*
X18809747Y-97861583D01*
X18779459Y-97888321D01*
X18757048Y-97922699D01*
X18741214Y-97969360D01*
X18730657Y-98032946D01*
X18724076Y-98118099D01*
X18720172Y-98229462D01*
X18718690Y-98303849D01*
X18713235Y-98625526D01*
X18806420Y-98625526D01*
X18862953Y-98623156D01*
X18892078Y-98615055D01*
X18899606Y-98601451D01*
X18903580Y-98586741D01*
X18921348Y-98589554D01*
X18945560Y-98601348D01*
X19006172Y-98619427D01*
X19084071Y-98624299D01*
X19166005Y-98616330D01*
X19238719Y-98595889D01*
X19245241Y-98593051D01*
X19311698Y-98546365D01*
X19355509Y-98481464D01*
X19375668Y-98405600D01*
X19374128Y-98378344D01*
X19209655Y-98378344D01*
X19195163Y-98415024D01*
X19152195Y-98441309D01*
X19082871Y-98455417D01*
X19045823Y-98457290D01*
X18984081Y-98452494D01*
X18943040Y-98433858D01*
X18933027Y-98425000D01*
X18905900Y-98376806D01*
X18899606Y-98333092D01*
X18899606Y-98274605D01*
X18981070Y-98274605D01*
X19075766Y-98279432D01*
X19142187Y-98294613D01*
X19184154Y-98321200D01*
X19193551Y-98333052D01*
X19209655Y-98378344D01*
X19374128Y-98378344D01*
X19371171Y-98326026D01*
X19341015Y-98249995D01*
X19299869Y-98198612D01*
X19274948Y-98176397D01*
X19250552Y-98161798D01*
X19218809Y-98152897D01*
X19171848Y-98147775D01*
X19101796Y-98144515D01*
X19074010Y-98143577D01*
X18899606Y-98137879D01*
X18899862Y-98085091D01*
X18906616Y-98029603D01*
X18931036Y-97996052D01*
X18980370Y-97974618D01*
X18981694Y-97974236D01*
X19051640Y-97965808D01*
X19120086Y-97976816D01*
X19170953Y-98003585D01*
X19191363Y-98016803D01*
X19213346Y-98014974D01*
X19247174Y-97995824D01*
X19267039Y-97982308D01*
X19305894Y-97953432D01*
X19329962Y-97931786D01*
X19333824Y-97925589D01*
X19317921Y-97893519D01*
X19270935Y-97855219D01*
X19250527Y-97842297D01*
X19191857Y-97820041D01*
X19112788Y-97807432D01*
X19024959Y-97804600D01*
X18940008Y-97811673D01*
G37*
X18940008Y-97811673D02*
X18869573Y-97828780D01*
X18849213Y-97837844D01*
X18809747Y-97861583D01*
X18779459Y-97888321D01*
X18757048Y-97922699D01*
X18741214Y-97969360D01*
X18730657Y-98032946D01*
X18724076Y-98118099D01*
X18720172Y-98229462D01*
X18718690Y-98303849D01*
X18713235Y-98625526D01*
X18806420Y-98625526D01*
X18862953Y-98623156D01*
X18892078Y-98615055D01*
X18899606Y-98601451D01*
X18903580Y-98586741D01*
X18921348Y-98589554D01*
X18945560Y-98601348D01*
X19006172Y-98619427D01*
X19084071Y-98624299D01*
X19166005Y-98616330D01*
X19238719Y-98595889D01*
X19245241Y-98593051D01*
X19311698Y-98546365D01*
X19355509Y-98481464D01*
X19375668Y-98405600D01*
X19374128Y-98378344D01*
X19209655Y-98378344D01*
X19195163Y-98415024D01*
X19152195Y-98441309D01*
X19082871Y-98455417D01*
X19045823Y-98457290D01*
X18984081Y-98452494D01*
X18943040Y-98433858D01*
X18933027Y-98425000D01*
X18905900Y-98376806D01*
X18899606Y-98333092D01*
X18899606Y-98274605D01*
X18981070Y-98274605D01*
X19075766Y-98279432D01*
X19142187Y-98294613D01*
X19184154Y-98321200D01*
X19193551Y-98333052D01*
X19209655Y-98378344D01*
X19374128Y-98378344D01*
X19371171Y-98326026D01*
X19341015Y-98249995D01*
X19299869Y-98198612D01*
X19274948Y-98176397D01*
X19250552Y-98161798D01*
X19218809Y-98152897D01*
X19171848Y-98147775D01*
X19101796Y-98144515D01*
X19074010Y-98143577D01*
X18899606Y-98137879D01*
X18899862Y-98085091D01*
X18906616Y-98029603D01*
X18931036Y-97996052D01*
X18980370Y-97974618D01*
X18981694Y-97974236D01*
X19051640Y-97965808D01*
X19120086Y-97976816D01*
X19170953Y-98003585D01*
X19191363Y-98016803D01*
X19213346Y-98014974D01*
X19247174Y-97995824D01*
X19267039Y-97982308D01*
X19305894Y-97953432D01*
X19329962Y-97931786D01*
X19333824Y-97925589D01*
X19317921Y-97893519D01*
X19270935Y-97855219D01*
X19250527Y-97842297D01*
X19191857Y-97820041D01*
X19112788Y-97807432D01*
X19024959Y-97804600D01*
X18940008Y-97811673D01*
G36*
X19945870Y-97810104D02*
G01*
X19879780Y-97815066D01*
X19793374Y-98074079D01*
X19706969Y-98333092D01*
X19679876Y-98241184D01*
X19663572Y-98184384D01*
X19642125Y-98107625D01*
X19618965Y-98023251D01*
X19606720Y-97977993D01*
X19560656Y-97806710D01*
X19370613Y-97806710D01*
X19427418Y-97986349D01*
X19455393Y-98074704D01*
X19489187Y-98181281D01*
X19524480Y-98292454D01*
X19555987Y-98391579D01*
X19627750Y-98617171D01*
X19782714Y-98627253D01*
X19824730Y-98488528D01*
X19850641Y-98402351D01*
X19878917Y-98307347D01*
X19903631Y-98223441D01*
X19904606Y-98220102D01*
X19923065Y-98163248D01*
X19939351Y-98124456D01*
X19950758Y-98109787D01*
X19953102Y-98111483D01*
X19961329Y-98134225D01*
X19976962Y-98182940D01*
X19998096Y-98251502D01*
X20022830Y-98333785D01*
X20036213Y-98379046D01*
X20108689Y-98625526D01*
X20262505Y-98625526D01*
X20385469Y-98237006D01*
X20420012Y-98128022D01*
X20451479Y-98029048D01*
X20478384Y-97944736D01*
X20499241Y-97879734D01*
X20512562Y-97838692D01*
X20516612Y-97826701D01*
X20513406Y-97814423D01*
X20488235Y-97809046D01*
X20435854Y-97809584D01*
X20427655Y-97809990D01*
X20330518Y-97815066D01*
X20266900Y-98049013D01*
X20243516Y-98134333D01*
X20222619Y-98209335D01*
X20206049Y-98267507D01*
X20195646Y-98302337D01*
X20193724Y-98308016D01*
X20185759Y-98301486D01*
X20169696Y-98267654D01*
X20147379Y-98211127D01*
X20120655Y-98136510D01*
X20098063Y-98069107D01*
X20011959Y-97805143D01*
X19945870Y-97810104D01*
G37*
X19945870Y-97810104D02*
X19879780Y-97815066D01*
X19793374Y-98074079D01*
X19706969Y-98333092D01*
X19679876Y-98241184D01*
X19663572Y-98184384D01*
X19642125Y-98107625D01*
X19618965Y-98023251D01*
X19606720Y-97977993D01*
X19560656Y-97806710D01*
X19370613Y-97806710D01*
X19427418Y-97986349D01*
X19455393Y-98074704D01*
X19489187Y-98181281D01*
X19524480Y-98292454D01*
X19555987Y-98391579D01*
X19627750Y-98617171D01*
X19782714Y-98627253D01*
X19824730Y-98488528D01*
X19850641Y-98402351D01*
X19878917Y-98307347D01*
X19903631Y-98223441D01*
X19904606Y-98220102D01*
X19923065Y-98163248D01*
X19939351Y-98124456D01*
X19950758Y-98109787D01*
X19953102Y-98111483D01*
X19961329Y-98134225D01*
X19976962Y-98182940D01*
X19998096Y-98251502D01*
X20022830Y-98333785D01*
X20036213Y-98379046D01*
X20108689Y-98625526D01*
X20262505Y-98625526D01*
X20385469Y-98237006D01*
X20420012Y-98128022D01*
X20451479Y-98029048D01*
X20478384Y-97944736D01*
X20499241Y-97879734D01*
X20512562Y-97838692D01*
X20516612Y-97826701D01*
X20513406Y-97814423D01*
X20488235Y-97809046D01*
X20435854Y-97809584D01*
X20427655Y-97809990D01*
X20330518Y-97815066D01*
X20266900Y-98049013D01*
X20243516Y-98134333D01*
X20222619Y-98209335D01*
X20206049Y-98267507D01*
X20195646Y-98302337D01*
X20193724Y-98308016D01*
X20185759Y-98301486D01*
X20169696Y-98267654D01*
X20147379Y-98211127D01*
X20120655Y-98136510D01*
X20098063Y-98069107D01*
X20011959Y-97805143D01*
X19945870Y-97810104D01*
G36*
X20587369Y-98625526D02*
G01*
X20679277Y-98625526D01*
X20732623Y-98623962D01*
X20760407Y-98617485D01*
X20770410Y-98603418D01*
X20771185Y-98593906D01*
X20772872Y-98574832D01*
X20783510Y-98571174D01*
X20811465Y-98582932D01*
X20833205Y-98593906D01*
X20916668Y-98619911D01*
X21007396Y-98621416D01*
X21081158Y-98602021D01*
X21149846Y-98555165D01*
X21202206Y-98486004D01*
X21230878Y-98404427D01*
X21231608Y-98399866D01*
X21235868Y-98350101D01*
X21237986Y-98278659D01*
X21237816Y-98224626D01*
X21055280Y-98224626D01*
X21051051Y-98296441D01*
X21041432Y-98355634D01*
X21028410Y-98389060D01*
X20979144Y-98434740D01*
X20920650Y-98451115D01*
X20860329Y-98437873D01*
X20808783Y-98398373D01*
X20789262Y-98371807D01*
X20777848Y-98340106D01*
X20772502Y-98293832D01*
X20771185Y-98224328D01*
X20773542Y-98155499D01*
X20779767Y-98095026D01*
X20788592Y-98054556D01*
X20790063Y-98050929D01*
X20825653Y-98007802D01*
X20877600Y-97984124D01*
X20935722Y-97980301D01*
X20989840Y-97996738D01*
X21029774Y-98033840D01*
X21033917Y-98041222D01*
X21046884Y-98086239D01*
X21053948Y-98150967D01*
X21055280Y-98224626D01*
X21237816Y-98224626D01*
X21237729Y-98197230D01*
X21236528Y-98153405D01*
X21228355Y-98044988D01*
X21211370Y-97963588D01*
X21183113Y-97903412D01*
X21141128Y-97858666D01*
X21100368Y-97832400D01*
X21043419Y-97813935D01*
X20972589Y-97807602D01*
X20900059Y-97812760D01*
X20838014Y-97828769D01*
X20805232Y-97847920D01*
X20771185Y-97878732D01*
X20771185Y-97489210D01*
X20587369Y-97489210D01*
X20587369Y-98625526D01*
G37*
X20587369Y-98625526D02*
X20679277Y-98625526D01*
X20732623Y-98623962D01*
X20760407Y-98617485D01*
X20770410Y-98603418D01*
X20771185Y-98593906D01*
X20772872Y-98574832D01*
X20783510Y-98571174D01*
X20811465Y-98582932D01*
X20833205Y-98593906D01*
X20916668Y-98619911D01*
X21007396Y-98621416D01*
X21081158Y-98602021D01*
X21149846Y-98555165D01*
X21202206Y-98486004D01*
X21230878Y-98404427D01*
X21231608Y-98399866D01*
X21235868Y-98350101D01*
X21237986Y-98278659D01*
X21237816Y-98224626D01*
X21055280Y-98224626D01*
X21051051Y-98296441D01*
X21041432Y-98355634D01*
X21028410Y-98389060D01*
X20979144Y-98434740D01*
X20920650Y-98451115D01*
X20860329Y-98437873D01*
X20808783Y-98398373D01*
X20789262Y-98371807D01*
X20777848Y-98340106D01*
X20772502Y-98293832D01*
X20771185Y-98224328D01*
X20773542Y-98155499D01*
X20779767Y-98095026D01*
X20788592Y-98054556D01*
X20790063Y-98050929D01*
X20825653Y-98007802D01*
X20877600Y-97984124D01*
X20935722Y-97980301D01*
X20989840Y-97996738D01*
X21029774Y-98033840D01*
X21033917Y-98041222D01*
X21046884Y-98086239D01*
X21053948Y-98150967D01*
X21055280Y-98224626D01*
X21237816Y-98224626D01*
X21237729Y-98197230D01*
X21236528Y-98153405D01*
X21228355Y-98044988D01*
X21211370Y-97963588D01*
X21183113Y-97903412D01*
X21141128Y-97858666D01*
X21100368Y-97832400D01*
X21043419Y-97813935D01*
X20972589Y-97807602D01*
X20900059Y-97812760D01*
X20838014Y-97828769D01*
X20805232Y-97847920D01*
X20771185Y-97878732D01*
X20771185Y-97489210D01*
X20587369Y-97489210D01*
X20587369Y-98625526D01*
G36*
X21640119Y-97808486D02*
G01*
X21615112Y-97815982D01*
X21607050Y-97832451D01*
X21606711Y-97839886D01*
X21605264Y-97860594D01*
X21595302Y-97863845D01*
X21568388Y-97849648D01*
X21552402Y-97839948D01*
X21501967Y-97819175D01*
X21441728Y-97808904D01*
X21378566Y-97808114D01*
X21319363Y-97815786D01*
X21270998Y-97830898D01*
X21240354Y-97852432D01*
X21234311Y-97879366D01*
X21237361Y-97886660D01*
X21259594Y-97916937D01*
X21294070Y-97954175D01*
X21300306Y-97960195D01*
X21333167Y-97987875D01*
X21361520Y-97996818D01*
X21401173Y-97990576D01*
X21417058Y-97986429D01*
X21466491Y-97976467D01*
X21501248Y-97980947D01*
X21530600Y-97996746D01*
X21557487Y-98017949D01*
X21577290Y-98044614D01*
X21591052Y-98081827D01*
X21599816Y-98134673D01*
X21604626Y-98208237D01*
X21606526Y-98307605D01*
X21606711Y-98367601D01*
X21606711Y-98625526D01*
X21773816Y-98625526D01*
X21773816Y-97806710D01*
X21690264Y-97806710D01*
X21640119Y-97808486D01*
G37*
X21640119Y-97808486D02*
X21615112Y-97815982D01*
X21607050Y-97832451D01*
X21606711Y-97839886D01*
X21605264Y-97860594D01*
X21595302Y-97863845D01*
X21568388Y-97849648D01*
X21552402Y-97839948D01*
X21501967Y-97819175D01*
X21441728Y-97808904D01*
X21378566Y-97808114D01*
X21319363Y-97815786D01*
X21270998Y-97830898D01*
X21240354Y-97852432D01*
X21234311Y-97879366D01*
X21237361Y-97886660D01*
X21259594Y-97916937D01*
X21294070Y-97954175D01*
X21300306Y-97960195D01*
X21333167Y-97987875D01*
X21361520Y-97996818D01*
X21401173Y-97990576D01*
X21417058Y-97986429D01*
X21466491Y-97976467D01*
X21501248Y-97980947D01*
X21530600Y-97996746D01*
X21557487Y-98017949D01*
X21577290Y-98044614D01*
X21591052Y-98081827D01*
X21599816Y-98134673D01*
X21604626Y-98208237D01*
X21606526Y-98307605D01*
X21606711Y-98367601D01*
X21606711Y-98625526D01*
X21773816Y-98625526D01*
X21773816Y-97806710D01*
X21690264Y-97806710D01*
X21640119Y-97808486D01*
G36*
X22159543Y-97813184D02*
G01*
X22080930Y-97834160D01*
X22021084Y-97872180D01*
X21978853Y-97921978D01*
X21965725Y-97943230D01*
X21956032Y-97965492D01*
X21949256Y-97993970D01*
X21944877Y-98033871D01*
X21942376Y-98090401D01*
X21941232Y-98168767D01*
X21940928Y-98274176D01*
X21940922Y-98302142D01*
X21940922Y-98625526D01*
X22021132Y-98625526D01*
X22072294Y-98621943D01*
X22110123Y-98612866D01*
X22119601Y-98607268D01*
X22145512Y-98597606D01*
X22171976Y-98607268D01*
X22215548Y-98619330D01*
X22278840Y-98624185D01*
X22348990Y-98622078D01*
X22413140Y-98613256D01*
X22450593Y-98601937D01*
X22523067Y-98555412D01*
X22568360Y-98490846D01*
X22588722Y-98405000D01*
X22588912Y-98402796D01*
X22587125Y-98364713D01*
X22425527Y-98364713D01*
X22411399Y-98408030D01*
X22388388Y-98432408D01*
X22342196Y-98450845D01*
X22281225Y-98458205D01*
X22219051Y-98454583D01*
X22169249Y-98440074D01*
X22155297Y-98430765D01*
X22130915Y-98387753D01*
X22124737Y-98338857D01*
X22124737Y-98274605D01*
X22217182Y-98274605D01*
X22305005Y-98281366D01*
X22371582Y-98300520D01*
X22412998Y-98330376D01*
X22425527Y-98364713D01*
X22587125Y-98364713D01*
X22584510Y-98309004D01*
X22553576Y-98234847D01*
X22495419Y-98178767D01*
X22487380Y-98173665D01*
X22452837Y-98157055D01*
X22410082Y-98146996D01*
X22350314Y-98142107D01*
X22279310Y-98140983D01*
X22124737Y-98140921D01*
X22124737Y-98076125D01*
X22131294Y-98025850D01*
X22148025Y-97992169D01*
X22149984Y-97990376D01*
X22187217Y-97975642D01*
X22243420Y-97969931D01*
X22305533Y-97972737D01*
X22360490Y-97983556D01*
X22393101Y-97999782D01*
X22410772Y-98012780D01*
X22429431Y-98015262D01*
X22455181Y-98004613D01*
X22494127Y-97978218D01*
X22552370Y-97933465D01*
X22557716Y-97929273D01*
X22554977Y-97913760D01*
X22532124Y-97887960D01*
X22497391Y-97859289D01*
X22459010Y-97835166D01*
X22446952Y-97829470D01*
X22402966Y-97818103D01*
X22338513Y-97809995D01*
X22266503Y-97806743D01*
X22263136Y-97806736D01*
X22159543Y-97813184D01*
G37*
X22159543Y-97813184D02*
X22080930Y-97834160D01*
X22021084Y-97872180D01*
X21978853Y-97921978D01*
X21965725Y-97943230D01*
X21956032Y-97965492D01*
X21949256Y-97993970D01*
X21944877Y-98033871D01*
X21942376Y-98090401D01*
X21941232Y-98168767D01*
X21940928Y-98274176D01*
X21940922Y-98302142D01*
X21940922Y-98625526D01*
X22021132Y-98625526D01*
X22072294Y-98621943D01*
X22110123Y-98612866D01*
X22119601Y-98607268D01*
X22145512Y-98597606D01*
X22171976Y-98607268D01*
X22215548Y-98619330D01*
X22278840Y-98624185D01*
X22348990Y-98622078D01*
X22413140Y-98613256D01*
X22450593Y-98601937D01*
X22523067Y-98555412D01*
X22568360Y-98490846D01*
X22588722Y-98405000D01*
X22588912Y-98402796D01*
X22587125Y-98364713D01*
X22425527Y-98364713D01*
X22411399Y-98408030D01*
X22388388Y-98432408D01*
X22342196Y-98450845D01*
X22281225Y-98458205D01*
X22219051Y-98454583D01*
X22169249Y-98440074D01*
X22155297Y-98430765D01*
X22130915Y-98387753D01*
X22124737Y-98338857D01*
X22124737Y-98274605D01*
X22217182Y-98274605D01*
X22305005Y-98281366D01*
X22371582Y-98300520D01*
X22412998Y-98330376D01*
X22425527Y-98364713D01*
X22587125Y-98364713D01*
X22584510Y-98309004D01*
X22553576Y-98234847D01*
X22495419Y-98178767D01*
X22487380Y-98173665D01*
X22452837Y-98157055D01*
X22410082Y-98146996D01*
X22350314Y-98142107D01*
X22279310Y-98140983D01*
X22124737Y-98140921D01*
X22124737Y-98076125D01*
X22131294Y-98025850D01*
X22148025Y-97992169D01*
X22149984Y-97990376D01*
X22187217Y-97975642D01*
X22243420Y-97969931D01*
X22305533Y-97972737D01*
X22360490Y-97983556D01*
X22393101Y-97999782D01*
X22410772Y-98012780D01*
X22429431Y-98015262D01*
X22455181Y-98004613D01*
X22494127Y-97978218D01*
X22552370Y-97933465D01*
X22557716Y-97929273D01*
X22554977Y-97913760D01*
X22532124Y-97887960D01*
X22497391Y-97859289D01*
X22459010Y-97835166D01*
X22446952Y-97829470D01*
X22402966Y-97818103D01*
X22338513Y-97809995D01*
X22266503Y-97806743D01*
X22263136Y-97806736D01*
X22159543Y-97813184D01*
G36*
X22856640Y-96567468D02*
G01*
X22821408Y-96584874D01*
X22777960Y-96615206D01*
X22746294Y-96648283D01*
X22724606Y-96689817D01*
X22711097Y-96745522D01*
X22703962Y-96821111D01*
X22701400Y-96922296D01*
X22701250Y-96965797D01*
X22701688Y-97061135D01*
X22703504Y-97129271D01*
X22707455Y-97176418D01*
X22714298Y-97208790D01*
X22724789Y-97232600D01*
X22735704Y-97248843D01*
X22805381Y-97317952D01*
X22887434Y-97359521D01*
X22975950Y-97372023D01*
X23065019Y-97353934D01*
X23093237Y-97341142D01*
X23160790Y-97305931D01*
X23160790Y-97857700D01*
X23111488Y-97832205D01*
X23046527Y-97812480D01*
X22966680Y-97807427D01*
X22886948Y-97816756D01*
X22826735Y-97837714D01*
X22776792Y-97877627D01*
X22734119Y-97934741D01*
X22730910Y-97940605D01*
X22717378Y-97968227D01*
X22707495Y-97996068D01*
X22700691Y-98029794D01*
X22696399Y-98075071D01*
X22694049Y-98137562D01*
X22693072Y-98222935D01*
X22692895Y-98319010D01*
X22692895Y-98625526D01*
X22876711Y-98625526D01*
X22876711Y-98060339D01*
X22928125Y-98017077D01*
X22981534Y-97982472D01*
X23032112Y-97976180D01*
X23082970Y-97992372D01*
X23110075Y-98008227D01*
X23130249Y-98030810D01*
X23144597Y-98064940D01*
X23154224Y-98115434D01*
X23160237Y-98187111D01*
X23163740Y-98284788D01*
X23164974Y-98349802D01*
X23169145Y-98617171D01*
X23256875Y-98622222D01*
X23344606Y-98627273D01*
X23344606Y-96968101D01*
X23160790Y-96968101D01*
X23156104Y-97060600D01*
X23140312Y-97124809D01*
X23110817Y-97164759D01*
X23065020Y-97184480D01*
X23018750Y-97188421D01*
X22966372Y-97183892D01*
X22931610Y-97166069D01*
X22909872Y-97142519D01*
X22892760Y-97117189D01*
X22882573Y-97088969D01*
X22878040Y-97049431D01*
X22877891Y-96990142D01*
X22879416Y-96940498D01*
X22882919Y-96865710D01*
X22888133Y-96816611D01*
X22896913Y-96785467D01*
X22911114Y-96764545D01*
X22924516Y-96752452D01*
X22980513Y-96726081D01*
X23046789Y-96721822D01*
X23084844Y-96730906D01*
X23122523Y-96763196D01*
X23147481Y-96826006D01*
X23159578Y-96918894D01*
X23160790Y-96968101D01*
X23344606Y-96968101D01*
X23344606Y-96553421D01*
X23252698Y-96553421D01*
X23197517Y-96555603D01*
X23169048Y-96563351D01*
X23160794Y-96578468D01*
X23160790Y-96578916D01*
X23156960Y-96593720D01*
X23140067Y-96592039D01*
X23106481Y-96575772D01*
X23028222Y-96550887D01*
X22940173Y-96548271D01*
X22856640Y-96567468D01*
G37*
X22856640Y-96567468D02*
X22821408Y-96584874D01*
X22777960Y-96615206D01*
X22746294Y-96648283D01*
X22724606Y-96689817D01*
X22711097Y-96745522D01*
X22703962Y-96821111D01*
X22701400Y-96922296D01*
X22701250Y-96965797D01*
X22701688Y-97061135D01*
X22703504Y-97129271D01*
X22707455Y-97176418D01*
X22714298Y-97208790D01*
X22724789Y-97232600D01*
X22735704Y-97248843D01*
X22805381Y-97317952D01*
X22887434Y-97359521D01*
X22975950Y-97372023D01*
X23065019Y-97353934D01*
X23093237Y-97341142D01*
X23160790Y-97305931D01*
X23160790Y-97857700D01*
X23111488Y-97832205D01*
X23046527Y-97812480D01*
X22966680Y-97807427D01*
X22886948Y-97816756D01*
X22826735Y-97837714D01*
X22776792Y-97877627D01*
X22734119Y-97934741D01*
X22730910Y-97940605D01*
X22717378Y-97968227D01*
X22707495Y-97996068D01*
X22700691Y-98029794D01*
X22696399Y-98075071D01*
X22694049Y-98137562D01*
X22693072Y-98222935D01*
X22692895Y-98319010D01*
X22692895Y-98625526D01*
X22876711Y-98625526D01*
X22876711Y-98060339D01*
X22928125Y-98017077D01*
X22981534Y-97982472D01*
X23032112Y-97976180D01*
X23082970Y-97992372D01*
X23110075Y-98008227D01*
X23130249Y-98030810D01*
X23144597Y-98064940D01*
X23154224Y-98115434D01*
X23160237Y-98187111D01*
X23163740Y-98284788D01*
X23164974Y-98349802D01*
X23169145Y-98617171D01*
X23256875Y-98622222D01*
X23344606Y-98627273D01*
X23344606Y-96968101D01*
X23160790Y-96968101D01*
X23156104Y-97060600D01*
X23140312Y-97124809D01*
X23110817Y-97164759D01*
X23065020Y-97184480D01*
X23018750Y-97188421D01*
X22966372Y-97183892D01*
X22931610Y-97166069D01*
X22909872Y-97142519D01*
X22892760Y-97117189D01*
X22882573Y-97088969D01*
X22878040Y-97049431D01*
X22877891Y-96990142D01*
X22879416Y-96940498D01*
X22882919Y-96865710D01*
X22888133Y-96816611D01*
X22896913Y-96785467D01*
X22911114Y-96764545D01*
X22924516Y-96752452D01*
X22980513Y-96726081D01*
X23046789Y-96721822D01*
X23084844Y-96730906D01*
X23122523Y-96763196D01*
X23147481Y-96826006D01*
X23159578Y-96918894D01*
X23160790Y-96968101D01*
X23344606Y-96968101D01*
X23344606Y-96553421D01*
X23252698Y-96553421D01*
X23197517Y-96555603D01*
X23169048Y-96563351D01*
X23160794Y-96578468D01*
X23160790Y-96578916D01*
X23156960Y-96593720D01*
X23140067Y-96592039D01*
X23106481Y-96575772D01*
X23028222Y-96550887D01*
X22940173Y-96548271D01*
X22856640Y-96567468D01*
D12*
%TO.C,J9*%
X30020000Y-82670000D02*
X30020000Y-85330000D01*
X12180000Y-82670000D02*
X30020000Y-82670000D01*
X12180000Y-85330000D02*
X30020000Y-85330000D01*
X12180000Y-82670000D02*
X12180000Y-85330000D01*
X10910000Y-82670000D02*
X9580000Y-82670000D01*
X9580000Y-82670000D02*
X9580000Y-84000000D01*
%TO.C,J11*%
X27020000Y-28670000D02*
X27020000Y-31330000D01*
X9180000Y-28670000D02*
X27020000Y-28670000D01*
X9180000Y-31330000D02*
X27020000Y-31330000D01*
X9180000Y-28670000D02*
X9180000Y-31330000D01*
X7910000Y-28670000D02*
X6580000Y-28670000D01*
X6580000Y-28670000D02*
X6580000Y-30000000D01*
%TO.C,C21*%
X26238748Y-9535000D02*
X26761252Y-9535000D01*
X26238748Y-8065000D02*
X26761252Y-8065000D01*
%TO.C,C38*%
X26408748Y-103605000D02*
X26931252Y-103605000D01*
X26408748Y-102135000D02*
X26931252Y-102135000D01*
%TO.C,C39*%
X12206248Y-35025000D02*
X12728752Y-35025000D01*
X12206248Y-33555000D02*
X12728752Y-33555000D01*
%TO.C,C40*%
X20058748Y-70585000D02*
X20581252Y-70585000D01*
X20058748Y-69115000D02*
X20581252Y-69115000D01*
%TO.C,D3*%
X12400000Y-7850000D02*
X10400000Y-7850000D01*
X10400000Y-7850000D02*
X10400000Y-3950000D01*
X12400000Y-7850000D02*
X12400000Y-3950000D01*
%TO.C,D15*%
X11950000Y-105300000D02*
X11950000Y-103300000D01*
X11950000Y-103300000D02*
X15850000Y-103300000D01*
X11950000Y-105300000D02*
X15850000Y-105300000D01*
%TO.C,D16*%
X14600000Y-49300000D02*
X14600000Y-47300000D01*
X14600000Y-47300000D02*
X18500000Y-47300000D01*
X14600000Y-49300000D02*
X18500000Y-49300000D01*
%TO.C,U4*%
X13980000Y-5080000D02*
X13980000Y-3130000D01*
X13980000Y-5080000D02*
X13980000Y-7030000D01*
X22850000Y-5080000D02*
X22850000Y-3130000D01*
X22850000Y-5080000D02*
X22850000Y-8530000D01*
%TO.C,R7*%
X14427064Y-61410000D02*
X12972936Y-61410000D01*
X14427064Y-59590000D02*
X12972936Y-59590000D01*
%TO.C,R8*%
X25772936Y-6810000D02*
X27227064Y-6810000D01*
X25772936Y-4990000D02*
X27227064Y-4990000D01*
%TO.C,R13*%
X9172936Y-10090000D02*
X10627064Y-10090000D01*
X9172936Y-11910000D02*
X10627064Y-11910000D01*
%TO.C,R15*%
X10887064Y-15600000D02*
X9432936Y-15600000D01*
X10887064Y-17420000D02*
X9432936Y-17420000D01*
%TO.C,R16*%
X13610000Y-21672936D02*
X13610000Y-23127064D01*
X11790000Y-21672936D02*
X11790000Y-23127064D01*
%TO.C,R17*%
X4720000Y-73117064D02*
X4720000Y-71662936D01*
X2900000Y-73117064D02*
X2900000Y-71662936D01*
%TO.C,R20*%
X12427064Y-82190000D02*
X10972936Y-82190000D01*
X12427064Y-80370000D02*
X10972936Y-80370000D01*
%TO.C,R26*%
X9617064Y-70845000D02*
X8162936Y-70845000D01*
X9617064Y-72665000D02*
X8162936Y-72665000D01*
%TO.C,R29*%
X25672936Y-96490000D02*
X27127064Y-96490000D01*
X25672936Y-98310000D02*
X27127064Y-98310000D01*
%TO.C,R56*%
X12975000Y-68037064D02*
X12975000Y-66582936D01*
X11155000Y-68037064D02*
X11155000Y-66582936D01*
%TO.C,R57*%
X5772936Y-66020000D02*
X7227064Y-66020000D01*
X5772936Y-67840000D02*
X7227064Y-67840000D01*
%TO.C,R59*%
X25672936Y-3450000D02*
X27127064Y-3450000D01*
X25672936Y-1630000D02*
X27127064Y-1630000D01*
%TO.C,R60*%
X27290000Y-25227064D02*
X27290000Y-23772936D01*
X29110000Y-25227064D02*
X29110000Y-23772936D01*
%TO.C,R61*%
X26577936Y-16235000D02*
X28032064Y-16235000D01*
X26577936Y-18055000D02*
X28032064Y-18055000D01*
%TO.C,R62*%
X15967064Y-25760000D02*
X14512936Y-25760000D01*
X15967064Y-27580000D02*
X14512936Y-27580000D01*
%TO.C,R63*%
X25672936Y-66310000D02*
X27127064Y-66310000D01*
X25672936Y-64490000D02*
X27127064Y-64490000D01*
%TO.C,R64*%
X7390000Y-75202936D02*
X7390000Y-76657064D01*
X9210000Y-75202936D02*
X9210000Y-76657064D01*
%TO.C,R65*%
X28850000Y-78012936D02*
X28850000Y-79467064D01*
X27030000Y-78012936D02*
X27030000Y-79467064D01*
%TO.C,R66*%
X8772936Y-43610000D02*
X10227064Y-43610000D01*
X8772936Y-41790000D02*
X10227064Y-41790000D01*
%TO.C,R67*%
X19592936Y-41550000D02*
X21047064Y-41550000D01*
X19592936Y-39730000D02*
X21047064Y-39730000D01*
%TO.C,R68*%
X6892936Y-33380000D02*
X8347064Y-33380000D01*
X6892936Y-35200000D02*
X8347064Y-35200000D01*
%TO.C,R69*%
X22500000Y-35102936D02*
X22500000Y-36557064D01*
X20680000Y-35102936D02*
X20680000Y-36557064D01*
%TO.C,J9*%
D13*
X8032380Y-83666666D02*
X8746666Y-83666666D01*
X8889523Y-83619047D01*
X8984761Y-83523809D01*
X9032380Y-83380952D01*
X9032380Y-83285714D01*
X9032380Y-84190476D02*
X9032380Y-84380952D01*
X8984761Y-84476190D01*
X8937142Y-84523809D01*
X8794285Y-84619047D01*
X8603809Y-84666666D01*
X8222857Y-84666666D01*
X8127619Y-84619047D01*
X8080000Y-84571428D01*
X8032380Y-84476190D01*
X8032380Y-84285714D01*
X8080000Y-84190476D01*
X8127619Y-84142857D01*
X8222857Y-84095238D01*
X8460952Y-84095238D01*
X8556190Y-84142857D01*
X8603809Y-84190476D01*
X8651428Y-84285714D01*
X8651428Y-84476190D01*
X8603809Y-84571428D01*
X8556190Y-84619047D01*
X8460952Y-84666666D01*
%TO.C,J11*%
X5032380Y-29190476D02*
X5746666Y-29190476D01*
X5889523Y-29142857D01*
X5984761Y-29047619D01*
X6032380Y-28904761D01*
X6032380Y-28809523D01*
X6032380Y-30190476D02*
X6032380Y-29619047D01*
X6032380Y-29904761D02*
X5032380Y-29904761D01*
X5175238Y-29809523D01*
X5270476Y-29714285D01*
X5318095Y-29619047D01*
X6032380Y-31142857D02*
X6032380Y-30571428D01*
X6032380Y-30857142D02*
X5032380Y-30857142D01*
X5175238Y-30761904D01*
X5270476Y-30666666D01*
X5318095Y-30571428D01*
%TO.C,C21*%
X27142857Y-10837142D02*
X27190476Y-10884761D01*
X27333333Y-10932380D01*
X27428571Y-10932380D01*
X27571428Y-10884761D01*
X27666666Y-10789523D01*
X27714285Y-10694285D01*
X27761904Y-10503809D01*
X27761904Y-10360952D01*
X27714285Y-10170476D01*
X27666666Y-10075238D01*
X27571428Y-9980000D01*
X27428571Y-9932380D01*
X27333333Y-9932380D01*
X27190476Y-9980000D01*
X27142857Y-10027619D01*
X26761904Y-10027619D02*
X26714285Y-9980000D01*
X26619047Y-9932380D01*
X26380952Y-9932380D01*
X26285714Y-9980000D01*
X26238095Y-10027619D01*
X26190476Y-10122857D01*
X26190476Y-10218095D01*
X26238095Y-10360952D01*
X26809523Y-10932380D01*
X26190476Y-10932380D01*
X25238095Y-10932380D02*
X25809523Y-10932380D01*
X25523809Y-10932380D02*
X25523809Y-9932380D01*
X25619047Y-10075238D01*
X25714285Y-10170476D01*
X25809523Y-10218095D01*
%TO.C,C38*%
X27312857Y-104907142D02*
X27360476Y-104954761D01*
X27503333Y-105002380D01*
X27598571Y-105002380D01*
X27741428Y-104954761D01*
X27836666Y-104859523D01*
X27884285Y-104764285D01*
X27931904Y-104573809D01*
X27931904Y-104430952D01*
X27884285Y-104240476D01*
X27836666Y-104145238D01*
X27741428Y-104050000D01*
X27598571Y-104002380D01*
X27503333Y-104002380D01*
X27360476Y-104050000D01*
X27312857Y-104097619D01*
X26979523Y-104002380D02*
X26360476Y-104002380D01*
X26693809Y-104383333D01*
X26550952Y-104383333D01*
X26455714Y-104430952D01*
X26408095Y-104478571D01*
X26360476Y-104573809D01*
X26360476Y-104811904D01*
X26408095Y-104907142D01*
X26455714Y-104954761D01*
X26550952Y-105002380D01*
X26836666Y-105002380D01*
X26931904Y-104954761D01*
X26979523Y-104907142D01*
X25789047Y-104430952D02*
X25884285Y-104383333D01*
X25931904Y-104335714D01*
X25979523Y-104240476D01*
X25979523Y-104192857D01*
X25931904Y-104097619D01*
X25884285Y-104050000D01*
X25789047Y-104002380D01*
X25598571Y-104002380D01*
X25503333Y-104050000D01*
X25455714Y-104097619D01*
X25408095Y-104192857D01*
X25408095Y-104240476D01*
X25455714Y-104335714D01*
X25503333Y-104383333D01*
X25598571Y-104430952D01*
X25789047Y-104430952D01*
X25884285Y-104478571D01*
X25931904Y-104526190D01*
X25979523Y-104621428D01*
X25979523Y-104811904D01*
X25931904Y-104907142D01*
X25884285Y-104954761D01*
X25789047Y-105002380D01*
X25598571Y-105002380D01*
X25503333Y-104954761D01*
X25455714Y-104907142D01*
X25408095Y-104811904D01*
X25408095Y-104621428D01*
X25455714Y-104526190D01*
X25503333Y-104478571D01*
X25598571Y-104430952D01*
%TO.C,C39*%
X13110357Y-36327142D02*
X13157976Y-36374761D01*
X13300833Y-36422380D01*
X13396071Y-36422380D01*
X13538928Y-36374761D01*
X13634166Y-36279523D01*
X13681785Y-36184285D01*
X13729404Y-35993809D01*
X13729404Y-35850952D01*
X13681785Y-35660476D01*
X13634166Y-35565238D01*
X13538928Y-35470000D01*
X13396071Y-35422380D01*
X13300833Y-35422380D01*
X13157976Y-35470000D01*
X13110357Y-35517619D01*
X12777023Y-35422380D02*
X12157976Y-35422380D01*
X12491309Y-35803333D01*
X12348452Y-35803333D01*
X12253214Y-35850952D01*
X12205595Y-35898571D01*
X12157976Y-35993809D01*
X12157976Y-36231904D01*
X12205595Y-36327142D01*
X12253214Y-36374761D01*
X12348452Y-36422380D01*
X12634166Y-36422380D01*
X12729404Y-36374761D01*
X12777023Y-36327142D01*
X11681785Y-36422380D02*
X11491309Y-36422380D01*
X11396071Y-36374761D01*
X11348452Y-36327142D01*
X11253214Y-36184285D01*
X11205595Y-35993809D01*
X11205595Y-35612857D01*
X11253214Y-35517619D01*
X11300833Y-35470000D01*
X11396071Y-35422380D01*
X11586547Y-35422380D01*
X11681785Y-35470000D01*
X11729404Y-35517619D01*
X11777023Y-35612857D01*
X11777023Y-35850952D01*
X11729404Y-35946190D01*
X11681785Y-35993809D01*
X11586547Y-36041428D01*
X11396071Y-36041428D01*
X11300833Y-35993809D01*
X11253214Y-35946190D01*
X11205595Y-35850952D01*
%TO.C,C40*%
X20962857Y-71887142D02*
X21010476Y-71934761D01*
X21153333Y-71982380D01*
X21248571Y-71982380D01*
X21391428Y-71934761D01*
X21486666Y-71839523D01*
X21534285Y-71744285D01*
X21581904Y-71553809D01*
X21581904Y-71410952D01*
X21534285Y-71220476D01*
X21486666Y-71125238D01*
X21391428Y-71030000D01*
X21248571Y-70982380D01*
X21153333Y-70982380D01*
X21010476Y-71030000D01*
X20962857Y-71077619D01*
X20105714Y-71315714D02*
X20105714Y-71982380D01*
X20343809Y-70934761D02*
X20581904Y-71649047D01*
X19962857Y-71649047D01*
X19391428Y-70982380D02*
X19296190Y-70982380D01*
X19200952Y-71030000D01*
X19153333Y-71077619D01*
X19105714Y-71172857D01*
X19058095Y-71363333D01*
X19058095Y-71601428D01*
X19105714Y-71791904D01*
X19153333Y-71887142D01*
X19200952Y-71934761D01*
X19296190Y-71982380D01*
X19391428Y-71982380D01*
X19486666Y-71934761D01*
X19534285Y-71887142D01*
X19581904Y-71791904D01*
X19629523Y-71601428D01*
X19629523Y-71363333D01*
X19581904Y-71172857D01*
X19534285Y-71077619D01*
X19486666Y-71030000D01*
X19391428Y-70982380D01*
%TO.C,D3*%
X13852380Y-4861904D02*
X12852380Y-4861904D01*
X12852380Y-5100000D01*
X12900000Y-5242857D01*
X12995238Y-5338095D01*
X13090476Y-5385714D01*
X13280952Y-5433333D01*
X13423809Y-5433333D01*
X13614285Y-5385714D01*
X13709523Y-5338095D01*
X13804761Y-5242857D01*
X13852380Y-5100000D01*
X13852380Y-4861904D01*
X12852380Y-5766666D02*
X12852380Y-6385714D01*
X13233333Y-6052380D01*
X13233333Y-6195238D01*
X13280952Y-6290476D01*
X13328571Y-6338095D01*
X13423809Y-6385714D01*
X13661904Y-6385714D01*
X13757142Y-6338095D01*
X13804761Y-6290476D01*
X13852380Y-6195238D01*
X13852380Y-5909523D01*
X13804761Y-5814285D01*
X13757142Y-5766666D01*
%TO.C,D15*%
X15414285Y-102052380D02*
X15414285Y-101052380D01*
X15176190Y-101052380D01*
X15033333Y-101100000D01*
X14938095Y-101195238D01*
X14890476Y-101290476D01*
X14842857Y-101480952D01*
X14842857Y-101623809D01*
X14890476Y-101814285D01*
X14938095Y-101909523D01*
X15033333Y-102004761D01*
X15176190Y-102052380D01*
X15414285Y-102052380D01*
X13890476Y-102052380D02*
X14461904Y-102052380D01*
X14176190Y-102052380D02*
X14176190Y-101052380D01*
X14271428Y-101195238D01*
X14366666Y-101290476D01*
X14461904Y-101338095D01*
X12985714Y-101052380D02*
X13461904Y-101052380D01*
X13509523Y-101528571D01*
X13461904Y-101480952D01*
X13366666Y-101433333D01*
X13128571Y-101433333D01*
X13033333Y-101480952D01*
X12985714Y-101528571D01*
X12938095Y-101623809D01*
X12938095Y-101861904D01*
X12985714Y-101957142D01*
X13033333Y-102004761D01*
X13128571Y-102052380D01*
X13366666Y-102052380D01*
X13461904Y-102004761D01*
X13509523Y-101957142D01*
%TO.C,D16*%
X18064285Y-50752380D02*
X18064285Y-49752380D01*
X17826190Y-49752380D01*
X17683333Y-49800000D01*
X17588095Y-49895238D01*
X17540476Y-49990476D01*
X17492857Y-50180952D01*
X17492857Y-50323809D01*
X17540476Y-50514285D01*
X17588095Y-50609523D01*
X17683333Y-50704761D01*
X17826190Y-50752380D01*
X18064285Y-50752380D01*
X16540476Y-50752380D02*
X17111904Y-50752380D01*
X16826190Y-50752380D02*
X16826190Y-49752380D01*
X16921428Y-49895238D01*
X17016666Y-49990476D01*
X17111904Y-50038095D01*
X15683333Y-49752380D02*
X15873809Y-49752380D01*
X15969047Y-49800000D01*
X16016666Y-49847619D01*
X16111904Y-49990476D01*
X16159523Y-50180952D01*
X16159523Y-50561904D01*
X16111904Y-50657142D01*
X16064285Y-50704761D01*
X15969047Y-50752380D01*
X15778571Y-50752380D01*
X15683333Y-50704761D01*
X15635714Y-50657142D01*
X15588095Y-50561904D01*
X15588095Y-50323809D01*
X15635714Y-50228571D01*
X15683333Y-50180952D01*
X15778571Y-50133333D01*
X15969047Y-50133333D01*
X16064285Y-50180952D01*
X16111904Y-50228571D01*
X16159523Y-50323809D01*
%TO.C,U4*%
X23147380Y-4318095D02*
X23956904Y-4318095D01*
X24052142Y-4365714D01*
X24099761Y-4413333D01*
X24147380Y-4508571D01*
X24147380Y-4699047D01*
X24099761Y-4794285D01*
X24052142Y-4841904D01*
X23956904Y-4889523D01*
X23147380Y-4889523D01*
X23480714Y-5794285D02*
X24147380Y-5794285D01*
X23099761Y-5556190D02*
X23814047Y-5318095D01*
X23814047Y-5937142D01*
%TO.C,R7*%
X13866666Y-59132380D02*
X14200000Y-58656190D01*
X14438095Y-59132380D02*
X14438095Y-58132380D01*
X14057142Y-58132380D01*
X13961904Y-58180000D01*
X13914285Y-58227619D01*
X13866666Y-58322857D01*
X13866666Y-58465714D01*
X13914285Y-58560952D01*
X13961904Y-58608571D01*
X14057142Y-58656190D01*
X14438095Y-58656190D01*
X13533333Y-58132380D02*
X12866666Y-58132380D01*
X13295238Y-59132380D01*
%TO.C,R8*%
X26666666Y-8172380D02*
X27000000Y-7696190D01*
X27238095Y-8172380D02*
X27238095Y-7172380D01*
X26857142Y-7172380D01*
X26761904Y-7220000D01*
X26714285Y-7267619D01*
X26666666Y-7362857D01*
X26666666Y-7505714D01*
X26714285Y-7600952D01*
X26761904Y-7648571D01*
X26857142Y-7696190D01*
X27238095Y-7696190D01*
X26095238Y-7600952D02*
X26190476Y-7553333D01*
X26238095Y-7505714D01*
X26285714Y-7410476D01*
X26285714Y-7362857D01*
X26238095Y-7267619D01*
X26190476Y-7220000D01*
X26095238Y-7172380D01*
X25904761Y-7172380D01*
X25809523Y-7220000D01*
X25761904Y-7267619D01*
X25714285Y-7362857D01*
X25714285Y-7410476D01*
X25761904Y-7505714D01*
X25809523Y-7553333D01*
X25904761Y-7600952D01*
X26095238Y-7600952D01*
X26190476Y-7648571D01*
X26238095Y-7696190D01*
X26285714Y-7791428D01*
X26285714Y-7981904D01*
X26238095Y-8077142D01*
X26190476Y-8124761D01*
X26095238Y-8172380D01*
X25904761Y-8172380D01*
X25809523Y-8124761D01*
X25761904Y-8077142D01*
X25714285Y-7981904D01*
X25714285Y-7791428D01*
X25761904Y-7696190D01*
X25809523Y-7648571D01*
X25904761Y-7600952D01*
%TO.C,R13*%
X10542857Y-13272380D02*
X10876190Y-12796190D01*
X11114285Y-13272380D02*
X11114285Y-12272380D01*
X10733333Y-12272380D01*
X10638095Y-12320000D01*
X10590476Y-12367619D01*
X10542857Y-12462857D01*
X10542857Y-12605714D01*
X10590476Y-12700952D01*
X10638095Y-12748571D01*
X10733333Y-12796190D01*
X11114285Y-12796190D01*
X9590476Y-13272380D02*
X10161904Y-13272380D01*
X9876190Y-13272380D02*
X9876190Y-12272380D01*
X9971428Y-12415238D01*
X10066666Y-12510476D01*
X10161904Y-12558095D01*
X9257142Y-12272380D02*
X8638095Y-12272380D01*
X8971428Y-12653333D01*
X8828571Y-12653333D01*
X8733333Y-12700952D01*
X8685714Y-12748571D01*
X8638095Y-12843809D01*
X8638095Y-13081904D01*
X8685714Y-13177142D01*
X8733333Y-13224761D01*
X8828571Y-13272380D01*
X9114285Y-13272380D01*
X9209523Y-13224761D01*
X9257142Y-13177142D01*
%TO.C,R15*%
X10802857Y-15142380D02*
X11136190Y-14666190D01*
X11374285Y-15142380D02*
X11374285Y-14142380D01*
X10993333Y-14142380D01*
X10898095Y-14190000D01*
X10850476Y-14237619D01*
X10802857Y-14332857D01*
X10802857Y-14475714D01*
X10850476Y-14570952D01*
X10898095Y-14618571D01*
X10993333Y-14666190D01*
X11374285Y-14666190D01*
X9850476Y-15142380D02*
X10421904Y-15142380D01*
X10136190Y-15142380D02*
X10136190Y-14142380D01*
X10231428Y-14285238D01*
X10326666Y-14380476D01*
X10421904Y-14428095D01*
X8945714Y-14142380D02*
X9421904Y-14142380D01*
X9469523Y-14618571D01*
X9421904Y-14570952D01*
X9326666Y-14523333D01*
X9088571Y-14523333D01*
X8993333Y-14570952D01*
X8945714Y-14618571D01*
X8898095Y-14713809D01*
X8898095Y-14951904D01*
X8945714Y-15047142D01*
X8993333Y-15094761D01*
X9088571Y-15142380D01*
X9326666Y-15142380D01*
X9421904Y-15094761D01*
X9469523Y-15047142D01*
%TO.C,R16*%
X11332380Y-21757142D02*
X10856190Y-21423809D01*
X11332380Y-21185714D02*
X10332380Y-21185714D01*
X10332380Y-21566666D01*
X10380000Y-21661904D01*
X10427619Y-21709523D01*
X10522857Y-21757142D01*
X10665714Y-21757142D01*
X10760952Y-21709523D01*
X10808571Y-21661904D01*
X10856190Y-21566666D01*
X10856190Y-21185714D01*
X11332380Y-22709523D02*
X11332380Y-22138095D01*
X11332380Y-22423809D02*
X10332380Y-22423809D01*
X10475238Y-22328571D01*
X10570476Y-22233333D01*
X10618095Y-22138095D01*
X10332380Y-23566666D02*
X10332380Y-23376190D01*
X10380000Y-23280952D01*
X10427619Y-23233333D01*
X10570476Y-23138095D01*
X10760952Y-23090476D01*
X11141904Y-23090476D01*
X11237142Y-23138095D01*
X11284761Y-23185714D01*
X11332380Y-23280952D01*
X11332380Y-23471428D01*
X11284761Y-23566666D01*
X11237142Y-23614285D01*
X11141904Y-23661904D01*
X10903809Y-23661904D01*
X10808571Y-23614285D01*
X10760952Y-23566666D01*
X10713333Y-23471428D01*
X10713333Y-23280952D01*
X10760952Y-23185714D01*
X10808571Y-23138095D01*
X10903809Y-23090476D01*
%TO.C,R17*%
X6082380Y-71747142D02*
X5606190Y-71413809D01*
X6082380Y-71175714D02*
X5082380Y-71175714D01*
X5082380Y-71556666D01*
X5130000Y-71651904D01*
X5177619Y-71699523D01*
X5272857Y-71747142D01*
X5415714Y-71747142D01*
X5510952Y-71699523D01*
X5558571Y-71651904D01*
X5606190Y-71556666D01*
X5606190Y-71175714D01*
X6082380Y-72699523D02*
X6082380Y-72128095D01*
X6082380Y-72413809D02*
X5082380Y-72413809D01*
X5225238Y-72318571D01*
X5320476Y-72223333D01*
X5368095Y-72128095D01*
X5082380Y-73032857D02*
X5082380Y-73699523D01*
X6082380Y-73270952D01*
%TO.C,R20*%
X12342857Y-79912380D02*
X12676190Y-79436190D01*
X12914285Y-79912380D02*
X12914285Y-78912380D01*
X12533333Y-78912380D01*
X12438095Y-78960000D01*
X12390476Y-79007619D01*
X12342857Y-79102857D01*
X12342857Y-79245714D01*
X12390476Y-79340952D01*
X12438095Y-79388571D01*
X12533333Y-79436190D01*
X12914285Y-79436190D01*
X11961904Y-79007619D02*
X11914285Y-78960000D01*
X11819047Y-78912380D01*
X11580952Y-78912380D01*
X11485714Y-78960000D01*
X11438095Y-79007619D01*
X11390476Y-79102857D01*
X11390476Y-79198095D01*
X11438095Y-79340952D01*
X12009523Y-79912380D01*
X11390476Y-79912380D01*
X10771428Y-78912380D02*
X10676190Y-78912380D01*
X10580952Y-78960000D01*
X10533333Y-79007619D01*
X10485714Y-79102857D01*
X10438095Y-79293333D01*
X10438095Y-79531428D01*
X10485714Y-79721904D01*
X10533333Y-79817142D01*
X10580952Y-79864761D01*
X10676190Y-79912380D01*
X10771428Y-79912380D01*
X10866666Y-79864761D01*
X10914285Y-79817142D01*
X10961904Y-79721904D01*
X11009523Y-79531428D01*
X11009523Y-79293333D01*
X10961904Y-79102857D01*
X10914285Y-79007619D01*
X10866666Y-78960000D01*
X10771428Y-78912380D01*
%TO.C,R26*%
X9532857Y-70387380D02*
X9866190Y-69911190D01*
X10104285Y-70387380D02*
X10104285Y-69387380D01*
X9723333Y-69387380D01*
X9628095Y-69435000D01*
X9580476Y-69482619D01*
X9532857Y-69577857D01*
X9532857Y-69720714D01*
X9580476Y-69815952D01*
X9628095Y-69863571D01*
X9723333Y-69911190D01*
X10104285Y-69911190D01*
X9151904Y-69482619D02*
X9104285Y-69435000D01*
X9009047Y-69387380D01*
X8770952Y-69387380D01*
X8675714Y-69435000D01*
X8628095Y-69482619D01*
X8580476Y-69577857D01*
X8580476Y-69673095D01*
X8628095Y-69815952D01*
X9199523Y-70387380D01*
X8580476Y-70387380D01*
X7723333Y-69387380D02*
X7913809Y-69387380D01*
X8009047Y-69435000D01*
X8056666Y-69482619D01*
X8151904Y-69625476D01*
X8199523Y-69815952D01*
X8199523Y-70196904D01*
X8151904Y-70292142D01*
X8104285Y-70339761D01*
X8009047Y-70387380D01*
X7818571Y-70387380D01*
X7723333Y-70339761D01*
X7675714Y-70292142D01*
X7628095Y-70196904D01*
X7628095Y-69958809D01*
X7675714Y-69863571D01*
X7723333Y-69815952D01*
X7818571Y-69768333D01*
X8009047Y-69768333D01*
X8104285Y-69815952D01*
X8151904Y-69863571D01*
X8199523Y-69958809D01*
%TO.C,R29*%
X27042857Y-99672380D02*
X27376190Y-99196190D01*
X27614285Y-99672380D02*
X27614285Y-98672380D01*
X27233333Y-98672380D01*
X27138095Y-98720000D01*
X27090476Y-98767619D01*
X27042857Y-98862857D01*
X27042857Y-99005714D01*
X27090476Y-99100952D01*
X27138095Y-99148571D01*
X27233333Y-99196190D01*
X27614285Y-99196190D01*
X26661904Y-98767619D02*
X26614285Y-98720000D01*
X26519047Y-98672380D01*
X26280952Y-98672380D01*
X26185714Y-98720000D01*
X26138095Y-98767619D01*
X26090476Y-98862857D01*
X26090476Y-98958095D01*
X26138095Y-99100952D01*
X26709523Y-99672380D01*
X26090476Y-99672380D01*
X25614285Y-99672380D02*
X25423809Y-99672380D01*
X25328571Y-99624761D01*
X25280952Y-99577142D01*
X25185714Y-99434285D01*
X25138095Y-99243809D01*
X25138095Y-98862857D01*
X25185714Y-98767619D01*
X25233333Y-98720000D01*
X25328571Y-98672380D01*
X25519047Y-98672380D01*
X25614285Y-98720000D01*
X25661904Y-98767619D01*
X25709523Y-98862857D01*
X25709523Y-99100952D01*
X25661904Y-99196190D01*
X25614285Y-99243809D01*
X25519047Y-99291428D01*
X25328571Y-99291428D01*
X25233333Y-99243809D01*
X25185714Y-99196190D01*
X25138095Y-99100952D01*
%TO.C,R56*%
X14337380Y-66667142D02*
X13861190Y-66333809D01*
X14337380Y-66095714D02*
X13337380Y-66095714D01*
X13337380Y-66476666D01*
X13385000Y-66571904D01*
X13432619Y-66619523D01*
X13527857Y-66667142D01*
X13670714Y-66667142D01*
X13765952Y-66619523D01*
X13813571Y-66571904D01*
X13861190Y-66476666D01*
X13861190Y-66095714D01*
X13337380Y-67571904D02*
X13337380Y-67095714D01*
X13813571Y-67048095D01*
X13765952Y-67095714D01*
X13718333Y-67190952D01*
X13718333Y-67429047D01*
X13765952Y-67524285D01*
X13813571Y-67571904D01*
X13908809Y-67619523D01*
X14146904Y-67619523D01*
X14242142Y-67571904D01*
X14289761Y-67524285D01*
X14337380Y-67429047D01*
X14337380Y-67190952D01*
X14289761Y-67095714D01*
X14242142Y-67048095D01*
X13337380Y-68476666D02*
X13337380Y-68286190D01*
X13385000Y-68190952D01*
X13432619Y-68143333D01*
X13575476Y-68048095D01*
X13765952Y-68000476D01*
X14146904Y-68000476D01*
X14242142Y-68048095D01*
X14289761Y-68095714D01*
X14337380Y-68190952D01*
X14337380Y-68381428D01*
X14289761Y-68476666D01*
X14242142Y-68524285D01*
X14146904Y-68571904D01*
X13908809Y-68571904D01*
X13813571Y-68524285D01*
X13765952Y-68476666D01*
X13718333Y-68381428D01*
X13718333Y-68190952D01*
X13765952Y-68095714D01*
X13813571Y-68048095D01*
X13908809Y-68000476D01*
%TO.C,R57*%
X7142857Y-69202380D02*
X7476190Y-68726190D01*
X7714285Y-69202380D02*
X7714285Y-68202380D01*
X7333333Y-68202380D01*
X7238095Y-68250000D01*
X7190476Y-68297619D01*
X7142857Y-68392857D01*
X7142857Y-68535714D01*
X7190476Y-68630952D01*
X7238095Y-68678571D01*
X7333333Y-68726190D01*
X7714285Y-68726190D01*
X6238095Y-68202380D02*
X6714285Y-68202380D01*
X6761904Y-68678571D01*
X6714285Y-68630952D01*
X6619047Y-68583333D01*
X6380952Y-68583333D01*
X6285714Y-68630952D01*
X6238095Y-68678571D01*
X6190476Y-68773809D01*
X6190476Y-69011904D01*
X6238095Y-69107142D01*
X6285714Y-69154761D01*
X6380952Y-69202380D01*
X6619047Y-69202380D01*
X6714285Y-69154761D01*
X6761904Y-69107142D01*
X5857142Y-68202380D02*
X5190476Y-68202380D01*
X5619047Y-69202380D01*
%TO.C,R59*%
X27042857Y-4812380D02*
X27376190Y-4336190D01*
X27614285Y-4812380D02*
X27614285Y-3812380D01*
X27233333Y-3812380D01*
X27138095Y-3860000D01*
X27090476Y-3907619D01*
X27042857Y-4002857D01*
X27042857Y-4145714D01*
X27090476Y-4240952D01*
X27138095Y-4288571D01*
X27233333Y-4336190D01*
X27614285Y-4336190D01*
X26138095Y-3812380D02*
X26614285Y-3812380D01*
X26661904Y-4288571D01*
X26614285Y-4240952D01*
X26519047Y-4193333D01*
X26280952Y-4193333D01*
X26185714Y-4240952D01*
X26138095Y-4288571D01*
X26090476Y-4383809D01*
X26090476Y-4621904D01*
X26138095Y-4717142D01*
X26185714Y-4764761D01*
X26280952Y-4812380D01*
X26519047Y-4812380D01*
X26614285Y-4764761D01*
X26661904Y-4717142D01*
X25614285Y-4812380D02*
X25423809Y-4812380D01*
X25328571Y-4764761D01*
X25280952Y-4717142D01*
X25185714Y-4574285D01*
X25138095Y-4383809D01*
X25138095Y-4002857D01*
X25185714Y-3907619D01*
X25233333Y-3860000D01*
X25328571Y-3812380D01*
X25519047Y-3812380D01*
X25614285Y-3860000D01*
X25661904Y-3907619D01*
X25709523Y-4002857D01*
X25709523Y-4240952D01*
X25661904Y-4336190D01*
X25614285Y-4383809D01*
X25519047Y-4431428D01*
X25328571Y-4431428D01*
X25233333Y-4383809D01*
X25185714Y-4336190D01*
X25138095Y-4240952D01*
%TO.C,R60*%
X26487380Y-23857142D02*
X26011190Y-23523809D01*
X26487380Y-23285714D02*
X25487380Y-23285714D01*
X25487380Y-23666666D01*
X25535000Y-23761904D01*
X25582619Y-23809523D01*
X25677857Y-23857142D01*
X25820714Y-23857142D01*
X25915952Y-23809523D01*
X25963571Y-23761904D01*
X26011190Y-23666666D01*
X26011190Y-23285714D01*
X25487380Y-24714285D02*
X25487380Y-24523809D01*
X25535000Y-24428571D01*
X25582619Y-24380952D01*
X25725476Y-24285714D01*
X25915952Y-24238095D01*
X26296904Y-24238095D01*
X26392142Y-24285714D01*
X26439761Y-24333333D01*
X26487380Y-24428571D01*
X26487380Y-24619047D01*
X26439761Y-24714285D01*
X26392142Y-24761904D01*
X26296904Y-24809523D01*
X26058809Y-24809523D01*
X25963571Y-24761904D01*
X25915952Y-24714285D01*
X25868333Y-24619047D01*
X25868333Y-24428571D01*
X25915952Y-24333333D01*
X25963571Y-24285714D01*
X26058809Y-24238095D01*
X25487380Y-25428571D02*
X25487380Y-25523809D01*
X25535000Y-25619047D01*
X25582619Y-25666666D01*
X25677857Y-25714285D01*
X25868333Y-25761904D01*
X26106428Y-25761904D01*
X26296904Y-25714285D01*
X26392142Y-25666666D01*
X26439761Y-25619047D01*
X26487380Y-25523809D01*
X26487380Y-25428571D01*
X26439761Y-25333333D01*
X26392142Y-25285714D01*
X26296904Y-25238095D01*
X26106428Y-25190476D01*
X25868333Y-25190476D01*
X25677857Y-25238095D01*
X25582619Y-25285714D01*
X25535000Y-25333333D01*
X25487380Y-25428571D01*
%TO.C,R61*%
X27947857Y-19417380D02*
X28281190Y-18941190D01*
X28519285Y-19417380D02*
X28519285Y-18417380D01*
X28138333Y-18417380D01*
X28043095Y-18465000D01*
X27995476Y-18512619D01*
X27947857Y-18607857D01*
X27947857Y-18750714D01*
X27995476Y-18845952D01*
X28043095Y-18893571D01*
X28138333Y-18941190D01*
X28519285Y-18941190D01*
X27090714Y-18417380D02*
X27281190Y-18417380D01*
X27376428Y-18465000D01*
X27424047Y-18512619D01*
X27519285Y-18655476D01*
X27566904Y-18845952D01*
X27566904Y-19226904D01*
X27519285Y-19322142D01*
X27471666Y-19369761D01*
X27376428Y-19417380D01*
X27185952Y-19417380D01*
X27090714Y-19369761D01*
X27043095Y-19322142D01*
X26995476Y-19226904D01*
X26995476Y-18988809D01*
X27043095Y-18893571D01*
X27090714Y-18845952D01*
X27185952Y-18798333D01*
X27376428Y-18798333D01*
X27471666Y-18845952D01*
X27519285Y-18893571D01*
X27566904Y-18988809D01*
X26043095Y-19417380D02*
X26614523Y-19417380D01*
X26328809Y-19417380D02*
X26328809Y-18417380D01*
X26424047Y-18560238D01*
X26519285Y-18655476D01*
X26614523Y-18703095D01*
%TO.C,R62*%
X15882857Y-25302380D02*
X16216190Y-24826190D01*
X16454285Y-25302380D02*
X16454285Y-24302380D01*
X16073333Y-24302380D01*
X15978095Y-24350000D01*
X15930476Y-24397619D01*
X15882857Y-24492857D01*
X15882857Y-24635714D01*
X15930476Y-24730952D01*
X15978095Y-24778571D01*
X16073333Y-24826190D01*
X16454285Y-24826190D01*
X15025714Y-24302380D02*
X15216190Y-24302380D01*
X15311428Y-24350000D01*
X15359047Y-24397619D01*
X15454285Y-24540476D01*
X15501904Y-24730952D01*
X15501904Y-25111904D01*
X15454285Y-25207142D01*
X15406666Y-25254761D01*
X15311428Y-25302380D01*
X15120952Y-25302380D01*
X15025714Y-25254761D01*
X14978095Y-25207142D01*
X14930476Y-25111904D01*
X14930476Y-24873809D01*
X14978095Y-24778571D01*
X15025714Y-24730952D01*
X15120952Y-24683333D01*
X15311428Y-24683333D01*
X15406666Y-24730952D01*
X15454285Y-24778571D01*
X15501904Y-24873809D01*
X14549523Y-24397619D02*
X14501904Y-24350000D01*
X14406666Y-24302380D01*
X14168571Y-24302380D01*
X14073333Y-24350000D01*
X14025714Y-24397619D01*
X13978095Y-24492857D01*
X13978095Y-24588095D01*
X14025714Y-24730952D01*
X14597142Y-25302380D01*
X13978095Y-25302380D01*
%TO.C,R63*%
X27042857Y-67672380D02*
X27376190Y-67196190D01*
X27614285Y-67672380D02*
X27614285Y-66672380D01*
X27233333Y-66672380D01*
X27138095Y-66720000D01*
X27090476Y-66767619D01*
X27042857Y-66862857D01*
X27042857Y-67005714D01*
X27090476Y-67100952D01*
X27138095Y-67148571D01*
X27233333Y-67196190D01*
X27614285Y-67196190D01*
X26185714Y-66672380D02*
X26376190Y-66672380D01*
X26471428Y-66720000D01*
X26519047Y-66767619D01*
X26614285Y-66910476D01*
X26661904Y-67100952D01*
X26661904Y-67481904D01*
X26614285Y-67577142D01*
X26566666Y-67624761D01*
X26471428Y-67672380D01*
X26280952Y-67672380D01*
X26185714Y-67624761D01*
X26138095Y-67577142D01*
X26090476Y-67481904D01*
X26090476Y-67243809D01*
X26138095Y-67148571D01*
X26185714Y-67100952D01*
X26280952Y-67053333D01*
X26471428Y-67053333D01*
X26566666Y-67100952D01*
X26614285Y-67148571D01*
X26661904Y-67243809D01*
X25757142Y-66672380D02*
X25138095Y-66672380D01*
X25471428Y-67053333D01*
X25328571Y-67053333D01*
X25233333Y-67100952D01*
X25185714Y-67148571D01*
X25138095Y-67243809D01*
X25138095Y-67481904D01*
X25185714Y-67577142D01*
X25233333Y-67624761D01*
X25328571Y-67672380D01*
X25614285Y-67672380D01*
X25709523Y-67624761D01*
X25757142Y-67577142D01*
%TO.C,R64*%
X6932380Y-75287142D02*
X6456190Y-74953809D01*
X6932380Y-74715714D02*
X5932380Y-74715714D01*
X5932380Y-75096666D01*
X5980000Y-75191904D01*
X6027619Y-75239523D01*
X6122857Y-75287142D01*
X6265714Y-75287142D01*
X6360952Y-75239523D01*
X6408571Y-75191904D01*
X6456190Y-75096666D01*
X6456190Y-74715714D01*
X5932380Y-76144285D02*
X5932380Y-75953809D01*
X5980000Y-75858571D01*
X6027619Y-75810952D01*
X6170476Y-75715714D01*
X6360952Y-75668095D01*
X6741904Y-75668095D01*
X6837142Y-75715714D01*
X6884761Y-75763333D01*
X6932380Y-75858571D01*
X6932380Y-76049047D01*
X6884761Y-76144285D01*
X6837142Y-76191904D01*
X6741904Y-76239523D01*
X6503809Y-76239523D01*
X6408571Y-76191904D01*
X6360952Y-76144285D01*
X6313333Y-76049047D01*
X6313333Y-75858571D01*
X6360952Y-75763333D01*
X6408571Y-75715714D01*
X6503809Y-75668095D01*
X6265714Y-77096666D02*
X6932380Y-77096666D01*
X5884761Y-76858571D02*
X6599047Y-76620476D01*
X6599047Y-77239523D01*
%TO.C,R65*%
X26572380Y-78097142D02*
X26096190Y-77763809D01*
X26572380Y-77525714D02*
X25572380Y-77525714D01*
X25572380Y-77906666D01*
X25620000Y-78001904D01*
X25667619Y-78049523D01*
X25762857Y-78097142D01*
X25905714Y-78097142D01*
X26000952Y-78049523D01*
X26048571Y-78001904D01*
X26096190Y-77906666D01*
X26096190Y-77525714D01*
X25572380Y-78954285D02*
X25572380Y-78763809D01*
X25620000Y-78668571D01*
X25667619Y-78620952D01*
X25810476Y-78525714D01*
X26000952Y-78478095D01*
X26381904Y-78478095D01*
X26477142Y-78525714D01*
X26524761Y-78573333D01*
X26572380Y-78668571D01*
X26572380Y-78859047D01*
X26524761Y-78954285D01*
X26477142Y-79001904D01*
X26381904Y-79049523D01*
X26143809Y-79049523D01*
X26048571Y-79001904D01*
X26000952Y-78954285D01*
X25953333Y-78859047D01*
X25953333Y-78668571D01*
X26000952Y-78573333D01*
X26048571Y-78525714D01*
X26143809Y-78478095D01*
X25572380Y-79954285D02*
X25572380Y-79478095D01*
X26048571Y-79430476D01*
X26000952Y-79478095D01*
X25953333Y-79573333D01*
X25953333Y-79811428D01*
X26000952Y-79906666D01*
X26048571Y-79954285D01*
X26143809Y-80001904D01*
X26381904Y-80001904D01*
X26477142Y-79954285D01*
X26524761Y-79906666D01*
X26572380Y-79811428D01*
X26572380Y-79573333D01*
X26524761Y-79478095D01*
X26477142Y-79430476D01*
%TO.C,R66*%
X10142857Y-44972380D02*
X10476190Y-44496190D01*
X10714285Y-44972380D02*
X10714285Y-43972380D01*
X10333333Y-43972380D01*
X10238095Y-44020000D01*
X10190476Y-44067619D01*
X10142857Y-44162857D01*
X10142857Y-44305714D01*
X10190476Y-44400952D01*
X10238095Y-44448571D01*
X10333333Y-44496190D01*
X10714285Y-44496190D01*
X9285714Y-43972380D02*
X9476190Y-43972380D01*
X9571428Y-44020000D01*
X9619047Y-44067619D01*
X9714285Y-44210476D01*
X9761904Y-44400952D01*
X9761904Y-44781904D01*
X9714285Y-44877142D01*
X9666666Y-44924761D01*
X9571428Y-44972380D01*
X9380952Y-44972380D01*
X9285714Y-44924761D01*
X9238095Y-44877142D01*
X9190476Y-44781904D01*
X9190476Y-44543809D01*
X9238095Y-44448571D01*
X9285714Y-44400952D01*
X9380952Y-44353333D01*
X9571428Y-44353333D01*
X9666666Y-44400952D01*
X9714285Y-44448571D01*
X9761904Y-44543809D01*
X8333333Y-43972380D02*
X8523809Y-43972380D01*
X8619047Y-44020000D01*
X8666666Y-44067619D01*
X8761904Y-44210476D01*
X8809523Y-44400952D01*
X8809523Y-44781904D01*
X8761904Y-44877142D01*
X8714285Y-44924761D01*
X8619047Y-44972380D01*
X8428571Y-44972380D01*
X8333333Y-44924761D01*
X8285714Y-44877142D01*
X8238095Y-44781904D01*
X8238095Y-44543809D01*
X8285714Y-44448571D01*
X8333333Y-44400952D01*
X8428571Y-44353333D01*
X8619047Y-44353333D01*
X8714285Y-44400952D01*
X8761904Y-44448571D01*
X8809523Y-44543809D01*
%TO.C,R67*%
X20962857Y-42912380D02*
X21296190Y-42436190D01*
X21534285Y-42912380D02*
X21534285Y-41912380D01*
X21153333Y-41912380D01*
X21058095Y-41960000D01*
X21010476Y-42007619D01*
X20962857Y-42102857D01*
X20962857Y-42245714D01*
X21010476Y-42340952D01*
X21058095Y-42388571D01*
X21153333Y-42436190D01*
X21534285Y-42436190D01*
X20105714Y-41912380D02*
X20296190Y-41912380D01*
X20391428Y-41960000D01*
X20439047Y-42007619D01*
X20534285Y-42150476D01*
X20581904Y-42340952D01*
X20581904Y-42721904D01*
X20534285Y-42817142D01*
X20486666Y-42864761D01*
X20391428Y-42912380D01*
X20200952Y-42912380D01*
X20105714Y-42864761D01*
X20058095Y-42817142D01*
X20010476Y-42721904D01*
X20010476Y-42483809D01*
X20058095Y-42388571D01*
X20105714Y-42340952D01*
X20200952Y-42293333D01*
X20391428Y-42293333D01*
X20486666Y-42340952D01*
X20534285Y-42388571D01*
X20581904Y-42483809D01*
X19677142Y-41912380D02*
X19010476Y-41912380D01*
X19439047Y-42912380D01*
%TO.C,R68*%
X8262857Y-36562380D02*
X8596190Y-36086190D01*
X8834285Y-36562380D02*
X8834285Y-35562380D01*
X8453333Y-35562380D01*
X8358095Y-35610000D01*
X8310476Y-35657619D01*
X8262857Y-35752857D01*
X8262857Y-35895714D01*
X8310476Y-35990952D01*
X8358095Y-36038571D01*
X8453333Y-36086190D01*
X8834285Y-36086190D01*
X7405714Y-35562380D02*
X7596190Y-35562380D01*
X7691428Y-35610000D01*
X7739047Y-35657619D01*
X7834285Y-35800476D01*
X7881904Y-35990952D01*
X7881904Y-36371904D01*
X7834285Y-36467142D01*
X7786666Y-36514761D01*
X7691428Y-36562380D01*
X7500952Y-36562380D01*
X7405714Y-36514761D01*
X7358095Y-36467142D01*
X7310476Y-36371904D01*
X7310476Y-36133809D01*
X7358095Y-36038571D01*
X7405714Y-35990952D01*
X7500952Y-35943333D01*
X7691428Y-35943333D01*
X7786666Y-35990952D01*
X7834285Y-36038571D01*
X7881904Y-36133809D01*
X6739047Y-35990952D02*
X6834285Y-35943333D01*
X6881904Y-35895714D01*
X6929523Y-35800476D01*
X6929523Y-35752857D01*
X6881904Y-35657619D01*
X6834285Y-35610000D01*
X6739047Y-35562380D01*
X6548571Y-35562380D01*
X6453333Y-35610000D01*
X6405714Y-35657619D01*
X6358095Y-35752857D01*
X6358095Y-35800476D01*
X6405714Y-35895714D01*
X6453333Y-35943333D01*
X6548571Y-35990952D01*
X6739047Y-35990952D01*
X6834285Y-36038571D01*
X6881904Y-36086190D01*
X6929523Y-36181428D01*
X6929523Y-36371904D01*
X6881904Y-36467142D01*
X6834285Y-36514761D01*
X6739047Y-36562380D01*
X6548571Y-36562380D01*
X6453333Y-36514761D01*
X6405714Y-36467142D01*
X6358095Y-36371904D01*
X6358095Y-36181428D01*
X6405714Y-36086190D01*
X6453333Y-36038571D01*
X6548571Y-35990952D01*
%TO.C,R69*%
X20222380Y-35187142D02*
X19746190Y-34853809D01*
X20222380Y-34615714D02*
X19222380Y-34615714D01*
X19222380Y-34996666D01*
X19270000Y-35091904D01*
X19317619Y-35139523D01*
X19412857Y-35187142D01*
X19555714Y-35187142D01*
X19650952Y-35139523D01*
X19698571Y-35091904D01*
X19746190Y-34996666D01*
X19746190Y-34615714D01*
X19222380Y-36044285D02*
X19222380Y-35853809D01*
X19270000Y-35758571D01*
X19317619Y-35710952D01*
X19460476Y-35615714D01*
X19650952Y-35568095D01*
X20031904Y-35568095D01*
X20127142Y-35615714D01*
X20174761Y-35663333D01*
X20222380Y-35758571D01*
X20222380Y-35949047D01*
X20174761Y-36044285D01*
X20127142Y-36091904D01*
X20031904Y-36139523D01*
X19793809Y-36139523D01*
X19698571Y-36091904D01*
X19650952Y-36044285D01*
X19603333Y-35949047D01*
X19603333Y-35758571D01*
X19650952Y-35663333D01*
X19698571Y-35615714D01*
X19793809Y-35568095D01*
X20222380Y-36615714D02*
X20222380Y-36806190D01*
X20174761Y-36901428D01*
X20127142Y-36949047D01*
X19984285Y-37044285D01*
X19793809Y-37091904D01*
X19412857Y-37091904D01*
X19317619Y-37044285D01*
X19270000Y-36996666D01*
X19222380Y-36901428D01*
X19222380Y-36710952D01*
X19270000Y-36615714D01*
X19317619Y-36568095D01*
X19412857Y-36520476D01*
X19650952Y-36520476D01*
X19746190Y-36568095D01*
X19793809Y-36615714D01*
X19841428Y-36710952D01*
X19841428Y-36901428D01*
X19793809Y-36996666D01*
X19746190Y-37044285D01*
X19650952Y-37091904D01*
%TD*%
M02*
